<svg width="60" height="60" viewBox="0 0 60 60" fill="none" xmlns="http://www.w3.org/2000/svg">
<rect width="60" height="60" rx="30" fill="#E94F3C"/>
<g clip-path="url(#clip0_800_32780)">
<path d="M48 26.775C48 19.8763 41.3074 14.2639 33.0814 14.2639C24.8551 14.2639 18.1625 19.8764 18.1625 26.775C18.1625 33.6737 24.8551 39.2861 33.0814 39.2861C33.773 39.2861 34.4671 39.2461 35.1494 39.167C38.3179 41.1799 40.6569 42.2816 42.1066 42.4426C42.157 42.4481 42.2078 42.4509 42.2575 42.4509C42.7231 42.4509 43.1541 42.2189 43.4108 41.8297C43.6976 41.3944 43.7164 40.8422 43.4608 40.3913C43.4489 40.3699 42.3302 38.3287 42.6529 36.3789C46.0566 33.997 48 30.5162 48 26.775Z" fill="white"/>
<path d="M25 27C25 28.1045 25.8954 29 27.0002 29C28.1045 29 29 28.1045 29 27C29 25.8955 28.1046 25 27.0002 25C25.8954 25 25 25.8954 25 27Z" fill="#E94F3C"/>
<path d="M32 27C32 28.1045 32.8954 29 34.0002 29C35.1045 29 36 28.1045 36 27C36 25.8955 35.1046 25 34.0002 25C32.8954 25 32 25.8954 32 27Z" fill="#E94F3C"/>
<path d="M39 27C39 28.1045 39.8954 29 41.0002 29C42.1045 29 43 28.1045 43 27C43 25.8955 42.1046 25 41.0002 25C39.8954 25 39 25.8954 39 27Z" fill="#E94F3C"/>
<path d="M21.3143 36.7848C19.834 35.5591 18.6671 34.1243 17.8465 32.5206C16.9813 30.8297 16.5426 29.031 16.5426 27.1745C16.5426 25.318 16.9814 23.5193 17.8465 21.8284C17.9128 21.699 17.9821 21.5712 18.0528 21.444C14.3988 23.5374 12 27.0313 12 30.9809C12 34.5293 13.9115 37.8193 17.2508 40.0323C17.8676 42.457 16.4364 45.0222 16.4212 45.0484C16.3359 45.1989 16.3422 45.3845 16.4374 45.5289C16.5232 45.659 16.668 45.736 16.8217 45.736C16.8387 45.736 16.8556 45.735 16.8728 45.7331C18.5435 45.5476 21.4856 43.8495 23.7144 42.4177C24.4651 42.5196 25.2324 42.5711 25.998 42.5711C28.926 42.5711 31.6464 41.8224 33.8959 40.5447C33.3934 40.585 32.8871 40.6064 32.3824 40.6064C28.2215 40.6064 24.2908 39.2492 21.3143 36.7848Z" fill="white"/>
</g>
<defs>
<clipPath id="clip0_800_32780">
<rect width="36" height="36" fill="white" transform="translate(12 12)"/>
</clipPath>
</defs>
</svg>
