<?xml version="1.0" encoding="utf-8"?>
<!-- Generator: Adobe Illustrator 22.0.0, SVG Export Plug-In . SVG Version: 6.00 Build 0)  -->
<svg version="1.1" xmlns="http://www.w3.org/2000/svg" xmlns:xlink="http://www.w3.org/1999/xlink" x="0px" y="0px"
	 viewBox="0 0 129 105.9" style="enable-background:new 0 0 129 105.9;" xml:space="preserve">
<style type="text/css">
	.st0{fill:#FFFEFD;}
	.st1{opacity:0.9;}
	.st2{fill:#CBE5CF;}
	.st3{fill:#DCEDDF;}
	.st4{fill:#E3F1E5;}
	.st5{fill:#E0EFE2;}
	.st6{fill:#D1E8D4;}
	.st7{fill:#D4E9D7;}
	.st8{fill:#BEDEC2;}
	.st9{fill:#C3E1C7;}
	.st10{fill:#C7E2CB;}
	.st11{fill:#EEF6EF;}
	.st12{fill:#EBF5EC;}
	.st13{fill:#FEF9DA;}
	.st14{fill:#FFFDF1;}
	.st15{fill:#FDF5C7;}
	.st16{fill:#FDF2B4;}
	.st17{fill:#FCEFA5;}
	.st18{fill:#FCED95;}
	.st19{fill:#272525;}
	.st20{opacity:0.85;}
	.st21{fill:#D3E6F6;}
	.st22{fill:#C4DEF3;}
	.st23{fill:#ACD0EE;}
	.st24{fill:#E2EFF9;}
	.st25{fill:#B8D7F0;}
	.st26{fill:#9FC9EB;}
	.st27{fill:#EADAEE;}
	.st28{fill:#F7F1F8;}
	.st29{fill:#DFC7E5;}
	.st30{fill:#D5B5DC;}
	.st31{fill:#CDA6D5;}
	.st32{fill:#C497CE;}
	.st33{fill:#D8BBDF;}
	.st34{fill:#E5D1E9;}
	.st35{fill:#E8D6EB;}
	.st36{fill:#DDC3E2;}
	.st37{fill:#DFC6E4;}
	.st38{fill:#CEA9D6;}
	.st39{fill:#D2B0DA;}
	.st40{fill:#F2E9F4;}
	.st41{fill:#F0E4F2;}
	.st42{opacity:0.8;}
	.st43{opacity:0.8;fill:#DC7D5B;}
	.st44{opacity:0.8;fill:#E9AE99;}
	.st45{opacity:0.8;fill:#F0C7B8;}
	.st46{opacity:0.8;fill:#F7E1DA;}
	.st47{fill:#F7E0D8;}
	.st48{fill:#FCF3F0;}
	.st49{fill:#F2D0C4;}
	.st50{fill:#EEC0B0;}
	.st51{fill:#EBB4A0;}
	.st52{fill:#E7A790;}
	.st53{fill:#F0C6B6;}
	.st54{fill:#F5D8CE;}
	.st55{fill:#F6DCD3;}
	.st56{fill:#F1CCBF;}
	.st57{fill:#F2CFC2;}
	.st58{fill:#ECB6A3;}
	.st59{fill:#EDBDAB;}
	.st60{fill:#FAECE7;}
	.st61{fill:#F9E8E2;}
	.st62{fill:#B7E9E6;}
	.st63{fill:#CFF0EE;}
	.st64{fill:#D9F3F2;}
	.st65{fill:#D4F2F0;}
	.st66{fill:#BFECE9;}
	.st67{fill:#C3EDEA;}
	.st68{fill:#A5E4E0;}
	.st69{fill:#ACE6E3;}
	.st70{fill:#B1E7E4;}
	.st71{fill:#E8F8F7;}
	.st72{fill:#E3F6F5;}
	.st73{fill:#FDF3BA;}
	.st74{fill:#FEF7D0;}
	.st75{fill:#FEF8D5;}
	.st76{fill:#FDF4C2;}
	.st77{fill:#FDF5C5;}
	.st78{fill:#FCF0A8;}
	.st79{fill:#FDF1AF;}
	.st80{fill:#FEFBE8;}
	.st81{fill:#FEFAE4;}
	.st82{fill:#C9E1F4;}
	.st83{fill:#DBEAF7;}
	.st84{fill:#DEEDF8;}
	.st85{fill:#CFE4F5;}
	.st86{fill:#D2E5F6;}
	.st87{fill:#BBD8F1;}
	.st88{fill:#C1DCF2;}
	.st89{fill:#EDF5FB;}
	.st90{fill:#EAF3FB;}
	.st91{fill:#C5EDEB;}
	.st92{fill:#91DED9;}
	.st93{fill:#A1E3DF;}
	.st94{fill:#80D8D3;}
</style>
<g id="background">
	<rect x="-279.9" y="-472.9" class="st0" width="1200" height="800"/>
</g>
<g id="colour">
</g>
<g id="object">
	<g>
		<g>
			<g class="st1">
				<g class="st1">
					<path class="st62" d="M70.1,67.3c-1.3-0.4-2.6-0.8-3.9-1.1c0.4-0.2,0.8-0.4,1.2-0.6C68.7,65.2,69.2,66.8,70.1,67.3z"/>
					<path class="st62" d="M73.6,68.5L73.6,68.5c-1-0.4-1.9-0.7-2.9-1c0.1,0,0.1,0,0.2,0C72,67.2,73.1,67.3,73.6,68.5z"/>
					<path class="st63" d="M93.2,64.6c-2.4,3.1-4.8,5.5-7.1,8c-0.4,0.1-0.8,0.4-1.1,0.3c0,0.1-1.8-0.3-2.7-0.6
						c1.1-1.2,2.2-2.7,3.4-4.5c-0.2-0.5-0.7-1.1-0.5-1.8c1.2-2.5,2.6-3.7,3.9-4.9C89.3,61.3,91.4,64.3,93.2,64.6z"/>
					<path class="st64" d="M96.7,66.6c0.9,0.6,1.8,2.3,2.2,2.9c-0.9,1.4-1.9,2.6-2.8,3.7c0.1,0.8,0,1.6,0.2,2
						c-0.2,0.2-0.4,0.4-0.6,0.6c-1.8-0.5-3.6-0.8-5.4-1.2C90.8,73.8,95.1,69.1,96.7,66.6z"/>
					<path class="st65" d="M93.6,65.5c0.5,0,0.9-0.1,1.3-0.1c0.6,0.3,1.2,0.7,1.8,1.2c-1.6,2.5-3.2,4.6-4.7,6.1c0.1,0-0.2,1-0.1,1.1
						c-0.8,0.4-1.1,0-1.6,0.9c-1.7-0.3-3.4-0.7-5-1.2c0.6-0.5,0.8,0,1.1,0.1c0.2-0.9-0.1-1-0.4-0.9c2.3-2.5,4.7-4.9,7.1-8l0.3,0.2
						C93.4,65.2,93.3,65.7,93.6,65.5z"/>
					<path class="st66" d="M74,64.5c1.6-1.2,3.2-3.1,4.8-5.4c0.2,0.3,0.5,1.1,1.2,0.7c0.7,0.4,2,1.6,2.6,0.8c0.6-0.8-3.1,3-4.7,4.7
						c-0.6,1.3-1.4,2.2-2.3,2.9c-0.1-0.1,0.3-0.9,0.3-1.1c0,0.1-0.7,0.9-0.7,0.9s-1-0.5-1.6-0.7c0.3-1.4-0.8-0.6-0.9-0.4l-0.5-0.2
						l0,0c0.4-0.3,0.8-0.7,1.1-1C73.6,65.5,74,64.5,74,64.5z"/>
					<path class="st67" d="M85.2,66c1.2-2.5,2.6-3.7,3.9-4.9c-0.2-0.3-0.8-0.9-0.9-1c-0.2,0.6-0.3,1.3-0.5,1.5
						c-0.6,0.1-1.3,0.2-1.6,0.1c-0.4-0.4-0.5-1.3-0.8-1.9c-0.5,0.1-0.9,0.1-1.4,0.2c0,0-0.6,0.8-0.8,1.2c-0.3-0.1-0.4-0.3-0.6-0.6
						c-0.1,0.2-3.5,2.5-4.7,4.7c-0.6,1.3-1.4,2.2-2.3,2.9c0,0,1.2,0.7,1.8,1c0.1-0.2,0.1-0.9,0-1c0.1,0,0.4,1.1,0.5,1.3
						c0.4,0.2,1.3,0.7,1.4,0.6c0.1,0,0.2-0.7,0.4-1.4c0.1,1.1,0.4,1.9,0.7,2.5l0.4,0.2c-0.1,0.3-0.1,0.5-0.2,0.4
						c-0.1,0-0.2,0.1-0.3,0.1c0.2,0.2,1.2,0.8,1.5,1c-0.2-0.3-0.4-0.7-0.5-1.2c0.3,0.2,0.6,0.3,0.9,0.4l0,0c1.1-1.2,2.2-2.7,3.3-4.5
						C85.5,67.3,85,66.6,85.2,66z"/>
					<path class="st68" d="M55.9,62.9c-0.2-0.7-0.5-1-0.9-1.3c-0.3-0.3-0.7-0.7-1.1-1.5c-0.8-1.5-1.5-3.1-2.1-4.8
						c-0.7-1.7-1.2-3.5-2.1-5.2c2.5-0.1,4.7,0.1,6.7,0.6c2,0.4,3.8,1,5.4,1.5c-0.6,0.7-1.2,0.8-1.8,1c-0.6,0.2-1.2,0.6-1.6,1.8
						c0,0.4,0.2,0.7,0.3,1.1c-0.4,0.5-1,0.8-1.4,1.2c-0.4,0.4-0.7,1-0.7,1.9c0,1.1,0.2,2.3,0.2,3.7l-0.2,0
						C56.5,62.4,56.2,62.8,55.9,62.9z"/>
					<path class="st69" d="M59.1,64.5c-0.5,0-0.9,0-1.3,0c0-0.3,0.1-0.7,0.1-1c0.5,0,1.1,0,1.7,0C59.4,63.8,59.2,64.1,59.1,64.5z"/>
					<path class="st69" d="M58.6,56.1c-0.1-0.4-0.3-0.8-0.3-1.1c0.5-1.3,1-1.6,1.6-1.8c0.6-0.2,1.2-0.3,1.8-1
						c1.3,0.4,2.4,0.9,3.6,1.3c-0.3,0.2-0.6,0.4-0.9,0.6c0.6,0.2,0,2.6,0.6,2.8c-1.3,0.9-2.5,1.4-3.7,2.1c-1.1,0.7-2.2,1.7-3,3.7
						c-0.6,0.1-1.1,0.2-1.6,0.2c0-1.4-0.2-2.6-0.2-3.7c0-0.9,0.3-1.4,0.7-1.9C57.7,56.9,58.2,56.6,58.6,56.1z"/>
					<path class="st70" d="M65.1,56.9c-0.6-0.2,0.1-2.6-0.6-2.8c0.3-0.2,0.6-0.4,0.9-0.6l3.8,1.5c0.1,0.1,0.1,0.1,0.2,0.2
						c0.8,0.6,1.6,0.8,2.4,1.4c-1.1,1.1-2.2,2.2-3.3,3.2c-0.3-2.3-0.9-4.3-2-5.8c0.4,0.5-0.4,2.2-0.3,2.6c0.2,2.2-0.7,6.3-1.7,7.8
						c-1.7-0.4-3.4-0.6-4.9-0.7c0-0.5,0-1.2,0-1.2c-0.5,0.1-0.9,0.2-1.3,0.3c0.8-2,1.8-3,3-3.7C62.5,58.3,63.8,57.9,65.1,56.9z"/>
					<path class="st62" d="M68.5,59.8c1.1-1,2.2-2.1,3.3-3.2c0.2,0.2,0.4,0.3,0.5,0.6c0.1-0.3,0.2-0.6,0.3-0.9l0.5,0.2
						c0.1,0.3-0.1,1.4,0.7,0.2l0.7,0.2c0.1,0.5,0,1.1-0.1,1.8l0.4-1c0.5-0.6,0.5,0.2,0.7,0.3c0.1-0.2,0.2-0.5,0.3-0.7
						c0.7,1.2,2.6,1,2.8,1.1c0.1,0.2,0.2,0.5,0.3,0.6c-1.5,2.2-3.1,4.2-4.8,5.4c0,0-0.4,1-0.7,1.3c-0.4,0.3-0.7,0.7-1.1,1
						c-0.5-2.1-2.8-1-2.9-1l-0.5-0.2C67.8,65,67,62.6,65,64.5l-0.4-0.1c1-1.5,1.9-5.6,1.7-7.8C66.1,56.2,66,54,66.5,54
						C68,54.9,68.5,59.9,68.5,59.8z"/>
					<path class="st71" d="M102.3,73.5c0.3,0.4,0.6,0.7,0.9,1.1c-0.4-0.2-0.7-0.7-1.2,0c-0.1-0.3-0.3-0.4-0.5-0.5
						C101.7,73.8,102,73.6,102.3,73.5z"/>
					<path class="st71" d="M99.6,78l-0.3-0.1c0.3-0.7,0.8-1.2,0.9-0.8c0.3-0.7-0.2-0.1-0.1-0.4c0.4-0.9,0.5-0.9,0.6-0.7
						c-0.6,1.5-1.4,2.9-1.6,2.8l-0.2-0.1C99.1,78.4,99.3,78.3,99.6,78z"/>
					<path class="st72" d="M96.3,75.2c-0.2-0.5-0.1-1.2-0.2-2c0.9-1.1,1.9-2.4,2.8-3.7c0.7,1.1,1.5,2,2.3,3
						c-0.3,0.1-0.5,0.3-0.8,0.5c0.2,0.1,0.4,0.2,0.5,0.5c-0.1,0.1-0.2,0.3-0.3,0.5l0,0c-0.1-0.2-0.3-0.2-0.6,0.7
						c-0.1,0.3,0.4-0.2,0.1,0.4c-0.1-0.4-0.6,0.1-0.9,0.8l0.3,0.1c-0.2,0.3-0.5,0.4-0.7,0.7c-1-0.4-2-0.7-3-1
						C95.9,75.6,96.1,75.4,96.3,75.2z"/>
				</g>
			</g>
		</g>
		<g>
			<g class="st1">
				<g class="st1">
					<path class="st33" d="M104.9,35.4c-1.6,0.7-3.2,1.4-4.7,2.1c0.3-0.4,0.5-0.9,0.8-1.3C101.9,35,103.6,35.7,104.9,35.4z"/>
					<path class="st33" d="M109.3,33.6C109.3,33.7,109.3,33.7,109.3,33.6c-1.2,0.5-2.5,0.9-3.7,1.4c0.1,0,0.2-0.1,0.2-0.2
						C106.8,33.9,107.8,33.2,109.3,33.6z"/>
					<path class="st34" d="M117.2,19.5c1.9-0.4,3.7-0.5,5.5-0.1c0.9,0.2,1.8,0.5,2.6,1c0.8,0.5,1.7,1.1,2.3,2.3c0,0.5,0,1.2-0.2,2
						c-0.2,0.8-0.6,1.6-1.2,2.1c0,0-0.4,0.5-1.1,1.1c-0.7,0.5-1.5,0.9-2.1,1.2c-0.2,0.1-0.4,0.2-0.6,0.3c-0.2,0.1-0.4,0.2-0.5,0.2
						c-0.4,0.1-0.7,0.3-1,0.4c0.2-1.7,0.1-3.6-0.1-5.7c-0.6-0.2-1.6-0.2-1.8-0.9c-0.3-1.3-0.4-2.5-0.3-3.5c0-0.5,0.1-1,0.2-1.5
						c0-0.2,0.1-0.5,0.1-0.7c0-0.1,0-0.2-0.1-0.3c0.3,0.8,0.5,1.4,0.7,1.7c0,0.1,0.1,0.3,0.3,0.6c0.1,0.3,0.2,0.5,0.4,0.8
						c0.2,0.5,0.5,0.9,0.7,1.1c0,0.1,0.1,0.1,0.1,0.1l0,0l0,0c-0.1,0-0.2-0.1-0.4-0.2c-0.4-0.2-1-0.3-2.2-0.4l-0.5,0l-0.9,0l0,0
						l0.1,0c0,0,0.1,0,0.1-0.1c0.1-0.1,0.2-0.2,0.2-0.4C117.6,20.2,117.4,19.8,117.2,19.5z"/>
					<path class="st27" d="M115.3,15c-0.5-1.3-0.3-3.6-0.3-4.4c1.6-0.4,3.2-0.7,4.7-0.8c0.4-0.8,0.9-1.4,1-2c0.3,0,0.6,0,0.9,0
						c1.3,2,2.8,3.8,4.2,5.8C124.8,13.8,118.2,14.2,115.3,15z"/>
					<path class="st35" d="M117.5,18.5c-0.4-0.3-0.8-0.6-1.2-0.9c-0.4-0.8-0.7-1.7-1-2.6c2.9-0.8,5.6-1.2,7.8-1.2
						c-0.1-0.1,0.8-0.7,0.7-0.9c0.9,0.3,1,0.9,2,0.6c0.7,1,1.5,2.1,2.1,3.8c0.3,0.8,0.6,1.8,0.7,2.8c0.1,0.5,0.1,1,0.1,1.8
						c0,0.7-0.2,1.6-0.6,2.7c0.1-1,0.1-1.8,0.2-2.4c0.1-0.6,0.2-1.2,0.1-1.6c-0.8,0.4-0.9,1-0.8,2.1c-0.6-1.2-1.4-1.8-2.3-2.3
						c-0.8-0.5-1.7-0.8-2.6-1c-1.8-0.4-3.6-0.2-5.5,0.1l-0.1-0.3C117.4,18.9,117.8,18.6,117.5,18.5z"/>
					<path class="st36" d="M106.6,30.5c0.7-2.1,0.8-4.6,0.7-7.4c0.5,0.1,1.4,0.4,1.7-0.4c1-0.3,3.2-0.4,3.2-1.4c0-1-0.9,4.4-1.1,6.8
						c0.3,1.4,0.2,2.6-0.1,3.8c-0.2,0-0.3-0.9-0.6-1c0,0.1,0,1.2,0,1.2s-1.4,0.4-2.1,0.6c-0.8-1.2-1.3,0.1-1.2,0.4l-0.6,0.2l0,0
						c0.1-0.5,0.2-1,0.4-1.5C107,31.5,106.6,30.5,106.6,30.5z"/>
					<path class="st37" d="M119.1,23.2c-0.3-1.3-0.4-2.5-0.3-3.5c0-0.5,0.1-1,0.2-1.5c0-0.2,0.1-0.5,0.1-0.7c0-0.1,0-0.2-0.1-0.3
						c0.3,0.8,0.5,1.4,0.7,1.7c-0.1-0.2-0.2-0.4-0.2-0.6c-0.1-0.3-0.2-0.6-0.4-0.9c-0.1-0.2-0.2-0.4-0.2-0.6c0,0,0,0,0,0
						c-0.1,0-0.3,0-0.4,0c-0.3,0-0.6,0-0.7,0c0.3,0.5,0.7,1.1,0.6,1.4c-0.5,0.5-1.1,1.1-1.6,1.3c-0.6,0-1.5-0.6-2.3-0.8
						c-0.4,0.4-0.8,0.8-1.2,1.2c0,0,0,1,0.2,1.5c-0.3,0.1-0.7,0.1-1.1,0c0,0.2-1.6,4.3-1.1,6.8c0.3,1.4,0.2,2.6-0.1,3.8
						c0,0,1.8-0.4,2.6-0.6c-0.1-0.2-0.6-0.7-0.7-0.7c0.1,0,1.2,0.5,1.6,0.6c0.5-0.1,1.8-0.5,1.9-0.6c0.1-0.1-0.4-0.6-0.6-1.3
						c0.9,0.7,1.8,1.1,2.6,1.2l0.6-0.1c0.1,0.2,0.2,0.4,0.2,0.4c-0.1,0.1-0.2,0.2-0.3,0.3c0.4-0.1,1.9-0.3,2.3-0.4
						c-0.5-0.1-0.9-0.2-1.4-0.5c0.4-0.1,0.8-0.2,1.2-0.3l0,0c0.2-1.7,0.1-3.6-0.1-5.7C120.3,23.9,119.3,23.9,119.1,23.2z"/>
					<path class="st38" d="M83,42.7c-0.6-0.5-1.3-0.6-1.9-0.8c-0.1,0-0.2-0.1-0.3-0.1l-0.4,0c-0.3,0-0.5-0.1-0.8-0.2
						c-0.5-0.2-1.1-0.4-1.5-0.9c-0.7-0.8-1-1.8-0.8-2.7c0.1-0.4,0.3-0.8,0.5-1.2l0.1-0.1l0-0.1l0,0l0,0l0,0c0,0,0,0,0,0
						c0,0,0,0,0.1,0c-0.1,0.1,0,0.1,0.1-0.2c0.1-0.3,0.1-0.8,0.1-1.4c-0.1-0.7-0.2-1.5-0.4-2.4l-0.2-0.7L77.2,31c0-0.1,0.1,0,0.1,0
						l0.2,0c1,0,1.9-0.1,2.8-0.2c1.9-0.2,3.7-0.5,5.5-0.9c-0.3,1.8-2.1,1.5-2,4.2c0.1,0.3,0.5,0.6,0.8,0.9c-0.5,1.3-1.9,2.2-1.3,3.9
						c0.4,1,1,2.1,1.6,3.4l-0.3,0.1C84,41.9,83.6,42.5,83,42.7z"/>
					<path class="st39" d="M89.9,41.8l-2.3,1.1c-0.1-0.3-0.2-0.6-0.4-0.9c0.9-0.3,1.9-0.8,2.7-1.3C89.9,41,89.9,41.4,89.9,41.8z"/>
					<path class="st39" d="M84.6,34.9c-0.3-0.3-0.7-0.5-0.8-0.9c-0.1-2.7,1.6-2.4,2-4.2c1.4-0.3,2.8-0.7,4.1-1.1
						c-0.1,0.4-0.3,0.7-0.4,1.1c0.7-0.3,1.7,2.1,2.4,1.8c-1.3,3.2-4.1,4.7-4.3,9.2c-0.9,0.5-1.8,1-2.7,1.3c-0.6-1.3-1.2-2.4-1.6-3.4
						C82.7,37.1,84.1,36.2,84.6,34.9z"/>
					<path class="st30" d="M92,31.6c-0.7,0.3-1.7-2.1-2.4-1.8c0.1-0.4,0.3-0.7,0.4-1.1c1.6-0.5,3.1-1,4.7-1.5c0.1,0,0.2,0,0.3,0
						c1.3-0.1,2.2-0.6,3.4-0.7c-0.3,1.6-0.5,3.2-0.9,4.8c-2-1.4-4.1-2.4-6.1-2.8c0.7,0.1,1.1,1.9,1.6,2.1c1.7,1.5,4,5.1,4,6.9
						c-2.2,1.1-4.4,2.1-6.7,3.2c-0.3-0.4-0.8-1-0.9-1c-0.6,0.4-1.2,0.8-1.8,1.1C87.9,36.4,90.6,34.9,92,31.6z"/>
					<path class="st33" d="M97.5,31.3c0.3-1.6,0.6-3.2,0.9-4.8c0.3,0,0.6,0,1,0c-0.1-0.3-0.2-0.6-0.4-0.9l0.6-0.2
						c0.3,0.1,0.9,1.1,0.8-0.3l0.9-0.3c0.4,0.3,0.9,0.7,1.3,1.4l-0.3-1c0.1-0.8,0.6-0.2,0.9-0.3c-0.1-0.2-0.2-0.5-0.2-0.7
						c1.7,0.4,3.3-1.2,3.7-1.3c0.3,0.1,0.5,0.2,0.8,0.3c0.2,2.8,0.1,5.3-0.7,7.4c0,0,0.3,1,0.3,1.4c-0.1,0.5-0.2,1-0.4,1.5
						c-2.2-1.1-3.6,1.4-3.7,1.5l-0.7,0.3c-1.4,0.3-4-0.8-4.7,2.1L97,37.5c0-1.9-2.3-5.4-4-6.9c-0.4-0.2-2-1.9-1.6-2.1
						C93.3,28.1,97.6,31.4,97.5,31.3z"/>
					<path class="st40" d="M114.3,4.1c-0.1-0.6-0.1-1.1-0.2-1.7c0.3,0.5,0.2,1.2,1.1,1.1c-0.1,0.4,0,0.6,0.2,0.9
						C115,4.3,114.6,4.2,114.3,4.1z"/>
					<path class="st40" d="M119.3,2.5l0.2,0.4c-0.6,0.3-1.4,0.4-1.2,0c-0.6,0.3,0.1,0.3-0.2,0.4c-0.8,0.5-1,0.3-1,0.1
						c1.4-0.8,2.9-1.3,3.1-1.1l0.1,0.3C120,2.6,119.7,2.4,119.3,2.5z"/>
					<path class="st41" d="M120.7,7.8c-0.1,0.6-0.6,1.2-1,2c-1.4,0.1-3,0.4-4.7,0.8c-0.1-1.6-0.2-3.1-0.4-4.6
						c0.3,0.1,0.6,0.2,1.1,0.3c-0.1-0.3-0.3-0.5-0.2-0.9c0.2,0,0.4-0.1,0.6-0.2l0,0c0,0.2,0.1,0.4,1-0.1c0.3-0.2-0.5-0.1,0.2-0.4
						c-0.2,0.4,0.6,0.4,1.2,0l-0.2-0.4c0.4-0.1,0.7,0,1.1,0.1c0.7,1.2,1.4,2.3,2.1,3.5C121.3,7.7,121,7.7,120.7,7.8z"/>
				</g>
			</g>
		</g>
		<g>
			<g>
				<g>
					<g>
						<path class="st19" d="M84.6,9C67-0.6,46.7-3.8,28.4,5.8C12,14.2,0.9,30.6,0.1,49.1c-0.9,19.4,8.8,38.3,25.4,48.4
							c15.4,9.4,35.2,11.1,52,4.2c9.4-3.8,17.9-10.4,23-19.2c6-10.4,8-24.1,8.2-36c0-0.7-2.9-0.3-2.9,0.8
							c-0.3,19.3-5.5,39.8-23.1,50.2c-15.9,9.5-36.2,8.8-52.3,0.2C-0.9,80.9-6.8,35.5,20.9,12.6C39.2-2.6,62.4-0.6,82.3,10.3
							C83,10.7,85.7,9.6,84.6,9L84.6,9z"/>
					</g>
				</g>
			</g>
			<g>
				<g>
					<g>
						<path class="st19" d="M82.2,9.3C68.8,23.6,56.1,38.5,43.9,53.8c-0.7,0.9,0.2,1.6,1.1,1.6c21-0.5,41.9-3,62.4-7.4
							c1.8-0.4,1.2-2.5-0.6-2.1c-20.2,4.4-40.9,6.8-61.6,7.3c0.4,0.5,0.7,1,1.1,1.6c12.2-15.3,24.9-30.2,38.3-44.5
							C85.9,8.9,83.1,8.3,82.2,9.3L82.2,9.3z"/>
					</g>
				</g>
			</g>
			<g>
				<g>
					<g>
						<path class="st19" d="M45.5,55.3c9.1,4.4,18.3,8.7,27.4,13.1c8.5,4.1,16.9,8.7,26.1,11.1c1.2,0.3,3.4-1.5,1.7-1.9
							c-9.1-2.4-17.6-7.1-26.1-11.1c-9.1-4.4-18.3-8.7-27.4-13.1C45.9,52.8,43.8,54.5,45.5,55.3L45.5,55.3z"/>
					</g>
				</g>
			</g>
			<g>
				<g>
					<g>
						<path class="st19" d="M75.2,41.1c2.4-6.1,8.6-10.8,13.1-15.4c5.1-5.3,10.2-10.6,15.3-16c1.9-2,5.4-7.3,8.4-7.2
							c3.1,0,6.8,4.2,8.4,6.4c4.1,5.7,5,12.9,5.8,19.6c0.4-0.4,0.8-0.9,1.2-1.3C109.9,32.8,92.3,38.2,74,40
							c-1.5,0.2-2.3,2.1-0.3,1.9c18.6-1.9,36.4-7.3,54.2-12.9c0.6-0.2,1.3-0.6,1.2-1.3c-1-7.8-2.2-16.3-7.9-22.2
							c-2.7-2.9-8.5-7.2-12.5-4.4c-3.5,2.6-6.5,6.8-9.6,9.9c-3.5,3.7-7.1,7.4-10.6,11.1c-5.4,5.6-13.1,11.3-16.1,18.7
							C71.9,42.3,74.7,42.2,75.2,41.1L75.2,41.1z"/>
					</g>
				</g>
			</g>
		</g>
	</g>
</g>
</svg>
