<?xml version="1.0" encoding="utf-8"?>
<!-- Generator: Adobe Illustrator 22.0.0, SVG Export Plug-In . SVG Version: 6.00 Build 0)  -->
<svg version="1.1" xmlns="http://www.w3.org/2000/svg" xmlns:xlink="http://www.w3.org/1999/xlink" x="0px" y="0px"
	 viewBox="0 0 123.1 117.2" style="enable-background:new 0 0 123.1 117.2;" xml:space="preserve">
<style type="text/css">
	.st0{fill:#FFFEFD;}
	.st1{opacity:0.9;}
	.st2{fill:#CBE5CF;}
	.st3{fill:#DCEDDF;}
	.st4{fill:#E3F1E5;}
	.st5{fill:#E0EFE2;}
	.st6{fill:#D1E8D4;}
	.st7{fill:#D4E9D7;}
	.st8{fill:#BEDEC2;}
	.st9{fill:#C3E1C7;}
	.st10{fill:#C7E2CB;}
	.st11{fill:#EEF6EF;}
	.st12{fill:#EBF5EC;}
	.st13{fill:#FEF9DA;}
	.st14{fill:#FFFDF1;}
	.st15{fill:#FDF5C7;}
	.st16{fill:#FDF2B4;}
	.st17{fill:#FCEFA5;}
	.st18{fill:#FCED95;}
	.st19{fill:#272525;}
	.st20{opacity:0.85;}
	.st21{fill:#D3E6F6;}
	.st22{fill:#C4DEF3;}
	.st23{fill:#ACD0EE;}
	.st24{fill:#E2EFF9;}
	.st25{fill:#B8D7F0;}
	.st26{fill:#9FC9EB;}
	.st27{fill:#EADAEE;}
	.st28{fill:#F7F1F8;}
	.st29{fill:#DFC7E5;}
	.st30{fill:#D5B5DC;}
	.st31{fill:#CDA6D5;}
	.st32{fill:#C497CE;}
	.st33{fill:#D8BBDF;}
	.st34{fill:#E5D1E9;}
	.st35{fill:#E8D6EB;}
	.st36{fill:#DDC3E2;}
	.st37{fill:#DFC6E4;}
	.st38{fill:#CEA9D6;}
	.st39{fill:#D2B0DA;}
	.st40{fill:#F2E9F4;}
	.st41{fill:#F0E4F2;}
	.st42{opacity:0.8;}
	.st43{opacity:0.8;fill:#DC7D5B;}
	.st44{opacity:0.8;fill:#E9AE99;}
	.st45{opacity:0.8;fill:#F0C7B8;}
	.st46{opacity:0.8;fill:#F7E1DA;}
	.st47{fill:#F7E0D8;}
	.st48{fill:#FCF3F0;}
	.st49{fill:#F2D0C4;}
	.st50{fill:#EEC0B0;}
	.st51{fill:#EBB4A0;}
	.st52{fill:#E7A790;}
	.st53{fill:#F0C6B6;}
	.st54{fill:#F5D8CE;}
	.st55{fill:#F6DCD3;}
	.st56{fill:#F1CCBF;}
	.st57{fill:#F2CFC2;}
	.st58{fill:#ECB6A3;}
	.st59{fill:#EDBDAB;}
	.st60{fill:#FAECE7;}
	.st61{fill:#F9E8E2;}
	.st62{fill:#B7E9E6;}
	.st63{fill:#CFF0EE;}
	.st64{fill:#D9F3F2;}
	.st65{fill:#D4F2F0;}
	.st66{fill:#BFECE9;}
	.st67{fill:#C3EDEA;}
	.st68{fill:#A5E4E0;}
	.st69{fill:#ACE6E3;}
	.st70{fill:#B1E7E4;}
	.st71{fill:#E8F8F7;}
	.st72{fill:#E3F6F5;}
	.st73{fill:#FDF3BA;}
	.st74{fill:#FEF7D0;}
	.st75{fill:#FEF8D5;}
	.st76{fill:#FDF4C2;}
	.st77{fill:#FDF5C5;}
	.st78{fill:#FCF0A8;}
	.st79{fill:#FDF1AF;}
	.st80{fill:#FEFBE8;}
	.st81{fill:#FEFAE4;}
	.st82{fill:#C9E1F4;}
	.st83{fill:#DBEAF7;}
	.st84{fill:#DEEDF8;}
	.st85{fill:#CFE4F5;}
	.st86{fill:#D2E5F6;}
	.st87{fill:#BBD8F1;}
	.st88{fill:#C1DCF2;}
	.st89{fill:#EDF5FB;}
	.st90{fill:#EAF3FB;}
	.st91{fill:#C5EDEB;}
	.st92{fill:#91DED9;}
	.st93{fill:#A1E3DF;}
	.st94{fill:#80D8D3;}
</style>
<g id="background">
	<rect x="-849.7" y="-43.6" class="st0" width="1200" height="800"/>
</g>
<g id="colour">
</g>
<g id="object">
	<g>
		<g>
			<g class="st1">
				<g class="st1">
					<path class="st82" d="M120.4,56.1c-1.8,7.4-5.6,14.6-11.7,20c-3.1,2.7-6.6,4.8-10.4,6.2c-3.8,1.4-7.8,2.2-11.9,2.2
						c3.6-0.3,7.1-1.2,10.2-2.5c2.7-1.1,5.3-2.4,7.9-4c2.5-1.6,4.9-3.6,7-5.8C115.7,67.7,118.9,62.1,120.4,56.1z"/>
					<path class="st82" d="M110.9,17.1C110.9,17.1,111,17.2,110.9,17.1c3.8,4.5,6.6,9.7,8.4,15.2c1.8,5.5,2.6,11.4,2.1,17.3
						c0.1-0.8,0-1.6,0.1-2.4c-0.2-5.5-1.3-10.9-3.1-15.9C116.5,26.3,114,21.6,110.9,17.1z"/>
					<path class="st83" d="M12.1,86.8c-1.8-1.4-3.5-3.2-4.9-5.5c-1.4-2.3-2.4-5.1-3.1-8.1c-0.7-3-1.1-6.1-1.4-9.2
						c-0.2-3.1-0.4-6.3-0.4-9.4c0.1-0.8,0.3-1.5,0.4-2.3c0.2-0.8,0.3-1.6,0.5-2.3c0.3-1.5,0.7-3,1.1-4.2c0,0,0.1-0.3,0.2-0.8
						c0.2-0.5,0.4-1.2,0.7-2.1c0.3-0.9,0.7-2,1.2-3.1c0.2-0.6,0.5-1.2,0.8-1.9c0.3-0.6,0.6-1.3,0.9-2c1.3-2.7,2.9-5.6,4.6-8.3
						c1.8-2.7,3.6-5.1,5.3-7c-2.7,5.4-3.7,10.5-3.6,14.8c0.5-0.7,1.1-1.7,1.9-2.6c0.7-1,1.4-2,2.2-2.8c1.4-1.7,2.8-2.9,3.1-2.7
						c0.3,0.8,0.3,1.8,0.1,2.9c-0.1,1.2-0.4,2.5-0.8,3.9c-0.7,2.9-1.7,6.3-2.4,9.8c-0.2,0.5-1.3,2.4-2.6,5.4
						c-1.3,3-2.8,7.1-4.1,11.7c-1.3,4.7-2.4,9.8-2.5,14.4c0,2.3,0.2,4.5,0.6,6.4C10.5,83.6,11.3,85.3,12.1,86.8z"/>
					<path class="st24" d="M40.2,106.6c4.8,1.2,10.6,2.1,16,2.3c5.4,0.3,10.2-0.3,13-0.7c-1.5,1.1-3,2.2-4.8,3.3
						c-0.9,0.5-1.8,1-2.8,1.5c-0.5,0.2-1,0.5-1.5,0.7c-0.5,0.2-1.1,0.4-1.6,0.6c1.9,0.3,3.4,0.4,5,0.5c0.8,0,1.6,0.1,2.4,0.1
						c0.8,0,1.7-0.1,2.6-0.2c-0.9,0.4-1.8,0.9-2.7,1.3c-1.2,0.2-2.4,0.3-3.5,0.5l-1.8,0.2c-0.6,0.1-1.2,0.1-1.8,0.1l-3.6,0.2
						c-1.2,0-2.4,0-3.6,0l-1.8,0c-0.6,0-1.2-0.1-1.8-0.1l-3.6-0.3l-3.6-0.6l-1.8-0.3l-1.8-0.4c-1.2-0.3-2.4-0.5-3.5-0.9l-3.5-1.2
						c-1.2-0.3-2.3-0.8-3.4-1.3c-1.1-0.5-2.3-0.9-3.3-1.5c-2.2-1.2-4.4-2.3-6.3-3.8l-1.5-1.1l-0.8-0.5l-0.7-0.6l-2.8-2.4
						c0.4,0,2.1,0.8,4.4,1.8c1.2,0.4,2.6,0.9,4.1,1.4c0.4,0.1,0.7,0.2,1.1,0.4c0.4,0.1,0.8,0.2,1.2,0.3c0.8,0.2,1.6,0.4,2.4,0.5
						c1.6,0.4,3.3,0.5,4.8,0.7c0.8,0.1,1.5,0.2,2.3,0.2c0.8,0,1.5,0,2.2,0c0.7,0,1.4,0,2-0.1c0.6,0,1.2-0.1,1.8-0.2
						C38.7,107,39.5,106.8,40.2,106.6z"/>
					<path class="st84" d="M15.2,92.4c0.6,0.7,1.3,1.3,1.9,1.9c0.6,0.6,1.4,1.1,2,1.6c0.7,0.5,1.3,1,2,1.5c0.7,0.4,1.4,0.9,2,1.3
						c5,3.6,10.8,6.2,17,7.9c-1.3,0.4-2.7,0.8-4.2,1.1c-1.5,0.2-3.2,0.3-5,0.3c-1.7-0.1-3.7-0.3-5.6-0.7c-1-0.2-2-0.5-3-0.8
						c-0.5-0.2-1-0.3-1.6-0.5c-0.5-0.2-1-0.4-1.5-0.6c0.5,0.4,0.8,0.9,1.2,1.5c0.4,0.5,0.8,1,1.3,1.4c-0.7-0.3-1.4-0.6-2-1
						c-0.6-0.4-1.2-0.7-1.8-1.1c-1.1-0.7-2.1-1.3-3-1.9c-1.6-1.2-2.8-2.1-3.7-2.1c-3.4-3.1-6.5-6.7-8.9-11.1c-1.2-2.2-2.1-4.6-2.8-7
						c-0.6-2.4-1-4.9-1.1-7.3c-0.3-4.8,0.3-9.4,1-13.7c0.7-4.3,1.7-8.6,2.9-12.8c-0.4,3.8-1.7,7.4-2.4,11.1c1.2-1.6,1.8-4.2,2.3-6.9
						c0,3.1,0.1,6.3,0.4,9.4c0.3,3.1,0.7,6.3,1.4,9.2c0.7,3,1.7,5.8,3.1,8.1c1.4,2.3,3.1,4.1,4.9,5.5c0.5,0.9,1,1.7,1.5,2.5
						C13.8,90.2,13.9,91.2,15.2,92.4z"/>
					<path class="st85" d="M114.2,29.9c-3-4.7-6.5-7.8-9.7-9.7c-3.3-2-6.4-2.8-9.2-3.1c-1-0.8-2.6-2-4.5-3c-1.9-1-4.1-1.8-6-2
						c-1.7-0.5-3.9-1.1-6.3-1.6C76,10,73.3,9.7,70.8,9.6c-5.1-0.2-9.6,0.3-10.7,0.9c-1.2,0.6,2.6-1,7.9-2.4c2.7-0.7,5.7-1.3,8.6-1.7
						c2.9-0.4,5.7-0.6,7.7-0.6c1.2-1.1,5.6-1.2,11,0.2c1.5,0.9-0.2,1,1.2,1.9c0-0.1,0.8,0.1,1.6,0.2c0.8,0.1,1.6,0.4,1.6,0.4
						s0.2,0.1,0.5,0.3c0.3,0.2,0.7,0.5,1.3,0.9c1.1,0.7,2.5,1.8,4,3.2c3,2.6,6,6.3,7.7,9c0.2,1.7,1.5,3.9,2.6,6c0.6,1,1,2,1.5,2.6
						c0.4,0.7,0.7,1.2,0.8,1.2c0.3,0.9,0.6,1.7,0.8,2.6c0.3,0.9,0.5,1.8,0.7,2.7c0,0.1,0,0.1,0,0.2c-0.9-2.2-2.1-4.4-3.3-6.4
						C115.2,29.5,114.2,29.9,114.2,29.9z"/>
					<path class="st86" d="M21.7,27.1c0.3,0.8,0.3,1.8,0.1,2.9c-0.1,1.2-0.4,2.5-0.8,3.9c-0.7,2.9-1.7,6.3-2.4,9.8
						c0.3-0.6,0.8-1.4,1.3-2.3c0.5-0.9,1.1-1.9,1.7-2.8c0.6-0.9,1.1-1.7,1.6-2.4c0.4-0.6,0.8-1.1,0.9-1.2c-0.9,0.3-2.2,1.2-1.6-0.4
						c0.5-1,1.1-1.9,1.7-3c0.6-1,1.3-2,2-2.9c0.7-0.9,1.4-1.8,2.1-2.6c0.7-0.8,1.4-1.4,1.9-2c0.8-0.7,1.7-1.3,2.5-1.9
						c0.9-0.6,1.8-1.1,2.8-1.6c1.9-1,3.9-1.8,5.9-2.7c3.1-1.8,6.3-3.3,9.6-4.6c0.2-0.1,1.9-1.5,1.8-1.9c2.5-0.6,4.8-0.8,7.1-0.9
						c0.1-0.1,1.3-0.5,3.3-1c2-0.5,4.7-1.1,7.5-1.6c2.8-0.5,5.8-0.9,8.2-1.1c2.4-0.3,4.4-0.5,5.2-1c1.2-1.1,5.6-1.2,11,0.2
						c-0.1,0-1-0.5-2.4-1.1c-1.4-0.6-3.4-1.4-5.6-2.1c-4.4-1.4-9.8-2.3-13.3-2.5c0.2,0.3,2.8,1.1,3.5,1.3c-0.5-0.1-2.4-0.5-4.6-0.9
						C70.7,0.3,68.3,0,66.9,0c-2.2,0-6.1,0.2-9.5,0.7c-3.4,0.4-6.3,1.2-6.8,1.3c-1.3,0.3,1.4,0.4,1.6,1.1C46.8,3.3,41.1,4.6,35.5,7
						l-2.2,1.2l-2.1,1.2c-0.6,0-1,0.1-0.4-0.3c0.9-0.6,1.7-1.2,2.6-1.8c-0.7,0.4-1.9,1.1-3.3,2c-1.5,0.9-3.1,2.1-4.7,3.3
						c-1.6,1.3-3.2,2.6-4.4,3.8c-0.6,0.6-1.2,1.2-1.7,1.7c-0.5,0.5-0.9,0.9-1.1,1.2c1.2-1.3,2.6-2.4,3.9-3.5c0.7-0.6,1.4-1,2.1-1.5
						c0.7-0.5,1.4-1,2.1-1.4c-2.8,2.2-5.4,4.6-7.7,7.2l-0.3,0.3C15.6,26,14.6,31,14.6,35.2c0.5-0.7,1.1-1.7,1.9-2.6
						c0.7-1,1.4-2,2.2-2.8C20.1,28.1,21.5,26.9,21.7,27.1z"/>
					<path class="st87" d="M34.2,52.3c2.9-2.3,6.5-5.6,11-7.9c2.2-1.1,4.7-2,7-2.3c2.3-0.3,4.4-0.3,6.1,0.2c2.6,0.8,4.1,2.1,4.8,3.2
						c0.7,1.1,0.8,2.2,0.7,3.1c-0.1,0.9-0.4,1.8-0.7,2.8c-0.3,0.9-0.5,1.9-0.7,2.8c-1-0.9-2.7-1.6-4.9-1.6c-1.1,0-2.2,0.2-3.4,0.5
						c-1.2,0.3-2.2,0.8-3.3,1.4c-2.3,1.3-4.5,3.2-6.6,5.4c-1.1,1.1-2.1,2.4-3.2,3.6c-1.1,1.3-2.1,2.6-3.1,3.9
						c-1.9,2.5-3.4,5-4.1,7.3C33.1,77,33.2,79.5,34,81c0.2,0.4,0.4,0.7,0.7,1c0.1,0.1,0.2,0.3,0.4,0.4c0.1,0.1,0.1,0.1,0.2,0.2
						l0.2,0.2c0.6,0.4,1.5,0.7,2.5,0.8c2.1,0.2,4.9-0.5,7.3-1.7c-2,2-6,3.4-9,2.9c-1.5-0.2-2.8-0.8-3.8-1.7c-1.1-0.9-2-2.1-2.9-3.2
						c-0.2,0-0.3,0.6-0.2,1.3c0,0.7,0.2,1.5,0.3,2.1c-1-1.3-1.8-3.3-2.1-5.4c-0.3-2.1,0-4.4,0.4-6.3c1-3.9,2.4-6.8,1.6-7.3
						c-0.9-0.6-3.2,0.7-5,1.2c0.5-0.9,1-1.8,1.6-2.7c1.1-1.2,2.2-2.8,3.5-4.5C31,56.4,32.4,54.4,34.2,52.3z"/>
					<path class="st88" d="M51.8,92.7c-3.7,2.1-7.8,3.6-12.8,3.8c-2.5,0.1-5.2-0.3-7.9-1.3c-2.7-1.1-5.2-2.8-7-5.1
						c0.2-0.3,0.3-0.8,0.3-1.3c1.9,2.6,4.7,4.7,7.7,5.7c3,1.1,6,1.2,8.6,0.9c2.7-0.3,5.1-1,7.4-2c1.1-0.5,2.2-1,3.3-1.6
						c0.5-0.3,1-0.6,1.6-1c0.5-0.3,0.9-0.7,1.4-1c-0.4,0.5-0.8,1-1.2,1.5C52.7,91.8,52.2,92.3,51.8,92.7z"/>
					<path class="st88" d="M29.8,83.2c-0.1-0.6-0.3-1.4-0.3-2.1c0-0.7,0-1.2,0.2-1.3c0.9,1.1,1.8,2.3,2.9,3.2
						c1.1,0.9,2.4,1.5,3.8,1.7c3,0.5,7-0.9,9-2.9c0.5-0.2,0.9-0.5,1.4-0.8l1.4-1c0.5-0.3,0.9-0.7,1.4-1c0.4-0.4,0.9-0.7,1.3-1.1
						c1.7-1.5,3.2-3.3,4.6-5.2c1.4-1.9,2.5-4,3.4-6.2c0.9-2.2,1.6-4.4,2-6.7c0,0.8,0,1.6-0.1,2.5l-0.1,1.2l-0.2,1.2
						c0.5-1.3,0.8-2.3,1.3-3.1c0.4-0.9,0.9-1.6,1.3-2.4c0.4-0.8,0.8-1.6,1.1-2.6c0.3-1,0.5-2.1,0.4-3.6c0.5,2.1,0.6,4.3,0.6,6.6
						c-0.1,2.3-0.4,4.7-1,7.1c-0.6,2.4-1.4,4.8-2.5,7l-0.4,0.9l-0.5,0.8c-0.3,0.6-0.6,1.1-0.9,1.7c-0.7,1.1-1.3,2.2-2.1,3.2
						c-1.5,2.1-3.2,3.9-5,5.7c-0.9,0.8-1.8,1.7-2.9,2.4c-1,0.7-2.1,1.5-3.1,2c-2.2,1.2-4.5,2.2-6.9,2.8c-2.4,0.6-5,0.8-7.6,0.3
						c-2.8-1-5.5-2.9-7.3-5.4c-1.8-2.5-2.8-5.3-3.2-8c-0.4-2.7-0.3-5.4,0.3-8c0.6-2.5,1.5-4.8,2.6-6.8c1.8-0.5,4.1-1.8,5-1.2
						c0.8,0.5-0.7,3.3-1.6,7.3c-0.5,2-0.7,4.2-0.4,6.3C28,79.9,28.7,81.9,29.8,83.2z"/>
					<path class="st22" d="M64.6,53.1c0.1,1.4-0.2,2.6-0.4,3.6c-0.3,1-0.7,1.8-1.1,2.6c-0.5,0.8-0.9,1.5-1.3,2.4
						c-0.5,0.9-0.8,1.9-1.3,3.1l0.2-1.2l0.1-1.2c0.1-0.8,0.1-1.7,0.1-2.5c0.6-3.3,0.6-6.6,0.2-9.8l9.2,1c-1.1,2.9-1.2,6.3-0.2,9.6
						c1,3.2,2.9,6.3,5.5,8.4c0.4,0.5,1,0.9,1.5,1.2c3,2.1,6.6,3,10.1,3c3.6,0,7.1-0.8,10.5-2.5c-3.8,3.6-9.1,6.3-15.4,6.5
						c-2.7-1-5.2-2.5-7.2-4.4c-2-1.9-3.6-4.2-4.8-6.7c-1.1-2.5-1.7-5.2-1.8-7.9c-0.1-2.6,0.5-5.2,1.6-7.4l-9-1c0,0.1,0,0.2,0,0.2
						c0-0.1,0-0.2,0-0.2l9,1c-0.7,1.5-1.3,2-2,2.4c-0.6,0.4-1.1,0.6-1.4,1.6c-0.6,1.9-1,4-1.2,6c-0.1,0.5-0.1,1-0.2,1.5
						c0,0.5-0.1,0.9-0.1,1.4c-0.1,0.9-0.1,1.8-0.1,2.5c-0.1,3-0.6,4.9-2.8,3c-1.8-3.2-3.1-6.8-3.5-10.6c-0.4-3.8,0-7.8,1.4-11.6
						l7.8-20.3l3.7,21.5c1.3,7.4,0.4,15-2.2,21.9c-2.6,6.9-6.9,13.2-12.7,18.1c-0.4,0.1-0.8,0.3-1.2,0.5c-0.4,0.1-0.9,0.3-1.3,0.4
						c-0.9,0.3-1.6,0.6-2.1,0.9c-1.3,0.9-2.7,1.7-4.2,2.3c-1.5,0.7-3,1.2-4.7,1.6c-3.2,0.8-7.1,1-11-0.4c2.6,0.4,5.2,0.2,7.6-0.3
						c2.4-0.6,4.7-1.5,6.9-2.8c1.1-0.6,2.1-1.3,3.1-2c1-0.8,1.9-1.6,2.9-2.4c1.8-1.7,3.5-3.6,5-5.7c0.8-1,1.4-2.1,2.1-3.2
						c0.3-0.5,0.6-1.1,0.9-1.7l0.5-0.8l0.4-0.9c1.1-2.3,1.9-4.7,2.5-7c0.6-2.4,0.9-4.8,1-7.1C65.2,57.4,65.1,55.2,64.6,53.1z"/>
					<path class="st82" d="M82.1,77.3c6.3-0.2,11.6-2.9,15.4-6.5c1.7-0.8,3.4-1.9,5-3.1c-0.2-0.2-0.4-0.4-1.1-0.3
						c0.5-0.4,1-1,1.5-1.4c0.5-0.5,1-1,1.4-1.6c0.6-0.6,1.3-1.1,2-1.8c0.3-0.4,0.6-0.8,0.8-1.3c0.2-0.5,0.3-1.1,0.3-1.8
						c0.9-1.8,1.6-3.7,2.1-5.7c0.9-2,1.8-3.6,2.6-4.7l-1.1-0.1c-0.5-2.1,0.2-4.2,0-6.3c-0.2,0-0.5,0-0.7-0.1c0-2.4-0.5-5.1-1.4-7.7
						c-0.9-2.6-2.1-5.1-3.5-7.2c-2.8-4.2-6-6.8-6.9-7.6c-0.5-0.5-1-1-1.5-1.5c-0.5-0.5-1.1-1-1.6-1.4c2.8,0.3,5.9,1.1,9.2,3.1
						c3.3,2,6.8,5,9.7,9.7c0,0,1-0.4,1.8,0.6c1.2,2,2.4,4.2,3.3,6.4c0.4,3.7,0.5,7.6,0.2,11.3c-0.3,3.8-1,7.4-1.9,10.6
						c-1.8,6.4-4.7,10.7-4.9,11c-1.3,1.8-2.8,3.4-4.4,4.9c-4.8,4.2-12.4,7.4-20.5,7.4c-2,0-4.1-0.1-6.1-0.5c-1-0.1-2-0.4-3-0.7
						c-1-0.3-2-0.6-2.9-1c-0.5-0.2-1-0.4-1.4-0.6c-0.5-0.2-0.9-0.5-1.4-0.7c-1-0.4-1.8-1-2.7-1.5c-1.7-1.1-3.3-2.3-4.8-3.6l-0.9-1
						c-0.3-0.4-0.5-0.7-0.8-1.1c-0.5-0.7-1-1.5-1.5-2.3c2.2,1.9,2.7,0.1,2.8-3c0.1-0.8,0-1.6,0.1-2.5c0-0.4,0-0.9,0.1-1.4
						c0-0.5,0.1-1,0.2-1.5c0.2-2,0.6-4,1.2-6c0.1-0.3,0.2-0.6,0.3-1c0.1-0.2,0.1-0.4,0.2-0.6c0.1-0.2,0.2-0.4,0.3-0.6
						c0.4-0.8,1.1-1.6,1.5-2.1l-6.9-0.8c-0.4,1.5-0.8,2.1-1,0.4l0-0.2l9,1c-0.5,1.3-1,2.7-1.2,4.2c-0.2,1.6-0.2,3.3,0,5
						c0.2,1.7,0.7,3.5,1.3,5.2c0.7,1.7,1.5,3.3,2.5,4.6c2,2.8,4.5,4.7,6.5,5.8C81,76.9,82.3,77.3,82.1,77.3z"/>
					<path class="st89" d="M107.1,86.4c2.2-3.4,3.5-7.5,3.7-11.7c0,2.3-0.4,4.6-1,6.5c-0.2,1-0.6,1.9-0.8,2.7
						c-0.3,0.8-0.5,1.5-0.5,2.2c-1.2,1.7-2.4,3.7-3.8,5.4c0.4-0.8,0.8-1.6,1.2-2.5c0.2-0.4,0.4-0.8,0.6-1.3
						C106.8,87.3,106.9,86.9,107.1,86.4z"/>
					<path class="st89" d="M106.4,96.3c-0.4,0.5-0.9,1-1.4,1.5c-0.5,0.5-0.9,1-1.4,1.4c-0.2-0.3,0-1,0.5-1.8c0.3-0.4,0.6-0.9,1-1.3
						c0.4-0.5,0.8-1,1.3-1.4c-0.5-0.5-1.7,2-2,1.7c-0.7-0.6,0.3-1.7,1.5-3c0.6,0.5,0.9,1.4,0.9,2.4c0,1-0.4,2-1.1,2.7
						c-0.6,0.6-1.3,1.3-1.9,1.9c0.5-0.6,1.1-1.4,1.6-2.1C105.9,97.4,106.3,96.7,106.4,96.3z"/>
					<path class="st90" d="M68.6,114.8c-0.9,0.1-1.8,0.1-2.6,0.2c-0.8,0-1.6-0.1-2.4-0.1c-1.6-0.1-3.1-0.2-5-0.5
						c0.6-0.2,1.1-0.4,1.6-0.6c0.5-0.2,1-0.5,1.5-0.7c1-0.5,1.9-1,2.8-1.5c1.8-1,3.3-2.2,4.8-3.3c5.2-0.8,10.2-2.2,15.1-4.1
						c4.9-1.9,9.6-4.4,13.8-7.7c-1.4,1.4-2.7,2.7-3.9,4c1-0.6,1.8-1.3,2.7-2c0.9-0.7,1.8-1.3,2.6-1.9c-0.2,0.4-0.4,0.9-0.5,1.2l0,0
						c-0.7,0.5-1.3,1-1.6,1.4c-0.4,0.4-0.5,0.8-0.2,1.2c0.2,0.3,1.7-1.8,2.2-1.3c-2.1,1.3-3.7,3.3-3.3,3.9c1-0.7,2-1.5,3.1-2.3
						c-0.3,0.7-2,2.3-3.1,3.3c-2.3,1.5-4.7,3-7.1,4.2c-1.2,0.6-2.4,1.3-3.7,1.8l-3.8,1.6c-5.1,1.9-10.3,3.4-15.7,4.4
						C66.7,115.7,67.6,115.2,68.6,114.8z"/>
				</g>
			</g>
		</g>
		<g>
			<g class="st1">
				<g class="st1">
					<path class="st82" d="M60.6,41.4c-0.5,0-1,0.1-1.5,0.2c0.1-0.3,0.3-0.6,0.4-0.9C60.1,39.9,60.3,41.1,60.6,41.4z"/>
					<path class="st82" d="M62,41.5C62,41.5,62,41.5,62,41.5c-0.4-0.1-0.8-0.1-1.2-0.2c0,0,0.1,0,0.1-0.1C61.4,40.8,62,40.5,62,41.5
						z"/>
					<path class="st83" d="M75,36.8c-3.1,2.2-5.8,4.1-8.1,6.3c-0.2,0.1-0.6,0.4-0.7,0.3c-0.1,0.1-0.8,0-1.1-0.2
						c1-1.2,2.2-2.6,3.6-4.2c0.1-0.4-0.1-0.9,0.3-1.5c1.6-2.2,2.9-3.3,4.3-4.3c0,0.1,0.2,0.9,0.5,1.7C74.1,35.8,74.5,36.6,75,36.8z"
						/>
					<path class="st24" d="M76.5,39.2c0.3,0.7-0.1,2.2-0.3,2.7c-1.5,0.7-2.9,1.4-4.1,2c-0.5,0.5-1,1.1-1.2,1.4
						c-0.2,0.1-0.5,0.2-0.7,0.3c-0.6-0.5-1.3-0.8-2.1-1.1c0.4-0.3,1.8-1.4,3.5-2.4C73.3,41,75.2,40,76.5,39.2z"/>
					<path class="st84" d="M74.8,37.7c0.3,0.1,0.7,0.1,1,0.1c0.3,0.4,0.5,0.8,0.6,1.3c-2.5,1.5-4.7,2.9-6.4,3.9c0,0-0.7,0.8-0.7,0.8
						c-0.7,0.3-0.6,0-1.4,0.6c-0.6-0.3-1.4-0.4-1.9-0.7c0.5-0.5,0.4-0.1,0.5,0c0.5-0.7,0.4-0.8,0.2-0.7c2.3-2.2,5-4.1,8.1-6.3
						l0.2,0.2C74.9,37.4,74.6,37.7,74.8,37.7z"/>
					<path class="st85" d="M62.7,37.7c1-1.5,2.2-3.6,3.5-6c0.1,0.3,0.3,1,0.7,0.5c0.5,0.3,1.1,1.3,1.7,0.5c0.3-0.4-0.4,0.4-1.3,1.5
						c-0.9,1.1-2,2.5-2.6,3.5c-0.6,1.3-1.2,2.2-1.8,3.1c0-0.1,0.3-0.9,0.3-1c0,0.1-0.5,1-0.5,1s-0.4-0.2-0.6-0.3
						c0.3-1.4-0.3-0.4-0.4-0.1l-0.2,0c0,0,0,0,0,0c0.2-0.4,0.4-0.8,0.6-1.2C62.4,38.7,62.7,37.7,62.7,37.7z"/>
					<path class="st86" d="M69,37.5c1.6-2.2,2.9-3.3,4.3-4.3c-0.1-0.2-0.3-0.9-0.4-0.9c-0.3,0.5-0.6,1.2-0.8,1.3
						c-0.5,0.1-1,0.2-1.2,0c-0.2-0.3,0-1.2-0.1-1.8c-0.4,0.1-0.7,0.1-1.1,0.2c0,0-0.2,0.2-0.3,0.4c-0.2,0.2-0.4,0.5-0.5,0.7
						c-0.2-0.1-0.2-0.3-0.3-0.5c-0.1,0.1-0.8,0.7-1.6,1.7c-0.8,0.9-1.7,2.1-2.3,3.3c-0.6,1.3-1.2,2.2-1.8,3.1c0,0,0.1,0.1,0.3,0.2
						c0.1,0.1,0.3,0.3,0.4,0.4c0.1-0.2,0.3-0.8,0.3-0.9c0,0-0.1,0.9-0.1,1.1c0.1,0.1,0.5,0.3,0.5,0.3c0,0,0.3-0.7,0.6-1.3
						c-0.3,1-0.4,1.6-0.4,2.1l0.1,0.1c-0.1,0.2-0.2,0.4-0.2,0.4c-0.1,0.1-0.1,0.1-0.2,0.1c0.1,0.1,0.3,0.5,0.3,0.6
						c0-0.2,0.1-0.6,0.2-1l0.3,0.3c0,0,0,0,0,0c1-1.2,2.2-2.6,3.6-4.1C68.8,38.7,68.6,38.1,69,37.5z"/>
					<path class="st87" d="M54.4,41.3c-0.6-1.2-1-1.1-1.9-2.6c-0.8-1.4-1.5-3-2.3-4.7c-0.7-1.7-1.5-3.4-2.3-5.1
						c2.6,0.5,4.8,0.7,6.8,0.9c-0.3,1.6-1.2,0.9-1,3.5c0.1,0.4,0.3,0.7,0.4,1c-0.2,1.2-0.7,1.6-0.2,3.4c0.3,1.1,0.7,2.2,1,3.6
						l-0.1,0C54.6,40.9,54.5,41.2,54.4,41.3z"/>
					<path class="st88" d="M56.3,42.3c-0.2,0.1-0.4,0.2-0.6,0.4c-0.1-0.3-0.1-0.7-0.2-1c0.2-0.1,0.5-0.2,0.7-0.4
						C56.3,41.6,56.3,41.9,56.3,42.3z"/>
					<path class="st88" d="M54.1,34.3c-0.1-0.3-0.3-0.7-0.4-1c-0.2-2.7,0.8-1.9,1-3.5c0.4,0,0.8,0,1.1,0c0.4,0,0.8,0.1,1.1,0.1
						c-0.1,0.3-0.2,0.6-0.3,0.9c0.4,0,0.5,2.5,0.9,2.5c-0.5,1.3-1,2.1-1.4,3.1c-0.4,1-0.6,2.3-0.5,4.3c-0.2,0.2-0.5,0.4-0.7,0.5
						c-0.4-1.4-0.8-2.5-1-3.6C53.4,36,53.9,35.5,54.1,34.3z"/>
					<path class="st22" d="M57.5,33.3c-0.3,0-0.5-2.5-0.9-2.5c0.1-0.3,0.2-0.6,0.3-0.9l1.3,0l1.3,0.1c0.1,0,0.1,0.1,0.2,0.1
						c0.6,0.3,1.2,0.2,1.7,0.6c-0.6,1.4-1.2,2.7-1.7,4c-0.4-2-1.1-3.8-2-4.8c0.3,0.4,0.2,2.2,0.3,2.5c0.5,2,0.6,6.2,0.3,7.9
						c-0.4,0.1-0.7,0.3-1,0.4c-0.3,0.2-0.7,0.3-1,0.5c-0.1-0.4-0.2-1.2-0.3-1.2c-0.2,0.2-0.3,0.4-0.5,0.6c-0.1-2.1,0.1-3.3,0.5-4.3
						C56.5,35.4,57,34.6,57.5,33.3z"/>
					<path class="st82" d="M59.7,34.8c0.5-1.3,1-2.7,1.7-4c0.1,0.1,0.3,0.2,0.4,0.4c0.1-0.3,0.1-0.6,0.1-0.9l0.3,0
						c0.1,0.2,0,1.3,0.5,0l0.5,0.1c0.1,0.4,0.1,1-0.1,1.8l0.3-1c0.3-0.7,0.3,0.1,0.5,0.1c0.1-0.2,0.1-0.5,0.2-0.7
						c0.5,1,1.8,0.5,2,0.6c0,0.2,0.1,0.4,0.1,0.6c-1.3,2.4-2.5,4.5-3.5,6c0,0-0.3,1-0.5,1.4c-0.2,0.4-0.4,0.8-0.6,1.2
						c0-0.9-0.4-1-0.7-0.8c-0.2,0.1-0.3,0.2-0.4,0.4c-0.1,0.1-0.2,0.3-0.2,0.3l-0.2,0c-0.2-0.1-0.4-0.6-0.7-0.9
						c-0.3-0.2-0.6-0.1-0.9,1.1l-0.2,0c0.3-1.7,0.2-5.9-0.3-7.9c-0.1-0.4-0.6-2.4-0.3-2.5c0.5,0.1,1.1,1.4,1.5,2.6
						C59.6,33.8,59.8,34.9,59.7,34.8z"/>
					<path class="st89" d="M75.3,45.5L75,46.3c-0.1-0.2,0.1-0.6-0.7-0.4c0.2-0.2,0.2-0.3,0.1-0.4C74.8,45.5,75.1,45.5,75.3,45.5z"/>
					<path class="st89" d="M70.5,47.3l-0.1-0.1c0.6-0.3,1.3-0.5,1.1-0.3c0.6-0.3,0-0.1,0.3-0.2c0.9-0.4,0.9-0.4,0.8-0.3
						c-0.7,0.3-1.5,0.7-2,0.9c-0.6,0.2-0.9,0.4-0.9,0.4l0-0.1C70,47.5,70.2,47.5,70.5,47.3z"/>
					<path class="st90" d="M70.8,45.3c0.2-0.3,0.8-0.8,1.2-1.4c1.2-0.6,2.6-1.3,4.1-2c-0.2,1-0.4,1.8-0.7,2.6c-0.2,0-0.5,0-0.9,0.1
						c0.1,0.1,0.1,0.2-0.1,0.4c-0.2,0-0.3,0.1-0.6,0.2l0,0c0.1-0.1,0-0.2-0.8,0.3c-0.3,0.2,0.4-0.1-0.3,0.3c0.3-0.3-0.4,0-1,0.3
						l0.1,0.1c-0.4,0.2-0.6,0.2-0.9,0.3c-0.2-0.4-0.5-0.7-0.8-1C70.4,45.5,70.6,45.4,70.8,45.3z"/>
				</g>
			</g>
		</g>
		<g>
			<g class="st1">
				<g class="st1">
					<path class="st82" d="M43.9,27c1.4-0.8,2.9-1.5,4.6-2c1.7-0.5,3.6-0.8,5.6-0.8c-0.9,0.3-1.7,0.7-2.5,1
						c-1.3,0.6-2.6,0.7-3.9,0.9C46.4,26.3,45.1,26.5,43.9,27z"/>
					<path class="st82" d="M37.3,31.9C37.3,31.9,37.3,31.9,37.3,31.9c1.6-1.5,3.4-3,5.4-4.2c-0.1,0.1-0.3,0.2-0.4,0.3
						C40.8,29.7,39.5,31.2,37.3,31.9z"/>
					<path class="st83" d="M31.1,63.3c-3.2-2.6-5.5-5.8-7.6-9.2c0-0.6-0.2-1.4,0-1.9c-0.2,0,1-3.5,2-5.1c0.8,1.7,2.1,3.3,3.7,4.8
						c0.6-0.5,1.5-1.5,2.2-1.1c2.2,1.5,3.2,3.5,4.2,5.2c-0.2,0.1-1.1,1.2-2.2,2.6c-0.5,0.7-1,1.5-1.4,2.3
						C31.5,61.8,31.2,62.6,31.1,63.3z"/>
					<path class="st24" d="M29.4,69.7c-0.2,0.9-0.7,1.9-1.1,2.9c-0.5,0.9-0.9,1.8-1.1,2.3c-1.6-0.6-3.1-1.4-4.4-2.3
						c-0.7,0.6-1.5,1.1-1.9,1.8c-0.3-0.2-0.5-0.4-0.8-0.6c-0.1-3.6,0-7.2,0.5-10.8c0.5,0.2,1.9,1.7,3.6,3.2
						C26,67.7,28,69.1,29.4,69.7z"/>
					<path class="st84" d="M30.1,64.3c0.1,0.7,0.1,1.4,0.2,2c-0.3,1.1-0.5,2.3-1,3.4c-2.7-1.2-5.2-2.8-6.7-4.8
						c0,0.2-1.1,0.2-1.1,0.5c-0.4-1.2,0-2-0.9-2.4l0.2-1.3l0.2-1.2c0.2-0.8,0.3-1.7,0.5-2.5c0.4-1.6,0.8-3.3,1.4-4.9
						c0.4,0.9-0.2,1.5-0.5,2.2c0.9,0,1.1-0.5,1.2-1.1c2.1,3.3,4.4,6.5,7.6,9.2L31,63.8C30.5,63.9,30,63.9,30.1,64.3z"/>
					<path class="st85" d="M41.7,33.3c-0.6,2.6,0.2,5.3,1.5,7.8c-0.5,0.2-1.6,0.6-1.6,1.5c-0.9,0.9-3.2,2.7-2.6,3.7
						c0.3,0.5-0.2-0.7-0.6-2.3c-0.5-1.6-1-3.7-1.4-5c-1-1-1.3-2.4-1.3-3.8c0.3-0.2,0.7,0.6,1,0.5c-0.1-0.1-0.4-1.2-0.4-1.2
						s0.1-0.1,0.3-0.3c0.2-0.2,0.4-0.4,0.7-0.7c0.5-0.5,1.2-1.1,1.7-1.5c1.3,0.7,1.8-1,1.7-1.3c0.3-0.2,0.6-0.4,0.9-0.6l0,0
						c-0.1,0.6-0.2,1.3-0.3,1.9C41,32.4,41.7,33.3,41.7,33.3z"/>
					<path class="st86" d="M31.4,50.8c2.2,1.5,3.2,3.5,4.2,5.2c0.3-0.4,1.2-1.3,1.3-1.4c-0.6-0.1-1.3-0.2-1.4-0.6
						c0-0.9,0.2-1.9,0.5-2.4c0.3-0.3,0.7-0.5,1.1-0.7c0.5-0.2,0.9-0.4,1.3-0.6c0.2-0.7,0.3-1.4,0.4-2.1c0,0-0.6-0.9-1-1.1
						c0.3-0.4,0.6-0.6,1-0.9c-0.1-0.1-0.3-1.4-0.5-2.9C38,41.8,37.6,40,36.8,39c-1-1-1.3-2.4-1.3-3.8c0,0-0.5,0.5-1.2,1.1
						c-0.6,0.6-1.3,1.4-1.8,1.8c0.2,0.1,1,0.1,1.2,0.1c-0.1,0.1-1.6,0.6-2.1,0.9c-0.6,0.6-1.8,2.3-1.9,2.5c-0.1,0.2,0.7,0.2,1.3,0.6
						c-1.4,0.3-2.5,0.8-3.4,1.6l-0.5,0.7c-0.3-0.1-0.5-0.1-0.4-0.2c0-0.2,0.1-0.4,0.2-0.6c-0.4,0.4-1.8,2.4-2.1,3
						c0.5-0.5,1.1-0.9,1.7-1.2c-0.3,0.6-0.7,1.1-1,1.7l0,0.1c0.8,1.7,2.1,3.3,3.7,4.8C29.8,51.5,30.7,50.5,31.4,50.8z"/>
					<path class="st87" d="M76.5,47c-0.5,1-0.7,2.2-1.1,3.3c-0.2,0.6-0.4,1.1-0.7,1.5c-0.3,0.5-0.7,0.8-1.2,1.1
						c-1.8,0.7-3.6,0.4-5.3,0c-1.8-0.4-3.6-1-5.4-1.5c0.4-0.2,0.8-0.6,1.1-1.1c0.2-0.5,0.4-1.3,0.4-2.1c-0.1-0.8-0.3-1.7-0.6-2.7
						c-0.4-0.9-0.8-1.9-1.4-2.8c1-0.1,1.6,0.4,2.2,0.9c0.6,0.4,1.4,0.8,2.7,0.6c0.3-0.2,0.4-0.7,0.6-1.1c0.8,0.3,1.5,0.9,2.2,1.4
						c0.7,0.5,1.4,0.9,2.3,0.6c1-0.4,2-1.2,3.2-2l0.2,0.6c-0.1,0.4,0,0.9,0.2,1.4C76.1,45.8,76.4,46.4,76.5,47z"/>
					<path class="st88" d="M72.1,35c1,1.1,2,2.3,2.9,3.7c-0.3,0.2-0.5,0.4-0.8,0.6c-0.9-1.6-2.1-2.9-3.3-4.1
						C71.2,35.1,71.6,35.1,72.1,35z"/>
					<path class="st88" d="M67.8,43.3c-0.2,0.4-0.3,0.9-0.6,1.1c-1.4,0.2-2.1-0.2-2.7-0.6c-0.7-0.4-1.2-0.9-2.2-0.9
						c-0.9-1.4-2-2.8-3.3-4c0.4,0,0.8,0,1.3,0c-0.7-0.7,0.8-2.7,0-3.4c2,0,4,0.8,5.9,1.5c2,0.7,4,1.5,6.6,1.6
						c1.1,1.3,2.1,2.9,2.8,4.7c-1.2,0.8-2.2,1.6-3.2,2c-0.9,0.3-1.6-0.1-2.3-0.6C69.3,44.2,68.6,43.6,67.8,43.3z"/>
					<path class="st22" d="M60.2,35.4c0.8,0.7-0.7,2.7,0,3.4c-0.4,0-0.8,0-1.3,0c-1.5-1.5-2.9-2.6-4-2.9c-0.1-0.1-0.1-0.1-0.2-0.2
						c-0.8-0.5-1.7-0.4-2.8-0.5c0.5-1.5,1.3-3,2.6-4.3c1.9,2.3,2.2,4.5,3.1,6.5c-0.3-0.7,0.9-2,0.8-2.6c0-1.2,0.2-2.9,0.5-4.5
						c0.3-1.6,0.6-3,1.6-3.5c2.3,1.1,4.1,2.5,5.6,3.6c1.5,1.2,3,2.5,4.5,4c-0.2,0.5-0.5,1.3-0.4,1.4c0.9,0.8,1.7,1.6,2.4,2.5
						c-2.6-0.1-4.6-0.9-6.6-1.6C64.2,36.2,62.2,35.5,60.2,35.4z"/>
					<path class="st82" d="M54.5,31c-1.3,1.2-2.1,2.7-2.6,4.3c-0.3,0-0.6,0-0.9-0.1c0.1,0.3,0.2,0.6,0.3,0.9
						c-0.2,0.1-0.4,0.1-0.6,0.2c-0.3-0.1-0.9-1-0.8,0.3c-0.3,0.1-0.6,0.3-0.9,0.4c-0.5-0.2-1-0.6-1.6-1.1l0.5,0.9
						c0.1,0.8-0.6,0.4-0.9,0.6c0.1,0.2,0.3,0.4,0.4,0.6c-0.9,0.1-1.8,0.7-2.4,1.4c-0.6,0.7-1,1.3-1.1,1.5c-0.3,0.1-0.6,0.1-0.9,0.2
						c-1.3-2.5-2.1-5.1-1.5-7.8c0,0-0.7-0.9-0.7-1.3c0.1-0.6,0.2-1.3,0.3-1.9c1.7-0.1,3-0.9,4.1-1.7c1.1-0.8,1.9-1.6,2-1.6
						c0.4-0.2,0.9-0.3,1.3-0.5c1.3-0.3,3.1-0.1,4.9,0.2c1.8,0.2,3.6,0.5,5.7,0.1c0.4,0.1,0.8,0.3,1.1,0.5c-1,0.5-1.3,2-1.6,3.5
						c-0.2,1.6-0.4,3.2-0.5,4.5c0.1,0.5-0.3,2.9-0.8,2.6c-0.8-0.8-1-2.5-1.6-3.9C55.4,32.1,54.5,30.9,54.5,31z"/>
					<path class="st89" d="M25.2,83.3c-0.1,0.8-0.2,1.6-0.3,2.4c-0.1-0.8,0.1-1.7-0.8-2c0.2-0.4,0.2-0.8,0.1-1.2
						C24.6,82.6,24.9,82.9,25.2,83.3z"/>
					<path class="st89" d="M19.9,82.4l-0.1-0.7c0.7-0.1,1.5,0.3,1.2,0.8c0.7-0.1,0-0.5,0.3-0.5c1-0.1,1,0.2,0.9,0.5
						c-1.6,0.2-3.2,0-3.3-0.4l0-0.5C19.2,81.9,19.5,82.3,19.9,82.4z"/>
					<path class="st90" d="M20.8,74.3c0.4-0.7,1.1-1.1,1.9-1.8c1.3,0.9,2.8,1.7,4.4,2.3c-0.4,0.9-0.7,1.9-1,2.9
						c-0.1,0.5-0.3,1-0.4,1.5c-0.1,0.5-0.2,1-0.3,1.5c-0.2-0.3-0.5-0.7-0.9-1c0,0.4,0.1,0.8-0.2,1.2c-0.2-0.1-0.4-0.1-0.6-0.2l0,0
						c0.1-0.3,0-0.6-0.9-0.5c-0.4,0,0.4,0.4-0.3,0.5c0.3-0.5-0.4-0.9-1.2-0.8l0.1,0.7c-0.4-0.1-0.6-0.5-1-0.8
						c-0.1-2.1-0.3-4.1-0.3-6.2C20.3,74,20.6,74.1,20.8,74.3z"/>
				</g>
			</g>
		</g>
		<g>
			<g>
				<g>
					<path class="st19" d="M78.3,48.3c-6.2-7.3-17-7.2-24.9-2.5c-8.4,5-18.5,17.8-17.9,28.1c0.3,4.3,3,8.8,7.3,10
						c4.4,1.2,8.5-1.2,11.7-4c10-8.6,17.3-20.8,21.6-33.2c-0.9,0-1.9,0-2.8,0c-2.5,7.4-3.1,15.8,1.3,22.7c3.4,5.3,9.3,8.3,15.6,7.7
						c15.6-1.6,21.3-18.4,23.2-31.7c1.1-7.6,0.5-15.1-4.2-21.4c-4.2-5.5-10.3-9.5-16.5-12.3C80.5,6.1,67,4.4,53.9,7.4
						C26.9,13.7,6.6,38,4.6,65.4c-0.9,12.2,0.9,26.1,8.5,36.1c8.4,11,23.6,13.8,36.7,13.8c16.9-0.1,35.2-3.5,48.6-14.3
						c13.3-10.8,20.2-28.8,14.2-45.3c-0.4-1.2-3.3-0.4-2.9,0.8c4.9,13.7,0.9,28.9-9,39.4c-10.2,10.7-24.2,15-38.5,16.7
						c-13.3,1.6-28.4,1.5-40-6.1C13.5,100.6,9.5,90.2,8,80.1c-3.5-23.6,6-47.5,25.6-61.4C54,4.3,84.2,3.8,103,21.4
						c6.1,5.6,8.5,12.7,7.9,20.9c-0.6,7.9-2.5,16.7-6.7,23.5c-5.5,8.6-17.3,13.3-25.1,4.7c-6.1-6.7-5.5-16-2.8-24
						c0.4-1.2-2.5-1-2.8,0c-2.9,8.2-6.9,16-12.2,22.9c-2.3,3-4.9,6-7.7,8.6c-3.5,3.3-8.9,6.2-12.8,1.4c-1.5-1.8-2.1-3.9-2.2-6.2
						c-0.4-8,6.4-17.4,12-22.6c6.9-6.4,18.2-9,25-1C76.4,50.4,79.2,49.3,78.3,48.3L78.3,48.3z"/>
				</g>
			</g>
		</g>
	</g>
</g>
</svg>
