<?xml version="1.0" encoding="utf-8"?>
<!-- Generator: Adobe Illustrator 22.0.0, SVG Export Plug-In . SVG Version: 6.00 Build 0)  -->
<svg version="1.1" xmlns="http://www.w3.org/2000/svg" xmlns:xlink="http://www.w3.org/1999/xlink" x="0px" y="0px"
	 viewBox="0 0 184.4 169.5" style="enable-background:new 0 0 184.4 169.5;" xml:space="preserve">
<style type="text/css">
	.st0{fill:#FFFEFD;}
	.st1{opacity:0.9;}
	.st2{fill:#CBE5CF;}
	.st3{fill:#DCEDDF;}
	.st4{fill:#E3F1E5;}
	.st5{fill:#E0EFE2;}
	.st6{fill:#D1E8D4;}
	.st7{fill:#D4E9D7;}
	.st8{fill:#BEDEC2;}
	.st9{fill:#C3E1C7;}
	.st10{fill:#C7E2CB;}
	.st11{fill:#EEF6EF;}
	.st12{fill:#EBF5EC;}
	.st13{fill:#FEF9DA;}
	.st14{fill:#FFFDF1;}
	.st15{fill:#FDF5C7;}
	.st16{fill:#FDF2B4;}
	.st17{fill:#FCEFA5;}
	.st18{fill:#FCED95;}
	.st19{fill:#272525;}
	.st20{opacity:0.85;}
	.st21{fill:#D3E6F6;}
	.st22{fill:#C4DEF3;}
	.st23{fill:#ACD0EE;}
	.st24{fill:#E2EFF9;}
	.st25{fill:#B8D7F0;}
	.st26{fill:#9FC9EB;}
	.st27{fill:#EADAEE;}
	.st28{fill:#F7F1F8;}
	.st29{fill:#DFC7E5;}
	.st30{fill:#D5B5DC;}
	.st31{fill:#CDA6D5;}
	.st32{fill:#C497CE;}
	.st33{fill:#D8BBDF;}
	.st34{fill:#E5D1E9;}
	.st35{fill:#E8D6EB;}
	.st36{fill:#DDC3E2;}
	.st37{fill:#DFC6E4;}
	.st38{fill:#CEA9D6;}
	.st39{fill:#D2B0DA;}
	.st40{fill:#F2E9F4;}
	.st41{fill:#F0E4F2;}
	.st42{opacity:0.8;}
	.st43{opacity:0.8;fill:#DC7D5B;}
	.st44{opacity:0.8;fill:#E9AE99;}
	.st45{opacity:0.8;fill:#F0C7B8;}
	.st46{opacity:0.8;fill:#F7E1DA;}
	.st47{fill:#F7E0D8;}
	.st48{fill:#FCF3F0;}
	.st49{fill:#F2D0C4;}
	.st50{fill:#EEC0B0;}
	.st51{fill:#EBB4A0;}
	.st52{fill:#E7A790;}
	.st53{fill:#F0C6B6;}
	.st54{fill:#F5D8CE;}
	.st55{fill:#F6DCD3;}
	.st56{fill:#F1CCBF;}
	.st57{fill:#F2CFC2;}
	.st58{fill:#ECB6A3;}
	.st59{fill:#EDBDAB;}
	.st60{fill:#FAECE7;}
	.st61{fill:#F9E8E2;}
	.st62{fill:#B7E9E6;}
	.st63{fill:#CFF0EE;}
	.st64{fill:#D9F3F2;}
	.st65{fill:#D4F2F0;}
	.st66{fill:#BFECE9;}
	.st67{fill:#C3EDEA;}
	.st68{fill:#A5E4E0;}
	.st69{fill:#ACE6E3;}
	.st70{fill:#B1E7E4;}
	.st71{fill:#E8F8F7;}
	.st72{fill:#E3F6F5;}
	.st73{fill:#FDF3BA;}
	.st74{fill:#FEF7D0;}
	.st75{fill:#FEF8D5;}
	.st76{fill:#FDF4C2;}
	.st77{fill:#FDF5C5;}
	.st78{fill:#FCF0A8;}
	.st79{fill:#FDF1AF;}
	.st80{fill:#FEFBE8;}
	.st81{fill:#FEFAE4;}
	.st82{fill:#C9E1F4;}
	.st83{fill:#DBEAF7;}
	.st84{fill:#DEEDF8;}
	.st85{fill:#CFE4F5;}
	.st86{fill:#D2E5F6;}
	.st87{fill:#BBD8F1;}
	.st88{fill:#C1DCF2;}
	.st89{fill:#EDF5FB;}
	.st90{fill:#EAF3FB;}
	.st91{fill:#C5EDEB;}
	.st92{fill:#91DED9;}
	.st93{fill:#A1E3DF;}
	.st94{fill:#80D8D3;}
</style>
<g id="background">
	<rect x="-466.1" y="-347.6" class="st0" width="1200" height="800"/>
</g>
<g id="colour">
</g>
<g id="object">
	<g>
		<g>
			<g class="st1">
				<g class="st1">
					<path class="st2" d="M65,70.8c-3.6,1.3-7.2,2.6-10.9,3.7c0.7-0.5,1.4-1.1,2.2-1.6c1.2-0.8,2.7-1.1,4.2-1.3
						C61.9,71.3,63.5,71.2,65,70.8z"/>
					<path class="st2" d="M74.8,66.9C74.8,66.9,74.8,66.9,74.8,66.9c-2.8,1.2-5.5,2.2-8.3,3.3c0.2-0.1,0.4-0.2,0.5-0.3
						C69.5,68.4,72,67.1,74.8,66.9z"/>
					<path class="st3" d="M108.2,33.4c0.5,4.6-0.2,9.4-0.9,14c-0.5,0.7-1,1.7-1.6,2.1c0.1,0-0.9,0.9-2.2,2c-1.3,1-2.9,2.2-4,2.9
						c0.5-2.2,0.5-4.4,0.2-6.7c-1.1,0.3-2.9,1.1-3.3,0.5c-1.1-2.6-0.3-5.1,0.4-7.6c0.3-0.2,2.4-1,4.9-2.3c1.2-0.7,2.5-1.4,3.7-2.3
						C106.4,35.1,107.5,34.2,108.2,33.4z"/>
					<path class="st4" d="M116,26.1c1.1-1,2.4-2.1,3.7-3c1.3-0.9,2.4-1.8,3.1-2.4c0.7,1.7,1.4,3.5,1.6,5.3c1.2-0.3,2.2-0.5,3.1-1.1
						c0,0.4,0.1,0.8,0.1,1.1c-3.1,4.4-6.3,8.6-9.9,12.6c-0.2-0.5-0.2-2.9-0.5-5.6C117.2,30.5,116.7,27.5,116,26.1z"/>
					<path class="st5" d="M110.2,32.5c0.7-0.9,1.2-1.8,1.8-2.6c0.7-0.6,1.4-1.3,2-1.9c0.7-0.7,1.4-1.3,2.1-1.9
						c1.3,2.9,1.9,6.1,1.6,9.2c0.2-0.2,1.2,0.2,1.4,0c-0.7,1.7-1.7,2.4-1.3,3.3c-3.3,3.7-6.9,7.1-10.7,10.3c0.4-1.2,1.5-1.6,2.3-2.3
						c-0.9-0.4-1.5,0.1-2,0.7c0.8-4.6,1.5-9.3,0.9-14l0.7-0.6C109.4,32.9,109.9,33,110.2,32.5z"/>
					<path class="st6" d="M70.3,64.5c2.2-2.7,3.1-5.6,3.4-8.7c0.9-0.1,2.6-0.2,3.4-1.3c1-0.4,2.5-1,3.9-1.6c1.3-0.6,2.5-1.3,2.6-1.9
						c0.1-0.6-0.5,0.8-1.2,2.8c-0.7,1.9-1.7,4.3-2.2,5.8c0.4,1.4-0.2,2.9-1.1,4.4c-0.5,0.1-0.5-0.9-0.9-0.8c0.1,0.1-0.3,1.3-0.3,1.3
						s-0.8,0.3-1.7,0.7c-1,0.4-2.1,0.8-2.9,1.1c-1.3-1-2.7,0.7-2.7,1l-1.3,0.5l0,0c0.4-0.6,0.9-1.3,1.3-1.9
						C70.7,65.5,70.3,64.5,70.3,64.5z"/>
					<path class="st7" d="M96.3,48.1c-1.1-2.6-0.3-5.1,0.4-7.6c-0.7,0.4-2.6,1.2-2.8,1.3c0.5,0.4,1.3,0.7,1,1.2
						c-0.9,1-2,2.3-2.9,2.7c-1.2,0.5-2.7,0.5-4.1,0.8c-0.8,0.7-1.6,1.5-2.4,2.2c-0.1,0-0.1,1.2,0.1,1.6c-0.7,0.4-1.3,0.5-2,0.7
						c0,0.1-0.9,1.6-1.8,3.4c-0.9,1.8-1.8,3.8-1.6,5.1c0.4,1.4-0.2,2.9-1.1,4.4c0,0,0.3-0.1,0.7-0.2c0.4-0.2,0.9-0.3,1.5-0.6
						c1.1-0.5,2.5-1.1,3.4-1.4c-0.2-0.2-1.1-0.4-1.3-0.4c0.2-0.1,2.3-0.2,3.1-0.4c1.1-0.5,3.8-1.8,4-2.1c0.3-0.2-0.7-0.5-1-1.1
						c1.8,0.1,3.4-0.1,5-0.6c0.4-0.2,0.8-0.4,1.1-0.6c0.3,0.2,0.4,0.3,0.3,0.4c-0.2,0.2-0.4,0.4-0.6,0.6c0.7-0.4,3.8-2,4.6-2.4
						c-0.9,0.3-1.8,0.5-2.8,0.7c0.8-0.5,1.6-0.9,2.4-1.4l0.1-0.1c0.4-2.2,0.5-4.4,0.2-6.7C98.6,47.9,96.7,48.7,96.3,48.1z"/>
					<path class="st8" d="M14.7,80.7c-2-1.2-5.1-0.9-6.9-2.5c-2.8-3-2-6.9-3.3-10.6c7.8,0.9,15.6,0.9,23.4,0.2
						c-1.7,1.9-5.1,1.5-6.4,4.2c0,0.4,0.8,0.6,1.1,0.9c-1.9,1.3-5.2,2.1-5,3.8c0.1,1.1,0.9,2.2,1.3,3.6l-0.8,0.1
						C17.4,80,16.2,80.5,14.7,80.7z"/>
					<path class="st9" d="M30,80.2c-1.9,0.4-3.8,0.7-5.6,1.1c-0.1-0.3-0.2-0.7-0.3-1c2.2-0.3,4.4-0.7,6.6-1.3
						C30.4,79.4,30.2,79.8,30,80.2z"/>
					<path class="st9" d="M22.7,72.9c-0.4-0.3-1.1-0.6-1.1-0.9c1.3-2.8,4.7-2.4,6.4-4.2l4.5-0.5l4.4-0.7l-1.4,1.1
						c1.6-0.3,2.4,2.1,4.1,1.8c-4.3,3.6-10.8,5.1-14,9.7c-2.2,0.5-4.4,0.9-6.6,1.1c-0.5-1.4-1.2-2.5-1.3-3.6
						C17.5,75,20.8,74.2,22.7,72.9z"/>
					<path class="st10" d="M39.6,69.5c-1.7,0.3-2.5-2.1-4.1-1.8l1.4-1.1c1.7-0.3,3.4-0.6,5.1-1c1.7-0.4,3.4-0.7,5-1.2
						c0.2,0,0.5,0,0.7-0.1c2.6-0.3,4.7-1.1,7.2-1.5c-1.2,1.8-2.4,3.7-3.7,5.4c-3.6-1.1-7.3-1.9-11.2-2.2c1.4,0.1,1.4,1.9,2.1,2.1
						c2.8,1.4,5.9,4.9,5.1,6.9C42,76.6,36.7,78,31.3,79.1c-0.4-0.4-1.1-1-1.4-1c-1.5,0.4-2.9,0.8-4.4,1.1
						C28.8,74.6,35.3,73,39.6,69.5z"/>
					<path class="st2" d="M51.2,68.3c1.3-1.7,2.6-3.6,3.7-5.4c0.6-0.1,1.3-0.2,2-0.2c-0.1-0.3-0.2-0.6-0.5-0.8l1.3-0.4
						c0.6,0,1.4,0.9,1.8-0.6l1.8-0.6c0.8,0.2,1.5,0.5,2.1,1.2l-0.4-1c0.4-0.9,1.3-0.4,1.9-0.7c-0.1-0.2-0.2-0.5-0.2-0.7
						c3.2-0.2,6.9-2.7,7.6-3c0.5,0,1,0,1.4-0.1c-0.3,3.1-1.3,6-3.4,8.7c0,0,0.4,1,0.2,1.5c-0.4,0.6-0.9,1.3-1.3,1.9
						c-4.1-0.3-8.1,2.9-8.3,3l-1.5,0.5c-1.5,0.4-3.5,0.4-5.5,0.8c-2,0.4-4,1-5.4,2.6l-1.2,0.3c0.8-2-2.3-5.5-5.1-6.9
						c-0.7-0.2-3.3-1.8-2.1-2.1c2.1-0.2,4.9,0.3,7.2,1C49.5,67.7,51.3,68.3,51.2,68.3z"/>
					<path class="st11" d="M131.7,11.2c0.7-0.9,1.5-1.9,2.2-2.8c-0.6,1.1-1.5,2.1-1.1,3.1c-0.5,0.4-0.8,0.9-1.1,1.5
						C131.7,12.4,131.7,11.8,131.7,11.2z"/>
					<path class="st11" d="M135.1,15.7l-0.5,0.9c-0.6-0.4-0.9-1.3-0.2-1.8c-0.6-0.4-0.4,0.6-0.7,0.4c-0.8-0.5-0.7-0.8-0.3-1.2
						c1.4,0.8,2.5,2.1,2.2,2.5l-0.4,0.6C135.2,16.7,135.3,16.1,135.1,15.7z"/>
					<path class="st12" d="M127.5,24.9c-0.9,0.6-1.9,0.8-3.1,1.1c-0.2-1.8-0.9-3.6-1.6-5.3c0.6-0.5,1.2-1,1.7-1.5l1.6-1.6l1.6-1.6
						c0.5-0.6,1-1.1,1.5-1.7c-0.1,0.6-0.2,1.2-0.1,1.8c0.3-0.6,0.7-1.1,1.2-1.4c0.1,0.2,0.2,0.4,0.4,0.6l0,0
						c-0.3,0.3-0.5,0.7,0.3,1.2c0.3,0.2,0-0.8,0.7-0.4c-0.7,0.4-0.4,1.4,0.2,1.8l0.5-0.9c0.2,0.4,0.1,1,0.1,1.5
						c-0.8,1.3-1.6,2.6-2.5,3.9c-0.8,1.3-1.7,2.5-2.6,3.8C127.6,25.7,127.5,25.3,127.5,24.9z"/>
				</g>
			</g>
		</g>
		<g>
			<g class="st1">
				<g class="st1">
					<path class="st2" d="M131.9,21.7c-1.6,0.7-3.2,1.4-4.8,2.1c0.3-0.4,0.5-0.9,0.8-1.3C128.8,21.4,130.5,22.1,131.9,21.7z"/>
					<path class="st2" d="M136.3,19.8L136.3,19.8l-3.7,1.6c0.1-0.1,0.2-0.1,0.2-0.2C133.8,20.2,134.8,19.5,136.3,19.8z"/>
					<path class="st3" d="M148.4,18.8c-3.6-1.6-6.6-3.4-9.7-5.2c-0.2-0.4-0.6-0.8-0.6-1.1c-0.1,0-0.3-2.2-0.1-3.4
						c1.5,0.8,3.3,1.5,5.3,2.2c0.4-0.4,0.8-1.3,1.6-1.2c2.7,0.5,4.3,1.5,5.8,2.6C150.5,13,148.2,16.7,148.4,18.8z"/>
					<path class="st4" d="M147.5,23.7c-0.3,1.3-1.7,3-2.2,3.7c-1.6-0.6-3.1-1.2-4.3-1.8c-0.8,0.4-1.5,0.6-1.9,1
						c-0.2-0.1-0.5-0.3-0.7-0.4c0-2.3-0.2-4.5-0.4-6.8C138.9,19.6,144.7,22.8,147.5,23.7z"/>
					<path class="st5" d="M147.6,19.7c0.2,0.5,0.3,1,0.5,1.5c-0.1,0.9-0.3,1.7-0.6,2.6c-2.8-0.9-5.3-2-7.2-3.2c0,0.1-1,0.2-1.1,0.3
						c-0.6-0.8-0.4-1.3-1.3-1.5c-0.1-2.1-0.3-4.2-0.2-6.3c0.7,0.5,0.3,0.9,0.2,1.4c0.9-0.1,0.9-0.5,0.8-0.8c3.1,1.7,6,3.6,9.7,5.2
						l-0.1,0.4C147.9,19.3,147.5,19.4,147.6,19.7z"/>
					<path class="st6" d="M133.4,16.8c0.6-2.1,0.5-4.6,0-7.4c0.4,0.1,1.3,0.3,1.5-0.5c0.9-0.3,2.9-0.6,2.8-1.6
						c-0.1-1-0.1,4.4-0.1,6.8c0.5,1.3,0.5,2.6,0.3,3.8c-0.2,0-0.4-0.9-0.7-0.9c0.1,0.1,0.1,1.2,0.1,1.2s-0.3,0.1-0.8,0.3
						c-0.4,0.2-1,0.4-1.3,0.5c-0.9-1.2-1.3,0.2-1.2,0.5l-0.6,0.2l0,0c0.1-0.5,0.2-1,0.3-1.6C133.8,17.8,133.4,16.8,133.4,16.8z"/>
					<path class="st7" d="M144.9,10.1c2.7,0.5,4.3,1.5,5.8,2.6c0.2-0.4,0.6-1.3,0.7-1.4c-0.6,0.1-1.3,0.2-1.5-0.1
						c-0.2-0.5-0.5-1.1-0.5-1.5L147.6,0l-5.9,4.9c-0.1,0.1-0.2,0.2-0.3,0.2c-0.6,0.1-1.5-0.4-2.2-0.5c-0.3,0.4-0.6,0.8-0.9,1.3
						c0,0,0.2,1,0.4,1.4c-0.3,0.1-0.6,0.1-1,0.1c0.1,0.2-0.9,4.4-0.1,6.8c0.5,1.3,0.5,2.6,0.3,3.8c0,0,0.1,0,0.3-0.1
						c0.2-0.1,0.4-0.1,0.7-0.2c0.5-0.2,1.2-0.4,1.6-0.6c-0.1-0.2-0.7-0.6-0.8-0.7c0.1,0,1.2,0.4,1.6,0.4c0.5-0.2,1.8-0.7,1.8-0.9
						c0.1-0.1-0.5-0.6-0.8-1.2c1,0.6,2,0.8,2.8,0.8l0.5-0.2c0.2,0.2,0.3,0.4,0.2,0.4c-0.1,0.1-0.2,0.2-0.2,0.3
						c0.3-0.1,1.5-0.5,2-0.7l-10.4-6.7c0,0.2,0,0.2-0.1,0.3c0.1-0.1,0.1-0.2,0.2-0.3l10.2,6.6c-0.4,0-0.8-0.1-1.2-0.2l0.8-0.4
						l-9.1-5.9l0,0.3l0,0c1.5,0.8,3.2,1.5,5.3,2.2C143.7,10.9,144.1,10,144.9,10.1z"/>
					<path class="st8" d="M109,26.9c-1-1.3-2.4-1.1-3.3-2.8c-1.4-3.1-1.2-6.9-1.9-10.7c3.3,1.2,6.7,1.6,10,1.4
						c-0.5,1.7-2.1,1.1-2.4,3.8c0.1,0.4,0.4,0.7,0.6,1c-0.7,1.2-2.2,1.8-1.9,3.5c0.1,1.1,0.6,2.2,0.9,3.6l-0.4,0.1
						C110.2,26.4,109.7,26.8,109,26.9z"/>
					<path class="st9" d="M116.1,27.2l-2.6,0.7c-0.1-0.3-0.1-0.7-0.2-1c1-0.2,2-0.5,3-0.9C116.3,26.5,116.2,26.8,116.1,27.2z"/>
					<path class="st9" d="M112,19.6c-0.2-0.3-0.5-0.6-0.6-1c0.3-2.7,1.9-2.1,2.4-3.8c1.3-0.1,2.6-0.2,3.8-0.5
						c-0.2,0.3-0.3,0.7-0.5,1c0.7-0.2,1.4,2.3,2.1,2.1c-1.5,3.1-4.3,4.2-5.3,8.5c-1,0.4-2,0.6-3,0.8c-0.3-1.4-0.8-2.5-0.9-3.6
						C109.9,21.4,111.3,20.8,112,19.6z"/>
					<path class="st10" d="M119.3,17.4c-0.7,0.2-1.4-2.3-2.1-2.1c0.2-0.3,0.3-0.7,0.5-1c1.5-0.3,2.9-0.6,4.3-1c0.1,0,0.2,0,0.3,0
						c1.2,0,2-0.5,3.1-0.5c-0.2,1.6-0.5,3.2-0.9,4.7c-1.9-1.5-3.8-2.7-5.6-3.3c0.6,0.2,0.9,2,1.3,2.3c1.5,1.7,3.6,5.4,3.5,7.2
						c-2.3,0.9-4.7,1.8-7.1,2.5c-0.3-0.4-0.6-1.1-0.8-1.1c-0.6,0.3-1.3,0.6-2,0.8C115,21.6,117.8,20.5,119.3,17.4z"/>
					<path class="st2" d="M124.6,17.5c0.3-1.5,0.6-3.1,0.9-4.7c0.3,0,0.6,0,0.9,0c-0.1-0.3-0.2-0.6-0.4-0.9l0.6-0.2
						c0.3,0.1,0.9,1.1,0.8-0.3l0.8-0.3c0.4,0.3,0.8,0.7,1.2,1.4l-0.4-1c0-0.8,0.5-0.2,0.8-0.3c-0.1-0.2-0.2-0.5-0.2-0.7
						c1.6,0.4,3-1.2,3.3-1.4c0.2,0.1,0.5,0.2,0.7,0.2c0.4,2.7,0.6,5.2,0,7.4c0,0,0.4,1,0.4,1.4c-0.1,0.5-0.2,1-0.3,1.6
						c-2.2-1-3.6,1.5-3.7,1.5l-0.7,0.3c-1.4,0.3-3.9-0.9-4.8,1.9l-0.5,0.2c0.1-1.9-2-5.6-3.5-7.2c-0.4-0.3-1.8-2-1.3-2.3
						c0.9-0.1,2.3,0.8,3.5,1.7C123.6,16.7,124.6,17.6,124.6,17.5z"/>
					<path class="st11" d="M142.4,32.9c-0.3,0.5-0.5,1-0.8,1.5c0-0.6,0.5-1.1-0.3-1.5c0.3-0.2,0.3-0.5,0.3-0.8
						C142,32.4,142.2,32.6,142.4,32.9z"/>
					<path class="st11" d="M137.4,31.5l0-0.4c0.7,0.1,1.4,0.4,1,0.7c0.7,0.1,0-0.3,0.4-0.3c1,0.1,1,0.3,0.8,0.5
						c-1.6-0.1-3.2-0.5-3.2-0.7l0-0.3C136.8,31.1,137,31.3,137.4,31.5z"/>
					<path class="st12" d="M139.1,26.6c0.4-0.4,1.1-0.7,1.9-1c1.3,0.7,2.8,1.3,4.3,1.8c-0.8,1.3-1.5,2.6-2.2,3.9
						c-0.2-0.3-0.4-0.5-0.8-0.8c0,0.3,0,0.6-0.3,0.8c-0.2-0.1-0.4-0.1-0.6-0.2l0,0c0.1-0.2,0.1-0.4-0.8-0.5c-0.4,0,0.3,0.3-0.4,0.3
						c0.4-0.3-0.3-0.6-1-0.7l0,0.4c-0.4-0.1-0.5-0.4-0.9-0.6c0.1-1.3,0.1-2.6,0.1-3.9C138.6,26.3,138.8,26.4,139.1,26.6z"/>
				</g>
			</g>
		</g>
		<g>
			<g>
				<g class="st1">
					<g class="st1">
						<path class="st62" d="M52.8,144.4c0.1,1.4,0.3,2.9,0.5,4.3c-0.3-0.3-0.7-0.6-1-0.9C51.5,146.7,52.7,145.6,52.8,144.4z"/>
						<path class="st62" d="M52.5,140.5L52.5,140.5c0.1,1.1,0.1,2.2,0.2,3.3c0-0.1,0-0.1-0.1-0.2C52,142.6,51.7,141.5,52.5,140.5z"
							/>
						<path class="st63" d="M40.6,123.4c3.8,0.8,7.1,1.9,10.3,3c0.2,0.3,0.7,0.6,0.8,0.9c0.1,0,0.6,1.9,0.6,2.9
							c-1.6-0.5-3.4-0.9-5.5-1.2c-0.3,0.4-0.7,1.2-1.4,1.2c-2.7,0-4.5-0.7-6.1-1.4C39.4,128.6,41.2,125.2,40.6,123.4z"/>
						<path class="st64" d="M40.8,119.2c0.1-1.2,1.2-2.8,1.5-3.5c1.6,0.2,3.2,0.4,4.6,0.8c0.7-0.5,1.4-0.8,1.7-1.2
							c0.3,0.1,0.5,0.2,0.8,0.2c0.4,1.9,1,3.9,1.5,5.8C49.9,121.3,43.7,119.5,40.8,119.2z"/>
						<path class="st65" d="M41.3,122.6c-0.2-0.4-0.5-0.8-0.7-1.1c0-0.7,0-1.5,0.2-2.2c2.9,0.3,5.6,0.8,7.6,1.5c0-0.1,1-0.3,1-0.5
							c0.7,0.6,0.5,1,1.5,1.1c0.5,1.8,0.9,3.6,1.2,5.4c-0.7-0.3-0.4-0.8-0.4-1.2c-0.8,0.2-0.9,0.5-0.7,0.8c-3.3-1.1-6.5-2.2-10.3-3
							l0-0.4C41.1,122.9,41.5,122.8,41.3,122.6z"/>
						<path class="st66" d="M48.7,141.8c-1.7-1.1-4.2-1.8-6.8-2.3c0.2-0.3,0.8-1,0.2-1.4c0-0.8,0.6-2.6-0.3-2.8
							c-0.9-0.3,4,1.7,6.2,2.4c1.4,0,2.6,0.5,3.6,1c-0.1,0.2-1,0.1-1.1,0.2c0.1,0,1.1,0.3,1.1,0.3s0,1.2,0,1.8
							c-1.4,0.3-0.3,1.1,0,1.1l0,0.5l0,0c-0.5-0.2-0.9-0.5-1.4-0.7C49.8,141.8,48.7,141.8,48.7,141.8z"/>
						<path class="st67" d="M45.4,130.3c-2.7,0-4.5-0.7-6.1-1.4c-0.1,0.3-0.5,1.1-0.5,1.2c0.6-0.1,1.3-0.3,1.5-0.2
							c0.4,0.5,0.8,1.1,0.8,1.5c-0.2,0.5-1,1.1-1.4,1.6c0.2,0.4,0.5,0.8,0.8,1.2c0,0,1,0.2,1.4,0.2c0,0.3-0.1,0.6-0.3,0.8
							c0.2,0,3.7,2.2,6.2,2.4c1.4,0,2.6,0.5,3.6,1c0,0,0-0.1,0-0.3c0-0.2,0-0.4,0.1-0.6c0-0.5,0.1-1,0.1-1.4c-0.3,0-0.8,0.3-0.9,0.4
							c0-0.1,0.8-0.8,1-1.1c0.1-0.5,0.1-1.6,0-1.7c0-0.1-0.7,0.2-1.4,0.2c0.9-0.6,1.6-1.2,1.9-1.8l0-0.5c0.3-0.1,0.5-0.1,0.5,0
							c0.1,0.1,0.1,0.2,0.2,0.3c0-0.3,0.2-1.6,0.3-1.9c-0.2,0.4-0.5,0.7-0.9,1.1c0-0.4,0-0.7,0-1l0,0c-1.6-0.5-3.4-0.9-5.5-1.2
							C46.4,129.5,46.1,130.2,45.4,130.3z"/>
						<path class="st68" d="M52.3,163.8c-1.4,0.7-1.5,1.8-3.2,2.4c-3.3,0.8-7,0.2-10.8,0.3c1.6-2.8,2.5-5.8,3-8.7
							c1.6,0.8,0.7,2,3.2,2.8c0.4,0,0.7-0.2,1.1-0.3c1,0.8,1.3,2.1,3.1,2.2c1.1,0.1,2.3-0.1,3.7-0.2l0,0.3
							C51.9,162.8,52.3,163.3,52.3,163.8z"/>
						<path class="st69" d="M53.9,158.1l0.2,2.2c-0.3,0-0.7,0-1,0c0-0.8-0.1-1.7-0.3-2.5C53.2,157.9,53.5,158,53.9,158.1z"/>
						<path class="st69" d="M45.6,160.2c-0.4,0.1-0.7,0.4-1.1,0.3c-2.6-0.7-1.6-2-3.2-2.8c0.2-1.1,0.3-2.3,0.4-3.4
							c0.3,0.2,0.6,0.4,0.9,0.6c0-0.6,2.5-0.7,2.5-1.4c2.6,1.9,3,4.5,7.2,6.1c0.2,0.9,0.2,1.7,0.2,2.5c-1.4,0-2.6,0.2-3.7,0.2
							C47,162.3,46.7,161,45.6,160.2z"/>
						<path class="st70" d="M45.1,153.6c0,0.6-2.5,0.7-2.5,1.4c-0.3-0.2-0.6-0.4-0.9-0.6c0.1-1.3,0.1-2.6,0.1-4
							c0-0.1,0.1-0.2,0.1-0.3c0.3-1,0.1-1.9,0.4-2.8c1.4,0.6,2.9,1.3,4.2,1.9c-2,1.2-3.7,2.5-4.7,3.9c0.4-0.5,2.2-0.3,2.5-0.6
							c2-0.9,6.1-1.7,7.9-1.2c0.3,2.1,0.5,4.1,0.8,6.2c-0.5,0.1-1.2,0.3-1.2,0.4c0.2,0.6,0.3,1.2,0.4,1.7
							C48.1,158.1,47.7,155.5,45.1,153.6z"/>
						<path class="st62" d="M46.6,149.2c-1.4-0.7-2.8-1.3-4.2-1.9c0.1-0.2,0.2-0.5,0.3-0.7c-0.3,0-0.6,0-0.9,0.1l0-0.5
							c0.2-0.2,1.3-0.4,0-0.7l0-0.8c0.4-0.3,1-0.5,1.7-0.6l-1.1,0c-0.7-0.2,0-0.5,0-0.8c-0.2,0-0.5,0-0.7,0c0.9-1.2-0.1-2.9-0.1-3.2
							c0.2-0.2,0.3-0.4,0.5-0.5c2.7,0.5,5.1,1.2,6.8,2.3c0,0,1.1,0,1.4,0.1c0.4,0.2,0.9,0.5,1.4,0.7c-1.7,1.4,0.2,3.2,0.2,3.3l0,0.6
							c-0.1,1.2-2,2.9,0.5,4.3l0.1,0.5c-1.8-0.5-5.9,0.3-7.9,1.2c-0.4,0.3-2.4,1-2.5,0.6C42.2,151.6,46.7,149.1,46.6,149.2z"/>
						<path class="st71" d="M44.2,110.6c0.2-0.5,0.3-0.9,0.5-1.4c0.1,0.5-0.3,1,0.6,1.2c-0.3,0.2-0.2,0.5-0.2,0.7
							C44.7,110.9,44.4,110.8,44.2,110.6z"/>
						<path class="st71" d="M49.4,110.8l0,0.4c-0.7,0.1-1.5-0.1-1.1-0.4c-0.7,0.1,0,0.3-0.3,0.3c-1,0.1-1,0-0.9-0.2
							c1.6-0.2,3.2-0.2,3.2,0l0,0.3C50,111.1,49.8,110.9,49.4,110.8z"/>
						<path class="st72" d="M48.6,115.3c-0.3,0.4-1,0.8-1.7,1.2c-1.4-0.3-3-0.6-4.6-0.8c0.6-1.2,1.1-2.4,1.5-3.6
							c0.2,0.2,0.5,0.4,0.9,0.5c0-0.2-0.1-0.5,0.2-0.7c0.2,0,0.4,0.1,0.6,0.1l0,0c-0.1,0.2,0,0.3,0.9,0.2c0.4,0-0.4-0.2,0.3-0.3
							c-0.3,0.3,0.4,0.5,1.1,0.4l0-0.4c0.4,0,0.6,0.2,1,0.4c0.1,1.1,0.3,2.2,0.6,3.3C49.1,115.5,48.9,115.4,48.6,115.3z"/>
					</g>
				</g>
			</g>
			<g>
				<g class="st1">
					<g class="st1">
						<path class="st62" d="M54.5,141c0,1.3,0.1,2.5,0.2,3.8c-0.3-0.3-0.6-0.6-0.9-0.9C53,143,54.3,142.1,54.5,141z"/>
						<path class="st62" d="M54.5,137.5L54.5,137.5c0,1,0,2,0,3c0-0.1,0-0.1-0.1-0.2C53.9,139.3,53.6,138.4,54.5,137.5z"/>
						<path class="st63" d="M44,121.3c3.8,0.8,6.9,2,10.1,3.2c0.2,0.3,0.7,0.6,0.7,0.9c0.1,0,0.4,1.8,0.4,2.8
							c-1.5-0.6-3.4-1.1-5.4-1.5c-0.4,0.3-0.7,1-1.5,1c-2.7-0.3-4.4-1-6-1.7C42.5,125.7,44.5,122.8,44,121.3z"/>
						<path class="st64" d="M44.3,117.6c0.1-1,1.2-2.4,1.5-3.1c1.6,0.1,3.3,0.2,4.6,0.5c0.7-0.4,1.4-0.8,1.7-1.2
							c0.3,0.1,0.5,0.1,0.8,0.2c0.4,1.9,1,3.7,1.5,5.6c-0.5,0-2.3-0.5-4.3-1C48,118.1,45.7,117.7,44.3,117.6z"/>
						<path class="st65" d="M44.7,120.6c-0.2-0.4-0.4-0.7-0.7-1c0-0.6,0.1-1.3,0.2-1.9c2.9,0.2,5.6,0.7,7.6,1.4c0-0.1,1-0.3,1-0.4
							c0.7,0.6,0.5,1,1.5,1.1c0.4,1.7,0.7,3.5,0.9,5.2c-0.7-0.4-0.4-0.7-0.4-1.1c-0.9,0.2-0.9,0.4-0.7,0.7
							c-3.2-1.2-6.3-2.4-10.1-3.2l0-0.3C44.4,120.8,44.9,120.7,44.7,120.6z"/>
						<path class="st66" d="M50.6,138.4c-1.6-1.1-4-2-6.6-2.7c0.3-0.3,0.9-0.8,0.3-1.3c0.1-0.7,0.8-2.3-0.1-2.6
							c-0.9-0.3,3.8,1.9,6,2.8c1.4,0.2,2.5,0.6,3.5,1.2c-0.1,0.1-1,0-1.1,0.1c0.1,0,1.1,0.3,1.1,0.3s-0.1,1.1-0.2,1.7
							c-1.4,0.2-0.4,0.9-0.1,1l0,0.5l0,0c-0.4-0.2-0.9-0.5-1.3-0.7C51.7,138.5,50.6,138.4,50.6,138.4z"/>
						<path class="st67" d="M48.3,127.6c-2.7-0.3-4.4-1-6-1.7c-0.2,0.3-0.5,1-0.6,1c0.6-0.1,1.3-0.2,1.5,0c0.3,0.5,0.7,1,0.7,1.4
							c-0.2,0.4-1.1,0.9-1.5,1.3c0.2,0.4,0.4,0.8,0.7,1.2c0,0,0.3,0.1,0.6,0.2c0.3,0.1,0.7,0.1,0.9,0.2c0,0.3-0.2,0.5-0.4,0.7
							c0.2,0,3.5,2.4,6,2.8c1.4,0.2,2.5,0.6,3.5,1.2c0,0,0.1-0.4,0.2-0.8c0.1-0.4,0.2-0.9,0.2-1.2c-0.3,0-0.9,0.2-1,0.3
							c0-0.1,0.9-0.7,1.1-0.9c0.1-0.4,0.2-1.4,0.1-1.5c0-0.1-0.7,0.1-1.4,0c1-0.5,1.7-1,2.1-1.5l0.1-0.4c0.3,0,0.5-0.1,0.5,0
							c0.1,0.1,0.1,0.2,0.2,0.3c0.1-0.3,0.4-1.5,0.4-1.8c-0.2,0.3-0.6,0.6-1,0.9c0-0.3,0.1-0.6,0.1-1l0,0c-1.5-0.6-3.3-1.1-5.4-1.5
							C49.4,127,49,127.7,48.3,127.6z"/>
						<path class="st68" d="M54,157.6c-1.3,0.7-1.2,1.6-2.9,2.3c-3.2,1.2-6.9,1.2-10.7,2c1.2-3.2,1.7-6.2,2.2-9.1
							c1.6,0.7,0.7,1.9,3.4,2.5c0.4,0,0.7-0.3,1.1-0.4c1.1,0.7,1.5,1.8,3.3,1.7c1.1-0.1,2.3-0.3,3.7-0.5l0,0.2
							C53.6,156.7,54,157.1,54,157.6z"/>
						<path class="st69" d="M55.3,152.8l0.3,1.8c-0.3,0-0.7,0-1,0.1c0-0.7-0.2-1.4-0.4-2.1C54.5,152.6,54.9,152.7,55.3,152.8z"/>
						<path class="st69" d="M47.1,154.9c-0.4,0.1-0.7,0.4-1.1,0.4c-2.6-0.5-1.8-1.8-3.4-2.5c0.1-1.1,0.2-2.2,0.3-3.3
							c0.3,0.2,0.6,0.4,0.9,0.6c0-0.6,2.5-0.7,2.6-1.3c2.6,1.8,3.1,4.1,7.3,5.3c0.2,0.7,0.4,1.4,0.4,2.1c-1.4,0.2-2.6,0.4-3.7,0.5
							C48.6,156.8,48.2,155.6,47.1,154.9z"/>
						<path class="st70" d="M46.4,148.9c0,0.6-2.5,0.6-2.6,1.3c-0.3-0.2-0.6-0.4-0.9-0.6c0.1-1.3,0.1-2.5,0.2-3.8
							c0-0.1,0.1-0.2,0.1-0.2c0.3-0.9,0.2-1.8,0.6-2.6c1.4,0.7,2.8,1.3,4.1,2c-2,1-3.8,2.2-4.8,3.5c0.4-0.5,2.2-0.3,2.5-0.5
							c2-0.8,6.2-1.4,7.9-0.9c0.1,0.9,0.2,1.8,0.3,2.7c0.1,0.9,0.2,1.8,0.4,2.6c-0.5,0.1-1.2,0.3-1.2,0.4c0.2,0.5,0.4,1,0.5,1.4
							C49.5,153,48.9,150.7,46.4,148.9z"/>
						<path class="st62" d="M48,144.9c-1.3-0.7-2.7-1.3-4.1-2c0.1-0.2,0.2-0.4,0.4-0.7c-0.3,0-0.6,0-1,0l0-0.5
							c0.2-0.2,1.3-0.3,0-0.7l0-0.7c0.4-0.2,1-0.4,1.8-0.4l-1.1-0.1c-0.7-0.3,0-0.5,0-0.7c-0.2,0-0.5,0-0.7-0.1c1-1,0.1-2.6,0.1-2.9
							c0.2-0.1,0.4-0.3,0.5-0.4c2.6,0.7,5,1.6,6.6,2.7c0,0,1.1,0.1,1.4,0.2c0.4,0.2,0.9,0.5,1.3,0.7c-1.8,1.1,0,2.9,0,3l0,0.5
							c-0.2,1-2.2,2.5,0.3,3.8l0,0.4c-1.7-0.5-5.9,0-7.9,0.9c-0.4,0.2-2.4,0.9-2.5,0.5C43.5,146.9,48.1,144.8,48,144.9z"/>
						<path class="st71" d="M47.3,109.8c0.1-0.4,0.2-0.9,0.4-1.3c0.1,0.4-0.2,1,0.7,1c-0.2,0.3-0.2,0.5-0.1,0.7
							C47.9,110.1,47.6,109.9,47.3,109.8z"/>
						<path class="st71" d="M52.5,109.5l0.1,0.4c-0.7,0.1-1.5,0-1.2-0.3c-0.7,0.2,0.1,0.2-0.3,0.3c-0.9,0.2-1,0.1-0.9-0.1
							c1.6-0.3,3.2-0.5,3.2-0.3l0.1,0.3C53.2,109.7,52.9,109.5,52.5,109.5z"/>
						<path class="st72" d="M52,113.9c-0.3,0.4-1,0.8-1.7,1.2c-1.4-0.3-3-0.4-4.6-0.5c0.5-1.1,1-2.2,1.3-3.3
							c0.2,0.1,0.5,0.3,0.9,0.4c0-0.2-0.1-0.4,0.1-0.7c0.2,0,0.4,0,0.6,0l0,0c-0.1,0.2,0,0.3,0.9,0.1c0.4-0.1-0.4-0.2,0.3-0.3
							c-0.3,0.3,0.5,0.4,1.2,0.3l-0.1-0.4c0.4,0,0.6,0.2,1,0.3c0.2,1.1,0.4,2.1,0.7,3.2C52.6,114,52.3,114,52,113.9z"/>
					</g>
				</g>
			</g>
			<g>
				<g class="st1">
					<g class="st1">
						<path class="st62" d="M103.3,138.6c0.1,1.7,0.3,3.3,0.5,4.9c-0.3-0.4-0.7-0.7-1-1.1C101.9,141.2,103.1,139.9,103.3,138.6z"/>
						<path class="st62" d="M103.1,134C103.1,134,103.1,134,103.1,134c0,1.3,0.1,2.6,0.1,3.8c0-0.1,0-0.2-0.1-0.3
							C102.5,136.4,102.2,135.2,103.1,134z"/>
						<path class="st63" d="M92.5,112.9c3.7,1.4,6.8,3.1,10,4.7c0.2,0.4,0.7,0.8,0.7,1.1c0.1,0,0.4,2.3,0.3,3.4
							c-1.5-0.7-3.3-1.3-5.4-1.9c-0.4,0.5-0.8,1.4-1.5,1.3c-2.7-0.3-4.4-1.3-6-2.3C90.7,119,92.9,115.1,92.5,112.9z"/>
						<path class="st64" d="M93.1,107.9c0.2-1.4,1.5-3.2,2-3.9c1.6,0.5,3.1,1,4.5,1.6c0.7-0.4,1.5-0.7,1.8-1.2
							c0.3,0.1,0.5,0.3,0.8,0.4c0.2,2.3,0.5,4.6,0.8,6.9C101.9,111.5,96,108.6,93.1,107.9z"/>
						<path class="st65" d="M93.2,112c-0.2-0.5-0.4-1-0.6-1.5c0.1-0.9,0.2-1.8,0.5-2.7c2.9,0.7,5.4,1.6,7.4,2.8c0-0.2,1-0.3,1-0.4
							c0.7,0.8,0.4,1.3,1.4,1.4c0.3,2.1,0.5,4.3,0.6,6.4c-0.7-0.5-0.3-0.9-0.3-1.4c-0.9,0.2-0.9,0.5-0.7,0.9
							c-3.2-1.6-6.2-3.3-10-4.7l0-0.4C93,112.4,93.4,112.3,93.2,112z"/>
						<path class="st66" d="M99.2,135.5c-1.7-1.3-4.1-2.3-6.7-3c0.3-0.4,0.8-1.1,0.2-1.7c0.1-1,0.7-3.1-0.2-3.5
							c-0.9-0.4,3.9,2.3,6,3.3c1.4,0.1,2.5,0.7,3.5,1.3c-0.1,0.2-1,0-1.1,0.2c0.1,0,1.1,0.4,1.1,0.4s-0.1,1.4-0.1,2.1
							c-1.4,0.3-0.3,1.2,0,1.2l0,0.6l0,0c-0.4-0.3-0.9-0.6-1.3-0.8C100.3,135.5,99.2,135.5,99.2,135.5z"/>
						<path class="st67" d="M96.6,121.6c-2.7-0.3-4.4-1.3-6-2.3c-0.2,0.4-0.6,1.3-0.6,1.4c0.6-0.1,1.3-0.3,1.5,0
							c0.3,0.6,0.7,1.4,0.7,1.9c-0.2,0.6-1.1,1.2-1.5,1.8c0.2,0.5,0.4,1,0.7,1.5c0,0,1,0.3,1.4,0.3c0,0.4-0.2,0.7-0.4,1
							c0.2,0,3.5,2.9,6,3.3c1.4,0.1,2.5,0.7,3.5,1.3c0,0,0.2-1.8,0.3-2.6c-0.3,0-0.9,0.3-1,0.4c0-0.1,0.9-0.9,1.1-1.2
							c0.1-0.5,0.2-1.8,0.1-1.9c0-0.2-0.7,0.1-1.4,0.1c1-0.6,1.6-1.3,2-2l0.1-0.6c0.3-0.1,0.5-0.1,0.5,0c0.1,0.1,0.1,0.2,0.2,0.4
							c0.1-0.3,0.3-1.8,0.4-2.2c-0.2,0.4-0.6,0.8-1,1.1c0-0.4,0.1-0.8,0.1-1.2l0,0c-1.5-0.7-3.3-1.3-5.4-1.9
							C97.7,120.7,97.3,121.6,96.6,121.6z"/>
						<path class="st68" d="M103.9,160.6c-1.3,0.9-1.2,2.2-2.8,3.1c-3.1,1.4-6.9,1.4-10.6,2.2c1.1-3.8,1.6-7.6,1.8-11.2
							c1.6,0.8,0.8,2.4,3.5,3c0.4,0,0.7-0.4,1-0.5c1.1,0.9,1.6,2.4,3.4,2.2c1.1-0.1,2.3-0.4,3.7-0.7l0,0.3
							C103.4,159.5,103.8,160,103.9,160.6z"/>
						<path class="st69" d="M104.8,154.1l0.4,2.4c-0.3,0-0.7,0.1-1,0.1c-0.1-0.9-0.2-1.9-0.5-2.8C104.1,153.9,104.4,154,104.8,154.1
							z"/>
						<path class="st69" d="M96.8,157.2c-0.3,0.2-0.7,0.5-1,0.5c-2.7-0.6-1.8-2.2-3.5-3c0.1-1.4,0.1-2.8,0.1-4.2
							c0.3,0.2,0.6,0.5,0.9,0.7c0-0.8,2.5-1,2.5-1.8c2.7,2.2,3.4,5.1,7.6,6.5c0.3,0.9,0.4,1.9,0.5,2.8c-1.4,0.2-2.6,0.6-3.7,0.7
							C98.3,159.6,97.9,158.1,96.8,157.2z"/>
						<path class="st70" d="M95.7,149.4c0,0.8-2.5,1-2.5,1.8c-0.3-0.2-0.6-0.5-0.9-0.7c0-1.6,0-3.3-0.1-4.9c0-0.1,0.1-0.2,0.1-0.3
							c0.3-1.2,0.1-2.3,0.4-3.4c1.4,0.8,2.9,1.5,4.3,2.3c-2,1.5-3.6,3.1-4.6,4.9c0.3-0.6,2.1-0.5,2.5-0.8c2-1.2,6.1-2.2,7.8-1.7
							c0.3,2.3,0.7,4.7,1.1,7c-0.5,0.2-1.2,0.4-1.2,0.6c0.2,0.6,0.4,1.3,0.6,1.9C99.1,154.6,98.4,151.6,95.7,149.4z"/>
						<path class="st62" d="M97,144.1c-1.4-0.8-2.8-1.5-4.3-2.3c0.1-0.3,0.2-0.6,0.3-0.9c-0.3,0-0.6,0-0.9,0.1l0-0.7
							c0.2-0.3,1.3-0.5,0-0.9l0-0.9c0.4-0.3,1-0.6,1.8-0.7l-1.1,0c-0.7-0.3,0-0.6,0-0.9c-0.2,0-0.5,0-0.7,0c0.9-1.4,0-3.5,0-3.9
							c0.2-0.2,0.4-0.4,0.5-0.6c2.7,0.8,5,1.7,6.7,3c0,0,1.1,0,1.4,0.2c0.4,0.3,0.9,0.5,1.3,0.8c-1.8,1.6,0.1,3.8,0.2,3.8l0,0.7
							c-0.1,1.3-2,3.4,0.5,4.9l0.1,0.5c-1.8-0.5-5.9,0.5-7.8,1.7c-0.4,0.3-2.4,1.4-2.5,0.8C92.7,147.1,97.1,144,97,144.1z"/>
						<path class="st71" d="M97.6,98.2c0.2-0.5,0.4-1,0.7-1.6c0,0.6-0.4,1.1,0.4,1.5c-0.3,0.2-0.3,0.5-0.3,0.8
							C98.1,98.7,97.8,98.4,97.6,98.2z"/>
						<path class="st71" d="M102.7,99.3l0,0.5c-0.7,0-1.4-0.3-1.1-0.6c-0.7,0,0,0.3-0.4,0.3c-1,0-1-0.2-0.9-0.4
							c1.6,0,3.2,0.3,3.2,0.5l0,0.3C103.3,99.7,103.1,99.4,102.7,99.3z"/>
						<path class="st72" d="M101.4,104.4c-0.4,0.5-1.1,0.7-1.8,1.2c-1.3-0.6-2.9-1.1-4.5-1.6c0.7-1.4,1.4-2.7,2-4.1
							c0.2,0.3,0.5,0.5,0.8,0.7c0-0.3,0-0.6,0.3-0.8c0.2,0.1,0.4,0.1,0.6,0.2l0,0c-0.1,0.2-0.1,0.4,0.9,0.4c0.4,0-0.4-0.3,0.4-0.3
							c-0.4,0.3,0.3,0.6,1.1,0.6l0-0.5c0.4,0.1,0.6,0.4,0.9,0.6c0,1.3,0,2.6,0.1,4C101.9,104.7,101.6,104.5,101.4,104.4z"/>
					</g>
				</g>
			</g>
			<g>
				<g class="st1">
					<g class="st1">
						<path class="st62" d="M158.5,124.4c0.1,2.3,0.2,4.6,0.3,7c-0.3-0.5-0.6-1-0.9-1.5C157,128.1,158.3,126.3,158.5,124.4z"/>
						<path class="st62" d="M158.4,118.1C158.4,118.1,158.5,118.1,158.4,118.1c0,1.8,0,3.6,0,5.4c0-0.1,0-0.2-0.1-0.4
							C157.8,121.4,157.5,119.7,158.4,118.1z"/>
						<path class="st63" d="M148.4,88.7c3.7,2,6.7,4.3,9.8,6.5c0.2,0.5,0.7,1.1,0.6,1.6c0.1,0,0.4,3.1,0.2,4.7
							c-1.5-1-3.3-1.9-5.4-2.6c-0.4,0.6-0.8,1.9-1.5,1.9c-2.7-0.4-4.4-1.8-5.9-3.2C146.5,97.1,148.7,91.6,148.4,88.7z"/>
						<path class="st64" d="M149.2,81.7c0.3-1.9,1.7-4.4,2.1-5.4c1.6,0.7,3.1,1.4,4.4,2.2c0.7-0.6,1.5-1,1.9-1.6
							c0.3,0.2,0.5,0.4,0.8,0.5c0.1,3.2,0.3,6.4,0.6,9.6C157.9,86.7,152.1,82.7,149.2,81.7z"/>
						<path class="st65" d="M149.2,87.4c-0.2-0.7-0.4-1.4-0.5-2c0.1-1.2,0.3-2.4,0.5-3.7c2.9,1,5.4,2.3,7.3,3.9c0-0.2,1-0.4,1.1-0.6
							c0.6,1.1,0.4,1.8,1.3,2c0.2,3,0.4,5.9,0.4,8.9c-0.7-0.7-0.3-1.3-0.3-1.9c-0.9,0.3-0.9,0.7-0.8,1.2c-3.1-2.2-6.2-4.5-9.8-6.5
							l0-0.6C148.9,87.9,149.4,87.7,149.2,87.4z"/>
						<path class="st66" d="M154.5,120c-1.7-1.9-4-3.2-6.6-4.3c0.3-0.5,0.9-1.6,0.3-2.3c0.1-1.4,0.8-4.3-0.1-4.8
							c-0.9-0.5,3.8,3.2,6,4.6c1.4,0.2,2.5,1,3.5,1.8c-0.1,0.3-1,0-1.1,0.3c0.1,0,1.1,0.5,1.1,0.5s-0.1,2-0.2,3
							c-1.4,0.4-0.4,1.7-0.1,1.7l0,0.9l0,0c-0.4-0.4-0.9-0.8-1.3-1.2C155.6,120,154.5,120,154.5,120z"/>
						<path class="st67" d="M152.3,100.7c-2.7-0.4-4.4-1.8-5.9-3.2c-0.2,0.5-0.6,1.9-0.6,2c0.6-0.1,1.3-0.4,1.5-0.1
							c0.3,0.9,0.6,1.9,0.6,2.6c-0.2,0.8-1.1,1.7-1.6,2.5c0.2,0.7,0.4,1.4,0.7,2.1c0,0,1,0.5,1.4,0.5c0,0.5-0.2,0.9-0.4,1.4
							c0.2,0.1,3.5,4.1,6,4.6c1.4,0.2,2.5,1,3.5,1.8c0-0.1,0.3-2.4,0.4-3.6c-0.3,0-0.9,0.4-1,0.6c0-0.2,0.9-1.3,1.1-1.7
							c0.1-0.7,0.2-2.5,0.1-2.7c0-0.2-0.7,0.2-1.4,0.2c1-0.9,1.7-1.8,2.1-2.7l0.1-0.8c0.3-0.1,0.5-0.1,0.5,0
							c0.1,0.2,0.1,0.3,0.2,0.5c0.1-0.5,0.4-2.5,0.5-3.1c-0.2,0.5-0.6,1.1-1,1.6l0.1-1.7l0-0.1c-1.5-1-3.3-1.9-5.3-2.6
							C153.4,99.5,153,100.8,152.3,100.7z"/>
						<path class="st68" d="M157.6,155.7c-1.4,1.2-1.4,3-3.2,4c-3.3,1.5-7,0.8-10.8,1.4c1.5-4.9,2.4-9.9,2.9-14.9
							c1.6,1.3,0.6,3.4,3.2,4.5c0.4,0,0.7-0.4,1.1-0.6c1.1,1.3,1.4,3.4,3.2,3.5c1.1,0,2.3-0.3,3.7-0.5l0,0.5
							C157.2,154.1,157.6,154.9,157.6,155.7z"/>
						<path class="st69" d="M159.1,146.5l0.2,3.5c-0.3,0-0.7,0-1,0.1c0-1.4-0.1-2.7-0.3-4.1C158.4,146.1,158.8,146.3,159.1,146.5z"
							/>
						<path class="st69" d="M150.8,150.1c-0.4,0.2-0.7,0.6-1.1,0.6c-2.6-1.1-1.7-3.2-3.2-4.5c0.2-1.9,0.3-3.8,0.4-5.8
							c0.3,0.3,0.6,0.7,0.8,1c0-1.1,2.6-1.2,2.6-2.3c2.5,3.2,3,7.4,7.1,9.8c0.2,1.4,0.3,2.7,0.3,4.1c-1.4,0.2-2.6,0.5-3.7,0.5
							C152.2,153.6,151.9,151.4,150.8,150.1z"/>
						<path class="st70" d="M150.4,139.2c0,1.1-2.6,1.2-2.6,2.3c-0.3-0.3-0.6-0.7-0.8-1c0.1-2.2,0.2-4.4,0.2-6.7
							c0-0.1,0.1-0.3,0.1-0.4c0.3-1.7,0.2-3.1,0.5-4.7c1.4,1.1,2.8,2.2,4.2,3.3c-2,2-3.7,4.1-4.8,6.5c0.4-0.8,2.2-0.6,2.5-1
							c2-1.5,6.2-2.8,7.9-2c0.2,3.3,0.4,6.6,0.6,10c-0.5,0.2-1.2,0.5-1.2,0.7c0.2,0.9,0.3,1.9,0.4,2.8
							C153.4,146.6,152.9,142.4,150.4,139.2z"/>
						<path class="st62" d="M152,132c-1.3-1.1-2.7-2.2-4.2-3.3c0.1-0.4,0.2-0.8,0.4-1.2c-0.3,0-0.6,0-1,0.1l0-0.9
							c0.2-0.4,1.3-0.7,0-1.2l0-1.3c0.4-0.4,1-0.8,1.8-1l-1.1,0c-0.7-0.4,0-0.9,0-1.3c-0.2,0-0.5,0-0.7-0.1c0.9-2,0.1-4.8,0.1-5.3
							c0.2-0.3,0.4-0.6,0.5-0.9c2.6,1.1,5,2.4,6.6,4.3c0,0,1.1,0,1.4,0.3c0.4,0.4,0.9,0.8,1.3,1.2c-1.8,2.3,0,5.3,0,5.4l0,1
							c-0.2,1.9-2.1,4.7,0.3,7l0,0.8c-1.7-0.8-5.9,0.4-7.9,2c-0.4,0.4-2.5,1.8-2.5,1C147.6,135.9,152.1,131.9,152,132z"/>
						<path class="st71" d="M154.1,68.2c0.2-0.7,0.5-1.4,0.7-2.2c0,0.8-0.4,1.6,0.4,2.1c-0.3,0.3-0.3,0.7-0.3,1.1
							C154.5,68.9,154.3,68.5,154.1,68.2z"/>
						<path class="st71" d="M159.2,69.8l0,0.6c-0.7,0-1.4-0.5-1-0.9c-0.7,0,0,0.4-0.4,0.4c-1,0-1-0.3-0.9-0.6
							c1.6,0.1,3.2,0.5,3.2,0.8l0,0.4C159.7,70.3,159.6,69.9,159.2,69.8z"/>
						<path class="st72" d="M157.6,76.9c-0.4,0.6-1.1,1-1.9,1.6c-1.3-0.8-2.8-1.6-4.4-2.2c0.8-1.9,1.5-3.8,2.1-5.7
							c0.2,0.4,0.4,0.7,0.8,1c0-0.4,0-0.8,0.3-1.1c0.2,0.1,0.4,0.2,0.6,0.2l0,0c-0.1,0.3-0.1,0.5,0.9,0.6c0.4,0-0.3-0.4,0.4-0.4
							c-0.4,0.4,0.3,0.9,1,0.9l0-0.6c0.4,0.1,0.6,0.5,0.9,0.8c-0.1,1.8-0.1,3.7,0,5.5C158.1,77.2,157.8,77,157.6,76.9z"/>
					</g>
				</g>
			</g>
		</g>
		<g>
			<g>
				<g>
					<g>
						<g>
							<path class="st19" d="M-0.8,169.4c39.3-4.2,79.4-2.3,118.9-2.3c11.4,0,22.9,0,34.3,0c8.2,0,17.7,1.9,25.7,0
								c6.3-1.5,4.5-7.8,4.5-12.9c-0.1-11-0.2-22-0.3-33c-0.2-25.6-0.4-51.2-0.6-76.8c0-0.6-2.9-0.1-2.9,0.8
								c0.2,20.8,0.3,41.5,0.5,62.3c0.1,10.7,0.2,21.3,0.3,32c0,5.2,0.1,10.3,0.1,15.5c0,1.8,0.1,3.7,0.1,5.5
								c0.1,3.4,0.2,5.1-3.8,5.8c-4.6,0.8-9.7-0.3-14.4-0.4c-5.2-0.1-10.5,0-15.7,0c-10.3,0-20.6,0-30.9,0c-19.1,0-38.1-0.1-57.2,0
								c-19.2,0.1-38.4,0.3-57.5,2.3C-0.4,168.3-2.7,169.6-0.8,169.4L-0.8,169.4z"/>
						</g>
					</g>
				</g>
				<g>
					<g>
						<g>
							<path class="st19" d="M20.6,166.4c0.9-19.6,1.7-39.1,2.6-58.7c-0.7,0.3-1.4,0.6-2.1,0.9c7.3-0.3,14.6-0.2,21.8,0.7
								c1.1,0.1,4.6,0.1,5.6,0.7c1.6,1,1.3,2.6,1.3,4.1c0.2,3.5-0.4,7.3-0.5,10.8c-0.5,13.5-0.5,27,0.1,40.5c0,0.5,2.9,0,2.9-0.8
								c-0.7-18.4-0.5-36.9,0.7-55.3c-0.1-0.1-0.1-0.2-0.3-0.2c-10.1-1.6-20.2-2.2-30.4-1.7c-0.5,0-2,0.3-2.1,0.9
								c-0.9,19.6-1.7,39.1-2.6,58.7C17.7,167.6,20.6,167.3,20.6,166.4L20.6,166.4z"/>
						</g>
					</g>
				</g>
				<g>
					<g>
						<g>
							<path class="st19" d="M69.6,165.4c1.1-25.4,2.2-50.8,3.3-76.3c-0.7,0.3-1.4,0.6-2.1,0.9c4.9-0.3,9.9-0.4,14.8-0.1
								c2.7,0.1,5.5,0.4,8.2,0.7c1.7,0.2,5.2,0.1,6.5,1c2.8,1.9,1.1,9.5,0.9,12.4c-0.2,3.9-0.3,7.8-0.5,11.7
								c-0.6,16.5-0.7,33.1-0.2,49.6c0,0.5,2.9,0,2.9-0.8c-0.7-24.5-0.2-49.1,1.3-73.6c-0.1-0.1-0.1-0.2-0.3-0.2
								c-10.8-2-21.6-2.6-32.5-2c-0.5,0-2,0.3-2.1,0.9c-1.1,25.4-2.2,50.8-3.3,76.3C66.7,166.5,69.6,166.2,69.6,165.4L69.6,165.4z"
								/>
						</g>
					</g>
				</g>
				<g>
					<g>
						<g>
							<path class="st19" d="M157.1,166.2c1.2-34.6,2.4-69.3,3.6-103.9c-0.1-0.1-0.1-0.2-0.3-0.2c-12.1-2-24.2-2.1-36.4-0.4
								c-0.4,0.1-1.7,0.3-1.7,0.9c-0.7,34.5-4.3,68.9-5.6,103.4c0,0.4,2.8,0.1,2.9-0.8c1.4-34.5,4.9-68.9,5.6-103.4
								c-0.6,0.3-1.1,0.6-1.7,0.9c6.3-0.9,12.6-1.3,19-1.2c2.8,0.1,5.5,0.3,8.3,0.6c1.2,0.1,4.5,0.1,5.5,0.7c1.6,1,1.3,2.6,1.5,4.1
								c0.4,5.4-0.4,11.3-0.6,16.7c-0.2,5.6-0.4,11.1-0.6,16.7c-0.8,22.2-1.6,44.4-2.3,66.6C154.2,167.4,157,167,157.1,166.2
								L157.1,166.2z"/>
						</g>
					</g>
				</g>
			</g>
			<g>
				<g>
					<g>
						<path class="st19" d="M18,72.1c47.1-4.9,98.5-18.9,125.7-61.2c0.6-1-1.5-0.5-1.9-0.4c-7,2.6-14.3,3.7-21.8,3.3
							c-0.7,0-3.4,1.2-1.8,1.4c8,0.8,15.7-0.9,22.8-4.9c-0.8,0-1.5,0.1-2.3,0.1c0.4,7.7-0.4,15.2-2.4,22.6c-0.2,0.8,2.6,0.4,2.9-0.4
							c2.1-7.5,2.9-15.1,2.5-22.9c0-0.7-2-0.1-2.3,0.1c-6,3.4-12.3,4.8-19.2,4.2c-0.6,0.5-1.2,0.9-1.8,1.4
							c8.5,0.5,16.7-0.8,24.7-3.7c-0.6-0.1-1.2-0.3-1.9-0.4c-26.6,41.4-76.4,55-122.6,59.8C17.2,70.9,16,72.3,18,72.1L18,72.1z"/>
					</g>
				</g>
			</g>
		</g>
	</g>
</g>
</svg>
