<?xml version="1.0" encoding="utf-8"?>
<!-- Generator: Adobe Illustrator 22.0.0, SVG Export Plug-In . SVG Version: 6.00 Build 0)  -->
<svg version="1.1" xmlns="http://www.w3.org/2000/svg" xmlns:xlink="http://www.w3.org/1999/xlink" x="0px" y="0px"
	 viewBox="0 0 228.9 235.5" style="enable-background:new 0 0 228.9 235.5;" xml:space="preserve">
<style type="text/css">
	.st0{fill:#FFFEFD;}
	.st1{opacity:0.9;}
	.st2{fill:#CBE5CF;}
	.st3{fill:#DCEDDF;}
	.st4{fill:#E3F1E5;}
	.st5{fill:#E0EFE2;}
	.st6{fill:#D1E8D4;}
	.st7{fill:#D4E9D7;}
	.st8{fill:#BEDEC2;}
	.st9{fill:#C3E1C7;}
	.st10{fill:#C7E2CB;}
	.st11{fill:#EEF6EF;}
	.st12{fill:#EBF5EC;}
	.st13{fill:#FEF9DA;}
	.st14{fill:#FFFDF1;}
	.st15{fill:#FDF5C7;}
	.st16{fill:#FDF2B4;}
	.st17{fill:#FCEFA5;}
	.st18{fill:#FCED95;}
	.st19{fill:#272525;}
	.st20{opacity:0.85;}
	.st21{fill:#D3E6F6;}
	.st22{fill:#C4DEF3;}
	.st23{fill:#ACD0EE;}
	.st24{fill:#E2EFF9;}
	.st25{fill:#B8D7F0;}
	.st26{fill:#9FC9EB;}
	.st27{fill:#EADAEE;}
	.st28{fill:#F7F1F8;}
	.st29{fill:#DFC7E5;}
	.st30{fill:#D5B5DC;}
	.st31{fill:#CDA6D5;}
	.st32{fill:#C497CE;}
	.st33{fill:#D8BBDF;}
	.st34{fill:#E5D1E9;}
	.st35{fill:#E8D6EB;}
	.st36{fill:#DDC3E2;}
	.st37{fill:#DFC6E4;}
	.st38{fill:#CEA9D6;}
	.st39{fill:#D2B0DA;}
	.st40{fill:#F2E9F4;}
	.st41{fill:#F0E4F2;}
	.st42{opacity:0.8;}
	.st43{opacity:0.8;fill:#DC7D5B;}
	.st44{opacity:0.8;fill:#E9AE99;}
	.st45{opacity:0.8;fill:#F0C7B8;}
	.st46{opacity:0.8;fill:#F7E1DA;}
	.st47{fill:#F7E0D8;}
	.st48{fill:#FCF3F0;}
	.st49{fill:#F2D0C4;}
	.st50{fill:#EEC0B0;}
	.st51{fill:#EBB4A0;}
	.st52{fill:#E7A790;}
	.st53{fill:#F0C6B6;}
	.st54{fill:#F5D8CE;}
	.st55{fill:#F6DCD3;}
	.st56{fill:#F1CCBF;}
	.st57{fill:#F2CFC2;}
	.st58{fill:#ECB6A3;}
	.st59{fill:#EDBDAB;}
	.st60{fill:#FAECE7;}
	.st61{fill:#F9E8E2;}
	.st62{fill:#B7E9E6;}
	.st63{fill:#CFF0EE;}
	.st64{fill:#D9F3F2;}
	.st65{fill:#D4F2F0;}
	.st66{fill:#BFECE9;}
	.st67{fill:#C3EDEA;}
	.st68{fill:#A5E4E0;}
	.st69{fill:#ACE6E3;}
	.st70{fill:#B1E7E4;}
	.st71{fill:#E8F8F7;}
	.st72{fill:#E3F6F5;}
	.st73{fill:#FDF3BA;}
	.st74{fill:#FEF7D0;}
	.st75{fill:#FEF8D5;}
	.st76{fill:#FDF4C2;}
	.st77{fill:#FDF5C5;}
	.st78{fill:#FCF0A8;}
	.st79{fill:#FDF1AF;}
	.st80{fill:#FEFBE8;}
	.st81{fill:#FEFAE4;}
	.st82{fill:#C9E1F4;}
	.st83{fill:#DBEAF7;}
	.st84{fill:#DEEDF8;}
	.st85{fill:#CFE4F5;}
	.st86{fill:#D2E5F6;}
	.st87{fill:#BBD8F1;}
	.st88{fill:#C1DCF2;}
	.st89{fill:#EDF5FB;}
	.st90{fill:#EAF3FB;}
	.st91{fill:#C5EDEB;}
	.st92{fill:#91DED9;}
	.st93{fill:#A1E3DF;}
	.st94{fill:#80D8D3;}
</style>
<g id="background">
	<rect x="-24" y="-493.6" class="st0" width="1200" height="800"/>
</g>
<g id="colour">
</g>
<g id="object">
	<g>
		<g>
			<g class="st1">
				<g class="st1">
					<path class="st62" d="M37.7,133.6c-0.2-1.4-0.6-2.9-1.2-4.5c0.4,0.3,0.8,0.6,1.2,0.9C38.8,131,37.7,132.5,37.7,133.6z"/>
					<path class="st62" d="M37.6,137.1L37.6,137.1c0.2-0.9,0.2-1.8,0.1-2.9c0,0.1,0.1,0.1,0.1,0.2C38.5,135.4,38.7,136.5,37.6,137.1
						z"/>
					<path class="st63" d="M27.8,158.6c0.8-4.1,1.3-7.7,1-11.2c0.2-0.3,0.3-1,0.6-1.1c-0.1-0.1,1.5-1.4,2.4-2.1
						c0.4,1.6,1,3.4,1.7,5.5c0.6,0,1.7-0.3,2.1,0.3c1.4,2.3,1.4,4.4,1.1,6.5c-0.2,0.1-1.8,0.4-3.6,0.8
						C31.3,157.7,29.2,158,27.8,158.6z"/>
					<path class="st64" d="M20.6,159c-1-0.1-2.1-0.6-3-1.2c-0.9-0.5-1.7-1.2-2.1-1.5c1-1.4,1.9-2.8,2.7-4c-0.3-0.8-0.5-1.6-0.8-2
						c0.2-0.2,0.3-0.4,0.5-0.7c2,0.2,4-0.1,5.8-0.8c0,0.5-0.2,2.3-0.9,4.4C22.2,155.3,21.1,157.6,20.6,159z"/>
					<path class="st65" d="M26.3,158.2c-0.7,0.3-1.3,0.7-1.9,1c-1.3,0.1-2.5,0.1-3.8-0.2c1-2.9,1.9-5.5,2.7-7.6c-0.2,0-0.4-1-0.5-1
						c0.6-0.7,1-0.6,1-1.6c1.7-0.7,3.3-1.6,4.9-2.6c0,0.8-0.6,0.7-0.9,0.9c0.5,0.7,0.8,0.6,1,0.3c0.2,3.5-0.2,7.1-1,11.2
						c-0.2,0.1-0.4,0.1-0.6,0.1C26.9,158.3,26.6,157.9,26.3,158.2z"/>
					<path class="st66" d="M41.7,136.6c1.5,1.5,3.6,3.2,5.7,5.1c-0.4,0.5-1.4,1.3-1.2,2.2c-0.4,0.6-1.1,1.5-1.7,2.3
						c-0.6,0.8-1.1,1.4-0.9,1.9c0.2,0.5,0-0.8-0.5-2.3c-0.5-1.6-1.4-3.4-2.2-4.4c-1.2-0.8-1.9-1.8-2.7-2.6c0.1-0.1,0.9,0.4,1.1,0.3
						c-0.1-0.1-0.9-0.7-0.9-0.7s0.1-0.2,0.2-0.5c0.1-0.3,0.2-0.7,0.3-1c1.4,0,0.5-1,0.1-1l0-0.5l0,0c0.4,0.3,0.9,0.5,1.3,0.8
						C40.6,136.4,41.7,136.6,41.7,136.6z"/>
					<path class="st67" d="M35.6,150c1.4,2.3,1.4,4.4,1.1,6.5c0.5-0.1,1.9-0.6,2-0.7c-0.5-0.4-1.1-0.8-1-1.2c0.5-0.8,1.1-1.7,1.5-2
						c0.7-0.3,1.9-0.2,2.8-0.5c0.4-0.6,0.7-1.3,1-2c0,0-0.4-1-0.7-1.3c0.3-0.3,0.7-0.6,1.2-0.8c-0.1-0.1-0.1-1.4-0.5-2.9
						c-0.4-1.5-1.2-3-2.2-3.8c-1.2-0.8-1.9-1.8-2.7-2.6c0,0-0.2,0.3-0.4,0.6c-0.2,0.3-0.6,0.7-0.8,1c0.2,0.1,0.9,0.3,1,0.2
						c-0.1,0.1-1.1,0.2-1.5,0.2c-0.3,0.3-1.1,1.1-1.1,1.2c-0.1,0.1,0.6,0.4,1.1,0.9c-1.1-0.2-2-0.3-2.8-0.1l-0.4,0.3
						c-0.2-0.2-0.4-0.3-0.3-0.3c0-0.1,0.1-0.2,0.1-0.4c-0.3,0.2-1.5,0.9-1.8,1c0.4,0,0.9,0,1.4,0.1l-0.9,0.6l0,0
						c0.4,1.6,1,3.4,1.7,5.5C34.1,149.7,35.1,149.4,35.6,150z"/>
					<path class="st68" d="M30.5,119.4c-0.1-0.7-0.3-1.1-0.6-1.4l-0.2-0.3c0-0.1,0-0.2,0-0.4c0-0.3-0.1-0.6-0.3-1
						c-0.3-0.8-0.9-1.4-1.6-1.9c-0.7-0.5-1.6-0.8-2.5-1c-0.9-0.3-1.8-0.5-2.7-0.6c-1-0.1-2,0-3.1,0.9c0.3-2,1.5-3.8,2.6-4.9
						c1.1-1,2.2-1.5,3-1.8c0.9-0.3,1.6-0.4,2.3-0.5l0.5,0l0.4,0l0.7,0c1.9,0.1,3.6,0.6,5.1,1.2c3.1,1.3,5.4,3.1,7.3,5.2
						c-1.1,0.1-1.9-0.4-2.8-0.6c-0.9-0.3-1.8-0.3-2.9,0.6c-0.2,0.3,0,0.8,0,1.2c-0.7,0.2-1.5,0.2-2.2,0.4c-0.7,0.2-1.2,0.6-1.4,1.5
						c-0.3,1.1-0.4,2.3-0.9,3.6c-0.1,0-0.1,0-0.1,0C31.1,119,30.7,119.3,30.5,119.4z"/>
					<path class="st69" d="M32.6,121.9c-0.4-0.2-0.7-0.4-1.1-0.5c0.2-0.3,0.3-0.6,0.5-0.9c0.5,0.2,1,0.5,1.5,0.8
						C33.2,121.5,32.9,121.7,32.6,121.9z"/>
					<path class="st69" d="M35.7,114c0-0.4-0.1-0.9,0-1.2c1-0.9,2-0.9,2.9-0.6c0.9,0.3,1.7,0.7,2.8,0.6c1.5,1.7,2.6,3.4,3.5,5.2
						c-0.4-0.2-0.8-0.3-1.3-0.5c0.5,0.9-1.6,2.3-1.2,3.1c-1.8-0.7-3.2-1.6-4.8-1.9c-1.5-0.4-3.2-0.2-4.8,1.2
						c-0.6-0.2-1.1-0.3-1.6-0.4c0.4-1.4,0.6-2.6,0.9-3.6c0.2-0.9,0.7-1.3,1.4-1.5C34.2,114.2,35,114.2,35.7,114z"/>
					<path class="st70" d="M42.4,120.7c-0.4-0.8,1.8-2.2,1.2-3.1c0.4,0.1,0.8,0.3,1.3,0.5c1,2.1,1.7,4.1,2.3,6.1c0,0.1,0,0.3,0,0.4
						c0.1,1.6,0.5,2.8,0.5,4.2c-1.6-0.7-3.2-1.3-4.7-1.8c1.5-2.1,2.6-4.4,2.6-7c0,0.9-1.8,1.4-2,1.9c-1.3,2.1-5,4.2-6.9,4.2
						c-0.9-2-2.1-3.6-3.3-4.5c0.3-0.4,0.7-1,0.7-1.1c-0.5-0.2-0.9-0.3-1.3-0.5c1.6-1.4,3.3-1.6,4.8-1.2
						C39.2,119.2,40.6,120,42.4,120.7z"/>
					<path class="st62" d="M43,127c1.5,0.6,3.1,1.1,4.7,1.8c0,0.4,0,0.8-0.1,1.2c0.3,0,0.6-0.1,0.9-0.3l0.1,0.8
						c-0.1,0.4-1.2,0.8,0.2,1.2c0.1,0.4,0.1,0.8,0.1,1.2c-0.4,0.5-0.9,0.8-1.7,1.1l1.1,0c0.7,0.4,0,0.8,0,1.3c0.2,0,0.5,0,0.7,0.1
						c-0.5,1-0.6,2.2-0.6,3.3c-0.1,1.1-0.1,2.1-0.2,2.3c-0.3,0.3-0.5,0.5-0.8,0.8c-2.1-2-4.2-3.6-5.7-5.1c0,0-1.1-0.1-1.4-0.3
						c-0.4-0.3-0.8-0.6-1.3-0.8c0.9-0.6,0.9-1.6,0.6-2.3c-0.3-0.7-0.9-1.2-0.9-1.2c0-0.2-0.1-0.5-0.1-0.7c0-0.7,0.3-1.6,0.3-2.5
						c0-0.9-0.4-1.8-1.8-2.2l-0.2-0.5c1.8,0,5.5-2.1,6.9-4.2c0.2-0.5,1.6-2.5,2-1.9c0.4,1.3-0.2,3.2-1,4.6C43.8,126,42.9,127,43,127
						z"/>
					<path class="st71" d="M10.2,150.8c-0.2-0.3-0.2-0.7-0.2-1c0-0.3,0.2-0.5,0.4-0.5c-0.1,0-0.1,0.1-0.1,0.1c0,0.1,0,0.2,0,0.3
						c0.1,0.2,0.3,0.4,0.7,0.2c-0.1,0.3,0.2,0.5,0.4,0.7C11,150.8,10.6,150.9,10.2,150.8z"/>
					<path class="st71" d="M14.2,147.4l0.3,0.2c-0.4,0.6-1,1-1,0.6c-0.4,0.6,0.2,0.2,0,0.4c-0.6,0.8-0.7,0.7-0.8,0.5
						c1-1.3,2.1-2.4,2.2-2.4l0.2,0.1C14.8,147.1,14.5,147.2,14.2,147.4z"/>
					<path class="st72" d="M17.5,150.4c0.3,0.5,0.4,1.2,0.8,2c-0.8,1.2-1.7,2.6-2.7,4c-1.6-1.2-2.9-2.5-4-3.9c0.4,0,0.8-0.1,1.1-0.3
						c-0.3-0.2-0.6-0.3-0.7-0.7c0.1-0.1,0.3-0.2,0.5-0.4l0,0c0.1,0.2,0.3,0.3,0.8-0.5c0.2-0.3-0.5,0.1-0.1-0.5
						c0.1,0.5,0.7,0,1.1-0.6l-0.3-0.2c0.3-0.3,0.6-0.3,0.9-0.5c1,0.5,2,0.9,3.2,1C17.8,149.9,17.7,150.1,17.5,150.4z"/>
				</g>
			</g>
		</g>
		<g>
			<g class="st1">
				<g class="st1">
					<path class="st53" d="M214,128.4c-0.1-1.8-0.6-3.9-1.1-5.8c0.4,0.4,0.8,0.7,1.2,1.1C215.2,125.2,214.1,127,214,128.4z"/>
					<path class="st53" d="M213.7,133.1C213.7,133.1,213.7,133.1,213.7,133.1c0.3-1.2,0.4-2.5,0.3-3.9c0,0.1,0,0.2,0.1,0.3
						C214.7,130.8,214.9,132.3,213.7,133.1z"/>
					<path class="st54" d="M195,152.9c3.1-3.3,5.2-6.5,6.4-9.9c0.4-0.3,0.7-0.8,1.1-0.9c0-0.1,0.5-0.3,1.3-0.6
						c0.7-0.3,1.6-0.7,2.1-0.9c-0.1,1.7-0.2,3.7-0.2,5.8c0.7,0.2,2,0.1,2.3,0.7c0.7,2.7-0.1,4.8-1.4,6.8c-0.3,0-2.3,0-4.6-0.2
						C199.6,153.6,197,153.1,195,152.9z"/>
					<path class="st47" d="M186.5,148.2c-1-1.1-1.7-2.6-2-4c-0.2-0.7-0.2-1.4-0.3-1.9c0-0.6,0-1,0-1.4c0.9,0.2,1.8,0.3,2.6,0.3
						c0.8,0.1,1.6,0.1,2.4,0.1c0.4-0.8,1-1.3,1.2-1.9c0.3,0,0.6,0,0.8,0.1c0.4,0.9,1.1,1.6,1.8,2l0.2,0.1l0.3,0.2
						c0.2,0.1,0.4,0.2,0.7,0.3c0.4,0.2,0.9,0.3,1.4,0.4c-0.2,0.4-1.4,1.9-3.2,3.2c-0.5,0.3-1,0.6-1.5,0.9c-0.5,0.3-1,0.5-1.6,0.7
						C188.3,147.7,187.3,147.9,186.5,148.2z"/>
					<path class="st55" d="M193.5,151.8c-1-0.1-1.9-0.2-2.8-0.4c-0.8-0.4-1.5-0.8-2.2-1.3c-0.3-0.3-0.7-0.6-1-0.8
						c-0.3-0.3-0.7-0.7-1-1c0.7-0.3,1.5-0.6,2.1-0.9c0.7-0.3,1.3-0.7,1.9-1c1.2-0.7,2.3-1.4,3.3-2c-0.2-0.1,0.2-1.1,0-1.1
						c0.9-0.3,1.3,0.1,1.7-0.8c1.8,0.3,4,0.1,6.1-0.5c-0.4,0.8-0.9,0.5-1.4,0.5c0.3,0.8,0.7,0.8,1,0.6c-1.2,3.4-3.3,6.6-6.4,9.9
						l-0.8-0.2C194.1,152.2,194,151.7,193.5,151.8z"/>
					<path class="st56" d="M217.8,132.4c1.4,1.9,3.3,3.9,5.3,6.1c-0.5,0.6-1.6,1.5-1.6,2.6c-0.5,0.8-1.4,1.8-2.3,2.7
						c-0.8,0.9-1.6,1.6-1.5,2.2c0.1,0.6,0.2-0.8,0-2.6c-0.2-1.8-0.8-3.9-1.4-5c-1.1-0.9-1.7-2-2.4-3c0.2-0.1,0.9,0.4,1.1,0.3
						c-0.1-0.1-0.9-0.8-0.9-0.8s0.2-0.3,0.3-0.7c0.2-0.4,0.3-0.9,0.4-1.3c1.5-0.1,0.5-1.3,0.2-1.3c0-0.2,0.1-0.5,0.1-0.7l0,0
						c0.4,0.3,0.8,0.7,1.2,1.1C216.8,132.2,217.8,132.4,217.8,132.4z"/>
					<path class="st57" d="M208,147.2c0.7,2.7-0.1,4.8-1.4,6.8c0.7,0,2.5-0.2,2.7-0.2c-0.4-0.5-0.9-1-0.6-1.4
						c0.9-0.7,1.9-1.5,2.6-1.8c1-0.2,2.3,0,3.5-0.2c0.7-0.7,1.3-1.4,1.9-2.1c0,0-0.2-1.1-0.4-1.5c0.5-0.4,1-0.6,1.6-0.8
						c-0.1-0.1,0.3-1.6,0.2-3.3c-0.1-1.7-0.7-3.5-1.6-4.3c-1.1-0.9-1.7-2-2.4-3c0,0-0.1,0.1-0.2,0.2c-0.1,0.1-0.2,0.3-0.4,0.5
						c-0.3,0.4-0.7,0.8-1,1.1c0.2,0.2,0.9,0.3,1,0.3c-0.1,0.1-1.3,0.2-1.6,0.3c-0.4,0.3-1.4,1.1-1.5,1.3c-0.1,0.1,0.6,0.5,1,1
						c-1.2-0.3-2.1-0.5-2.9-0.4c-0.2,0.1-0.4,0.2-0.5,0.2c-0.2-0.2-0.3-0.4-0.2-0.4c0.1-0.1,0.1-0.2,0.2-0.3
						c-0.3,0.1-1.8,0.6-2.2,0.7c0.5,0,1,0.2,1.5,0.3l-1.2,0.5l0,0c-0.1,1.7-0.2,3.7-0.2,5.8C206.4,146.7,207.7,146.6,208,147.2z"/>
					<path class="st58" d="M204.2,111.7c-0.3-0.7-0.8-0.9-1.2-1.2c-0.3-0.1-0.5-0.3-0.8-0.4c-0.3-0.2-0.6-0.4-1-0.7
						c-1.3-1.1-2.6-2.3-3.8-3.7c-1.3-1.3-2.4-2.8-4.1-3.9c2.1-1.3,4.3-2.1,6.5-2.5c2.2-0.3,4.2-0.3,6.1,0.1c3.7,0.7,7,2.2,9.7,4.5
						c-1.2,0.1-2.2-0.3-3.3-0.5c-0.5-0.1-1.1-0.2-1.6,0c-0.5,0.1-1.1,0.4-1.5,0.9c-0.1,0.3,0.2,0.8,0.3,1.2
						c-0.8,0.3-1.8,0.4-2.5,0.7c-0.7,0.3-1.3,0.8-1.3,1.7c-0.1,1.1,0.1,2.3-0.1,3.7l-0.2,0c-0.1-0.3-0.3-0.3-0.4-0.3
						C204.6,111.5,204.4,111.6,204.2,111.7z"/>
					<path class="st59" d="M207.9,114.1c-0.4-0.2-0.9-0.4-1.4-0.5c0.1-0.3,0.2-0.6,0.3-0.9c0.6,0.2,1.3,0.5,1.9,0.7
						C208.5,113.6,208.2,113.8,207.9,114.1z"/>
					<path class="st59" d="M209.4,105.6c-0.1-0.4-0.4-0.9-0.3-1.2c0.5-0.5,1-0.8,1.5-0.9c0.5-0.1,1.1-0.1,1.6,0
						c1.1,0.2,2.1,0.7,3.3,0.5c1.1,0.9,2,1.9,2.8,2.8c0.8,1,1.5,2,2.1,3.1c-0.5-0.2-0.9-0.4-1.4-0.6c0.8,1.1-1.3,2.6-0.8,3.6
						c-1.9-0.9-3.6-1.9-5.4-2.4c-1.8-0.4-3.6-0.1-5.1,1.5c-0.8-0.2-1.5-0.3-2.2-0.3c0.1-1.4,0-2.7,0.1-3.7c0.1-0.9,0.6-1.4,1.3-1.7
						C207.6,106,208.5,105.9,209.4,105.6z"/>
					<path class="st50" d="M218.2,113c-0.5-1,1.5-2.5,0.8-3.6c0.5,0.2,0.9,0.4,1.4,0.6c1.4,2.4,2.4,5,3.1,7.4c0,0.2,0,0.4,0,0.5
						c0.2,2,0.7,3.5,0.6,5.3c-1.6-1-3.2-1.8-4.8-2.6c1.5-2.4,2.4-5.3,2.1-8.4c0.1,1.1-1.6,1.6-1.8,2.2c-0.6,1.2-1.7,2.4-3,3.3
						c-1.3,0.9-2.7,1.4-3.6,1.4c-1.1-2.5-2.6-4.4-4.2-5.4c0.2-0.4,0.6-1.1,0.5-1.2c-0.5-0.2-1.1-0.3-1.6-0.4
						c1.5-1.6,3.3-1.9,5.1-1.5C214.6,111,216.3,112.1,218.2,113z"/>
					<path class="st53" d="M219.4,120.6c1.6,0.8,3.2,1.6,4.8,2.6c0,0.5-0.1,0.9-0.1,1.4c0.3,0,0.6-0.1,0.9-0.3l0.1,1
						c-0.2,0.4-1.2,0.9,0.1,1.4c0,0.5,0.1,1,0.1,1.5c-0.4,0.5-1,0.9-1.8,1.2l1.1,0c0.7,0.5,0,1-0.1,1.5c0.2,0,0.5,0,0.7,0.1
						c-0.5,1.2-0.7,2.6-0.9,3.9c-0.2,1.3-0.3,2.4-0.4,2.7c-0.3,0.3-0.6,0.6-0.9,0.9c-2-2.2-3.9-4.2-5.3-6.1c0,0-1.1-0.2-1.4-0.4
						c-0.4-0.4-0.8-0.7-1.2-1.1c1-0.8,1-2,0.7-2.9c-0.3-0.9-0.8-1.5-0.9-1.6c0-0.3-0.1-0.6-0.1-0.9c0-0.8,0.3-2,0.3-3.1
						c0-1.1-0.5-2.2-1.9-2.7c-0.1-0.2-0.2-0.4-0.2-0.6c0.9,0,2.3-0.5,3.6-1.4c1.3-0.9,2.5-2.1,3-3.3c0.2-0.5,1.3-2.9,1.8-2.2
						c0.6,1.6,0.1,3.9-0.6,5.6C220.2,119.5,219.3,120.6,219.4,120.6z"/>
					<path class="st60" d="M187.8,132.1c0.3-0.2,0.7-0.4,1-0.6c0.3-0.2,0.7-0.3,1-0.4c-0.3,0.2-0.7,0.4-0.9,0.6
						c-0.2,0.3-0.4,0.6-0.2,1c-0.4,0.1-0.6,0.4-0.8,0.7C187.7,132.9,187.7,132.5,187.8,132.1z"/>
					<path class="st60" d="M191.6,135.6c0,0.1-0.1,0.1-0.1,0.2c-0.7-0.2-1.3-0.7-0.8-0.8c-0.6-0.3-0.1,0.2-0.4,0
						c-0.9-0.4-0.8-0.6-0.6-0.7C190.3,134.7,191,135.2,191.6,135.6c0.4,0.2,0.8,0.4,0.8,0.5c0,0,0,0.1,0,0.1
						C192.1,135.9,192,135.8,191.6,135.6z"/>
					<path class="st61" d="M190.4,139.4c-0.2,0.5-0.8,1.1-1.2,1.9c-0.7,0-1.5,0-2.4-0.1c-0.8-0.1-1.7-0.2-2.6-0.3
						c0-1.3,0.2-2.5,0.5-3.6c0.1-0.6,0.4-1.1,0.6-1.6c0.3-0.5,0.5-1,0.8-1.5c0.1,0.4,0.2,0.8,0.5,1.2c0-0.2,0.1-0.4,0.2-0.6
						c0.1-0.2,0.2-0.3,0.4-0.5c0.1,0.1,0.3,0.3,0.5,0.4l0,0c-0.2,0.2-0.2,0.4,0.7,0.7c0.3,0.1-0.3-0.4,0.4-0.2
						c-0.5,0.2,0.2,0.7,0.9,0.8c0-0.1,0-0.3,0.1-0.4c0.4,0.2,0.5,0.4,0.8,0.6c-0.2,1,0.1,2.2,0.5,3.2
						C190.9,139.5,190.7,139.5,190.4,139.4z"/>
				</g>
			</g>
		</g>
		<g>
			<g class="st1">
				<g class="st1">
					<path class="st73" d="M125.1,229.2l-10,2c0.7-0.4,1.4-0.9,2.1-1.3C119.5,228.7,122.3,229.5,125.1,229.2z"/>
					<path class="st73" d="M134.2,227.4C134.2,227.4,134.2,227.4,134.2,227.4c-2.6,0.5-5.2,1-7.7,1.5c0.2-0.1,0.3-0.1,0.5-0.2
						C129.3,227.7,131.7,227,134.2,227.4z"/>
					<path class="st74" d="M127.6,198.7c4.6,0,9,0.9,13.3,1.5c0.6,0.5,1.5,0.9,1.8,1.4c0,0,0.8,0.8,1.7,1.9c0.9,1.1,1.9,2.5,2.6,3.5
						c-2-0.2-4.2-0.2-6.5,0.2c0.2,1,1,2.7,0.4,3.1c-2.5,1.2-5,0.6-7.4-0.1C133.3,209.8,130.4,202,127.6,198.7z"/>
					<path class="st13" d="M122.2,190.1c-1.4-2.4-2.4-6.1-3-7.6c1.8-0.2,3.6-0.3,5.4-0.1c0.1-1.2,0.3-2.1,0.1-3.1
						c0.4,0,0.7,0.1,1,0.1c2.8,3.7,5.8,7.3,8.7,10.9C133.5,190.6,125.3,189.5,122.2,190.1z"/>
					<path class="st75" d="M127.1,196.8c-0.8-0.8-1.5-1.4-2.2-2c-1-1.5-1.9-3-2.7-4.6c3.1-0.6,6.2-0.6,9.1,0
						c-0.2-0.3,0.5-1.1,0.3-1.3c1.4,0.8,1.8,1.8,2.8,1.5c2.7,3.3,5.4,6.7,7.9,10.1c-1.1-0.4-1.3-1.3-1.9-2.1
						c-0.5,0.9-0.1,1.4,0.4,1.9c-4.3-0.6-8.7-1.5-13.3-1.5l-0.5-0.7C127.3,197.5,127.6,197.1,127.1,196.8z"/>
					<path class="st76" d="M130.6,224.1c2.4-2.1,3.7-4.8,4.6-7.7c0.8,0.1,2.4,0.4,3.3-0.4c2-0.3,6.2-0.5,6.7-1.5
						c0.5-1-3.5,4.7-5,7.2c0,1.4-0.8,2.7-1.8,4c-0.4,0-0.2-0.9-0.7-1c0,0.1-0.5,1.2-0.5,1.2s-2.9,0.5-4.3,0.7
						c-0.9-1.3-2.5,0.1-2.5,0.4l-1.2,0.2l0,0c0.5-0.5,0.9-1.1,1.4-1.6C130.8,225.2,130.6,224.1,130.6,224.1z"/>
					<path class="st77" d="M140.9,210.4c-2.5,1.2-5,0.6-7.4-0.1c0.3,0.7,1.1,2.5,1.2,2.7c0.4-0.5,0.7-1.2,1.2-1
						c1,0.8,2.2,1.9,2.7,2.6c0.5,1.1,0.5,2.6,0.8,3.8c0.7,0.6,1.4,1.3,2.1,1.9c0,0,1.1,0,1.5-0.2c0.1,0.2,0.2,0.5,0.3,0.8l3-6.4
						c-0.4,0-0.7,0-1.1-0.1c0,0.2-4.9,4.6-5,7.2c0,1.4-0.8,2.7-1.8,4c0.1,0,3.6-0.5,5.2-0.7c-0.1-0.2-0.8-0.7-1-0.8
						c0.2,0,2,0.5,2.7,0.5c0.7-0.1,2.1-0.3,3-0.5l7.1-1.4l-3.3-6.4c-0.3-0.5-0.5-0.9-0.5-0.9c-0.2-0.3-0.5,0.7-1.1,1
						c0.2-1.7-0.1-3.4-0.6-4.9l-0.6-1c0.2-0.3,0.3-0.4,0.4-0.3c0.2,0.2,0.4,0.3,0.6,0.5c-0.4-0.6-1.9-3.3-2.3-4
						c0.3,0.8,0.5,1.6,0.6,2.5c-0.4-0.7-0.9-1.4-1.3-2.1l-0.1-0.1c-2-0.2-4.2-0.2-6.4,0.2C140.8,208.3,141.5,210,140.9,210.4z"/>
					<path class="st78" d="M79.6,234.7c-1.8-1.2-4.6-1-6.2-2.6c-2.5-3.1-1.9-6.9-3.1-10.6c7.2,0.9,14.3,1.1,21.5,0.7
						c-1.6,1.8-4.7,1.2-5.9,4c0,0.4,0.7,0.7,1,1c-1.7,1.3-4.8,1.9-4.6,3.7c0.1,1.1,0.8,2.2,1.2,3.6l-0.7,0.1
						C82,234.1,80.8,234.6,79.6,234.7z"/>
					<path class="st79" d="M93.2,234.7c-1.7,0.3-3.4,0.6-5.1,0.8c-0.1-0.3-0.1-0.7-0.2-1c2-0.2,4-0.6,5.9-1
						C93.6,234,93.4,234.3,93.2,234.7z"/>
					<path class="st79" d="M86.9,227.1c-0.3-0.3-1-0.6-1-1c1.2-2.7,4.3-2.2,5.9-4c2.8-0.1,5.5-0.4,8.2-0.6l-1.3,1
						c1.5-0.2,2.1,2.3,3.7,2.1c-4.1,3.2-10.1,4.4-13,8.9c-2,0.4-3.9,0.7-5.9,0.9c-0.4-1.4-1.1-2.5-1.2-3.6
						C82.1,229,85.1,228.4,86.9,227.1z"/>
					<path class="st16" d="M102.4,224.7c-1.5,0.2-2.1-2.3-3.7-2.1l1.3-1c3.2-0.3,6.3-0.7,9.5-1.2c0.2,0,0.4,0,0.6,0
						c2.5,0,4.5-0.5,6.8-0.6c-1.3,1.6-2.6,3.3-3.9,4.9c-3.2-1.5-6.5-2.8-10.1-3.3c1.3,0.2,1.2,2,1.8,2.3c2.5,1.7,5,5.5,4.1,7.4
						c-4.8,0.9-9.5,1.8-14.3,2.6c-0.4-0.4-0.9-1.1-1.2-1.1c-1.3,0.3-2.7,0.7-4,0.9C92.3,229.1,98.2,227.9,102.4,224.7z"/>
					<path class="st73" d="M113,224.7c1.4-1.6,2.7-3.2,3.9-4.9c0.6,0,1.2,0,1.8,0c0-0.3-0.1-0.6-0.3-0.9l1.3-0.2
						c0.5,0.1,1.2,1.1,1.7-0.3l1.8-0.3c0.7,0.3,1.3,0.8,1.7,1.5l-0.2-1.1c0.5-0.8,1.2-0.2,1.8-0.3c0-0.2-0.1-0.5-0.1-0.7
						c3,0.4,6.8-1.2,7.5-1.4c0.4,0.1,0.9,0.2,1.3,0.3c-0.9,2.9-2.3,5.6-4.6,7.7c0,0,0.2,1.1-0.1,1.5c-0.5,0.5-0.9,1.1-1.4,1.6
						c-3.6-1.2-7.6,1.4-7.7,1.4l-1.4,0.3c-2.7,0.3-7.2-0.9-10,1.9l-1.1,0.2c0.9-1.9-1.7-5.7-4.1-7.4c-0.7-0.3-2.9-2.1-1.8-2.3
						C106.7,221.2,113.2,224.8,113,224.7z"/>
					<path class="st80" d="M114.5,171.4c-0.4-1-0.9-2-1.3-3c0.7,1,1,2.1,2,2.2c0.1,0.6,0.4,1.1,0.7,1.5
						C115.4,171.9,115,171.7,114.5,171.4z"/>
					<path class="st80" d="M119.9,170.1l0.5,0.8c-0.6,0.4-1.5,0.3-1.6-0.4c-0.6,0.4,0.3,0.5,0.1,0.7c-0.8,0.5-1,0.3-1.2-0.1
						c1.3-0.9,2.9-1.4,3.2-1.1l0.3,0.5C120.8,170.4,120.3,170,119.9,170.1z"/>
					<path class="st81" d="M124.7,179.3c0.2,1,0,1.9-0.1,3.1c-1.7-0.2-3.6-0.1-5.4,0.1c-1-2.7-2.1-5.3-3.2-7.9
						c0.5,0.3,0.9,0.5,1.5,0.7c-0.3-0.5-0.7-1-0.7-1.5c0.2,0,0.4,0,0.7-0.1l0,0c0.1,0.4,0.4,0.7,1.2,0.1c0.3-0.2-0.6-0.3-0.1-0.7
						c0.1,0.7,1,0.8,1.6,0.4l-0.5-0.8c0.4-0.1,0.9,0.3,1.4,0.4c1.5,2.2,3.1,4.3,4.7,6.4C125.4,179.4,125.1,179.4,124.7,179.3z"/>
				</g>
			</g>
		</g>
		<g>
			<g class="st1">
				<g class="st1">
					<path class="st33" d="M96.6,20.5c-2.2-2.1-4.5-4.1-6.8-6.1c0.7,0.2,1.4,0.5,2.1,0.7C94.2,16,95,18.6,96.6,20.5z"/>
					<path class="st33" d="M102.5,26.4C102.5,26.4,102.5,26.4,102.5,26.4c-1.6-1.7-3.3-3.4-5-5c0.1,0.1,0.3,0.2,0.4,0.3
						C99.9,22.8,101.7,24.2,102.5,26.4z"/>
					<path class="st34" d="M100.4,42.4c-4-2.1-7.4-4.7-10.9-7c-0.3-0.7-0.9-1.3-1-1.9c-0.1,0-1-3.9-1.3-6l-0.9-6.8l6.6-0.3l0.1,0
						l-0.1,0.1l-5.6,7c1.7,1,3.6,1.7,5.8,2.3c0.2-0.9,0.3-2.6,1.1-2.7c2.8,0,4.7,1.5,6.5,3.1C100.6,30.8,99.6,38.5,100.4,42.4z"/>
					<path class="st27" d="M100.7,52c0,2.6-1.1,6.1-1.4,7.5c-1.6-0.7-3.3-1.5-4.6-2.5c-0.7,0.9-1.4,1.5-1.7,2.4
						c-0.3-0.2-0.5-0.4-0.8-0.6c-0.5-4.2-1.2-8.4-1.9-12.5C91.3,46.4,97.7,51,100.7,52z"/>
					<path class="st35" d="M99.8,44.3c0.3,1,0.6,1.8,0.9,2.7c0.1,1.7,0.1,3.3,0,5c-3-1-5.7-2.4-7.8-4.2c0,0.3-1,0.6-1,0.9
						c-0.8-1.3-0.7-2.3-1.7-2.4c-0.7-3.8-1.4-7.7-2.1-11.5c0.8,0.7,0.6,1.6,0.7,2.4c0.8-0.5,0.8-1.1,0.5-1.7c3.5,2.3,7,4.9,10.9,7
						l0.1,0.8C100,43.6,99.6,43.8,99.8,44.3z"/>
					<path class="st36" d="M103.5,21.8c2.9,0.6,5.8,0.3,8.7-0.5c0.2,0.6,0.6,1.6,1.3,2.1l6.7,5.4l-9.9,1.5c-0.2,0-0.5,0.1-0.7,0.2
						c-1.8-0.1-5.6-0.7-6.2,0.2c-0.6,0.9,3.9-4,5.8-6.1c0.1-0.9,0.6-1.7,1.3-2.4l-3,6.4c-0.5,0-1,0-1.6-0.1c-0.2-0.3,0.7-0.7,0.5-1
						c-0.1,0.1-1.3,0.3-1.3,0.3s-1.7-2-2.6-3c0.6-1.4-1.3-1.8-1.5-1.7l-0.8-0.8l0,0c0.7,0.1,1.3,0.1,2,0.2
						C102.7,22.6,103.5,21.8,103.5,21.8z"/>
					<path class="st37" d="M94.1,27.1c2.8,0,4.7,1.5,6.5,3.1c0.1-0.7,0.2-2.6,0.2-2.8c-0.6,0.3-1.2,0.8-1.5,0.4
						c-0.3-0.6-0.6-1.3-0.8-1.9l-4.9,6c0.5-0.1,1-0.2,1.4-0.3c1.1,0.1,2.3,0.9,3.4,1.3c0.9-0.3,1.8-0.5,2.7-0.8c0.1,0,0.5-1,0.5-1.5
						c0.6,0,1.2,0.1,1.8,0.3c0-0.2,5.2-3.6,5.8-6.1c0.1-0.9,0.6-1.7,1.3-2.4l-3,6.4c-0.5,0-1,0-1.6-0.1c0,0,0,0,0.1,0.2
						c0.1,0.1,0.3,0.3,0.6,0.7l3.9-8.3c-0.4-0.1-2.6-0.2-3.8-0.3c0.1,0.3,0.6,0.8,0.8,0.9c-0.2,0-1.8-0.8-2.4-1
						c-1-0.1-3.5-0.1-3.7,0c-0.3,0,0.3,0.7,0.3,1.4c-1.3-0.9-2.6-1.6-3.9-1.9l-1.1,0c-0.1-0.3-0.2-0.5-0.1-0.5
						c0.2-0.1,0.4-0.2,0.7-0.2c-0.7,0-3.5-0.1-4.3-0.1c0.8,0.2,1.5,0.4,2.3,0.8c-0.8,0-1.6,0-2.3,0l-0.1,0l0,0.1l-5.6,7
						c1.7,1,3.6,1.7,5.8,2.3C93.3,28.9,93.4,27.2,94.1,27.1z"/>
					<path class="st38" d="M74.4,25.6c-2.1,0.1-3.9,1.9-6.1,1.6c-3.8-0.9-5.8-4.2-9-6.3c5.8-3.5,11.1-7.6,16.2-12
						c-0.1,2.3-2.7,3.6-1.9,6.5c0.2,0.3,0.9,0.1,1.4,0.2c-0.5,2-2.3,4.2-1,5.5c0.8,0.8,2,1.3,3.1,2.2l-0.5,0.4
						C75.7,23.8,75.2,24.8,74.4,25.6z"/>
					<path class="st39" d="M84.3,17.9l-3.2,3.4c-0.3-0.2-0.5-0.4-0.8-0.6c1.3-1.3,2.5-2.6,3.7-4.1C84.1,17.1,84.2,17.5,84.3,17.9z"
						/>
					<path class="st39" d="M74.9,15.6c-0.5-0.1-1.1,0.1-1.4-0.2c-0.8-2.8,1.8-4.2,1.9-6.5c2-1.7,3.9-3.4,5.7-5.1
						c-0.1,0.5-0.2,1-0.3,1.5c1-1,2.9,0.7,4.1-0.4c-1.3,4.8-4.8,9-4.2,14.2c-1.2,1.4-2.4,2.8-3.7,4c-1.2-0.9-2.4-1.4-3.1-2.2
						C72.6,19.8,74.4,17.5,74.9,15.6z"/>
					<path class="st30" d="M84.9,5c-1.1,1-3-0.6-4.1,0.4c0.1-0.5,0.2-1,0.3-1.5L82,3c0.3-0.3,0.7-0.6,1.1-1c0.5-0.4,1-0.8,1.7-1.1
						c0.7-0.4,1.7-0.7,2.8-0.9C88.8-0.1,90,0.1,91,0.5c1,0.4,1.6,0.8,2.2,1.2c0.5,0.4,0.9,0.8,1.2,1l0.8,0.8
						c0.1,0.2,0.2,0.3,0.4,0.5c1.5,1.8,3,3,4.3,4.7c-2,0-4.1,0.1-6,0c-0.1-0.8-0.3-1.6-0.5-2.5c-0.1-0.4-0.2-0.8-0.3-1.2
						c-0.1-0.4-0.2-0.8-0.4-1.2c-0.2-0.4-0.5-0.9-1-1.5C91,1.9,90.3,1.3,89.3,1c-1-0.3-2.1-0.3-3.1-0.1c-1,0.2-1.7,0.5-2.4,0.8
						c0.9-0.5,1.7-0.2,2.1,0.2c0.5,0.4,0.8,0.8,1.3,0.9c1.1,0.2,1.9,1,2.1,1.9c0.2,0.8,0,1.6-0.3,2.4c-0.6,1.5-1.6,2.5-2.3,3.1
						c-0.2-0.1,0,0.1,0.7,0.4c0.4,0.1,0.8,0.2,1.2,0.2c0.4,0,0.7-0.1,0.9-0.2c0.4-0.1,0.4-0.2,0.3,0l-0.3,0.4l-0.6,0.6l-4.5,4.9
						c-0.5-0.1-1.4-0.4-1.5-0.2c-0.8,1-1.5,2-2.3,2.9C80.1,14,83.7,9.8,84.9,5z"/>
					<path class="st33" d="M93.8,8.8c2,0,4,0,6,0c0.3,0.4,0.7,0.9,1,1.4c0.2-0.2,0.4-0.4,0.5-0.8l0.9,0.8c0.2,0.5-0.3,1.6,1.2,1.2
						l1.2,1.2c0.1,0.7,0.1,1.5-0.3,2.2l0.8-0.7c0.9-0.1,0.8,0.8,1.2,1.3c0.1-0.1,0.4-0.3,0.6-0.5c1.2,2.6,4.5,4.7,4.9,5.3
						c0.1,0.4,0.3,0.8,0.4,1.2c-2.9,0.8-5.8,1.1-8.7,0.5c0,0-0.8,0.7-1.2,0.8c-0.7-0.1-1.3-0.1-2-0.2c-0.8-3.4-4.9-4.9-5.1-5l-1-0.9
						c-1.6-1.8-3.1-5.8-6.9-6c-0.3-0.2-0.5-0.4-0.6-0.4c0.7-0.5,1.7-1.6,2.3-3.1c0.3-0.7,0.5-1.5,0.3-2.4c-0.2-0.8-1.1-1.6-2.1-1.9
						c-0.5-0.1-1.8-0.2-2.6-0.2c-0.9-0.1-1.5-0.3-0.8-0.8c0.7-0.4,1.6-0.9,2.9-1.1c1.3-0.2,2.9,0.1,4,0.8c1.1,0.7,1.6,1.4,1.9,2.1
						c0.3,0.6,0.4,1.2,0.6,1.7C93.6,7.2,93.8,8.9,93.8,8.8z"/>
					<path class="st40" d="M97.3,70.6c-0.2,1-0.4,2-0.6,3c0-1.1,0.3-2.2-0.5-2.7c0.3-0.5,0.3-1,0.2-1.6
						C96.8,69.7,97.1,70.1,97.3,70.6z"/>
					<path class="st40" d="M92.1,68.8l0-0.8c0.7,0,1.5,0.5,1.1,1.1c0.7,0,0-0.6,0.3-0.6c1,0,1,0.3,0.9,0.7c-1.6,0-3.2-0.3-3.2-0.8
						l0-0.6C91.5,68.2,91.7,68.7,92.1,68.8z"/>
					<path class="st41" d="M93,59.4c0.3-0.9,1-1.5,1.7-2.4c1.4,1,3,1.7,4.6,2.5c-0.6,2.6-1.1,5.2-1.6,7.8c-0.2-0.5-0.5-0.9-0.9-1.3
						c0,0.5,0,1.1-0.2,1.6c-0.2-0.1-0.4-0.2-0.6-0.3l0,0c0.1-0.4,0.1-0.7-0.9-0.7c-0.4,0,0.4,0.6-0.3,0.6c0.3-0.6-0.4-1.1-1.1-1.1
						l0,0.8c-0.4-0.1-0.6-0.6-0.9-1c-0.1-2.4-0.3-4.8-0.5-7.2C92.5,58.9,92.7,59.1,93,59.4z"/>
				</g>
			</g>
		</g>
		<g>
			<g class="st1">
				<g class="st1">
					<path class="st73" d="M151.1,52.2c-0.4-2.6-0.9-5.1-1.3-7.7c0.4,0.5,0.8,1.1,1.1,1.6C152,47.9,151,50.1,151.1,52.2z"/>
					<path class="st73" d="M164.3,57.1C164.3,57.1,164.3,57.1,164.3,57.1c-1.7,0.3-3.4,0.7-5,1.3c0.1-0.1,0.2-0.1,0.3-0.2
						C161,57.2,162.6,56.4,164.3,57.1z"/>
					<path class="st74" d="M175.3,65.6c-1.3-4.1-1.9-8-2.6-11.9c0.3-0.6,0.3-1.4,0.7-1.7c-0.1-0.1,2.1-2.8,3.3-4.1
						c0.4,1.8,1.1,3.7,2.1,5.7c0.8-0.3,2-1,2.5-0.5c1.7,2.1,1.9,4.4,2.1,6.6C183,59.9,177.3,62.9,175.3,65.6z"/>
					<path class="st13" d="M169.6,70.8c-1.6,1.4-4.5,2.5-5.6,3.1c-0.7-1.6-1.3-3.2-1.7-4.8c-1,0-1.9-0.1-2.6,0.1
						c-0.1-0.3-0.1-0.6-0.2-0.9c2.3-2.7,4.5-5.5,6.7-8.3C166.7,60.9,168.1,68.1,169.6,70.8z"/>
					<path class="st75" d="M173.8,66.1c-0.4,0.7-0.8,1.4-1.1,2c-1,0.9-2,1.9-3.1,2.7c-1.4-2.7-2.3-5.5-2.6-8c-0.2,0.2-1-0.4-1.2-0.2
						c0.3-1.3,1-1.7,0.5-2.6c2-2.6,4.1-5.2,6.3-7.6c0,1-0.7,1.3-1.2,1.8c0.9,0.4,1.2,0,1.5-0.5c0.7,3.9,1.3,7.8,2.6,11.9l-0.5,0.5
						C174.4,65.9,173.9,65.7,173.8,66.1z"/>
					<path class="st76" d="M161.6,53.6c1.6-2.1,2.6-4.6,3.6-7.4c0.7,0.2,2,0.6,2.9,0c1.7-0.1,5.2,0.7,5.8-0.2
						c0.3-0.4-0.7,0.5-1.9,1.8c-1.2,1.3-2.5,3.1-3.2,4.2c-0.1,1.4-0.8,2.6-1.6,3.7c-0.3-0.1-0.1-1-0.4-1.1c0,0.1-0.4,1.2-0.4,1.2
						s-2,0.2-3,0.3c-0.7-1.3-1.7,0-1.7,0.3c-0.3,0.1-0.6,0.1-0.8,0.2l0,0c0.3-0.5,0.5-1.1,0.8-1.6C161.8,54.7,161.6,53.6,161.6,53.6
						z"/>
					<path class="st77" d="M181.3,53c1.7,2.1,1.9,4.4,2.1,6.6c0.5-0.3,1.8-1.2,2-1.2c-0.6-0.3-1.3-0.5-1.2-1c0.3-0.7,0.6-1.4,1-1.9
						l4.9-8l-7.4-0.6c-0.4,0-0.6-0.1-0.9-0.1c-0.9-0.4-1.8-1.5-2.9-2c-0.9,0.1-1.9,0.2-2.7,0.4c-0.1,0-0.6,0.9-0.7,1.4
						c-0.6,0-1.1-0.3-1.6-0.5c0,0.1-1.3,0.9-2.5,2.1c-1.2,1.2-2.4,2.7-2.6,3.9c-0.1,1.4-0.8,2.6-1.6,3.7c0,0,0.6,0,1.4,0
						c0.7,0,1.6,0.1,2.2,0.1c0-0.3-0.5-0.8-0.6-0.9c0.2,0,1.3,0.8,1.7,1.1c0.7,0.1,2.5,0.3,2.7,0.2c0.2,0-0.1-0.7-0.1-1.5
						c0.8,1,1.6,1.8,2.5,2.3c0.2,0.1,0.5,0.1,0.7,0.2c0,0.3,0,0.5-0.1,0.5c-0.2,0-0.3,0.1-0.5,0.1c0.4,0.1,2.1,0.7,2.6,0.9
						l-3.4-11.6c-0.1,0.1-0.1,0.1-0.1,0.1l0.2-0.1l3.4,11.5c-0.4-0.3-0.8-0.7-1.2-1.1l1.3,0.4l-3-10.2l-0.2,0.2l0,0.1
						c0.4,1.8,1.1,3.7,2.1,5.7C179.6,53.3,180.8,52.5,181.3,53z"/>
					<path class="st78" d="M148.1,17.2c1.3-1.4,1.1-3.5,2.8-4.8c3.1-2,6.9-1.5,10.7-2.4c-1.1,5.5-1.5,11-1.5,16.6
						c-1.7-1.2-1-3.6-3.7-4.6c-0.4,0-0.7,0.5-1,0.8c-1.2-1.3-1.7-3.7-3.5-3.5c-1.1,0.1-2.3,0.6-3.7,0.9l0-0.5
						C148.6,19.1,148.2,18.2,148.1,17.2z"/>
					<path class="st79" d="M147.5,27.7l-0.6-3.9c0.3,0,0.7-0.1,1-0.2c0.1,1.5,0.4,3,0.7,4.5C148.3,28.1,147.9,27.9,147.5,27.7z"/>
					<path class="st79" d="M155.4,22.9c0.3-0.3,0.7-0.8,1-0.8c2.7,0.9,2,3.3,3.7,4.6c0,2.1,0.1,4.2,0.2,6.4c-0.3-0.3-0.6-0.7-1-1
						c0.1,1.2-2.4,1.6-2.3,2.8c-2.9-3.2-3.8-7.8-8.2-10.1c-0.3-1.5-0.5-3-0.7-4.5c1.4-0.3,2.6-0.8,3.7-0.9
						C153.7,19.2,154.2,21.5,155.4,22.9z"/>
					<path class="st16" d="M157.1,34.8c-0.1-1.2,2.4-1.6,2.3-2.8c0.3,0.3,0.6,0.7,1,1c0.2,2.4,0.4,4.9,0.6,7.3
						c0,0.2-0.1,0.3-0.1,0.5c-0.1,1.9,0.2,3.4,0.1,5.2c-1.6-1-3.1-2-4.6-3.1c1.7-2.4,3.2-5,3.9-7.7c-0.3,1-2.1,0.9-2.4,1.4
						c-1.8,1.9-5.8,3.8-7.6,3.1c-0.6-3.7-1.2-7.3-1.9-11c0.4-0.3,1.2-0.7,1.1-0.9c-0.3-1-0.5-2-0.7-3.1
						C153.2,27,154.1,31.6,157.1,34.8z"/>
					<path class="st73" d="M156.4,43c1.5,1.1,3,2.1,4.6,3.1c0,0.5-0.1,0.9-0.2,1.4c0.3,0,0.6-0.1,0.9-0.3l0.1,1
						c-0.1,0.4-1.2,0.9,0.2,1.3l0.2,1.4c-0.3,0.5-0.8,0.9-1.4,1.2l-4.4-2.9c0.1,0.1,0.1,0.1,0.2,0.2l-0.3-1c0.3-0.8,1-0.3,1.5-0.4
						c0-0.2-0.1-0.5-0.1-0.7c2.6,0.2,5.8-1.2,6.4-1.3c0.4,0.1,0.7,0.3,1.1,0.4c-0.9,2.8-2,5.3-3.6,7.4c0,0,0.2,1.1,0.1,1.5
						c-0.3,0.5-0.6,1-0.8,1.6c-0.8-0.4-1.6-0.3-2.2-0.2l-4.9,1.2l-0.4-4.7c-0.2-1.9-1.3-3.4-1.3-3.5l-0.2-1.1
						c-0.1-2.1,1.4-5.5-1.3-7.7l-0.1-0.9c1.8,0.7,5.8-1.2,7.6-3.1c0.3-0.5,2.2-2.2,2.4-1.4C160.3,38.1,156.3,43.1,156.4,43z"/>
					<path class="st80" d="M155.9,78.9c-0.7,0.4-1.4,0.9-2.2,1.3c0.6-0.6,1.5-1,1.2-1.9c0.5-0.1,0.8-0.4,1.1-0.7
						C156.1,78,156.1,78.4,155.9,78.9z"/>
					<path class="st80" d="M153.3,74.2l0.5-0.5c0.5,0.5,0.7,1.3,0.1,1.4c0.5,0.5,0.3-0.3,0.6-0.1c0.7,0.7,0.5,0.9,0.2,1
						c-1.2-1.1-2.1-2.5-1.8-2.7l0.3-0.3C153.3,73.4,153.1,73.8,153.3,74.2z"/>
					<path class="st81" d="M159.7,69.3c0.8-0.3,1.6-0.1,2.6-0.1c0.4,1.5,1,3.1,1.7,4.8c-2,1.1-3.9,2.1-5.8,3.3
						c0.1-0.4,0.2-0.9,0.2-1.4c-0.3,0.3-0.6,0.6-1.1,0.7c-0.1-0.2-0.1-0.4-0.3-0.6l0,0c0.3-0.2,0.5-0.4-0.2-1
						c-0.3-0.3-0.1,0.6-0.6,0.1c0.6-0.1,0.4-0.9-0.1-1.4l-0.5,0.5c-0.2-0.4,0-0.8-0.1-1.2c1.4-1.5,2.8-3,4.1-4.6
						C159.6,68.7,159.7,69,159.7,69.3z"/>
				</g>
			</g>
		</g>
		<g>
			<g>
				<g>
					<g>
						<path class="st19" d="M104.3,66.5c-1.1-13.3-1.6-26.5-0.7-39.8c-0.5,0.3-1.1,0.7-1.6,1c5.4-0.7,10.8-1.1,16.3-1
							c0.5,0,2.7-0.6,1.9-1.5c-8.3-9.1-17.4-17.4-27.3-24.7c-0.6-0.4-1.8,0-2.3,0.4c-9.2,9.3-18.7,18.2-28.6,26.8
							c-0.9,0.7,0.3,1.3,1,1.2c4.9-0.6,9.7-0.8,14.6-0.6c-0.3-0.2-0.6-0.5-0.9-0.7c-0.2,13.6,1,27.2,2.2,40.8c0,0.4,0.6,0.5,0.9,0.5
							c7.9,1.1,15.5,0.7,23.3-1.2c1.8-0.4,1.3-2-0.4-1.6c-5.4,1.3-10.9,1.9-16.5,1.6c-2.3-0.1-3.4,0.2-4.6-2
							c-0.9-1.7-0.5-5.8-0.7-7.8c-0.9-10.2-1.5-20.4-1.4-30.6c0-0.5-0.4-0.7-0.9-0.7c-5.1-0.2-10.2,0-15.4,0.6
							c0.3,0.4,0.7,0.8,1,1.2c9.9-8.5,19.4-17.5,28.6-26.8c-0.8,0.1-1.5,0.3-2.3,0.4c9.8,7.2,18.7,15.4,26.9,24.4
							c0.6-0.5,1.2-1,1.9-1.5c-5.7-0.1-11.3,0.3-17,1.1c-0.5,0.1-1.6,0.4-1.6,1c-0.9,13.4-0.5,26.8,0.7,40.3
							C101.5,68.3,104.4,67.7,104.3,66.5z"/>
					</g>
				</g>
			</g>
			<g>
				<g>
					<g>
						<path class="st19" d="M133,11.7c0,13.3,0.6,26.7,0.7,40c0.5-0.3,1.1-0.7,1.6-1c-5.4,0.7-10.8,1.1-16.3,1
							c-0.5,0-2.7,0.6-1.9,1.5c8.3,9.1,17.4,17.4,27.3,24.7c0.6,0.4,1.8,0,2.3-0.4c9.2-9.3,18.7-18.2,28.6-26.8
							c0.9-0.7-0.3-1.3-1-1.2c-4.9,0.6-9.7,0.8-14.6,0.6c0.3,0.2,0.6,0.5,0.9,0.7c0.2-13.6-1-27.2-2.2-40.8c0-0.4-0.6-0.5-0.9-0.5
							c-7.9-1.1-15.5-0.7-23.3,1.2c-1.8,0.4-1.3,2,0.4,1.6c5.4-1.3,10.9-1.9,16.5-1.6c2.3,0.1,3.4-0.2,4.6,2
							c0.9,1.7,0.5,5.8,0.7,7.8c0.9,10.2,1.5,20.4,1.4,30.6c0,0.5,0.4,0.7,0.9,0.7c5.1,0.2,10.2,0,15.4-0.6c-0.3-0.4-0.7-0.8-1-1.2
							c-9.9,8.5-19.4,17.5-28.6,26.8c0.8-0.1,1.5-0.3,2.3-0.4C137,69.1,128,61,119.8,52c-0.6,0.5-1.2,1-1.9,1.5
							c5.7,0.1,11.3-0.3,17-1.1c0.5-0.1,1.6-0.4,1.6-1c0-13.3-0.7-26.7-0.7-40C135.9,10.1,133,10.6,133,11.7z"/>
					</g>
				</g>
			</g>
		</g>
		<g>
			<g>
				<g>
					<g>
						<path class="st19" d="M114.2,165.1c-3.8-0.4-5.1,2.5-6.9,5.5c-4.1,6.6-8.1,13.2-12.2,19.8c-8.1,13.2-16.2,26.4-24.3,39.7
							c-0.3,0.5,0.3,0.8,0.8,0.8c25-1.1,49.9-3.2,74.7-6.2c0.2,0,2-0.5,1.6-1.1c-11.3-19.6-22.6-39.2-33.9-58.9
							c-0.5-0.9-3.3,0-2.9,0.8c11.3,19.6,22.6,39.2,33.9,58.9c0.5-0.4,1.1-0.8,1.6-1.1c-24.6,3-49.3,5.1-74,6.2
							c0.3,0.3,0.5,0.5,0.8,0.8c6.6-10.7,13.2-21.5,19.8-32.2c3.2-5.2,6.4-10.5,9.6-15.7c1.7-2.8,3.4-5.5,5.1-8.3
							c0.6-1,3.8-7.4,4.4-7.3C113.3,166.7,115.8,165.3,114.2,165.1L114.2,165.1z"/>
					</g>
				</g>
			</g>
			<g>
				<g>
					<g>
						<path class="st19" d="M6.4,165.4c71.9,2.1,144-0.8,215.5-8.8c1.5-0.2,2.3-2,0.3-1.8c-71.3,8-143.1,10.9-214.8,8.8
							C6.3,163.6,4.4,165.4,6.4,165.4L6.4,165.4z"/>
					</g>
				</g>
			</g>
			<g>
				<g>
					<g>
						<path class="st19" d="M33.3,110.8c-11.4-4.9-24.4,0.9-29.8,11.7c-3.2,6.2-4.6,14.6-2.3,21.3c2.1,6.3,7.8,10.4,13.8,12.8
							c12.3,4.9,24.2,2.8,29.8-10c5.8-13,4.1-30.6-10.6-36.7c-0.9-0.4-3.5,0.9-2.3,1.4c10.1,4.2,14.3,15,12.9,25.4
							c-0.7,5.2-2.5,10.7-5.6,14.9c-5.3,7.3-14.5,6.4-22,3.5C6.3,151,1.4,142,3.5,130.5c2.3-12.7,14-24.2,27.5-18.3
							C31.9,112.6,34.5,111.3,33.3,110.8L33.3,110.8z"/>
					</g>
				</g>
			</g>
			<g>
				<g>
					<g>
						<path class="st19" d="M214.4,102.3c-11.4-4.9-24.4,0.9-29.8,11.7c-3.2,6.2-4.6,14.6-2.3,21.3c2.1,6.3,7.8,10.4,13.8,12.8
							c12.3,4.9,24.2,2.8,29.8-10c5.8-13,4.1-30.6-10.6-36.7c-0.9-0.4-3.5,0.9-2.3,1.4c10.1,4.2,14.3,15,12.9,25.4
							c-0.7,5.2-2.5,10.7-5.6,14.9c-5.3,7.3-14.5,6.4-22,3.5c-10.8-4.3-15.7-13.2-13.6-24.7c2.3-12.7,14-24.2,27.5-18.3
							C212.9,104.1,215.6,102.8,214.4,102.3L214.4,102.3z"/>
					</g>
				</g>
			</g>
		</g>
	</g>
</g>
</svg>
