<?xml version="1.0" encoding="utf-8"?>
<!-- Generator: Adobe Illustrator 22.0.0, SVG Export Plug-In . SVG Version: 6.00 Build 0)  -->
<svg version="1.1" xmlns="http://www.w3.org/2000/svg" xmlns:xlink="http://www.w3.org/1999/xlink" x="0px" y="0px"
	 viewBox="0 0 67.6 66" style="enable-background:new 0 0 67.6 66;" xml:space="preserve">
<style type="text/css">
	.st0{fill:#FFFEFD;}
	.st1{opacity:0.9;}
	.st2{fill:#CBE5CF;}
	.st3{fill:#DCEDDF;}
	.st4{fill:#E3F1E5;}
	.st5{fill:#E0EFE2;}
	.st6{fill:#D1E8D4;}
	.st7{fill:#D4E9D7;}
	.st8{fill:#BEDEC2;}
	.st9{fill:#C3E1C7;}
	.st10{fill:#C7E2CB;}
	.st11{fill:#EEF6EF;}
	.st12{fill:#EBF5EC;}
	.st13{fill:#FEF9DA;}
	.st14{fill:#FFFDF1;}
	.st15{fill:#FDF5C7;}
	.st16{fill:#FDF2B4;}
	.st17{fill:#FCEFA5;}
	.st18{fill:#FCED95;}
	.st19{fill:#272525;}
	.st20{opacity:0.85;}
	.st21{fill:#D3E6F6;}
	.st22{fill:#C4DEF3;}
	.st23{fill:#ACD0EE;}
	.st24{fill:#E2EFF9;}
	.st25{fill:#B8D7F0;}
	.st26{fill:#9FC9EB;}
	.st27{fill:#EADAEE;}
	.st28{fill:#F7F1F8;}
	.st29{fill:#DFC7E5;}
	.st30{fill:#D5B5DC;}
	.st31{fill:#CDA6D5;}
	.st32{fill:#C497CE;}
	.st33{fill:#D8BBDF;}
	.st34{fill:#E5D1E9;}
	.st35{fill:#E8D6EB;}
	.st36{fill:#DDC3E2;}
	.st37{fill:#DFC6E4;}
	.st38{fill:#CEA9D6;}
	.st39{fill:#D2B0DA;}
	.st40{fill:#F2E9F4;}
	.st41{fill:#F0E4F2;}
	.st42{opacity:0.8;}
	.st43{opacity:0.8;fill:#DC7D5B;}
	.st44{opacity:0.8;fill:#E9AE99;}
	.st45{opacity:0.8;fill:#F0C7B8;}
	.st46{opacity:0.8;fill:#F7E1DA;}
	.st47{fill:#F7E0D8;}
	.st48{fill:#FCF3F0;}
	.st49{fill:#F2D0C4;}
	.st50{fill:#EEC0B0;}
	.st51{fill:#EBB4A0;}
	.st52{fill:#E7A790;}
	.st53{fill:#F0C6B6;}
	.st54{fill:#F5D8CE;}
	.st55{fill:#F6DCD3;}
	.st56{fill:#F1CCBF;}
	.st57{fill:#F2CFC2;}
	.st58{fill:#ECB6A3;}
	.st59{fill:#EDBDAB;}
	.st60{fill:#FAECE7;}
	.st61{fill:#F9E8E2;}
	.st62{fill:#B7E9E6;}
	.st63{fill:#CFF0EE;}
	.st64{fill:#D9F3F2;}
	.st65{fill:#D4F2F0;}
	.st66{fill:#BFECE9;}
	.st67{fill:#C3EDEA;}
	.st68{fill:#A5E4E0;}
	.st69{fill:#ACE6E3;}
	.st70{fill:#B1E7E4;}
	.st71{fill:#E8F8F7;}
	.st72{fill:#E3F6F5;}
	.st73{fill:#FDF3BA;}
	.st74{fill:#FEF7D0;}
	.st75{fill:#FEF8D5;}
	.st76{fill:#FDF4C2;}
	.st77{fill:#FDF5C5;}
	.st78{fill:#FCF0A8;}
	.st79{fill:#FDF1AF;}
	.st80{fill:#FEFBE8;}
	.st81{fill:#FEFAE4;}
	.st82{fill:#C9E1F4;}
	.st83{fill:#DBEAF7;}
	.st84{fill:#DEEDF8;}
	.st85{fill:#CFE4F5;}
	.st86{fill:#D2E5F6;}
	.st87{fill:#BBD8F1;}
	.st88{fill:#C1DCF2;}
	.st89{fill:#EDF5FB;}
	.st90{fill:#EAF3FB;}
	.st91{fill:#C5EDEB;}
	.st92{fill:#91DED9;}
	.st93{fill:#A1E3DF;}
	.st94{fill:#80D8D3;}
</style>
<g id="background">
	<rect x="-312.1" y="-31.7" class="st0" width="1200" height="800"/>
</g>
<g id="colour">
</g>
<g id="object">
	<g>
		<g>
			<g class="st1">
				<g class="st1">
					<path class="st33" d="M29.5,48c-1.6,0.2-3.1,0.4-4.7,0.7c0.3-0.3,0.7-0.7,1-1C26.9,46.7,28.2,47.9,29.5,48z"/>
					<path class="st33" d="M33.8,47.5C33.8,47.5,33.8,47.5,33.8,47.5c-1.2,0.1-2.4,0.2-3.6,0.4c0.1,0,0.2-0.1,0.2-0.1
						C31.5,47.1,32.6,46.7,33.8,47.5z"/>
					<path class="st34" d="M51.9,34.5c-0.7,3.9-1.7,7.2-2.7,10.5c-0.3,0.3-0.6,0.8-0.9,0.8c0,0.1-2.1,0.7-3.1,0.8
						c0.5-1.6,0.8-3.5,1-5.6c-0.5-0.3-1.3-0.6-1.4-1.3c-0.1-2.7,0.6-4.5,1.3-6.2C46.2,33.7,50,35.2,51.9,34.5z"/>
					<path class="st27" d="M56.5,34.4c1.3,0,3.1,1,3.8,1.3c-0.1,1.7-0.3,3.3-0.6,4.7c0.5,0.6,0.9,1.3,1.4,1.6
						c-0.1,0.3-0.1,0.5-0.2,0.8c-2.1,0.6-4.2,1.3-6.2,1.9C54.7,43.7,56.4,37.3,56.5,34.4z"/>
					<path class="st35" d="M52.8,35.1c0.4-0.3,0.8-0.5,1.2-0.8c0.8-0.1,1.6-0.1,2.4,0c-0.1,3-0.5,5.6-1.3,7.7c0.1,0,0.4,1,0.6,1
						c-0.6,0.8-1.1,0.6-1.1,1.6c-1.9,0.6-3.9,1.1-5.8,1.5c0.3-0.8,0.8-0.5,1.2-0.5c-0.3-0.8-0.6-0.8-0.9-0.6c1-3.3,2.1-6.6,2.7-10.5
						l0.4,0C52.5,34.9,52.6,35.4,52.8,35.1z"/>
					<path class="st36" d="M32.2,43.7c1.1-1.8,1.8-4.3,2.2-7c0.4,0.2,1.1,0.7,1.5,0.1c0.9,0,2.9,0.5,3.1-0.5c0.2-1-1.6,4.1-2.4,6.3
						c0,1.4-0.4,2.6-0.9,3.6c-0.2-0.1-0.1-1-0.3-1.1c0,0.1-0.2,1.1-0.2,1.1s-1.4,0.1-2,0.1c-0.4-1.4-1.2-0.2-1.2,0.1l-0.6,0l0,0
						c0.2-0.5,0.5-0.9,0.7-1.4C32.3,44.8,32.2,43.7,32.2,43.7z"/>
					<path class="st37" d="M44.7,39.8c-0.1-2.7,0.6-4.5,1.3-6.2c-0.4-0.1-1.3-0.4-1.4-0.4c0.2,0.6,0.4,1.2,0.2,1.5
						c-0.5,0.4-1.2,0.9-1.6,0.9c-0.5-0.1-1.2-0.9-1.8-1.3c-0.4,0.3-0.9,0.6-1.3,0.9c0,0-0.2,1-0.1,1.5c-0.3,0-0.6-0.1-0.9-0.3
						c0,0.2-2.3,3.8-2.4,6.3c0,1.4-0.4,2.6-0.9,3.6c0,0,0.1,0,0.3,0c0.2,0,0.4,0,0.7,0c0.5,0,1.1,0,1.5,0c0-0.3-0.4-0.8-0.5-0.9
						c0.1,0,0.9,0.8,1.3,0.9c0.5,0,1.7,0,1.8-0.1c0.1,0-0.2-0.7-0.3-1.4c0.7,0.9,1.4,1.5,2.1,1.8l0.5,0c0.1,0.3,0.1,0.5,0.1,0.5
						c-0.1,0.1-0.2,0.2-0.3,0.2c0.3,0,1.8,0.1,2.1,0.2c-0.4-0.2-0.8-0.5-1.2-0.8c0.4,0,0.8,0,1.1,0l0,0c0.5-1.6,0.8-3.5,1-5.6
						C45.6,40.8,44.7,40.5,44.7,39.8z"/>
					<path class="st38" d="M8.3,48.2c-0.8-1.4-2-1.4-2.7-3.2c-1-3.3-0.4-7-0.7-10.8c3.1,1.5,6.4,2.4,9.6,2.8
						c-0.8,1.6-2.2,0.7-2.9,3.3c0,0.4,0.3,0.7,0.4,1.1c-0.9,1.1-2.3,1.4-2.3,3.2c0,1.1,0.2,2.3,0.3,3.7l-0.3,0
						C9.4,47.8,8.9,48.2,8.3,48.2z"/>
					<path class="st39" d="M14.6,49.6l-2.4,0.3c0-0.3,0-0.7-0.1-1c0.9,0,1.9-0.2,2.8-0.3C14.8,48.9,14.7,49.2,14.6,49.6z"/>
					<path class="st39" d="M12,41.4c-0.1-0.4-0.4-0.7-0.4-1.1c0.7-2.6,2.1-1.7,2.9-3.3c1.2,0.2,2.5,0.2,3.8,0.3
						c-0.2,0.3-0.4,0.6-0.6,0.9c0.7,0,0.9,2.5,1.6,2.5c-2,2.7-4.8,3.2-6.4,7.4c-0.9,0.2-1.9,0.3-2.8,0.3c-0.1-1.4-0.3-2.6-0.3-3.7
						C9.8,42.8,11.2,42.5,12,41.4z"/>
					<path class="st30" d="M19.2,40.6c-0.7,0-0.9-2.5-1.6-2.5c0.2-0.3,0.4-0.6,0.6-0.9c1.4,0,2.9,0,4.3-0.1c0.1,0,0.2,0.1,0.3,0.1
						c1.1,0.3,2,0.1,3.1,0.3c-0.6,1.5-1.3,2.9-1.9,4.3c-1.4-1.9-2.9-3.5-4.5-4.5c0.6,0.4,0.5,2.2,0.7,2.5c1.1,2,2.1,6,1.6,7.8
						c-2.2,0.3-4.5,0.7-6.7,1c-0.2-0.5-0.4-1.2-0.5-1.2c-0.6,0.2-1.3,0.4-1.9,0.5C14.4,43.9,17.2,43.3,19.2,40.6z"/>
					<path class="st33" d="M24.1,41.9c0.7-1.4,1.3-2.9,1.9-4.3c0.3,0.1,0.5,0.1,0.8,0.3c0-0.3,0-0.6-0.1-0.9l0.6,0
						c0.2,0.2,0.5,1.3,0.8-0.1l0.8-0.1c0.3,0.4,0.6,0.9,0.8,1.7l-0.1-1.1c0.2-0.7,0.6,0,0.8,0c0-0.2,0-0.5,0-0.7
						c1.3,0.8,3.1-0.3,3.4-0.3c0.2,0.2,0.4,0.3,0.6,0.4c-0.5,2.7-1.1,5.2-2.2,7c0,0,0.1,1.1-0.1,1.4c-0.2,0.5-0.5,0.9-0.7,1.4
						c-1.7-1.7-3.5,0.4-3.6,0.4L27.2,47c-1.3-0.1-3.3-1.8-4.7,0.6L22,47.7c0.5-1.8-0.6-5.9-1.6-7.8c-0.3-0.4-1.2-2.4-0.7-2.5
						C21.3,37.7,24.1,42.1,24.1,41.9z"/>
					<path class="st40" d="M66.1,37.1c0.5,0.1,1,0.2,1.6,0.4c-0.5,0.1-1.1-0.2-1.2,0.7c-0.3-0.2-0.5-0.2-0.8-0.1
						C65.7,37.6,65.9,37.3,66.1,37.1z"/>
					<path class="st40" d="M66.1,42.3l-0.4,0.1c-0.1-0.7,0-1.5,0.4-1.2c-0.1-0.7-0.3,0.1-0.3-0.3c-0.2-0.9,0-1,0.2-0.9
						c0.3,1.6,0.4,3.2,0.2,3.2l-0.3,0.1C65.9,43,66.1,42.7,66.1,42.3z"/>
					<path class="st41" d="M61.1,41.9c-0.5-0.3-0.9-0.9-1.4-1.6c0.3-1.4,0.5-3,0.6-4.7c1.4,0.5,2.7,0.9,4.1,1.2
						c-0.2,0.2-0.4,0.5-0.5,0.9c0.3,0,0.5-0.1,0.8,0.1c0,0.2,0,0.4,0,0.6l0,0c-0.2-0.1-0.4,0-0.2,0.9c0.1,0.4,0.2-0.4,0.3,0.3
						c-0.3-0.3-0.5,0.5-0.4,1.2l0.4-0.1c0,0.4-0.2,0.6-0.3,1c-1.2,0.2-2.4,0.5-3.6,0.8C61,42.4,61.1,42.2,61.1,41.9z"/>
				</g>
			</g>
		</g>
		<g>
			<g class="st1">
				<g class="st1">
					<path class="st33" d="M29.1,57.7c-0.2,0.7-0.4,1.3-0.6,2c-0.2-0.3-0.4-0.6-0.6-0.9C27.4,58,28.7,58.1,29.1,57.7z"/>
					<path class="st33" d="M29.8,56C29.8,56,29.8,56,29.8,56c-0.2,0.5-0.4,1-0.6,1.5c0,0,0-0.1,0-0.1C28.9,56.6,28.8,55.9,29.8,56z"
						/>
					<path class="st34" d="M25.1,42.5c2.8,2.6,5.1,4.9,7.4,7.1c0.1,0.2,0.4,0.7,0.3,0.8c0.1,0.1-0.1,1-0.4,1.4
						c-1.2-1.1-2.6-2.2-4.2-3.5c-0.4,0-0.9,0.1-1.5-0.3c-2.3-1.5-3.5-2.8-4.6-4C22.3,44,25,43.6,25.1,42.5z"/>
					<path class="st27" d="M26.8,40.9c0.5-0.4,2-0.3,2.5-0.4c1.2,1.1,2.3,2.2,3.3,3.1c0.7,0.3,1.4,0.6,1.8,0.6
						c0.2,0.2,0.4,0.4,0.5,0.6c-0.4,0.9-0.6,1.9-0.8,2.9C33.3,47.2,29,42.8,26.8,40.9z"/>
					<path class="st35" d="M26,42.6c0-0.3-0.1-0.6-0.1-0.9c0.3-0.3,0.6-0.6,1-0.8c2.2,1.9,4.1,3.7,5.5,5.1c0-0.1,0.9,0.5,1,0.4
						c0.4,0.6,0.1,0.7,0.9,1.3c-0.2,0.9-0.4,1.8-0.8,2.6c-0.5-0.5-0.1-0.5,0-0.7c-0.8-0.4-0.9-0.3-0.8-0.1c-2.3-2.2-4.6-4.5-7.4-7.1
						l0.1-0.2C25.7,42.6,26.1,42.8,26,42.6z"/>
					<path class="st36" d="M26.2,54.6c-1.2-1.3-3.1-2.9-5.3-4.5c0.3,0,1,0,0.5-0.6c0.3-0.4,1.3-0.8,0.6-1.4
						c-0.7-0.6,2.9,2.8,4.6,4.3c1.2,0.8,2.1,1.5,2.8,2.2c-0.1,0-0.8-0.5-1-0.5c0.1,0.1,0.9,0.7,0.9,0.7s-0.3,0.5-0.5,0.7
						c-1.3-0.6-0.5,0.3-0.3,0.4l-0.1,0.2l0,0c-0.3-0.3-0.7-0.6-1-1C27.1,55.1,26.2,54.6,26.2,54.6z"/>
					<path class="st37" d="M26.7,48c-2.3-1.5-3.5-2.8-4.6-4c-0.2,0.1-0.8,0.2-0.8,0.3c0.6,0.3,1.2,0.6,1.3,0.8
						c0.2,0.4,0.3,0.9,0.2,1.1c-0.3,0.1-1.2-0.1-1.7-0.1c0.1,0.3,0.2,0.6,0.3,1c0,0,0.2,0.2,0.4,0.4c0.2,0.2,0.5,0.4,0.7,0.5
						c-0.1,0.1-0.3,0.2-0.5,0.2c0.2,0.1,2.4,2.9,4.6,4.3c1.2,0.8,2.1,1.5,2.8,2.2c0,0,0.5-0.5,0.8-0.8c-0.2-0.1-0.8-0.3-0.9-0.3
						c0,0,0.9,0.1,1.2,0.1c0.2-0.2,0.5-0.6,0.4-0.7c0-0.1-0.6-0.3-1.3-0.7c1,0.3,1.7,0.4,2.1,0.3l0.2-0.2c0.2,0.1,0.4,0.2,0.4,0.2
						c0,0.1,0.1,0.2,0.1,0.2c0.1-0.1,0.6-0.5,0.8-0.6c-0.3,0-0.6,0-1-0.1c0.1-0.1,0.2-0.3,0.3-0.4c0,0,0,0,0,0
						c-1.2-1.1-2.6-2.2-4.2-3.5C27.8,48.3,27.3,48.4,26.7,48z"/>
					<path class="st38" d="M24.9,65.9c-1.4-0.3-1.6,0.3-3.3-0.2c-3.2-0.9-6.5-2.6-10.1-3.9c2-0.9,3.4-2,4.4-3.3
						c1.3,1.1,0.2,1.3,2.4,2.7c0.3,0.2,0.7,0.2,1.1,0.3c0.8,0.8,0.9,1.6,2.5,2.3c1,0.5,2.1,0.9,3.5,1.4l-0.1,0.1
						C24.7,65.3,24.9,65.7,24.9,65.9z"/>
					<path class="st39" d="M27.3,64l-0.2,1c-0.3-0.1-0.6-0.3-0.9-0.4c0.1-0.4,0.2-0.8,0.2-1.2C26.6,63.6,26.9,63.8,27.3,64z"/>
					<path class="st39" d="M19.3,61.5c-0.4-0.1-0.7-0.1-1.1-0.3c-2.2-1.4-1.1-1.6-2.4-2.7c0.4-0.5,0.8-1,1.1-1.5
						c0.2,0.2,0.4,0.4,0.6,0.7c0.2-0.3,2.4,0.8,2.6,0.5c1.9,2,1.8,3.4,5.3,5.8c0,0.4,0,0.9-0.2,1.2c-1.3-0.6-2.5-0.9-3.5-1.4
						C20.2,63.1,20.1,62.4,19.3,61.5z"/>
					<path class="st30" d="M20.2,58.2c-0.1,0.3-2.4-0.8-2.6-0.5c-0.2-0.2-0.4-0.5-0.6-0.7c0.4-0.6,0.7-1.2,1-1.9
						c0.1,0,0.1,0,0.2-0.1c0.5-0.4,0.6-0.8,1.1-1.1c1.1,1,2.2,2,3.3,2.9c-2-0.4-3.8-0.5-5.1-0.3c0.4-0.1,2,0.8,2.4,0.8
						c2,0.5,5.8,2,7.3,3c-0.2,1-0.4,2-0.5,3c-0.4-0.1-1.2-0.4-1.2-0.3c0.1,0.3,0.1,0.7,0.1,1C22,61.6,22.1,60.2,20.2,58.2z"/>
					<path class="st33" d="M22.5,56.8c-1.1-0.9-2.2-1.9-3.3-2.9c0.1-0.1,0.3-0.1,0.5-0.2c-0.3-0.2-0.6-0.3-0.9-0.4l0.1-0.3
						c0.2,0,1.2,0.4,0.2-0.4l0.2-0.4c0.4,0.1,1,0.2,1.7,0.6L20,52.4c-0.6-0.5,0.1-0.2,0.2-0.4c-0.2-0.1-0.4-0.2-0.6-0.4
						c1.1-0.1,0.7-1.4,0.8-1.5c0.2,0,0.4,0,0.6,0c2.1,1.6,4,3.1,5.3,4.5c0,0,0.9,0.5,1.2,0.8c0.3,0.3,0.7,0.6,1,1
						c-1.9-0.2-0.6,1.5-0.6,1.5l-0.1,0.3c-0.4,0.4-2.4,0.3-0.5,2.1l-0.1,0.2c-1.5-1-5.3-2.5-7.3-3c-0.4,0-2.4-0.6-2.4-0.8
						C18.1,55.9,22.6,56.8,22.5,56.8z"/>
					<path class="st40" d="M32.8,39.9l0.9-0.2c-0.1,0.2-0.6,0.2,0,0.8c-0.3-0.1-0.4,0-0.4,0.1C33.1,40.4,32.9,40.1,32.8,39.9z"/>
					<path class="st40" d="M36.7,43.3l-0.1,0.2c-0.6-0.4-1.1-1-0.7-0.8c-0.6-0.4-0.1,0.1-0.4-0.1c-0.8-0.6-0.8-0.6-0.6-0.7
						c1.3,1,2.5,2,2.5,2.1L37.3,44C37.1,43.8,37,43.6,36.7,43.3z"/>
					<path class="st41" d="M34.4,44.3c-0.4-0.1-1.1-0.4-1.8-0.6c-0.9-1-2.1-2-3.3-3.1c0.9-0.1,1.8-0.2,2.6-0.4
						c0.1,0.2,0.3,0.4,0.5,0.7c0.1-0.1,0.1-0.2,0.4-0.1c0.1,0.1,0.3,0.3,0.5,0.4l0,0c-0.1,0-0.2,0.1,0.6,0.6
						c0.3,0.2-0.2-0.3,0.4,0.1c-0.4-0.1,0.1,0.4,0.7,0.8l0.1-0.2c0.3,0.3,0.4,0.5,0.6,0.7c-0.3,0.5-0.6,1-0.8,1.5
						C34.8,44.7,34.6,44.5,34.4,44.3z"/>
				</g>
			</g>
		</g>
		<g>
			<g class="st1">
				<g class="st1">
					<path class="st33" d="M58.5,22.5c0.1,0.9,0.2,1.8,0.4,2.7c-0.3-0.2-0.6-0.4-0.9-0.6C57.1,23.8,58.4,23.2,58.5,22.5z"/>
					<path class="st33" d="M58.4,20C58.4,20,58.4,20,58.4,20c0,0.7,0.1,1.4,0.1,2.1c0,0,0-0.1-0.1-0.1C57.8,21.3,57.5,20.6,58.4,20z
						"/>
					<path class="st34" d="M47.7,8.6c3.7,0.8,6.9,1.8,10,2.7c0.2,0.2,0.7,0.4,0.7,0.6c0.1,0,0.4,1.2,0.4,1.8
						c-1.5-0.4-3.3-0.8-5.4-1.1c-0.4,0.2-0.7,0.7-1.5,0.7c-2.7-0.2-4.4-0.8-6-1.3C46,11.8,48.1,9.7,47.7,8.6z"/>
					<path class="st27" d="M48.2,5.9c0.2-0.7,1.5-1.6,1.9-2c1.6,0.3,3.1,0.6,4.5,0.9c0.7-0.2,1.5-0.4,1.8-0.6
						c0.3,0.1,0.5,0.1,0.8,0.2c0.2,1.2,0.5,2.5,0.8,3.7C57.1,8,51.1,6.3,48.2,5.9z"/>
					<path class="st35" d="M48.4,8.1c-0.2-0.3-0.4-0.5-0.6-0.8c0.1-0.5,0.2-0.9,0.4-1.4c2.9,0.4,5.5,1,7.4,1.6c0-0.1,1-0.1,1-0.2
						c0.7,0.4,0.4,0.7,1.4,0.8c0.3,1.1,0.6,2.3,0.7,3.4c-0.7-0.3-0.3-0.5-0.3-0.7c-0.9,0.1-0.9,0.3-0.7,0.4c-3.2-0.9-6.3-1.8-10-2.7
						c0-0.1,0-0.2,0-0.2C48.1,8.3,48.6,8.2,48.4,8.1z"/>
					<path class="st36" d="M54.5,20.7c-1.7-0.8-4.1-1.3-6.7-1.8c0.3-0.2,0.8-0.6,0.2-0.9c0.1-0.5,0.7-1.6-0.2-1.8
						c-0.9-0.2,3.9,1.3,6.1,1.9c1.4,0.1,2.5,0.4,3.5,0.8c-0.1,0.1-1,0-1.1,0.1c0.1,0,1.1,0.2,1.1,0.2s-0.1,0.8-0.1,1.1
						c-1.4,0.1-0.3,0.6,0,0.7c0,0.1,0,0.2,0,0.3c0,0,0,0,0,0c-0.5-0.2-0.9-0.3-1.3-0.5C55.6,20.7,54.5,20.7,54.5,20.7z"/>
					<path class="st37" d="M51.8,13.3c-2.7-0.2-4.4-0.8-6-1.3c-0.2,0.2-0.5,0.7-0.6,0.8c0.6,0,1.3-0.1,1.5,0c0.3,0.3,0.7,0.8,0.7,1
						c-0.2,0.3-1.1,0.6-1.5,0.9c0.2,0.3,0.5,0.6,0.7,0.8c0,0,1,0.2,1.4,0.2c0,0.2-0.2,0.4-0.4,0.5c0.2,0,3.5,1.6,6.1,1.9
						c1.4,0.1,2.5,0.4,3.5,0.8c0,0,0.2-0.9,0.3-1.4c-0.3,0-0.9,0.2-0.9,0.2c0-0.1,0.9-0.5,1.1-0.6c0.1-0.3,0.2-1,0.1-1
						c0-0.1-0.7,0.1-1.4,0c1-0.3,1.6-0.6,2-1c0-0.1,0-0.2,0.1-0.3c0.3,0,0.5,0,0.5,0c0.1,0.1,0.1,0.1,0.2,0.2c0.1-0.2,0.3-1,0.4-1.2
						c-0.2,0.2-0.5,0.4-1,0.6c0-0.2,0.1-0.4,0.1-0.6c0,0,0,0,0,0c-1.5-0.4-3.3-0.8-5.4-1.1C52.9,12.8,52.6,13.3,51.8,13.3z"/>
					<path class="st38" d="M58,34.4c-1.4,0.4-1.4,1.1-3.2,1.5c-3.3,0.5-7,0.1-10.8,0.3c1.5-1.8,2.3-3.7,2.8-5.6
						c1.6,0.5,0.7,1.3,3.3,1.8c0.4,0,0.7-0.1,1.1-0.2c1.1,0.5,1.4,1.3,3.2,1.4c1.1,0,2.3-0.1,3.7-0.1c0,0.1,0,0.1,0,0.2
						C57.6,33.8,58,34.1,58,34.4z"/>
					<path class="st39" d="M59.5,30.9c0.1,0.4,0.2,0.9,0.2,1.3c-0.3,0-0.7,0-1,0c0-0.5-0.1-1-0.3-1.6C58.8,30.8,59.1,30.8,59.5,30.9
						z"/>
					<path class="st39" d="M51.2,32.1c-0.4,0.1-0.7,0.2-1.1,0.2c-2.6-0.5-1.7-1.3-3.3-1.8c0.2-0.7,0.3-1.5,0.4-2.2
						c0.3,0.1,0.6,0.3,0.9,0.4c0-0.4,2.5-0.4,2.5-0.8c2.6,1.3,3.1,2.9,7.2,3.9c0.2,0.5,0.3,1.1,0.3,1.6c-1.4,0-2.6,0.1-3.7,0.1
						C52.6,33.5,52.3,32.6,51.2,32.1z"/>
					<path class="st30" d="M50.6,27.9c0,0.4-2.5,0.4-2.5,0.8c-0.3-0.1-0.6-0.3-0.9-0.4c0.1-0.8,0.1-1.7,0.1-2.5
						c0-0.1,0.1-0.1,0.1-0.2c0.3-0.6,0.2-1.2,0.5-1.8c1.4,0.4,2.9,0.9,4.2,1.4c-2,0.7-3.7,1.5-4.7,2.4c0.4-0.3,2.2-0.2,2.5-0.3
						c2-0.5,6.1-0.9,7.9-0.6c0.2,1.3,0.5,2.6,0.8,3.8c-0.5,0.1-1.2,0.2-1.2,0.2c0.2,0.4,0.3,0.7,0.5,1.1
						C53.7,30.8,53.2,29.2,50.6,27.9z"/>
					<path class="st33" d="M52.1,25.2c-1.4-0.5-2.8-0.9-4.2-1.4c0.1-0.2,0.2-0.3,0.3-0.5c-0.3,0-0.6,0-1,0c0-0.1,0-0.2,0-0.3
						c0.2-0.1,1.3-0.2,0-0.5c0-0.2,0-0.3,0-0.5c0.4-0.2,1-0.3,1.8-0.3c-0.4,0-0.7,0-1.1,0c-0.7-0.2,0-0.3,0-0.5c-0.2,0-0.5,0-0.7,0
						c0.9-0.7,0-1.8,0-2c0.2-0.1,0.4-0.2,0.5-0.3c2.6,0.5,5,1,6.7,1.8c0,0,1.1,0,1.4,0.1c0.4,0.2,0.9,0.3,1.3,0.5
						c-1.8,0.8,0.1,2,0.1,2.1c0,0.1,0,0.3,0,0.4c-0.2,0.7-2,1.8,0.4,2.7c0,0.1,0,0.2,0.1,0.3c-1.8-0.4-5.9,0-7.9,0.6
						c-0.4,0.2-2.4,0.6-2.5,0.3C47.8,26.6,52.3,25.2,52.1,25.2z"/>
					<path class="st40" d="M52.7,0.8c0.2-0.3,0.4-0.5,0.7-0.8c0,0.3-0.4,0.6,0.4,0.8c-0.3,0.1-0.3,0.3-0.3,0.4
						C53.1,1.1,52.9,1,52.7,0.8z"/>
					<path class="st40" d="M57.8,1.5c0,0.1,0,0.2,0,0.2c-0.7,0-1.4-0.2-1.1-0.4c-0.7,0,0,0.2-0.4,0.2c-1,0-1-0.1-0.9-0.2
						c1.6,0.1,3.2,0.2,3.2,0.3c0,0.1,0,0.1,0,0.2C58.4,1.7,58.2,1.6,57.8,1.5z"/>
					<path class="st41" d="M56.5,4.2c-0.4,0.2-1.1,0.4-1.8,0.6c-1.3-0.3-2.9-0.6-4.5-0.9c0.7-0.7,1.4-1.4,2-2.1
						c0.2,0.1,0.5,0.3,0.8,0.4c0-0.2,0-0.3,0.3-0.4c0.2,0,0.4,0.1,0.6,0.1c0,0,0,0,0,0C53.7,1.9,53.8,2,54.7,2
						c0.4,0-0.4-0.2,0.4-0.2c-0.4,0.2,0.3,0.3,1.1,0.4c0-0.1,0-0.2,0-0.2c0.4,0.1,0.6,0.2,0.9,0.3c0,0.7,0.1,1.4,0.2,2.1
						C57,4.4,56.7,4.3,56.5,4.2z"/>
				</g>
			</g>
		</g>
		<g>
			<g>
				<g>
					<g>
						<path class="st19" d="M0,13.7c0.2,7,0.4,14,0.6,21c0.1,5-0.6,8,3.9,10.6c3.3,1.9,5.7,2,9.3,2.1c1.3,0,4.8-0.2,5.6,1.1
							c1.3,2.1-2.6,7.7-3.7,9.6c-0.6,1,1,1.1,1.6,0.9c3.2-1,6.2-2.2,9-4.1c4-2.7,6.2-7.2,11.3-7.8c7-0.8,15.4,0.5,22-2.5
							c8.8-4,5.2-19.4,4.1-26.6c-0.8-5.4-0.6-12.4-6.1-15.4c-5.9-3.2-14.5-2.3-20.9-2.1C27.9,0.8,18.7,1.9,10,4
							C3.9,5.4-0.2,6.8,0,13.7c0,1.3,2.9,0.8,2.9-0.3C2.8,9,4.7,7.2,8.9,6c3.4-0.9,6.9-1.5,10.4-1.9c7.5-1,15-1.9,22.5-1.8
							c7.7,0.1,16.4-0.1,18,9.2c0.7,3.8,1.1,7.7,1.6,11.5c0.6,4.4,1.1,9.1,0.5,13.5c-0.4,3-1.1,5.7-4.4,6.9
							c-3.3,1.2-7.7,1.1-11.1,1.4c-4.2,0.4-10.3-0.9-14.1,1.5c-1.8,1.2-3,3.3-4.6,4.8c-3.1,2.9-6.8,4.9-10.9,6.1
							c0.5,0.3,1.1,0.6,1.6,0.9c1.3-2.2,5.4-7.9,3.8-10.7c-1.2-2.1-5.3-2-7.3-2c-1.9-0.1-3.5,0.1-5.3-0.5c-1.4-0.4-3.1-1.1-4.2-2.1
							c-2.2-2-1.8-4-1.8-6.6C3.3,28.7,3.1,21,2.9,13.4C2.9,12.1,0,12.6,0,13.7z"/>
					</g>
				</g>
			</g>
			<g>
				<g>
					<g>
						<path class="st19" d="M18,27.3c-0.4,0.6-2.1,0.4-1.1,0.5c0.2,0,0.3,0,0.5,0c0.5,0,1.1-0.1,1.6-0.2c0.6-0.2,1.9-0.5,1.9-1.3
							c0-0.7-1-1-1.5-1c-1.1-0.1-2.3,0.2-3.2,0.7c-0.6,0.4-1.1,0.9-1.1,1.6c0,0.6,0.3,1.2,0.8,1.5c0.8,0.4,2,0.1,2.8-0.2
							c0.7-0.2,1.6-0.6,1.8-1.4c0.1-0.5-0.9-0.2-1.1-0.2c-0.4,0.1-0.8,0.2-1.1,0.3c-0.2,0.1-0.5,0.2-0.6,0.4c0,0.2-0.1,0.3-0.2,0.4
							c-0.5,0.4,0,0.3,1.3-0.3c-0.1,0-0.1,0-0.2-0.1C18.2,27.9,18,27.6,18,27.3c-0.1-0.4-0.1-0.8,0.1-1c0-0.1,0.1-0.1,0.2-0.2
							c0.3-0.3,0-0.2-1,0.3c-0.2,0-0.1,0,0,0c0.1,0,0.2,0.1,0.2,0.1c0.2,0.1,0.4,0.2,0.4,0.4c0,0.1,0,0.1,0,0.2
							c-0.1,0.1-0.1,0.1,0,0.1c-0.1-0.4,2.1-0.3,1.1-0.4c-0.2,0-0.5-0.1-0.7-0.1c-1,0-2.6,0.3-3.3,1.2c-0.3,0.4,1,0.2,1.1,0.2
							C16.9,27.9,17.7,27.7,18,27.3L18,27.3z"/>
					</g>
				</g>
			</g>
			<g>
				<g>
					<g>
						<path class="st19" d="M30.1,29.4c2.1,0,4.2-0.9,5.5-2.5c0.2-0.3,0.1-0.6-0.2-0.8c-1.7-0.9-5.9,0.3-4.8,2.9
							c1,2.3,5.6,0.9,5-1.6c-0.3-1-3.2-0.3-2.9,0.8c0.1,0.5-0.4,0.6,0.5,0.4c0.9-0.2,0.3-0.1,0.2-0.6c-0.1-0.2,0.1-0.5,0-0.6
							c0,0,0,0,0.1-0.1c-0.2,0.1-0.3,0.1-0.5,0.2c0,0.1-0.2-0.1,0.1,0.1c-0.1-0.3-0.1-0.5-0.2-0.8c-0.4,0.5-1,0.9-1.7,1
							c-0.6,0-1.6,0.2-1.9,0.8C29,29.1,29.6,29.4,30.1,29.4L30.1,29.4z"/>
					</g>
				</g>
			</g>
			<g>
				<g>
					<g>
						<path class="st19" d="M49.5,24.3c-1.6-0.5-3.9,0-4.7,1.6c-0.3,0.6-0.4,1.4,0.1,1.9c0.4,0.5,1.1,0.7,1.7,0.7
							c1.3,0,3.6-0.8,3.2-2.5c-0.1-0.6-0.6-1.1-1.2-1.3c-1-0.4-2-0.2-3,0.3c-0.4,0.2-0.8,0.9-0.2,1.2c0.6,0.3,1.5,0,2-0.3
							c-0.3,0.2-0.6,0.3-1,0.2c-0.1,0-0.1,0,0,0c0,0,0.1,0.1,0.2,0.1c0.1,0.1,0.2,0.3,0.2,0.5c0,0,0,0.3,0,0.2c0.1-0.1,0.1-0.1,0,0
							c-0.1,0.1,0,0,0.1,0c0.2-0.1,0.3-0.2,0.5-0.2c0.1,0,0.2,0,0.3,0c-0.1,0-0.1,0-0.1,0c0,0,0,0-0.1,0c-0.1-0.1-0.1-0.1-0.2-0.3
							c-0.1-0.2,0-0.5,0.1-0.7c0,0,0.1-0.1,0.1-0.1c0.1-0.1,0.1-0.1,0.1-0.1c-0.1,0-0.2,0.1-0.3,0.1c-0.2,0.1,0.1,0,0,0
							c0,0,0.3,0.1,0.4,0.1c0.6,0.2,1.6-0.1,2-0.5C50.3,24.9,50.1,24.4,49.5,24.3L49.5,24.3z"/>
					</g>
				</g>
			</g>
		</g>
	</g>
</g>
</svg>
