<?xml version="1.0" encoding="utf-8"?>
<!-- Generator: Adobe Illustrator 22.0.0, SVG Export Plug-In . SVG Version: 6.00 Build 0)  -->
<svg version="1.1" xmlns="http://www.w3.org/2000/svg" xmlns:xlink="http://www.w3.org/1999/xlink" x="0px" y="0px"
	 viewBox="0 0 194.2 108.8" style="enable-background:new 0 0 194.2 108.8;" xml:space="preserve">
<style type="text/css">
	.st0{fill:#FFFEFD;}
	.st1{opacity:0.9;}
	.st2{fill:#CBE5CF;}
	.st3{fill:#DCEDDF;}
	.st4{fill:#E3F1E5;}
	.st5{fill:#E0EFE2;}
	.st6{fill:#D1E8D4;}
	.st7{fill:#D4E9D7;}
	.st8{fill:#BEDEC2;}
	.st9{fill:#C3E1C7;}
	.st10{fill:#C7E2CB;}
	.st11{fill:#EEF6EF;}
	.st12{fill:#EBF5EC;}
	.st13{fill:#FEF9DA;}
	.st14{fill:#FFFDF1;}
	.st15{fill:#FDF5C7;}
	.st16{fill:#FDF2B4;}
	.st17{fill:#FCEFA5;}
	.st18{fill:#FCED95;}
	.st19{fill:#272525;}
	.st20{opacity:0.85;}
	.st21{fill:#D3E6F6;}
	.st22{fill:#C4DEF3;}
	.st23{fill:#ACD0EE;}
	.st24{fill:#E2EFF9;}
	.st25{fill:#B8D7F0;}
	.st26{fill:#9FC9EB;}
	.st27{fill:#EADAEE;}
	.st28{fill:#F7F1F8;}
	.st29{fill:#DFC7E5;}
	.st30{fill:#D5B5DC;}
	.st31{fill:#CDA6D5;}
	.st32{fill:#C497CE;}
	.st33{fill:#D8BBDF;}
	.st34{fill:#E5D1E9;}
	.st35{fill:#E8D6EB;}
	.st36{fill:#DDC3E2;}
	.st37{fill:#DFC6E4;}
	.st38{fill:#CEA9D6;}
	.st39{fill:#D2B0DA;}
	.st40{fill:#F2E9F4;}
	.st41{fill:#F0E4F2;}
	.st42{opacity:0.8;}
	.st43{opacity:0.8;fill:#DC7D5B;}
	.st44{opacity:0.8;fill:#E9AE99;}
	.st45{opacity:0.8;fill:#F0C7B8;}
	.st46{opacity:0.8;fill:#F7E1DA;}
	.st47{fill:#F7E0D8;}
	.st48{fill:#FCF3F0;}
	.st49{fill:#F2D0C4;}
	.st50{fill:#EEC0B0;}
	.st51{fill:#EBB4A0;}
	.st52{fill:#E7A790;}
	.st53{fill:#F0C6B6;}
	.st54{fill:#F5D8CE;}
	.st55{fill:#F6DCD3;}
	.st56{fill:#F1CCBF;}
	.st57{fill:#F2CFC2;}
	.st58{fill:#ECB6A3;}
	.st59{fill:#EDBDAB;}
	.st60{fill:#FAECE7;}
	.st61{fill:#F9E8E2;}
	.st62{fill:#B7E9E6;}
	.st63{fill:#CFF0EE;}
	.st64{fill:#D9F3F2;}
	.st65{fill:#D4F2F0;}
	.st66{fill:#BFECE9;}
	.st67{fill:#C3EDEA;}
	.st68{fill:#A5E4E0;}
	.st69{fill:#ACE6E3;}
	.st70{fill:#B1E7E4;}
	.st71{fill:#E8F8F7;}
	.st72{fill:#E3F6F5;}
	.st73{fill:#FDF3BA;}
	.st74{fill:#FEF7D0;}
	.st75{fill:#FEF8D5;}
	.st76{fill:#FDF4C2;}
	.st77{fill:#FDF5C5;}
	.st78{fill:#FCF0A8;}
	.st79{fill:#FDF1AF;}
	.st80{fill:#FEFBE8;}
	.st81{fill:#FEFAE4;}
	.st82{fill:#C9E1F4;}
	.st83{fill:#DBEAF7;}
	.st84{fill:#DEEDF8;}
	.st85{fill:#CFE4F5;}
	.st86{fill:#D2E5F6;}
	.st87{fill:#BBD8F1;}
	.st88{fill:#C1DCF2;}
	.st89{fill:#EDF5FB;}
	.st90{fill:#EAF3FB;}
	.st91{fill:#C5EDEB;}
	.st92{fill:#91DED9;}
	.st93{fill:#A1E3DF;}
	.st94{fill:#80D8D3;}
</style>
<g id="background">
	<rect x="-698.8" y="-415.8" class="st0" width="1200" height="800"/>
</g>
<g id="colour">
</g>
<g id="object">
	<g>
		<g>
			<g class="st20">
				<g class="st20">
					<g>
						<path class="st21" d="M145.2,33.3c0.7-0.4,1.5-0.9,2.1-1.2c0.8-0.2,1.6-0.3,2.4-0.4c0.8-0.1,1.6-0.2,2.3-0.2
							c0.4-0.6,1-1.1,1.6-1.7c1.1-0.5,2.4-0.8,3.5-1.1c-1.6-0.3-2.8-0.5-3.9-0.6c-0.6-0.1-1.1-0.1-1.6-0.2c-0.6,0-1.2-0.1-1.8-0.2
							c0.7-0.4,1.3-0.9,2.2-1.2c2.7-0.1,5.5,0.1,8.2,0.6c1.3,0.3,2.8,0.6,4,1c0.4,0.3,0.6,0.6,0.9,0.9c2.2,0.4,4.5,1.1,6.7,1.9
							c0.6,0.4,1.3,0.7,1.9,1.1c0.8,0.8,1.5,1.4,2.4,2.3c0.4-0.2,1.1,0.3,1.8,0.9c0.7,0.6,1.4,1.4,2,1.7c2.9,3.3,3.4,6.1,5.1,6.9
							c0.1,0.5,0.4,1.2,0.8,2.1c0.4,0.9,0.9,1.9,1.3,2.9c1,0.7,1.1,1.3,1,2c0,0.6,0,1.3,1,2.1c-0.2,0.3,0,1.5,0.3,2.7
							c0.3,1.2,0.7,2.5,1.1,3c0.5,3,0.8,6.3,0.9,9.6c0.1,3.3-0.1,6.5-0.6,10c-0.1,0.9-0.4,2.1-0.7,3.4c-0.4,1.3-0.8,2.6-1.6,4.1
							c-1.4,2.9-3.4,5.3-4.9,6.4c-0.2,0.3-0.3,0.5-0.4,0.7c-0.2,0.4,0.2,0.4,0.1,0.9c-0.7,0.6-2.4,2.2-2.3,1.7c-0.4,0-1.1,0.6-1.8,1
							c-0.8,0.6-0.7,0.8-0.7,1.1c-0.7,0.3-1.4,0.6-2,0.8c-0.6,0.3-1.4,0.6-2,0.8c-0.6,0.2-1.2,0.4-1.7,0.6c-0.5,0.2-1.1,0.3-1.6,0.5
							c-2.1,0.6-4,1.2-5.8,1.6c-3.6,0.9-6.4,1.4-9.9,0.9c0,0.9-2.3,0.4-2.4,1.4c-2.4,0.3-4.8,0.7-7.1,1c-3,0.5-6.4,0.5-9.6,0.7
							c-1.4-0.3-2.4,0.1-2.7,0.6c-2.2,0.1-4.4,0.3-6.6,0.4c-1.7-0.3-2.8-0.3-4.8,0.4c-1.5,0-3,0.1-4.4,0.1c-2.6-0.2-4-0.1-3.7,0.5
							l-0.8,0c-1.4,0-2.7,0.1-4.1,0.2c-0.4,0-0.9,0.1-1.3,0.2c-1,0-2.1-0.1-3.1-0.2c-1.2-0.3-1.9,0.4-2.4,0.6c-1.5,0-2.9,0-4.4-0.1
							c-1.9-0.4-2.4,0.2-3.1,0.1l-4-0.1l-4-0.2c-1.3,0.3-2.4,0.2-3.6,0.2c-0.1-0.1-0.2-0.3-0.3-0.4c-0.5,0-0.8-0.1-1.3-0.1
							c-1.5,0.2-2.7,0.2-3.9,0.5c-0.4,0-0.8-0.1-1.3-0.1c-0.2-0.1-0.5-0.2-0.8-0.3c-0.8-0.1-1.7-0.2-2.6-0.3c-0.9,0-1.5,0-2.3-0.1
							c-0.5,0.1-1,0.1-1.6,0.2c-0.2-0.2-0.4-0.4-0.6-0.5c-0.8-0.1-1.5,0-2.3-0.1c-0.8-0.1-1.5-0.2-2.2-0.3c-0.7,0.1-1.4,0.2-2.1,0.3
							c-1.3-0.1-2.2-0.5-2.6-1.2c-0.8,0.1-1.7,0.1-2.5,0.2c-0.4-0.1-0.6-0.1-0.9-0.2c-1.4,0-2.9,0-4.3,0.1c-2.3-0.4-4.4-0.4-6.6-1.3
							c-0.6,0.1-1.1,0.2-1.6,0.3c-0.8-0.2-1.5-0.3-2.3-0.4c-1.4,0.5-4-1.1-5.7-0.7c-1.3-0.4-2.7-0.8-4-1.3c0.3-0.4,0.5-0.7,0.8-1
							c0.4-0.1,0.8-0.2,1.2-0.2c0.7,0.3,1.4,0.6,2.1,0.8c1.1,0.7,1.4-0.2,2.1,0c1.4,0.2,2.7,0.3,4.2,0.5c0.6,0.2,1.1,0.3,1.7,0.5
							c0.6,0.1,1.1,0.3,1.7,0.4c2.6,0.1,5,0.3,7.6,0.4c0.9,0.2,1.7,0.3,2.6,0.5c1.3,0.2,2.7,0.3,4,0.5c-0.3-0.4-0.6-0.8-0.8-1.2
							c1.1-0.4,3.6,0.4,3.1-0.8c2.1,0.1,4.3,0.6,6.4,0.7c2.1,0.1,4.1,0,5.5-0.8c1.8-0.9,2.9-0.9,4-0.9c0.3,0.2,0.6,0.5,1,0.7
							c0.3,0.5,0.6,0.7,0.9,0.9c1.1,0.3,1.4-0.3,2.1-0.5c0.5-0.4,1.2-0.8,1.8-1.3c3.8,0.1,7.6,0.2,11.4,0.2c1.8,0.6,2.6-0.2,3.6-0.5
							c0.5,0,1.2,0,1.7,0c0.9,0.1,1.8,0.1,2.6,0.2c2.3,0.4,1.9-0.4,2.7-0.3c0.3-0.1,0.6-0.2,1-0.2c2.9,0.7,3.3-0.4,4.4-0.2
							c0.5,0.1,1,0.3,1.6,0.4c0.3-0.2,0.6-0.3,0.9-0.4c0.4,0,0.6,0,0.9,0c2.9,0.3,1.6-0.8,3.2-0.7c0.3,0,0.8,0.1,1.2,0.2
							c0.8-0.2,1.5-0.3,2.3-0.5c0.2,0.1,1,0.5,1.4,1c0.2,0,0.3,0,0.5,0c1.7-0.9,5.5-1.2,7.6-1.3c1.5-0.5,4.3-0.3,6.5-0.3
							c1.5-0.9,3.6-0.7,5.2-0.7l4.3-0.2c1.4-0.1,2.9-0.2,4.3-0.2c0.6-0.9,2-0.5,2.3-1c0.9-0.4,3.6-0.5,4.2,0c0.3,0,0.5,0,0.9-0.1
							c1.8-0.9,2-0.5,4.2-1.3c1.8-0.1,3.7-0.3,5.6-0.7c1-0.2,2-0.4,3-0.7c0.5-0.2,1-0.3,1.5-0.5c0.6-0.2,1.1-0.4,1.6-0.7
							c0.9-0.5,0.1-0.7,1-1c1-0.8,1.2-0.8,1.6-0.8c0.3,0.1,0.6,0.2,1.5-0.6c0.2-0.5,0.5-1,0.9-1.5c1-1.2,2.2-2.4,2.2-3.5
							c0.6-0.5,1.1-1.1,1.6-1.9c0.4-0.8,0.8-1.7,1-2.6c0.5-1.8,0.8-3.6,1.4-5.2c0.4-2.7,0.4-5.3,0.2-8c-0.2-2.7-0.6-5.3-1.2-8
							c-0.5-2.2-1.1-5.3-1.4-7.4c-0.1-0.4-0.4-0.9-0.6-1.5c-0.2-0.6-0.4-1.2-0.7-1.8c-0.3-0.6-0.5-1.2-0.8-1.7
							c-0.4-0.1-0.8-0.2-1.1-0.3c-1.1-2-2.5-3.9-4-5.7c-1.6-1.8-3.5-3.5-5.5-4.8c-2.1-0.9-3.7-1.7-5.4-2.4c-1.7-0.7-3.5-1.4-5.9-1.8
							c-1,0.1-1.8,0.3-2.9,0.2c-0.8-0.1-1.6-0.1-2.4-0.1c-3.9,0.4-6.4,1-8.8,1.6c-0.8,0.3-1.7,0.7-2.5,1c-0.8,0.4-1.6,0.8-2.3,1.2
							c-0.3-0.2-0.4-0.3-0.2-0.6c0.2-0.3,0.6-0.6,1.1-1c0.5-0.4,1.2-0.7,2-1C143.8,33.8,144.5,33.5,145.2,33.3z"/>
					</g>
					<g>
						<path class="st22" d="M156.2,33c1.1,0.1,1.9-0.2,2.9-0.2c2.4,0.4,4.2,1.1,5.9,1.8c1.7,0.7,3.3,1.5,5.4,2.4
							c2,1.3,3.9,3,5.5,4.8c1.6,1.8,2.9,3.7,4,5.7c0.3,0.1,0.7,0.2,1.1,0.3c0.3,0.6,0.5,1.2,0.8,1.7c0.3,0.6,0.5,1.2,0.7,1.8
							c0.2,0.5,0.4,1,0.6,1.5c0.3,2.2,0.9,5.2,1.4,7.4c0.6,2.6,1,5.3,1.2,8c0.1,2.7,0.1,5.3-0.2,8c-0.6,1.6-0.8,3.4-1.4,5.2
							c-0.3,0.9-0.6,1.8-1,2.6c-0.4,0.8-1,1.4-1.6,1.9c0,1.1-1.2,2.3-2.2,3.5c-0.4,0.5-0.7,1-0.9,1.5c-0.9,0.7-1.2,0.6-1.5,0.6
							c-0.3-0.1-0.6,0-1.6,0.8c-1,0.4-0.2,0.5-1,1c-0.5,0.2-1,0.5-1.6,0.7c-0.5,0.2-1,0.4-1.5,0.5c-1,0.3-2,0.5-3,0.7
							c-2,0.4-3.8,0.6-5.6,0.7c-2.2,0.8-2.4,0.4-4.2,1.3c-0.4,0-0.6,0-0.9,0.1c-0.7-0.5-3.4-0.3-4.2,0c-0.4,0.5-1.8,0.1-2.3,1
							c-1.4,0.1-2.9,0.2-4.3,0.2l-4.3,0.2c-1.6,0-3.7-0.2-5.2,0.7c-2.1,0-4.9-0.2-6.5,0.3c-2.1,0.1-6,0.4-7.6,1.3
							c-0.2,0-0.3,0-0.5,0c-0.4-0.5-1.2-0.9-1.4-1c-0.8,0.1-1.5,0.3-2.3,0.5c-0.4-0.1-0.8-0.2-1.2-0.2c-1.7-0.1-0.4,1-3.2,0.7
							c-0.3,0-0.5,0-0.9,0c0,0.1-0.1,0.3-0.1,0.4l-0.8,0c-0.6-0.2-1.1-0.3-1.6-0.4c-1.1-0.2-1.4,0.9-4.4,0.2c-0.3-0.3-0.4-0.7-0.6-1
							c0.4-0.3,0.7-0.6,1.2-0.8c2.8,0.1,3.1-0.3,4.8-0.4c1,0.4,2.1,0.1,3,0.2c0.9,0,1.7,0.1,2.5,0.2c5.2-1.1,8.1-1,12.3-1.6
							c2.4,0.3,3.2-0.2,4.4-0.8c-3.1-0.4-2.9,0.3-4.3,0.4c-0.4-0.2-0.7-0.4-1.1-0.6c-3.7,0.8-7.5,0.7-10.3,0.3
							c-1.1,0.3-2.2,0.6-3.3,0.9c-1,0.2-2.1,0.3-3.2,0.5l-2.6-1c-3-0.4-4.5-0.4-5.8-0.7c-1.1,0.2-2.2,0.4-3.2,0.6
							c-1.7-0.1-3.3-0.2-5.1-0.4c0.2-0.5,0.3-1,0.5-1.4c0.7,0,1.4,0.1,2.1,0.1c3,1,3.4,0.1,5.1,0.1c0.2,0.2,0.4,0.3,0.8,0.4
							c0.8-0.1,1.8-0.2,2.6-0.4c1.7,0.3,3.3,0.6,4.9,0.9c1.4-1.2,2.9-1,3.7-1.1c0.8,0.8,2.6-0.3,4-0.3c0.5-0.3,1.9-0.4,2.7-0.7
							c0.6,0,1.2,0,1.8-0.1c0.1,0,0.3,0,0.4,0c-0.1,0.2-0.1,0.4-0.2,0.7c1,0,2,0.1,3,0.1c1.3-0.5,2-0.5,3.1-0.5
							c0.4-0.4,0.7-0.9,1.1-1.3c0.5,0,1.2,0,1.7-0.1c0.4,0.1,0.8,0.2,1.2,0.4c0.9-0.3,1.8-0.6,2.8-0.9c0.3,0,0.5,0.1,0.8,0.1
							l1.3-0.1c0.2,0.4,0.6,0.8,0.9,1.2c1.4-1.2,4.4-0.4,6.2-1.4c2.5,0.3,3.1,0.2,3.8,0c0.3,0.1,0.6,0.2,0.8,0.4
							c-0.3,0.3-0.7,0.6-1.1,0.9c0.1,0.1,0.3,0.2,0.3,0.4c1-0.1,2.1-0.1,3-0.2c-1.5,0.7-2.6,1-3.1,0.4c-0.7,0.1-1.5,0.2-2.2,0.3
							c-4.6,1.1-9.7,0.6-12.8,2.1c1.9,0.3,2.8,0.4,3.4,0c3.6-0.1,7.6-0.6,11.8-1.1c2.1-0.2,4.1-0.4,6.2-0.5c2.1-0.1,4.1-0.1,6.1,0
							c0.8-0.4,1.6-0.7,2.5-1.1c2.2-0.3,4.8-0.7,7.2-1.7c2.6-1,4.8-2.6,6.1-4.3l0,0c0,0,0,0,0,0c0,0.1,0,0.1,0.1,0.1
							c0.1,0,0.3-0.1,0.4-0.2c0.9-0.8,1.1-1.6,1.3-2.2c0.1-0.7,0.1-1.3,0.4-2c0.6-0.7,1.2-1.6,1.7-2.6c0.7-0.1,0.9-0.9,1-1.9
							c0.1-1,0-2.1,0.3-2.9c0.5-1.5,0.9-3.2,1.2-4.6c0.1-1.1,0.1-2.8-0.2-4.3c-0.2-1.5-0.7-2.9-1.4-3.5c-0.1-0.4-0.2-0.7-0.3-1
							c-0.5-3-1.3-6.1-2.5-8.9c0.5,0,1.1,0,1.6,0c0.1-0.8-0.7-2.3-1.1-3.4c-0.2-0.5-0.4-0.9-0.7-1.4c-0.3-0.2-0.5-0.4-0.7-0.4
							c-0.8-1.5-1.8-3-2.9-4.4c-0.9-0.6-1.1,0-2.1-0.8c-0.5-0.6-1-1-1.6-1.6c0-0.7-0.3-1.4-0.4-2c-0.1-0.3-0.4-0.6-0.8-0.9
							c-0.4-0.3-0.9-0.6-1.3-0.9c-1.1-0.1-3.2-1.4-4.8-1.5c-1.1-0.5-2-0.9-3.1-1.2c-0.2-0.2-0.6-0.4-1.1-0.6
							c-0.5-0.1-1.1-0.2-1.5-0.4c-1.4-1-2.8-1-2.9-1.4C156.6,33.2,156.4,33.1,156.2,33z"/>
					</g>
					<g>
						<path class="st21" d="M165.4,36.7c1.6,0.2,3.6,1.5,4.8,1.5c0.3,0.3,0.8,0.6,1.3,0.9c0.4,0.3,0.7,0.6,0.8,0.9
							c0.1,0.7,0.4,1.3,0.4,2C170.5,40,168.1,38.2,165.4,36.7z"/>
					</g>
					<g>
						<path class="st21" d="M179.2,49c0.2,0.1,0.4,0.3,0.7,0.4c0.2,0.5,0.4,0.9,0.7,1.4c0.4,1.1,1.2,2.6,1.1,3.4c-0.5,0-1.1,0-1.6,0
							c-0.5-1.7-1.2-3.3-2.1-5c-1.1-1.9-2.4-3.8-3.9-5.4c1,0.8,1.2,0.2,2.1,0.8C177.4,46,178.3,47.5,179.2,49z"/>
					</g>
					<g>
						<path class="st21" d="M178.7,63.1c0.8,0.6,0.9,1.6,1,2.6c0.1,1,0,2.1,0.4,2.9c-0.2,0.4-0.4,0.8-0.7,1.1
							c-0.3-0.1-0.5-0.2-0.8-0.3c-0.3-1-0.5-1.9-0.8-2.8c0.2-1.2,0.4-2.4,0.6-3.6C178.5,63.1,178.6,63.1,178.7,63.1z"/>
					</g>
					<g>
						<path class="st21" d="M171.2,83c-0.3,0-0.6,0.1-0.9,0.1c-0.1-0.2-0.2-0.4-0.3-0.5c0-0.6,0.2-0.9,0.5-1.1
							c0.3-0.2,0.6-0.5,0.8-0.8c0.2,0.4,0.8,0.6,0.6,1.2c-0.1,0.2-0.2,0.4-0.3,0.6C171.5,82.6,171.3,82.8,171.2,83z"/>
					</g>
					<g>
						<path class="st23" d="M176.2,83.6c-0.6,0.4-1.1,0.7-1.7,1c-0.1,0.1-0.2,0.1-0.2,0.2c-0.7,0.5-0.9,1.2-1.6,1.7
							c-0.5,0.6-1.1,1.1-1.7,1.6c0,0.3-0.2,0.6-0.2,1c-0.9,0.2-1.7,0.4-2.5,0.6c-0.3-0.3-0.6-0.6-0.8-0.9c-1.7,0.1-2.8,0.3-3.6,0.6
							c-0.8,0.3-1.4,0.6-2.2,0.8c-0.3,0-0.5,0-0.9,0.1c-1.2,0-2.5,0-3.8,0.1c-0.5,0.1-1.2,0.2-1.7,0.3c-0.9,0.1-1.7,0.3-2.6,0.4
							c-0.3,0-0.5,0-0.8,0c-0.9,0.1-1.8,0.1-2.6,0.2c-0.4,0-0.6,0-0.9,0c-1,0.1-2,0.3-3,0.4c-0.4,0-0.6,0-0.9,0.1
							c-1.6,0.2-3.2,0.4-4.8,0.7c-0.3,0.1-0.6,0.1-0.8,0.2l-1.3,0.1c-0.3,0-0.5-0.1-0.8-0.1c-1.8-0.2-4-0.4-4,0.6
							c-0.5,0-1.2,0-1.7,0.1c-0.8,0-1.7-0.1-2.5-0.1c-1.4,0.7-3.2,0.8-4.5,1.2c-0.1,0-0.3,0-0.4,0c-0.6,0-1.2,0-1.8,0.1
							c-0.7-0.1-1.3-0.3-2-0.6c-0.8,0-1.7,0-2.5,0c-0.7,0.7-3,1-2.6,0c-1.6,0.6-2.7,0.4-3.5,0.2c-0.5,0-1.2,0.1-1.7,0.2
							c-0.8,0.8-2.1,0.5-2.8,0.8c-1.2,0-2.2,0-3.4,0c-0.5-0.2-1.1-0.3-1.5-0.5c-0.8,0.7-2.7,0.7-2.7,0.4c-0.3-0.4-0.5-0.7,0.1-0.4
							c-1.9,0-3.1-0.2-3.1,0.3c-1.3,0.1-2.6,0.2-3.9,0.2c-0.8-0.1-1.6-0.2-2.5-0.3c-0.1,0.2-0.1,0.4-0.2,0.6
							c-0.8-0.1-1.7-0.1-2.5-0.2c-1.3-0.2-2.5-0.3-3.8-0.5L83,95.6c-1.5-0.1-3.1-0.3-4.6-0.4c-1,0.7-2.3,0.3-3.2,0.3
							c-0.5-0.5-0.6-1.2-2.9-0.6c-0.8,0-1.7-0.1-2.5-0.1c-1.7-0.2-3.4-0.5-5-0.7c-0.8,0.5-2.6,0.1-3.7,0.5c-1.1-0.3-2.1-0.7-3.1-1
							c-1.9-0.3-3.4-0.4-4.8-0.4c-1.5-0.1-2.9-0.2-4.7-0.4c-1.6-0.6-2.7-0.7-2.2-0.9c1.4-0.6,2.8-0.1,3.4-0.5c1,0.1,2,0.3,3,0.5
							c0.8-0.7,3.6,0.8,3.8-0.5c0.8,0.3,1.6,0.6,2.3,0.9c1.8,0.1,3.8,0.3,5.9,0.4c1.1,0.1,2.1,0.1,3.2,0.1c1.1,0,2.1,0,3.1-0.1
							c0.9,0.2,1.8,0.4,2.8,0.6c0.6,0,1.3,0.3,1.7,0c1.3-0.1,4.3-0.1,5.3,0.9l0.8,0.1c1.8-0.5,2.7-0.3,3.3-0.6
							c-0.2-0.7,1.5-0.4,2.3-0.5c1.5-0.1,0.9,0.4,2.2,1c1.5-0.8,3.6-0.6,4.3-1.2c4.5,1,8.9-0.3,13.7-0.1c0.3,0.2,0.7,0.4,1,0.8
							c0.8-0.2,1.5-0.4,2.3-0.6c0.6-0.2,1.3-0.4,1.9-0.6c3.6,1.3,4.9-2,7.7-0.3c0.6-0.1,1.3,0.1,1.7-0.3c-0.3-0.7,0.9-0.6,1.8-0.7
							c-0.1,0.3-0.4,0.9,0.7,0.8c1.6,0.3,2.7-0.9,3.6-1.1c1.2-0.1,2.6-0.1,3.8-0.2c3.4-0.1,6.8-0.2,10.1-0.3c0.5-0.1,1.1,0,1.4-0.3
							c-0.4-0.7,0.9-0.7,1.8-0.8c-0.2,0.2,0.1,0.3,0.3,0.4c1.6-0.3,2.1-0.7,3.9-0.7c-0.1,0.6,1,0.3,1,0.8c2.5-0.7,5.2-1,7.9-1.2
							c2.7-0.3,5.4-0.5,7.8-1.3c-1.6-0.2-3.5-0.3-5.5-0.2c-2,0.1-4,0.3-5.5,0.7c-1.5,0.3-0.8-0.3-2-0.3c-3.2,1-7.4,0.5-10.8,1.2
							c-3.1,0.5-8,0.6-10.4,1.3c-0.8-0.1-1.6-0.2-2.5-0.3c-0.2-0.4-0.3-0.8-0.5-1.2c1.2-0.2,2.3-0.4,3.5-0.6
							c0.6-0.8,2.6-0.4,3.9-0.6l4.3-0.2c0.8-0.3,1.4-0.8,2.3-1c1.4,0.1,2.8,0.1,4.2,0.2c2.2-0.4,4.6-0.6,6.9-0.8
							c2.3-0.2,4.7-0.3,6.8-0.7c3.1-0.2,4.5-0.7,5.7-1.2c0.4-0.1,0.7-0.2,1-0.2c0.3-0.1,0.6-0.1,0.9-0.2c0.6-0.2,1.2-0.4,1.8-0.7
							c0.1,0.2,0.2,0.4,0.3,0.5c-0.3,0.5-0.7,0.9-1.1,1.3c-0.1,1.1,1.5-0.1,2.2-0.5c0.1,0,0.2-0.1,0.2-0.2c0.5-0.2,0.8-0.4,1-0.5
							c1-0.7,1.3-1.2,1.6-1.6c0.5-0.5,0.9-1.1,1.3-1.7c0.3,0.1,0.6,0.3,1,0.4c0.3,0.3,0.7,0.6,0.9,0.9
							C177.1,82.1,176.6,82.8,176.2,83.6z"/>
					</g>
					<g>
						<path class="st21" d="M142.8,86.3c-0.9,0.1-1.6,0.6-2.3,1l-4.3,0.2c0.5-0.5,0.9-1,1.3-1.5c1.6-0.2,3.1-0.3,4.7-0.5
							C142.4,85.7,142.6,86,142.8,86.3z"/>
					</g>
					<g>
						<path class="st24" d="M76.6,108c-3.3,0.2-5,1.1-7.5,0.2c-0.8-0.1-1.8-0.1-2.8-0.1c-1.2,0.2-2.7,0-4.2-0.2
							c-1.6-0.3-3.2-0.6-4.6-1c-0.8,0.9-2.3,0.8-3.8,0.6c-1.5-0.2-3-0.5-4.1-0.3c-2.3-0.5-3.4-1.5-5.8-2c-2.3,0.5-5.3-0.6-6,0.7
							c-1.1-0.3-2.1-0.6-3-1c-1.6,0.4-3.6-0.5-5.5-1.1c-1-0.1-2-0.1-3-0.3c-2-1.1-3.7-1.7-5.4-2.3c-1.7-0.7-3.4-1.4-5.4-3
							c-0.4-0.2-0.9-0.5-1.4-0.8c-0.5-0.3-1-0.7-1.5-1c-0.9-0.7-1.8-1.2-2.3-0.9c-1.4-1.5-2.4-2.8-3.4-3.9c-1-1.2-2-2.3-3.1-3.8
							c0,0.6,0.1,1.2,0.4,1.9c0.2,0.7,0.6,1.5,0.9,2.1c0.6,1.4,1.2,2.4,0.5,2.7c-0.9-0.5-1.7-1.4-2.3-2.4c-0.6-1-1.2-2.1-1.6-3.2
							C1.4,88,1,87,0.7,86.2c-0.4-0.8-0.8-1.3-1.4-1.5c-0.4-1.4-1.1-3.8-0.7-3.9C-1.6,79-1.3,78-1,76.9c0.3-1,0.7-2.1,0.9-3.6
							c0.1-1.1,0.4-3,1-2.2c0.4,0.6,0.8,1.3,1.2,2c0,0.9,0.2,1.8,0.3,2.7c-0.1,0.9-0.2,1.7-0.3,2.6c0.5,1.1,1.1,2.9,1.7,3.2
							c0.2,1.1,0.3,1.8,0.6,2.5c0.3,0.7,0.7,1.3,1.6,2.1c0.4,0.5,0.9,1,1.4,1.4c0.5,0.5,0.9,0.9,1.4,1.3c1.7,2.5,3.7,4.5,5.9,6.3
							c2.1,1.7,4.4,3.1,6.7,4.2c1.6,0.2,4,1.5,5.9,1.7c0.3,0.2,0.8,0.4,1.2,0.7c1,0.2,2,0.5,3,0.7c1.3,0.4,2.7,0.9,4,1.3
							c1.7-0.4,4.3,1.2,5.7,0.7c0.8,0.1,1.4,0.2,2.3,0.4c0.5-0.1,1.1-0.2,1.6-0.3c2.2,0.9,4.3,0.9,6.6,1.3c1.4,0,2.9,0,4.3-0.1
							c0.3,0.1,0.5,0.1,0.9,0.2c0.8,0,1.6-0.1,2.5-0.2c0.4,0.8,1.3,1.2,2.6,1.2c0.7-0.1,1.4-0.2,2.1-0.3c0.7,0.1,1.4,0.2,2.2,0.3
							c0.8,0,1.4,0,2.3,0.1c0.2,0.2,0.4,0.3,0.6,0.5c0.5-0.1,1-0.2,1.6-0.2c0.8,0,1.4,0,2.3,0.1c0.8,0.1,1.7,0.2,2.6,0.3
							C76.1,107.9,76.3,107.9,76.6,108z"/>
					</g>
					<g>
						<path class="st23" d="M44.3,93.3c0,0-0.1,0.1-0.1,0.2c-0.5-0.1-1.2-0.2-1.7-0.3c-0.9-0.3-1.9-0.5-2.9-0.8
							c-0.7-0.2-1.4-0.4-2-0.6c-0.7,0.7-2.4-0.6-3.9-0.6c-0.1,0.2-0.2,0.3-0.4,0.5c-0.2,0.1-0.4,0.1-0.7,0.2
							c0.1-0.1,0.1-0.1,0.1-0.2l-2.2-1.5c-0.6-0.3-1.2-0.5-1.8-0.8c-0.8-0.2-1.1,0.3-1.6,0.1c-0.3-0.2-0.6-0.4-1-0.6
							c-0.3,0.3-0.6,0.6-0.9,0.9c-0.8-0.1-1.4,0-1.8-0.5c-2.5-1.9-1.3-0.1-2.1,0c0,0.2-0.1,0.4-0.2,0.6c1.5,1,3,1.7,4.3,2.1
							c1.3,0.5,2.5,0.8,3.6,1c0.3,0.3,0.7,0.5,1.1,0.7c0.8,0.3,1.7,0.5,2.5,0.7c0.4-0.1,0.7-0.1,1.1-0.2c1.3,0.4,2.4,0.8,3.6,1.2
							c1.2,0.6,2.5,1.1,3.8,1.7c-0.5,0.2-1.1,0.3-1.7,0.4c-0.7-0.3-1.3-0.2-2.3-0.2c-3.4-0.3-6-2-8.1-1.7c-1.5-1.1-3.3-1.5-5.1-2.1
							c-1.7-0.6-3.4-1.5-4.2-3.3c-1.3-0.4-2.6-0.8-3.8-1.4c0.1,0.5,0.1,0.9,0.1,1.4c-0.4,0.2-0.8,0.3-1.4,0.6c1.2,1.5,2.4,2.8,3.9,4
							c-0.6-0.1-1-0.3-1.5-0.5c-0.4-0.2-0.8-0.4-1.1-0.6c-0.7-0.4-1.1-0.9-1.6-1.1c-0.3-0.3-0.6-0.6-0.8-0.8
							c-1.2-0.8-2.5-1.8-3.5-2.9c-0.1-0.1-0.2-0.3-0.3-0.4c-0.8-1.6-1.4-3.1-1.8-4.7c0-0.1-0.1-0.3-0.1-0.4c-1.4-1-1.6-2.7-2-4.4
							c-0.3-1.4-0.5-2.7-0.6-4.1c-0.1-0.2-0.2-0.5-0.2-0.6c-0.3,0.2-0.7,0.4-1,0.7c-0.4,0.3,0.2,2.3-0.5,1.9
							c-0.2-0.1-0.4-0.1-0.6-0.2c-0.2-0.3-0.3-0.5-0.5-0.7c-0.1-0.9-0.3-1.9-0.3-2.7c0.2-1.4,0.7-0.6,1-0.7C3.6,72,3.4,70.8,3.4,70
							c1.3-3.1,0.4-3.7,0.8-6.5c0.6-0.8,1.2-1.6,1.8-2.4c0.2,0.7,0.5,1.4,0.7,2.2c0.4,0.2,0.8,0.4,1.2,0.6c-0.1,0.7-0.2,1.5-0.3,2.2
							L9,67.6c-0.1,1-0.3,2.1-0.4,3.1c0.1,0.3,0.1,0.6,0.2,1c0,0.3-0.1,0.5-0.2,0.8c-0.2,2,0.5,2.7,1.7,3.6c0.4,0.4,0.5,0.9,0.6,1.5
							c0.2,0.6,0.3,1.2,0.8,1.7c0.3,0,0.6,0,0.9,0.1c0.5-0.1,1-0.2,1.4-0.3c-0.2-0.6-0.3-1.1-0.3-1.7c0.2-0.3,0.4-0.7,0.7-1.1
							c0.2-0.5,0.1-1.7-0.2-2.8c0-0.1,0-0.3,0-0.3c0.6-0.3,1.2-0.5,1.8-0.8c0-0.8,0.7,0.3,1-0.5c0-0.9,0-1.8,0.1-2.7
							c0.3,0.5,0.5,1,0.8,1.4c0.2,0.4,0.5,0.7,0.8,1c0.3-0.7,0.6-1.3,0.9-1.9c0.8,1,0.6,2.2,1.2,2.7c-0.1,0.9-0.1,1.9-0.1,2.8
							c-0.5,0-0.9,0-1.5-0.1c0,0.5,0.1,1,0.2,1.6c1.4,0.9,1.5,2.1,2.1,3.3c-0.4,0-0.7-0.1-1.2-0.2c0.1,0.3,0.2,0.5,0.3,0.7
							c0.1,0.2,0.2,0.4,0.3,0.5c0.2,0.3,0.4,0.5,0.6,0.7c0.4,0.4,0.7,0.8,1,1.5c0.4,0.3,0.7,0.5,1,0.6c0.3,0.1,0.4,0.1,0.6,0.1
							c0.3,0,0.5-0.1,1,0.1c-0.2-0.3-0.4-0.6-0.6-0.8c-0.2-0.2-0.4-0.4-0.5-0.6c-0.2-0.2-0.3-0.3-0.5-0.4c-0.2-0.1-0.3-0.2-0.4-0.4
							c-0.3-0.2-0.5-0.4-0.7-0.6c-0.2-0.2-0.3-0.5-0.2-0.9c0.5-0.2,1.1-0.3,1.6-0.5c0.3,0.1,0.4,0.3,0.7,0.4
							c1.1,0.8,2.3,1.5,3.9,2.1c1.7,0.5,3.7,1.9,6.4,2.2c0.6,0.1,1.3,0.2,1.9,0.3c2.2,1.2,3.5,1,4.7,1.1l0.7,0.2
							c-0.2,0.3-0.4,0.7-0.7,1.1c-2.6-0.1-3.7,0.4-5,0c-0.4-0.2-1-0.4-1.4-0.5c-0.4,0-0.8,0-1.3,0c-0.5-0.3-1-0.6-1.5-0.9
							c-1.1-0.7-1.7,0.2-2.5-0.1c-0.8-0.6-1.7-1.1-2.3-1.7c-0.8-0.7-0.8,0.4-1.7,0.3c0.4,0.3,0.8,0.7,1.3,1c0.7,0.9,1.7,0.4,2.5,0.8
							c0.4,0.4,0.8,0.9,1.2,1.3c1.3,1.1,1.4-0.3,2.6,0.3c1.2,0.9,1.9,1.1,2.5,1.1c0.5,0,1-0.1,1.7,0.2c1.5,1.2,2.1,0.6,3,1.1
							c0,0.1,0.1,0.3,0.2,0.5c0.6,0.3,1.2,0.6,1.8,0.9c1.1,0.3,2.1,0.6,3.2,0.9C44.6,92.6,44.5,93,44.3,93.3z"/>
					</g>
					<g>
						<path class="st21" d="M11.6,79.3c-0.5-0.5-0.6-1.1-0.8-1.7c-0.1-0.6-0.2-1.1-0.6-1.5c0.1-1.2,0.3-2.3,0.4-3.5
							c0.4,0.5,0.7,0.8,1.1,1.2c0.3,0.5,0.4,1.8,1,1.4c0.2,0.7,0.5,1.5,0.9,2.1c0.1,0.6,0.2,1.1,0.3,1.7c-0.5,0.1-0.9,0.2-1.4,0.3
							C12.2,79.3,11.9,79.3,11.6,79.3z"/>
					</g>
					<g>
						<path class="st25" d="M8.6,72.4c0.1-0.3,0.2-0.5,0.2-0.8c0-0.4-0.1-0.7-0.2-1c0.1-1,0.3-2.1,0.4-3.1l-1.3-1.4
							c0.1-0.7,0.2-1.5,0.3-2.2c-0.4-0.2-0.8-0.4-1.2-0.6c-0.2-0.8-0.5-1.5-0.7-2.2c0.2-0.4,0.4-0.7,0.6-1l0-0.1l0-0.1l0.1-0.3
							c0.1-0.2,0.1-0.3,0.2-0.4c0.1-0.3,0.3-0.5,0.4-0.6C8.1,58,8.6,58,9,58.3c1.6-2.5,3.6-3,4.8-2.3c-0.6,0.2-1.1,0.6-1.3,1.3
							c0.1,0.3,0.3,0.6,0.4,0.9c0.1,0.1,0.1,0.2,0.2,0.2c0,0,0,0.1,0,0.1c0,0,0,0,0,0s0,0.1-0.1,0.1c0,0.1-0.1,0.2-0.2,0.3
							c0.1-0.1,0.2-0.2,0.2-0.3c0,0,0.1-0.2,0-0.1c0-0.1,0,0.2,0.2,0.4c0.1,0.2,0.6,0.6,0.5,0.6c0,0,0,0.1,0.1,0.2
							c0.1,0,0.2,0.1,0.3,0.1l0.1,0c0,0-0.1-0.1-0.1-0.1c-0.1-0.1-0.2-0.2-0.3-0.2c-0.4-0.3-0.6-0.7-0.6-0.9
							c0.1,0.2,0.3,0.5,0.6,0.8c0.3,0.3,0.8,0.6,1.2,0.9c0.5,0.3,0.8,0.4,0.6,0.3c-0.1,0-0.2,0-0.2-0.1c-0.1,0-0.3-0.1-0.4-0.1
							c-0.2,0-0.3-0.1-0.5-0.1l-0.1,0h0l0,0c-1.5-0.1,2.1,0.1,1.7,0.1l0,0l0,0l0,0l0,0.1l0,0.1c0.1,0.6,0.2,1.3,0.4,2
							c0.2,1.3,0.4,2.4,0.6,3.6c0.1,0,0.3-0.2,0.4-0.2c0.4,0.4,0.7,0.8,1.1,1.2c0.3,0.8,0.6,1.5,0.9,2.2c-0.3,0.7-0.6,1.3-0.9,1.9
							c-0.2-0.3-0.6-0.6-0.8-1c-0.3-0.4-0.5-0.9-0.8-1.4c-0.1,0.9-0.1,1.7-0.1,2.7c-0.4,0.7-1-0.3-1,0.5c-0.6,0.3-1.2,0.5-1.8,0.8
							c-0.4-1.3-0.8-2.7-1.2-4.1c0.2-0.7,0.4-1.5,0.6-2.3c-0.4-0.6-0.8-1.2-1.3-1.9c-0.5,0.2-1,0.5-1.5,0.7c0.1,0.8,0.2,1.5,0.4,2.4
							c-0.2,1.5-0.3,3.1-0.4,4.6c-0.2,1.1-0.3,2.3-0.4,3.5C9.1,75.1,8.4,74.5,8.6,72.4z"/>
					</g>
					<g>
						<path class="st21" d="M11.8,68.3c0.1-1.1,0.2-2.3,0.4-3.4c0.1,0,0.2-0.2,0.3-0.3c0.3,0.8,0.6,1.5,1,2.3
							c-0.2,0.7-0.4,1.5-0.6,2.3C12.5,68.8,12.2,68.6,11.8,68.3z"/>
					</g>
					<g>
						<path class="st24" d="M145.7,31.2c1.8-0.9,3.8-1.2,7.9-1.4c-0.6,0.6-1.2,1.1-1.6,1.7c-0.8,0.1-1.6,0.1-2.3,0.2
							c-0.8,0.1-1.6,0.3-2.4,0.4c-0.4-0.1-0.8-0.1-1.1-0.2C145.6,31.7,145.6,31.5,145.7,31.2z"/>
					</g>
					<g>
						<path class="st24" d="M159.7,34.6c-0.6,0.1-1.2,0.1-1.8,0c-0.6-0.1-1.2-0.2-1.9-0.2c0.2-0.4,0.5-0.8,0.7-1.2
							C156.9,33.6,158.3,33.6,159.7,34.6z"/>
					</g>
					<g>
						<path class="st24" d="M164.1,28.1c1.5,0.4,3.1,0.8,4.5,1.2c1.4,0.5,2.5,1,3,1.6c-2.1-0.8-4.4-1.5-6.7-1.9
							C164.8,28.7,164.5,28.4,164.1,28.1z"/>
					</g>
					<g>
						<path class="st24" d="M175.3,32.5c1.1,0.6,2.2,1.4,3.3,2.1c0.5,0.7,1.1,1.5,1.6,2.1c3.5,3.6,6.3,7.9,8.1,12.1
							c1.2,1.8,2.1,4.3,2.7,6.9c0.6,2.6,0.9,5.3,1.2,7.7c0.5,1.8,0.7,4.3,0.5,6.8c-0.2,2.5-0.5,5-0.8,7.4c-0.2,1.2-0.4,2.5-0.8,3.8
							c-0.2,0.7-0.4,1.3-0.6,2l-0.4,1l-0.5,1.1c-1.3,3-3,5.8-5.3,8.2c-2.5,2.6-5.4,4.6-8.7,6.1c-3,1.3-5.8,2-8.3,2.5
							c-2.5,0.5-4.7,0.7-6.7,0.9c-1.9,0.2-3.8,0.5-5.7,0.7c-0.1,0.4-1.2,0.2-2-0.3c0.2-1,2.5-0.5,2.4-1.4c3.5,0.5,6.3,0,9.9-0.9
							c1.8-0.4,3.7-1,5.8-1.6c0.5-0.2,1.1-0.3,1.6-0.5c0.6-0.2,1.1-0.4,1.7-0.6c0.6-0.2,1.4-0.5,2-0.8c0.7-0.3,1.4-0.5,2-0.8
							c0-0.3-0.1-0.5,0.7-1.1c0.6-0.4,1.4-1,1.8-1c-0.1,0.5,1.6-1.1,2.3-1.7c0.1-0.4-0.3-0.4-0.1-0.9c0.1-0.2,0.2-0.4,0.4-0.7
							c1.5-1.1,3.5-3.5,4.9-6.4c0.7-1.5,1.2-2.9,1.6-4.1c0.4-1.3,0.6-2.4,0.7-3.4c0.5-3.4,0.6-6.7,0.6-10c-0.1-3.3-0.4-6.6-0.9-9.6
							c-0.4-0.5-0.8-1.8-1.1-3c-0.3-1.2-0.5-2.4-0.3-2.7c-1-0.8-1-1.4-1-2.1c0-0.6,0-1.3-1-2c-0.4-1-1-2-1.3-2.9
							c-0.4-0.9-0.7-1.6-0.8-2.1c-1.7-0.8-2.2-3.6-5.1-6.9c-0.6-0.2-1.3-1-2-1.7c-0.7-0.6-1.4-1.1-1.8-0.9c-0.9-0.9-1.6-1.5-2.4-2.3
							C174.1,32.2,174.7,32.4,175.3,32.5z"/>
					</g>
					<g>
						<path class="st24" d="M184.3,47.6c-1.3-1.2-1.7-1.8-2.1-2.6c-0.2-1.2,0.4-0.8,1,0.1c0.3,0.4,0.6,1,0.8,1.4
							C184.2,47.1,184.3,47.4,184.3,47.6z"/>
					</g>
					<g>
						<path class="st24" d="M185.5,50.8c1.7,2.2,2.4,4.3,2.8,6.2c0.4,1.9,0.5,3.8,0.8,5.9c-0.5-2.2-1.1-4.2-1.7-6.1
							C186.7,54.8,186.1,52.9,185.5,50.8z"/>
					</g>
					<g>
						<path class="st24" d="M177.8,59.2c1.1,0.8,1.5,3.6,0.9,3.9c-0.1,0-0.2,0-0.2,0c-0.2,1.2-0.3,2.3-0.6,3.6
							c-0.3-0.5-0.6-1-0.9-1.5c-0.3-1.9,0.4-1.6,1-2.6c-0.1-0.4-0.2-0.6-0.4-0.9c-0.1-0.7-0.2-1.4-0.4-2.1c0.1-0.1,0.1-0.2,0.1-0.4
							C177.5,59.2,177.6,59.2,177.8,59.2z"/>
					</g>
					<g>
						<path class="st24" d="M182.9,64.1c-0.1,1-0.3,2-0.5,3c-0.2-0.6-0.4-1.6-0.5-2.4c0-0.8,0.1-1.6,0.7-1.6
							C182.7,63.4,182.8,63.7,182.9,64.1z"/>
					</g>
					<g>
						<path class="st24" d="M182.9,70.2c-0.3,2.1-0.1,3.8-0.4,5.8c-0.7,3.1-1.8,5.3-2.9,7.2c-0.4,0.7-0.9,1.4-1.4,2.1
							c-0.5-0.1-1.5,1.3-1.7,0.7c-0.1-0.8-0.2-1.6-0.4-2.3c0.5-0.8,0.9-1.5,1.3-2.3c0.7-1.2,1.2-2.6,1.6-4c0-0.8-0.5-1.5,0-2.4
							c0.3-1.7,0.4-3.4,0.4-5.1c0.2-0.4,0.5-0.7,0.7-1.1c0.6,2.3,0.5,4.2,1.1,5.6c0.8-0.8-0.1-1.9,0.1-2.8c0.4-0.5,0.5-2.3,1-3.3
							C182.6,68.7,182.8,69.5,182.9,70.2z"/>
					</g>
					<g>
						<path class="st24" d="M189,76.2c-0.6-0.4-0.7-1.5-0.3-3.2C189.6,72.8,189.9,74.7,189,76.2z"/>
					</g>
					<g>
						<path class="st24" d="M175.9,78.1c-0.1,0.7-0.3,1.3-0.4,1.9c-0.4,0.6-0.8,1.2-1.3,1.7c-0.3,0.4-0.6,0.9-1.6,1.6
							c-0.2,0-0.6,0.3-1,0.5c-0.1-0.2-0.3-0.5-0.4-0.7c0.1-0.2,0.3-0.4,0.4-0.6c0.1-0.2,0.2-0.4,0.3-0.6c0.4-0.3,0.7-0.6,1.1-1
							c0.2-0.5,0.4-1,0.5-1.6c1.1,0.5,1.3-0.3,1.6-0.9c0.2-0.2,0.3-0.3,0.4-0.5C175.7,77.9,175.8,78,175.9,78.1z"/>
					</g>
					<g>
						<path class="st24" d="M160.6,85c-2.1,0.3-4.5,0.5-6.8,0.7c-2.3,0.2-4.7,0.4-6.9,0.8c-1.4,0-2.8-0.1-4.2-0.2
							c-0.2-0.3-0.4-0.5-0.6-0.8c3.3-1.3,7.7-0.6,10.9-1.7c2.4,0.3,5.8-0.2,7.7,0.6c1.2-0.2,2.3-0.5,3.3-0.7
							c0.1-0.2,0.7-0.4,1.2-0.4c0.5-0.1,1,0,1.1,0.6C165.1,84.3,163.7,84.8,160.6,85z"/>
					</g>
					<g>
						<path class="st24" d="M136.2,105.6c-1.3,0.6-2.7,0.9-2.7,0.6C133.8,105.7,134.9,105.4,136.2,105.6z"/>
					</g>
					<g>
						<path class="st24" d="M136.2,87.5c-1.3,0.2-3.3-0.2-3.9,0.6c-1.2,0.2-2.3,0.4-3.5,0.6c-1,0-2,0.1-3,0.1c0-0.1,0-0.2,0.1-0.2
							l-1.8-1c-1.1,0-2.1,0.5-3.1,0.7c-0.3,0-0.6,0-0.9,0c-1.1,0-2.3,0-3.3,0.1c-0.6,0.4-1.3,0.4-2.3,0.7c-0.4,0-0.6,0-0.9,0
							c-0.6,0.3-1.3,0.6-1.9,0.8c-1.4,0-2.8,0-4.2,0c-2.3-0.1-5.3-0.8-8.3-0.3c-3,0.1-5.9,0-8.9,0.1c-1.8,0.2-3.9,0.2-5.9,0
							c-1.6-1-3.4-0.1-5.6,0c-0.1,0.1-0.4,0.2-0.5,0.4c-0.2,0-0.3,0-0.4,0c-0.6-0.1-1-0.3-1.5-0.4c-1.2,0-2.3,0-3.5,0
							c-1.9-0.1-3.7-0.1-5.4-0.3c-0.1-0.1-0.2-0.3-0.2-0.5c0.6-0.4,1.2-0.8,1.8-1.2c2.4,0.3,5.8-1.2,6.8,1.1
							c1.2-1.6,2.9-0.8,3.6-0.5c1-0.2,2.2-0.3,3.2-0.5c2.1-0.2,0.9,0.5,2.1,1.2c0.7-0.5,1.5-1,2.2-1.5c3.4,0.5,7-0.1,9.9,0.3
							c0.1-0.6,1.9-0.6,3.1-0.5c2.8,0.1,5.5,0.1,8.3,0.1c0.2,0.2,0.5,0.2,0.8,0c-0.2-1,2.8-0.7,3.4-1.5c1,0,1.2,0.7,1.7,1.2
							c1-0.3,2.1-0.6,3.2-0.9c0.7,0.4,2.5-0.1,3.2,0.3c3.1-0.7,2.5,0.7,4.2-0.1l0.1-0.4c2,0.8,5.6-1.1,6.6,0.3
							c0.6-0.1,1.4,0.1,1.7-0.3c1.1-0.1,3-0.9,4.2,0C137.1,86.4,136.7,86.9,136.2,87.5z"/>
					</g>
					<g>
						<path class="st25" d="M134.3,96.9c-1.3,0.6-2.1,1.1-4.4,0.8c-4.3,0.7-7.1,0.5-12.3,1.6c-0.9-0.1-1.6-0.1-2.5-0.2
							c-0.9,0-1.7,0-2.6,0c-0.1-0.1-0.2-0.1-0.4-0.2c-1.6,0.1-1.9,0.5-4.8,0.4c-0.4,0.3-0.8,0.6-1.2,0.8c0.2,0.3,0.3,0.7,0.6,1
							c-0.4,0-0.7,0.1-1,0.2c-0.5-0.2-1.1-0.3-1.6-0.5c-0.4,0-0.6,0-0.9,0l-0.7-0.4c-0.4,0-0.6,0-0.9,0c-0.4,0.3-0.7,0.6-1.2,1
							c-0.5,0-1.2,0-1.7,0l-0.6-0.7c-1.5,0.5-2.9,0.6-3,1.1c-3.8,0-7.6-0.1-11.4-0.2c-1.2-0.2-2.5-0.4-3.8-0.5c-1.2-0.2-1,0.6-2,0.6
							c-1.1,0-2.2,0-4,0.9c-1.1-0.3-2.1-0.6-3.2-0.8c-0.6-2.2-3.4,0.3-5.9-1c-0.9,0.6-2.1,0-3.1-0.3c-1.7-0.2-3.4-0.6-5.1-0.9
							c-0.7-0.1-1.4-0.3-2.1-0.4c-2.6,0.4-4.9-0.9-5.6,0.1c-1.9-0.5-3.7-0.9-5.2-1.9c-0.3,0-0.6,0-0.9-0.1c0,0.5,0,1,0,1.5
							c1,0.8-0.3,0.7-0.7,1.1c0.1,0.2,0.1,0.4,0.1,0.7c0.2,0.1,0.5,0.3,0.8,0.4c1.4,0.5,2.8,0.8,4.1,1.2c1.8,0.7,2.1-0.2,3.7,0.2
							c0.8,0.4,2.5,0.5,2.3,1.1c-2.5-0.1-5-0.3-7.6-0.4c-0.6-0.1-1.1-0.3-1.7-0.4c-0.6-0.2-1.1-0.3-1.7-0.5
							c-1.4-0.2-2.8-0.4-4.2-0.5c-0.7-0.2-1,0.7-2.1,0c-0.7-0.3-1.4-0.5-2.1-0.8c-0.4,0.1-0.8,0.2-1.2,0.2c-0.7-0.4-1.3-0.7-1.9-1.1
							c-0.5-0.2-0.9-0.3-1.4-0.5c-0.2,0.1-0.5,0.1-0.7,0.2c-0.1,0.1-0.2,0.2-0.3,0.3c-1.7-0.9-3.3-1.9-4.9-3c-1.5-0.7-3-1.6-4.5-2.6
							c-1.4-1.2-2.7-2.5-3.9-4c0-0.1-0.1-0.3-0.2-0.5c1.7,0.1,1-1.2,1.5-1.5c1.3,0.6,2.6,1.1,3.8,1.4c0.8,1.7,2.5,2.6,4.2,3.3
							c1.8,0.6,3.6,1,5.1,2.1c2.1-0.3,4.6,1.4,8.1,1.7c1,0,1.6-0.1,2.3,0.2c0.6-0.1,1.2-0.3,1.7-0.4c-1.3-0.5-2.5-1.1-3.8-1.7
							c-1.2-0.3-2.4-0.7-3.6-1.2c-0.4,0.1-0.8,0.2-1.1,0.2c-0.9-0.2-1.8-0.5-2.5-0.7c-0.4-0.2-0.7-0.4-1.1-0.7c-1-0.3-2.2-0.6-3.6-1
							c-1.3-0.5-2.8-1.1-4.3-2.1c0.1-0.2,0.1-0.4,0.2-0.6c0.7-0.1-0.5-1.9,2.1,0c0.4,0.5,1,0.4,1.8,0.5c0.3-0.3,0.6-0.6,0.9-0.9
							c0.4,0.2,0.7,0.4,1,0.6c0.6,0.3,0.8-0.3,1.6-0.1c0.6,0.3,1.2,0.6,1.8,0.8c0.9,0.5,1.8,1,2.7,1.5c0.1-0.2,0.2-0.3,0.4-0.5
							c1.5,0,3.2,1.3,3.9,0.6c0.7,0.2,1.3,0.4,2,0.6c-0.2,0.3-0.3,0.5-0.5,0.8c1.7,0.4,2.5,0.1,3.4,0c0.5,0.1,1.2,0.2,1.7,0.3
							c0-0.1,0.1-0.2,0.1-0.2c0.2-0.3,0.4-0.6,0.7-1.1c0.1-0.2,0.2-0.4,0.3-0.5c0.2,0.1,0.5,0.1,0.8,0.2c-0.4,0.3,0.7,0.3,2.2,0.9
							c1.8,0.2,3.3,0.3,4.7,0.4c1.5,0,3,0.1,4.8,0.4c1,0.4,2.1,0.7,3.1,1c1.2-0.3,3,0,3.7-0.5c1.6,0.3,3.3,0.5,5,0.7
							c0.8,0,1.7,0.1,2.5,0.1c1-0.5,3.4-0.5,3,0.2c-0.1,0.2-0.1,0.3-0.2,0.4c0.9,0,2.2,0.4,3.2-0.3c1.5,0.1,3.1,0.3,4.6,0.4l0.2-0.6
							c1.3,0.2,2.5,0.3,3.8,0.5c0.8,0.1,1.7,0.1,2.5,0.2c0.1-0.2,0.2-0.4,0.2-0.6c0.9,0.1,1.7,0.2,2.5,0.3c1.4-0.1,2.6-0.2,3.9-0.2
							c0.1-0.5,1.3-0.4,3.1-0.3c-0.6-0.3-0.5,0.1-0.1,0.4c0,0.3,1.9,0.3,2.7-0.4c0.5,0.1,1.1,0.3,1.5,0.5c1.1,0,2.2,0,3.4,0
							c0.7-0.3,2.1,0,2.8-0.8c0.6-0.1,1.2-0.2,1.7-0.2c0.8,0.1,1.9,0.3,3.5-0.2c-0.4,0.9,1.9,0.6,2.6,0c0.8,0,1.7,0,2.5,0
							c0.6,0.2,1.3,0.4,2,0.6c-0.8,0.3-2.2,0.4-2.7,0.7c-1.4,0-3.2,1-4,0.3c-0.8,0.1-2.3-0.1-3.7,1.1c-1.6-0.3-3.2-0.6-4.9-0.9
							c-0.9,0.2-1.8,0.3-2.6,0.4c-0.3-0.1-0.5-0.3-0.8-0.4l-2.3,0.6c-0.9-0.2-3,0.3-2.8-0.7c-0.7,0-1.4-0.1-2.1-0.1
							c-0.2,0.5-0.3,1-0.5,1.4c1.8,0.1,3.4,0.2,5.1,0.4c1-0.2,2.1-0.4,3.2-0.6c1.3,0.2,2.8,0.2,5.8,0.7l2.6,1c1-0.2,2.1-0.3,3.2-0.5
							c1.1-0.3,2.1-0.6,3.3-0.9c2.7,0.4,6.6,0.5,10.3-0.3c0.4,0.2,0.7,0.4,1.1,0.6C131.3,97.2,131.2,96.4,134.3,96.9z"/>
					</g>
					<g>
						<path class="st24" d="M126.9,106.6c-1.4,0.6-4,0.7-4.8,0.4C124.2,106.3,125.2,106.3,126.9,106.6z"/>
					</g>
					<g>
						<path class="st24" d="M117.8,107.1c-1.6,0.6-3.4,0.8-3.7,0.5C113.8,107,115.2,106.9,117.8,107.1z"/>
					</g>
					<g>
						<path class="st24" d="M113.3,107.6c-1.7,1.1-2.6,0.6-4.1,0.2C110.6,107.7,111.9,107.6,113.3,107.6z"/>
					</g>
					<g>
						<path class="st24" d="M107.9,108c-2.3,0.6-4.6,0.8-5.4,0.4c0.5-0.2,1.2-0.9,2.4-0.6C105.8,107.9,106.9,108,107.9,108z"/>
					</g>
					<g>
						<path class="st24" d="M98.1,108.3c-1.4,0.4-3.8,0.8-3.1,0.1C95.7,108.5,96.1,107.9,98.1,108.3z"/>
					</g>
					<g>
						<path class="st24" d="M83.4,108.2c-2.7,0.5-5.6,0.7-5.5,0c1.2-0.3,2.4-0.3,3.9-0.5c0.5,0,0.8,0.1,1.3,0.1
							C83.2,107.9,83.2,108.1,83.4,108.2z"/>
					</g>
					<g>
						<path class="st24" d="M62,88.8c-2.3,0.3-1.1-1-2.8-0.5c-2.4-0.4-5.4-0.3-8-0.6c-0.7-0.2-1.3-0.3-2-0.5c-0.7-0.4-1.4-0.8-2-1.2
							c-1.4-0.3-3,0.1-3.9,0.4c-0.5-0.1-1.1-0.3-1.5-0.4L41,85.9c-1.2-0.1-2.4,0.2-4.7-1.1c-0.7-0.1-1.3-0.2-1.9-0.3
							c-2.6-0.3-4.6-1.7-6.4-2.2c-1.5-0.6-2.8-1.3-3.9-2.1c0.2-0.6,0.5-1.3,0.8-1.9c0.8,0.5,1.8,0.8,2.8,1.4c1.6,1,3.1,1.2,5.5,2.3
							c0.4-0.4,0.9,0,1.5,0.3c0.6,0.4,1.2,0.7,1.5,0c0.7,0.4,1.7,1,2.7,0.9c-0.1-0.5,0.4-0.6,1-0.5c0.6,0.1,1.3,0.3,1.6,0.6
							c-0.3,0.1,0,0.3,0.2,0.5c0.4,0.1,0.9,0.3,1.2,0.1c-0.2-0.8,1.3-0.3,1.7-0.6c0.9,0.4,1.8,0.3,2.2,0c2.5,0.1,5.3,2.4,6.4,0.9
							c1.7,0.2,4.3,1.4,5,0.4c-0.5-1.1,2-0.2,1.5-1.2c6,0.3,3.7,2.5,6,4.6C64.5,88.4,63.3,88.6,62,88.8z"/>
					</g>
					<g>
						<path class="st24" d="M12.7,75.3c-0.5,0.4-0.7-0.9-1-1.4c-0.4-0.4-0.7-0.7-1.1-1.2c0.1-1.5,0.2-3.1,0.4-4.6
							c0.3,0.1,0.5,0.2,0.8,0.3c0.4,0.2,0.7,0.5,1,0.7c0.3,1.5,0.7,2.8,1.2,4.1c0,0.1,0,0.3,0,0.3c0.3,1.1,0.5,2.3,0.2,2.8
							c-0.2,0.4-0.5,0.8-0.7,1.1C13.2,76.7,12.9,76,12.7,75.3z"/>
					</g>
					<g>
						<path class="st24" d="M20.6,72.4c-0.5-0.6-0.4-1.7-1.2-2.7c-0.3-0.7-0.6-1.4-0.9-2.2c0.3-0.4,0.5-0.9,0.7-1.3
							c0.4,0.1,0.7,0.3,1,0.4c-0.1,2.2,1.3,4,0.7,5.6C20.8,72.2,20.7,72.3,20.6,72.4z"/>
					</g>
					<g>
						<path class="st22" d="M179.4,69.7c-0.1,1.7-0.2,3.4-0.4,5.1c-0.6-0.3-1.2-0.6-1.7-0.9l0.1-0.7c0.5-1.2,0.8-2.6,1.2-3.8
							C178.9,69.5,179.2,69.6,179.4,69.7z"/>
					</g>
					<g>
						<path class="st25" d="M182.9,64.1c0.7,0.6,1.1,1.9,1.4,3.5c0.2,1.5,0.2,3.2,0.2,4.3c-0.3,1.4-0.7,3.1-1.2,4.6
							c-0.1,1.2-0.2,2.5-0.4,3.8c-0.5,1.4-1.6,2.8-2.6,3.7c-0.3,0.7-0.3,1.3-0.4,2c-0.1,0.7-0.4,1.4-1.3,2.2
							c-0.2,0.1-0.3,0.2-0.4,0.2c-0.1,0-0.1,0-0.1-0.1c0,0,0,0,0,0l0,0c-1.3,1.8-3.5,3.4-6.1,4.3c-2.5,0.9-5,1.3-7.2,1.7
							c-0.8,0.4-1.6,0.7-2.5,1.1c-2.1-0.1-4.1-0.1-6.1,0c-2.1,0.1-4.1,0.3-6.2,0.5c-4.1,0.4-8.2,1-11.8,1.1c-0.5,0.4-1.5,0.3-3.4,0
							c3.1-1.5,8.2-1,12.8-2.1c0.7-0.2,1.5-0.3,2.2-0.6c-0.1-0.1-0.2-0.2-0.3-0.4c0.4-0.3,0.8-0.6,1.1-0.9c-0.2-0.2-0.5-0.3-0.8-0.4
							c-0.7,0.2-1.3,0.3-3.8,0c-1.8,1-4.8,0.2-6.2,1.4c-0.3-0.4-0.7-0.8-0.9-1.2c0.3-0.1,0.6-0.1,0.8-0.2c1.6-0.3,3.2-0.5,4.8-0.7
							c0.3,0,0.5,0,0.9-0.1c1-0.1,2-0.3,3-0.4c0.3,0,0.5,0,0.9,0c0.8,0,1.7-0.1,2.6-0.2c0.3,0,0.5,0,0.8,0c0.9-0.1,1.7-0.2,2.6-0.4
							c0.5-0.1,1.2-0.2,1.7-0.3c1.3,0,2.5,0,3.8-0.1c0.4,0,0.6,0,0.9-0.1c0.8-0.2,1.4-0.5,2.2-0.8c0.8-0.3,1.9-0.5,3.6-0.6
							c0.2,0.3,0.5,0.6,0.8,0.9c0.8-0.2,1.6-0.3,2.5-0.6c0.1-0.3,0.2-0.7,0.2-1c0.6-0.5,1.2-1,1.7-1.6c0.7-0.5,0.9-1.2,1.6-1.7
							c0.1-0.1,0.1-0.1,0.2-0.2c0.6-0.3,1.2-0.6,1.7-1c0.2,0.7,0.4,1.5,0.4,2.3c0.2,0.7,1.2-0.8,1.7-0.7c0.5-0.7,1-1.4,1.4-2.1
							c1-1.9,2.1-4,2.9-7.2c0.3-2,0.1-3.8,0.4-5.8c-0.2-0.7-0.3-1.4-0.6-2.1c0-0.4,0-0.7,0-1C182.6,66.1,182.8,65.1,182.9,64.1z"/>
					</g>
					<g>
						<path class="st26" d="M131.6,90.5c-1.2,0.1-2.6,0.1-3.8,0.2c-0.9,0.2-2,1.4-3.6,1.1c-1.1,0.1-0.7-0.5-0.7-0.8
							c-1,0-2.2-0.1-1.8,0.7c-0.5,0.4-1.2,0.2-1.7,0.3c-2.8-1.6-4.2,1.7-7.7,0.3c-0.6,0.2-1.3,0.4-1.9,0.6c-0.8,0.2-1.5,0.4-2.3,0.6
							c-0.3-0.4-0.7-0.6-1-0.8c-4.8-0.2-9.2,1.1-13.7,0.1c-0.7,0.6-2.8,0.4-4.3,1.2c-1.3-0.6-0.8-1.1-2.2-1
							c-0.8,0.1-2.5-0.2-2.3,0.5c-0.6,0.3-1.4,0.1-3.3,0.6l-0.8-0.1c-1-1-4-1.1-5.3-0.9c-0.4,0.3-1.2,0-1.7,0
							c-0.9-0.2-1.8-0.4-2.8-0.6c-1,0.1-2,0.1-3.1,0.1c-1,0-2.1-0.1-3.2-0.1c-2.1-0.1-4.2-0.2-5.9-0.4c-0.7-0.3-1.5-0.6-2.3-0.9
							c-0.2,1.3-3.1-0.2-3.8,0.5c-0.9-0.2-2-0.3-3-0.5c-0.6,0.4-2-0.1-3.4,0.5c-0.3-0.1-0.6-0.1-0.8-0.2c-0.1,0.2-0.2,0.3-0.3,0.5
							c-1.7-0.6-3.4-1.2-4.9-1.8c-0.1-0.2-0.2-0.3-0.2-0.5c-0.8-0.5-1.5,0.1-3-1.1c-0.7-0.3-1.1-0.1-1.7-0.2c-0.5,0-1.3-0.2-2.5-1.1
							c-1.2-0.6-1.2,0.9-2.6-0.3c-0.4-0.4-0.8-0.9-1.2-1.3c-0.8-0.5-1.7,0.1-2.5-0.8c-0.4-0.3-0.9-0.6-1.3-1
							c0.9,0.1,0.9-0.9,1.7-0.3c0.7,0.6,1.5,1.2,2.3,1.7c0.9,0.3,1.4-0.6,2.5,0.1c0.5,0.3,1,0.6,1.5,0.9c0.5,0,0.8,0,1.3,0
							c0.4,0.2,1,0.4,1.4,0.5c1.3,0.4,2.4-0.1,5,0c0.2-0.4,0.5-0.8,0.7-1.1c0.5,0.1,1.1,0.3,1.5,0.4c1-0.3,2.5-0.7,3.9-0.4
							c0.6,0.4,1.3,0.8,2,1.2c0.7,0.2,1.2,0.3,2,0.5c2.7,0.3,5.7,0.3,8,0.6c1.7-0.5,0.4,0.8,2.8,0.5c0.8,0.3,1.5,0.6,2.2,1
							c1.2,0.4,2.1-0.4,3.2-0.3c1,0.6,2.1,1.2,3.1,1.8c0.8-0.3,1.7-0.6,2.5-0.9c0.9,0.3,1.7,0.6,2.7,0.9c0.2-0.7,2.1-0.8,2.3-1.4
							c0.1,0,0.3,0,0.4,0c0.7,0.2,1.5,0.5,2.2,0.8c1.3-0.3,2.5-1,3.9-1.2c2,0.2,4.1,0.2,5.9,0c3-0.1,5.9,0,8.9-0.1
							c3-0.5,6.1,0.3,8.3,0.3c1.4,0,2.8,0,4.2,0l2.6,1c1.2,0.2,1.9-0.5,2.3-0.6c0.9,0,1.7,0.1,2.5,0.1c1.1-0.3-0.1-1.2,1.7-1.2
							c0.3,0,0.5,0.1,0.7,0.1c1.4-0.2,2.9-0.3,4.3-0.5c1,0,2-0.1,3-0.1c0.2,0.4,0.3,0.8,0.5,1.2c0.8,0.1,1.7,0.2,2.5,0.3
							c2.4-0.7,7.3-0.9,10.4-1.3c3.4-0.7,7.6-0.2,10.8-1.2c1.2-0.1,0.6,0.6,2,0.3c1.5-0.4,3.6-0.7,5.5-0.7c2-0.1,3.9,0,5.5,0.2
							c-2.4,0.8-5.1,1.1-7.8,1.3c-2.7,0.3-5.3,0.5-7.9,1.2c-0.1-0.5-1.2-0.2-1-0.8c-1.8,0-2.4,0.4-3.9,0.7c-0.2-0.1-0.6-0.2-0.3-0.4
							c-1,0.1-2.2,0-1.8,0.8c-0.3,0.3-0.8,0.2-1.4,0.3C138.4,90.4,135.1,90.5,131.6,90.5z"/>
					</g>
					<g>
						<path class="st22" d="M160.7,92.4c-1.5,0.2-2.9,0.4-4.3,0.5c0.2,0.2,0.4,0.5,0.7,0.8c-0.9,0.1-1.7,0.1-2.6,0.2
							c0.3-0.3,0.7-0.6,1.1-0.9c-0.9-0.1-1.7-0.2-2.5-0.2c0.1-0.3,0.1-0.6,0.2-0.9l0.8,0c0.8,0.1,1.7,0.2,2.5,0.3
							c1.4,0,2.8,0.1,4.2,0.2C160.7,92.3,160.7,92.4,160.7,92.4z"/>
					</g>
					<g>
						<path class="st22" d="M125.8,88.7c-1.4,0.2-2.9,0.3-4.3,0.5c-0.3,0-0.5-0.1-0.7-0.1c0.1-0.3,0.2-0.6,0.2-0.9
							c1-0.2,1.9-0.7,3.1-0.7l1.8,1C125.9,88.5,125.8,88.6,125.8,88.7z"/>
					</g>
					<g>
						<path class="st22" d="M98.6,101.5c-1.1,0.2-1.8,1.1-3.6,0.5c0.1-0.5,1.5-0.6,3-1.1L98.6,101.5z"/>
					</g>
					<g>
						<path class="st22" d="M81.8,103.1c-0.6,0.2-1,0.8-2.1,0.5c-0.3-0.2-0.6-0.5-0.9-0.9c-0.4-0.2-0.7-0.5-1-0.7
							c1.1-0.1,0.8-0.8,2-0.6c1.2,0.2,2.5,0.4,3.8,0.5C83,102.3,82.4,102.7,81.8,103.1z"/>
					</g>
					<g>
						<path class="st22" d="M84.4,89.6c-1.4,0.2-2.6,0.8-3.9,1.2c-0.7-0.3-1.5-0.6-2.2-0.8c0.2-0.2,0.4-0.3,0.5-0.4
							c0.8-0.2,1.6-0.4,2.4-0.6c1.1,0.1,2.2,0.2,3.3,0.3C84.4,89.5,84.4,89.6,84.4,89.6z"/>
					</g>
					<g>
						<path class="st22" d="M76.9,96.7c1.6-0.3,3.6-0.7,3.3,0.3C79.1,96.9,78,96.8,76.9,96.7z"/>
					</g>
					<g>
						<path class="st22" d="M73.7,106.3c-1.8-0.3-3.4-0.7-5.1-1c-0.4,0.2-0.8,0.5-1.3,0.7c-2.1-0.7-3.3-0.5-3.7-0.1
							c-1.3-0.1-2.8-0.2-4.1-0.2c-0.1-0.2-0.2-0.4-0.2-0.6c-1.3-0.2-2.6-0.5-3.9-0.7c-0.9-0.2-1.7-0.3-2.6-0.5
							c-2.5-0.1-5-0.3-7.6-0.4c-0.9-0.7-1.7-1.4-2.6-2.1c-0.3-0.2-0.5-0.3-0.8-0.4c0-0.2,0-0.4-0.1-0.7c0.4-0.4,1.7-0.3,0.7-1.1
							c0-0.5,0-1,0-1.5c0.3,0,0.6,0,0.9,0.1c1.5,0.9,3.3,1.3,5.2,1.9c0.8-1,3,0.3,5.6-0.1c0.7,0.1,1.4,0.3,2.1,0.4
							c1.8,0.3,3.4,0.7,5.1,0.9c1,0.3,2.2,0.8,3.1,0.3c2.5,1.3,5.3-1.1,5.9,1c1.1,0.3,2.1,0.5,3.2,0.8c-1.4,0.8-3.4,0.9-5.5,0.8
							c-2.1-0.1-4.4-0.6-6.4-0.7c0.5,1.2-2,0.4-3.1,0.8c0.2,0.4,0.5,0.8,0.8,1.2c0.6-0.2,1.2-0.4,1.7-0.6c1.9-0.2,5,0.9,7.6,0.7
							c2.1,0.3,4.3,0.7,6.4,1C74.7,106,74.2,106.2,73.7,106.3z"/>
					</g>
					<g>
						<path class="st22" d="M67.4,89.5c-1.1-0.1-2,0.7-3.2,0.3c-0.7-0.3-1.4-0.7-2.2-1c1.3-0.2,2.6-0.5,3.8-0.7
							c0.5,0.2,1,0.4,1.4,0.6c0,0.2,0.1,0.3,0.2,0.5C67.4,89.3,67.4,89.4,67.4,89.5z"/>
					</g>
					<g>
						<path class="st22" d="M49.2,87.3c-0.7-0.4-1.4-0.8-2-1.2c-1.4-0.3-3,0.1-3.9,0.4c1-0.3,2.5-0.7,3.9-0.4
							C47.8,86.5,48.5,86.9,49.2,87.3z"/>
					</g>
					<g>
						<path class="st22" d="M42.5,93.2c-0.8,0.1-1.6,0.4-3.4,0c0.2-0.3,0.3-0.5,0.5-0.8C40.5,92.6,41.5,92.9,42.5,93.2z"/>
					</g>
					<g>
						<path class="st22" d="M31.6,102.5c-1-0.2-2-0.4-3-0.7c-0.4-0.2-0.9-0.5-1.2-0.7c-1.9-0.2-4.3-1.5-5.9-1.7
							c-2.3-1.2-4.6-2.5-6.7-4.2c-2.2-1.8-4.2-3.9-5.9-6.3c-0.5-0.4-0.9-0.8-1.4-1.3c-0.5-0.4-0.9-0.9-1.4-1.4
							c-0.3-0.8-0.6-1.5-0.9-2.3c-0.3-0.7-0.5-1.5-0.7-2.3c0.6,0.7,1.3,1.3,1.9,1.8c0.5,1.9,1.6,3,2.7,5.4c0.4,0,0.8-0.1,1.1-0.1
							c1.1,1.1,2.3,2.1,3.5,2.9c1.8,1.6,3.4,2.8,5,3.1c1.5,1,2.9,1.8,4.5,2.6c1.6,1.1,3.2,2.1,4.9,3c0.1-0.1,0.2-0.2,0.3-0.3
							c0.2-0.1,0.5-0.1,0.7-0.2c0.5,0.2,0.9,0.3,1.4,0.5c0.6,0.4,1.3,0.8,1.9,1.1C32.1,101.8,31.9,102.1,31.6,102.5z"/>
					</g>
					<g>
						<path class="st22" d="M36.3,84.8c2.2,1.2,3.5,1,4.7,1.1C39.8,85.8,38.5,86,36.3,84.8z"/>
					</g>
					<g>
						<path class="st22" d="M11,68c-0.1-0.9-0.2-1.6-0.4-2.4c0.5-0.2,1-0.5,1.5-0.7c-0.1,1.1-0.3,2.3-0.4,3.4
							C11.6,68.2,11.3,68.1,11,68z"/>
					</g>
					<g>
						<path class="st22" d="M17,66.5c-0.2-1.2-0.4-2.4-0.6-3.6c0.4,0,0.7,0,1,0c0,1.2-0.1,2.3-0.1,3.4C17.3,66.3,17.1,66.4,17,66.5z
							"/>
					</g>
					<g>
						<path class="st23" d="M116.6,90.2c-0.4,0.2-1,0.9-2.3,0.6l-2.6-1c0.6-0.3,1.3-0.6,1.9-0.8c0.3,0,0.5,0,0.9,0
							C115.2,89.4,115.9,89.8,116.6,90.2z"/>
					</g>
					<g>
						<path class="st23" d="M73,90.4c-0.8,0.3-1.7,0.6-2.5,0.9c-1-0.6-2.1-1.2-3.1-1.8c0-0.1,0.1-0.2,0.1-0.2
							c1.7,0.1,3.6,0.2,5.4,0.3C73.2,89.9,73.1,90.1,73,90.4z"/>
					</g>
					<g>
						<path class="st25" d="M179,74.9c-0.5,0.9,0,1.6,0,2.4c-0.4,1.4-0.9,2.7-1.6,4c-0.3-0.3-0.6-0.6-0.9-0.9
							c-0.3-0.1-0.6-0.3-1-0.4c0.2-0.6,0.3-1.3,0.4-1.9c0.5-1.3,1-2.6,1.3-4.1C177.8,74.3,178.4,74.5,179,74.9z"/>
					</g>
					<g>
						<path class="st25" d="M171.6,83.7c-0.1,0-0.2,0.1-0.2,0.2c-0.7,0.4-2.2,1.6-2.2,0.5c0.4-0.4,0.8-0.8,1.1-1.3
							c0.3-0.1,0.6-0.1,0.9-0.1C171.3,83.2,171.5,83.5,171.6,83.7z"/>
					</g>
					<g>
						<path class="st25" d="M133.9,93.6c-0.4-0.2-0.8-0.3-1.2-0.4c0-1,2.2-0.8,4-0.6C135.7,92.9,134.7,93.2,133.9,93.6z"/>
					</g>
					<g>
						<path class="st25" d="M129.8,94.5c-1.2,0.1-1.9,0.1-3.1,0.5c-1-0.1-2-0.1-3-0.1c0.1-0.2,0.1-0.4,0.2-0.7
							c1.3-0.3,3.1-0.4,4.5-1.2c0.9,0,1.7,0.1,2.5,0.1C130.6,93.7,130.2,94.1,129.8,94.5z"/>
					</g>
					<g>
						<path class="st25" d="M120.7,89.1c-1.7,0-0.5,1-1.7,1.2c-0.8,0-1.6-0.1-2.5-0.1c-0.7-0.4-1.4-0.8-2.1-1.2
							c1-0.3,1.7-0.3,2.3-0.7c1.1,0,2.2,0,3.3-0.1c0.3,0,0.5,0,0.9,0C120.9,88.5,120.8,88.8,120.7,89.1z"/>
					</g>
					<g>
						<path class="st25" d="M73,90.4c0.1-0.3,0.2-0.5-0.1-0.9c1.2,0,2.3,0,3.5,0c0.5,0.1,1,0.2,1.5,0.4c-0.2,0.6-2.1,0.8-2.3,1.4
							C74.7,91,73.8,90.7,73,90.4z"/>
					</g>
					<g>
						<path class="st25" d="M18.2,88c-0.7-0.4-1.5-0.9-2.2-1.4c-0.8-0.8-0.8-1.7-0.8-2c0.3,0.2,0.6,0.4,0.9,0.6
							c0.3,0.2,0.6,0.4,0.9,0.6c0.3-0.4,0.7-0.8,0.9-1.2c0.5,0.7,1.1,1.5,1.7,2.2c0.5,0.9-0.2,1.2,0.1,2.2
							C19.3,88.7,18.7,88.3,18.2,88z"/>
					</g>
					<g>
						<path class="st25" d="M9.1,88.9c-1.2-2.4-2.3-3.4-2.7-5.4c-0.6-0.5-1.2-1.1-1.9-1.8c-0.1-0.2-0.1-0.4-0.2-0.6
							c-0.1-1.5-0.2-2.4-0.4-3c-0.2-0.6-0.3-1-0.4-1.4c0.7,0.4,0-1.6,0.5-1.9c0.3-0.3,0.7-0.5,1-0.7c0,0.1,0.1,0.4,0.2,0.6
							c0.1,1.4,0.4,2.7,0.6,4.1c0.4,1.6,0.6,3.4,2,4.4c0,0.1,0.1,0.3,0.1,0.4c0.4,1.6,1,3.1,1.8,4.7c0.1,0.1,0.2,0.3,0.3,0.4
							C9.9,88.8,9.5,88.9,9.1,88.9z"/>
					</g>
					<g>
						<path class="st25" d="M21.8,80.4c-0.1-0.1-0.3-0.2-0.5-0.4c-0.6-1.2-0.7-2.4-2.1-3.3c-0.1-0.5-0.2-1-0.2-1.6
							c0.5,0,1,0.1,1.5,0.1c0.3,0.3,0.5,0.8,0.8,1.1c0.6,1.5,1.4,2.5,2.2,3.6C22.9,80.1,22.3,80.2,21.8,80.4z"/>
					</g>
					<g>
						<path class="st26" d="M8.2,83.7c0-0.1-0.1-0.3-0.1-0.4c-0.2-1.1-0.2-2.1-0.3-3c0.6,1.4,1.3,2.7,2.2,4c0,0.3,0,0.6,0,1
							C9.4,84.8,8.8,84.2,8.2,83.7z"/>
					</g>
					<g>
						<path class="st26" d="M15.5,82.9c-0.6-1.1-1-2.3-1.3-3.5c1.1,1.5,2.2,2.8,1.7,3.4C15.6,82.9,15.5,82.9,15.5,82.9z"/>
					</g>
					<g>
						<path class="st26" d="M6.7,71.8c-0.6-1-0.3-2.3-0.1-3.3c-0.1-0.7-0.1-1.3-0.2-2.1c0.1-0.3,0.2-0.5,0.3-0.7l1,0.4
							c-0.3,0.8-0.5,1.6-0.6,2.5c0.1,0.3,0.2,0.7,0.4,1C7.2,70.4,6.9,71.1,6.7,71.8z"/>
					</g>
					<g>
						<path class="st26" d="M3.1,68.4c-0.7,0.2-1.4,0.4-2.1,0.5c-0.5-3.3,0.5-3.2,1.5-5.2c0.2,0.7,0.4,1.5,0.6,2.2
							C3.4,65,3.7,64.3,4,63.4c0.1,0,0.2,0.1,0.2,0.1c-0.4,2.7,0.5,3.3-0.8,6.5C3.3,69.5,3.2,69,3.1,68.4z"/>
					</g>
					<g>
						<path class="st24" d="M189,62.9c0.9,1.2,0.7,3.3,0.6,4.5c0.1,1.2,0.1,2.2,0.1,3.4c-0.6-0.6-1.1-1.7-0.7-3.6
							C189,65.7,189.1,64.4,189,62.9z"/>
					</g>
					<g>
						<path class="st24" d="M177.9,66.7c0.3,0.8,0.5,1.8,0.8,2.8c-0.4,1.2-0.8,2.6-1.2,3.8c-0.3-0.6-0.5-1.1-0.7-1.6
							C176.9,69.6,177.2,67.9,177.9,66.7z"/>
					</g>
					<g>
						<path class="st22" d="M106.6,101.2c-0.4,0-0.7,0.1-1,0.2C105.9,101.3,106.2,101.2,106.6,101.2z"/>
					</g>
					<g>
						<path class="st22" d="M95.1,96.8c-0.2,0.1-0.4,0.2-0.6,0.4c-0.2,0-0.4,0-0.4,0c-1,0.1-2.1,0.2-3.1,0.3c-2.4,0-4.8-0.2-7.2-0.2
							c-0.9,0-1.7-0.1-2.6-0.2c0.8-0.2,1.6-0.4,2.4-0.6c0-0.1,0.1-0.2,0.1-0.2c0.7,0,1.5,0,2.2-0.1c0.9,0.1,1.9,0.3,2.9,0.4
							c1.1,0.3,1.8-0.3,2.3-0.5C92.3,96.3,93.7,96.6,95.1,96.8z"/>
					</g>
					<g>
						<path class="st22" d="M95.4,96.8c-0.1,0-0.3,0-0.4,0C95.2,96.8,95.4,96.8,95.4,96.8z"/>
					</g>
					<g>
						<path class="st23" d="M4.2,63.5c0,0-0.1-0.1-0.2-0.1C4.1,63.5,4.2,63.5,4.2,63.5z"/>
					</g>
					<g>
						<path class="st25" d="M134.7,96.8c-0.2,0-0.3,0-0.4,0C134.4,96.8,134.5,96.8,134.7,96.8z"/>
					</g>
					<g>
						<path class="st26" d="M24.9,84.1c-0.5-0.2-0.7-0.2-1-0.1c-0.2,0-0.3,0-0.6-0.1c-0.2-0.1-0.5-0.3-1-0.6c-0.3-0.8-0.6-1.1-1-1.5
							c-0.2-0.2-0.4-0.4-0.6-0.7c-0.1-0.2-0.2-0.3-0.3-0.5c-0.1-0.2-0.2-0.4-0.3-0.7c0.5,0.1,0.8,0.1,1.2,0.2
							c0.2,0.2,0.3,0.3,0.5,0.4c-0.1,0.4,0.1,0.7,0.2,0.9c0.2,0.2,0.4,0.4,0.7,0.6c0.1,0.1,0.3,0.2,0.4,0.4c0.2,0.1,0.3,0.3,0.5,0.4
							c0.2,0.2,0.3,0.4,0.5,0.6C24.5,83.5,24.6,83.8,24.9,84.1z"/>
					</g>
					<g>
						<path class="st26" d="M25.2,84.1c-0.1,0-0.2,0-0.4,0C25,84.1,25.2,84.1,25.2,84.1z"/>
					</g>
					<g>
						<path class="st26" d="M125.8,88.7c0-0.1,0-0.2,0.1-0.2C125.9,88.5,125.8,88.6,125.8,88.7z"/>
					</g>
					<g>
						<path class="st26" d="M7.8,80.2c-0.3-0.4-0.6-0.8-0.9-1.2c-0.4-1.4-0.6-2.7-0.7-4.1c0.2-0.7,0.3-1.2,0.5-1.7
							c0.2,0.2,0.3,0.4,0.5,0.5C7.9,77.7,7.8,78.7,7.8,80.2z"/>
					</g>
					<g>
						<path class="st22" d="M105.6,101.4c-0.8-0.1-0.4,0.7-2.7,0.3c-0.8-0.1-1.7-0.1-2.6-0.2c0.5-0.4,0.9-0.7,1.2-1
							c0.3,0,0.5,0,0.9,0l0.7,0.4c0.3,0,0.5,0,0.9,0C104.6,101.1,105.1,101.2,105.6,101.4z"/>
					</g>
				</g>
			</g>
		</g>
		<g>
			<g>
				<g>
					<path class="st19" d="M18.3,86c-8.2-10.5-9.9-24.2-4.9-36.5c3.3-8,10.6-12.9,19.1-14.2c8.2-1.3,15.2,4.4,22.1,7.7
						c0.6,0.3,3.2-0.7,2.5-1.2c-2.8-1.9-2.4-7.3-2.4-10.2c0.1-5.2,1.3-10.2,4.1-14.7C65.8,5.8,80.2,2.3,92.4,1.6
						c11.6-0.7,23,1.7,31.6,10.2c10.3,10.1,8.2,25.4,4,37.8c-0.3,0.9,2.4,0.2,2.8-0.2c10.5-15.5,32-17.8,45.2-4.3
						c10.2,10.4,12.1,28.5,7.9,42.1c-0.9,2.8-3.1,5.1-5.8,6.2c-2,0.8-5.8,0.4-8,0.6c-4.6,0.3-9.1,0.6-13.7,0.8
						c-9.1,0.5-18.2,0.9-27.3,1.2c-17.9,0.6-35.8,0.9-53.7,0.7c-9.8-0.1-19.6-0.3-29.4-0.6C35.1,95.5,25.7,94.6,18.3,86
						c-0.6-0.7-3.3,0.3-2.7,1.1c6.3,7.2,13.9,9.4,23.2,10c10.7,0.6,21.5,0.7,32.3,0.8c23.1,0.3,46.3-0.2,69.4-1.2
						c11.7-0.5,23.5-1,35.1-2c6.7-0.6,10.1-3.4,11.6-10.1c3.6-16.5,0.6-36.6-15.1-45.8c-15-8.7-34.4-3.6-44,10.5
						c0.9-0.1,1.8-0.2,2.8-0.2c4.8-14,6.2-30.7-6.8-40.7c-10.3-8-22.5-9.2-35.1-7.8c-11.3,1.3-24.2,5-31.4,14.5
						C54,19.8,52.2,25.3,52,31.1c-0.1,3.4-0.7,9.6,2.5,11.7c0.8-0.4,1.7-0.8,2.5-1.2c-7.2-3.5-14-8.7-22.4-8
						c-7.1,0.6-15.7,4.2-20.3,9.7c-10.1,12.3-8,31.8,1.3,43.6C16.2,87.8,18.9,86.8,18.3,86z"/>
				</g>
			</g>
		</g>
	</g>
</g>
</svg>
