<?xml version="1.0" encoding="utf-8"?>
<!-- Generator: Adobe Illustrator 22.0.0, SVG Export Plug-In . SVG Version: 6.00 Build 0)  -->
<svg version="1.1" xmlns="http://www.w3.org/2000/svg" xmlns:xlink="http://www.w3.org/1999/xlink" x="0px" y="0px"
	 viewBox="0 0 184.4 77.8" style="enable-background:new 0 0 184.4 77.8;" xml:space="preserve">
<style type="text/css">
	.st0{fill:#FFFEFD;}
	.st1{opacity:0.9;}
	.st2{fill:#CBE5CF;}
	.st3{fill:#DCEDDF;}
	.st4{fill:#E3F1E5;}
	.st5{fill:#E0EFE2;}
	.st6{fill:#D1E8D4;}
	.st7{fill:#D4E9D7;}
	.st8{fill:#BEDEC2;}
	.st9{fill:#C3E1C7;}
	.st10{fill:#C7E2CB;}
	.st11{fill:#EEF6EF;}
	.st12{fill:#EBF5EC;}
	.st13{fill:#FEF9DA;}
	.st14{fill:#FFFDF1;}
	.st15{fill:#FDF5C7;}
	.st16{fill:#FDF2B4;}
	.st17{fill:#FCEFA5;}
	.st18{fill:#FCED95;}
	.st19{fill:#272525;}
	.st20{opacity:0.85;}
	.st21{fill:#D3E6F6;}
	.st22{fill:#C4DEF3;}
	.st23{fill:#ACD0EE;}
	.st24{fill:#E2EFF9;}
	.st25{fill:#B8D7F0;}
	.st26{fill:#9FC9EB;}
	.st27{fill:#EADAEE;}
	.st28{fill:#F7F1F8;}
	.st29{fill:#DFC7E5;}
	.st30{fill:#D5B5DC;}
	.st31{fill:#CDA6D5;}
	.st32{fill:#C497CE;}
	.st33{fill:#D8BBDF;}
	.st34{fill:#E5D1E9;}
	.st35{fill:#E8D6EB;}
	.st36{fill:#DDC3E2;}
	.st37{fill:#DFC6E4;}
	.st38{fill:#CEA9D6;}
	.st39{fill:#D2B0DA;}
	.st40{fill:#F2E9F4;}
	.st41{fill:#F0E4F2;}
	.st42{opacity:0.8;}
	.st43{opacity:0.8;fill:#DC7D5B;}
	.st44{opacity:0.8;fill:#E9AE99;}
	.st45{opacity:0.8;fill:#F0C7B8;}
	.st46{opacity:0.8;fill:#F7E1DA;}
	.st47{fill:#F7E0D8;}
	.st48{fill:#FCF3F0;}
	.st49{fill:#F2D0C4;}
	.st50{fill:#EEC0B0;}
	.st51{fill:#EBB4A0;}
	.st52{fill:#E7A790;}
	.st53{fill:#F0C6B6;}
	.st54{fill:#F5D8CE;}
	.st55{fill:#F6DCD3;}
	.st56{fill:#F1CCBF;}
	.st57{fill:#F2CFC2;}
	.st58{fill:#ECB6A3;}
	.st59{fill:#EDBDAB;}
	.st60{fill:#FAECE7;}
	.st61{fill:#F9E8E2;}
	.st62{fill:#B7E9E6;}
	.st63{fill:#CFF0EE;}
	.st64{fill:#D9F3F2;}
	.st65{fill:#D4F2F0;}
	.st66{fill:#BFECE9;}
	.st67{fill:#C3EDEA;}
	.st68{fill:#A5E4E0;}
	.st69{fill:#ACE6E3;}
	.st70{fill:#B1E7E4;}
	.st71{fill:#E8F8F7;}
	.st72{fill:#E3F6F5;}
	.st73{fill:#FDF3BA;}
	.st74{fill:#FEF7D0;}
	.st75{fill:#FEF8D5;}
	.st76{fill:#FDF4C2;}
	.st77{fill:#FDF5C5;}
	.st78{fill:#FCF0A8;}
	.st79{fill:#FDF1AF;}
	.st80{fill:#FEFBE8;}
	.st81{fill:#FEFAE4;}
	.st82{fill:#C9E1F4;}
	.st83{fill:#DBEAF7;}
	.st84{fill:#DEEDF8;}
	.st85{fill:#CFE4F5;}
	.st86{fill:#D2E5F6;}
	.st87{fill:#BBD8F1;}
	.st88{fill:#C1DCF2;}
	.st89{fill:#EDF5FB;}
	.st90{fill:#EAF3FB;}
	.st91{fill:#C5EDEB;}
	.st92{fill:#91DED9;}
	.st93{fill:#A1E3DF;}
	.st94{fill:#80D8D3;}
</style>
<g id="background">
	<rect x="-259.3" y="-678.3" class="st0" width="1200" height="800"/>
</g>
<g id="colour">
</g>
<g id="object">
	<g>
		<g>
			<g class="st1">
				<g class="st1">
					<path class="st53" d="M113.3,57.9c-0.2-0.5-0.4-1.1-0.6-1.7c0.3,0.1,0.7,0.3,1,0.4C114.6,56.9,113.3,57.4,113.3,57.9z"/>
					<path class="st53" d="M113.8,59.3C113.8,59.3,113.8,59.3,113.8,59.3c-0.2-0.4-0.3-0.8-0.5-1.2c0,0,0.1,0,0.1,0.1
						C114.2,58.5,114.6,58.7,113.8,59.3z"/>
					<path class="st54" d="M123.4,57.2C123.4,57.2,123.5,57.1,123.4,57.2c-0.3,0.4-0.5,0.7-0.8,1c-0.6,0.7-1.1,1.3-1.7,1.9
						c-1.2,1.2-2.4,2.2-3.7,3.2c-0.2,0.1-0.7,0.3-0.8,0.2c-0.1,0.1-0.9-0.3-1.1-0.6c1.4-0.7,2.9-1.7,4.6-3c0.2-0.3,0.4-0.6,1-1
						c1.1-0.8,2-1.5,2.8-2.1c0.1-0.1,0.2-0.1,0.3-0.2c0,0,0,0,0,0l0,0l-0.1,0.1C123.9,56.6,123.6,56.9,123.4,57.2z"/>
					<path class="st47" d="M123.2,57.6c0,0,0,0.1-0.1,0.1c0,0.1-0.1,0.2-0.1,0.3c-0.4,1.6-0.8,3.1-1.3,4.3c-0.1,0.7-0.2,1.4-0.1,1.8
						c-0.1,0.2-0.2,0.5-0.3,0.7c-0.8,0-1.8,0-2.7-0.1c0.3-0.4,1.4-1.7,2.5-3.4c0.5-0.8,1.1-1.7,1.5-2.6c0.1-0.2,0.2-0.4,0.3-0.7
						C123,57.9,123.1,57.7,123.2,57.6L123.2,57.6z"/>
					<path class="st55" d="M123.4,57.2c0,0-0.1,0.1-0.1,0.1c0,0,0,0.1-0.1,0.1c0,0,0,0,0,0.1l0,0l0,0l-0.1,0.2l-0.2,0.5
						c-0.3,0.6-0.6,1.2-0.9,1.8c-0.6,1.1-1.2,2-1.8,2.8c0,0-0.4,0.9-0.4,1c-0.5,0.5-0.6,0.2-1.1,1c-0.9-0.1-1.6-0.4-2.3-0.9
						c0.6-0.4,0.5,0,0.6,0.1c0.5-0.7,0.5-0.8,0.3-0.7c1.3-0.9,2.5-2,3.7-3.2c0.6-0.6,1.1-1.2,1.7-1.9
						C122.9,57.9,123.2,57.5,123.4,57.2C123.5,57.1,123.4,57.2,123.4,57.2L123.4,57.2C123.4,57.2,123.4,57.2,123.4,57.2z"/>
					<path class="st56" d="M117.5,58c1.7-0.1,4.1-0.7,6.6-1.6c-0.2,0.1-0.8,0.3-0.2,0.1c0,0-0.6,0.4,0.2-0.1
						c0.4-0.2-0.4,0.2-1.7,0.8c-1.3,0.5-2.9,1.1-4,1.4c-1.3,0.5-2.4,0.8-3.4,1c0.1-0.1,0.9-0.3,1-0.4c-0.1,0-1.1,0.3-1.1,0.3
						s-0.1-0.4-0.1-0.6c1.3-0.5,0.2-0.4-0.1-0.3l0-0.2c0,0,0,0,0,0c0.5,0,0.9,0,1.4-0.1C116.4,58.2,117.5,58,117.5,58z"/>
					<path class="st57" d="M121,58.8c1.1-0.8,2-1.5,2.8-2.1c0.1-0.1,0.2-0.1,0.3-0.2c0,0,0,0,0,0l0,0l-0.1,0.1c0,0,0.1-0.1,0.1-0.1
						c0,0,0,0,0,0c0.1,0,0.1-0.1,0.1-0.1c0,0,0.1-0.1,0.1-0.1c0,0,0.1,0,0.1-0.1c0,0,0,0,0,0c-0.2,0.1-0.4,0.2-0.6,0.3
						c0,0,0.1-0.1,0.3-0.2c-0.1,0-0.9,0.5-2,0.9c-1.1,0.4-2.5,0.9-3.7,1.3c-1.3,0.5-2.4,0.8-3.4,1c0,0,0,0.5,0,0.8
						c0.2-0.1,0.7-0.4,0.8-0.5c0,0-0.7,0.6-0.8,0.8c0,0.2,0.1,0.5,0.2,0.5c0,0,0.6-0.4,1.2-0.7c-0.8,0.6-1.2,1.1-1.4,1.5
						c0,0.1,0,0.1,0,0.2c-0.2,0.2-0.4,0.3-0.4,0.3c-0.1,0-0.2,0-0.2,0c0,0.1,0.1,0.7,0.1,0.9c0.1-0.2,0.3-0.5,0.5-0.9
						c0,0.1,0.1,0.3,0.2,0.4c0,0,0,0,0,0c1.4-0.7,2.9-1.7,4.6-3C120.2,59.6,120.4,59.2,121,58.8z"/>
					<path class="st58" d="M115.9,49.6c1.2,0.7,1.6,0.4,2.9,1.6c1.1,1.2,2.1,2.6,3.2,4.1c0.2,0.3,0.4,0.5,0.6,0.8l0,0
						c0,0,0-0.1-0.1-0.1c0,0-0.1-0.1-0.1-0.1c0,0,0,0,0,0c0,0,0.1,0.1,0.1,0.1c0,0-0.1,0-0.1-0.1c0,0,0,0,0,0c0,0,0,0,0,0
						c-0.1-0.1-0.2-0.1-0.3-0.2c-0.2-0.1-0.4-0.3-0.7-0.5c-0.3-0.2-0.6-0.4-0.9-0.6c-0.8-0.7-1-1.1-2.3-2.3c-0.8-0.7-1.8-1.4-3-2.3
						l0.1-0.1C115.9,50.3,115.7,49.9,115.9,49.6z"/>
					<path class="st59" d="M113,51.5c0.1-0.4,0.2-0.8,0.4-1.2c0.3,0.2,0.6,0.3,0.8,0.5c-0.2,0.4-0.3,0.9-0.3,1.3
						C113.6,51.9,113.3,51.7,113,51.5z"/>
					<path class="st59" d="M120.6,54.8c0.3,0.2,0.6,0.4,0.9,0.6c0.3,0.2,0.5,0.3,0.7,0.5c0.1,0.1,0.2,0.1,0.3,0.2c0.1,0,0,0,0,0
						c0,0,0,0,0,0c0,0,0.1,0,0.1,0.1c0,0,0.1,0,0.1,0c0.1,0,0.1,0.1,0.2,0.1l-0.1,0c0,0,0,0,0,0c-0.2-0.1-0.5-0.1-0.7-0.2
						c-0.6-0.2-1.2-0.3-1.2-0.3c-1.2-0.4-2-0.8-2.8-1.5c-0.8-0.6-1.7-1.4-3.3-2.8c0-0.5,0.2-0.9,0.5-1.3c1.2,0.9,2.1,1.5,3,2.3
						C119.6,53.7,119.7,54.1,120.6,54.8z"/>
					<path class="st50" d="M120.9,55.8c0,0,0.6,0.1,1.2,0.3c0.3,0.1,0.5,0.1,0.7,0.2c0,0,0,0,0,0l0.1,0c0.1,0,0.3,0.1,0.5,0.1
						c0,0,0,0,0,0c0.1,0,0.1,0,0.2,0c0,0,0.2,0,0,0c-1.4,0.1-2.9,0-4.3-0.1c1-0.1,1.9-0.1,2.7,0c0.4,0,0.8,0.1,1,0.1
						c-0.1,0-0.1,0-0.1,0c0,0,0,0,0,0c0,0,0.1,0-0.2,0c-0.5-0.1-1.1-0.2-1.2-0.2c-1-0.1-2.5-0.3-4-0.4c-1.5-0.1-3-0.2-3.8-0.4
						c-0.1-0.4-0.2-0.9-0.2-1.4c0-0.5,0-1,0.1-1.6c0.5,0.1,1.2,0.3,1.2,0.3c-0.1-0.3-0.1-0.6-0.1-1c1.6,1.4,2.5,2.2,3.3,2.8
						C119,54.9,119.7,55.4,120.9,55.8z"/>
					<path class="st53" d="M119.5,56.2c1.4,0.2,2.8,0.2,4.3,0.1c-0.1,0-0.2,0-0.3,0l0.5,0l0.1,0l0,0l0,0l0.1,0c0,0,0,0,0,0
						c-0.1,0-0.2,0-0.3,0c-0.1,0-0.1,0,0,0c0,0,0.1,0,0.3,0l0.1,0c-0.4,0.1-0.8,0.1-1.5,0.3l1.1-0.2c0.7-0.1,0,0,0,0
						c0.1,0,0.4-0.1,0.6-0.1c0,0,0,0,0,0c0,0-0.1,0-0.1,0c-0.1,0-0.1,0-0.1,0c0,0,0,0,0.1,0c0.1,0,0.4-0.1,0.3-0.1
						c-0.2,0.1-0.3,0.1-0.4,0.1c-2.5,0.8-4.9,1.4-6.6,1.6c0,0-1,0.3-1.4,0.3c-0.4,0-0.9,0.1-1.4,0.1c0.8-0.4,0.7-0.6,0.4-0.8
						c-0.3-0.2-0.8-0.3-0.8-0.3c0-0.1,0-0.1-0.1-0.2c0.1-0.2,0.5-0.5,0.7-0.8c0.2-0.3,0-0.5-1.2-0.9c0-0.1,0-0.1,0-0.2
						c0.9,0.2,2.3,0.3,3.8,0.4c1.5,0.1,3,0.3,4,0.4c0.2,0,0.8,0.1,1.3,0.2c0.1,0,0.1,0,0.1,0c0,0,0.1,0,0.2,0
						c-0.5-0.1-1-0.1-1.6-0.1C120.5,56.1,119.4,56.2,119.5,56.2z"/>
					<path class="st60" d="M123.3,60.4c0.1,0.2,0.2,0.4,0.3,0.6c-0.1,0-0.2-0.4-0.2,0.5c-0.1-0.3-0.1-0.3-0.2-0.3
						C123.2,60.9,123.3,60.6,123.3,60.4z"/>
					<path class="st60" d="M123.2,65.6l-0.2,0c0-0.7,0.1-1.4,0.2-1.1c0-0.7-0.1,0-0.1-0.4c0-1,0-1,0.1-0.9c0.1,1.6,0,3.2-0.1,3.2
						l-0.1,0C123.1,66.2,123.2,66,123.2,65.6z"/>
					<path class="st61" d="M121.6,64.1c-0.1-0.4,0-1.1,0.1-1.8c0.5-1.2,1-2.7,1.3-4.3c-0.1,0.7-0.1,1.3,0,1.9c0,0.2-0.1,0.5-0.1,0.8
						c0,0,0.1,0,0.1,0.3c0,0.2,0,0.4,0,0.6l0,0c0-0.1-0.1-0.1-0.1,0.9c0,0.4,0.1-0.4,0.1,0.4c-0.1-0.4-0.2,0.4-0.2,1.1l0.1,0
						c0,0.4-0.1,0.6-0.2,0.9c-0.5,0-0.9,0-1.4,0C121.4,64.6,121.5,64.4,121.6,64.1z"/>
				</g>
			</g>
		</g>
		<g>
			<g class="st1">
				<g class="st1">
					<path class="st53" d="M18.6,62.4c-0.9,0.1-1.8,0.3-2.7,0.5c0.2-0.3,0.4-0.7,0.6-1C17.2,61.1,17.9,62.3,18.6,62.4z"/>
					<path class="st53" d="M21,62.1C21,62.1,21,62.2,21,62.1c-0.7,0.1-1.4,0.1-2.1,0.2c0,0,0.1,0,0.1-0.1
						C19.8,61.6,20.4,61.3,21,62.1z"/>
					<path class="st54" d="M31.9,50.9c-0.6,3.8-1.4,6.9-2.2,10.1c-0.2,0.2-0.4,0.7-0.6,0.7c0,0.1-1.2,0.5-1.8,0.5
						c0.3-1.6,0.6-3.4,0.8-5.5c-0.3-0.4-0.7-0.7-0.8-1.4c0.1-2.7,0.5-4.4,1-6C28.7,49.4,30.8,51.3,31.9,50.9z"/>
					<path class="st47" d="M34.6,51.3c0.7,0.2,1.7,1.4,2.1,1.8c-0.2,1.6-0.4,3.2-0.7,4.5c0.3,0.7,0.4,1.4,0.7,1.8
						c-0.1,0.3-0.1,0.5-0.2,0.8c-1.2,0.3-2.4,0.6-3.6,1C33,60.3,34.3,54.2,34.6,51.3z"/>
					<path class="st55" d="M32.5,51.6c0.3-0.2,0.5-0.4,0.8-0.6c0.5,0,0.9,0.1,1.4,0.4c-0.3,2.9-0.7,5.5-1.2,7.5c0.1,0,0.2,1,0.3,1
						c-0.4,0.7-0.7,0.5-0.7,1.4c-1.1,0.3-2.2,0.7-3.4,0.8c0.2-0.7,0.5-0.4,0.7-0.4c-0.1-0.9-0.3-0.9-0.5-0.7
						c0.7-3.2,1.5-6.4,2.2-10.1c0.1,0,0.2,0,0.2,0C32.3,51.4,32.3,51.8,32.5,51.6z"/>
					<path class="st56" d="M20.2,58.3c0.7-1.7,1.1-4.1,1.4-6.8c0.2,0.2,0.6,0.8,0.9,0.2c0.5,0,1.7,0.7,1.8-0.3
						c0.2-0.9-1.1,3.9-1.6,6.1c0,1.4-0.3,2.5-0.6,3.6c-0.1-0.1,0-1-0.1-1.1c0,0.1-0.2,1.1-0.2,1.1s-0.8,0-1.1,0
						c-0.2-1.4-0.7-0.3-0.7,0c-0.1,0-0.2,0-0.3,0c0,0,0,0,0,0c0.1-0.5,0.3-0.9,0.4-1.3C20.2,59.4,20.2,58.3,20.2,58.3z"/>
					<path class="st57" d="M27.5,55.3c0.1-2.7,0.5-4.4,1-6c-0.2-0.1-0.7-0.5-0.8-0.5c0.1,0.6,0.2,1.3,0.1,1.5
						c-0.3,0.4-0.7,0.7-1,0.7c-0.3-0.2-0.7-1-1-1.4c-0.3,0.2-0.5,0.5-0.8,0.8c0,0-0.1,1-0.1,1.4c-0.2,0-0.4-0.1-0.5-0.3
						c0,0.2-1.4,3.6-1.6,6.1c0,1.4-0.3,2.5-0.6,3.6c0,0,0.9,0.2,1.4,0.2c0-0.3-0.2-0.8-0.2-0.9c0.1,0,0.5,0.8,0.7,1
						c0.3,0.1,1,0.1,1,0c0.1,0-0.1-0.7-0.1-1.4c0.4,1,0.7,1.6,1.1,2c0.1,0,0.2,0,0.3,0.1c0,0.3,0.1,0.5,0,0.5
						c-0.1,0.1-0.1,0.1-0.2,0.2c0.2,0.1,1,0.3,1.2,0.3c-0.2-0.2-0.4-0.5-0.6-0.9c0.2,0,0.4,0.1,0.6,0.1c0,0,0,0,0,0
						c0.3-1.6,0.6-3.4,0.8-5.5C28,56.4,27.5,56,27.5,55.3z"/>
					<path class="st58" d="M6.6,62.5c-0.5-1.4-1.2-1.3-1.6-3.1c-0.7-3.2-0.5-7-0.8-10.8c1.9,1.4,3.8,2.2,5.7,2.5
						c-0.4,1.6-1.3,0.7-1.6,3.4c0,0.4,0.2,0.7,0.3,1.1c-0.5,1.1-1.3,1.5-1.2,3.3c0,1.1,0.2,2.3,0.3,3.7c-0.1,0-0.1,0-0.2,0
						C7.3,62.1,7,62.5,6.6,62.5z"/>
					<path class="st59" d="M10.2,63.8c-0.4,0.1-0.9,0.2-1.3,0.3c0-0.3,0-0.7,0-1c0.5,0,1-0.2,1.6-0.4C10.3,63.1,10.3,63.4,10.2,63.8
						z"/>
					<path class="st59" d="M8.6,55.6c-0.1-0.4-0.3-0.7-0.3-1.1c0.3-2.6,1.2-1.7,1.6-3.4c0.7,0.1,1.5,0.2,2.2,0.3
						c-0.1,0.3-0.2,0.6-0.4,0.9c0.4,0,0.5,2.5,0.9,2.5c-1.1,2.6-2.7,3.2-3.5,7.4c-0.5,0.2-1,0.3-1.6,0.4c-0.1-1.4-0.3-2.6-0.3-3.7
						C7.3,57.1,8.1,56.7,8.6,55.6z"/>
					<path class="st50" d="M12.7,54.8c-0.4,0-0.5-2.5-0.9-2.5c0.1-0.3,0.2-0.6,0.4-0.9c0.8,0,1.7,0,2.5,0c0.1,0,0.1,0.1,0.2,0.1
						c0.7,0.3,1.2,0.1,1.8,0.4c-0.4,1.4-0.8,2.9-1.1,4.3c-0.8-2-1.7-3.6-2.6-4.6c0.3,0.4,0.3,2.2,0.4,2.5c0.6,2,1.2,6.1,1,7.9
						c-1.3,0.3-2.5,0.6-3.8,1c-0.1-0.5-0.2-1.2-0.3-1.2c-0.4,0.2-0.7,0.4-1.1,0.5C10,58,11.6,57.5,12.7,54.8z"/>
					<path class="st53" d="M15.5,56.2c0.4-1.4,0.8-2.8,1.1-4.3c0.2,0.1,0.3,0.2,0.5,0.3c0-0.3,0-0.6-0.1-0.9c0.1,0,0.2,0,0.3,0
						c0.1,0.2,0.3,1.3,0.5,0c0.2,0,0.3,0,0.5,0c0.2,0.4,0.3,1,0.4,1.7c0-0.4,0-0.7,0-1.1c0.2-0.7,0.3,0,0.5,0c0-0.2,0-0.5,0-0.7
						c0.8,0.9,1.8-0.1,2-0.1c0.1,0.2,0.2,0.3,0.3,0.5c-0.3,2.7-0.8,5.1-1.4,6.8c0,0,0,1.1-0.1,1.4c-0.1,0.4-0.3,0.9-0.4,1.3
						c-0.9-1.7-2,0.2-2.1,0.2c-0.1,0-0.3,0-0.4,0.1c-0.7-0.1-1.9-2-2.7,0.5c-0.1,0-0.2,0-0.3,0.1c0.3-1.8-0.3-5.9-1-7.9
						c-0.2-0.4-0.7-2.4-0.4-2.5C13.9,51.9,15.6,56.3,15.5,56.2z"/>
					<path class="st60" d="M39.9,55.5c0.3,0.2,0.6,0.4,0.9,0.6c-0.3,0-0.6-0.4-0.8,0.5c-0.1-0.3-0.3-0.3-0.4-0.3
						C39.7,56,39.8,55.7,39.9,55.5z"/>
					<path class="st60" d="M39.5,60.7c-0.1,0-0.2,0-0.2,0c0-0.7,0.1-1.4,0.3-1.1c0-0.7-0.2,0-0.2-0.4c0-1,0.1-1,0.2-0.9
						c0,1.6-0.1,3.2-0.2,3.2c-0.1,0-0.1,0-0.2,0C39.3,61.3,39.4,61.1,39.5,60.7z"/>
					<path class="st61" d="M36.7,59.5c-0.3-0.4-0.4-1.1-0.7-1.8c0.3-1.3,0.5-2.9,0.7-4.5c0.7,0.7,1.5,1.3,2.2,1.8
						c-0.1,0.2-0.3,0.5-0.4,0.8c0.2,0,0.3,0,0.4,0.3c0,0.2-0.1,0.4-0.1,0.6c0,0,0,0,0,0c-0.1-0.1-0.2-0.1-0.2,0.9
						c0,0.4,0.2-0.4,0.2,0.4c-0.2-0.4-0.3,0.4-0.3,1.1c0.1,0,0.2,0,0.2,0c0,0.4-0.2,0.6-0.3,0.9c-0.7,0-1.4,0.1-2.1,0.3
						C36.6,60,36.7,59.7,36.7,59.5z"/>
				</g>
			</g>
		</g>
		<g>
			<g class="st1">
				<g class="st1">
					<path class="st53" d="M79.5,65.2c-1.2,0.2-2.4,0.4-3.7,0.6c0.3-0.3,0.5-0.7,0.8-1C77.5,63.9,78.5,65.1,79.5,65.2z"/>
					<path class="st53" d="M82.9,64.8L82.9,64.8c-1,0.1-1.9,0.2-2.8,0.3c0.1,0,0.1-0.1,0.2-0.1C81.1,64.3,82,63.9,82.9,64.8z"/>
					<path class="st54" d="M98.4,53.7c-1.1,3.7-2.3,6.9-3.4,10c-0.3,0.2-0.6,0.7-0.8,0.7c0,0.1-1.7,0.5-2.5,0.4
						c0.5-1.6,0.9-3.4,1.3-5.5c-0.3-0.4-1-0.7-1-1.4c0.2-2.7,0.9-4.4,1.6-6C93.8,52,96.8,54.1,98.4,53.7z"/>
					<path class="st47" d="M102.2,54.3c1,0.2,2.4,1.5,2.9,2c-0.4,1.6-0.8,3.1-1.3,4.4c0.3,0.7,0.5,1.5,0.8,1.8
						c-0.1,0.3-0.2,0.5-0.3,0.8c-1.7,0.2-3.4,0.5-5.1,0.8C99.4,63.1,101.7,57.2,102.2,54.3z"/>
					<path class="st55" d="M99.1,54.4c0.4-0.2,0.8-0.4,1.1-0.6c0.7,0.1,1.3,0.2,2,0.4c-0.6,2.9-1.3,5.4-2.2,7.4c0.1,0,0.2,1,0.3,1
						c-0.6,0.7-0.9,0.4-1.1,1.4c-1.6,0.3-3.1,0.6-4.7,0.7c0.3-0.7,0.7-0.3,1-0.3c-0.1-0.9-0.4-0.9-0.6-0.7c1.1-3.2,2.4-6.3,3.4-10
						l0.3,0C98.9,54.2,98.9,54.6,99.1,54.4z"/>
					<path class="st56" d="M81.7,61c0.9-1.7,1.5-4.2,2-6.8c0.3,0.2,0.9,0.8,1.3,0.2c0.8,0,2.4,0.7,2.6-0.3c0.2-0.9-1.6,3.9-2.3,6.1
						c-0.1,1.4-0.4,2.5-0.8,3.6c-0.1-0.1,0-1-0.2-1.1c0,0.1-0.2,1.1-0.2,1.1s-1.1,0-1.6,0c-0.3-1.4-0.9-0.3-0.9,0l-0.5,0l0,0
						c0.2-0.5,0.4-0.9,0.6-1.4C81.7,62.1,81.7,61,81.7,61z"/>
					<path class="st57" d="M91.9,57.9c0.2-2.7,0.9-4.4,1.6-6c-0.3-0.1-1-0.5-1.1-0.6c0.1,0.6,0.2,1.3,0.1,1.5
						c-0.5,0.4-1,0.7-1.4,0.7c-0.4-0.2-0.9-1-1.4-1.5c-0.4,0.2-0.8,0.5-1.2,0.8c0,0-0.2,1-0.2,1.4c-0.3,0-0.5-0.1-0.8-0.3
						c0,0.2-2.1,3.6-2.3,6.1c-0.1,1.4-0.4,2.5-0.8,3.6c0,0,1.3,0.2,1.9,0.2c0-0.3-0.3-0.8-0.3-0.9c0.1,0,0.7,0.8,0.9,1
						c0.4,0.1,1.3,0.1,1.4,0c0.1,0-0.1-0.7-0.1-1.4c0.5,1,1,1.6,1.5,2l0.4,0.1c0,0.3,0.1,0.5,0,0.5c-0.1,0.1-0.2,0.1-0.3,0.2
						c0.3,0.1,1.3,0.3,1.6,0.4c-0.3-0.2-0.6-0.5-0.9-0.9c0.3,0,0.6,0.1,0.9,0.1l0,0c0.5-1.5,0.9-3.4,1.3-5.4
						C92.6,59,91.9,58.7,91.9,57.9z"/>
					<path class="st58" d="M63,66.1c-0.7-1.3-1.7-1.2-2.5-2.9c-1.2-3.1-1.2-6.9-1.9-10.7c2.9,1.2,5.6,1.7,8.4,1.9
						c-0.6,1.6-1.8,0.9-2.1,3.5c0,0.4,0.3,0.7,0.4,1c-0.6,1.1-1.7,1.6-1.5,3.4c0.1,1.1,0.4,2.3,0.6,3.7l-0.2,0
						C63.8,65.6,63.5,66,63,66.1z"/>
					<path class="st59" d="M68,67.1l-1.8,0.4c0-0.3-0.1-0.7-0.1-1c0.7-0.1,1.4-0.3,2.1-0.5C68.1,66.3,68.1,66.7,68,67.1z"/>
					<path class="st59" d="M65.3,59c-0.1-0.3-0.4-0.7-0.4-1c0.3-2.6,1.6-1.9,2.1-3.5c1.1,0.1,2.1,0.1,3.2,0.1
						c-0.2,0.3-0.3,0.6-0.5,0.9c0.6,0,0.9,2.5,1.4,2.4c-1.5,2.7-3.7,3.4-4.6,7.7c-0.7,0.3-1.4,0.4-2.1,0.5c-0.2-1.4-0.5-2.6-0.6-3.7
						C63.6,60.6,64.7,60.2,65.3,59z"/>
					<path class="st50" d="M71.1,57.9c-0.6,0-0.9-2.5-1.4-2.4c0.2-0.3,0.3-0.6,0.5-0.9c1.2,0,2.4-0.1,3.6-0.2c0.1,0,0.2,0.1,0.2,0.1
						c0.9,0.2,1.7,0,2.6,0.3c-0.5,1.5-1,2.9-1.5,4.3c-1.2-1.9-2.5-3.5-3.9-4.4c0.5,0.3,0.5,2.1,0.7,2.5c1,1.9,1.9,6,1.6,7.8
						c-1.7,0.4-3.5,0.8-5.2,1.2C68.3,65.7,68,64.9,68,65c-0.5,0.2-1,0.4-1.4,0.6C67.4,61.3,69.6,60.6,71.1,57.9z"/>
					<path class="st53" d="M75.1,59.1c0.5-1.4,1-2.9,1.5-4.3c0.2,0.1,0.5,0.2,0.7,0.3c0-0.3,0-0.6-0.1-0.9l0.5,0
						c0.2,0.2,0.4,1.3,0.7-0.1l0.7-0.1c0.3,0.4,0.5,1,0.6,1.7l0-1.1c0.2-0.7,0.5,0,0.7,0c0-0.2,0-0.5,0-0.7c1.1,0.8,2.6-0.1,2.9-0.2
						c0.2,0.2,0.3,0.3,0.5,0.5c-0.5,2.7-1.1,5.1-2,6.8c0,0,0,1.1-0.1,1.4c-0.2,0.4-0.4,0.9-0.6,1.4c-1.3-1.7-2.8,0.3-2.8,0.3
						l-0.5,0.1c-1-0.1-2.6-1.9-3.7,0.7l-0.4,0.1c0.3-1.8-0.6-5.9-1.6-7.8c-0.2-0.3-1.1-2.3-0.7-2.5C72.7,54.9,75.2,59.2,75.1,59.1z"
						/>
					<path class="st60" d="M109.5,58.9c0.4,0.2,0.8,0.5,1.1,0.7c-0.4,0-0.8-0.4-1.1,0.4c-0.2-0.3-0.4-0.3-0.6-0.3
						C109.1,59.3,109.3,59.1,109.5,58.9z"/>
					<path class="st60" d="M108.4,64l-0.3,0c0-0.7,0.3-1.4,0.5-1.1c0-0.7-0.2,0-0.2-0.4c0.1-1,0.2-1,0.3-0.9
						c-0.1,1.6-0.3,3.2-0.5,3.2l-0.2,0C108.1,64.5,108.3,64.4,108.4,64z"/>
					<path class="st61" d="M104.7,62.5c-0.3-0.4-0.5-1.1-0.8-1.8c0.5-1.3,0.9-2.8,1.3-4.4c1,0.8,2,1.4,3,2c-0.2,0.2-0.4,0.4-0.6,0.8
						c0.2,0,0.4,0,0.6,0.3c-0.1,0.2-0.1,0.4-0.1,0.6l0,0c-0.1-0.1-0.3-0.1-0.3,0.9c0,0.4,0.2-0.3,0.2,0.4c-0.2-0.4-0.5,0.3-0.5,1.1
						l0.3,0c-0.1,0.4-0.3,0.6-0.4,0.9c-1,0-2,0-2.9,0.1C104.5,63.1,104.6,62.8,104.7,62.5z"/>
				</g>
			</g>
		</g>
		<g>
			<g class="st1">
				<g class="st1">
					<path class="st53" d="M152,60.5c-1.3,0.3-2.5,0.6-3.8,1c0.2-0.4,0.5-0.7,0.7-1.1C149.7,59.4,150.9,60.5,152,60.5z"/>
					<path class="st53" d="M155.5,59.8L155.5,59.8c-1,0.1-2,0.3-3,0.5c0.1,0,0.1-0.1,0.2-0.1C153.5,59.5,154.4,59,155.5,59.8z"/>
					<path class="st54" d="M171.1,47.6c-0.9,3.8-2,7-3,10.2c-0.3,0.2-0.6,0.7-0.8,0.8c0,0.1-1.7,0.6-2.6,0.6c0.4-1.6,0.7-3.4,1-5.5
						c-0.4-0.3-1.1-0.6-1.2-1.4c0-2.7,0.6-4.5,1.3-6.1C166.1,46.2,169.5,48,171.1,47.6z"/>
					<path class="st47" d="M175.3,47.9c1.1,0.2,2.6,1.4,3.2,1.8c-0.3,1.6-0.7,3.2-1.1,4.5c0.4,0.7,0.6,1.4,1,1.8
						c-0.1,0.3-0.2,0.5-0.3,0.8c-1.8,0.3-3.6,0.7-5.3,1.1C172.8,56.9,174.8,50.8,175.3,47.9z"/>
					<path class="st55" d="M171.9,48.2c0.4-0.2,0.8-0.4,1.1-0.7c0.7,0,1.4,0.1,2.2,0.3c-0.4,2.9-1.1,5.5-1.9,7.5c0.1,0,0.3,1,0.4,1
						c-0.6,0.7-1,0.5-1.1,1.5c-1.6,0.4-3.3,0.8-4.9,1c0.3-0.7,0.7-0.4,1-0.4c-0.2-0.8-0.5-0.9-0.7-0.7c1-3.2,2.1-6.4,3-10.2l0.4,0
						C171.6,48,171.7,48.5,171.9,48.2z"/>
					<path class="st56" d="M153.9,56.1c0.8-1.8,1.3-4.3,1.6-7c0.3,0.2,1,0.7,1.4,0c0.8,0,2.6,0.5,2.7-0.5c0.2-0.9-1.4,4.1-1.9,6.3
						c0.1,1.4-0.2,2.6-0.6,3.6c-0.2-0.1-0.1-1-0.3-1.1c0,0.1-0.2,1.1-0.2,1.1s-1.1,0.1-1.7,0.1c-0.4-1.4-1-0.2-1,0.1l-0.5,0.1l0,0
						c0.2-0.5,0.3-1,0.5-1.4C154,57.2,153.9,56.1,153.9,56.1z"/>
					<path class="st57" d="M164.5,52.2c0-2.7,0.6-4.5,1.3-6.1c-0.3-0.1-1.1-0.4-1.2-0.5c0.1,0.6,0.3,1.3,0.2,1.5
						c-0.5,0.4-1.1,0.8-1.4,0.8c-0.5-0.2-1.1-1-1.6-1.3c-0.4,0.3-0.8,0.5-1.2,0.8c0,0-0.2,1-0.1,1.5c-0.3,0-0.6-0.1-0.8-0.3
						c0,0.2-2,3.8-1.9,6.3c0.1,1.4-0.2,2.6-0.6,3.6c0,0,1.4,0,2,0.1c0-0.3-0.3-0.8-0.4-0.9c0.1,0,0.8,0.8,1.1,0.9
						c0.4,0,1.4,0,1.5-0.1c0.1,0-0.2-0.7-0.2-1.4c0.6,0.9,1.2,1.5,1.7,1.9l0.4,0c0.1,0.3,0.1,0.5,0.1,0.5c-0.1,0.1-0.2,0.2-0.3,0.2
						c0.3,0,1.4,0.2,1.7,0.2c-0.3-0.2-0.6-0.5-1-0.9l0.9,0l0,0c0.4-1.6,0.7-3.4,1-5.5C165.3,53.3,164.6,53,164.5,52.2z"/>
					<path class="st58" d="M134.7,63.2c-0.9-1.2-1.9-1-2.9-2.6c-1.6-3-2-6.7-3.2-10.4c3.2,0.8,6.2,1,9.1,0.8
						c-0.4,1.7-1.8,1.1-1.9,3.7c0.1,0.4,0.4,0.7,0.6,1c-0.5,1.2-1.6,1.8-1.3,3.6c0.2,1.1,0.7,2.2,1,3.6l-0.3,0.1
						C135.5,62.6,135.2,63.1,134.7,63.2z"/>
					<path class="st59" d="M140,63.6l-1.9,0.6c-0.1-0.3-0.1-0.7-0.2-1c0.7-0.2,1.5-0.4,2.2-0.8C140.1,62.8,140.1,63.2,140,63.6z"/>
					<path class="st59" d="M136.4,55.9c-0.2-0.3-0.5-0.6-0.6-1c0.1-2.7,1.5-2,1.9-3.7c1.1-0.1,2.2-0.2,3.4-0.3
						c-0.1,0.3-0.3,0.6-0.4,1c0.6-0.1,1.1,2.4,1.8,2.3c-1.3,2.9-3.6,3.8-4.1,8.2c-0.7,0.3-1.4,0.6-2.2,0.8c-0.4-1.4-0.8-2.5-1-3.6
						C134.8,57.7,135.9,57.1,136.4,55.9z"/>
					<path class="st50" d="M142.4,54.1c-0.6,0.1-1.1-2.4-1.8-2.3c0.1-0.3,0.3-0.6,0.4-1c1.3-0.2,2.6-0.4,3.8-0.6
						c0.1,0,0.2,0.1,0.3,0.1c1,0.1,1.8-0.1,2.8,0c-0.4,1.5-0.8,3-1.2,4.5c-1.4-1.8-3-3.2-4.5-4c0.5,0.3,0.7,2.1,1,2.4
						c1.2,1.8,2.6,5.8,2.4,7.6c-1.8,0.5-3.6,1.2-5.3,1.8c-0.2-0.4-0.5-1.1-0.6-1.1c-0.5,0.3-1,0.5-1.4,0.8
						C138.9,57.9,141.1,57,142.4,54.1z"/>
					<path class="st53" d="M146.8,54.8c0.4-1.4,0.8-3,1.2-4.5c0.2,0,0.5,0.1,0.8,0.2c0-0.3-0.1-0.6-0.2-0.9l0.5-0.1
						c0.2,0.2,0.6,1.2,0.7-0.1l0.7-0.1c0.3,0.4,0.6,0.9,0.8,1.7l-0.1-1.1c0.2-0.7,0.5-0.1,0.7-0.1c0-0.2-0.1-0.5-0.1-0.7
						c1.3,0.7,2.8-0.4,3.1-0.4c0.2,0.2,0.4,0.3,0.6,0.4c-0.3,2.7-0.7,5.2-1.6,7c0,0,0.1,1.1,0,1.4c-0.2,0.5-0.3,0.9-0.5,1.4
						c-1.5-1.6-2.9,0.5-3,0.6l-0.5,0.1c-1.1,0-2.9-1.6-3.8,1l-0.4,0.1c0.2-1.8-1.2-5.8-2.4-7.6c-0.3-0.3-1.4-2.2-1-2.4
						C143.9,50.9,146.9,55,146.8,54.8z"/>
					<path class="st60" d="M183.2,52.2c0.4,0.2,0.8,0.4,1.3,0.6c-0.5,0-0.9-0.4-1.2,0.4c-0.2-0.3-0.4-0.3-0.7-0.3
						C182.8,52.6,183,52.4,183.2,52.2z"/>
					<path class="st60" d="M182.3,57.3l-0.4,0c0-0.7,0.2-1.4,0.5-1.1c0-0.7-0.2,0-0.2-0.4c0-1,0.1-1,0.3-0.9c0,1.6-0.2,3.2-0.4,3.2
						l-0.2,0C182.1,57.9,182.3,57.7,182.3,57.3z"/>
					<path class="st61" d="M178.3,56c-0.4-0.4-0.6-1.1-1-1.8c0.4-1.3,0.8-2.9,1.1-4.5c1.1,0.7,2.2,1.3,3.3,1.9
						c-0.2,0.2-0.4,0.5-0.6,0.8c0.2,0,0.5,0,0.7,0.3c0,0.2-0.1,0.4-0.1,0.6v0c-0.2-0.1-0.3-0.1-0.3,0.9c0,0.4,0.2-0.4,0.2,0.4
						c-0.2-0.4-0.5,0.4-0.5,1.1l0.4,0c-0.1,0.4-0.3,0.6-0.4,0.9c-1,0-2.1,0.1-3.1,0.2C178.2,56.5,178.2,56.3,178.3,56z"/>
				</g>
			</g>
		</g>
		<g>
			<g class="st1">
				<g class="st1">
					<path class="st53" d="M42.6,70.5c-0.8-0.9-1.6-1.8-2.3-2.8c0.4,0.1,0.8,0.1,1.2,0.2C42.7,68.2,42.1,69.6,42.6,70.5z"/>
					<path class="st53" d="M44.9,72.9C44.9,72.9,44.9,73,44.9,72.9c-0.7-0.7-1.3-1.4-1.9-2.1c0.1,0,0.1,0.1,0.2,0.1
						c0.5,0.2,1,0.3,1.3,0.6C44.7,71.9,44.9,72.3,44.9,72.9z"/>
					<path class="st54" d="M54,65.4c3.4,1.6,5.7,4.2,7,7.5c-0.1,0.4,0,1.1-0.3,1.3c0,0-0.3,0.5-0.9,1.1c-0.3,0.3-0.7,0.5-1.1,0.8
						c-0.4,0.2-0.8,0.4-1.1,0.6c0.2-1.8-0.2-3.7-1.1-5.6c-0.4-0.1-1.1-0.2-1.4-0.9c-0.5-1.3-0.9-2.3-1.3-3.2
						c-0.2-0.4-0.4-0.8-0.7-1.2c-0.1-0.1-0.1-0.2-0.2-0.3l-0.1-0.1c0,0-0.1-0.1-0.2-0.2c0.1,0.2,0.3,0.3,0.5,0.4
						C53.6,65.7,54.2,65.6,54,65.4z"/>
					<path class="st47" d="M54.7,64.3c0.2-0.4,1.4-1.3,1.8-1.7c1.6,0,3.2,0.1,4.5,0.4c0.7-0.3,1.4-0.6,1.7-1
						c0.3,0.1,0.5,0.1,0.8,0.2c0.4,1.6,0.8,3.5,0.5,5.7c-0.5-0.2-2-1.3-3.9-2.1C58.4,65,56.2,64.5,54.7,64.3z"/>
					<path class="st55" d="M54.7,65.5c-0.2-0.1-0.3-0.3-0.5-0.5c0.1-0.2,0.2-0.4,0.5-0.7c2.9,0.3,5.4,1.1,7.2,2.2c0-0.1,1,0,1.1-0.1
						c0.6,0.7,0.2,1.1,1.1,1.5c-0.3,2.2-1.1,4.3-2.7,6c-0.2-0.8,0.4-0.9,0.7-1.3c-0.8-0.4-1-0.2-1.1,0.2c-1.3-3.2-3.6-5.8-7-7.5
						l0-0.1C54.5,65.5,54.9,65.6,54.7,65.5z"/>
					<path class="st56" d="M47.1,69.6c1.8-0.5,4-1.7,6-3.5c-0.1,0.3-0.3,0.9,0.2,0.4c0.1,0.1,0.1,0.3,0.2,0.4c0,0,0.1,0.1,0.1,0
						c0,0,0-0.1,0.1-0.1c0,0,0.1-0.2,0.1-0.2c0,0,0,0,0,0c0,0,0,0,0,0c0,0,0,0.1-0.1,0.2c-0.1,0.3-0.4,0.9-0.7,1.5
						c-0.7,1.2-2.1,2.4-3,3.1c-0.9,1.1-1.9,1.8-3,2.2c-0.1-0.2,0.6-0.7,0.6-0.9c-0.1,0.1-1,0.6-1,0.6s-0.2-0.2-0.5-0.5
						c-0.2-0.3-0.5-0.6-0.7-0.8c0.9-1.1-0.3-0.8-0.6-0.7l-0.3-0.3l0,0c0.5-0.1,0.9-0.3,1.4-0.4C46.3,70.3,47.1,69.6,47.1,69.6z"/>
					<path class="st57" d="M55.2,70.1c-0.5-1.3-0.9-2.3-1.3-3.2c-0.2-0.4-0.4-0.8-0.7-1.2c-0.1-0.1-0.1-0.2-0.2-0.3l-0.1-0.1
						c0.1,0.1,0.3,0.5,0.4,0.6c0,0-0.1-0.1,0,0c0.1,0.1,0.1,0.2,0.2,0.4c0.1,0.1,0.1,0.2,0.1,0.3c0,0.1,0.1,0.2,0.1,0.3
						c0,0.1,0,0.1,0,0.2c0,0,0,0.1,0,0.1l0,0c0-0.1,0-0.1,0-0.2l0-0.1c0-0.1,0-0.1,0-0.2c0-0.1-0.1,0.2-0.2,0.5
						c-0.2,0.4-0.4,0.8-0.8,1.3c-0.7,1-2,1.9-2.8,2.9c-0.9,1.1-1.9,1.8-3,2.2c0,0,0.1,0.1,0.2,0.2c0.1,0.1,0.3,0.3,0.5,0.5
						c0.4,0.4,0.9,0.8,1.3,1c0.1-0.2,0.1-0.9,0.1-1c0.1,0.1,0.4,1.2,0.7,1.5c0.3,0.2,0.8,0.4,1.2,0.6c0.5,0.2,0.9,0.2,1,0.2
						c0.2,0-0.1-0.7,0.1-1.4c0.5,1.1,1.4,1.8,2.4,2.1c0.3,0,0.5,0,0.8,0c0.1,0.3,0.2,0.4,0.1,0.5c-0.2,0.1-0.3,0.2-0.5,0.2
						c0.3,0,0.9,0,1.6-0.1c0.7-0.1,1.3-0.2,1.6-0.3c-0.6,0-1.2-0.1-1.8-0.4c0.5-0.1,1-0.2,1.5-0.4l0.1,0c0.2-1.8-0.2-3.6-1.1-5.5
						C56.1,70.9,55.4,70.8,55.2,70.1z"/>
					<path class="st58" d="M39.4,51.7c1-0.2,1.8-0.8,3.1-1.2c0.6-0.2,1.3-0.3,1.9-0.2c0.6,0.1,1.2,0.4,1.6,0.9
						c0.5,0.9,0.5,1.7,0.3,2.6c-0.1,0.4-0.2,0.9-0.3,1.3c-0.1,0.4-0.4,1-0.3,0.9c0,0.1,0,0.1-0.1,0.2c0.1-0.1,0.2-0.3,0.2-0.5
						c0,0,0-0.2,0-0.2c0,0,0-0.1,0,0.1c0,0,0,0.1,0.1,0.1c0,0.1,0.1,0.1,0.1,0.2c0.4,0.5,1.4,1.2,2.2,1.5c1.9,0.7,1.3,0.1-0.8,0.5
						c0.1,0,0.2-0.1,0.4-0.1c0.1,0,0.1,0,0.2,0c0,0,0.1,0,0.1,0l0,0l0,0c-0.2,0-0.3,0-0.5,0c-0.4-0.1-0.8-0.2-2-0.5
						c-0.4-0.1-0.7,0-1.1,0.1c-1.1-0.6-1.1-1.6-2.8-2.3c-1-0.4-2.2-0.5-3.7-0.8l0.1-0.4C39,53.5,38.9,52.6,39.4,51.7z"/>
					<path class="st59" d="M36.7,60.5c-0.4-1.4-0.5-2.6-0.6-3.7c0.3,0,0.7,0,1,0c0,0.6,0,1.2,0.1,1.9c0.1,0.3,0.1,0.7,0.2,1l0.2,0.5
						c0.1,0.1,0.1,0.2,0.1,0.3C37.4,60.5,37.1,60.5,36.7,60.5z"/>
					<path class="st59" d="M44.6,57.3c0.4,0,0.7-0.1,1.1-0.1c1.2,0.3,1.6,0.4,2,0.5c0.1,0,0.3,0,0.5,0l0,0l0,0c0,0-0.1,0-0.1,0
						c-0.1,0-0.1,0-0.2,0c-0.1,0-0.2,0-0.4,0.1l-0.1,0l0,0l0,0l0,0c3.1-0.7,0.8-0.2,1.5-0.4v0l0,0l0,0l0,0.1l0,0.1l0,0.2
						c0,0.2,0,0.3,0,0.5c0,0.3,0.1,0.6,0.2,0.9c-0.3,0-0.6,0-0.9,0c0.1,0.3-2.2,1.2-2.1,1.6c-1.4-0.1-2.4-0.6-3.6-1
						c-0.3-0.1-0.6-0.2-0.9-0.3c-0.2-0.1-0.3-0.1-0.5-0.2c-0.2-0.1-0.4-0.2-0.6-0.3c-0.8-0.5-1.6-0.9-2.7-1.4
						c-0.2-1.2-0.1-2.3,0.2-3.5c1.4,0.3,2.6,0.4,3.7,0.8C43.5,55.6,43.5,56.7,44.6,57.3z"/>
					<path class="st50" d="M46.2,61c-0.1-0.4,2.2-1.3,2.1-1.6c0.3,0,0.6,0,0.9,0c0.2,0.7,0.5,1.4,0.8,2c0,0.1,0,0.1,0,0.2
						c0,0.6,0.4,1,0.4,1.6c-1.4,0.4-2.9,0.8-4.3,1.1c1.4-1.7,2.6-3,3.2-4.1c-0.2,0.4-1.9,1-2.2,1.3c-1.6,1.3-5.1,3.6-6.8,4
						c-0.9-1.4-1.8-2.9-2.5-4.5c0.4-0.2,1.1-0.6,1.1-0.7L38.7,60l-0.1-0.2l-0.1-0.3c-0.1-0.2-0.2-0.4-0.2-0.6
						c-0.1-0.4-0.2-0.8-0.3-1.2c1,0.5,1.9,1,2.7,1.4c0.2,0.1,0.4,0.2,0.6,0.3c0.2,0.1,0.3,0.1,0.5,0.2c0.3,0.1,0.6,0.2,0.9,0.3
						C43.7,60.4,44.7,60.9,46.2,61z"/>
					<path class="st53" d="M46.1,64.1c1.4-0.2,2.9-0.6,4.3-1.1c0,0.2,0,0.3-0.1,0.5c0.3-0.2,0.5-0.3,0.8-0.5l0.2,0.2
						c-0.1,0.2-1,0.9,0.2,0.3l0.3,0.3c-0.3,0.4-0.6,0.8-1.2,1.3l0.9-0.6c0.7-0.3,0.2,0.2,0.3,0.3c0.2-0.1,0.4-0.3,0.6-0.4
						c-0.2,0.5,0.1,0.8,0.4,1c0.3,0.1,0.6,0.1,0.6,0.2c-0.1,0.2-0.2,0.3-0.2,0.5c-2,1.8-4.1,3-6,3.5c0,0-0.8,0.7-1.2,0.8
						c-0.5,0.1-0.9,0.3-1.4,0.4c0.3-1-0.1-1.5-0.6-1.7c-0.5-0.3-1.1-0.3-1.1-0.3l-0.3-0.4c-0.2-0.4-0.1-1.2-0.2-1.8
						c-0.1-0.6-0.5-1.1-1.9-1l-0.2-0.3c1.8-0.4,5.2-2.7,6.8-4c0.3-0.3,2-1.5,2.2-1.3c0,0.5-0.9,1.4-1.7,2.4
						C46.8,63.3,46.1,64.1,46.1,64.1z"/>
					<path class="st60" d="M58.3,59.1c0.1-0.3,0.3-0.7,0.4-1c0.1,0.3-0.2,0.7,0.6,0.7c-0.2,0.2-0.2,0.4-0.2,0.5
						C58.8,59.3,58.5,59.2,58.3,59.1z"/>
					<path class="st60" d="M63.4,58.5l0.1,0.3C62.8,59,62,59,62.3,58.7c-0.7,0.2,0,0.2-0.3,0.3c-0.9,0.2-1,0.1-0.9,0
						c1.6-0.4,3.2-0.6,3.2-0.4l0,0.2C64,58.6,63.8,58.5,63.4,58.5z"/>
					<path class="st61" d="M62.8,62.1c-0.3,0.4-1,0.6-1.7,1c-1.3-0.3-2.9-0.4-4.5-0.4c0.6-0.7,1.1-1.6,1.5-2.4
						c0.2,0.1,0.5,0.2,0.9,0.2c0-0.2-0.1-0.3,0.2-0.5c0.2,0,0.4,0,0.6,0l0,0c-0.1,0.1,0,0.2,0.9,0c0.4-0.1-0.4-0.1,0.3-0.3
						c-0.3,0.3,0.4,0.3,1.1,0.1L62,59.5c0.4,0,0.6,0.1,1,0.1c0.2,0.8,0.4,1.7,0.6,2.6C63.3,62.2,63,62.1,62.8,62.1z"/>
				</g>
			</g>
		</g>
		<g>
			<g class="st1">
				<g class="st1">
					<path class="st53" d="M158.2,19.4c2.6,0.4,5.2,1.2,7.7,2.3c-0.7,0-1.3,0-2,0.1c-1.1,0-1.9-0.4-2.8-1
						C160.1,20.3,159.2,19.7,158.2,19.4z"/>
					<path class="st53" d="M151,19.2C151,19.2,151,19.2,151,19.2c2-0.2,4.1-0.2,6.1,0.1c-0.1,0-0.3,0-0.4,0
						C154.6,19.7,152.9,19.9,151,19.2z"/>
					<path class="st54" d="M127.7,21.1c4-0.8,7.7-0.9,11.3-1.2c0.4,0.3,1.1,0.4,1.3,0.7c0-0.2,2.2,2.4,2.1,2.3
						c-1.2,1-3.1,1.5-5.2,2.2c0,0.7,0.4,1.7-0.2,2.2c-1.1,0.8-2.3,1.1-3.4,1.2c-0.6,0-1.1,0-1.6,0c-0.5,0-1,0-1.5,0
						C130.4,28.1,129.4,23,127.7,21.1z"/>
					<path class="st47" d="M124.7,15.8c-0.8-1.5-0.9-4-1.1-5c1.6-0.5,3.2-0.9,4.7-1c0.3-0.9,0.7-1.6,0.7-2.2c0.3,0,0.6-0.1,0.9-0.1
						c1.7,2.2,3.6,4.3,5.4,6.4C134.4,14.2,127.5,14.8,124.7,15.8z"/>
					<path class="st55" d="M127.6,19.8c-0.5-0.4-1-0.8-1.5-1.1c-0.5-0.9-1.1-1.9-1.5-2.9c2.8-1,5.6-1.5,7.9-1.6
						c-0.1-0.2,0.7-0.9,0.6-1c1.1,0.4,1.2,1,2.1,0.6c1.7,2,3.4,3.9,4.9,6c-0.9-0.1-0.9-0.7-1.2-1.2c-0.6,0.7-0.4,1,0,1.3
						c-3.6,0.3-7.3,0.4-11.3,1.2l-0.3-0.5C127.7,20.3,128,19.9,127.6,19.8z"/>
					<path class="st56" d="M153.2,23c-1.8,1.7-2.6,4.3-2.8,7c-0.4-0.2-1.2-0.6-1.6,0.1c-0.2,0.1-0.5,0.1-0.8,0.1
						c-0.3,0.1-0.6,0.1-1,0.2c-0.6,0.2-1.1,0.5-1,1c0,0.2,0.1,0.1,0.1-0.3c0-0.4,0-1,0.1-1.8c0.1-1.5,0.5-3.6,0.8-4.8
						c-0.3-1.4,0.1-2.7,0.8-3.9c0.3,0,0.2,0.9,0.5,1c0-0.1,0.3-1.2,0.3-1.2s0.5-0.1,1.2-0.1c0.7-0.1,1.5-0.1,2-0.1
						c0.6,1.4,1.8,0.3,1.9,0l0.9,0.1l0,0c-0.4,0.4-0.9,0.8-1.3,1.3C153.2,21.9,153.2,23,153.2,23z"/>
					<path class="st57" d="M137.1,27.3c-1.1,0.8-2.3,1.1-3.4,1.2c-0.6,0-1.1,0-1.6,0c-0.5,0-1,0-1.5,0c0.1,0.2,0.2,0.6,0.3,1
						c0.1,0.4,0.4,0.9,0.4,1c0.4-0.5,0.7-1.2,1.2-1c0.9,0.6,2.1,1.5,3.1,2.3c0.5,0.5,1.1,1.2,2,1.9c0.9,0.6,2,1.2,3.2,1.4
						c1.9-0.3,3.2-1,4-1.7c0.1,0,0.1-1.1-0.1-1.5c0.5-0.2,1-0.3,1.4-0.3c0-0.1,0.1-1.2,0.4-2.6c0.1-0.7,0.3-1.5,0.4-2.2
						c0.1-0.7,0.2-1.5,0.1-2.1c-0.3-1.4,0.1-2.7,0.8-3.9c0,0-0.2,0-0.5,0.1c-0.3,0-0.6,0.1-1,0.2c-0.4,0.1-0.8,0.2-1.3,0.3
						c-0.4,0.1-0.8,0.2-1.1,0.3c0.1,0.2,0.8,0.6,0.9,0.7c-0.1,0.1-1.6-0.3-2.2-0.2c-0.2,0.1-0.5,0.2-0.7,0.3
						c-0.3,0.1-0.6,0.3-0.8,0.4c-0.5,0.2-0.7,0.3-0.7,0.4c-0.1,0,0.4,0.6,0.7,1.2c-1-0.6-1.4-1.3-0.6-1.7c0.2,0,0.5,0,0.7,0
						c0.1-0.3,0.2-0.4,0.1-0.4c-0.1-0.1-0.3-0.2-0.5-0.3c0.2,0,1,0.1,1.5,0.3c0.5,0.2,0.6,0.2,0.6,0.2c-0.2,0.1-0.5,0.2-1,0.4
						c0.3,0.1,0.4,0.2,0.4,0.2c0,0,0,0,0,0c-1.2,1-3.1,1.5-5.1,2.2C137.3,25.8,137.6,26.8,137.1,27.3z"/>
					<path class="st58" d="M178.4,45.5c-1.4,1.3-1.7,3.3-3.6,4c-1.8,0.4-3.5,0.1-5.3-0.3c-1.8-0.4-3.6-0.9-5.4-1.3
						c2.1-1.9,2.9-5.4,2.1-8.6c0.9,0.1,1.3,0.6,1.7,1.1c0.2,0.2,0.5,0.5,0.8,0.7c0.4,0.2,0.8,0.3,1.5,0.4c0.4-0.1,0.6-0.5,1-0.7
						c1.3,0.8,1.8,2.7,3.6,2.6c1.1-0.1,2.3-0.5,3.7-0.9c0,0.2,0,0.4,0,0.5C178,43.6,178.4,44.4,178.4,45.5z"/>
					<path class="st59" d="M177.9,34.7c0.6,1.2,1.1,2.6,1.5,3.9c-0.3,0.1-0.6,0.2-0.9,0.3c-0.4-1.5-1-3-1.8-4.4
						C177.1,34.6,177.5,34.6,177.9,34.7z"/>
					<path class="st59" d="M171.1,40.7c-0.3,0.3-0.6,0.7-1,0.7c-0.7-0.1-1.1-0.2-1.5-0.4c-0.4-0.2-0.6-0.4-0.8-0.7
						c-0.4-0.5-0.8-1-1.7-1.1c-0.3-1.2-0.8-2.4-1.5-3.4c0.4,0,0.7,0,1.1,0.1c-0.4-0.6,1.6-2.2,1-2.9c1.8,0.1,3.4,1.1,5,2.1
						c1.6,1,3.2,2.1,5.6,2.9c0.6,1.4,1,2.9,1.1,4.5c-1.4,0.3-2.6,0.8-3.7,0.9C173,43.4,172.4,41.5,171.1,40.7z"/>
					<path class="st50" d="M166.7,33c0.6,0.7-1.4,2.3-1,2.9c-0.4,0-0.7,0-1.1-0.1c-0.8-1.2-1.8-2.2-2.9-3.1c0-0.1-0.1-0.2-0.2-0.3
						c-0.8-0.9-1.7-1.2-2.5-1.9c1.2-1,2.6-2,4.1-2.7c0.5,2.6,0.6,4.9,0.8,6.7c-0.1-0.7,1.3-1.8,1.4-2.2c0.3-1.1,0.9-2.6,1.6-4.1
						c0.7-1.4,1.5-2.7,2.4-3.1c3.1,2.3,5.6,5.2,7.4,8.6c-0.3,0.4-0.9,1-0.8,1.2c0.3,0.4,0.5,0.9,0.8,1.4c0.2,0.5,0.5,0.9,0.7,1.4
						c-2.3-0.7-4-1.8-5.6-2.9C170.1,34.1,168.6,33.2,166.7,33z"/>
					<path class="st53" d="M163.1,28c-1.5,0.7-2.9,1.6-4.1,2.7c-0.2-0.2-0.5-0.4-0.7-0.6c-0.1,0.3-0.2,0.6-0.2,0.9
						c-0.2-0.1-0.4-0.1-0.6-0.2c-0.2-0.2-0.1-1.4-0.8-0.2c-0.3-0.1-0.5-0.1-0.8-0.2c-0.2-0.5-0.3-1.1-0.4-1.9l-0.2,1.1
						c-0.4,0.7-0.6-0.1-0.9-0.1c0,0.2-0.1,0.5-0.1,0.7c-0.3-0.2-0.7-0.4-1-0.4c-0.4,0-0.7,0-1.1,0.1c-0.7,0.2-1.2,0.4-1.3,0.5
						c-0.2-0.2-0.4-0.3-0.6-0.4c0.2-2.7,1-5.3,2.8-7c0,0,0-1.1,0.2-1.4c0.4-0.4,0.8-0.8,1.3-1.3c1.2,0.9,2.5,1.1,3.6,1.1
						c1.1,0,2.1-0.2,2.1-0.2c0.4,0.1,0.7,0.2,1,0.3c0.5,0.2,1,0.5,1.5,0.9c0.5,0.4,1,0.8,1.6,1.2c0.5,0.4,1.1,0.7,1.7,1
						c0.7,0.2,1.4,0.3,2.2,0.2c0.2,0.2,0.5,0.3,0.7,0.5c-0.9,0.4-1.7,1.6-2.4,3.1c-0.7,1.4-1.2,2.9-1.6,4.1c0,0.2-0.2,0.9-0.5,1.4
						c-0.3,0.5-0.7,1-0.8,0.8c-0.4-0.7-0.4-2.4-0.5-3.9C163.3,29.3,163.1,27.9,163.1,28z"/>
					<path class="st60" d="M121.6,3.5c-0.2-0.6-0.4-1.3-0.5-1.9c0.4,0.6,0.5,1.4,1.4,1.2c-0.1,0.4,0.1,0.7,0.3,1
						C122.3,3.8,121.9,3.7,121.6,3.5z"/>
					<path class="st60" d="M126.5,1.7l0.3,0.5c-0.6,0.4-1.4,0.5-1.3,0c-0.6,0.4,0.2,0.3-0.1,0.5c-0.8,0.5-0.9,0.4-1,0.1
						c1.3-0.9,2.8-1.6,3-1.3l0.2,0.3C127.3,1.7,126.9,1.5,126.5,1.7z"/>
					<path class="st61" d="M128.9,7.5c0,0.7-0.4,1.4-0.7,2.2c-1.5,0.2-3.1,0.6-4.7,1c-0.3-1.8-0.8-3.5-1.2-5.2
						c0.3,0.1,0.7,0.2,1.2,0.3c-0.2-0.3-0.4-0.6-0.3-1c0.2,0,0.4-0.1,0.6-0.2l0,0c0,0.3,0.2,0.4,1-0.1c0.3-0.2-0.5-0.1,0.1-0.5
						c-0.1,0.5,0.7,0.4,1.3,0l-0.3-0.5c0.4-0.1,0.7,0,1.1,0c0.9,1.3,1.9,2.6,2.9,3.8C129.5,7.5,129.2,7.5,128.9,7.5z"/>
				</g>
			</g>
		</g>
		<g>
			<g>
				<g>
					<g>
						<path class="st19" d="M49.5,23.7c4-7.4,7.6-15.1,10.6-23c-0.7,0.3-1.4,0.7-2,1c17.8,0.4,35.7,0.7,53.5,1.1
							c4.2,0.1,8.7-0.2,12.9,0.3c4.7,0.5,5.5,3.4,7.6,7.1c2.9,5,5.8,10.1,8.6,15.1c0.5,0.8,3.4-0.1,2.7-1.2
							c-3.1-5.5-6.3-10.9-9.4-16.4c-1.2-2-2.1-4.6-4.3-5.8c-3.2-1.7-8.6-0.7-12.1-0.7C98.2,0.8,78.7,0.4,59.2,0c-0.7,0-1.8,0.3-2,1
							c-3,7.7-6.5,15.2-10.4,22.5C46.1,24.8,49.1,24.5,49.5,23.7L49.5,23.7z"/>
					</g>
				</g>
			</g>
			<g>
				<g>
					<g>
						<path class="st19" d="M48,22.8c-6.7,1-13.4,2-20.1,3c-4,0.6-9.5,0.4-13.1,2.7c-3.3,2.1-4.7,7.2-6.3,10.5
							C5.5,45.4,2.6,52,0,58.6C-0.1,59.1,0.7,59,0.9,59c12.6-0.3,25.1-0.7,37.7-1c0.3,0,2.3-0.4,2.1-1c-3.6-9.9,10.9-14.3,17.9-9.4
							c4,2.8,5.5,7.7,3.9,12.2c-0.2,0.5,1,0.4,1.2,0.4c8.9-1.3,18-1.8,26.9-1.3c7.2,0.4,14.3,1.4,21.5,0.7c0.4,0,2.2-0.3,2.1-1
							c-0.6-2.9-2.1-5.9-1-8.9c2.1-5.6,13-8.3,17.7-5.2c4,2.6,4.3,8,4,12.3c0,0.4,1.1,0.2,1.2,0.2c14.5-1.7,29.2-2.7,43.8-2.8
							c0.5,0,2.1-0.3,2.1-1c0.4-9.3,4.3-23.1-6.4-27.8c-9.9-4.3-22.6-3-33.2-2.9c-0.9,0-3.2,1.3-1.2,1.3c5.9,0,11.9,0,17.8,0.3
							c5,0.3,10.6,0.6,15.2,3c4.1,2.2,5.6,5.7,5.6,10.2c0,5.5-0.5,11.1-0.8,16.7c0.7-0.3,1.4-0.7,2.1-1c-14.9,0.2-29.7,1.2-44.5,2.9
							c0.4,0.1,0.8,0.1,1.2,0.2c0.7-8.8-3.6-15.3-13-13.9c-3.9,0.6-9.1,2.2-12.1,4.8c-4.2,3.6-2.4,7.8-1.4,12.5
							c0.7-0.3,1.4-0.7,2.1-1c-8.7,0.8-17.4-0.8-26.2-0.9c-7.7,0-15.4,0.4-23,1.6c0.4,0.1,0.8,0.2,1.2,0.4
							c3.3-9.1-5.3-15.7-13.8-15.1c-6.9,0.4-16.9,5.1-13.9,13.6c0.7-0.3,1.4-0.7,2.1-1C31.5,57,23.2,57.2,15,57.4
							c-2.3,0.1-4.6,0.1-6.9,0.2c-2,0.1-3.7,1-4.4-1.3c-0.6-1.9,3.7-8.9,4.5-10.8c1.6-3.6,3.3-7.1,5-10.6c0.7-1.4,1.4-3.4,2.4-4.6
							c1.9-2.3,4.5-2.3,7.1-2.6c8.3-1.2,16.6-2.4,24.8-3.7C48.7,23.8,50.1,22.5,48,22.8L48,22.8z"/>
					</g>
				</g>
			</g>
			<g>
				<g>
					<g>
						<path class="st19" d="M126.2,47.8c-11.9-4.6-15.6,18.4-2.5,17.3c5.7-0.5,9-5,9.2-10.5c0.3-5.4-3.6-9.5-9-7.5
							c-1.9,0.7-0.2,1.5,1.1,1.1c3.3-1.2,4.9,3.8,5,6.1c0.1,2.7-0.6,6.2-2.7,8c-4.5,3.8-8.8-1-9-5c-0.2-2.7,0.8-10,5.5-8.2
							C124.7,49.5,127.3,48.3,126.2,47.8L126.2,47.8z"/>
					</g>
				</g>
			</g>
			<g>
				<g>
					<g>
						<path class="st19" d="M51.3,50.7c-4.8-2.4-7.8,4-8.9,7.7c-0.7,2.6-0.6,4.8,1.3,6.7c1.6,1.7,4.1,3.2,6.5,3.3
							c4.8,0.1,9.1-5.5,9.2-10c0.1-5.5-4.6-8.9-9.8-8.7c-1.7,0.1-2.2,2.4-0.2,2.3c7.1-0.3,9,8.3,4.1,12.5c-3.4,2.9-8.7-0.3-8.5-4.5
							c0.1-1.4,2.2-8.5,4.6-7.3C51,53.4,53,51.5,51.3,50.7L51.3,50.7z"/>
					</g>
				</g>
			</g>
			<g>
				<g>
					<g>
						<path class="st19" d="M98.1,6.5c0,5.3,0.5,10.6,1.4,15.8c0.5,2.8,0.2,5.3,3.1,5.9c3.9,0.8,9.7-0.9,13.7-1.6
							c3.7-0.6,8.7-1,12.1-2.7c5.5-2.7-2.8-11.3-5.5-13.3c-6.8-5.2-15.5-6.1-23.7-5.8c-1,0-3.1,1.6-1.2,1.5c7.2-0.3,14.8,0.4,21,4.6
							c1.9,1.3,3.8,2.9,5.2,4.8c2.2,2.8,4.7,6.2,0.4,7.9c-3.2,1.3-7.3,1.5-10.7,2c-2.3,0.3-8.5,2.1-10.5,0.5
							c-1.3-1.1-1.5-7.5-1.7-9.2c-0.5-3.7-0.7-7.5-0.7-11.2C101.1,4.9,98.1,5.4,98.1,6.5L98.1,6.5z"/>
					</g>
				</g>
			</g>
			<g>
				<g>
					<g>
						<path class="st19" d="M87.5,7.3c0.2,3.1,0.4,6.2,0.7,9.3c0.1,1.5,0.2,3.1,0.3,4.6c0,0.6,0.1,1.2,0.1,1.9
							c0.4,1.1-0.1,1.4-1.4,1c-2.5,0.8-6.1,0-8.7-0.1c-3.2-0.1-6.5-0.2-9.7-0.1c-0.8,0-4.4,0.6-4.8,0.3c-0.7-0.6-0.5-2.6-0.6-3.4
							c0-3.1,0.8-6.7,2.8-9.1c4.1-5.1,14.5-3.9,20.4-3.8c1.7,0,2.2-2.2,0.2-2.3c-6-0.1-14.4-1-19.9,2.3c-4.6,2.7-6.4,8.1-6.6,13.1
							c-0.2,6.1,1.8,5.5,7.2,5.2c4.5-0.2,9.1,0.1,13.6,0.2c3.2,0.1,6.6,0.5,9.5-0.7c0.4-0.2,0.8-0.6,0.8-1c0.8-5.4-0.7-12-1.1-17.5
							C90.4,5.6,87.4,6,87.5,7.3L87.5,7.3z"/>
					</g>
				</g>
			</g>
		</g>
	</g>
</g>
</svg>
