<?xml version="1.0" encoding="utf-8"?>
<!-- Generator: Adobe Illustrator 22.0.0, SVG Export Plug-In . SVG Version: 6.00 Build 0)  -->
<svg version="1.1" xmlns="http://www.w3.org/2000/svg" xmlns:xlink="http://www.w3.org/1999/xlink" x="0px" y="0px"
	 viewBox="0 0 82.1 123.4" style="enable-background:new 0 0 82.1 123.4;" xml:space="preserve">
<style type="text/css">
	.st0{fill:#FFFEFD;}
	.st1{opacity:0.9;}
	.st2{fill:#CBE5CF;}
	.st3{fill:#DCEDDF;}
	.st4{fill:#E3F1E5;}
	.st5{fill:#E0EFE2;}
	.st6{fill:#D1E8D4;}
	.st7{fill:#D4E9D7;}
	.st8{fill:#BEDEC2;}
	.st9{fill:#C3E1C7;}
	.st10{fill:#C7E2CB;}
	.st11{fill:#EEF6EF;}
	.st12{fill:#EBF5EC;}
	.st13{fill:#FEF9DA;}
	.st14{fill:#FFFDF1;}
	.st15{fill:#FDF5C7;}
	.st16{fill:#FDF2B4;}
	.st17{fill:#FCEFA5;}
	.st18{fill:#FCED95;}
	.st19{fill:#272525;}
	.st20{opacity:0.85;}
	.st21{fill:#D3E6F6;}
	.st22{fill:#C4DEF3;}
	.st23{fill:#ACD0EE;}
	.st24{fill:#E2EFF9;}
	.st25{fill:#B8D7F0;}
	.st26{fill:#9FC9EB;}
	.st27{fill:#EADAEE;}
	.st28{fill:#F7F1F8;}
	.st29{fill:#DFC7E5;}
	.st30{fill:#D5B5DC;}
	.st31{fill:#CDA6D5;}
	.st32{fill:#C497CE;}
	.st33{fill:#D8BBDF;}
	.st34{fill:#E5D1E9;}
	.st35{fill:#E8D6EB;}
	.st36{fill:#DDC3E2;}
	.st37{fill:#DFC6E4;}
	.st38{fill:#CEA9D6;}
	.st39{fill:#D2B0DA;}
	.st40{fill:#F2E9F4;}
	.st41{fill:#F0E4F2;}
	.st42{opacity:0.8;}
	.st43{opacity:0.8;fill:#DC7D5B;}
	.st44{opacity:0.8;fill:#E9AE99;}
	.st45{opacity:0.8;fill:#F0C7B8;}
	.st46{opacity:0.8;fill:#F7E1DA;}
	.st47{fill:#F7E0D8;}
	.st48{fill:#FCF3F0;}
	.st49{fill:#F2D0C4;}
	.st50{fill:#EEC0B0;}
	.st51{fill:#EBB4A0;}
	.st52{fill:#E7A790;}
	.st53{fill:#F0C6B6;}
	.st54{fill:#F5D8CE;}
	.st55{fill:#F6DCD3;}
	.st56{fill:#F1CCBF;}
	.st57{fill:#F2CFC2;}
	.st58{fill:#ECB6A3;}
	.st59{fill:#EDBDAB;}
	.st60{fill:#FAECE7;}
	.st61{fill:#F9E8E2;}
	.st62{fill:#B7E9E6;}
	.st63{fill:#CFF0EE;}
	.st64{fill:#D9F3F2;}
	.st65{fill:#D4F2F0;}
	.st66{fill:#BFECE9;}
	.st67{fill:#C3EDEA;}
	.st68{fill:#A5E4E0;}
	.st69{fill:#ACE6E3;}
	.st70{fill:#B1E7E4;}
	.st71{fill:#E8F8F7;}
	.st72{fill:#E3F6F5;}
	.st73{fill:#FDF3BA;}
	.st74{fill:#FEF7D0;}
	.st75{fill:#FEF8D5;}
	.st76{fill:#FDF4C2;}
	.st77{fill:#FDF5C5;}
	.st78{fill:#FCF0A8;}
	.st79{fill:#FDF1AF;}
	.st80{fill:#FEFBE8;}
	.st81{fill:#FEFAE4;}
	.st82{fill:#C9E1F4;}
	.st83{fill:#DBEAF7;}
	.st84{fill:#DEEDF8;}
	.st85{fill:#CFE4F5;}
	.st86{fill:#D2E5F6;}
	.st87{fill:#BBD8F1;}
	.st88{fill:#C1DCF2;}
	.st89{fill:#EDF5FB;}
	.st90{fill:#EAF3FB;}
	.st91{fill:#C5EDEB;}
	.st92{fill:#91DED9;}
	.st93{fill:#A1E3DF;}
	.st94{fill:#80D8D3;}
</style>
<g id="background">
	<rect x="-432.7" y="-552.7" class="st0" width="1200" height="800"/>
</g>
<g id="colour">
</g>
<g id="object">
	<g>
		<g>
			<g class="st1">
				<g class="st1">
					<path class="st73" d="M44.3,123.2c-2.1-0.2-4.2-0.4-6.1-0.7l-4.2-0.6l-0.9-5.3c-0.1-0.5-0.2-1-0.3-1.4c0.4,0.4,0.8,0.7,1.1,1.2
						c0,0.1,0.1,0.1,0.1,0.2l2.9,5.3l1.5-0.2C40.3,121.3,42.1,122.8,44.3,123.2z"/>
					<path class="st73" d="M52.8,123C52.8,123,52.8,123,52.8,123c-2.6,0.4-5,0.5-7.3,0.3c0.2,0,0.3,0,0.5,0
						C48.2,122.8,50.3,122.5,52.8,123z"/>
					<path class="st74" d="M59,87c-0.3,0.4-0.5,0.7-0.8,1.1l-3.7,5.3l0.6,0.1c3.7,0.5,7.1,1.6,10.5,3.1c0.4,0.6,1,1.1,1.1,1.6
						c0.1,0,0.4,0.9,0.7,2.1c0.3,1.2,0.5,2.8,0.5,3.9c-0.8-0.6-1.7-1.1-2.6-1.6c-0.9-0.4-2-0.7-3-0.9c-0.2,0.7-0.5,2.1-1.2,2.2
						c-2.7-0.2-4.5-1.2-6.3-2.1c0-0.2,0.3-1.4,0.3-3c0-1.6-0.2-3.6-0.8-5l-2.4-5.5l6.2-1.2C58.4,87.1,58.7,87,59,87z"/>
					<path class="st13" d="M68.3,89.5c0.8,0.4,1.5,1,2.2,1.5c0.7,0.5,1.3,0.9,1.6,1.1c-0.2,1.6-1,3.2-2.1,4.4
						c0.7,0.8,1.3,1.6,2.3,1.9c-0.3,0.3-0.5,0.5-0.8,0.8c-1.3,0.1-2.5-0.1-3.6-0.3c-0.6-0.1-1.1-0.2-1.6-0.3l-1.5-0.4
						c-1.7-0.5-3.2-0.9-4-0.8c0.1-0.2,0.3-0.8,0.8-1.4c0.5-0.6,1.2-1.4,2.1-2.2C65.3,92.3,67.4,90.7,68.3,89.5z"/>
					<path class="st75" d="M61.2,87.7c1.2-0.1,2.2-0.1,3.1,0c1.6,0.5,2.9,1.2,4,1.8c-1.8,2.4-4.2,4.2-6,5.7c0.2,0.1,0,1.1,0.2,1.1
						c-1.1,0.4-1.4,0.1-1.7,1c-0.5,0-0.7,0.1-0.9,0.2l4.3-7.4c1,2.2,2,4.4,2.6,6.9c-0.9-0.6-0.7-1.4-0.9-2.1
						c-0.7,0.6-0.6,1.1-0.3,1.6c-3.4-1.5-6.8-2.6-10.5-3.1l-0.6-0.1l3.7-5.3c0.3-0.4,0.5-0.7,0.8-1.1c0.4,0,0.8,0,1.1,0
						C60.4,87.4,60.7,87.8,61.2,87.7z"/>
					<path class="st76" d="M49.8,119.4c2.1-1.8,3-4.5,2.8-7.3c0.4,0.1,1.3,0.3,1.5-0.4c0.2-0.1,0.4-0.2,0.7-0.3
						c0.2-0.2,0.6-0.3,0.8-0.5c0.5-0.4,0.7-0.9,0.4-1.3c-0.2-0.2-0.1-0.1,0.1,0.3c0.2,0.3,0.5,0.9,0.8,1.7c0.3,0.7,0.5,1.7,0.6,2.6
						c0.1,0.9,0.1,1.8,0,2.5c0.6,1.3,0.4,2.8-0.5,4.2c-0.4,0.1-0.4-0.9-0.8-0.8c0,0.1,0,0.4-0.1,0.7c-0.1,0.3-0.2,0.6-0.2,0.6
						s-0.7,0.2-1.6,0.4c-0.4,0.1-0.9,0.2-1.4,0.3c-0.4,0.1-0.9,0.1-1.2,0.2c-0.8-1.3-2.2-0.1-2.3,0.1l-1.1,0l0,0
						c0.5-0.5,1-0.9,1.4-1.4C49.8,120.5,49.8,119.4,49.8,119.4z"/>
					<path class="st77" d="M61,103.9c-2.7-0.2-4.5-1.2-6.3-2.1c-0.1,0.5-0.3,1.6-0.3,1.7c0.6-0.2,1.2-0.5,1.5-0.2
						c0.4,0.7,0.8,1.5,0.8,2c-0.1,0.3-0.4,0.6-0.7,0.9c-0.3,0.2-0.6,0.5-0.9,0.7c0.1,0.2,0.1,0.4,0.2,0.7l0.2,0.6
						c0,0,0.2,0.2,0.5,0.3c0.3,0.2,0.6,0.4,0.8,0.5c-0.2,0.3-0.4,0.5-0.7,0.6c0.1,0.1,0.6,1,0.8,2.5c0.2,0.7,0.2,1.5,0.3,2.3
						c0.1,0.8,0.1,1.6,0.3,2.2c0.6,1.3,0.4,2.8-0.5,4.2c0,0,0.2-0.1,0.6-0.2c0.4-0.2,0.8-0.4,1.4-0.6c0.5-0.3,1.1-0.6,1.6-1
						c0.5-0.4,1-0.7,1.3-1c-0.2-0.1-1.1-0.1-1.3-0.1c0.1-0.1,0.6-0.2,1.2-0.4c0.5-0.2,1.2-0.5,1.5-0.7c0.4-0.4,1-1.3,1.5-2
						c0.4-0.8,0.8-1.5,0.8-1.6c0.1-0.3-0.8,0-1.5-0.3c0.8-0.4,1.3-0.9,1.9-1.4c0.6-0.6,0.9-1.2,1.3-1.9c0.1-0.4,0.2-0.8,0.3-1.1
						c0.3-0.1,0.5-0.1,0.5,0c0,0.3,0.1,0.5,0.1,0.8c0.2-0.7,0.8-3.8,0.7-4.6c-0.2,0.8-0.5,1.6-1,2.3c0.1-0.8,0.2-1.6,0.1-2.4l0-0.1
						c-0.8-0.6-1.7-1.1-2.6-1.6c-0.9-0.4-1.9-0.7-3-0.9C62,102.5,61.7,103.9,61,103.9z"/>
					<path class="st78" d="M28.7,113c-0.9,0.3-1.6,1.2-2.5,1.9c-0.9,0.8-2,1.5-3.2,1.5c-2.1-0.2-3.3-1.6-4.4-3.1
						c-0.5-0.7-1.1-1.5-1.6-2.3l-0.2-0.3l-0.1-0.1l0,0l0,0l0,0c-0.1-0.1-0.1-0.2-1-1.1l-0.2-0.1l-0.1-0.1c0,0,0,0,0,0c0,0,0,0,0.1,0
						l0.1,0c0.1,0,0.2-0.1,0.4-0.2c0.6-0.5,1.3-1.5,2.1-2.8c0.8-1.3,1.8-3.1,3.6-4.8c0.4-0.4,1-0.8,1.5-1.2c0.6-0.4,1.1-0.7,1.7-1
						c1.2-0.5,2.5-0.8,3.7-0.9c-1.1,0.9-2.5,1.5-3.6,2.6c-1.1,1-1.7,2.4-1.1,3.7c0.3,0.2,0.9,0,1.3,0.1c-0.3,1.8-0.7,3.9,0.9,4.6
						c1,0.4,2.2,0.6,3.6,1.1l-0.1,0.3C29,111.2,29.1,112,28.7,113z"/>
					<path class="st79" d="M30.2,111.1c0.1,0,0.3,0.1,0.5,0c0.2-0.1,0.5-0.2,0.6-0.3c-0.2-0.3-0.5-0.5-0.7-0.7c0,0-0.3,0.1-0.4,0.1
						c-0.2,0-0.2-0.1-0.2-0.2C30.1,110.4,30.2,110.7,30.2,111.1z"/>
					<path class="st79" d="M25.3,104.9c-0.4-0.1-1.1,0.1-1.3-0.1c-0.6-1.3,0-2.6,1.1-3.7c1.1-1.1,2.6-1.6,3.6-2.6
						c1.8-0.2,3.6,0.1,5.1,0.7c1.5,0.5,3,1.3,4.2,2.3c-0.6-0.1-1.2-0.2-1.8-0.2c0.7,0.4,0.8,1.3,0.7,2c0,0.8-0.2,1.5,0.3,2
						c-2.3-0.6-4.4-0.7-6,0c-0.8,0.3-1.4,0.9-1.7,1.7c-0.2,0.7,0,1.6,0.6,2.4c0.2,0.1,0.1,0.3-0.3,1.2c-1.3-0.5-2.6-0.7-3.6-1.1
						C24.6,108.8,25,106.8,25.3,104.9z"/>
					<path class="st16" d="M37.2,105.4c-0.4-0.5-0.3-1.2-0.3-2c0-0.8,0-1.6-0.7-2c0.6,0,1.2,0.1,1.8,0.2c0.4,0.3,0.7,0.6,1.1,0.9
						c0.3,0.3,0.7,0.7,0.9,1c0.6,0.7,1.1,1.4,1.5,2.1c0.9,1.4,1.5,2.9,1.9,4.4c0,0.2,0,0.4,0.1,0.6c0.2,1.9,0.5,3.5,0.5,5.1
						l-3.4-3.9c0.2,0.1,0.4,0.1,0.6,0.2c-0.3,0.2-0.5,0.5-0.8,0.7l2.7,3.1c-1.2-0.9-2.5-1.7-3.7-2.4c0.8-1.2,1.4-2.6,1.6-4.2
						c0.2-1.6,0.1-3.4-0.7-5.2c0.5,1.3-1.2,2-1.2,2.7c-0.3,1.4-1.4,2.8-2.6,3.7c-1.2,1-2.6,1.5-3.5,1.6c-0.3-0.5-0.5-0.9-0.8-1.1
						c-0.1-0.1-0.3-0.3-0.4-0.4c-0.1-0.1-0.2-0.1-0.3-0.2c-0.4-0.2-1.1-0.2-1.2-0.1c0-0.5-0.1-1.2-0.1-1.2c-0.2,0.2-0.1,0.4,0.1,0.5
						c-0.6-0.8-0.8-1.7-0.6-2.4c0.2-0.7,0.9-1.3,1.7-1.7C32.8,104.7,35,104.8,37.2,105.4z"/>
					<path class="st73" d="M39.3,113.3c1.2,0.7,2.5,1.6,3.7,2.4l-2.7-3.1c0.3-0.2,0.6-0.5,0.8-0.7c0.4,0.2,0.8,0.3,1.2,0.6
						c0.1-0.3,0.1-0.6,0-1l0.9,0.1c0.3,0.2,0.5,1.4,1.2,0.2c0.4,0,0.8,0.1,1.2,0.1c0.4,0.5,0.6,1.1,0.8,1.8l0.1-1.1
						c0.5-0.7,0.8,0.1,1.2,0.1c0-0.2,0-0.5,0.1-0.7c0.9,0.5,1.9,0.4,2.7,0.2c0.8-0.2,1.3-0.6,1.5-0.6c0.2,0.1,0.5,0.2,0.7,0.3
						c0.2,2.7-0.7,5.4-2.8,7.3c0,0,0,1.1-0.2,1.4c-0.5,0.4-0.9,0.9-1.4,1.4c-1.4-0.9-3-1-4.2-0.9c-1.2,0.1-2.2,0.4-2.3,0.4l-1.1-0.2
						c-0.6-0.2-1.2-0.5-1.9-0.8l-4.2-2l0.5-2.3c0.2-0.8,0.3-1.6,0.1-2.4c-0.2-0.7-0.7-1.4-1.7-1.6c-0.1-0.2-0.2-0.3-0.2-0.5
						c0.9-0.1,2.3-0.6,3.5-1.6c1.2-0.9,2.3-2.3,2.6-3.7c0-0.3,0.2-1.2,0.3-1.9c0.2-0.7,0.4-1.2,0.8-0.8c0.6,0.9,0.9,2,1,3.2
						c0.1,1.2-0.1,2.3-0.4,3.2C40.2,112.2,39.2,113.4,39.3,113.3z"/>
					<path class="st80" d="M75.4,88.7c-0.2-0.7-0.9-1.3-1.9-1.4c0.5,0,1,0.1,1.4,0.3c0.4,0.2,0.7,0.3,1.2,0.3c0.1,0.5,0.3,1,0.5,1.4
						C76.1,89,75.7,88.8,75.4,88.7z"/>
					<path class="st80" d="M80.9,88.7c0.1,0.5,0.2,0.9,0.2,1.4c-0.7,0-1.5-0.7-1.4-1.6c-0.7,0.2,0.2,0.8-0.1,0.9
						c-0.9,0.2-1-0.2-1.1-0.7c0.8-0.3,1.6-0.4,2.2-0.3c0.7,0.1,1.1,0.4,1.2,0.8c0.1,0.3,0.1,0.7,0.1,1
						C81.8,89.7,81.4,88.9,80.9,88.7z"/>
					<path class="st81" d="M72.2,98.4c-1-0.3-1.6-1.1-2.3-1.9c1.1-1.2,1.9-2.8,2.1-4.4c0.7,0.3,1.3,0.4,2,0.2c0.2,0,0.5-0.1,0.8-0.4
						c0.2-0.3,0.5-0.6,0.6-1c0.2,0.3,0.4,0.7,0.7,1c0.1-0.4,0.1-0.8,0.4-1.2c0.2,0.1,0.4,0.2,0.6,0.2l0,0c-0.1,0.4-0.1,0.7,0.8,0.8
						c0.4,0-0.3-0.7,0.4-0.6c-0.2,0.3-0.1,0.7,0,1c0.2,0.3,0.5,0.6,0.8,0.7c0.1-0.4,0.2-0.8,0.2-1.2c0.4,0.3,0.5,1,0.6,1.6
						c-0.3,1-0.8,2-1.6,2.9c-0.2,0.2-0.4,0.4-0.6,0.6c-0.2,0.2-0.4,0.3-0.6,0.5c-0.4,0.3-0.8,0.5-1.2,0.7c-1.6,0.8-3.3,1.2-4.8,1.2
						C71.7,98.9,72,98.7,72.2,98.4z"/>
				</g>
			</g>
		</g>
		<g>
			<g class="st1">
				<g class="st1">
					<path class="st2" d="M46,62.5c-0.2,1-0.4,2.1-0.9,3.2c-0.2,0.5-0.5,1.1-0.8,1.6c-0.1,0.3-0.3,0.5-0.5,0.8
						c-0.2,0.3-0.4,0.6-0.6,0.8c-1.7,2.1-3.8,3.7-6.5,4.5c1.1-0.6,2-1.4,2.8-2.2c0.7-0.7,1.3-1.3,2-1.9c0.3-0.3,0.7-0.7,1-1
						c0.3-0.4,0.7-0.7,0.9-1.1C44.7,65.8,45.6,64.1,46,62.5z"/>
					<path class="st2" d="M45.4,56.4C45.4,56.4,45.5,56.4,45.4,56.4c0.3-0.8,0.3-1.3,0.3-1.2c0,0,0.1,0.4,0.2,1.2
						c0.2,1.4,0.3,2.8,0.3,4.3c0-0.2,0-0.4,0-0.6c-0.3-1.4-0.6-2.7-0.8-3.9c-0.1-0.6-0.2-0.9-0.1-0.9C45.3,55.2,45.5,55.6,45.4,56.4
						z"/>
					<path class="st3" d="M52.5,45.1c1.4-1.6,2.6-3.2,4.3-4.4c0.8-0.6,1.8-1.1,3-1.3c1.2-0.2,2.7,0,4.1,0.9c0.4,0.6,1,1.3,1.3,2
						c0.3,0.7,0.6,1.4,0.6,2c0,0,0.1,0.6,0,1.5c-0.1,1-0.4,2.3-1,3.5c-1.3,2.4-3.1,3.8-4.3,4.5c0.6-2.2,0.4-4.6-0.8-6.5
						c-0.8,0.5-2.1,1.1-2.5,0.4c-0.7-1.2-1-2.3-1.5-3.2c-0.1-0.2-0.3-0.4-0.4-0.6c-0.1-0.1-0.1-0.2-0.2-0.2l-0.1-0.1l0.1,0.1
						c0.3,0.2,0.4,0.3,0.7,0.4c0.2,0.1,0.4,0.2,0.5,0.3c0,0,0.6,0.2,0.4,0.1c0,0-0.1,0-0.1,0l0,0l-0.6,0.1l0,0l0.1,0
						c0.2,0,0.5-0.1,0.6-0.1c0,0,0.1,0,0.1,0l0.1,0c0,0,0,0,0,0c0,0-0.1,0.1-0.1,0.1l0,0c-0.1,0-0.1,0.1-0.2,0.1
						c-0.1,0.1-0.2,0.2-0.3,0.3c0,0-0.1,0.1-0.2,0.2c-0.1,0.1-0.2,0.2-0.2,0.3c-0.2,0.2-0.2,0.4-0.4,0.7l0-0.1
						c0-0.1-0.3-0.3-0.5-0.5C54.3,45.4,53.3,45.2,52.5,45.1z"/>
					<path class="st4" d="M43.2,39.9c-1-1.3-1.7-3.1-1.8-4.7c-0.2-1.6,0.1-3.1,0.3-3.9c1.6,0.9,3.3,1.4,4.8,1.7
						c0.5-0.7,1.2-1.2,1.5-1.6c0.3,0.1,0.5,0.2,0.8,0.2c0.2,0.8,0.8,1.6,1.5,2.1c0.3,0.2,0.7,0.4,1,0.5c0.2,0,0.3,0.1,0.5,0.1
						l0.9,0.1c-0.1,0.2-0.5,0.7-1,1.3c-0.6,0.6-1.2,1.4-2.1,2c-0.9,0.6-2.1,1.1-3.2,1.4C45.1,39.6,43.9,39.7,43.2,39.9z"/>
					<path class="st5" d="M51.2,44.1c-0.9,0-1.9,0-2.9-0.2c-2.1-0.8-3.9-2.2-5.1-4c3.1-0.8,6-1.9,7.7-3.4c-0.1-0.1,0.1-1,0.1-1.1
						c0.7-0.4,1.3-0.1,1.7-0.9c1.3,0.2,2.9,0.2,5.1,0.7c1.1,0.3,2.4,0.6,4,1.5c0.4,0.3,0.8,0.5,1.2,0.9c0.4,0.4,0.8,0.7,1.2,1.2
						c0.4,0.5,0.7,0.9,1,1.5c0.3,0.5,0.5,1.1,0.7,1.6C65,41,64.6,40.1,64,39.4l-0.4-0.6l-0.4-0.5c-0.3-0.3-0.6-0.7-1-0.9
						c0.1,1.1,0.9,1.9,1.8,3c-1.5-0.9-3-1.1-4.1-0.9c-1.2,0.2-2.1,0.7-3,1.3c-1.6,1.2-2.9,2.7-4.3,4.4l-0.7-0.2
						C51.7,44.5,51.7,44,51.2,44.1z"/>
					<path class="st6" d="M41.9,56.2c-0.5-0.4-1-0.7-1.5-1c-0.5-0.4-1-0.9-1.2-1.6C39,52.7,39,51.8,39.2,51c0.2-0.9,0.5-1.7,0.8-2.5
						c0.6-0.1,1.4-0.1,2.1-0.1c0.7,0,1.3-0.1,1.7-0.4c0.7,0,1.7,0.1,2.7,0c0.9-0.1,1.7-0.3,1.9-0.8c0.1-0.5-0.3,0.6-1.1,2.1
						c-0.7,1.5-1.9,3.4-2.6,4.6c-0.1,1.4-1,2.6-1.2,3.7c-0.1-0.1-0.2-0.9-0.4-1.1c0,0.1,0,0.3,0,0.6c0,0.3,0.1,0.5,0.1,0.5
						c0,0-0.1,0.1,0.5-0.3c0.2-0.2,0.6-0.6,0.8-1c0.2-0.4,0.2-0.8,0.2-0.9c-0.7-0.2-0.8,0-0.6,0.3c0.2,0.3,0.6,0.6,0.7,0.6
						c0.1,0.4,0.1,0.8,0.2,1.3l0,0c-0.5-0.5-1-1-1.5-1.4C43,56,41.9,56.2,41.9,56.2z"/>
					<path class="st7" d="M57.2,47.8c-0.7-1.2-1-2.3-1.5-3.2c-0.1-0.2-0.3-0.4-0.4-0.6c-0.1-0.1-0.1-0.2-0.2-0.2l-0.1-0.1l0.1,0.1
						c0.3,0.2,0.4,0.3,0.7,0.4c0.2,0.1,0.4,0.2,0.5,0.3c-0.1,0-0.3-0.1-0.6-0.3c-0.1-0.1-0.3-0.2-0.4-0.3c-0.1-0.1-0.3-0.2-0.5-0.3
						c-0.3-0.2-0.7-0.5-0.9-0.8c-0.1-0.1-0.2-0.2-0.3-0.3c-0.1-0.1-0.1-0.1-0.1-0.2c0.4,0.5,0.9,0.9,1.1,1.1
						c0.2,0.4-0.3,1.1-0.6,1.3c-0.5,0-1.7-0.4-2.6-0.5c-0.5,0.4-1.1,0.9-1.6,1.3c0,0-0.1,1.1,0,1.5c-0.5,0.1-0.9,0.1-1.4,0
						c0,0.1-0.7,1.2-1.6,2.5c-0.9,1.3-1.9,2.9-2.1,4.2c-0.1,1.4-1,2.6-1.2,3.7c0,0,0.3,0,1.1,0c1,0,2.1-0.1,2.9-0.1
						c-0.1-0.2-0.7-0.8-0.9-0.8c0.2,0,1.7,0.6,2.4,0.7c1-0.1,3.3-0.6,3.4-0.7c0.3-0.1-0.5-0.6-0.6-1.3c1.3,0.7,2.7,0.9,4,0.8
						c0.3-0.1,0.7-0.2,1-0.3c0.2,0.2,0.3,0.4,0.2,0.4c-0.2,0.2-0.4,0.3-0.6,0.4c0.3-0.1,1.1-0.3,2-0.6c1-0.4,2.1-0.9,2.5-1.1
						c-1,0.4-1.9,0.5-2.9,0.5c0.9-0.3,1.7-0.7,2.5-1.2l0.1-0.1c0.5-2.2,0.4-4.6-0.8-6.5C59,47.9,57.6,48.4,57.2,47.8z"/>
					<path class="st8" d="M21.3,57.1c-1.2-1.4-3-1.1-4.3-2.7c-1.1-1.5-1.7-3.1-2.2-4.9c-0.5-1.8-0.9-3.6-1.7-5.4
						c5.8,0,11.3,0.7,16.5,2.1l3.7,1l0.5,2.9c0.2,1.4,0.3,2.7,0.3,3.8c-0.9-0.9-1.2-2.2-1.8-3.4l-1.6-3l-1.4,0.2
						c-1,0.1-1.9,0.4-2.6,1.6c0,0.4,0.4,0.8,0.6,1.2c-1.6,0.8-3.9,1.1-4,2.9c0,1.1,0.3,2.3,0.4,3.7l-0.4,0
						C22.9,56.7,22.1,57,21.3,57.1z"/>
					<path class="st9" d="M21.6,54.6c-0.1-0.6-0.2-0.9-0.3-1.1l6,5.6L26.4,59c0-0.3,0.1-0.7,0.1-1l1,0.1l-5.3-4.9
						c0.1,0.3,0.3,0.9,0.5,1.7C22.3,54.8,21.9,54.7,21.6,54.6z"/>
					<path class="st9" d="M27.3,50.6c-0.2-0.4-0.6-0.8-0.6-1.2c0.7-1.2,1.7-1.5,2.6-1.6l1.4-0.2l1.6,3c0.6,1.2,0.9,2.6,1.8,3.4
						c0,1.4-0.1,2.6-0.2,3.6c-0.1,1.1-0.2,2.1-0.2,2.9c-0.3-0.3-0.6-0.6-0.9-0.9c0,0.5-0.6,0.8-1.3,1.2c-0.6,0.3-1.2,0.7-1.2,1.2
						c-1.5-1.4-2.1-3.7-3-5.5c-0.9-1.9-2.2-3.6-4.3-3.5l4.5,4.2l-0.1,0.1c-1.3,0-2.5-0.1-3.8-0.1c-0.1-1.4-0.4-2.6-0.4-3.7
						C23.4,51.7,25.7,51.4,27.3,50.6z"/>
					<path class="st10" d="M30.4,62c0-0.5,0.6-0.9,1.2-1.2c0.6-0.3,1.2-0.6,1.3-1.2c0.3,0.3,0.6,0.7,0.9,0.9c0,1,0.1,1.7,0.2,1.9
						c0,0,0,0,0,0.1c0,0,0,0,0,0c0,0-0.1,0-0.1,0c-0.1,0-0.1,0.1-0.2,0.2c0,0,0,0,0,0c0,0,0,0,0-0.1l0.1-0.2c0,0,0,0,0,0
						c0,0,0,0,0,0l0,0l0,0c0.1-0.1-0.5,1-0.3,0.5v0l0,0l0,0l0,0l0,0l0,0c0,0,0-0.1,0-0.1c0-0.1,0-0.2,0-0.3c0,0,0,0,0,0.1
						c0,0,0.1,0,0.2,0c0.2,0,0.5-0.1,0.8-0.2c0.6,1.4,0.6,3.2-0.5,4.7c-0.6-0.4-1.1-1-1.3-1.5c-0.1-0.3-0.2-0.5-0.2-0.8
						c0-0.3-0.1-0.5-0.1-0.8c0-0.3,0.1-0.5,0.2-0.6c0.1-0.2,0.2-0.3,0.3-0.5c0.2-0.3,0.4-0.6,0.6-0.9c-0.3,0.5-2,0.8-2.3,1.3
						c-0.3,0.4-0.8,1-1.2,1.6c-0.2,0.3-0.4,0.7-0.5,1.1c-0.1,0.4-0.3,0.8-0.4,1.2c-0.5,1.6-1,3.1-2.3,3.1c-0.4-0.3-0.8-0.7-1.2-1.1
						c-0.3-0.4-0.6-0.8-0.9-1.3c-0.3-0.4-0.5-0.8-0.7-1.3L23.9,66l-0.2-0.6c-0.6-1.7-0.7-3-0.9-4.3c-0.2-2.4-0.2-4.3-0.3-5.8
						c0.5-0.2,1.2-0.5,1.2-0.6c-0.2-0.8-0.5-1.3-0.7-1.7l4.6,4.3l-0.1,0l0.1-0.1L23.1,53c2.1-0.1,3.4,1.6,4.3,3.5
						C28.3,58.4,29,60.6,30.4,62z"/>
					<path class="st2" d="M34.3,67.1c1-1.5,1.1-3.3,0.5-4.7c0.2,0,0.3-0.1,0.5-0.1c-0.3-0.2-0.5-0.4-0.8-0.6c0,0,0.1-0.1,0.1-0.2
						c0.2,0,1.3,0.3,0.2-0.5c0.1-0.2,0.1-0.4,0.1-0.6c0.5-0.2,1-0.3,1.8-0.5l-1.1-0.1c-0.7-0.3,0-0.6,0-0.9c-0.2,0-0.5,0-0.7,0
						c0.2-0.4,0.3-0.8,0.2-1.2c0-0.4-0.3-1.3-0.3-2.5c0-0.6,0-1.3,0.2-2.1c0.2-0.7,0.5-1.5,0.8-2c0.7-1.2,1.4-1.8,1.8-2.1
						c0.9-0.4,1.7-0.6,2.3-0.7c-0.3,0.8-0.6,1.7-0.8,2.5c-0.2,0.9-0.2,1.8,0.1,2.5c0.2,0.7,0.7,1.3,1.2,1.6c0.5,0.4,1,0.6,1.5,1
						c0,0,1.1-0.2,1.5,0c0.5,0.4,1,0.9,1.5,1.4c-0.7,1.8-0.8,3.7-0.9,5.4c-0.1,1.7-0.4,3.2-0.5,3.3c-0.3,0.6-0.6,1.1-1,1.7
						c-1.3,1.5-3.5,2.6-5.8,3.1c-1.2,0.3-2.4,0.4-3.8,0.5c-0.7,0-1.4,0-2.1,0c-0.7,0-1.5-0.1-2.2-0.2C28,71,27.5,70.8,27,70.3
						c1.3,0,1.8-1.6,2.3-3.1c0.1-0.4,0.3-0.8,0.4-1.2c0.2-0.4,0.4-0.8,0.5-1.1c0.4-0.7,0.8-1.2,1.2-1.6c0.1-0.2,0.6-0.7,1.1-1
						c0.5-0.3,1.1-0.5,1.1-0.3c0,0.2-0.1,0.3-0.2,0.5c-0.1,0.1-0.3,0.3-0.4,0.5c-0.2,0.2-0.3,0.4-0.4,0.7c-0.1,0.3,0,0.6,0,1
						c0.1,0.7,0.5,1.3,0.8,1.7C34,66.9,34.3,67.1,34.3,67.1z"/>
					<path class="st11" d="M48.8,23.6c0.8-0.2,1.7-0.3,2.5-0.3c-0.8,0.1-1.8,0.2-1.8,1.1c-0.4-0.1-0.8,0.1-1.2,0.4
						C48.3,24.4,48.5,24,48.8,23.6z"/>
					<path class="st11" d="M50.6,28.5l-0.2,0.2c-0.5-0.5-0.8-1.3-0.3-1.1c-0.4-0.6-0.2,0.2-0.4-0.1c-0.6-0.7-0.5-0.9-0.2-0.9
						c0.9,1.3,1.8,2.7,1.7,2.7L51,29.4C50.8,29.1,50.8,28.8,50.6,28.5z"/>
					<path class="st12" d="M48,31.5c-0.3,0.4-1,0.8-1.5,1.6c-1.5-0.3-3.1-0.8-4.8-1.7c0.7-2.9,2.4-5.1,4.5-6.4
						c-0.2,0.4-0.2,0.9-0.1,1.4c0.3-0.4,0.6-0.7,1-0.8c0.1,0.2,0.1,0.4,0.3,0.6l0,0c-0.3,0.1-0.4,0.4,0.3,1c0.3,0.2,0-0.5,0.5,0
						c-0.5,0-0.2,0.8,0.4,1.2c0.1-0.1,0.2-0.2,0.3-0.4c0.3,0.3,0.2,0.6,0.4,0.9c-0.3,0.5-0.5,1-0.6,1.4c-0.1,0.5-0.1,0.9,0.1,1.4
						C48.5,31.6,48.2,31.6,48,31.5z"/>
				</g>
			</g>
		</g>
		<g>
			<g>
				<g>
					<g>
						<path class="st19" d="M18.7,88.2c-0.5-5.4-0.9-10.8-1.4-16.3c-0.1,0.4-0.3,0.7-0.4,1.1c4.2-0.2,8.5-0.4,12.7-0.6
							c-0.3-0.7-0.7-1.3-1-2c-1,6.5,2,16,10.3,15.2c8.6-0.9,8.1-11.4,3.8-16.4c0,0.7-0.1,1.5-0.1,2.2c5.1,0.3,10.2,0.2,15.3-0.5
							c-0.3-0.6-0.7-1.1-1-1.7c0.1,6,0.9,11.8,2.6,17.5c0.1,0.4,0.6,1.4,1.1,1c2.4-1.7,5.2-3.7,8.4-3.2c4.5,0.8,7.2,6.5,5.9,10.7
							c-0.9,2.9-3.7,4.3-6.3,5.2c-4.1,1.4-7-1-8.5-4.8c-0.3-0.8-1.2-1-1.3,0c-0.1,2.8-0.3,5.5-0.4,8.3c-0.1,1.6,0.5,6.9-0.4,8.3
							c-1.2,1.7-4.8,1-6.6,1c-2.8,0-5.6,0.1-8.4,0.1c0.3,0.5,0.7,0.9,1,1.4c-0.3-5.9-3.3-10.3-9.7-10.3c-6.6,0-7.4,6.3-5.7,11.4
							c0.1-0.6,0.3-1.1,0.4-1.7c-4.4-0.1-8.8-0.2-13.3-0.4c0.3,0.5,0.6,0.9,0.8,1.4c-0.4-4.5-0.3-9,0.3-13.4c0.1-0.4-0.3-1.9-1-1.7
							c-2.6,0.8-5.2,1.4-7.8,0.6c-4.6-1.3-8-6.3-5.8-11c3.2-7,10.6-4.6,15.5-1.3c1,0.7,0.8-1.8,0.1-2.3c-3.8-2.6-8.1-5-12.7-2.7
							c-3.5,1.8-5.3,5.5-5.1,9.3c0.5,8.8,8.8,12.2,16.4,9.8c-0.3-0.6-0.7-1.1-1-1.7c-0.6,4.7-0.7,9.3-0.3,14.1
							c0,0.4,0.3,1.4,0.8,1.4c4.4,0.1,8.8,0.2,13.3,0.4c0.8,0,0.6-1.2,0.4-1.7c-1.7-5,1.4-8.4,6.3-7.8c4.1,0.5,6.4,3.4,6.6,7.4
							c0,0.6,0.4,1.4,1,1.4c5.1-0.1,10.2-0.1,15.3-0.2c0.3,0,0.4-0.6,0.4-0.8c0.3-6.1,0.6-12.2,0.9-18.2c-0.4,0-0.8,0-1.3,0
							c1.4,3.6,4,7.2,8.3,6.8c4.5-0.4,8.7-3.7,9.2-8.2c0.5-4.1-0.8-8.8-4.1-11.4c-4.3-3.4-8.8-1.2-12.7,1.6c0.4,0.3,0.8,0.6,1.1,1
							c-1.6-5.3-2.4-10.7-2.5-16.2c0-0.6-0.3-1.8-1-1.7c-5,0.6-9.9,0.8-14.9,0.5c-1.1-0.1-0.5,1.8-0.1,2.2
							c3.9,4.5,1.8,11.9-4.4,11.9c-6,0.1-8.6-5.9-7.8-11.2c0.1-0.6-0.1-2-1-2c-4.2,0.2-8.5,0.4-12.7,0.6c-0.4,0-0.4,0.8-0.4,1.1
							c0.5,5.4,0.9,10.8,1.4,16.3C17.4,89.1,18.8,89.9,18.7,88.2L18.7,88.2z"/>
					</g>
				</g>
			</g>
			<g>
				<g>
					<g>
						<path class="st19" d="M43.6,17c5.4-0.4,10.8-0.8,16.3-1.1c-0.3-0.5-0.7-0.9-1-1.4c0.2,3.6,0.4,7.1,0.6,10.7
							c0.2-0.4,0.4-0.7,0.6-1.1c-5.9-0.7-15.1,1.6-13.7,9.4c1.3,7.3,10.4,7.6,15.3,4.1c-0.4-0.5-0.8-1.1-1.2-1.6
							c-0.3,4.4-0.2,8.7,0.5,13c0.1-0.4,0.3-0.7,0.4-1.1c-5.7,0-11.3,0.7-16.9,2.1c-0.9,0.2-0.3,1.8,0.1,2.2
							c0.7,0.8,1.9,1.8,2.2,2.8c0.5,1.6-0.3,4.8-1.4,6c-1.8,1.8-5.2,2.2-7.5,2.2c-2.7,0-5.4-0.8-6.7-3.4c-0.6-1.2-0.3-5.1,0.6-6
							c0.9-1,2.6-1.5,3.8-1.9c0.8-0.3,0.3-2.4-0.5-2.5c-6.1-0.2-12.2-0.5-18.2-0.7c0.3,0.6,0.6,1.1,0.9,1.7c0-2.7-0.1-5.4-0.1-8.1
							c0-1.6-0.5-3.1,0.8-4.2c0.6-0.5,2.4-0.4,3.2-0.7c2.8-1,4.3-3.3,4.7-6.3c0.8-6.7-4.9-9-10.6-7.3c0.3,0.6,0.7,1.1,1,1.7
							c0.1-2.4-0.9-9.1,1.5-10.5c1.1-0.7,4.6-0.1,5.9-0.1c2,0.1,4.1,0.2,6.1,0.5c0.8,0.1,0.6-1.3,0.4-1.7C28.4,7.9,32,3.2,37.8,2.5
							c2.6-0.3,5.8,0.3,7.6,2.4c3.2,3.7,0.3,6.9-1.8,9.5c-0.6,0.7,0.4,3,1,2.3c2.4-2.9,4.6-6.1,3.5-10c-1-3.4-4-5.9-7.4-6.5
							c-4.1-0.7-8.6,0.8-10.9,4.3c-2.1,3.3-1.5,6.7-0.2,10.1c0.1-0.6,0.3-1.1,0.4-1.7c-4.7-0.5-9.3-0.6-13.9-0.3
							c-0.3,0-0.4,0.5-0.4,0.8c-0.1,3.7-0.2,7.4-0.3,11.2c0,0.5,0.3,1.9,1,1.7c3.5-1,9.4-1.4,8.3,4.7c-0.7,3.9-4.9,4.6-8.2,4.8
							c-0.3,0-0.4,0.5-0.4,0.8c0.1,4.3,0.1,8.6,0.2,12.9c0,0.4,0.2,1.7,0.9,1.7c6.1,0.2,12.2,0.5,18.2,0.7c-0.2-0.8-0.3-1.6-0.5-2.5
							c-3.8,1.2-7.2,3.6-6.3,8c0.9,4.1,4,7.7,8.2,8.1c4.3,0.5,9.9-0.9,11.7-5.3c1.5-3.8-1.1-7.3-3.4-10.1c0,0.7,0.1,1.5,0.1,2.2
							c5.6-1.4,11.1-2.1,16.9-2.1c0.4,0,0.4-0.8,0.4-1.1c-0.6-4.1-0.8-8.2-0.5-12.4c0-0.5-0.4-2.2-1.2-1.6c-2.2,1.6-4.6,2.5-7.3,2.2
							c-3.3-0.4-7.3-2.7-4.9-7.1c2.2-3.9,7.9-4.2,11.8-3.8c0.6,0.1,0.6-0.7,0.6-1.1c-0.2-3.6-0.4-7.1-0.6-10.7c0-0.5-0.4-1.4-1-1.4
							c-5.4,0.4-10.8,0.8-16.3,1.1C42.1,14.6,42.6,17.1,43.6,17L43.6,17z"/>
					</g>
				</g>
			</g>
		</g>
	</g>
</g>
</svg>
