<?xml version="1.0" encoding="utf-8"?>
<!-- Generator: Adobe Illustrator 22.0.0, SVG Export Plug-In . SVG Version: 6.00 Build 0)  -->
<svg version="1.1" xmlns="http://www.w3.org/2000/svg" xmlns:xlink="http://www.w3.org/1999/xlink" x="0px" y="0px"
	 viewBox="0 0 185 175.3" style="enable-background:new 0 0 185 175.3;" xml:space="preserve">
<style type="text/css">
	.st0{fill:#FFFEFD;}
	.st1{opacity:0.9;}
	.st2{fill:#CBE5CF;}
	.st3{fill:#DCEDDF;}
	.st4{fill:#E3F1E5;}
	.st5{fill:#E0EFE2;}
	.st6{fill:#D1E8D4;}
	.st7{fill:#D4E9D7;}
	.st8{fill:#BEDEC2;}
	.st9{fill:#C3E1C7;}
	.st10{fill:#C7E2CB;}
	.st11{fill:#EEF6EF;}
	.st12{fill:#EBF5EC;}
	.st13{fill:#FEF9DA;}
	.st14{fill:#FFFDF1;}
	.st15{fill:#FDF5C7;}
	.st16{fill:#FDF2B4;}
	.st17{fill:#FCEFA5;}
	.st18{fill:#FCED95;}
	.st19{fill:#272525;}
	.st20{opacity:0.85;}
	.st21{fill:#D3E6F6;}
	.st22{fill:#C4DEF3;}
	.st23{fill:#ACD0EE;}
	.st24{fill:#E2EFF9;}
	.st25{fill:#B8D7F0;}
	.st26{fill:#9FC9EB;}
	.st27{fill:#EADAEE;}
	.st28{fill:#F7F1F8;}
	.st29{fill:#DFC7E5;}
	.st30{fill:#D5B5DC;}
	.st31{fill:#CDA6D5;}
	.st32{fill:#C497CE;}
	.st33{fill:#D8BBDF;}
	.st34{fill:#E5D1E9;}
	.st35{fill:#E8D6EB;}
	.st36{fill:#DDC3E2;}
	.st37{fill:#DFC6E4;}
	.st38{fill:#CEA9D6;}
	.st39{fill:#D2B0DA;}
	.st40{fill:#F2E9F4;}
	.st41{fill:#F0E4F2;}
	.st42{opacity:0.8;}
	.st43{opacity:0.8;fill:#DC7D5B;}
	.st44{opacity:0.8;fill:#E9AE99;}
	.st45{opacity:0.8;fill:#F0C7B8;}
	.st46{opacity:0.8;fill:#F7E1DA;}
	.st47{fill:#F7E0D8;}
	.st48{fill:#FCF3F0;}
	.st49{fill:#F2D0C4;}
	.st50{fill:#EEC0B0;}
	.st51{fill:#EBB4A0;}
	.st52{fill:#E7A790;}
	.st53{fill:#F0C6B6;}
	.st54{fill:#F5D8CE;}
	.st55{fill:#F6DCD3;}
	.st56{fill:#F1CCBF;}
	.st57{fill:#F2CFC2;}
	.st58{fill:#ECB6A3;}
	.st59{fill:#EDBDAB;}
	.st60{fill:#FAECE7;}
	.st61{fill:#F9E8E2;}
	.st62{fill:#B7E9E6;}
	.st63{fill:#CFF0EE;}
	.st64{fill:#D9F3F2;}
	.st65{fill:#D4F2F0;}
	.st66{fill:#BFECE9;}
	.st67{fill:#C3EDEA;}
	.st68{fill:#A5E4E0;}
	.st69{fill:#ACE6E3;}
	.st70{fill:#B1E7E4;}
	.st71{fill:#E8F8F7;}
	.st72{fill:#E3F6F5;}
	.st73{fill:#FDF3BA;}
	.st74{fill:#FEF7D0;}
	.st75{fill:#FEF8D5;}
	.st76{fill:#FDF4C2;}
	.st77{fill:#FDF5C5;}
	.st78{fill:#FCF0A8;}
	.st79{fill:#FDF1AF;}
	.st80{fill:#FEFBE8;}
	.st81{fill:#FEFAE4;}
	.st82{fill:#C9E1F4;}
	.st83{fill:#DBEAF7;}
	.st84{fill:#DEEDF8;}
	.st85{fill:#CFE4F5;}
	.st86{fill:#D2E5F6;}
	.st87{fill:#BBD8F1;}
	.st88{fill:#C1DCF2;}
	.st89{fill:#EDF5FB;}
	.st90{fill:#EAF3FB;}
	.st91{fill:#C5EDEB;}
	.st92{fill:#91DED9;}
	.st93{fill:#A1E3DF;}
	.st94{fill:#80D8D3;}
</style>
<g id="background">
	<rect x="-451.6" y="-137.1" class="st0" width="1200" height="800"/>
</g>
<g id="colour">
</g>
<g id="object">
	<g>
		<g>
			<g class="st20">
				<g class="st20">
					<g>
						<path class="st21" d="M81.4,5.3c1.4-0.4,2.8-0.7,3.9-0.9c2.5,0,4.9,0.2,6.8,0.5c0.6-0.5,1.4-0.8,2.2-1.3
							c1.4-0.2,2.9-0.4,4.2-0.5c-1.8-0.6-3.1-0.9-4.3-1.3c-0.6-0.2-1.2-0.3-1.8-0.5c-0.7-0.2-1.4-0.4-2.2-0.7c0.9-0.2,2-0.5,2.9-0.6
							c1.4,0.3,2.9,0.5,4.4,0.8c1.5,0.3,3,0.7,4.5,1c1.5,0.4,3.2,0.8,4.7,1.2c0.5,0.3,0.8,0.6,1.1,0.9c1.3,0.2,2.7,0.5,4,0.7
							c1.4,0.3,2.7,0.6,4,0.8c0.8,0.3,1.6,0.6,2.4,0.9c1.1,0.6,2.1,1.2,3.4,1.8c0.7-0.6,3.6,1.5,5.1,1.6c4.7,2.5,7.1,5.1,9.4,5.3
							c0.8,0.9,3.3,2.5,5.8,4.3c3.2,0.5,2,2.6,5.3,3.4c0,0.2,0.3,0.6,0.8,1.1c0.5,0.5,1.1,1.1,1.8,1.7c0.7,0.6,1.4,1.2,2.1,1.6
							c0.6,0.5,1.2,0.9,1.6,1.1c3.2,3,6.5,6.7,9.6,10.5c3.2,3.9,6,8.1,8.5,12.2c1.4,2.3,3.1,5.6,4.4,9c1.3,3.4,2.2,6.7,2.4,8.9
							c0.6,1.6,0.8,0.8,1.2,1.2c0.1,0.5,0.3,1.4,0.5,2.1c0.1,0.7,0.2,1.3,0,1.1c-0.2,0.4,0.1,1.4,0.2,2.3c0.3,1.1,0.6,1.1,0.8,1.2
							c0.2,3.4,0.4,6.6,0.6,9.7c0.2,3.2,0.3,6,0.4,8.9c0.1,5.8-0.3,11.5-2.3,17.5c0.4,0.2,0.3,1.3,0.1,2.4c-0.2,1.1-0.4,2.3,0,2.7
							c-1,4.5-2.3,8.9-3.9,13.2c-1.1,2.8-2.4,5.7-4.2,8.7c-0.9,1.4-1.9,2.8-2.9,4.2c-1,1.4-2.2,2.6-3.2,3.9
							c-2.1,1.8-3.5,3.5-3.7,4.4l-2.5,2.2l-1.3,1.1l-1.3,1l-2.7,1.9l-2.8,1.7c-1.5,0.7-2.7,1.2-4,1.9c-0.6,0.3-1.3,0.7-1.9,1.1
							c-0.7,0.4-1.4,0.8-2.3,1.4c-0.6,0.3-1.3,0.6-1.9,0.8c-0.7,0.2-1.3,0.5-2,0.7c-1.3,0.5-2.6,1-3.8,1.3c-1.1,0.3-2.2,0.6-3,0.8
							c-0.9,0.2-1.6,0.4-2.2,0.6c-1.1,0.4-1.6,0.7-1.2,0.9l-1.5,0.4c-2.4,0.6-4.7,1.2-7.2,1.7c-0.7,0.2-1.5,0.4-2.3,0.6
							c-1.8,0.2-3.6,0.4-5.4,0.6c-2.1-0.1-3.3,0.8-4.2,1.1l-3.8,0.3l-3.8,0.2c-3.3-0.1-4.2,0.5-5.4,0.4c-4.7,0.1-9.4,0-14.1-0.3
							c-2.4,0.2-4.4,0-6.5-0.3c-0.2-0.2-0.3-0.3-0.5-0.5c-0.8-0.1-1.5-0.2-2.3-0.3c-2.7-0.1-4.9-0.5-7.1-0.6
							c-0.7-0.2-1.5-0.4-2.3-0.6c-0.4-0.2-0.9-0.4-1.4-0.6c-1.5-0.4-3.1-0.9-4.5-1.4c-1.5-0.4-2.7-0.8-4-1.3
							c-0.9-0.2-1.8-0.5-2.8-0.7c-0.3-0.3-0.6-0.6-0.9-0.9c-1.4-0.6-2.6-1.2-3.9-1.8c-1.3-0.8-2.4-1.4-3.5-2.1
							c-1.3-0.5-2.3-1.1-3.6-1.7c-2.1-1.4-3.3-2.7-3.5-3.8c-1.3-0.8-2.6-1.7-3.8-2.7c-0.5-0.5-0.9-0.9-1.2-1.3
							c-2.1-1.7-4-3.8-5.8-5.8c-2.5-3.5-4.9-6.6-6.3-10.5c-0.6-0.8-1.2-1.6-1.7-2.2c-0.7-1.4-1.2-2.4-1.8-3.7
							c-1.6-1.7-2.5-6.8-4-9.2c-0.7-2.2-1.3-4.6-1.8-6.8c0.5,0.2,0.9,0.3,1.4,0.5c0.4,0.6,0.7,1.1,1,1.7c0.3,1.2,0.5,2.4,0.8,3.7
							c0.3,2.2,1.2,2.1,1.7,3.3c1,2.2,2,4.4,3.1,6.6c0.8,1.9,1.5,3.7,2.5,5.6c2.3,3.9,4.9,7.6,8,11c1,1.3,2,2.5,3.1,3.8
							c1.7,1.8,3.6,3.5,5.4,5.1c-0.2-0.7-0.4-1.3-0.5-1.9c0.9,0.4,2.2,1.5,3.2,2.2c1.1,0.7,1.9,1.1,1.8,0.3c3,2.1,6.5,4.3,9.9,5.9
							c3.4,1.6,6.8,2.6,9.5,2.4c3.3-0.1,5.1,0.3,7,0.8c0.4,0.3,1,0.7,1.6,1c0.4,0.5,1,0.9,1.4,1.2c1.8,0.6,2.5,0,3.6,0
							c1-0.3,2.1-0.6,3.3-1c6.6,0.7,13.1,0.8,19.6,0.5c3.1,0.5,4.4-0.5,6.2-0.9c0.9-0.1,2-0.1,2.9-0.2c1.5-0.1,3-0.1,4.4-0.2
							c4-0.1,3.3-0.8,4.7-0.9c0.5-0.2,1-0.3,1.6-0.5c2.5,0,3.9-0.4,4.9-0.7c1-0.3,1.6-0.7,2.5-0.8c0.9,0,1.7-0.1,2.7-0.2
							c0.5-0.3,1-0.6,1.5-0.8c0.6-0.2,1.1-0.3,1.5-0.4c1.2-0.2,2-0.5,2.5-0.7c0.5-0.2,0.8-0.4,0.9-0.6c0.4-0.3,0.5-0.6,1.9-1
							c0.6-0.1,1.3-0.3,2-0.5c1.2-0.6,2.5-1.2,3.6-1.9c0.4,0,1.8-0.2,2.6,0c0.3-0.1,0.4-0.2,0.7-0.3c1.2-1.1,3.4-2.4,5.5-3.9
							c0.5-0.4,1.1-0.7,1.6-1.1c0.5-0.4,1-0.8,1.5-1.1c1-0.8,2-1.4,2.7-2c2-2,6-5.3,8.5-8.3c0.4-0.7,0.7-1.4,1.1-2.2
							c0.4-0.7,0.9-1.4,1.3-2.1c0.9-1.4,1.8-2.8,2.5-4.1c1.3-2.3,2.3-4.7,3.3-7.1c0.9-2.4,1.8-4.9,2.5-7.3c-0.5-1.4,0.6-3.5,0.4-4.4
							c0.1-0.8,0.3-2.4,0.7-3.9c0.3-1.5,0.7-2.9,1.1-3.4c0.1-0.5,0.2-0.9,0.3-1.6c-0.3-3.4,0.2-3.6-0.1-7.6c0.3-3,0.5-6,0.5-9.1
							c0.1-3.1-0.2-6.3-0.5-9.3c-0.3-1.3-0.6-0.5-0.7-1.8c-1-3.3,0.5-1.4-0.2-4.4c-1.4-2-1.7-5.9-3-7.2c-0.1-1-0.3-2.1-0.7-3.2
							c-0.2-0.6-0.4-1.1-0.6-1.7c-0.3-0.6-0.5-1.1-0.8-1.7c-1.1-2.3-2.5-4.7-3.6-7.1c-2.2-3.6-4.7-7-7.5-10.3c-2.8-3.2-5.8-6.3-9-9
							c-2.6-2.4-6.2-5.5-8.3-7.8c-0.5-0.4-1.2-0.9-1.9-1.3c-0.7-0.5-1.5-1.1-2.2-1.6c-0.8-0.5-1.5-1.1-2.2-1.6c-0.5,0.1-1,0-1.5,0
							c-5.5-3.4-11.5-6.5-17.5-8.8c-2.9-0.7-5.2-1.5-7.5-2.2c-2.3-0.8-4.8-1.5-7.9-2.2c-1.3-0.1-2.3,0.1-3.8-0.2
							C96.1,7,95,6.9,94,6.7c-2.4-0.3-4.8-0.5-7-0.6c-2.2-0.1-4.3,0-6.6,0.4c-1.6,0.3-3.4,0.9-5.1,1.8c-1.7,0.9-3.4,2.2-4.7,3.6
							c-0.2,0-0.3,0-0.4-0.1c0-0.1-0.1-0.1,0.1-0.5c0.4-0.6,1.2-1.6,2.4-2.5C74,7.9,75.6,7,77.1,6.4C78.6,5.8,80.2,5.4,81.4,5.3z"/>
					</g>
					<g>
						<path class="st22" d="M97.1,7.3c1.4,0.3,2.5,0.1,3.8,0.2c3.1,0.7,5.5,1.4,7.9,2.2c2.4,0.7,4.7,1.5,7.5,2.2
							c5.9,2.3,11.9,5.3,17.5,8.8c0.4,0,1,0,1.5,0c0.7,0.5,1.5,1,2.2,1.6c0.7,0.6,1.5,1.1,2.2,1.6c0.7,0.5,1.4,0.9,1.9,1.3
							c2.2,2.3,5.7,5.4,8.3,7.8c3.2,2.7,6.2,5.8,9,9c2.8,3.2,5.3,6.7,7.5,10.3c1,2.4,2.5,4.7,3.6,7.1c0.3,0.6,0.6,1.2,0.8,1.7
							c0.2,0.6,0.5,1.1,0.6,1.7c0.4,1.1,0.6,2.2,0.7,3.2c1.4,1.4,1.6,5.2,3,7.2c0.6,2.9-0.8,1.1,0.2,4.4c0.1,1.4,0.4,0.5,0.7,1.8
							c0.3,3.1,0.6,6.2,0.5,9.3c0,3.1-0.2,6.1-0.5,9.1c0.2,4-0.2,4.1,0.1,7.6c-0.1,0.6-0.2,1.1-0.3,1.6c-0.3,0.5-0.8,1.9-1.1,3.4
							c-0.3,1.5-0.6,3.1-0.7,3.9c0.3,0.9-0.8,3-0.4,4.4c-0.7,2.5-1.6,4.9-2.5,7.3c-1,2.4-2,4.8-3.3,7.1c-0.7,1.2-1.7,2.6-2.5,4.1
							c-0.5,0.7-0.9,1.4-1.3,2.1c-0.4,0.7-0.8,1.5-1.1,2.2c-2.5,3-6.5,6.2-8.5,8.3c-0.7,0.6-1.7,1.3-2.7,2c-0.5,0.4-1,0.8-1.5,1.1
							c-0.5,0.4-1.1,0.7-1.6,1.1c-2.1,1.5-4.3,2.8-5.5,3.9c-0.3,0.1-0.4,0.2-0.7,0.3c-0.8-0.2-2.2-0.1-2.6,0
							c-1.2,0.7-2.4,1.2-3.6,1.9c-0.7,0.2-1.4,0.4-2,0.5c-1.4,0.4-1.5,0.7-1.9,1c-0.2,0.2-0.4,0.3-0.9,0.6c-0.5,0.2-1.3,0.5-2.5,0.7
							c-0.5,0.1-0.9,0.2-1.5,0.4c0,0.1-0.1,0.3-0.2,0.5c-0.5,0.1-0.9,0.2-1.4,0.3c-1,0.1-1.9,0.1-2.7,0.2c-0.9,0.1-1.5,0.5-2.5,0.8
							c-1,0.3-2.4,0.8-4.9,0.7c-0.4-0.3-0.7-0.6-1-0.9c0.6-0.3,1.2-0.7,1.9-1.1c2.4-0.4,3.7-0.7,4.8-1c1.1-0.3,1.9-0.6,3.2-1
							c1.7,0,3.5-0.8,5-1c1.5-0.4,2.8-0.7,4.2-1.1c1-0.5,2-1,3-1.4c0.9-0.4,1.8-0.9,2.6-1.3c0.8-0.4,1.6-0.8,2.4-1.2
							c0.8-0.4,1.5-0.8,2.2-1.2c2.9-1.6,5.6-3.3,8.5-5.7c1.7-1.1,2.8-2,3.6-2.9c0.8-0.9,1.3-1.8,1.9-2.8c-1.1,0.8-1.8,1.5-2.3,2
							c-0.5,0.5-1,0.9-1.3,1.2c-0.6,0.7-1,1.2-1.9,2c-0.6,0.3-1.2,0.4-1.8,0.5c-0.6,0.5-1.2,1-1.9,1.6c-0.6,0.5-1.3,0.9-2,1.4
							c-0.7,0.4-1.3,0.9-2,1.2c-0.7,0.4-1.4,0.7-2.1,1c-1.3,0.7-2.7,1.2-4,1.7c-1.3,0.5-2.5,0.8-3.6,1.1c-1.8,1-3.5,1.7-5.1,2.5
							c-1.7,0.6-3.5,1.2-5.2,1.8c-1.5,0-3,0-4.5-0.1c-2.5,0.2-4.4,0.5-5.9,0.6c-1.5,0.1-2.7,0.2-3.7,0.2c-0.9,0.2-1.9,0.4-2.8,0.6
							c-0.9,0.2-1.8,0.4-2.7,0.5c-2.8,0.1-5.6,0.2-8.6,0.3c0.3-0.5,0.6-1,0.8-1.5c1.2-0.1,2.4-0.1,3.6-0.2c2.6,0.4,4,0.2,5.2,0
							c1.2-0.2,2-0.5,3.4-0.7c0.4,0.1,0.7,0.2,1.3,0.3c1.4-0.3,2.9-0.7,4.3-1c2.8-0.1,5.5-0.3,8.2-0.6c1.1-0.8,2.2-1.4,3.3-1.8
							c1-0.4,2-0.5,2.6-0.8c0.7,0.2,1.7-0.2,2.8-0.7c1.1-0.5,2.3-1.3,3.4-1.6c0.8-0.5,2.8-1.5,3.9-2.3c1-0.4,1.7-0.8,2.6-1.3
							c0.1-0.1,0.4-0.2,0.5-0.3c0,0.3,0,0.5-0.1,0.7c1.5-0.6,3-1.5,4.4-2.2c0.8-0.7,1.4-1.3,2.1-1.8c0.6-0.5,1.3-0.9,2-1.5
							c0.3-0.8,0.5-1.5,0.8-2.3c0.3-0.3,0.7-0.6,1.1-0.9c0.3-0.3,0.7-0.6,1-0.9c0.6-0.4,1.1-0.7,1.7-1c0.5-0.6,0.8-1.3,1.2-2
							c0.4-0.7,0.9-1.4,1.3-2.1c0.3-0.3,0.6-0.6,0.8-0.9c0.4-0.6,0.8-1.2,1.3-1.8c0.6,0,1.2-0.2,1.8-0.4c0.2-1.4,1.1-3,2-4.7
							c0.8-1.7,1.7-3.6,1.8-5.3c0.5-0.9,0.8-1.7,1.1-2.3c0.3-0.6,0.5-1.2,0.6-1.6c0.3-0.9,0.4-1.4,0.5-2c0.3-0.5,0.5-0.8,0.8-1.1
							c0.1,0.7,0.1,1.3,0.2,2.2c0.2-0.2,0.4-0.4,0.5-0.4c0.2-0.8,0.5-1.7,0.7-2.5c0.2-0.9,0.4-1.7,0.7-2.5c-0.1,2.7-0.5,4.7-1.2,5.2
							c-0.3,1.3-0.7,2.5-1,3.7c-1,3.9-2.7,7.8-4.6,11.2c-0.9,1.7-2,3.3-2.9,4.8c-0.9,1.5-1.9,2.8-2.6,4.1c1.2-1.1,2.1-1.9,2.7-2.6
							c0.7-0.7,1-1.3,1.1-1.8c3.9-5.1,6.6-12,8.6-18.9c2-7,3.2-14.3,4.4-21.1c-0.2-1.5-0.3-2.9-0.5-4.4c0.2-3.7,0.2-7.8-0.2-11.7
							c-0.4-3.9-1.1-7.6-2.3-10.5c0.2,0.2,0.3-0.2,0.2-0.6c-0.4-1.6-0.9-2.5-1.4-3.3c-0.6-0.7-1.1-1.3-1.5-2.4
							c-0.3-1.3-0.7-2.8-1.2-4.2c0.7-1.4-2.3-4.4-3.5-6.9c-1-2.3-2.3-4.6-3.4-6.7c-0.6-0.7-1.2-1.6-2-2.6c-0.8-0.9-1.6-1.9-2.5-2.8
							c-1.8-1.7-3.5-3.3-4.7-3.6c-0.5-0.4-1-0.8-1.3-1.1c-3.5-3.4-7.4-6.7-11.4-9.5c0.5-0.2,1.1-0.4,1.6-0.6c-0.6-1-2.9-2.3-4.2-3.3
							c-0.7-0.5-1.2-0.8-1.9-1.3c-0.5-0.1-0.9-0.2-1.2-0.2c-1.1-0.7-2.2-1.4-3.3-2c-1.1-0.6-2.2-1.3-3.4-1.9
							c-1.5-0.4-1.3,0.3-3.1-0.4c-1-0.5-1.9-0.9-2.9-1.4c-0.4-0.7-1.1-1.4-1.5-2.1c-0.4-0.6-2.3-1.1-3.4-1.6c-0.4,0-0.8-0.1-1.4-0.2
							c-0.5-0.1-1.1-0.3-1.8-0.4c-1.2-0.3-2.6-0.7-3.6-0.8c-1.5-0.5-2.9-0.9-4.5-1.4c-0.5-0.5-2.4-0.8-3.6-1.1
							c-1.9-1.2-3.7-1.3-3.8-1.8C97.6,7.5,97.4,7.4,97.1,7.3z"/>
					</g>
					<g>
						<path class="st21" d="M109.6,11.8c1.1,0.1,2.4,0.4,3.6,0.8c0.6,0.2,1.2,0.3,1.8,0.4c0.5,0.1,1,0.2,1.4,0.2
							c1.1,0.6,3,1.1,3.4,1.6c0.5,0.7,1.1,1.4,1.5,2.1C117.5,14.9,113.6,13.3,109.6,11.8z"/>
					</g>
					<g>
						<path class="st21" d="M134,22.5c0.3,0,0.7,0.1,1.2,0.2c0.7,0.4,1.2,0.8,1.9,1.3c1.4,1.1,3.6,2.3,4.2,3.3
							c-0.5,0.2-1.1,0.4-1.6,0.6c-2.2-1.7-4.4-3.3-6.8-4.8c-2.9-1.8-5.8-3.4-8.7-4.8c1.8,0.7,1.6,0,3.1,0.4c1.2,0.6,2.3,1.3,3.4,1.9
							C131.8,21.1,132.9,21.8,134,22.5z"/>
					</g>
					<g>
						<path class="st21" d="M147.6,39.4c1.3,0.4,2.6,1.6,3.7,2.9c1.1,1.3,2.2,2.7,3.4,3.5c0.3,0.6,0.5,1.3,0.7,1.9
							c-0.3,0-0.7,0.1-1,0.1c-1.2-1.2-2.5-2.3-3.7-3.3c-0.3-0.4-0.6-0.9-0.8-1.3c-0.3-0.4-0.6-0.8-0.9-1.2c-0.6-0.8-1.1-1.6-1.7-2.4
							C147.4,39.4,147.5,39.4,147.6,39.4z"/>
					</g>
					<g>
						<path class="st21" d="M164.7,75.5c-0.1,0.5-0.1,1.1-0.1,1.8c-0.2-0.1-0.4-0.1-0.7-0.2c-1.3-1.3-1.3-3.6-2-5.4
							c0.5,0.3,1-0.3,1.5,0.9C164,73.6,164.3,74.5,164.7,75.5z"/>
					</g>
					<g>
						<path class="st23" d="M167.2,69.2c0.1,1.1,0.2,2.2,0.3,3.3c0.2,1.8,1,2.7,1.3,4.4c0.5,1.3,0.8,2.6,1.3,3.9
							c0.3,0.3,0.6,0.7,0.9,1c0,0.7,0.1,1.5,0.1,2.2c0,0.7,0,1.4,0,2.1c-0.3,0.4-0.7,0.7-1,0.9c-0.2,3-0.2,4.8-0.1,6.4
							c0.1,1.5,0.3,2.6,0.3,4.1c0,0.5-0.1,0.9-0.2,1.5c-0.3,2.1-0.6,4.1-1.1,6.3c-0.1,0.9-0.2,2-0.4,2.9c-0.2,1.5-0.5,2.9-0.8,4.4
							c-0.1,0.4-0.2,0.9-0.3,1.3c-0.4,1.4-0.8,2.9-1.2,4.2c-0.2,0.6-0.3,1-0.5,1.4c-0.4,1.6-1,3.2-1.5,4.8c-0.2,0.5-0.4,1-0.6,1.4
							c-1,2.6-2,4.9-3.3,7.3c-0.2,0.4-0.4,0.9-0.6,1.3c-0.4,0.6-0.8,1.2-1.3,1.8c-0.3,0.3-0.6,0.6-0.8,0.9c-1,1-2.2,2.1-3,3
							c-0.9,0.9-1.4,1.6-1.2,2c-0.3,0.3-0.7,0.6-1,0.9c-0.4,0.3-0.7,0.6-1.1,0.9c-1,0.8-2.1,1.6-3.4,2.3c-0.8,1-1.8,1.9-2.9,2.7
							c-1.1,0.8-2.1,1.5-3.1,2.1c-0.1,0.1-0.4,0.2-0.5,0.3c-0.9,0.4-1.7,0.9-2.6,1.3c-1.1,0.3-2.1,0.5-3.1,0.7
							c-1.2,0.5-2.6,1-3.8,1.4c-1,1-4.6,2.4-4,1.3c-2.4,1.2-4.2,1.5-5.6,1.6c-0.9,0.2-1.9,0.5-2.8,0.8c-1.2,1-3.4,1.1-4.6,1.6
							c-1.9,0.3-3.7,0.5-5.6,0.7c-0.8-0.1-1.8-0.1-2.6-0.2c-1.3,0.8-4.5,1.1-4.5,0.8c-0.6-0.3-0.8-0.6,0.2-0.4
							c-3.1,0.2-5.1,0.2-5.3,0.7c-2.2,0.2-4.3,0.4-6.6,0.5c-1.3,0-2.7-0.2-4.2-0.3c-0.1,0.2-0.2,0.4-0.4,0.6c-1.3,0-2.8-0.1-4.1-0.2
							c-2.1-0.2-4.1-0.5-6.2-0.9l-0.5,0.6c-2.5-0.3-5-0.8-7.4-1.4c-1.7,0.4-3.8-0.4-5.2-0.8c-0.4-0.3-0.5-0.7-1.1-1
							c-0.6-0.3-1.5-0.6-3.3-0.8c-0.6-0.2-1.3-0.5-1.9-0.7c-0.6-0.3-1.3-0.5-1.9-0.7c-2.6-1.2-4.9-2.5-7.1-4
							c-0.7-0.1-1.6-0.5-2.5-1.1c-0.9-0.6-1.9-1.2-2.8-1.6c-1.3-1.2-2.4-2.5-3.4-3.8c-2.1-2.1-3.7-3.8-5.2-5.6
							c-1.5-1.8-2.9-3.7-4.5-6.2c-1-2.5-1.9-4.1-1.3-3.7c1.6,1.5,2.6,3.8,3.5,4.3c0.8,1.3,1.7,2.8,2.6,4c0.6,0.2,1.4,1.4,2.2,2.4
							c0.8,1,1.6,1.9,2.2,1.5c0.7,1,1.4,2,2.1,2.9c2.1,1.8,4.6,3.7,7.4,5.4c2.8,1.7,6,3.1,8.9,4c1.3,0.7,2.7,1.3,4,1.9
							c0.9,0.2,2,0.9,2.7,0.7c0.5,0.1,1.2,0.2,2,0.4c0.8,0.2,1.6,0.4,2.4,0.6c1.6,0.4,3.2,0.9,3.9,1.5L73,160c3-0.2,4.4,0.2,5.4,0
							c-0.3-0.7,2.5-0.2,3.9-0.3c2.4-0.1,1.5,0.5,3.7,1c2.5-0.8,6-0.6,7.1-1.3c3.7,0.3,7.5,0,11.2-0.5c3.8-0.5,7.5-1.3,11.4-1.8
							c0.5,0.1,1.1,0.2,1.7,0.5c1.2-0.4,2.5-0.8,3.7-1.3c0.9-0.4,2-0.8,2.9-1.3c1.4,0,2.7-0.3,3.7-0.6c1-0.4,1.9-0.9,2.8-1.4
							c0.9-0.5,1.6-1,2.5-1.4c0.9-0.4,1.8-0.6,2.9-0.6c0.8-0.4,1.9-0.6,2.5-1.3c-0.7-0.5,1-1.2,2.4-1.9c0,0.3-0.3,1.1,1.2,0.3
							c1.2-0.5,2-1.2,2.7-1.9c0.7-0.7,1.2-1.5,1.7-2c0.8-0.5,1.6-1.1,2.4-1.7c0.8-0.6,1.6-1.2,2.3-1.9c4-3.5,7.2-7.5,9.7-12.2
							c0.4-0.8,0.8-1.5,0.8-2.1c-0.8,0.1,0-1.6,0.6-3.1c0,0.5,0.3,0,0.6-0.3c0.7-2.4,0.7-3.5,1.7-6.2c0.4,0.5,0.8-1.4,1.3-1.2
							c0.7-4.2,1.4-8.6,2-13c0.6-4.5,0.9-9.1,0.5-13.8c-0.5,2.7-0.9,6.1-1.3,9.4c-0.4,3.4-0.8,6.7-1,9.2c-0.2,2.5-0.6,1.1-1.1,3.1
							c-0.4,5.5-3.1,11.6-5.1,16.6c-0.9,2.3-2.4,4.9-4.1,7.3c-0.4,0.6-0.8,1.2-1.3,1.7c-0.4,0.5-0.9,1.1-1.2,1.6
							c-0.8,1-1.6,1.8-2.2,2.6c-0.4,0.4-1,0.7-1.5,1c-0.5,0.3-1.1,0.7-1.6,1c-0.4-0.2-0.8-0.5-1.2-0.7c1.3-1.3,2.5-2.3,3.6-3.6
							c0.2-1.1,2.5-2.9,3.5-4.4l1.8-2.5c0.5-0.9,1.1-1.7,1.6-2.7c0.3-1.2,0.4-2.4,0.9-3.6c0.5-0.9,1-1.8,1.5-2.8
							c0.4-1,0.9-1.9,1.3-2.9c1.9-6.9,3.7-14.4,4.1-21.8c0.3-2.7,0.3-4.8,0.3-6.6c0-0.9-0.1-1.6-0.1-2.4c0-0.7-0.1-1.4-0.2-2.1
							c-0.1-3-0.3-6-0.9-9.2c0.2,0.1,0.4,0.1,0.7,0.2c0.2,0.6,0.5,1.2,0.7,1.8l0.6,1.8c1.2,1.1,0.1-2.9-0.1-4.6
							c0-0.1-0.1-0.4-0.1-0.6c-0.2-2-0.4-3.3-0.7-4.3c-0.2-1-0.4-1.7-0.6-2.3c-0.2-0.7-0.4-1.4-0.6-2.1c-0.2-0.7-0.4-1.3-0.6-1.9
							c0.3-0.2,0.6-0.3,0.9-0.5c0.5,0.1,1,0.2,1.4,0.3C166.2,66.4,166.6,67.7,167.2,69.2z"/>
					</g>
					<g>
						<path class="st21" d="M158.1,124.8c-0.5,1.3-0.5,2.4-0.9,3.6c-0.5,1-1.1,1.8-1.6,2.7l-1.8,2.5c0-0.9,0-1.7,0-2.4
							c1.2-1.9,2.3-3.8,3.2-6C157.4,125,157.8,124.9,158.1,124.8z"/>
					</g>
					<g>
						<path class="st24" d="M62.7,172.3c-3-0.6-5.3-0.9-7.4-1.4c-2.1-0.5-4-1.1-6-2.4c-0.7-0.3-1.5-0.7-2.3-1
							c-0.8-0.4-1.6-0.8-2.4-1.1c-2.1-0.8-4.6-2.2-7-4c-2.4-1.8-4.8-4-6.8-5.9c-1.7-0.2-3.8-2.1-5.7-4.3c-1.9-2.2-3.5-4.7-4.9-6.1
							c-2.3-3.7-2.7-6.1-4.6-10.1c-2.6-3.1-4.2-8.4-5.8-8.6c-0.7-1.9-1.2-3.6-1.5-5.3c-1.5-2.2-2.1-5.7-2.8-8.8
							c-0.6-1.4-1.1-2.9-1.6-4.4c-0.3-3.6-0.8-6.2-1.2-8.8c-0.4-2.6-0.8-5.2-0.7-8.7c-0.4-2.6,0.1-7.2-1-7.7c0.6-5.1,0.8-8,1.1-12.5
							c-1.7,2.1-2.2,8.3-3.4,7.6c-0.3-1.2-0.2-2.5,0-3.9c0.2-1.4,0.6-2.8,1-4.1c0.8-2.6,1.6-4.8,1-6c0.3-0.8,0.7-2,1-3
							c0.4-1,0.7-1.8,0.9-1.7c2-4.3,3.7-4.5,6.4-8.6c0.9-1.4,2.7-3.9,2.7-2.5c-0.2,1-0.4,2.3-0.6,3.5c-0.7,1.3-1.2,2.6-1.8,3.9
							c-0.7,1-1.4,2.1-2.1,3.1c-0.3,1.6-1.1,4.3-0.8,4.9c-1.2,2.9-1.5,3.7-1.5,6.8c0,1.7,0,3.5,0.1,5.1c-0.6,4-0.9,7.7-1,11.7
							C3.9,91.8,4,95.6,4.4,99.5c0.7,2.2,1.1,6.4,2.1,9.3c0.1,0.6,0.1,1.4,0.2,2.2c0.4,1.7,0.9,3.2,1.4,4.8c0.5,2.2,1.2,4.6,1.8,6.8
							c1.5,2.3,2.4,7.4,4,9.2c0.6,1.2,1.1,2.3,1.8,3.7c0.5,0.7,1.1,1.5,1.7,2.2c1.4,4,3.8,7,6.3,10.5c1.8,2,3.7,4,5.8,5.8
							c0.3,0.4,0.7,0.8,1.2,1.3c1.2,1,2.5,1.8,3.8,2.7c0.2,1.1,1.4,2.4,3.5,3.8c1.3,0.6,2.3,1.1,3.6,1.7c1.1,0.8,2.2,1.3,3.5,2.1
							c1.3,0.6,2.4,1.1,3.9,1.8c0.3,0.3,0.6,0.6,0.9,0.9c1,0.3,1.9,0.5,2.8,0.7c1.3,0.5,2.5,0.9,4,1.3c1.4,0.5,3,1,4.5,1.4
							C61.8,171.9,62.2,172.1,62.7,172.3z"/>
					</g>
					<g>
						<path class="st23" d="M25.3,128.6c0,0-0.1,0-0.2,0c-0.4-0.8-0.9-1.8-1.2-2.6c-0.6-1.5-1.2-3.2-1.6-4.7c-0.4-1.1-0.7-2.2-1-3.4
							c-1.1-0.5-1.2-4-2.3-6.3c-0.2-0.1-0.4-0.1-0.7-0.2c-0.2-0.2-0.4-0.5-0.6-0.9c0.1,0,0.2,0.1,0.2,0.1c-0.1-1.5-0.1-3-0.2-4.5
							c-0.2-1.2-0.3-2.3-0.5-3.5c-0.3-1.5-0.9-1.4-1.1-2.6c0-0.6-0.1-1.3-0.1-2c-0.4-0.2-0.8-0.4-1.3-0.7c-0.4-1.4-0.8-2.1-0.7-3.2
							c0-2.8-0.1-3.3-0.4-3.3c-0.2,0.1-0.6,0.7-0.8,0.3c-0.2,0.2-0.4,0.4-0.6,0.4c0.2,6.3,1.3,10.8,2.2,14.4c0,0.7,0,1.4,0.1,2.1
							c0.3,1.4,0.7,2.9,1.1,4.4c0.3,0.5,0.6,1,1,1.6c0.3,1.1,0.5,2.2,0.8,3.2c0.3,1,0.6,2.1,0.9,3.1c0.2,1.1,0.5,2.3,0.7,3.4
							c0.3,1.1,0.6,2.3,0.9,3.4c-0.6-0.6-1.1-1.4-1.7-2.2c-0.3-1.3-0.9-2.1-1.6-3.6c-2.3-5.4-2.6-10.4-4.2-13.3c0-3-0.9-6-1.3-9.1
							c-0.5-3-0.8-6.1,0.2-8.8c-0.3-1-0.5-2.1-0.7-3.1c-0.2-1-0.4-2.1-0.5-3.2c-0.3,0.6-0.6,1-1,1.6c-0.4-0.3-0.8-0.6-1.3-1.1
							c-0.2,1.4-0.4,2.7-0.6,4.1c-0.1,1.4-0.3,2.7-0.3,4.1c-0.5-1.6-0.5-2.9-0.6-4.1c0-1.1,0-2-0.1-2.8c0-0.7,0.1-1.1,0.2-1.6
							C6,81.8,6,79.5,6,77.4c0-0.2,0.1-0.5,0.1-0.7c0.3-1.2,0.6-2.3,0.9-3.4c0.3-1.1,0.7-2.2,1.1-3.3c0-0.2,0.1-0.5,0.2-0.6
							c-0.2-1.1,0-2.2,0.3-3.4c0.3-1.2,0.8-2.3,1.2-3.5c0.4-1,0.8-2,1.2-3c0.4-1,0.8-2,1.3-2.9c0.1-0.4,0.2-0.8,0.2-1
							c-0.4,0.1-0.8,0.1-1.4,0.4c-0.3,0.1-0.7,0.9-1,1.5c-0.3,0.7-0.6,1.2-0.8,0.7c-0.1-0.2-0.2-0.4-0.4-0.6
							c0.1-0.5,0.2-0.9,0.1-1.2c0.6-1.3,1.1-2.6,1.8-3.9c1.3-1.9,1-0.4,1.4-0.3c0.6-0.4,1.5-2.2,2.2-3.3c2-1.9,2.9-3.1,3.8-4.4
							c0.8-1.3,1.6-2.6,3.2-4.4c1.4-0.8,2.8-1.6,4.2-2.2c-0.7,1.1-1.3,2.2-2,3.5c0.1,0.5,0.2,0.9,0.4,1.5c-0.8,1-1.7,1.9-2.5,3
							l-0.3,2.7c-1,1.4-2.2,2.8-3.1,4.2c-0.2,0.5-0.4,1-0.7,1.6c-0.3,0.4-0.5,0.7-0.8,1c-0.9,1.4-1.3,2.5-1.5,3.4
							c-0.2,0.9-0.1,1.8,0,2.9c0,1.6-1.3,3.5-1.4,5.5c0.2,0.3,0.4,0.5,0.6,0.8c0.4,0.3,0.9,0.5,1.3,0.8c0.3-1,0.6-1.8,1-2.8
							c0.4-0.3,0.9-0.7,1.3-1.2c0.6-0.7,1.5-2.7,2.1-4.5c0.1-0.1,0.2-0.4,0.3-0.5c0.7,0,1.4-0.1,2.1-0.1c0.7-1.2,0.3,0.8,1.2-0.1
							c0.8-1.5,1.6-2.8,2.5-4c-0.2,0.9-0.4,1.7-0.6,2.5c-0.2,0.7-0.2,1.4-0.2,2c0.8-0.9,1.6-1.7,2.5-2.5c-0.3,1.9-1.4,3.8-1.5,5.1
							c-0.9,1.6-1.8,3.3-2.6,5c-0.3-0.4-0.7-0.8-1.1-1.3c-0.4,1-0.8,2-1.2,3.1c0.2,3-0.9,5.9-1.5,9c-0.2-0.7-0.4-1.3-0.6-2
							c-0.7,2.4-0.8,3.9-0.9,5.2c-0.1,1.3-0.2,2.3-0.7,4c0,4.5,0.7,3.1,0.9,5.5c0.3-1.6,0.4-2.9,0.4-4c0-1.1,0.1-2.1,0.1-2.9
							c0-0.8,0-1.6,0.1-2.3c0.1-0.7,0.2-1.4,0.6-2.1c0.4,0.5,0.9,1.2,1.4,1.9c0,0.7,0,1.4,0.1,2.1c-0.1,3.7,0.1,7.3,0.6,11
							c0.7,3.9,0.9,8.8,2.4,13.4c0.4,1.1,0.7,2.2,1.1,3.4c0.6,4.4,1.7,6,2.5,7.8l0.4,1.2c-0.4-0.1-0.9-0.2-1.4-0.3
							c-1.8-3.8-3-5.2-3.6-7.5c-0.2-0.8-0.4-1.8-0.6-2.6c-0.3-0.7-0.5-1.3-0.8-2.1c-0.1-1.1-0.2-2.1-0.3-3.2
							c-0.2-2.5-1.3-2.7-1.6-4.5c-0.1-1.9-0.1-4-0.1-5.8c0-2.3-0.8-1.1-1.2-2.8c0,1.1,0,2.2,0,3.4C18.9,97,19.9,98,20,99.8
							c-0.1,1-0.2,2.1-0.3,3.1c-0.1,3,1.1,2.1,1.5,4.4c0.1,2.6,0.4,3.9,0.8,4.7c0.4,0.9,0.7,1.4,1.1,2.7c0.1,3.1,1.1,3.6,1.3,5.2
							c-0.1,0.1-0.2,0.3-0.2,0.6c0.2,1,0.4,2.1,0.6,3.2c0.6,1.8,1.3,3.4,2,5.1C26.1,128.7,25.7,128.6,25.3,128.6z"/>
					</g>
					<g>
						<path class="st21" d="M14,67c0.1-2.1,1.3-3.9,1.4-5.5c0.5-0.8,1-1.6,1.5-2.4c0.5-0.8,1-1.6,1.6-2.4c-0.1,0.9-0.1,1.7-0.1,2.4
							c-0.1,0.5-0.4,1.2-0.6,1.8c-0.2,0.6-0.2,1.1,0.2,0.9c-0.4,1.3-0.7,2.6-1,3.9c-0.4,1-0.7,1.8-1,2.8c-0.4-0.3-0.9-0.4-1.3-0.8
							C14.4,67.5,14.2,67.3,14,67z"/>
					</g>
					<g>
						<path class="st25" d="M16.8,55.2c0.3-0.3,0.6-0.6,0.8-1c0.3-0.6,0.5-1.1,0.7-1.6c0.9-1.4,2.1-2.9,3.1-4.2l0.3-2.7
							c0.8-1,1.7-2,2.5-3c-0.1-0.5-0.2-1-0.4-1.5c0.7-1.2,1.3-2.4,2-3.5c1.3-0.8,2.3-1.3,3.1-1.4c0.8-0.2,1.3-0.1,1.4,0.5
							c1.4-0.9,2.1-1.3,2.6-1.5c0.5-0.2,0.7-0.3,1.1-0.4c0,0.4,0,0.8,0.1,1.5c0.2,0.3,0.4,0.5,0.7,0.8c0.5,0,1.2,0,1.8,0
							c-0.7,0.8-1.5,1.8-2.1,2.6c0.7-0.1,1.6-0.2,2.4-0.2c-0.3,0.6-0.6,1.1-1,1.8c-0.6,0.8-1.3,1.5-1.9,2.4
							c-0.6,0.9-1.2,1.7-1.8,2.6c-1.2,1.7-2.1,3.3-3.1,5c0.1,0,0.4-0.1,0.5,0c-0.1,0.8-0.1,1.5-0.2,2.3c-0.5,1.2-0.9,2.4-1.3,3.7
							c-0.9,0.9-1.7,1.6-2.5,2.5c0.1-0.6,0.1-1.3,0.2-2c0.1-0.8,0.4-1.6,0.6-2.5c-0.8,1.3-1.7,2.6-2.5,4c-0.9,0.9-0.5-1.1-1.2,0.1
							c-0.7,0-1.4,0.1-2.1,0.1c0.4-1.2,0.8-2.3,1.2-3.4c0.5-1.1,0.9-2.3,1.4-3.4c0.9-0.9,1.7-2,2.6-2.9c0.1-0.6,0.3-1.1,0.4-1.7
							c0.1-0.6,0.3-1.1,0.5-1.7c-0.7,0-1.3,0.1-2,0.1c-0.7,1.2-1.3,2.2-2,3.6c-0.7,1-1.6,2.1-2.3,3.2c-0.8,1.1-1.4,2.2-2.1,3.3
							c-0.6,0.8-1.1,1.6-1.6,2.4c-0.5,0.8-1,1.6-1.5,2.4c-0.1-1.1-0.2-1.9,0-2.9C15.5,57.6,15.9,56.6,16.8,55.2z"/>
					</g>
					<g>
						<path class="st21" d="M23.1,51.1c0.5-0.8,1.2-1.6,1.8-2.4c0.6-0.8,1.2-1.5,1.9-2.3c0.1,0,0.4-0.1,0.6-0.3
							c-0.5,1.3-1,2.4-1.4,3.7c-0.9,0.9-1.8,2-2.6,2.9C23.2,52.2,23.2,51.6,23.1,51.1z"/>
					</g>
					<g>
						<path class="st24" d="M83.2,3.2c1.6-0.4,3.2-0.4,5-0.3c1.8,0.1,3.9,0.4,6.2,0.8c-0.8,0.4-1.6,0.8-2.2,1.3
							c-2-0.3-4.3-0.6-6.8-0.5c-0.5-0.1-1.1-0.2-1.7-0.4C82.8,3.6,83,3.4,83.2,3.2z"/>
					</g>
					<g>
						<path class="st24" d="M101.6,9.3c-1.6,0.2-3.3-0.4-4.9-0.7c0.3-0.3,0.7-0.7,1.1-1C97.9,8,99.6,8.2,101.6,9.3z"/>
					</g>
					<g>
						<path class="st24" d="M106.8,3c1.8,0.4,3.7,0.8,5.3,1.1c1.6,0.4,3,0.8,3.8,1.4c-1.3-0.3-2.7-0.6-4-0.8c-1.4-0.2-2.7-0.5-4-0.7
							C107.6,3.6,107.3,3.3,106.8,3z"/>
					</g>
					<g>
						<path class="st24" d="M120.4,6.6c1.4,0.4,2.8,0.9,4.3,1.4c0.8,0.5,1.7,1.1,2.5,1.6c5.6,2.6,11.1,5.8,16.2,9.3
							c2.6,1.4,5.5,3.5,8.3,6c1.4,1.2,2.8,2.6,4.2,3.9c1.4,1.3,2.6,2.7,3.9,4c2.1,1.8,4.5,4.5,6.7,7.6c2.2,3,4.1,6.4,5.9,9.2
							c2.8,4.7,5.1,9.8,6.9,15.2c1.8,5.4,3.1,11,3.7,16.8c0.2,1.4,0.3,2.9,0.4,4.3c0,1.4,0.1,2.9,0.1,4.3c0,2.8-0.1,5.5-0.3,8.2
							c-0.4,5.4-1.1,10.7-2.1,15.9c0.3,0.4-0.4,2.3-1.3,3.6c-0.4-0.4-0.2-1.6,0-2.7c0.2-1.1,0.4-2.2-0.1-2.4
							c2.1-6,2.4-11.8,2.3-17.5c0-2.9-0.2-5.8-0.4-8.9c-0.2-3.1-0.4-6.3-0.6-9.7c-0.2-0.1-0.5-0.1-0.8-1.2c-0.2-0.9-0.4-1.9-0.2-2.3
							c0.2,0.2,0.1-0.4,0-1.1c-0.2-0.7-0.4-1.6-0.5-2.1c-0.4-0.5-0.6,0.4-1.2-1.2c-0.2-2.1-1.1-5.5-2.4-8.9c-1.3-3.4-3-6.7-4.4-9
							c-2.4-4.1-5.3-8.3-8.5-12.2c-3.2-3.8-6.4-7.5-9.6-10.5c-0.4-0.2-1-0.6-1.6-1.1c-0.7-0.5-1.4-1.1-2.1-1.6
							c-0.7-0.6-1.3-1.2-1.8-1.7c-0.5-0.5-0.8-0.9-0.8-1.1c-3.3-0.8-2-2.8-5.3-3.4c-2.4-1.7-5-3.3-5.8-4.3c-2.3-0.2-4.7-2.8-9.4-5.3
							c-1.5-0.1-4.4-2.2-5.1-1.6c-1.3-0.7-2.3-1.2-3.4-1.8C119.1,6.4,119.7,6.5,120.4,6.6z"/>
					</g>
					<g>
						<path class="st24" d="M138.4,19.2c-2.3-0.7-3.1-1.2-4.1-1.9c-1-1.2-0.1-0.9,1.2-0.2C136.7,17.8,138.2,18.9,138.4,19.2z"/>
					</g>
					<g>
						<path class="st24" d="M142.2,22.1c1.8,0.8,3.2,1.7,4.6,2.6c1.3,0.9,2.5,1.9,3.5,2.8c2.1,2,4,4,6.2,6.3
							C151.5,29.3,147,26,142.2,22.1z"/>
					</g>
					<g>
						<path class="st24" d="M142.4,34.9c2,0.6,5.3,3.8,5.1,4.5c-0.1,0-0.2,0-0.2,0.1c0.6,0.8,1.1,1.6,1.7,2.4
							c0.3,0.4,0.6,0.8,0.9,1.2c0.3,0.4,0.6,0.9,0.8,1.3c-0.8-0.5-1.6-1-2.5-1.5c-2.5-2.3-1.4-2.3-2-3.9c-0.5-0.4-0.9-0.7-1.3-1
							c-0.4-0.4-0.9-0.8-1.3-1.3l-1.4-1.2c0-0.1-0.1-0.4-0.3-0.6C142.1,35,142.2,35,142.4,34.9z"/>
					</g>
					<g>
						<path class="st24" d="M152.4,38.5c1,1.3,1.8,2.7,2.7,4.1c-0.8-0.6-2-1.8-2.9-2.8c-0.9-1-1.5-2-1.1-2.4
							C151.4,37.7,151.8,38,152.4,38.5z"/>
					</g>
					<g>
						<path class="st24" d="M158.6,46.2c1.8,2.9,3.7,5.1,5.4,7.9c2.3,4.5,3.5,8,4.6,11c0.4,1.2,0.8,2.4,1.2,3.6
							c-0.4,0.4,0.6,2.9-0.1,2.6c-0.8-0.7-1.7-1.3-2.5-1.9c-0.6-1.5-1-2.8-1.7-4.2c-0.8-2.3-1.8-4.5-2.9-6.7
							c-0.8-1.1-1.8-1.7-2.4-3.3c-1.5-2.5-3.2-4.9-4.9-7.3c-0.2-0.6-0.4-1.3-0.7-1.9c2.9,2.6,4.7,5.3,6.6,6.8
							c-0.1-0.8-0.6-1.4-1.1-2c-0.6-0.6-1.1-1.2-1.5-1.9c-0.1-0.5-0.6-1.3-1.1-2.2c-0.5-0.9-1.1-1.9-1.4-2.7
							C156.9,44.5,157.8,45.4,158.6,46.2z"/>
					</g>
					<g>
						<path class="st24" d="M169,49.8c-0.4,0-0.9-0.4-1.4-1c-0.5-0.6-1.1-1.5-1.7-2.6c0.3-0.4,0.8-0.1,1.5,0.6
							C168,47.5,168.6,48.7,169,49.8z"/>
					</g>
					<g>
						<path class="st24" d="M161.4,61.8c0.6,1.1,1.2,2.2,1.8,3.3c0.2,0.6,0.4,1.3,0.6,1.9c0.2,0.7,0.4,1.4,0.6,2.1
							c0.2,0.6,0.4,1.3,0.6,2.3c0.2,1,0.5,2.4,0.7,4.3c-0.3-0.1-0.6-0.2-0.9-0.3c-0.4-1-0.7-1.9-1.1-2.9c-0.2-1.1-0.4-2-0.7-3.2
							c-0.5-1.1-1-2.1-1.6-3.3c1.1-0.5,0.4-1.8-0.1-3c-0.1-0.4-0.1-0.8-0.3-1.2C161,61.8,161.2,61.8,161.4,61.8z"/>
					</g>
					<g>
						<path class="st24" d="M165,97.3c-0.4,7.3-2.2,14.9-4.1,21.8c-0.4,1-0.9,2-1.3,2.9c-0.5,0.9-0.9,1.9-1.5,2.8
							c-0.3,0.1-0.7,0.2-1.1,0.3c0.6-2.5,1.7-5.2,2.6-8c0.9-2.8,1.7-5.7,1.8-8.4c1.3-3.5,1.7-8.9,2.9-11.9c0.1-2.1,0.1-4.3,0-6.3
							c-0.1-0.4-0.3-1.5-0.2-2.6c0-1,0.2-2,0.8-1.8c0.1,0.7,0.2,1.4,0.2,2.1c0,0.7,0.1,1.5,0.1,2.4C165.3,92.5,165.2,94.6,165,97.3z
							"/>
					</g>
					<g>
						<path class="st24" d="M165.6,147.8c-1.5,2.5-3.6,4.7-3.7,4.4C162.1,151.3,163.6,149.6,165.6,147.8z"/>
					</g>
					<g>
						<path class="st24" d="M153.9,133.5c-1.1,1.5-3.4,3.3-3.5,4.4c-1.1,1.3-2.4,2.4-3.6,3.6c-0.6,0.4-1.2,0.8-1.8,1.3
							c-0.6,0.4-1.2,0.9-1.9,1.2c0-0.1,0-0.2,0-0.2c-0.9,0.1-1.8,0.3-2.8,0.4c-0.7,0.4-1.4,0.8-2,1.3c-0.6,0.4-1.2,0.9-1.9,1.3
							c-0.5,0.2-0.9,0.4-1.2,0.5c-1.6,0.7-3.3,1.3-4.8,1.8c-0.8,0.7-1.9,0.9-3.3,1.7c-0.5,0.2-0.9,0.3-1.3,0.4
							c-0.9,0.5-1.9,1.1-2.8,1.6c-2.2,0.5-4.4,1-6.6,1.3c-3.6,0.5-8.6,0.5-13.5,1.3c-5,0.5-9.8,0.7-14.7,0.8c-3,0.3-6.3,0.2-9.5-0.3
							c-2.4-1.2-5.4-0.5-8.7-1.1c-0.2,0.1-0.6,0.1-0.8,0.2c-0.3-0.1-0.5-0.1-0.7-0.2c-0.8-0.3-1.5-0.6-2.3-0.8
							c-1.7-0.4-3.5-0.8-5.1-1.3c-2.7-0.9-5.3-2-7.6-3.1c-0.1-0.2-0.2-0.4-0.1-0.6c1,0,2,0,2.8-0.1c1.5,0.8,3.7,1.3,5.5,1.8
							c1.8,0.5,3.4,1.1,4,2.3c1-0.5,2.1-0.5,3.1-0.3c1,0.2,1.8,0.6,2.4,0.8c1.6,0.1,3.4,0.1,5,0.1c3.2,0.2,1.3,0.7,3.2,1.5
							c1.2-0.4,2.5-0.8,3.6-1.3c5.4,0.6,11.3-0.1,16.2-0.1c0.2-0.6,3.3-0.8,5.2-0.9c4.5-0.3,8.9-0.9,13.3-1.7
							c0.3,0.1,0.8,0.1,1.2-0.2c-0.5-0.9,4.2-1.6,4.9-2.6c1.6-0.4,1.9,0.2,2.8,0.6c1.5-0.8,3-1.4,4.5-2.3c0.5,0,1.4-0.3,2.3-0.6
							c0.8-0.4,1.7-0.7,2.3-0.8c2-1.2,2.8-1.5,3.5-1.6c0.7-0.1,1.1-0.2,2-1.2c0-0.1,0-0.3,0-0.4c1.4-0.3,3-1.6,4.4-2.8
							c1.3-1.2,2.5-2.2,3.4-2.2c0.5-0.6,1.5-1.2,1.6-1.8c0.5-0.6,1-1.5,1.7-2.3c0.6-0.8,1.2-1.7,2.1-2
							C153.9,131.8,153.9,132.6,153.9,133.5z"/>
					</g>
					<g>
						<path class="st25" d="M157.8,143.1c-0.7,1-1.2,1.8-1.9,2.8c-0.8,0.9-1.9,1.8-3.6,2.9c-2.9,2.4-5.5,4.1-8.5,5.7
							c-0.7,0.4-1.5,0.8-2.2,1.2c-0.8,0.4-1.6,0.8-2.4,1.2c-0.8,0.4-1.7,0.9-2.6,1.3c-0.9,0.4-1.9,0.9-3,1.4
							c-1.5,0.4-2.8,0.7-4.2,1.1c-1.5,0.4-2.8,0.7-4.3,1.1c-0.1-0.1-0.4,0-0.7-0.1c-1.4,0.4-2.2,0.7-3.2,1c-1.1,0.3-2.4,0.6-4.8,1
							c-0.7,0.4-1.3,0.8-1.9,1.1c0.3,0.3,0.6,0.6,1,0.9c-0.6,0.1-1.1,0.3-1.6,0.5c-0.8,0-1.9-0.1-2.7-0.1c-0.6,0.1-1.1,0.1-1.5,0.2
							c-0.4-0.1-0.8-0.2-1.2-0.3c-0.6,0.1-1.1,0.1-1.5,0.1c-0.6,0.4-1.3,0.8-2.1,1.2c-0.9,0.1-2,0.1-2.9,0.2l-1-0.6
							c-2.6,0.7-5,0.9-5.2,1.5c-6.6,0.3-13,0.2-19.6-0.5c-2.1-0.4-4.3-0.8-6.4-1.3c-2.1-0.5-1.7,0.3-3.6,0c-1.9-0.4-3.7-0.8-7-0.8
							c-1.8-0.8-3.4-1.6-5.2-2.5c-0.2-1.2-1.6-1.6-3.4-2.2c-1.8-0.6-4-1.3-5.7-2.8c-1.7-0.2-3.3-1.8-4.6-3c-2.3-1.8-4.5-3.8-6.6-6.1
							c-0.8-0.9-1.6-1.9-2.4-2.8c-3.4-3-4.9-7.1-6.3-7.4c-1.5-3-2.8-6-3.5-8.7c-0.2-0.4-0.5-0.9-0.7-1.3c-0.4,0.3-0.8,0.7-1.2,1
							c0.3,2.1-0.8,0-1.5-0.3c-0.1,0.2-0.2,0.5-0.4,0.6c0.1,0.4,0.2,0.8,0.3,1.4c0.9,2.3,1.9,4.7,3,6.9c1.3,3.1,2.3,2.8,3.8,5.4
							c0.7,1.4,2.6,3.8,1.9,4c-3.1-3.5-5.7-7.1-8-11c-0.9-1.9-1.7-3.7-2.5-5.6c-1.1-2.3-2.1-4.4-3.1-6.6c-0.4-1.2-1.3-1.1-1.7-3.3
							c-0.3-1.2-0.5-2.4-0.8-3.7c-0.3-0.5-0.7-1.1-1-1.7c-0.2-1.2-0.3-2.4-0.4-3.6c-0.2-0.8-0.3-1.6-0.5-2.4
							c-0.2-0.2-0.4-0.6-0.6-0.8c-0.1-0.1-0.3-0.1-0.5-0.2c-0.3-3.1-0.5-6-0.5-9C7.1,99,7,97.7,6.9,96.3c-0.1-1.3-0.1-2.6-0.2-4
							C6.8,91,6.9,89.6,7,88.2c0.2-1.4,0.3-2.7,0.6-4.1c0.1-0.1,0.2-0.4,0.3-0.7c1,2.1,1.6-0.1,2.1,0.2c0.1,1.1,0.3,2.1,0.5,3.2
							c0.2,1,0.4,2.1,0.7,3.1c-1,2.7-0.7,5.7-0.2,8.8c0.5,3.1,1.3,6.1,1.3,9.1c1.6,2.9,1.9,7.9,4.2,13.3c0.7,1.5,1.3,2.4,1.6,3.6
							c0.6,0.8,1.2,1.6,1.7,2.2c-0.3-1.1-0.6-2.2-0.9-3.4c-0.3-1.1-0.5-2.3-0.7-3.4c-0.3-1-0.6-2-0.9-3.1c-0.3-1-0.6-2.1-0.8-3.2
							c-0.3-0.5-0.7-1-1-1.6c-0.4-1.5-0.8-3-1.1-4.4c-0.1-0.7-0.1-1.4-0.1-2.1c-0.9-3.6-2-8.2-2.2-14.4c0.2,0,0.4-0.2,0.6-0.4
							c0.3,0.5,0.6-0.2,0.8-0.3c0.2-0.1,0.4,0.4,0.4,3.3c-0.1,1.1,0.3,1.8,0.7,3.2c0.4,0.2,0.9,0.5,1.3,0.7c0.1,0.7,0.1,1.5,0.1,2
							c0.1,1.2,0.8,1.1,1.1,2.6c0.1,1.2,0.3,2.3,0.5,3.5c0.2,1.8,0.3,3.5,0.6,5.3c0.2,0.1,0.4,0.1,0.7,0.2c1,2.3,1.2,5.8,2.3,6.3
							c0.3,1.1,0.7,2.3,1,3.4c-0.3-0.1-0.6-0.1-1-0.2c1,2.8,1.9,3.8,2.6,5c0.4,0.8,0.8,1.8,1.2,2.6c0.1,0,0.2,0,0.2,0
							c0.4,0.1,0.8,0.1,1.4,0.2c0.2,0,0.5,0.1,0.7,0.1c0.2,0.4,0.3,0.8,0.6,1.3c-0.6-0.4,0.3,1.2,1.3,3.7c1.5,2.6,3,4.4,4.5,6.2
							c1.5,1.8,3.1,3.5,5.2,5.6c1,1.3,2.2,2.6,3.4,3.8c0.8,0.4,1.9,1,2.8,1.6c1,0.5,1.9,1,2.5,1.1c2.2,1.5,4.5,2.8,7.1,4
							c0.6,0.2,1.3,0.5,1.9,0.7c0.7,0.2,1.3,0.5,1.9,0.7c1.6,0,5.4,1,4.7,1.4c-0.1,0.1-0.3,0.2-0.4,0.3c1.4,0.4,3.4,1.2,5.2,0.8
							c2.4,0.6,4.9,1.1,7.4,1.4l0.5-0.6c2.1,0.4,4.1,0.6,6.2,0.9c1.3,0.1,2.8,0.2,4.1,0.2c0.1-0.2,0.3-0.4,0.4-0.6
							c1.4,0.1,2.9,0.2,4.2,0.3c2.3-0.1,4.4-0.3,6.6-0.5c0.1-0.5,2.2-0.5,5.3-0.7c-1.1-0.2-0.8,0.1-0.2,0.4c0,0.3,3.3,0.1,4.5-0.8
							c0.8,0.1,1.8,0.1,2.6,0.2c1.9-0.2,3.7-0.5,5.6-0.7c1.2-0.5,3.4-0.6,4.6-1.6c0.9-0.3,1.9-0.6,2.8-0.8c1.4-0.1,3.2-0.4,5.6-1.6
							c-0.6,1.1,3.1-0.2,4-1.3c1.2-0.5,2.6-0.9,3.8-1.4c1-0.2,2.1-0.4,3.1-0.7c-1.1,0.8-3.2,1.8-3.9,2.3c-1.1,0.4-2.3,1.1-3.4,1.6
							c-1.1,0.5-2.1,0.9-2.8,0.7c-0.6,0.2-1.6,0.4-2.6,0.8c-1,0.4-2.1,0.9-3.3,1.8c-2.7,0.3-5.4,0.5-8.2,0.6c-1.4,0.4-2.9,0.8-4.3,1
							c-0.5-0.1-0.9-0.2-1.3-0.3c-1.3,0.4-2.6,0.7-3.9,1c-1.5,0-5.1,0.7-4.7-0.3c-1.2,0.1-2.4,0.1-3.6,0.2c-0.3,0.5-0.6,1-0.8,1.5
							c3-0.1,5.8-0.1,8.6-0.3c0.9-0.2,1.8-0.4,2.7-0.5c0.9-0.2,1.8-0.4,2.8-0.6c1.1,0,2.2-0.1,3.7-0.2c1.5-0.1,3.4-0.3,5.9-0.6
							c1.5,0.1,3,0.1,4.5,0.1c1.7-0.6,3.5-1.2,5.2-1.8c1.7-0.8,3.4-1.6,5.1-2.5c1.1-0.3,2.4-0.6,3.6-1.1c1.3-0.5,2.7-1,4-1.7
							c0.7-0.3,1.4-0.7,2.1-1c0.7-0.4,1.3-0.8,2-1.2c0.7-0.4,1.3-0.9,2-1.4c0.6-0.5,1.3-1,1.9-1.6c0.6-0.2,1.2-0.3,1.8-0.5
							c1-0.8,1.3-1.3,1.9-2c0.3-0.3,0.8-0.7,1.3-1.2C156,144.6,156.8,143.9,157.8,143.1z"/>
					</g>
					<g>
						<path class="st24" d="M151.3,160c-2.2,2-6.7,4.1-8.2,4.4c0.8-0.5,1.6-1,2.3-1.4c0.7-0.4,1.3-0.8,1.9-1.1
							C148.6,161.2,149.8,160.7,151.3,160z"/>
					</g>
					<g>
						<path class="st24" d="M135.5,167.3c-2.8,1.5-5.9,2.5-6.4,2.3c-0.4-0.2,0.1-0.5,1.2-0.9c0.6-0.2,1.3-0.4,2.2-0.6
							C133.4,167.9,134.4,167.6,135.5,167.3z"/>
					</g>
					<g>
						<path class="st24" d="M127.6,170c-2.9,1.8-4.6,1.6-7.2,1.7C122.9,171.2,125.2,170.6,127.6,170z"/>
					</g>
					<g>
						<path class="st24" d="M118.1,172.3c-4,1.2-8,1.9-9.6,1.6c0.9-0.3,2.1-1.1,4.2-1.1C114.4,172.7,116.3,172.5,118.1,172.3z"/>
					</g>
					<g>
						<path class="st24" d="M100.8,174.5c-2.5,0.6-6.7,1.2-5.4,0.4C96.7,174.9,97.5,174.3,100.8,174.5z"/>
					</g>
					<g>
						<path class="st24" d="M74.8,174.3c-2.4,0-5-0.1-6.9-0.4c-1.9-0.3-3.2-0.7-3-1c2.2,0.1,4.3,0.5,7.1,0.6
							c0.8,0.1,1.5,0.2,2.3,0.3C74.5,174,74.6,174.1,74.8,174.3z"/>
					</g>
					<g>
						<path class="st24" d="M46.4,145.4c-1.5-0.8-1.7-1.2-1.8-1.6c-0.1-0.4-0.1-0.6-1.2-1.1c-1.3-1.2-2.6-2.5-4-4
							c-1.3-1.5-2.7-3.1-3.8-4.8c-0.6-1-1-1.8-1.5-2.8c-0.3-1.2-0.7-2.4-0.9-3.4c-0.9-2.1-2.6-4-3.6-5.1c-0.3-0.8-0.6-1.7-0.9-2.5
							l-0.4-1.2c-0.8-1.8-1.9-3.4-2.5-7.8c-0.5-1.1-0.8-2.2-1.1-3.4c-1.5-4.5-1.7-9.4-2.4-13.4c-0.5-3.7-0.7-7.3-0.6-11
							c0.7-0.8,1.4-1.7,2.1-2.6c-0.1,3.3,0.3,6.4,0.4,9.6c0.1,2.5,0.4,4.6,0.7,6.7c0.3,2.1,0.7,4.3,1.1,6.9c0.6,0.3,0.6,1.5,0.7,2.8
							c0.1,1.3,0.3,2.5,1.1,2.6c0.2,1.4,0.4,3.4,1.2,4.9c0.6-0.9,1.8,2.7,1.8,3.9c-0.3-0.3-0.3,0.2-0.3,0.5c0.3,0.7,0.4,1.4,0.8,1.8
							c0.5-0.8,1.3,1.6,1.8,2.1c0.4,1.5,1.3,2.6,1.8,3c1,1.7,1.6,3.7,2.4,5.4c0.7,1.6,1.5,2.9,2.6,3c0.7,1,1.5,2.3,2.3,3.4
							c0.8,1.1,1.6,1.8,2.2,1.7c0.2-1.2,2.1,1.4,2.2,0.2c1.5,1.2,2.5,2.1,3.1,2.8c0.6,0.7,0.8,1.3,0.9,1.8c0.2,1.1-0.4,2.1,0.7,3.7
							C49.7,146.9,48,146.2,46.4,145.4z"/>
					</g>
					<g>
						<path class="st24" d="M17.9,61.8c-0.4,0.1-0.3-0.3-0.2-0.9c0.2-0.6,0.5-1.4,0.6-1.8c0-0.8,0-1.5,0.1-2.4
							c0.7-1.1,1.3-2.2,2.1-3.3c0.7-1.1,1.5-2.2,2.3-3.2c0.1,0.3,0.3,0.6,0.4,0.9c0.1,0.5,0.1,1.1,0.1,1.6c-0.5,1.1-1,2.3-1.4,3.4
							c-0.4,1.2-0.8,2.3-1.2,3.4c-0.1,0.1-0.2,0.4-0.3,0.5c-0.6,1.9-1.5,3.9-2.1,4.5c-0.5,0.4-0.9,0.8-1.3,1.2
							C17.2,64.4,17.5,63.1,17.9,61.8z"/>
					</g>
					<g>
						<path class="st24" d="M26.7,62.3c0.1-1.3,1.3-3.2,1.5-5.1c0.4-1.2,0.9-2.4,1.3-3.7c0.6-0.4,1.3-0.9,1.8-1.4
							c0.2,0.4,0.3,0.7,0.5,1.1c-1.1,1.4-1.7,3.1-2.4,4.6c-0.6,1.6-1.2,3-2.3,4.2C27.1,62.1,26.9,62.2,26.7,62.3z"/>
					</g>
					<g>
						<path class="st22" d="M155.3,47.7c1.7,2.4,3.4,4.8,4.9,7.3c-0.8,0-1.5,0-2.2-0.1c-0.2-0.4-0.4-0.8-0.7-1.2c-0.9-2-2-4.2-3-6
							C154.7,47.7,155,47.7,155.3,47.7z"/>
					</g>
					<g>
						<path class="st25" d="M152.4,38.5c1.2,0.3,2.9,1.8,4.7,3.6c0.9,0.9,1.7,1.9,2.5,2.8c0.7,1,1.4,1.9,2,2.6
							c1.2,2,2.5,4.4,3.4,6.7c1.1,1.6,2.1,3.2,3.1,4.9c0.4,1,0.8,2.1,1,3.2c0.2,1.1,0.4,2.1,0.5,3c0.4,1,1,1.6,1.5,2.4
							c0.5,0.8,1.1,1.7,1.4,3.3c0,0.4,0,0.9-0.2,0.6c1.1,2.9,1.9,6.7,2.3,10.5c0.4,3.9,0.3,8,0.2,11.7c0.2,1.5,0.4,2.9,0.5,4.4
							c-1.2,6.8-2.4,14-4.4,21.1c-2,7-4.7,13.8-8.6,18.9c-0.2,0.5-0.5,1.1-1.1,1.8c-0.7,0.7-1.6,1.5-2.7,2.6
							c0.7-1.3,1.6-2.6,2.6-4.1c0.9-1.5,2-3,2.9-4.8c1.9-3.4,3.6-7.3,4.6-11.2c0.3-1.3,0.6-2.6,0.8-3.9c-0.1,0-0.3,0.2-0.5,0.4
							c-0.1-0.9-0.1-1.5-0.2-2.2c-0.3,0.3-0.5,0.6-0.8,1.1c-0.1,0.6-0.2,1.1-0.5,2c-0.2,0.4-0.4,1-0.6,1.6c-0.3,0.6-0.7,1.4-1.1,2.3
							c-0.2,1.7-1,3.5-1.8,5.3c-0.9,1.7-1.7,3.3-2,4.7c-0.6,0.2-1.2,0.4-1.8,0.4c0.2-0.4,0.4-0.9,0.6-1.3c1.3-2.4,2.3-4.8,3.3-7.3
							c0.2-0.4,0.3-0.8,0.6-1.4c0.5-1.6,1.1-3.2,1.5-4.8c0.1-0.4,0.3-0.8,0.5-1.4c0.4-1.3,0.8-2.7,1.2-4.2c0.1-0.4,0.2-0.9,0.3-1.3
							c0.3-1.5,0.5-2.9,0.8-4.4c0.2-0.9,0.3-2,0.4-2.9c0.4-2.2,0.8-4.2,1.1-6.3c0.1-0.6,0.1-1,0.2-1.5c0-1.4-0.2-2.6-0.3-4.1
							c-0.1-1.5-0.1-3.4,0.1-6.4c0.3-0.2,0.7-0.5,1-0.9c0-0.7,0-1.4,0-2.1c0-0.7-0.1-1.5-0.1-2.2c-0.3-0.3-0.6-0.7-0.9-1
							c-0.4-1.3-0.8-2.6-1.3-3.9c-0.4-1.7-1.1-2.6-1.3-4.4c-0.1-1.1-0.2-2.2-0.3-3.3c0.8,0.6,1.7,1.3,2.5,1.9
							c0.7,0.4-0.2-2.1,0.1-2.6c-0.4-1.2-0.8-2.4-1.2-3.6c-1.1-3-2.3-6.5-4.6-11c-1.7-2.8-3.5-5-5.4-7.9c-0.8-0.8-1.8-1.6-2.6-2.4
							c-0.4-0.5-0.7-0.9-1-1.2C154.2,41.2,153.3,39.8,152.4,38.5z"/>
					</g>
					<g>
						<path class="st26" d="M151.1,140.7c-0.7,0.6-1.5,1.2-2.3,1.9c-0.7,0.6-1.6,1.2-2.4,1.7c-0.6,0.5-1,1.3-1.7,2
							c-0.7,0.7-1.6,1.5-2.7,1.9c-1.5,0.8-1.2,0-1.2-0.3c-1.4,0.7-3.1,1.4-2.4,1.9c-0.6,0.7-1.7,0.9-2.5,1.3c-1.1,0-2.1,0.2-2.9,0.6
							c-0.9,0.3-1.6,0.9-2.5,1.4c-0.8,0.5-1.7,1-2.8,1.4c-1,0.4-2.3,0.6-3.7,0.6c-0.9,0.4-2,0.8-2.9,1.3c-1.2,0.5-2.4,0.9-3.7,1.3
							c-0.6-0.3-1.2-0.4-1.7-0.5c-3.9,0.5-7.7,1.3-11.4,1.8c-3.8,0.5-7.5,0.8-11.2,0.5c-1.1,0.7-4.6,0.5-7.1,1.3
							c-2.2-0.6-1.2-1.1-3.7-1c-1.4,0-4.1-0.4-3.9,0.3c-1,0.2-2.4-0.1-5.4,0l-1.3-0.2c-0.7-0.6-2.3-1.1-3.9-1.5
							c-0.8-0.2-1.6-0.4-2.4-0.6c-0.8-0.2-1.4-0.3-2-0.4c-0.7,0.2-1.8-0.5-2.7-0.7c-1.4-0.6-2.7-1.2-4-1.9c-3-0.9-6.1-2.3-8.9-4
							c-2.8-1.7-5.4-3.6-7.4-5.4c-0.7-0.9-1.4-1.9-2.1-2.9c-0.5,0.4-1.4-0.4-2.2-1.5c-0.8-1-1.6-2.2-2.2-2.4c-0.9-1.3-1.8-2.7-2.6-4
							c-0.9-0.5-1.8-2.7-3.5-4.3c-0.2-0.5-0.4-0.9-0.6-1.3c-0.2,0-0.4-0.1-0.7-0.1c-1-2.8-1.9-5.6-2.6-8.3c0.1-0.2,0.1-0.5,0.2-0.6
							c-0.1-1.6-1.2-2-1.3-5.2c-0.3-1.3-0.7-1.8-1.1-2.7c-0.4-0.9-0.7-2.1-0.8-4.7c-0.4-2.3-1.6-1.4-1.5-4.4c0.1-1,0.2-2.1,0.3-3.1
							c-0.1-1.8-1.2-2.9-0.9-5.1c-0.1-1.1,0-2.2,0-3.4c0.5,1.7,1.3,0.5,1.2,2.8c0,1.9,0,3.9,0.1,5.8c0.3,1.7,1.4,1.9,1.6,4.5
							c0.1,1.1,0.2,2.1,0.3,3.2c0.3,0.8,0.6,1.3,0.8,2.1c0.2,0.8,0.4,1.8,0.6,2.6c0.6,2.3,1.8,3.7,3.6,7.5c0.5,0.1,1,0.2,1.4,0.3
							c0.2,0.8,0.6,1.7,0.9,2.5c1,1.2,2.7,3.1,3.6,5.1c0.2,1.1,0.5,2.3,0.9,3.4c0.5,0.9,0.9,1.7,1.5,2.8c1.2,1.7,2.5,3.3,3.8,4.8
							c1.3,1.5,2.7,2.8,4,4c1.1,0.5,1.1,0.8,1.2,1.1c0.1,0.4,0.3,0.8,1.8,1.6c0.8,0.9,1.6,1.7,2.3,2.5c1.4,1.2,3,1.1,4.4,1.9
							c1.1,1.2,2.4,2.4,3.7,3.5c1.3,0.2,2.7,0.3,4,0.4c1.2,0.7,2.4,1.3,3.8,2c0.4-0.6,3.4-0.1,3.7-0.6c0.1,0,0.4,0.1,0.7,0.2
							c1.1,0.4,2.2,0.9,3.3,1.3c2.1-0.1,4.1-0.5,6.3-0.5c3.2,0.5,6.5,0.6,9.5,0.3c4.9,0,9.7-0.3,14.7-0.8c4.9-0.9,9.9-0.8,13.5-1.3
							c2.2-0.4,4.4-0.8,6.6-1.3c1.4,0,2.8,0,4.2,0c2-0.3,2.8-1.3,3.4-1.7c1.3-0.4,2.6-0.8,3.8-1.2c1.6-0.9-0.5-1.2,2-2.2
							c0.4-0.1,0.7-0.2,1.1-0.3l2.9-1.7c1-0.6,1.8-1.2,2.8-1.8c0.7-0.3,1.2-0.8,1.9-1.2c0.6-0.4,1.3-0.8,1.8-1.3
							c0.4,0.2,0.8,0.4,1.2,0.7c0.5-0.3,1.1-0.7,1.6-1c0.5-0.3,1.1-0.7,1.5-1c0.5-0.8,1.4-1.6,2.2-2.6c0.4-0.5,0.8-1,1.2-1.6
							c0.4-0.5,0.9-1.1,1.3-1.7c1.7-2.3,3.2-5,4.1-7.3c1.9-5,4.7-11.2,5.1-16.6c0.5-2,0.8-0.6,1.1-3.1c0.2-2.5,0.6-5.8,1-9.2
							c0.4-3.3,0.8-6.8,1.3-9.4c0.4,4.7,0,9.3-0.5,13.8c-0.6,4.5-1.3,8.8-2,13c-0.5-0.2-0.8,1.7-1.3,1.2c-1,2.8-1,3.8-1.7,6.2
							c-0.2,0.3-0.5,0.7-0.6,0.3c-0.6,1.4-1.5,3.2-0.6,3.1c0,0.6-0.4,1.3-0.8,2.1C158.3,133.2,155,137.2,151.1,140.7z"/>
					</g>
					<g>
						<path class="st22" d="M172.2,99.7c-0.2,2.5-0.5,5-0.9,7.4c0.3-0.2,0.6-0.5,1-0.9c-0.3,1.5-0.5,2.9-0.9,4.4
							c-0.1-0.7-0.3-1.4-0.4-2.2c-0.4,1.4-0.9,2.8-1.3,4c-0.3-0.3-0.5-0.5-0.7-0.7l0.3-1.3c0.5-1.3,0.9-2.7,1.2-4
							c0.5-2.3,1-4.6,1.4-6.9C172,99.6,172.1,99.7,172.2,99.7z"/>
					</g>
					<g>
						<path class="st22" d="M143,144.1c-0.9,0.6-1.8,1.2-2.8,1.8l-2.9,1.7c-0.4,0.1-0.7,0.2-1.1,0.3c0-0.3,0-0.6,0.1-1
							c0.7-0.4,1.3-0.9,1.9-1.3c0.6-0.5,1.3-0.9,2-1.3c0.9-0.1,1.8-0.3,2.8-0.4C143,143.9,143,144,143,144.1z"/>
					</g>
					<g>
						<path class="st22" d="M101.9,167.6c-1.8,0.4-3.1,1.4-6.2,0.9c0.2-0.5,2.6-0.8,5.2-1.5L101.9,167.6z"/>
					</g>
					<g>
						<path class="st22" d="M72.7,169c-1.1,0-1.8,0.6-3.6,0c-0.4-0.3-1-0.6-1.4-1.2c-0.6-0.3-1.2-0.7-1.6-1c1.8,0.2,1.5-0.5,3.6,0
							c2.1,0.5,4.3,0.9,6.4,1.3C74.9,168.3,73.7,168.6,72.7,169z"/>
					</g>
					<g>
						<path class="st22" d="M78.5,156c-2.2,0-4.2,0.4-6.3,0.5c-1-0.4-2.2-0.9-3.3-1.3c0.3-0.1,0.6-0.2,0.8-0.2c1.2,0,2.5,0,3.7-0.1
							c1.7,0.3,3.5,0.6,5.2,0.8C78.6,155.8,78.5,155.9,78.5,156z"/>
					</g>
					<g>
						<path class="st22" d="M65.4,161.2c2.6,0.3,6.1,0.4,5.4,1.3C69,162.1,67.3,161.8,65.4,161.2z"/>
					</g>
					<g>
						<path class="st22" d="M58,169.3c-3-1.2-5.8-2.5-8.5-3.9c-0.7-0.1-1.5-0.1-2.4-0.3c-3.3-2.2-5.3-3.2-6-3
							c-2.1-1.3-4.3-2.7-6.3-4.3c0-0.3-0.1-0.6,0.1-0.7c-1.8-1.6-3.6-3.3-5.2-5.1c-1.1-1.3-2.1-2.5-3.1-3.8c-3.1-3.5-5.7-7.1-8-11
							c-0.3-1.8-0.5-3.5-0.7-5.3c-0.1-0.6-0.3-1-0.3-1.4c0.2-0.1,0.3-0.4,0.4-0.6c0.7,0.3,1.7,2.3,1.5,0.3c0.4-0.3,0.8-0.7,1.2-1
							c0.2,0.4,0.5,0.9,0.7,1.3c0.6,2.7,1.9,5.7,3.5,8.7c1.5,0.3,2.9,4.4,6.3,7.4c0.8,1,1.6,1.9,2.4,2.8c2.1,2.3,4.3,4.3,6.6,6.1
							c1.3,1.2,2.9,2.7,4.6,3c1.6,1.6,3.9,2.3,5.7,2.8c1.8,0.6,3.2,1,3.4,2.2c1.8,0.9,3.4,1.7,5.2,2.5c-2.7,0.1-6.1-0.8-9.5-2.4
							c-3.4-1.6-6.9-3.8-9.9-5.9c0.1,0.8-0.7,0.4-1.8-0.3c-1-0.7-2.3-1.7-3.2-2.2c0.1,0.5,0.3,1.2,0.5,1.9c1,0.5,1.9,0.9,2.8,1.2
							c1.5,0.9,3.3,2.2,5.4,3.5c2.1,1.3,4.3,2.6,6.6,3.4c3.5,1.8,7.1,3.2,10.8,4.4C59.8,169.5,58.8,169.4,58,169.3z"/>
					</g>
					<g>
						<path class="st22" d="M53.1,149.8c-1.5-0.8-3-0.7-4.4-1.9c-0.7-0.8-1.5-1.6-2.3-2.5c1.7,0.8,3.4,1.5,5.1,2.2
							c0.5,0.5,1.1,1,1.7,1.5c-0.1,0.2,0,0.4,0.1,0.6C53.2,149.7,53.1,149.7,53.1,149.8z"/>
					</g>
					<g>
						<path class="st22" d="M34.2,131.2c-0.3-1.2-0.7-2.4-0.9-3.4c-0.9-2.1-2.6-4-3.6-5.1c1,1.2,2.7,3.1,3.6,5.1
							C33.5,128.8,33.8,130,34.2,131.2z"/>
					</g>
					<g>
						<path class="st22" d="M23.8,125.9c-0.7-1.2-1.6-2.1-2.6-5c0.3,0.1,0.6,0.1,1,0.2C22.7,122.7,23.3,124.4,23.8,125.9z"/>
					</g>
					<g>
						<path class="st22" d="M8.2,115.7c-0.5-1.7-1-3.2-1.4-4.8c-0.1-0.8-0.1-1.6-0.2-2.2c-1-2.9-1.4-7.1-2.1-9.3
							C4,95.6,3.9,91.8,3.9,88c0.1-3.9,0.4-7.7,1-11.7c-0.1-1.7-0.1-3.4-0.1-5.1C5.4,69.1,6,67.1,6.7,65c0,1.2,0,2.5,0.2,3.5
							c-0.5,1.3-0.7,2.4-0.9,3.7c-0.2,1.3-0.4,2.6-0.9,4.3L6,77.4c0,2.1,0,4.3,0.1,6.4C6,87.3,6,90.1,6.7,92.4c0,1.3,0.1,2.6,0.2,4
							c0.1,1.3,0.2,2.6,0.3,3.9c0,2.9,0.2,5.9,0.5,9c0.2,0.1,0.3,0.1,0.5,0.2c0.2,0.2,0.4,0.6,0.6,0.8c0.1,0.8,0.3,1.6,0.5,2.4
							c0.1,1.2,0.2,2.4,0.4,3.6C9.1,116.1,8.7,115.9,8.2,115.7z"/>
					</g>
					<g>
						<path class="st22" d="M25.9,111.2c0.6,4.4,1.7,6,2.5,7.8C27.6,117.2,26.5,115.6,25.9,111.2z"/>
					</g>
					<g>
						<path class="st22" d="M22.7,50.2c0.7-1.4,1.3-2.4,2-3.6c0.7,0,1.3-0.1,2-0.1c-0.6,0.7-1.3,1.5-1.9,2.3
							c-0.6,0.8-1.2,1.5-1.8,2.4C23,50.8,22.9,50.5,22.7,50.2z"/>
					</g>
					<g>
						<path class="st22" d="M29.2,51.3c1-1.8,1.9-3.4,3.1-5c0.3,0.2,0.5,0.5,0.8,0.6c-1.2,1.4-2.3,2.9-3.4,4.4
							C29.6,51.3,29.3,51.3,29.2,51.3z"/>
					</g>
					<g>
						<path class="st23" d="M130.4,151.1c-0.6,0.3-1.4,1.3-3.4,1.7c-1.4,0-2.8,0-4.2,0c0.9-0.5,1.9-1.1,2.8-1.6
							c0.4-0.1,0.8-0.2,1.3-0.4C128,151,129.3,151,130.4,151.1z"/>
					</g>
					<g>
						<path class="st23" d="M60.8,153.6c-1.3-0.1-2.7-0.2-4-0.4c-1.3-1.1-2.6-2.3-3.7-3.5c0.1-0.1,0.2-0.1,0.2-0.1
							c2.3,1.2,4.9,2.3,7.6,3.1C61.2,153.2,61,153.4,60.8,153.6z"/>
					</g>
					<g>
						<path class="st25" d="M160.3,55c0.6,1.6,1.6,2.2,2.4,3.3c1,2.2,2,4.4,2.9,6.7c-0.4-0.1-0.9-0.2-1.4-0.3
							c-0.3,0.2-0.6,0.3-0.9,0.5c-0.6-1.1-1.2-2.2-1.8-3.3c-1.1-2.4-2-4.7-3.3-6.9C158.8,54.9,159.5,54.9,160.3,55z"/>
					</g>
					<g>
						<path class="st25" d="M165.7,75.8c0,0.1,0.1,0.4,0.1,0.6c0.2,1.6,1.3,5.7,0.1,4.6l-0.6-1.8c-0.2-0.6-0.4-1.2-0.7-1.8
							c0-0.6,0-1.3,0.1-1.8C165,75.6,165.4,75.7,165.7,75.8z"/>
					</g>
					<g>
						<path class="st25" d="M155.4,140.9c-0.6,0.3-1.1,0.7-1.7,1c-0.3-0.4,0.3-1.1,1.2-2c0.8-0.9,2-2,3-3c-0.4,0.7-0.8,1.4-1.3,2.1
							C156.2,139.5,155.9,140.3,155.4,140.9z"/>
					</g>
					<g>
						<path class="st25" d="M150.8,146c-0.7,0.6-1.4,1-2,1.5c-0.7,0.5-1.2,1.1-2.1,1.8c-1.4,0.7-2.9,1.6-4.4,2.2
							c0-0.2,0-0.5,0.1-0.7c1-0.6,2-1.4,3.1-2.1c1.1-0.7,2.1-1.7,2.9-2.7c1.2-0.7,2.3-1.5,3.4-2.3
							C151.4,144.5,151.1,145.2,150.8,146z"/>
					</g>
					<g>
						<path class="st25" d="M136.2,147.8c-2.5,1-0.5,1.2-2,2.2c-1.2,0.4-2.5,0.8-3.8,1.2c-1.1-0.1-2.3-0.2-3.4-0.3
							c1.4-0.7,2.5-1,3.3-1.7c1.5-0.6,3.2-1.1,4.8-1.8c0.4-0.2,0.7-0.3,1.2-0.5C136.2,147.2,136.2,147.5,136.2,147.8z"/>
					</g>
					<g>
						<path class="st25" d="M60.8,153.6c0.3-0.2,0.5-0.4,0.1-0.9c1.7,0.5,3.4,1,5.1,1.3c0.7,0.3,1.4,0.5,2.3,0.8
							c-0.4,0.6-3.3,0.1-3.7,0.6C63.2,155,62,154.3,60.8,153.6z"/>
					</g>
					<g>
						<path class="st25" d="M11.8,85.2c-0.1-1.4-0.2-2.8-0.3-4.3c0.1-1.8,0.7-3,1-3.3c0,1.1,0.1,2.4,0.2,3.5c0.5-0.1,1-0.1,1.5-0.4
							c-0.3,1.6-0.5,3.4-0.6,5c-0.5,1.7-1,1-1.7,2.6C12,87.3,11.9,86.2,11.8,85.2z"/>
					</g>
					<g>
						<path class="st25" d="M5.1,76.5c0.4-1.7,0.7-3.1,0.9-4.3c0.2-1.3,0.4-2.4,0.9-3.7c-0.1-1-0.1-2.2-0.2-3.5
							c0.1-0.3,0.2-0.5,0.3-0.8c2-3.8,1.9-4.8,2.5-6c0.1,0.5,0.4,0,0.8-0.7c0.4-0.7,0.8-1.5,1-1.5c0.5-0.2,0.9-0.3,1.4-0.4
							c0,0.2-0.1,0.6-0.2,1c-0.5,1-0.9,2-1.3,2.9c-0.4,1-0.8,2-1.2,3c-0.4,1.2-0.9,2.4-1.2,3.5c-0.3,1.2-0.5,2.3-0.3,3.4
							c0,0.2-0.1,0.5-0.2,0.6c-0.4,1.1-0.8,2.2-1.1,3.3c-0.4,1.1-0.6,2.2-0.9,3.4c0,0.2-0.1,0.5-0.1,0.7L5.1,76.5z"/>
					</g>
					<g>
						<path class="st25" d="M20.2,79.5c0-0.4,0.1-0.9,0.1-1.5c0.7-3.1,1.7-6,1.5-9c0.4-1,0.8-2,1.2-3.1c0.4,0.5,0.7,0.9,1.1,1.3
							c-0.1,0.9-0.4,2-0.5,2.9c-1,3.6-1.5,7.2-2,11.2C21.1,80.7,20.6,80,20.2,79.5z"/>
					</g>
					<g>
						<path class="st26" d="M8.2,70.1c0-0.2,0.1-0.5,0.2-0.6c0.6-1.4,1.3-2.8,1.9-3.9c-0.2,1.1-0.5,2.2-0.7,3.3
							c-0.2,1.1-0.4,2.2-0.5,3.3c-0.2,0.4-0.4,0.7-0.7,1.2C8.3,72.3,8.2,71.2,8.2,70.1z"/>
					</g>
					<g>
						<path class="st26" d="M14,75.6c0.5-2.2,1.1-4.2,1.8-6.3c-0.2,1.6-0.3,3.2-0.5,4.4c-0.2,1.2-0.5,2.1-0.9,2.3
							C14.1,75.7,14.1,75.7,14,75.6z"/>
					</g>
					<g>
						<path class="st26" d="M15.8,53.2c0.4-1.7,1.7-3.5,2.8-4.8c0.6-1.1,1.1-2,1.8-3.1c0.3-0.3,0.6-0.6,1-0.9l0.4,1.2
							c-0.9,0.9-2,2.1-3,3.3c-0.2,0.5-0.4,1.1-0.6,1.7C17.4,51.5,16.6,52.3,15.8,53.2z"/>
					</g>
					<g>
						<path class="st26" d="M15.8,46.4c-0.8-0.1-1.6-0.2-2.2-0.4c2.6-5.1,3.5-4.3,6.5-6.7c-0.6,1.1-1.3,2.4-1.9,3.5
							c1.1-1.1,2.2-2,3.4-3.1c0,0.1,0,0.2,0.1,0.3c-1.6,1.8-2.4,3.1-3.2,4.4c-0.9,1.3-1.8,2.5-3.8,4.4
							C14.9,48.1,15.4,47.2,15.8,46.4z"/>
					</g>
					<g>
						<path class="st24" d="M156.5,33.9c1.9,0.8,3.7,3.4,4.8,4.9c1.2,1.4,2.2,2.6,3.3,4c-1-0.3-2.5-1.4-4-4
							C159.2,37.1,158,35.5,156.5,33.9z"/>
					</g>
					<g>
						<path class="st24" d="M150.7,44.4c1.2,1,2.4,2.1,3.7,3.3c1,1.8,2.1,4,3,6c-0.9-0.6-1.5-1.2-2.2-1.9
							C153.2,48.9,151.5,46.5,150.7,44.4z"/>
					</g>
					<g>
						<path class="st22" d="M115.5,165.8c-0.6,0.1-1.1,0.3-1.6,0.5C114.3,166.1,114.8,165.9,115.5,165.8z"/>
					</g>
					<g>
						<path class="st22" d="M95.8,163.3c-0.4,0.1-0.7,0.3-1,0.5c-0.3,0-0.6,0-0.7,0c-1.7,0.2-3.6,0.3-5.3,0.4
							c-4.1,0-8.2-0.2-12.2-0.7c-1.5-0.2-2.8-0.4-4.2-0.7c1.4,0,2.8-0.1,4.1-0.2c0.1-0.1,0.1-0.2,0.2-0.2c1.2,0.1,2.4,0.2,3.7,0.2
							c1.6,0.2,3.1,0.4,4.9,0.6c1.9,0.3,3.1-0.3,3.9-0.5C91.1,162.9,93.5,163.1,95.8,163.3z"/>
					</g>
					<g>
						<path class="st22" d="M96.4,163.2c-0.1,0-0.4,0-0.6,0C96,163.3,96.3,163.3,96.4,163.2z"/>
					</g>
					<g>
						<path class="st23" d="M21.6,40c0-0.1,0-0.2-0.1-0.3C21.6,39.9,21.6,40,21.6,40z"/>
					</g>
					<g>
						<path class="st25" d="M158.4,142.6c-0.2,0.2-0.3,0.3-0.6,0.5C158.1,142.9,158.2,142.8,158.4,142.6z"/>
					</g>
					<g>
						<path class="st26" d="M19,90.7c-0.2-2.4-0.9-1.1-0.9-5.5c0.4-1.7,0.5-2.7,0.7-4c0.1-1.3,0.3-2.8,0.9-5.2
							c0.2,0.7,0.4,1.3,0.6,2c0,0.6,0,1.1-0.1,1.5c-0.4,0.7-0.5,1.4-0.6,2.1c-0.1,0.7-0.1,1.5-0.1,2.3c0,0.8,0,1.8-0.1,2.9
							C19.3,87.9,19.2,89.2,19,90.7z"/>
					</g>
					<g>
						<path class="st26" d="M19.1,91.4c0-0.2-0.1-0.5-0.2-0.7C19,90.9,19.1,91.2,19.1,91.4z"/>
					</g>
					<g>
						<path class="st26" d="M143,144.1c0-0.1,0-0.2,0-0.2C143,143.9,143,144,143,144.1z"/>
					</g>
					<g>
						<path class="st26" d="M10.3,65.5c0.1-0.8,0.1-1.5,0.2-2.1c0.3-1,0.7-2,1.1-3c0.4-1,0.8-1.9,1.3-2.9c0.7-0.8,1.2-1.5,1.8-2.1
							c0,0.3-0.1,0.8-0.1,1C12.2,62.3,11.5,63.6,10.3,65.5z"/>
					</g>
					<g>
						<path class="st22" d="M113.8,166.2c-1.4,0.2-0.7,0.8-4.7,0.9c-1.4,0.1-2.9,0.1-4.4,0.2c0.8-0.5,1.5-0.8,2.1-1.2
							c0.5,0,0.9-0.1,1.5-0.1c0.4,0.1,0.8,0.2,1.2,0.3c0.5-0.1,0.9-0.1,1.5-0.2C112,166.2,113,166.2,113.8,166.2z"/>
					</g>
				</g>
			</g>
		</g>
		<g>
			<g>
				<g>
					<g>
						<path class="st19" d="M91.7,7.9C56.4,12,23.4,31,13,66.7c-5,17.1-5.1,33.8,1.9,50.3c5.7,13.4,14.9,25.1,27,33.3
							c13,8.9,28.6,13.3,44.2,14.3c16.4,1.1,33.7-0.7,48.6-7.9c28.5-13.8,43.9-45.7,39.2-76.7c-5.8-38.5-44.7-76.7-85.3-71.7
							c-1.2,0.2-2.5,1.5-0.5,1.2c35.6-4.4,70.4,27.5,80.3,59.8c8.8,28.4,0.2,60.9-23.5,79.4c-14.1,11-31.2,14.6-48.7,14.8
							c-15.8,0.2-31.8-2.9-45.7-10.6c-24.4-13.5-41-41.7-38-69.8c2-18.8,9.4-36.9,23.2-50.1c15-14.4,35.2-21.5,55.5-23.9
							C92.4,9,93.7,7.7,91.7,7.9L91.7,7.9z"/>
					</g>
				</g>
			</g>
			<g>
				<g>
					<g>
						<path class="st19" d="M23.5,130.6c26.6,7.9,52.7,13.2,80.4,8.4c23.5-4.1,49.9-12.4,67.5-29.3c1.3-1.2-1.5-1.8-2.4-0.9
							c-8.7,8.4-19.6,14-30.8,18.3c-11.9,4.6-24.3,8.2-36.9,10.2c-26.2,4.1-51-1.2-76.1-8.7C23.8,128.2,21.7,130.1,23.5,130.6
							L23.5,130.6z"/>
					</g>
				</g>
			</g>
			<g>
				<g>
					<g>
						<path class="st19" d="M10.3,92.7c6.4,2.4,10.8,7.8,17.5,9.9c5.8,1.8,12,1.9,18.1,1.9c15.8-0.1,31.6-1.5,47.3-4.1
							c15.6-2.6,31.1-6.3,46.1-11.1c11.7-3.8,24-7.9,32.4-17.5c0.7-0.8-2.1-0.5-2.6,0.1c-9.3,10.6-24.2,14.6-37.2,18.5
							c-13.7,4.1-27.7,7.2-41.9,9.3c-14.2,2.1-28.5,3.3-42.8,3.4c-6.4,0.1-13.1-0.1-19.2-2.6c-5.6-2.3-9.6-7-15.2-9.1
							C11.9,91.2,9.3,92.3,10.3,92.7L10.3,92.7z"/>
					</g>
				</g>
			</g>
			<g>
				<g>
					<g>
						<path class="st19" d="M21.9,50.1c8.9,5.9,19.5,7.5,29.9,8.4c11.3,1,22.6,0.8,33.9-0.5c22.8-2.7,44.9-9.9,64.9-21.3
							c1.7-1,0.2-2.4-1.3-1.6c-19,10.8-40,17.9-61.7,20.7c-10.7,1.4-21.5,1.7-32.3,0.9c-10.8-0.8-22.1-2.1-31.3-8.2
							C23.2,47.8,20.6,49.2,21.9,50.1L21.9,50.1z"/>
					</g>
				</g>
			</g>
			<g>
				<g>
					<g>
						<path class="st19" d="M87.8,9c-4.6,27-5.2,54.5-1.5,81.6c3.3,24.9,9.2,51.2,24.7,71.4c0.5,0.6,3.2-0.3,2.7-1
							c-15.5-20.2-21.3-46.5-24.6-71.2c-3.6-27-3-54.4,1.5-81.3C90.8,7.7,87.9,8.2,87.8,9L87.8,9z"/>
					</g>
				</g>
			</g>
			<g>
				<g>
					<g>
						<path class="st19" d="M59.5,15C50,23.2,45.4,35.9,41.8,47.6c-4.1,13.2-6.3,27-6.1,40.8c0.3,26.7,10.1,52.3,27.5,72.5
							c0.9,1,3.6-0.2,2.6-1.3C49,140.2,39.3,115.6,38.6,89.9c-0.3-12.5,1.3-25.1,4.5-37.1c3.4-12.6,8-27.7,18.3-36.4
							C62.9,15.1,60.6,14.1,59.5,15L59.5,15z"/>
					</g>
				</g>
			</g>
			<g>
				<g>
					<g>
						<path class="st19" d="M116.2,14c28.6,37.8,40.3,86.9,31.7,133.5c-0.2,1.3,2.7,0.9,2.9-0.3c8.6-46.9-3.1-96.4-31.9-134.4
							C118.2,11.9,115.4,13,116.2,14L116.2,14z"/>
					</g>
				</g>
			</g>
		</g>
	</g>
</g>
</svg>
