<?xml version="1.0" encoding="utf-8"?>
<!-- Generator: Adobe Illustrator 22.0.0, SVG Export Plug-In . SVG Version: 6.00 Build 0)  -->
<svg version="1.1" xmlns="http://www.w3.org/2000/svg" xmlns:xlink="http://www.w3.org/1999/xlink" x="0px" y="0px"
	 viewBox="0 0 113 178.4" style="enable-background:new 0 0 113 178.4;" xml:space="preserve">
<style type="text/css">
	.st0{fill:#FFFEFD;}
	.st1{opacity:0.9;}
	.st2{fill:#CBE5CF;}
	.st3{fill:#DCEDDF;}
	.st4{fill:#E3F1E5;}
	.st5{fill:#E0EFE2;}
	.st6{fill:#D1E8D4;}
	.st7{fill:#D4E9D7;}
	.st8{fill:#BEDEC2;}
	.st9{fill:#C3E1C7;}
	.st10{fill:#C7E2CB;}
	.st11{fill:#EEF6EF;}
	.st12{fill:#EBF5EC;}
	.st13{fill:#FEF9DA;}
	.st14{fill:#FFFDF1;}
	.st15{fill:#FDF5C7;}
	.st16{fill:#FDF2B4;}
	.st17{fill:#FCEFA5;}
	.st18{fill:#FCED95;}
	.st19{fill:#272525;}
	.st20{opacity:0.85;}
	.st21{fill:#D3E6F6;}
	.st22{fill:#C4DEF3;}
	.st23{fill:#ACD0EE;}
	.st24{fill:#E2EFF9;}
	.st25{fill:#B8D7F0;}
	.st26{fill:#9FC9EB;}
	.st27{fill:#EADAEE;}
	.st28{fill:#F7F1F8;}
	.st29{fill:#DFC7E5;}
	.st30{fill:#D5B5DC;}
	.st31{fill:#CDA6D5;}
	.st32{fill:#C497CE;}
	.st33{fill:#D8BBDF;}
	.st34{fill:#E5D1E9;}
	.st35{fill:#E8D6EB;}
	.st36{fill:#DDC3E2;}
	.st37{fill:#DFC6E4;}
	.st38{fill:#CEA9D6;}
	.st39{fill:#D2B0DA;}
	.st40{fill:#F2E9F4;}
	.st41{fill:#F0E4F2;}
	.st42{opacity:0.8;}
	.st43{opacity:0.8;fill:#DC7D5B;}
	.st44{opacity:0.8;fill:#E9AE99;}
	.st45{opacity:0.8;fill:#F0C7B8;}
	.st46{opacity:0.8;fill:#F7E1DA;}
	.st47{fill:#F7E0D8;}
	.st48{fill:#FCF3F0;}
	.st49{fill:#F2D0C4;}
	.st50{fill:#EEC0B0;}
	.st51{fill:#EBB4A0;}
	.st52{fill:#E7A790;}
	.st53{fill:#F0C6B6;}
	.st54{fill:#F5D8CE;}
	.st55{fill:#F6DCD3;}
	.st56{fill:#F1CCBF;}
	.st57{fill:#F2CFC2;}
	.st58{fill:#ECB6A3;}
	.st59{fill:#EDBDAB;}
	.st60{fill:#FAECE7;}
	.st61{fill:#F9E8E2;}
	.st62{fill:#B7E9E6;}
	.st63{fill:#CFF0EE;}
	.st64{fill:#D9F3F2;}
	.st65{fill:#D4F2F0;}
	.st66{fill:#BFECE9;}
	.st67{fill:#C3EDEA;}
	.st68{fill:#A5E4E0;}
	.st69{fill:#ACE6E3;}
	.st70{fill:#B1E7E4;}
	.st71{fill:#E8F8F7;}
	.st72{fill:#E3F6F5;}
	.st73{fill:#FDF3BA;}
	.st74{fill:#FEF7D0;}
	.st75{fill:#FEF8D5;}
	.st76{fill:#FDF4C2;}
	.st77{fill:#FDF5C5;}
	.st78{fill:#FCF0A8;}
	.st79{fill:#FDF1AF;}
	.st80{fill:#FEFBE8;}
	.st81{fill:#FEFAE4;}
	.st82{fill:#C9E1F4;}
	.st83{fill:#DBEAF7;}
	.st84{fill:#DEEDF8;}
	.st85{fill:#CFE4F5;}
	.st86{fill:#D2E5F6;}
	.st87{fill:#BBD8F1;}
	.st88{fill:#C1DCF2;}
	.st89{fill:#EDF5FB;}
	.st90{fill:#EAF3FB;}
	.st91{fill:#C5EDEB;}
	.st92{fill:#91DED9;}
	.st93{fill:#A1E3DF;}
	.st94{fill:#80D8D3;}
</style>
<g id="background">
	<rect x="-56.5" y="-30" class="st0" width="1200" height="800"/>
</g>
<g id="colour">
</g>
<g id="object">
	<g>
		<g>
			<g class="st1">
				<g class="st1">
					<path class="st73" d="M98,23.5c4.4,6.9,7.5,14.6,9.3,22.7c-0.7-1.7-1.4-3.4-2.2-5c-1.2-2.8-2.1-5.7-3.2-8.7
						C100.9,29.5,99.7,26.4,98,23.5z"/>
					<path class="st73" d="M82.5,7C82.5,7,82.5,7,82.5,7c5.3,3.8,9.8,8.4,13.6,13.6c-0.3-0.3-0.5-0.7-0.8-1c-1-1.1-2.1-2.2-3.1-3.2
						c-1.1-1-2.1-2.1-3.2-3.1C86.8,11.2,84.6,9.1,82.5,7z"/>
					<path class="st74" d="M13.1,52.8c-1.1-3.1-1.6-6.6-1.7-10.4c0-3.7,0.3-7.7,1.1-11.5c0.4-0.8,0.9-1.6,1.3-2.5
						c0.4-0.8,0.8-1.6,1.4-2.2c0,0,0.4-0.5,1-1.4c0.7-0.9,1.7-2,2.8-3.3c0.6-0.6,1.2-1.3,1.8-1.9c0.7-0.6,1.3-1.3,2-1.9
						c1.4-1.2,2.6-2.4,3.8-3.2c-1.6,3.3-2.3,6.6-2.2,9.6c0.9-0.5,2.1-1.5,3.2-2.1c1.1-0.6,2.1-1.1,2.3-0.8c0.5,1.5,0.3,3.1-0.2,5
						c-0.2,0.9-0.6,1.9-0.9,2.8c-0.3,1-0.7,2-1.1,3c-0.5,0.4-3.8,3.1-7.1,7.2C17.2,43.2,14.2,48.7,13.1,52.8z"/>
					<path class="st13" d="M11.2,72.1c0.5,2.6,1.1,5.7,1.9,8.6c0.9,2.8,1.9,5.4,2.6,6.8c-1.3-0.3-2.4-0.7-3.7-1.2
						c-1.3-0.5-2.4-1.2-3.7-2c0.1,1.1,0.2,2.1,0.3,3c0.2,0.9,0.4,1.8,0.8,2.9c-0.5-0.3-1-0.7-1.6-1c-2.9-4.7-5.3-9.9-6.5-15.5
						C0.1,68.1,0,62.2,0.9,56.6c0.4,0.5,1.6,4.4,3.7,8c1,1.8,2.2,3.5,3.4,4.9C9.2,70.8,10.4,71.7,11.2,72.1z"/>
					<path class="st75" d="M11.4,56.2c-0.3,2.1-0.3,4-0.3,5.7c-0.4,3.4-0.3,6.8,0.1,10.2c-1.7-0.9-3.5-2.2-4.9-4
						c-1.5-1.8-2.7-4-3.5-6.6c-0.1,0.7-1.2,1.3-1.2,2c-0.6-3.6,0.2-6.1-0.7-7c1.6-10.4,6-19.9,12.1-28.2c-0.2,0.6-0.4,1.1-0.7,1.5
						c-0.3,0.5-0.6,1-0.9,1.4c-0.6,0.9-1.3,1.7-1.9,2.7c1.3-0.4,2.2-1.6,3-3.1c-0.7,3.8-1.1,7.8-1.1,11.5c0.1,3.8,0.6,7.3,1.7,10.4
						c-0.2,0.6-0.4,1.1-0.5,1.7C12,54.9,11.4,55.2,11.4,56.2z"/>
					<path class="st76" d="M85.3,14.6c-2.9-1.4-5.5-2.1-7.9-2.3c-2.4-0.2-4.5,0.2-6.3,0.8c-0.6-0.4-1.5-1.1-2.5-1.5
						c-1-0.5-2.1-0.7-3.1-0.5c-0.8-0.1-1.9-0.3-3.1-0.3c-1.2,0-2.6,0.1-3.9,0.4c-1.3,0.2-2.6,0.6-3.6,1c-1,0.4-1.7,0.7-2,1.1
						c-0.5,0.7,1.2-1,3.8-3.2C58,9.1,59.4,8,60.9,7c1.5-1,3-1.7,4.2-2.2c0.3-0.7,1.2-1.3,2.4-1.7c1.2-0.4,2.9-0.6,4.6-0.5
						c1,0.5-0.2,1,0.7,1.5c0-0.1,0.6-0.2,1.1-0.2C74.4,3.8,75,3.7,75,3.7s1.7,0.8,3.6,2c1,0.6,2,1.3,2.9,2c1,0.7,1.8,1.3,2.5,1.9
						c0.4,2.2,4.2,4.2,4.5,4.1c0.7,0.7,1.4,1.4,2.1,2.2l0.1,0.1c-0.6-0.3-1.2-0.7-1.9-1L86.9,14C86.1,13.8,85.3,14.6,85.3,14.6z"/>
					<path class="st77" d="M29.9,21.3c0.5,1.5,0.3,3.1-0.2,5c-0.2,0.9-0.6,1.9-0.9,2.8c-0.3,1-0.7,2-1.1,3c1.1-1,4.2-3.4,4.5-3.6
						c-0.8-0.2-1.8-0.2-1.3-1c0.8-0.9,1.7-2,2.7-2.9c1-0.9,1.9-1.8,2.7-2.3c2.1-1.2,4.7-1.8,7.1-2.6c0.8-0.6,1.7-1.2,2.5-1.7
						c0.9-0.6,1.7-1.1,2.6-1.6c0.1-0.1,0.7-1.4,0.6-1.9c1.3-0.6,2.6-0.8,3.9-1c0-0.1,0.6-0.5,1.6-1.2c1-0.7,2.3-1.7,3.7-2.6
						c1.4-0.9,2.8-1.8,4.1-2.6c1.3-0.8,2.4-1.4,2.8-2.1c0.3-0.7,1.2-1.3,2.4-1.7c1.2-0.4,2.9-0.6,4.6-0.5c0,0-0.6-0.2-1.5-0.5
						c-0.9-0.3-2.2-0.7-3.8-0.9c-3.1-0.5-6.6-0.3-8.7,0c0.2,0.2,1.9,0.6,2.3,0.7c-0.3,0-1.5-0.1-2.9-0.1c-1.3,0-2.8,0-3.6,0.1
						c-0.6,0.1-1.5,0.4-2.4,0.6c-0.9,0.3-1.9,0.5-2.8,0.9C48,3.7,47.1,4,46.4,4.3c-0.7,0.3-1.1,0.5-1.2,0.5c-0.7,0.3,1,0.4,1.2,1.1
						c-3.2,0.2-6.5,0.9-9.6,2.2c-0.8,0.4-1.6,0.8-2.4,1.3c-0.4-0.1-0.7-0.2-0.3-0.4c0.5-0.4,0.9-0.7,1.4-1.1
						c-0.8,0.4-2.7,1.5-4.6,2.6c-1,0.6-1.9,1.2-2.7,1.7c-0.8,0.6-1.5,1-1.8,1.3c1.7-1,3.4-1.8,5.2-2.5l-2.4,1.6
						c-0.8,0.5-1.6,1.2-2.4,1.7l-0.2,0.2c-1.6,3.3-2.3,6.5-2.2,9.6c0.9-0.5,2.1-1.5,3.2-2.1C28.7,21.4,29.6,21,29.9,21.3z"/>
					<path class="st78" d="M92.2,123.5c-1,1.5-1.6,3.6-2,5.6c-0.1,0.5-0.2,1-0.3,1.5c-0.1,0.5-0.2,1-0.3,1.5c-0.1,0.5-0.2,1-0.4,1.4
						c-0.1,0.4-0.2,0.9-0.4,1.3c-0.6,1.3-1.4,2.3-2.1,3c-0.7,0.8-1.6,1.3-2.4,1.8c-1.7,1-3.6,1.5-5.2,3.4c-1.3-4.8-1.6-9.8-1.2-14.5
						c0.4-4.7,1.5-9,2.7-13.1c2.6-8.2,6.1-15.5,9-22.7c0.3,4.2-3.1,10.2-1.6,14.3c0.4,0.1,1.2-1,1.8-1.5c-0.1,1.1-0.3,2.3-0.5,3.5
						c-0.2,1.2-0.4,2.4-0.5,3.5c-0.2,2.2-0.1,4,0.8,4.2c1.1,0.3,2.6-0.5,4.3-0.6c-0.1,0.4-0.3,0.9-0.4,1.3c-0.4,0.6-0.7,1.5-0.9,2.6
						C92.5,121.1,92.3,122.3,92.2,123.5z"/>
					<path class="st79" d="M102.3,97.2c-1.2,3.5-2.5,7-3.7,10.5c-0.4-0.1-0.7-0.1-1.1-0.1c1.5-4,3-8,4.3-12.3
						C102,95.9,102.1,96.6,102.3,97.2z"/>
					<path class="st79" d="M89.9,105.5c-0.6,0.5-1.4,1.7-1.8,1.5c-1.5-4.1,1.9-10.1,1.6-14.3c1.1-2.8,2.2-5.5,3-8.2
						c0.9-2.8,1.6-5.6,2.2-8.4l0.3,3.1c0.7-3.1,3.4-3.3,4-6.6c0.7,5,0.2,10.9-0.5,16.5c-0.7,5.6-1.5,10.9-0.8,15.1
						c-1.3,4.1-2.7,8-3.8,11.9c-1.6,0.1-3.2,0.9-4.3,0.6c-0.9-0.2-1-2-0.8-4.2c0.1-1.1,0.3-2.3,0.5-3.5
						C89.6,107.7,89.8,106.5,89.9,105.5z"/>
					<path class="st16" d="M99.1,72.7c-0.5,3.3-3.3,3.4-4,6.6l-0.3-3.1c1.3-6.5,1.9-13.2,1.4-19.7c0-0.4,0-0.9,0-1.3
						c0-2.5-0.4-4.8-0.7-7c-0.4-2.2-0.9-4.4-1.5-6.6c2.4,2.5,4.7,5.3,6.6,8.5c-1.1,6.7-2.8,13.4-4.7,20.3c0.7-2.5,2.5-1.7,3-2.9
						c1.3-2.3,2.9-4.6,4.5-6c1.6-1.4,3.1-2,4.1-0.7c0.3,11.3-1.7,22.6-5.1,33.3c-0.7,0.5-1.8,1.3-2,1.8c-0.9,2.9-1.8,5.8-2.7,8.5
						c-0.8-4.2,0-9.5,0.8-15.1C99.3,83.6,99.8,77.7,99.1,72.7z"/>
					<path class="st73" d="M100.7,50c-2-3.2-4.2-6-6.6-8.5c-0.3-1.2-0.6-2.3-0.9-3.6c-0.3,0.1-0.6,0.2-0.8,0.8l-1-2.4
						c-0.3-1,0.4-2.5-1.6-3.1C89.3,32.1,88.7,31,88,30c-0.3-1.3-0.4-2.5-0.1-3.5L87,27.1c-1.4-0.6-1.4-2-2.2-3
						c-0.2,0.1-0.4,0.3-0.7,0.4c-1.4-2.5-3.9-5-6.2-6.7c-2.3-1.7-4.4-2.8-5-3.1c-0.6-0.6-1.2-1.1-1.8-1.6c1.8-0.7,3.9-1,6.3-0.8
						c2.4,0.2,5,0.9,7.9,2.3c0,0,0.8-0.8,1.6-0.6l1.9,0.9c0.6,0.3,1.2,0.6,1.9,1c2,3.6,4.6,7.2,6.6,10.2c2,3,3.6,5.2,3.7,5.4
						c0.5,1,0.9,2.1,1.4,3.1c1.1,3.1,1.9,7.1,2.5,11.3c0.7,4.2,1.3,8.4,2.7,12.1l0.1,2.7c-1-1.3-2.5-0.8-4.1,0.7
						c-1.6,1.4-3.3,3.7-4.5,6c-0.5,1.3-3.2,5.2-3,2.9c0.7-3.9,2.2-8.9,3.2-13.1C100.1,53.1,100.7,49.8,100.7,50z"/>
					<path class="st80" d="M30.8,108.2c1.5,1.7,3.1,3.4,4.7,5.2c-1.9-1.7-3.5-3.7-5.1-4c-0.6-1-1.6-1.9-2.5-2.7
						C28.9,107.1,29.8,107.6,30.8,108.2z"/>
					<path class="st80" d="M23.7,109.1l-1.5-1.5c0.5-0.5,2.1-0.1,2.8,1.1c0.5-0.5-1-1-0.7-1.2c0.7-0.7,1.3-0.2,1.9,0.5
						c-1.2,1.2-3.1,1.7-3.9,1l-1-1C22.1,108.4,23.2,109.1,23.7,109.1z"/>
					<path class="st81" d="M9.5,90.2c-0.4-1-0.6-1.9-0.8-2.9c-0.2-0.9-0.2-1.9-0.3-3c1.2,0.8,2.4,1.5,3.7,2c1.2,0.5,2.4,0.9,3.7,1.2
						c1.2,2.7,2.8,5.2,4.4,7.7c1.7,2.5,3.5,4.9,5.4,7.3c-0.9-0.6-1.9-1.2-2.8-1.6c0.9,0.9,1.8,1.8,2.4,2.8c-0.3-0.1-0.6-0.1-0.9,0
						l0,0c-0.6-0.7-1.1-1.3-1.9-0.6c-0.3,0.3,1.2,0.7,0.7,1.2c-0.7-1.2-2.2-1.7-2.7-1.2c0.5,0.5,1,1,1.4,1.5c-0.6,0-1.6-0.7-2.4-1.1
						c-4.2-4.4-8.1-9.1-11.4-14.5C8.5,89.5,9,89.8,9.5,90.2z"/>
				</g>
			</g>
		</g>
		<g>
			<g class="st1">
				<g class="st1">
					<path class="st73" d="M63.5,152.8c3.7-1.9,7.4-3.8,11.1-5.8c-0.7,0.7-1.4,1.4-2,2.1C70.1,151.3,66.6,151.5,63.5,152.8z"/>
					<path class="st73" d="M67.5,167.6C67.4,167.6,67.4,167.6,67.5,167.6c-2.2,0.1-4.3,0-6.5-0.1l-24.7-1.1l22.4-11.2l3.3-1.6
						c-0.2,0.1-0.4,0.2-0.6,0.4c-0.8,0.6-1.6,1.2-2.5,1.8l-19.7,12.3L61,167C63.2,166.9,65.3,167,67.5,167.6z"/>
					<path class="st74" d="M66.7,172.1c1.1-4.9,3.4-9.6,5.7-14.1c0.8-0.6,1.6-1.4,2.4-1.7c0,0,0.3-0.2,0.8-0.4
						c0.5-0.3,1.3-0.6,2.2-0.9c1.7-0.7,3.8-1.5,5.2-1.9c-1.2,2.1-2,4.4-2.4,6.8c1.2,0,3.5-0.3,3.7,0.4c0.3,2.9-1.3,5.3-2.9,7.7
						c-0.3,0.1-2.9,0.4-6,1.1C72.4,169.7,68.9,170.8,66.7,172.1z"/>
					<path class="st13" d="M65.9,162.7c3.5-0.7,8.4-0.3,10.3-0.2c-0.8,1.9-1.6,3.7-2.7,5.4c1.3,0.5,2.1,1.1,3.3,1.3
						c-0.2,0.3-0.5,0.6-0.7,1c-5,1.2-9.8,2.8-14.5,4.7l-4.3-10.2l1.1-0.7c0,0.3-0.2,1-0.4,2l3.2,7.4c0.6-1.4,1.6-3.5,2.6-5.5
						C64.7,165.9,65.6,164,65.9,162.7z"/>
					<path class="st75" d="M64.4,172.4c-0.8,0.6-1.5,1.1-2.1,1.6l-4-9.3c0.3-0.2,0.6-0.3,0.9-0.5c2.2-0.7,4.4-1.2,6.7-1.5
						c-0.8,3.4-2.2,6.6-4,9.3c0.4-0.1,1,0.8,1.3,0.7c-0.7,0.6-1.4,0.9-1.9,1.2l-3.7-8.7c0.5-0.4,0.8-0.8,0.8-1.4
						c4.7-2.8,9.6-5.4,14.7-7.5c-0.8,1.1-2.1,1.2-3.2,1.7c0.9,0.6,1.7,0.4,2.4-0.2c-2.3,4.5-4.7,9.2-5.7,14.1l-1,0.4
						C65.3,172.3,64.8,171.9,64.4,172.4z"/>
					<path class="st76" d="M63.7,163.5c3.5-1.7,5.6-4.3,7.1-7.2c0.9,0.2,2.7,0.7,3.9-0.1c1.2-0.1,3-0.2,4.6-0.4
						c1.6-0.2,3-0.6,3.3-1.1c0.3-0.6-0.7,0.7-2.1,2.4c-1.4,1.7-3.3,3.9-4.4,5.2c-0.1,1.5-1.3,2.9-2.8,4.1c-0.5-0.1-0.2-1-0.7-1.1
						c0,0.1-0.8,1.2-0.8,1.2s-1,0-2.1,0.1c-1.2,0-2.6,0-3.6,0c-0.9-1.5-3.2-0.4-3.3-0.1l-1.6-0.1l-20.6-1l18.8-8.9l0,0l0.1,0
						l-0.1,0.1L50,172.8l11.1-6.5c0.7-0.4,1.4-0.8,2.1-1.2C63.6,164.6,63.7,163.5,63.7,163.5z"/>
					<path class="st77" d="M84.4,160.2c0.3,2.9-1.3,5.3-2.9,7.7c0.9-0.1,3.2-0.5,3.4-0.5c-0.5-0.5-1.1-1.1-0.7-1.5
						c1.3-0.8,2.9-1.7,4-2c1.3-0.2,2.8,0.2,4.2,0.3l-3.7-13l-0.4,0c-1.1,0.6-2.1,1.1-3.1,1.7c-0.1,0-0.4,1.2-0.3,1.6
						c-0.8,0.2-1.6,0.2-2.3,0.2c0,0.1-1.4,1.4-3,2.9c-1.5,1.5-3.3,3.3-3.5,4.7c-0.1,1.5-1.3,2.9-2.8,4.1c0,0,0.3,0,0.8,0
						c0.5,0,1.1-0.1,1.8-0.1c1.4-0.1,3.1-0.3,4.2-0.4c-0.1-0.3-1-0.7-1.3-0.8c0.3,0,2.6,0.5,3.5,0.5c1.4-0.2,4.8-0.9,5.1-1
						c0.4-0.1-0.6-0.6-0.8-1.4c1.9,0.6,3.8,0.8,5.7,0.6l0.3-0.1l-3.5-12.1l-1.1,0.2c-0.2-0.2-0.4-0.4-0.2-0.5
						c0.3-0.2,0.6-0.3,0.9-0.4c-0.9,0.2-4.7,0.9-5.7,1.2c1.1-0.1,2.1-0.1,3.2,0.1c-1,0.2-2,0.5-3.1,0.8l-0.1,0.1
						c-1.2,2.1-2,4.4-2.4,6.8C81.9,159.8,84.1,159.5,84.4,160.2z"/>
					<path class="st78" d="M72.1,158.2c-2.4-0.9-5.7,0-7.9-1.3c-3.6-2.6-3.6-6.7-5.7-10.3c8.9-0.8,17.7-2.3,26.5-4.2
						c-1.7,2.2-5.6,2.3-6.7,5.4c0.1,0.4,0.9,0.5,1.4,0.8c-1.9,1.7-5.5,3-5,4.9c0.3,1.1,1.3,2.2,2,3.6l-0.8,0.2
						C74.8,157,73.6,157.8,72.1,158.2z"/>
					<path class="st79" d="M88.5,155.3c-2,0.6-4,1.3-6,1.9c-0.1-0.3-0.3-0.7-0.4-1c2.3-0.7,4.7-1.4,7-2.2
						C88.9,154.4,88.7,154.9,88.5,155.3z"/>
					<path class="st79" d="M79.7,148.7c-0.5-0.3-1.3-0.4-1.4-0.8c1.1-3.1,5-3.2,6.7-5.4c2.7-0.6,5.5-1.2,8.2-1.9l3.5,9.7L95,151
						l1.2-1.6c-1.7,0.8-3.2-1.4-4.9-0.6c0.9-1.2,2-2.3,3.1-3.4l0.1,0.3c-4.1,2.7-8.7,5.1-10.9,9.2c-2.3,0.8-4.6,1.6-7,2.2
						c-0.7-1.4-1.7-2.4-2-3.6C74.2,151.7,77.7,150.4,79.7,148.7z"/>
					<path class="st16" d="M91.3,148.8c1.7-0.8,3.2,1.4,4.9,0.6L95,151c-3.6,1.6-7.2,3.3-10.8,5c-0.3,0.1-0.5,0.1-0.8,0.2
						c-2.9,1-5.1,2.3-7.8,3.2c1.1-2.2,2.1-4.4,3.2-6.5c4.2,0.4,8.5,0.3,12.8-0.6c-1.5,0.3-2-1.6-2.9-1.6c-3.4-0.7-7.5-3.6-7.1-5.9
						c3.3-1.8,6.6-3.5,9.9-5.3l4.5,12.4c-2.1,0.7-4.2,1.4-6.3,2c-0.5-0.4-1.3-1-1.6-0.9c-1.6,0.6-3.1,1.2-4.7,1.8
						c2.2-4,6.8-6.4,10.9-9.2l-0.1-0.3C93.3,146.5,92.2,147.6,91.3,148.8z"/>
					<path class="st73" d="M78.9,152.9c-1.1,2.1-2.2,4.3-3.2,6.5c-0.7,0.2-1.4,0.5-2.2,0.6c0.1,0.3,0.3,0.6,0.7,0.8l-1.4,0.7
						c-0.7,0.1-1.7-0.7-1.9,1l-2,1c-0.9-0.1-1.7-0.3-2.5-0.9l0.5,1c-0.4,1-1.4,0.6-2.1,1c0.1,0.2,0.2,0.5,0.3,0.7
						c-0.5,0.1-0.9,0.2-1.4,0.4l-1.8-9.7c3.1,0.6,6.8-0.2,7.5-0.2c0.5,0.2,1,0.3,1.5,0.5c-1.5,2.9-3.6,5.5-7.1,7.2
						c0,0,0,1.1-0.5,1.5c-0.7,0.4-1.4,0.8-2.1,1.2L50,172.8l9.2-16.3l0.1-0.1c4.5-0.1,8.4-4.2,8.6-4.3l1.6-0.8
						c3.1-1.3,8.6-1.7,11.1-5.8l1.2-0.7c-0.5,2.3,3.6,5.2,7.1,5.9c0.8,0,4,0.9,2.9,1.6C87.2,154.1,78.6,152.9,78.9,152.9z"/>
					<path class="st80" d="M91.3,163.3c1.3,0.2,2.6,0.3,4,0.5c-1.4,0-2.9-0.3-3.6,0.6c-0.6-0.3-1.4-0.2-2.1-0.2
						C90.1,163.9,90.7,163.6,91.3,163.3z"/>
					<path class="st80" d="M89.1,168.9L88,169c-0.1-0.8,0.6-1.6,1.4-1.3c-0.1-0.8-0.7,0-0.8-0.3c-0.1-1,0.3-1.1,0.9-1
						c0.1,1.7-0.3,3.4-0.8,3.5L88,170C88.3,169.6,89,169.3,89.1,168.9z"/>
					<path class="st81" d="M76.8,169.1c-1.2-0.2-2-0.8-3.3-1.3c1.1-1.7,1.9-3.5,2.7-5.4c3.6,0.1,7.1,0.3,10.6,0.6
						c-0.6,0.3-1.2,0.6-1.7,1c0.7-0.1,1.4-0.1,2.1,0.1c-0.1,0.2-0.2,0.4-0.3,0.7l0,0c-0.5-0.1-0.9,0-0.8,1c0,0.4,0.7-0.5,0.8,0.3
						c-0.8-0.3-1.4,0.5-1.4,1.3l1.1-0.1c-0.2,0.4-0.8,0.7-1.2,1.1c-3.1,0.3-6.3,0.9-9.3,1.6C76.3,169.8,76.6,169.5,76.8,169.1z"/>
				</g>
			</g>
		</g>
		<g>
			<g class="st1">
				<g class="st1">
					<path class="st73" d="M85.5,173.9c-0.7,0.3-1.3,0.8-1.9,1.2c0-0.4,0.1-0.8,0.1-1.2C83.9,172.9,84.9,174,85.5,173.9z"/>
					<path class="st73" d="M87.4,173.1C87.4,173.1,87.4,173.1,87.4,173.1c-0.5,0.2-1.1,0.4-1.6,0.7c0,0,0.1-0.1,0.1-0.1
						C86.2,172.8,86.6,172.3,87.4,173.1z"/>
					<path class="st74" d="M94.5,158.9c-0.1,4.3-0.3,7.9-0.3,11.5c-0.1,0.3-0.2,0.8-0.3,0.9c0,0.1-0.9,0.7-1.4,0.7
						c-0.1-1.8-0.2-3.8-0.4-6.2c-0.3-0.4-0.8-0.7-1-1.5c-0.5-3-0.4-5-0.2-6.8C91,157.6,93.5,159.5,94.5,158.9z"/>
					<path class="st13" d="M97.1,159.1c0.7,0.2,1.8,1.5,2.2,1.9c-0.1,1.8-0.1,3.6-0.3,5.1c0.3,0.8,0.5,1.6,0.7,2
						c0,0.3-0.1,0.6-0.1,0.9c-1,0.4-2,0.9-2.9,1.4C96.7,169.2,97.1,162.4,97.1,159.1z"/>
					<path class="st75" d="M95.1,159.6c0.2-0.3,0.4-0.5,0.6-0.8c0.5,0,0.9,0,1.4,0.3c0,3.3,0,6.2-0.2,8.4c0.1,0,0.3,1.1,0.3,1.1
						c-0.2,0.8-0.5,0.6-0.4,1.7c-0.9,0.5-1.7,1-2.6,1.3c0.1-0.8,0.3-0.5,0.5-0.5c-0.3-0.9-0.4-1-0.5-0.7c0-3.6,0.2-7.2,0.3-11.5
						l0.2,0C94.8,159.4,95,159.9,95.1,159.6z"/>
					<path class="st76" d="M85.5,169.1c0-2-0.3-4.7-0.7-7.7c0.3,0.2,0.8,0.7,0.9,0c0.5-0.1,1.7,0.4,1.6-0.7c-0.1-1.1,0,4.5,0.2,7
						c0.4,1.5,0.5,2.8,0.5,4c-0.1-0.1-0.3-1-0.4-1.2c0,0.1,0.2,1.2,0.2,1.2s-0.6,0.1-0.9,0.2c-0.6-1.5-0.6-0.2-0.5,0.2l-0.3,0.1l0,0
						c0-0.5-0.1-1-0.1-1.6C85.8,170.3,85.5,169.1,85.5,169.1z"/>
					<path class="st77" d="M91.1,164.4c-0.5-3-0.4-5-0.2-6.8c-0.2-0.1-0.8-0.4-0.9-0.5c0.2,0.7,0.4,1.4,0.4,1.7
						c-0.2,0.5-0.5,0.9-0.8,1c-0.3-0.1-0.9-1-1.3-1.4c-0.2,0.3-0.4,0.6-0.6,1c0,0,0,0.3,0.1,0.6c0,0.3,0.1,0.7,0.2,1
						c-0.2,0-0.4-0.1-0.6-0.3c0,0.2-0.4,4.3,0.2,7c0.4,1.5,0.5,2.8,0.5,4c0,0,0.8,0,1.2,0c-0.1-0.3-0.4-0.9-0.5-1
						c0.1,0,0.6,0.8,0.8,1c0.2,0,0.8-0.1,0.8-0.2c0.1,0-0.3-0.8-0.4-1.6c0.5,1,1,1.6,1.4,2l0.3,0c0.1,0.3,0.2,0.5,0.1,0.5
						c0,0.1-0.1,0.2-0.1,0.2c0.2,0,0.8,0.2,1,0.2c-0.2-0.2-0.5-0.5-0.7-0.9c0.2,0,0.4,0,0.5,0c0,0,0,0,0,0c-0.1-1.8-0.2-3.8-0.4-6.1
						C91.7,165.5,91.2,165.2,91.1,164.4z"/>
					<path class="st78" d="M76.4,177.5c-1-1.2-1.5-0.9-2.8-2.5c-2.2-3-4-6.8-6.2-10.5c2.5,0.5,4.5,0.5,6.4,0.2
						c0.3,1.8-0.8,1.2,0.1,4.1c0.2,0.4,0.5,0.7,0.7,1c0.1,1.3-0.4,2,0.5,3.8c0.5,1.1,1.2,2.3,2,3.7l-0.1,0.1
						C76.6,176.9,76.6,177.4,76.4,177.5z"/>
					<path class="st79" d="M79.6,177.7l-0.8,0.7c-0.2-0.3-0.3-0.7-0.5-1c0.4-0.2,0.7-0.5,1-0.9C79.4,176.9,79.5,177.3,79.6,177.7z"
						/>
					<path class="st79" d="M74.7,169.8c-0.2-0.3-0.5-0.6-0.7-1c-0.9-2.8,0.2-2.2-0.1-4.1c0.7-0.1,1.4-0.3,2.1-0.5c0,0.3,0,0.7,0,1
						c0.4-0.1,1.5,2.4,1.9,2.3c0.1,3.1-1,4.3,0.3,8.8c-0.3,0.4-0.6,0.7-1,0.9c-0.7-1.4-1.4-2.6-2-3.7
						C74.3,171.8,74.8,171.1,74.7,169.8z"/>
					<path class="st16" d="M77.9,167.5c-0.3,0.1-1.5-2.4-1.9-2.3c0-0.4,0-0.7,0-1c0.8-0.3,1.6-0.6,2.3-0.9c0.1,0,0.1,0,0.2,0.1
						c0.7,0.1,1.1-0.3,1.8-0.2c0.2,1.6,0.4,3.3,0.5,4.9c-1.4-1.8-2.8-3.3-4.1-4c0.4,0.3,1.1,2.2,1.4,2.5c1.4,1.9,3.4,6,3.9,8
						c-0.9,0.7-1.7,1.4-2.5,2.1c-0.3-0.4-0.7-1.2-0.8-1.1c-0.2,0.3-0.4,0.6-0.6,0.9C76.9,171.8,78,170.7,77.9,167.5z"/>
					<path class="st73" d="M80.8,168.1c-0.2-1.6-0.3-3.2-0.5-4.9c0.2,0,0.3,0.1,0.6,0.2c-0.1-0.3-0.2-0.7-0.4-1l0.3-0.1
						c0.2,0.2,0.7,1.3,0.4-0.2l0.4-0.2c0.3,0.4,0.6,1,1,1.8l-0.4-1.2c-0.1-0.8,0.3-0.1,0.5-0.1c-0.1-0.2-0.2-0.5-0.2-0.8
						c1,0.7,1.7-0.6,1.9-0.6c0.2,0.2,0.3,0.3,0.5,0.4c0.5,3,0.8,5.7,0.7,7.7c0,0,0.3,1.2,0.4,1.6c0,0.5,0.1,1,0.1,1.6
						c-1.3-1.7-1.6,0.7-1.6,0.7l-0.3,0.2c-0.6,0-2.2-1.6-1.9,1.3l-0.2,0.2c-0.5-1.9-2.5-6.1-3.9-8c-0.3-0.3-1.6-2.3-1.4-2.5
						C77.8,164.1,80.9,168.2,80.8,168.1z"/>
					<path class="st80" d="M102.4,163.5l0.8,0.7c-0.3,0-0.6-0.4-0.7,0.5c-0.1-0.3-0.3-0.3-0.4-0.3
						C102.2,164,102.3,163.7,102.4,163.5z"/>
					<path class="st80" d="M102.2,169.3l-0.2,0c0-0.8,0-1.6,0.2-1.2c0-0.8-0.1,0-0.2-0.4c-0.1-1.1,0-1.1,0.1-1
						c0.1,1.8,0.1,3.6,0,3.6l-0.1,0C102.1,169.9,102.2,169.7,102.2,169.3z"/>
					<path class="st81" d="M99.8,168c-0.2-0.4-0.5-1.2-0.7-2c0.1-1.5,0.2-3.3,0.3-5.1c0.8,0.7,1.5,1.3,2.2,2
						c-0.1,0.2-0.2,0.5-0.3,0.9c0.1,0,0.3,0,0.4,0.3c0,0.2,0,0.4,0,0.7l0,0c-0.1-0.1-0.2-0.1-0.1,1c0,0.4,0.1-0.4,0.2,0.4
						c-0.2-0.4-0.3,0.4-0.2,1.2l0.2,0c0,0.4-0.1,0.7-0.2,1c-0.6,0.1-1.2,0.2-1.8,0.4C99.8,168.6,99.8,168.3,99.8,168z"/>
				</g>
			</g>
		</g>
		<g>
			<g class="st1">
				<g class="st1">
					<path class="st73" d="M44.9,64.4l0-0.1l0.4-32.1l12.4,30.3c1.4,3.4,2.1,6.9,2.2,10.6c-0.3-0.8-0.7-1.6-1.1-2.4
						c-0.5-1.3-0.6-2.6-0.7-4c-0.1-1.4-0.1-2.9-0.5-4.3l-9.6-31.4l-3.2,33.2L44.9,64.4z"/>
					<path class="st73" d="M46.5,74.5C46.4,74.5,46.4,74.5,46.5,74.5c-1-2.7-1.5-5.5-1.6-8.4c0,0.2,0,0.4,0.1,0.6
						C45.7,69.4,46.5,71.7,46.5,74.5z"/>
					<path class="st74" d="M65.8,74.2c4.2,0.8,7.8,3.6,10.5,7.3c0,0.4,0.1,0.8,0.2,1.3c0.1,0.5,0.1,1-0.1,1.4c0,0,0,0.4-0.3,1.1
						c-0.3,0.7-0.7,1.9-1.8,3.1c-1.1,1.3-2.7,2.4-4.3,2.8c-1.6,0.5-2.9,0.6-3.9,0.5c1.2-0.8,2.2-1.8,2.8-3c0.6-1.2,0.9-2.5,0.6-3.7
						c-0.5,0.1-1.2,0.2-1.7,0.1c-0.5-0.1-0.9-0.4-0.9-0.8c0-0.7,0.1-1.4,0.1-2c0-0.3,0-0.6-0.1-0.9c0-0.1-0.1-0.3-0.1-0.4
						c0,0,0,0.1,0,0.1c0.1,0.3,0.2,0.3,0.2,0.4c0,0-0.1-0.1,0,0c-0.1-0.1-0.2-0.2-0.5-0.4c-0.1,0-0.2-0.2-0.7-0.4
						c-0.2-0.1-0.5-0.3-0.9-0.4c-0.3-0.2-1.2-0.5-0.9-0.4c0.2,0.1,0.7-0.7,1-1.4C65.9,77.4,66.3,75.4,65.8,74.2z"/>
					<path class="st13" d="M74.5,71.4c0,1-0.3,2.1-0.5,3c-0.2,1-0.3,1.9-0.2,2.4c-1.8,0.3-3.6,0.2-5.3-0.5c-0.5,1-1,1.9-0.9,3
						c-0.4-0.1-0.7-0.3-1.1-0.4c-1.7-3.8-2-7.4-2.4-10.4L61,41.7l13.5,24.5c0.5,0.9,1,1.9,1.4,2.9c-0.5,0-2.6-0.9-5-1.2l-4.7-0.7
						l2.1,1.3C70.4,69.8,72.9,71.1,74.5,71.4z"/>
					<path class="st75" d="M66.3,72.9c-0.4-0.6-0.8-1.1-1.2-1.5c-0.1-0.2-0.2-0.5-0.3-0.7l9.9-2.3c0,1.1-0.1,2.1-0.2,3
						c-2.6-0.5-4.9-1.6-6.8-2.9l-3.3-2.4l6.8,1.6c0.5,0.1,1,0.3,1.5,0.5c-0.1-0.3,0.8-0.9,0.7-1.2c1.3,1.1,1.4,2.2,2.4,2.2
						c1.7,4.2,2.2,8.9,1.3,13.6c-0.5-1.1,0-2,0.1-3c-1,0.4-1.1,1-1,1.8c-2.7-3.7-6.3-6.4-10.5-7.3l-0.1-0.5
						C66.1,73.4,66.6,73.1,66.3,72.9z"/>
					<path class="st76" d="M49.6,70.5c2.3,2,5.3,2.4,8.2,2.1c0,0.5-0.1,1.7,0.9,2c0.3,0.6,0.8,1.5,1.3,2.2c0.6,0.7,1.2,1.2,1.7,0.9
						c0.5-0.2-0.7,0.2-2.4,0.4c-0.9,0.1-1.9,0.2-2.9,0.3c-1,0-1.9,0-2.7,0c-1.3,0.7-2.9,0.5-4.5-0.1c-0.1-0.4,0.9-0.5,0.8-1
						c-0.1,0-0.4,0-0.7,0c-0.3,0-0.6-0.1-0.6-0.1s-0.3-0.7-0.7-1.5c-0.3-0.9-0.7-1.9-0.9-2.7c1.2-1.1-0.3-2.5-0.6-2.6
						c-0.1-0.4-0.1-0.9-0.2-1.3l0,0c0.6,0.5,1.1,1,1.7,1.4C48.5,70.8,49.6,70.5,49.6,70.5z"/>
					<path class="st77" d="M66.9,84.5c0-0.7,0.1-1.4,0.1-2c0-0.3,0-0.6-0.1-0.9c0-0.1-0.1-0.3-0.1-0.4c0,0,0,0.1,0,0.1
						c0.1,0.3,0.2,0.3,0.2,0.4c0,0-0.1-0.1,0,0c-0.1-0.1-0.2-0.2-0.5-0.4c0.2,0.1,0.4,0.3,0.5,0.4c-0.1-0.1,0.1,0.1,0,0l0-0.1
						c0-0.1,0-0.1-0.1-0.1c-0.1-0.1-0.1-0.2-0.1-0.3c0,0.1,0.1,0.4,0,0.1c-0.1-0.2-0.1-0.5-0.2-0.8c0-0.2-0.1-0.4-0.1-0.6l0-0.3
						c0,0,0,0,0,0c0,0.1-0.2,0.2-0.4,0.2c-0.2-0.1-0.3-0.5-0.4-0.8c-0.1-0.2-0.1-0.4-0.1-0.6c-0.1-0.2-0.2-0.4-0.3-0.6
						c-0.6,0-1.2-0.1-1.8-0.2c0,0-0.9,0.7-1.2,1c-0.4-0.3-0.6-0.6-0.7-1.1c-0.1,0.1-1.4,0.2-3,0.3C57,78,55,77.9,53.8,78.4
						c-1.3,0.7-2.9,0.5-4.5-0.1c0,0,0.1,0.2,0.3,0.6c0.2,0.3,0.4,0.8,0.7,1.3c0.3,0.5,0.6,1,0.9,1.5c0.3,0.5,0.7,0.9,0.9,1.3
						c0.2-0.2,0.2-1.1,0.2-1.3c0.1,0.2,0.5,2.1,0.9,2.7c0.7,0.9,2.8,2.7,3.1,2.8c0.3,0.2,0.2-0.8,0.7-1.4c0.2,0.8,0.5,1.6,1,2.2
						c0.4,0.7,0.9,1.3,1.6,1.8c0.4,0.2,0.7,0.4,1.2,0.6c0,0.3,0.1,0.6-0.1,0.5c-0.2,0-0.3-0.1-0.5-0.1c-0.1,0-0.3-0.1-0.4-0.1
						c0.1,0.1,0.2,0.1,0.4,0.2c0.2,0.1,0.4,0.2,0.6,0.3c0.5,0.2,1.1,0.5,1.7,0.7c1.2,0.5,2.7,0.8,3.5,0.8c-1.4-0.3-2.5-0.9-3.4-1.6
						c1,0.4,2.2,0.6,3.5,0.7l0.2,0c1.2-0.8,2.2-1.8,2.8-3c0.6-1.2,0.8-2.5,0.6-3.6c-0.5,0.1-1.2,0.2-1.7,0.1
						C67.3,85.1,66.9,84.8,66.9,84.5z"/>
					<path class="st78" d="M32,77.1c0.8-2,0-4.3,1.5-6.1c1.4-1.4,3.1-2.1,5-2.7c1.8-0.6,3.8-1.1,5.7-1.8c-0.2,2.6,0.1,5.3,0.7,7.8
						c0.3,1.3,0.7,2.6,1.2,3.8c0.1,0.3,0.2,0.6,0.4,0.9l0.3,0.8c0.1,0.2,0.2,0.4,0.2,0.4c0,0.1,0,0.1,0,0.1
						c-0.3,0.3-0.6,0.6-0.7,0.8c0.1-0.2,0.6-0.7,0.3-0.4c-0.1,0.1-0.3,0.1-0.4,0.1c-0.3,0-0.6-0.2-0.9-0.5c-0.7-0.6-1.5-1.2-3-1.1
						c-0.3,0.2-0.5,0.8-0.7,1.2c-1.7-0.8-3.1-3-4.9-2.3c-1.1,0.5-2,1.4-3.3,2.3L33,79.8C33.2,79,32.5,78.2,32,77.1z"/>
					<path class="st79" d="M38.3,90.7c-1.6-1.2-2.5-2.5-3.2-3.4c-0.7-1-1-1.6-1.5-2.3c0.3-0.2,0.6-0.4,0.9-0.6
						c0.2,0.4,0.5,0.8,0.7,1.2c0.3,0.4,0.6,0.9,1,1.5c0.4,0.6,0.9,1.2,1.6,1.8c0.7,0.6,1.5,1.3,2.6,1.9C39.7,90.8,39,90.7,38.3,90.7
						z"/>
					<path class="st79" d="M41.4,80.4c0.2-0.4,0.3-1,0.7-1.2c1.5-0.1,2.3,0.5,3,1.1c0.3,0.3,0.6,0.5,0.9,0.5c0.1,0,0.3,0,0.4-0.1
						c0.3-0.3-0.2,0.2-0.3,0.4c-0.3,0.3-0.4,0.6-0.5,0.7l0,0l0,0c0.1-0.1-0.1,0.3,0.1-0.3l0,0l0,0l0,0l0,0l0,0.1c0,0,0,0.1-0.1,0.1
						l-0.1,0.2c0,0.2,0-0.1-0.1-0.7c-0.1-0.2-0.2-0.6-0.4-0.9c0,0-0.1-0.1-0.1-0.1l0,0c0,0,0,0,0,0c0,0,0,0,0.1,0
						c0.1,0,0.3-0.2,0.4-0.3c0.1,0.3,0.2,0.7,0.3,1c0.4-0.3,2.5,1.3,3.2,0.4c0.1,1-0.1,2.2-0.6,3.2c-0.5,1-1.5,2.1-3.1,2.6
						c-0.8,0.3-1.7,0.3-2.6,0.2c-0.9-0.1-1.8-0.4-2.5-0.7c-1.6-0.6-2.9-1.2-4.2-1.4c-1.1-1.5-2-3.1-2.8-4.7c1.3-0.8,2.2-1.8,3.3-2.3
						C38.3,77.4,39.7,79.6,41.4,80.4z"/>
					<path class="st16" d="M49,81.3c-0.7,0.9-2.8-0.7-3.2-0.4c-0.1-0.3-0.2-0.7-0.3-1c0.4-0.4,0.8-1,1.1-1.6
						c0.4-0.9,0.6-1.9,0.8-2.9c0.1-0.1,0.1-0.3,0.2-0.4c0.5-1.5,0.4-2.9,0.5-4.4c1.6,0.8,3.2,1.9,4.5,3.3c-1.1,1.1-2.3,2.1-3.4,3
						c-1.1,0.9-2.2,1.9-2.9,2.1c0.6-0.3,2.2,0.6,2.7,0.4c1.3-0.3,3.1-0.7,4.8-0.8c1.7-0.1,3.3,0,4,0.8c-0.1,0.6-0.3,1.2-0.4,1.9
						c-0.2,0.6-0.3,1.2-0.7,2c-0.6,1.5-1.4,2.9-2.4,4.2c-1.1,1.3-2.3,2.6-4.5,3.7c-1,0.5-2.3,0.9-3.8,1.1c-1.5,0.1-3.1-0.1-4.4-0.6
						c-0.6-0.7-1.1-1.9-1.5-2.2c-1.2-0.7-2-1.5-2.7-2.3c-0.7-0.7-1.1-1.4-1.5-1.9c1.4,0.2,2.7,0.8,4.2,1.4c0.8,0.3,1.6,0.6,2.5,0.7
						c0.9,0.1,1.8,0.1,2.6-0.2c1.6-0.5,2.5-1.6,3.1-2.6C49,83.4,49.2,82.3,49,81.3z"/>
					<path class="st73" d="M52.7,73.9c-1.4-1.4-2.9-2.5-4.5-3.3c0-0.4,0.1-0.8,0.2-1.2c-0.3,0.1-0.7,0.1-1,0.3l-0.2-0.8
						c0.1-0.3,1.2-1-0.3-1c-0.1-0.4-0.2-0.7-0.4-1.1l0,0l10.2-1.4c-0.4,0.3-1,0.6-1.9,0.8l1.1,0c0.7,0.4,0,0.8,0,1.1
						c0.2,0,0.5,0,0.8,0c-0.4,0.9-0.2,2,0.2,2.8c0.4,0.9,0.9,1.4,1,1.6c-0.1,0.3-0.1,0.6-0.1,0.9c-2.9,0.4-5.9,0-8.2-2.1
						c0,0-1.1,0.2-1.6,0c-0.6-0.4-1.1-0.9-1.7-1.4c0.6-1.6,0.7-3.2,0.6-4.6l-1.3-20.4l10,19.2c0.9,1.6,1.8,3,1.8,3.1
						c0.1,0.5,0.2,1,0.3,1.5c0.2,1.4-0.2,3.2-0.4,5c-0.2,1.8-0.3,3.6,0.7,5.5c-0.1,0.4-0.1,0.8-0.2,1.2c-0.8-0.8-2.3-0.9-4-0.8
						c-1.7,0.1-3.5,0.5-4.8,0.8c-0.2,0.1-1,0.2-1.6,0.1c-0.7-0.1-1.2-0.3-1.1-0.6c1-0.8,2.5-1.9,3.7-2.9
						C51.6,74.9,52.8,73.8,52.7,73.9z"/>
					<path class="st80" d="M79.1,82.5c0.8,0.1,1.8,0,2.7-0.4c-0.9,0.7-1.9,0.5-2.3,1.5c-0.5-0.2-1-0.2-1.6-0.2
						C78.4,83.1,78.8,82.7,79.1,82.5z"/>
					<path class="st80" d="M76.8,87.9c-0.4-0.1-0.9-0.1-1.3-0.3c0.2-0.7,1.1-1.3,1.8-0.8c0.1-0.8-0.8-0.1-0.7-0.5c0.2-1,0.6-1,1-0.8
						c-0.1,1.7-1,3.3-1.7,3.2c-0.3-0.1-0.6-0.1-0.9-0.2C75.7,88.3,76.5,88.2,76.8,87.9z"/>
					<path class="st81" d="M67.6,79.3c-0.1-1.1,0.4-1.9,0.9-3c1.6,0.6,3.5,0.7,5.3,0.5c0.1,1,0.2,1.8,0.7,2.6
						c0.5,0.8,1.2,1.6,2.1,2.2c-0.4,0.1-0.9,0.2-1.4,0.4c0.4,0.2,0.9,0.4,1.2,0.8c-0.1,0.1-0.3,0.3-0.4,0.6l0,0
						c-0.3-0.2-0.6-0.3-1,0.6c-0.1,0.4,0.7-0.1,0.5,0.6c-0.5-0.5-1.3-0.1-1.7,0.5c0.3,0.1,0.6,0.3,1,0.4c-0.3,0.3-1,0.2-1.6,0.4
						c-1.5-0.8-2.8-1.7-4-3c-1.2-1.3-1.9-2.6-2.6-4C66.9,79.1,67.3,79.2,67.6,79.3z"/>
				</g>
			</g>
		</g>
		<g>
			<g>
				<g>
					<g>
						<path class="st19" d="M53.6,150.5C56.1,124.7,30,112.3,16,95.2C2.3,78.6-3.8,53.5,6.7,33.7c6-11.2,16.6-19,27.8-24.5
							C47.8,2.9,62.6-1.5,76.7,5.1c21.8,10.2,35.1,36.2,30.9,59.8c-2.4,13.5-9.3,25.6-14,38.3c-5,13.6-6.4,27.7-3.5,42
							c0.2,1.1,3.3,0.3,3-0.8c-3.2-15.5-1-30.3,4.8-44.9c4.8-12.1,11.1-23.8,13-36.7c3.5-23.5-10.2-49-31.8-59.1
							c-20.8-9.7-47.7,1.8-63.8,16C-2,34.7-5.6,58.1,2.8,78.9c5.1,12.7,13.9,21.9,23.9,30.8c12.1,10.7,25.5,23.5,23.8,41.2
							C50.4,152.1,53.5,151.5,53.6,150.5L53.6,150.5z"/>
					</g>
				</g>
			</g>
			<g>
				<g>
					<g>
						<path class="st19" d="M53.5,150.8c7.4-11.5,3.7-28.8,1.6-41.3c-1.4-8.1-3.2-16.1-5.4-24c-1.9-7-3.6-14.8-7.9-20.7
							c-0.7-0.9-2.6-0.1-2.9,0.8C37,71.5,39.1,77.1,42.5,82c2,3,4.7,7.7,9,5.8c3.9-1.7,7.5-8.1,9-11.9c2.1-5.3,2-10.9-0.9-15.8
							c-0.6-1-2.6-0.1-2.9,0.8c-2.8,7.8-1.5,17.2,2.2,24.5c2.3,4.4,6.1,6.7,10.4,3.3c5.2-4.1,8.2-11.9,7-18.4
							c-0.6-3.3-4-6.9-6.2-2.4c-2.4,4.9-0.4,14.4,3.1,18.2c3.8,4.2,7.5,0.3,9.4-3.6c1.1-2.2,3.8-10.9-1.9-8.3
							c-2.3,1.1-2.6,4.9-2.9,6.9c-0.7,4.7-0.6,9.5-0.2,14.2c0.8,11.2,2.6,22.4,4.1,33.5c0.7,5,0.6,18.6,9,15.8
							c1.8-0.6,1.4-2.4-0.5-1.8c-1.7,0.5-3.7-3.5-4-4.7c-0.2-1.1-0.4-2.2-0.5-3.3c-0.4-2.9-0.8-5.9-1.2-8.9
							c-0.8-5.9-1.6-11.8-2.3-17.7c-0.8-6.4-1.7-12.9-1.8-19.4c0-3,0.3-6,0.7-9c0.1-0.8,0.9-3,0-1.4c-0.8,1.4-0.8,4.3-2.2,5.4
							c-3.5,2.6-5-2-5.7-4.4c-0.7-2.6-0.8-5.5-0.6-8.2c0.3-4,0.4-1.7,0.7,0.7c0.4,3.3-0.4,6.6-1.7,9.6c-1.5,3.2-4,7.3-8.3,5.4
							c-1.9-0.9-3.1-6.1-3.7-8.2c-1.8-6-2.1-12.2,0-18.2c-1,0.3-2,0.5-2.9,0.8c2.2,3.7,2.6,8,1.5,12.2c-0.8,3-3.7,9.8-6.8,11.4
							c-3.5,1.8-6.2-4-7.6-6.5c-2.4-4.2-3.4-8.6-2-13.3c-1,0.3-2,0.5-2.9,0.8c4.2,5.8,5.8,13.4,7.7,20.3c2,7.3,3.7,14.6,5,22
							c2.3,12.7,6.4,30.5-1.1,42.2C49.8,151.9,52.9,151.8,53.5,150.8L53.5,150.8z"/>
					</g>
				</g>
			</g>
			<g>
				<g>
					<g>
						<path class="st19" d="M51.2,151.5c10.4-0.9,20.7-2.8,30.6-6c2-0.6,3.9-1.3,5.9-2c2.7-1,5.3-1,7.4,1.8c0.5,0.7,0.7,2.6,0.9,3.5
							c0.5,2.6,1,5.2,1.5,7.8c0.7,3.4,2.8,7.5-1.4,9.5c-2.2,1-5.6,0.9-8,1.3c-2.7,0.4-5.3,0.9-8,1.3c-5.7,0.9-11.3,1.8-17,2.7
							c-2.9,0.5-6,1.3-9,1.4c-1.4,0.1-1.9,0.6-2.9-0.6c-0.5-0.6-0.3-3.1-0.4-3.9c-0.2-1.7-2.3-18.8-0.8-18.6c1.5,0.2,3.1-2,1-2.2
							c-5.1-0.7-5.2,4.1-4.8,8c0.5,4.6,1,9.1,1.5,13.7c0.2,1.8-0.2,4.5,1.3,5.8c1.6,1.4,5.1,0.1,6.8-0.2c4.7-0.7,9.3-1.5,14-2.2
							c9-1.4,18-2.7,27-4.3c5-0.9,5.6-2.7,4.7-7.5c-0.9-4.5-1.6-9.2-2.7-13.7c-0.5-2.1-1-4.3-2.7-5.7c-4.3-3.8-12.3,1.3-16.7,2.7
							c-9.1,2.7-18.5,4.4-28,5.2C49.8,149.4,49.1,151.7,51.2,151.5L51.2,151.5z"/>
					</g>
				</g>
			</g>
			<g>
				<g>
					<g>
						<path class="st19" d="M47.5,150c4.8,4.7,11.4,3.7,17.3,1.9c9.4-2.9,18.7-6.2,28-9.3c-0.4-0.3-0.7-0.6-1.1-0.9
							c-14.3,5.1-29.7,5.4-44,10.2c-0.5,0.2-1.6,1.1-0.4,1.2c14.7,0.8,29.5-5.3,43.5-9.2c1.8-0.5,1.5-1.7-0.3-1.2
							c-13.1,3.7-27.5,9.7-41.2,9c-0.1,0.4-0.3,0.8-0.4,1.2c14.4-4.7,29.7-5.1,44-10.2c2-0.7,0.1-1.4-1.1-0.9
							c-6,2-11.9,3.9-17.9,5.9c-7.3,2.4-17.1,7.5-23.5,1.3C49.7,148.3,46.9,149.4,47.5,150L47.5,150z"/>
					</g>
				</g>
			</g>
			<g>
				<g>
					<g>
						<path class="st19" d="M70.7,156.6c7-1.3,13.8-3.2,20.4-5.9c2-0.8,0.2-1.8-1.2-1.2c-6.1,2.5-12.3,4.4-18.8,5.5
							C69.7,155.2,68.6,157,70.7,156.6L70.7,156.6z"/>
					</g>
				</g>
			</g>
			<g>
				<g>
					<g>
						<path class="st19" d="M64.1,166.2c10.5-2.6,20.7-5.9,30.8-9.9c2-0.8,0.2-1.7-1.2-1.1c-9.8,3.9-19.8,7.1-30,9.6
							C61.9,165.2,62.2,166.6,64.1,166.2L64.1,166.2z"/>
					</g>
				</g>
			</g>
		</g>
	</g>
</g>
</svg>
