<?xml version="1.0" encoding="utf-8"?>
<!-- Generator: Adobe Illustrator 22.0.0, SVG Export Plug-In . SVG Version: 6.00 Build 0)  -->
<svg version="1.1" xmlns="http://www.w3.org/2000/svg" xmlns:xlink="http://www.w3.org/1999/xlink" x="0px" y="0px"
	 viewBox="0 0 116.4 139.2" style="enable-background:new 0 0 116.4 139.2;" xml:space="preserve">
<style type="text/css">
	.st0{fill:#FFFEFD;}
	.st1{opacity:0.9;}
	.st2{fill:#CBE5CF;}
	.st3{fill:#DCEDDF;}
	.st4{fill:#E3F1E5;}
	.st5{fill:#E0EFE2;}
	.st6{fill:#D1E8D4;}
	.st7{fill:#D4E9D7;}
	.st8{fill:#BEDEC2;}
	.st9{fill:#C3E1C7;}
	.st10{fill:#C7E2CB;}
	.st11{fill:#EEF6EF;}
	.st12{fill:#EBF5EC;}
	.st13{fill:#FEF9DA;}
	.st14{fill:#FFFDF1;}
	.st15{fill:#FDF5C7;}
	.st16{fill:#FDF2B4;}
	.st17{fill:#FCEFA5;}
	.st18{fill:#FCED95;}
	.st19{fill:#272525;}
	.st20{opacity:0.85;}
	.st21{fill:#D3E6F6;}
	.st22{fill:#C4DEF3;}
	.st23{fill:#ACD0EE;}
	.st24{fill:#E2EFF9;}
	.st25{fill:#B8D7F0;}
	.st26{fill:#9FC9EB;}
	.st27{fill:#EADAEE;}
	.st28{fill:#F7F1F8;}
	.st29{fill:#DFC7E5;}
	.st30{fill:#D5B5DC;}
	.st31{fill:#CDA6D5;}
	.st32{fill:#C497CE;}
	.st33{fill:#D8BBDF;}
	.st34{fill:#E5D1E9;}
	.st35{fill:#E8D6EB;}
	.st36{fill:#DDC3E2;}
	.st37{fill:#DFC6E4;}
	.st38{fill:#CEA9D6;}
	.st39{fill:#D2B0DA;}
	.st40{fill:#F2E9F4;}
	.st41{fill:#F0E4F2;}
	.st42{opacity:0.8;}
	.st43{opacity:0.8;fill:#DC7D5B;}
	.st44{opacity:0.8;fill:#E9AE99;}
	.st45{opacity:0.8;fill:#F0C7B8;}
	.st46{opacity:0.8;fill:#F7E1DA;}
	.st47{fill:#F7E0D8;}
	.st48{fill:#FCF3F0;}
	.st49{fill:#F2D0C4;}
	.st50{fill:#EEC0B0;}
	.st51{fill:#EBB4A0;}
	.st52{fill:#E7A790;}
	.st53{fill:#F0C6B6;}
	.st54{fill:#F5D8CE;}
	.st55{fill:#F6DCD3;}
	.st56{fill:#F1CCBF;}
	.st57{fill:#F2CFC2;}
	.st58{fill:#ECB6A3;}
	.st59{fill:#EDBDAB;}
	.st60{fill:#FAECE7;}
	.st61{fill:#F9E8E2;}
	.st62{fill:#B7E9E6;}
	.st63{fill:#CFF0EE;}
	.st64{fill:#D9F3F2;}
	.st65{fill:#D4F2F0;}
	.st66{fill:#BFECE9;}
	.st67{fill:#C3EDEA;}
	.st68{fill:#A5E4E0;}
	.st69{fill:#ACE6E3;}
	.st70{fill:#B1E7E4;}
	.st71{fill:#E8F8F7;}
	.st72{fill:#E3F6F5;}
	.st73{fill:#FDF3BA;}
	.st74{fill:#FEF7D0;}
	.st75{fill:#FEF8D5;}
	.st76{fill:#FDF4C2;}
	.st77{fill:#FDF5C5;}
	.st78{fill:#FCF0A8;}
	.st79{fill:#FDF1AF;}
	.st80{fill:#FEFBE8;}
	.st81{fill:#FEFAE4;}
	.st82{fill:#C9E1F4;}
	.st83{fill:#DBEAF7;}
	.st84{fill:#DEEDF8;}
	.st85{fill:#CFE4F5;}
	.st86{fill:#D2E5F6;}
	.st87{fill:#BBD8F1;}
	.st88{fill:#C1DCF2;}
	.st89{fill:#EDF5FB;}
	.st90{fill:#EAF3FB;}
	.st91{fill:#C5EDEB;}
	.st92{fill:#91DED9;}
	.st93{fill:#A1E3DF;}
	.st94{fill:#80D8D3;}
</style>
<g id="background">
	<rect x="-731" y="-590.6" class="st0" width="1200" height="800"/>
</g>
<g id="colour">
</g>
<g id="object">
	<g>
		<g>
			<g class="st1">
				<g class="st1">
					<path class="st2" d="M105,94.4c0.4-3.4-0.1-7.1-1.1-10.7l0.8,1.1l0.7,1.1c0.2,0.3,0.3,0.7,0.4,1c0.1,0.3,0.1,0.7,0.2,1.1
						c0,0.4,0.1,0.7,0.1,1.1c0,0.4-0.1,0.7-0.1,1.1c-0.1,0.4-0.1,0.7-0.2,1.1c-0.1,0.4-0.2,0.7-0.2,1.1c-0.1,0.4-0.2,0.7-0.2,1.1
						C105.2,93.7,105.1,94,105,94.4z"/>
					<path class="st2" d="M101.9,103.1C101.9,103.1,101.9,103.1,101.9,103.1c1.5-2.2,2.5-4.7,2.9-7.2c0,0.2,0,0.4,0,0.5
						C104.8,98.9,104,101.5,101.9,103.1z"/>
					<path class="st3" d="M60.8,138.7c3.2-4.3,6.2-8.6,8.4-12.9c0.8-0.5,1.5-1.4,2.2-1.7c0,0,1.2-0.7,2.7-1.6
						c1.5-0.9,3.4-1.9,4.7-2.6c-0.7,2.2-1.2,4.5-1.4,6.9c1.2-0.2,3.5-1.1,3.9-0.4c0.8,2.7-0.6,5.4-2.4,8c-0.4,0.1-3.3,1-7,1.9
						C68.2,137.2,63.9,138,60.8,138.7z"/>
					<path class="st4" d="M45.8,138c-2-0.5-4.2-1.5-5.9-2.6c-1.8-1.1-3.3-2.2-4.1-2.8c0.9-0.5,1.8-0.9,2.7-1.4
						c0.9-0.4,1.8-0.9,2.7-1.2c-0.8-1.1-1.2-2-2.1-2.9c0.4-0.1,0.7-0.2,1.1-0.3c2.6,1,5.2,1.7,7.8,2.1c2.6,0.4,5.2,0.3,7.8,0
						c-0.1,0.3-0.5,0.8-1.2,1.6c-0.3,0.4-0.7,0.8-1.2,1.3c-0.4,0.4-0.9,0.9-1.5,1.4c-1.1,1-2.3,1.9-3.4,2.7
						C47.4,136.7,46.4,137.4,45.8,138z"/>
					<path class="st5" d="M58,138.4c-0.8,0.2-1.5,0.3-2.2,0.5c-0.7,0.1-1.4,0.2-2.1,0.3c-2.7-0.1-5.3-0.4-7.9-1.2
						c2.4-2.4,5.1-4.7,7.7-6.6c-0.4,0-0.7-1.1-1-1.1c0.9-0.3,1.6-0.4,2.1-0.6c0.5-0.2,0.9-0.4,1.1-0.9c4.8-0.6,9.5-2.3,14.2-4.5
						c-0.7,1.1-1.9,1.2-2.9,1.5c0.8,0.6,1.6,0.4,2.3-0.1c-2.2,4.3-5.2,8.6-8.4,12.9c-0.4,0.1-0.9,0.1-1.3,0.2
						C59.1,138.5,58.7,138.1,58,138.4z"/>
					<path class="st6" d="M106.8,102.2c0.2,3.7,0.5,7.1,1,10.4c-1,0.7-2.9,1.9-3.7,3.3c-1.1,0.9-2.9,2.2-4.6,3.3
						c-1.6,1.1-3,2.1-3.1,2.7c-0.2,0.6,0.6-1,1.4-3.2c0.8-2.2,1.6-5.1,1.8-6.7c-0.7-1.3-0.5-2.9-0.2-4.7c0.4-0.3,0.7,0.6,1.2,0.4
						c-0.1-0.1-0.3-1.4-0.3-1.4s0.2-0.1,0.4-0.4c0.2-0.2,0.5-0.6,0.8-1c0.6-0.8,1.3-1.7,1.7-2.4c0.8,0,1.2-0.5,1.3-1.1
						c0.1-0.6,0-1.2-0.1-1.3c0.2-0.4,0.4-0.8,0.5-1.2l0,0c0.1,0.4,0.2,0.7,0.3,1.1c0.1,0.4,0.1,0.7,0.2,1.1
						C105.9,101.7,106.8,102.2,106.8,102.2z"/>
					<path class="st7" d="M81.3,126.4c0.8,2.7-0.6,5.4-2.4,8c1.1-0.3,3.6-1.3,3.9-1.4c-0.6-0.4-1.4-0.7-0.9-1.3c1.3-1.1,3-2.4,4.1-3
						c1.5-0.6,3.4-0.7,5-1.2c1.1-0.9,2.1-1.8,3.1-2.7c0.1-0.1,0.2-1.3,0-1.7c0.8-0.5,1.6-0.8,2.5-1.1c0-0.1,1.2-1.9,2.1-4.1
						c1-2.1,1.6-4.6,1.1-5.8c-0.7-1.3-0.5-2.9-0.2-4.7c0,0-0.8,0.7-1.8,1.5c-1,0.8-2.2,1.7-3.1,2.2c0.2,0.2,1.2,0.2,1.4,0.1
						c-0.2,0.2-2.3,0.7-3.1,1c-1.1,0.7-3.9,2.4-4.1,2.6c-0.3,0.2,0.7,0.4,1.1,1c-1.9,0.1-3.8,0.4-5.5,1l-1.3,0.7
						c-0.3-0.2-0.5-0.3-0.3-0.4c0.2-0.2,0.5-0.4,0.7-0.6c-0.8,0.4-4.2,2.1-5.1,2.5c1-0.3,2-0.5,3.1-0.7c-0.9,0.5-1.8,1-2.7,1.5
						l-0.1,0.1c-0.7,2.2-1.2,4.5-1.3,6.9C78.7,126.6,81,125.7,81.3,126.4z"/>
					<path class="st8" d="M81,53.7c-0.6-0.9-1.7-1.4-2.7-1.8c-1.1-0.4-2.1-0.8-3.1-1.5c-1.5-1.4-2.5-2.9-3.3-4.6
						c-0.8-1.7-1.3-3.5-2.8-5c3.4-0.8,6.8-0.9,10-0.5c3.1,0.5,6.1,1.4,8.7,2.7c5.4,2.6,9.6,6.4,13,10.5c-1.5-0.4-2.8-1.6-4.3-2.5
						c-1.5-0.9-3.1-1.6-4.7-1.1c-0.2,0.3,0.3,1.1,0.4,1.6c-1.3-0.3-2.9-0.9-4.2-1.1c-1.3-0.2-2.4-0.1-2.8,0.8
						c-0.4,1-0.3,2.4-0.7,3.8l-0.6-0.3C83.4,54,82.2,53.9,81,53.7z"/>
					<path class="st9" d="M91.5,62.1c-1.3-1.3-2.7-2.5-4-3.4c0.2-0.3,0.4-0.6,0.5-0.9c1.6,1.2,3.2,2.6,4.9,4.2
						C92.4,62,92,62.1,91.5,62.1z"/>
					<path class="st9" d="M92.2,51.6c-0.1-0.5-0.6-1.3-0.4-1.6c1.6-0.5,3.2,0.2,4.7,1.1c1.5,0.9,2.8,2,4.3,2.5
						c1.3,1.6,2.5,3.1,3.6,4.8c0.6,0.8,1.1,1.6,1.6,2.4l1.6,2.5l-1.8-1.2c1.2,1.8-0.8,3.5,0.3,5.3c-2.6-2-5.2-4.4-7.9-6.3
						c-2.7-1.9-5.6-3.2-8.4-2.8c-1.7-1.3-3.5-2.3-5.3-3.1c0.4-1.4,0.3-2.8,0.7-3.8c0.3-0.8,1.4-1,2.8-0.8
						C89.3,50.7,90.9,51.3,92.2,51.6z"/>
					<path class="st10" d="M106,67.3c-1-1.8,0.9-3.5-0.3-5.3l1.8,1.2c2.3,3.9,4.3,8,5.9,12.3c0.1,0.3,0.1,0.6,0.2,0.9
						c0.8,3.4,1.7,6.3,1.8,9.7c-0.8-1-1.8-2-2.6-2.9c-0.9-0.9-1.8-1.7-2.8-2.6c0.9-4.2,0.8-9.1-0.6-13.9c0.5,1.7-1.3,2.1-1.2,3.1
						c-0.2,1.8-1,3.7-2.1,5.1c-1.1,1.3-2.3,2.1-3.4,1.8c-1.2-2.6-2.6-5-4.2-7.4c-1.6-2.3-3.4-4.7-5.3-6.7c0.1-0.6,0.3-1.5,0.1-1.7
						c-1.2-1-2.4-2-3.6-2.9c2.8-0.4,5.7,0.9,8.4,2.8C100.9,62.9,103.4,65.3,106,67.3z"/>
					<path class="st2" d="M110.1,80.7c0.9,0.8,1.8,1.7,2.8,2.6c0.9,0.9,1.8,1.9,2.6,2.9c0,0.9,0,1.7-0.1,2.7c0.3,0,0.6,0,0.9-0.4
						c0,0.6,0.1,1.3,0.1,1.9c-0.1,0.4-0.4,0.8-0.5,1.2c-0.2,0.4-0.1,0.9,0.5,1.5c0,0.9-0.1,1.9-0.2,2.8c-0.6,0.9-1.2,1.6-2.1,1.9
						l1.1,0.2c0.5,1.1-0.4,1.8-0.7,2.7c0.2,0.1,0.5,0.1,0.7,0.3c-1.1,2-2.1,4.5-3.2,6.5c-1.1,2-2,3.6-2.4,4.1
						c-0.6,0.4-1.1,0.7-1.6,1.1c-0.6-3.4-0.9-6.8-1-10.4c0,0-1-0.5-1.1-0.9c-0.1-0.4-0.1-0.7-0.2-1.1c-0.1-0.4-0.2-0.7-0.3-1.1
						c0.4-0.3,0.7-0.7,0.9-1.1c0.2-0.4,0.4-0.9,0.6-1.4c0.1-0.2,0.1-0.5,0.2-0.7c0-0.2,0.1-0.5,0.1-0.7c0-0.5,0.1-0.9,0.1-1.3
						c-0.1-0.9-0.2-1.6-0.3-2.1c-0.1-0.5-0.3-0.9-0.3-0.9l-0.1-1.6c-0.1-0.8,0-1.6,0.1-2.6c0-1,0-2-0.2-3c-0.3-2.1-1.1-4.2-2.9-5.5
						c-0.2-0.4-0.4-0.8-0.6-1.2c1.1,0.3,2.4-0.5,3.4-1.8c1.1-1.3,1.9-3.2,2.1-5.1c0-0.9,0.4-4.3,1.2-3.1c1.2,2.5,1.5,6.1,1.3,9
						c0,0.7-0.1,1.4-0.2,2c-0.1,0.6-0.2,1.1-0.3,1.6C110.2,80.3,110.1,80.7,110.1,80.7z"/>
					<path class="st11" d="M23.4,122.4c-1-1-2-1.9-3.1-2.9c1.2,0.9,2.3,2.1,3.4,1.8c0.4,0.6,1,1,1.7,1.5
						C24.7,122.7,24.1,122.6,23.4,122.4z"/>
					<path class="st11" d="M28.5,119.6l1,0.6c-0.4,0.6-1.5,0.8-1.9,0c-0.4,0.6,0.7,0.4,0.5,0.7c-0.5,0.8-0.9,0.6-1.3,0.2
						c0.9-1.3,2.3-2.3,2.8-2l0.6,0.4C29.6,119.7,28.9,119.4,28.5,119.6z"/>
					<path class="st12" d="M39,127.2c0.9,0.8,1.3,1.7,2.1,2.9c-0.9,0.3-1.8,0.8-2.7,1.2c-0.9,0.4-1.8,0.9-2.7,1.4
						c-3.2-2.3-6-4.7-8.8-7.2c0.7,0.2,1.4,0.3,2,0.3c-0.6-0.4-1.3-0.8-1.7-1.4c0.2,0,0.4-0.1,0.7-0.3l0,0c0.4,0.4,0.8,0.6,1.3-0.2
						c0.2-0.3-0.9-0.1-0.5-0.7c0.5,0.7,1.5,0.6,1.9-0.1l-1-0.6c0.4-0.2,1.1,0,1.6,0c2.9,1.8,5.8,3.3,8.7,4.5
						C39.7,126.9,39.4,127,39,127.2z"/>
				</g>
			</g>
		</g>
		<g>
			<g class="st1">
				<g class="st1">
					<path class="st2" d="M27.7,115l1.8,0.9c0.6,0.3,1.2,0.5,1.8,0.8c1.2,0.5,2.5,1,3.8,1.4c-0.7,0.1-1.3,0.2-2,0.2
						C30.9,118.3,29.5,116.2,27.7,115z"/>
					<path class="st2" d="M21.5,111.1C21.5,111.1,21.5,111.1,21.5,111.1c0.9,0.6,1.7,1.2,2.5,1.8l2.6,1.6c-0.1-0.1-0.3-0.1-0.4-0.2
						c-1-0.3-1.9-0.6-2.8-1.1C22.7,112.7,22,112,21.5,111.1z"/>
					<path class="st3" d="M4,81.3c3.2,3.2,5.8,6.5,8.7,9.3c0.2,0.6,0.6,1.4,0.5,1.9c0.1,0,0.2,3.8,0.2,5.5c-1.6-0.9-3.4-2-5.4-2.9
						c-0.4,0.8-0.8,2.4-1.5,2.4c-2.7-0.4-4.4-2.2-5.9-4.2C0.7,93,1.4,91,2.1,88.5C2.9,86.1,3.8,83.3,4,81.3z"/>
					<path class="st4" d="M7,72.2c1-2.4,3.5-5.1,4.5-6.2c1.1,1.4,2.2,2.8,3.1,4.2c1-0.5,1.9-0.7,2.5-1.2c0.2,0.3,0.3,0.6,0.5,0.9
						c-1.3,3.6-2.2,7.4-2.8,11.2c-0.5-0.2-1.8-1.8-3.4-3.7C9.9,75.4,8.2,73.2,7,72.2z"/>
					<path class="st5" d="M5.1,79.7c0-1,0.1-1.9,0.1-2.8c0.5-1.6,1.1-3.2,1.9-4.7c1.2,1,2.3,2.1,3.2,3.2c1,1.1,1.8,2.3,2.5,3.4
						c0.1-0.3,1.1-0.2,1.2-0.4c0.3,1.4-0.1,2.2,0.8,2.7c-0.5,3.5-0.8,7-1,10.5c-0.7-0.8-0.2-1.5-0.1-2.3c-0.9,0.2-1,0.8-0.9,1.4
						c-2.9-2.8-5.6-6.1-8.7-9.3c0.1-0.3,0.1-0.6,0.2-0.8C4.7,80.3,5.2,80.2,5.1,79.7z"/>
					<path class="st6" d="M21.1,115.7c-1.4,0-2.8,0.2-4.2,0.6c-1.4,0.3-2.8,0.8-4.2,1.4c-0.4-0.7-1.1-2-2.3-2.3
						c-0.7-0.7-1.7-2-2.5-3.1c-0.9-1.2-1.6-2.3-2.2-2.4c-0.6-0.1,0.9,0.6,2.9,0.9c2,0.4,4.3,0.3,5.7,0.1c1.1-0.9,2.5-1.1,4-1.1
						c0.2,0.3-0.6,0.7-0.5,1.1c0.1-0.1,1.2-0.5,1.2-0.5s0.4,0.4,1,0.9c0.5,0.5,1.2,1,1.7,1.4c-0.4,1.5,1.4,1.5,1.6,1.2l0.9,0.6l0,0
						c-0.6,0.1-1.3,0.3-1.9,0.3C21.8,114.8,21.1,115.7,21.1,115.7z"/>
					<path class="st7" d="M6.6,97.5c-2.7-0.4-4.4-2.2-5.9-4.2C0.5,94.1,0,96,0,96.2c0.6-0.2,1.3-0.6,1.5-0.1
						c0.3,1.2,0.7,2.8,0.8,3.7c-0.1,1.2-0.8,2.7-0.9,4.3c0.5,1.2,1.1,2.3,1.8,3.4c0,0.1,1.2,0.3,1.6,0.1c0.3,0.7,0.5,1.5,0.7,2.2
						c0.1,0,1.7,0.9,3.6,1.3c1.9,0.4,3.9,0.4,5-0.3c1.1-0.9,2.5-1.1,4-1.1c-0.1,0-2-2.1-2.6-3c-0.2,0.2-0.3,0.9-0.3,1.1
						c-0.1-0.1-0.3-1.6-0.3-2c-0.4-0.6-1.1-2-1.2-2.1c-0.1-0.2-0.6,0.5-1.2,0.8c0.5-1.2,0.9-2.1,1.1-3c0-0.2-0.1-0.5-0.1-0.7
						c0.3-0.1,0.4-0.2,0.5-0.1c0.1,0.1,0.2,0.3,0.3,0.4c0-0.2,0-0.8,0-1.4c0-0.6,0.1-1.3,0.1-1.5c-0.2,0.6-0.5,1.1-0.8,1.7
						c0-0.5,0-1.1,0-1.7l0-0.1c-1.6-0.9-3.4-2-5.4-2.9C7.7,95.9,7.3,97.5,6.6,97.5z"/>
					<path class="st8" d="M62.5,122.1c1.5,1.1,3.7,0.8,5.3,2.1c1.3,1.4,2.1,3,2.7,4.7c0.6,1.7,1.1,3.6,2.1,5.3
						c-7.4,0.5-14.4,0.4-21.4-0.4c0.9-0.7,2.1-0.9,3.2-1.2c1.1-0.3,2.2-0.7,2.8-2.1c0-0.4-0.6-0.7-0.9-1c0.8-0.6,1.9-1,2.7-1.5
						c0.8-0.5,1.5-1.1,1.4-2c-0.1-1.1-0.7-2.2-1-3.6l0.5-0.1C60.6,122.7,61.5,122.3,62.5,122.1z"/>
					<path class="st9" d="M51.9,121.1c1.3,0,2.6-0.1,3.9-0.2c0,0.3,0.1,0.7,0.1,1c-0.8,0-1.6,0-2.3,0.1c-0.8,0.1-1.6,0.1-2.4,0.1
						C51.5,121.8,51.7,121.5,51.9,121.1z"/>
					<path class="st9" d="M56.3,129.5c0.3,0.3,0.9,0.7,0.9,1c-0.6,1.3-1.7,1.8-2.8,2.1c-1.1,0.3-2.3,0.5-3.2,1.2
						c-1.3-0.2-2.7-0.3-4-0.6l-3.9-0.7c0.5-0.2,1-0.4,1.5-0.6c-1.5-0.2-1.3-2.8-2.6-3.1c2.3-0.8,4.7-1.3,6.9-2
						c1.1-0.4,2.2-0.8,3.2-1.5c1-0.7,1.8-1.5,2.5-2.5c0.8-0.1,1.6-0.2,2.4-0.3c0.8-0.1,1.6-0.1,2.3-0.2c0.3,1.4,0.9,2.5,1,3.6
						c0.1,0.9-0.5,1.5-1.4,2C58.2,128.5,57.2,128.9,56.3,129.5z"/>
					<path class="st10" d="M42.2,128.8c1.4,0.3,1.2,2.9,2.6,3.1c-0.5,0.2-1,0.5-1.5,0.6c-3-0.7-6-1.4-8.9-2.4
						c-0.2-0.1-0.4-0.2-0.5-0.3c-1.1-0.5-2.1-0.9-3-1.3c-1-0.4-1.9-0.8-2.9-1.4c1.9-0.7,3.8-1.5,5.6-2.3c0.9,1.4,1.9,2.7,3.1,3.9
						c1.2,1.1,2.5,2.3,4,3.1c-1.1-0.6-0.4-2.3-0.8-2.8c-1.6-2.5-1.9-6.9-0.5-8.3c3.8,0.9,7.6,1.2,11.5,1.3c0.2,0.5,0.5,1.3,0.7,1.3
						c1.1-0.1,2.2-0.3,3.3-0.4c-0.7,1-1.5,1.8-2.5,2.5c-1,0.6-2,1.1-3.2,1.5C46.9,127.5,44.4,128,42.2,128.8z"/>
					<path class="st2" d="M33.5,124.8c-1.8,0.7-3.6,1.6-5.6,2.3c-0.5-0.3-0.9-0.6-1.4-1c-0.1,0.3-0.3,0.6-0.2,0.9l-1.1-0.5
						c-0.4-0.4-0.3-1.6-1.5-0.8l-1.5-0.8c-0.3-0.7-0.5-1.4-0.3-2.2l-0.6,0.9c-0.9,0.3-1-0.6-1.5-1c-0.1,0.2-0.3,0.4-0.4,0.6
						c-0.5-0.6-1-1.1-1.6-1.5c-0.6-0.5-1.2-0.9-1.8-1.3c-0.6-0.4-1.2-0.7-1.6-0.9c-0.4-0.3-0.8-0.5-0.9-0.6
						c-0.2-0.4-0.4-0.8-0.6-1.2c1.4-0.6,2.8-1,4.2-1.4c1.4-0.4,2.8-0.6,4.2-0.6c0,0,0.6-0.9,1-1c0.6-0.1,1.3-0.2,1.9-0.3
						c0.3,0.7,0.8,1.3,1.4,1.8c0.6,0.4,1.2,0.7,1.8,0.9c1.2,0.4,2.2,0.4,2.3,0.4l1.1,0.5c0.5,0.3,1,0.7,1.5,1.1
						c0.6,0.4,1.2,0.8,1.8,1.2c1.3,0.8,2.8,1,4.4,0.3c0.3,0.1,0.6,0.2,0.9,0.2c-1.4,1.4-1.1,5.8,0.5,8.3c0.4,0.5,1.8,2.9,0.8,2.8
						c-0.9-0.2-1.8-0.9-2.7-1.6c-0.9-0.7-1.7-1.5-2.4-2.4C34.3,126.1,33.4,124.7,33.5,124.8z"/>
					<path class="st11" d="M18.8,57.7c0.7-0.7,1.4-1.3,2.1-2c-0.6,0.8-1.5,1.5-1.1,2.4c-0.5,0.2-0.7,0.7-1,1.1
						C18.7,58.7,18.7,58.2,18.8,57.7z"/>
					<path class="st11" d="M22.2,62c-0.1,0.2-0.3,0.4-0.4,0.7c-0.6-0.4-1-1.2-0.4-1.4c-0.6-0.4-0.3,0.4-0.6,0.3
						c-0.8-0.5-0.7-0.8-0.4-1c1.4,0.9,2.5,2,2.3,2.3c-0.1,0.1-0.2,0.3-0.3,0.4C22.4,62.8,22.5,62.3,22.2,62z"/>
					<path class="st12" d="M17.1,69c-0.6,0.6-1.5,0.8-2.5,1.2c-0.8-1.4-1.9-2.8-3.1-4.2c1.7-2,3.4-4,5.2-5.8c0,0.5,0,1,0.1,1.5
						c0.3-0.5,0.5-0.9,1-1.2c0.1,0.2,0.2,0.4,0.4,0.5l0,0c-0.3,0.3-0.4,0.5,0.4,1c0.3,0.2,0-0.6,0.6-0.3c-0.6,0.3-0.2,1.1,0.4,1.4
						l0.4-0.7c0.3,0.3,0.2,0.8,0.3,1.2c-1.1,2-2,4-2.8,6.1C17.4,69.6,17.2,69.3,17.1,69z"/>
				</g>
			</g>
		</g>
		<g>
			<g class="st1">
				<g class="st1">
					<path class="st2" d="M59.1,42.5c-0.6,0.2-1.2,0.5-1.8,0.8c0.1-0.3,0.2-0.7,0.3-1C57.9,41.3,58.6,42.5,59.1,42.5z"/>
					<path class="st2" d="M60.8,42C60.8,42,60.8,42,60.8,42c-0.5,0.1-1,0.2-1.5,0.4c0,0,0.1-0.1,0.1-0.1
						C59.8,41.6,60.3,41.2,60.8,42z"/>
					<path class="st3" d="M68.6,30.3c-0.5,3.8-1,7-1.4,10.2c-0.1,0.2-0.3,0.7-0.4,0.7c0,0.1-0.8,0.5-1.3,0.5
						c0.1-1.6,0.3-3.4,0.3-5.5c-0.2-0.3-0.6-0.7-0.7-1.4c-0.1-2.7,0.2-4.4,0.5-6.1C65.8,28.9,67.7,30.8,68.6,30.3z"/>
					<path class="st4" d="M70.8,30.8c0.6,0.2,1.4,1.5,1.7,1.9c-0.2,1.6-0.4,3.2-0.7,4.5c0.2,0.7,0.3,1.4,0.5,1.8
						c-0.1,0.3-0.1,0.5-0.1,0.8c-0.9,0.2-1.8,0.6-2.7,1C69.5,39.7,70.5,33.7,70.8,30.8z"/>
					<path class="st5" d="M69,31c0.2-0.2,0.4-0.4,0.6-0.6c0.4,0,0.8,0.1,1.2,0.4c-0.3,2.9-0.6,5.5-1,7.4c0.1,0,0.1,1,0.2,1
						c-0.3,0.7-0.5,0.5-0.5,1.4c-0.8,0.3-1.6,0.7-2.5,0.9c0.1-0.7,0.3-0.4,0.5-0.4c-0.1-0.9-0.3-0.9-0.4-0.7c0.4-3.2,1-6.4,1.4-10.2
						l0.2,0C68.8,30.8,68.9,31.2,69,31z"/>
					<path class="st6" d="M59.8,38.3c0.3-1.8,0.4-4.2,0.4-6.9c0.2,0.2,0.6,0.7,0.8,0.1c0.4,0,1.4,0.5,1.5-0.4c0-0.9-0.6,4-0.7,6.2
						c0.1,1.4,0,2.6-0.1,3.6c-0.1-0.1-0.1-1-0.2-1.1c0,0.1,0,1.1,0,1.1s-0.6,0-0.8,0c-0.3-1.4-0.5-0.2-0.5,0.1l-0.2,0l0,0
						c0-0.5,0.1-0.9,0.1-1.4C59.9,39.4,59.8,38.3,59.8,38.3z"/>
					<path class="st7" d="M65.1,34.8c-0.1-2.7,0.2-4.4,0.5-6.1c-0.2-0.1-0.6-0.5-0.7-0.5c0.1,0.6,0.2,1.3,0.1,1.5
						c-0.2,0.4-0.6,0.8-0.8,0.8c-0.3-0.2-0.6-1-0.9-1.4c-0.2,0.2-0.4,0.5-0.6,0.8c0,0,0,0.3,0,0.6c0,0.3,0,0.7,0,0.9
						c-0.2,0-0.3-0.1-0.5-0.3c0,0.2-0.9,3.7-0.7,6.2c0.1,1.4,0,2.6-0.1,3.6c0,0,0.7,0.1,1,0.1c0-0.3-0.2-0.8-0.3-0.9
						c0,0,0.5,0.8,0.6,1c0.2,0,0.7,0,0.8,0c0.1,0-0.1-0.7-0.2-1.4c0.3,0.9,0.7,1.6,1,1.9l0.2,0c0,0.3,0.1,0.5,0,0.5
						c0,0.1-0.1,0.1-0.1,0.2c0.1,0,0.7,0.2,0.9,0.3c-0.2-0.2-0.3-0.5-0.5-0.9c0.2,0,0.3,0,0.5,0c0,0,0,0,0,0
						c0.1-1.6,0.3-3.4,0.3-5.5C65.6,35.9,65.2,35.6,65.1,34.8z"/>
					<path class="st8" d="M50.5,44.2c-0.7-1.2-1.2-1.1-1.9-2.7c-1.3-3-2.2-6.7-3.4-10.3c1.9,1,3.7,1.3,5.3,1.3
						c0,1.6-0.9,0.9-0.6,3.6c0.1,0.3,0.3,0.7,0.4,1c-0.1,1.1-0.6,1.6-0.2,3.4c0.3,1.1,0.7,2.2,1.1,3.6l-0.1,0
						C50.9,43.7,50.8,44.1,50.5,44.2z"/>
					<path class="st9" d="M53.4,44.9l-0.9,0.5c-0.1-0.3-0.2-0.6-0.3-1c0.4-0.1,0.7-0.3,1-0.6C53.3,44.1,53.3,44.5,53.4,44.9z"/>
					<path class="st9" d="M50.4,37.1c-0.1-0.3-0.4-0.7-0.4-1c-0.3-2.6,0.5-1.9,0.6-3.6c0.6,0,1.2,0,1.8-0.1c0,0.3-0.1,0.6-0.1,0.9
						c0.3-0.1,0.9,2.4,1.2,2.3c-0.4,2.8-1.5,3.6-1.1,7.8c-0.3,0.3-0.7,0.5-1,0.6c-0.4-1.4-0.8-2.5-1.1-3.6
						C49.8,38.8,50.3,38.3,50.4,37.1z"/>
					<path class="st10" d="M53.5,35.7c-0.3,0.1-0.9-2.4-1.2-2.3c0-0.3,0.1-0.6,0.1-0.9c0.7-0.1,1.4-0.2,2.1-0.4
						c0.1,0,0.1,0.1,0.2,0.1c0.6,0.2,1-0.1,1.5,0.1c-0.1,1.5-0.2,2.9-0.2,4.4c-0.9-1.8-1.9-3.3-2.9-4.2c0.3,0.3,0.6,2.1,0.8,2.4
						c0.9,1.9,2,5.8,2.1,7.6c-0.9,0.4-1.7,0.9-2.5,1.4c-0.2-0.4-0.4-1.1-0.5-1.1c-0.2,0.3-0.4,0.5-0.6,0.7
						C52,39.3,53.1,38.5,53.5,35.7z"/>
					<path class="st2" d="M55.9,36.7c0.1-1.4,0.2-2.9,0.2-4.4c0.1,0,0.3,0.1,0.4,0.3c-0.1-0.3-0.1-0.6-0.2-0.9l0.3-0.1
						c0.1,0.2,0.4,1.2,0.4-0.1l0.4-0.1c0.2,0.4,0.4,0.9,0.6,1.7L57.8,32c0-0.7,0.3,0,0.4-0.1c0-0.2-0.1-0.5-0.1-0.7
						c0.7,0.8,1.5-0.3,1.7-0.3c0.1,0.2,0.2,0.3,0.3,0.4c0,2.7-0.1,5.1-0.4,6.9c0,0,0.1,1.1,0.1,1.4c0,0.4-0.1,0.9-0.1,1.4
						c-0.9-1.6-1.5,0.4-1.5,0.4L58,41.6c-0.5,0-1.7-1.7-1.8,0.8l-0.2,0.1c-0.1-1.8-1.3-5.8-2.1-7.6c-0.2-0.3-1-2.2-0.8-2.4
						C53.9,32.7,56,36.8,55.9,36.7z"/>
					<path class="st11" d="M74.9,35.1l0.6,0.7c-0.2,0-0.5-0.4-0.6,0.4c-0.1-0.3-0.2-0.3-0.3-0.3C74.7,35.6,74.8,35.3,74.9,35.1z"/>
					<path class="st11" d="M74.3,40.2l-0.2,0c0-0.7,0.2-1.4,0.3-1.1c0-0.7-0.1,0-0.1-0.4c0-1,0.1-1,0.2-0.9
						c-0.1,1.6-0.2,3.2-0.3,3.2l-0.1,0C74.2,40.8,74.3,40.6,74.3,40.2z"/>
					<path class="st12" d="M72.3,38.9c-0.2-0.4-0.3-1.1-0.5-1.8c0.2-1.3,0.4-2.9,0.7-4.5c0.6,0.7,1.1,1.3,1.7,1.9
						c-0.1,0.2-0.2,0.5-0.3,0.8c0.1,0,0.2,0,0.3,0.3c0,0.2-0.1,0.4-0.1,0.6l0,0c-0.1-0.1-0.2-0.1-0.2,0.9c0,0.4,0.1-0.4,0.1,0.4
						c-0.1-0.4-0.3,0.4-0.3,1.1l0.2,0c0,0.4-0.2,0.6-0.2,0.9c-0.5,0-1,0.1-1.6,0.2C72.2,39.4,72.3,39.2,72.3,38.9z"/>
				</g>
			</g>
		</g>
		<g>
			<g class="st1">
				<g class="st1">
					<path class="st2" d="M78,30c-0.2,0.7-0.3,1.3-0.5,2c-0.2-0.3-0.5-0.6-0.7-0.8C76.3,30.4,77.7,30.5,78,30z"/>
					<path class="st2" d="M78.6,28.3C78.6,28.3,78.6,28.3,78.6,28.3c-0.2,0.5-0.4,1-0.5,1.5c0,0,0-0.1,0-0.1
						C77.7,28.9,77.6,28.4,78.6,28.3z"/>
					<path class="st3" d="M71.6,16.7c3.3,1.8,6,3.5,8.8,5.3c0.1,0.2,0.5,0.6,0.5,0.7c0.1,0,0.1,1-0.1,1.4c-1.3-0.9-2.9-1.8-4.8-2.7
						c-0.4,0-0.9,0.2-1.5-0.1c-2.5-1.1-3.9-2.1-5.3-3.1C69.3,18.1,71.7,17.5,71.6,16.7z"/>
					<path class="st4" d="M72.7,15.1c0.4-0.4,1.8-0.6,2.2-0.7c1.5,0.7,2.9,1.4,4,2.1c0.7,0.1,1.5,0.2,1.9,0.2
						c0.2,0.1,0.5,0.3,0.7,0.4c-0.1,0.9,0,1.9-0.1,2.9C80.6,19.5,75.3,16.3,72.7,15.1z"/>
					<path class="st5" d="M72.3,16.6c-0.1-0.3-0.3-0.5-0.4-0.7c0.2-0.3,0.4-0.5,0.7-0.8c2.6,1.2,4.9,2.5,6.6,3.5c0-0.1,1,0.3,1,0.2
						c0.5,0.5,0.3,0.6,1.1,1c0,0.9,0,1.8-0.2,2.6c-0.6-0.4-0.2-0.5-0.1-0.6c-0.8-0.2-0.9-0.1-0.8,0.1c-2.7-1.7-5.4-3.5-8.8-5.3
						l0.1-0.1C72.1,16.6,72.5,16.8,72.3,16.6z"/>
					<path class="st6" d="M74.8,27.2c-1.3-1.2-3.4-2.5-5.7-3.9c0.3,0,0.9,0,0.4-0.5c0.2-0.3,1.1-0.7,0.3-1.2
						c-0.8-0.5,3.2,2.3,5.1,3.6c1.3,0.6,2.2,1.3,3,1.9c-0.1,0-0.9-0.4-1-0.4c0.1,0.1,1,0.6,1,0.6s-0.3,0.5-0.4,0.7
						c-1.3-0.5-0.5,0.3-0.2,0.4l-0.1,0.2l0,0c-0.4-0.3-0.7-0.6-1.1-0.9C75.8,27.6,74.8,27.2,74.8,27.2z"/>
					<path class="st7" d="M74.4,21.2c-2.5-1.1-3.9-2.1-5.3-3.1c-0.2,0.1-0.7,0.2-0.7,0.3c0.6,0.2,1.2,0.4,1.4,0.6
						c0.2,0.3,0.5,0.7,0.4,0.9c-0.3,0.1-1.1,0-1.6,0c0.1,0.3,0.3,0.5,0.5,0.8c0,0,0.2,0.1,0.5,0.3c0.3,0.1,0.6,0.3,0.8,0.4
						c-0.1,0.1-0.2,0.2-0.5,0.2c0.2,0.1,2.9,2.4,5.1,3.6c1.3,0.6,2.2,1.3,3,1.9c0,0,0.4-0.6,0.7-0.8c-0.2-0.1-0.8-0.2-0.9-0.2
						c0,0,0.9,0,1.2,0c0.1-0.2,0.4-0.6,0.4-0.7c0-0.1-0.7-0.2-1.3-0.5c1,0.2,1.7,0.2,2.1,0.1l0.1-0.2c0.3,0.1,0.4,0.1,0.4,0.2
						c0.1,0.1,0.1,0.1,0.1,0.2c0.1-0.1,0.6-0.5,0.7-0.7c-0.3,0.1-0.6,0.1-1,0.1c0.1-0.1,0.2-0.3,0.3-0.4c0,0,0,0,0,0
						c-1.3-0.9-2.9-1.8-4.8-2.7C75.5,21.3,75,21.5,74.4,21.2z"/>
					<path class="st8" d="M73.7,37.9c-1.4-0.4-1.6,0.1-3.3-0.6c-3-1.3-6.2-3.4-9.5-5.1c1.9-0.3,3.2-1.1,4.2-2
						c1.2,1.1,0.2,1.1,2.3,2.6c0.3,0.2,0.7,0.3,1,0.4c0.8,0.8,0.8,1.5,2.4,2.4c1,0.5,2,1,3.3,1.7l-0.1,0.1
						C73.6,37.3,73.8,37.7,73.7,37.9z"/>
					<path class="st9" d="M76.2,36.2c-0.1,0.3-0.2,0.7-0.2,1c-0.3-0.2-0.6-0.3-0.9-0.5c0.2-0.4,0.2-0.8,0.3-1.2
						C75.6,35.8,75.9,36,76.2,36.2z"/>
					<path class="st9" d="M68.5,33.2c-0.3-0.1-0.7-0.2-1-0.4c-2.1-1.5-1.1-1.6-2.3-2.6c0.4-0.4,0.7-0.8,1-1.2
						c0.2,0.2,0.4,0.4,0.6,0.6c0.1-0.2,2.4,0.9,2.5,0.6c1.9,2,1.9,3.2,5.2,5.8c0,0.4-0.1,0.8-0.3,1.2c-1.3-0.7-2.4-1.2-3.3-1.7
						C69.3,34.7,69.3,34,68.5,33.2z"/>
					<path class="st10" d="M69.3,30.3c-0.1,0.3-2.4-0.9-2.5-0.6c-0.2-0.2-0.4-0.4-0.6-0.6c0.3-0.5,0.6-1,0.8-1.5
						c0.1,0,0.1,0,0.2-0.1c0.5-0.3,0.5-0.7,0.9-0.9c1.2,0.9,2.3,1.8,3.4,2.7c-2-0.4-3.8-0.7-4.9-0.6c0.4,0,2,0.9,2.4,0.9
						c1.9,0.6,5.8,2.1,7.3,3.1c-0.2,1-0.4,1.9-0.6,2.9c-0.4-0.2-1.1-0.4-1.2-0.4c0,0.3,0.1,0.6,0.1,0.9
						C71.1,33.5,71.2,32.2,69.3,30.3z"/>
					<path class="st2" d="M71.4,29.2c-1.1-0.9-2.2-1.8-3.4-2.7c0.1-0.1,0.3-0.1,0.4-0.2c-0.3-0.1-0.6-0.3-0.9-0.4l0.1-0.2
						c0.2,0,1.2,0.4,0.1-0.3l0.1-0.3c0.4,0.1,1,0.2,1.7,0.5l-1-0.5c-0.6-0.4,0.1-0.2,0.1-0.3c-0.2-0.1-0.4-0.2-0.6-0.3
						c1-0.1,0.5-1.2,0.5-1.3c0.2,0,0.4,0,0.5,0c2.3,1.4,4.3,2.7,5.7,3.9c0,0,1,0.5,1.3,0.7c0.3,0.3,0.7,0.6,1.1,0.9
						c-1.9-0.2-0.5,1.4-0.5,1.5l-0.1,0.3c-0.4,0.4-2.4,0.3-0.5,2l0,0.2c-1.5-1-5.3-2.6-7.3-3.1c-0.4-0.1-2.4-0.7-2.4-0.9
						C67.1,28.2,71.5,29.2,71.4,29.2z"/>
					<path class="st11" d="M77.9,13.1l0.8-0.4c-0.1,0.2-0.5,0.3,0.3,0.7c-0.3,0-0.3,0.1-0.4,0.2C78.3,13.5,78.1,13.3,77.9,13.1z"/>
					<path class="st11" d="M82.6,15.2l-0.1,0.2c-0.7-0.2-1.3-0.6-0.9-0.6c-0.7-0.2,0,0.1-0.4,0c-0.9-0.3-0.9-0.4-0.8-0.4
						c1.5,0.5,3,1.1,3,1.2l0,0.1C83.1,15.5,83,15.3,82.6,15.2z"/>
					<path class="st12" d="M80.8,16.6c-0.4,0-1.1-0.1-1.9-0.2c-1.2-0.7-2.6-1.4-4-2.1c0.8-0.2,1.6-0.5,2.3-0.8
						c0.2,0.2,0.4,0.3,0.7,0.5c0-0.1,0.1-0.2,0.4-0.2c0.1,0.1,0.3,0.2,0.6,0.3l0,0c-0.1,0-0.1,0.1,0.8,0.4c0.3,0.1-0.3-0.2,0.4,0
						c-0.4,0,0.3,0.3,0.9,0.6L81,15c0.4,0.2,0.5,0.3,0.8,0.5c-0.2,0.5-0.3,1-0.3,1.5C81.3,16.9,81,16.8,80.8,16.6z"/>
				</g>
			</g>
		</g>
		<g>
			<g class="st1">
				<g class="st1">
					<path class="st2" d="M87.1,27.6c-0.3,1.1-0.7,2.2-1,3.2c-0.2-0.4-0.4-0.7-0.5-1.1C85.1,28.6,86.6,28.4,87.1,27.6z"/>
					<path class="st2" d="M88,24.6L88,24.6c-0.2,0.8-0.5,1.7-0.8,2.5c0-0.1,0-0.1,0-0.2C86.9,25.9,86.9,25.1,88,24.6z"/>
					<path class="st3" d="M78.5,18.5c0.6-1.8,1.3-3.4,2-5c0.8-1.5,1.7-3,3.1-4.1c0.5,0,1.2-0.2,1.7,0.1c0-0.1,0.9,0.3,1.9,1.2
						c1,0.9,1.9,2.4,2.1,3.3c-1.8-0.6-3.9-0.5-5.8,0.5c0,0.5-0.2,1.2-0.8,1.4c-0.6,0.2-1.2,0.4-1.7,0.7l-0.2,0.1c-0.1,0,0,0,0,0l0,0
						l0.1,0c0,0,0.1,0,0.1,0l0,0l0,0l0,0l0,0l0,0c-0.1,0.1,0.1-0.1,0.1-0.1l0,0l0,0l0,0l0,0c0,0-0.1,0.1-0.3,0.4
						c-0.1,0.2-0.2,0.4-0.4,0.7c-0.2,0.3-0.4,0.8-0.6,1.6C79.8,18.9,78.9,18.3,78.5,18.5z"/>
					<path class="st4" d="M76.2,17.8c-0.6-0.2-1.6-1.5-2-1.8c0.1-1.6,0.3-3.2,0.6-4.5c-0.3-0.7-0.5-1.4-0.9-1.8
						c0.1-0.3,0.1-0.5,0.2-0.8c1.6-0.3,3.2-0.6,4.8-0.8c-0.1,0.5-0.8,2.1-1.5,4.1C76.9,14.1,76.3,16.3,76.2,17.8z"/>
					<path class="st5" d="M78.1,17.7c-0.3,0.2-0.5,0.4-0.7,0.5c-0.4-0.1-0.8-0.2-1.2-0.5c0.4-2.9,1-5.5,1.9-7.3c-0.1,0-0.1-1-0.2-1
						C78.4,8.8,78.8,9,79,8.1C79.7,8,80.5,7.9,81.3,8c0.8,0,1.9,0.1,3.3,0.7c-0.9,0.4-1.3-0.2-1.8-0.3c0,0.9,0.3,1,0.7,1
						c-1.4,1.1-2.3,2.6-3.1,4.1c-0.8,1.5-1.4,3.2-2,5l-0.2-0.1C78.3,18,78.3,17.5,78.1,17.7z"/>
					<path class="st6" d="M84,24.2c-1.3-1.4-3.4-2.6-5.8-3.8c0.3-0.1,1-0.3,0.4-0.8c0.2-0.5,1.1-1.4,0.2-1.7
						c-0.4-0.2,0.5,0.2,1.7,0.9c1.2,0.8,2.8,1.7,3.7,2.3c1.3,0.5,2.3,1.1,3.2,1.8c-0.1,0.1-0.9-0.3-1.1-0.2c0.1,0,1,0.6,1,0.6
						s-0.3,0.9-0.5,1.3c-1.4-0.3-0.6,0.6-0.3,0.8l-0.1,0.4l0,0c-0.4-0.3-0.7-0.7-1.1-1C85,24.6,84,24.2,84,24.2z"/>
					<path class="st7" d="M82.7,15.9c-0.6,0.2-1.2,0.4-1.7,0.7l-0.2,0.1c-0.1,0,0,0,0,0l0,0l0.1,0c0,0,0.1,0,0.1,0l0,0l0,0l0,0l0,0
						l0,0c-0.1,0.1,0.1-0.1,0.1-0.1l0,0l0,0l0,0l0,0c0,0,0,0,0,0l0,0l0,0l0,0h0l-0.1,0.1h0l0,0l0,0l0,0l0,0c0,0-0.1,0-0.1,0.1
						c0,0,0.1,0,0,0c-0.1,0.1-0.6,0.3-1,0.3c-0.5,0.1-1.3,0.2-2.4,0.1l-0.2,0l0.1,0c0.1,0,0.1,0,0.2,0c0.1,0,0.2,0.1,0.4,0.2
						c0,0,0.3,0.1,0.5,0.1c0.3,0.1,0.6,0.2,0.9,0.2c0,0.1-0.2,0.2-0.4,0.3c0.1,0,0.9,0.5,1.9,1.2c1,0.7,2.3,1.6,3.5,2
						c1.3,0.5,2.3,1.1,3.2,1.8c0,0,0.1-0.3,0.3-0.6c0.1-0.3,0.3-0.7,0.4-1c-0.3-0.1-0.9,0-1,0c0-0.1,1-0.3,1.2-0.5
						c0.2-0.3,0.5-1.4,0.4-1.6c0-0.1-0.7,0-1.4-0.1c1.1-0.3,1.8-0.9,2.2-1.7c0-0.2,0-0.4,0.1-0.7c0.3-0.1,0.5-0.1,0.5,0
						c0.1,0.1,0.1,0.3,0.2,0.5c0-0.2,0.1-0.8,0.1-1.5c0-0.7-0.1-1.5-0.2-1.9c0,0.8-0.2,1.4-0.5,2c0-0.6-0.1-1.2-0.3-1.9l0-0.1
						c-1.8-0.6-3.9-0.5-5.8,0.6C83.5,15,83.4,15.7,82.7,15.9z"/>
					<path class="st8" d="M79.1,40.3c-1.4-0.5-2,0.2-3.6-0.6c-2.9-1.7-5.4-4.5-8.3-6.9c2.2-0.2,4-1.2,5.4-2.5c1,1.3-0.1,1.4,1.7,3.3
						c0.3,0.2,0.7,0.3,1,0.4c0.6,1.1,0.3,2,1.6,3.2c0.9,0.7,1.9,1.3,3.1,2.1l-0.1,0.2C79.3,39.4,79.4,39.9,79.1,40.3z"/>
					<path class="st9" d="M83,37.5c-0.3,0.5-0.5,1-0.8,1.6c-0.3-0.2-0.5-0.4-0.8-0.6c0.4-0.5,0.7-1.2,0.9-1.8
						C82.5,37,82.7,37.2,83,37.5z"/>
					<path class="st9" d="M75.3,34.1c-0.3-0.1-0.7-0.2-1-0.4c-1.8-1.9-0.6-2-1.7-3.3c0.5-0.5,1-1,1.4-1.6c0.2,0.3,0.4,0.5,0.5,0.8
						c0.2-0.3,2.4,0.9,2.6,0.5c1.6,2.5,1,4.2,3.7,7.6c-0.2,0.6-0.5,1.2-0.9,1.8c-1.2-0.8-2.2-1.4-3.1-2.1
						C75.6,36.1,75.9,35.2,75.3,34.1z"/>
					<path class="st10" d="M77.2,30c-0.2,0.4-2.4-0.9-2.6-0.5c-0.2-0.3-0.4-0.5-0.5-0.8c0.5-0.7,0.9-1.4,1.3-2.1
						c0.1,0,0.1-0.1,0.2-0.1c0.6-0.4,0.6-1,1.2-1.4c1.1,1,2.2,2,3.2,3c-2.2-0.2-4-0.2-5.3,0c0.5-0.1,2,0.9,2.4,0.9
						c2,0.5,5.9,1.9,7.3,3.1c-0.5,1.5-1.1,3-1.8,4.5c-0.4-0.2-1.1-0.5-1.2-0.4c-0.1,0.5-0.2,0.9-0.4,1.4
						C78.2,34.2,78.8,32.5,77.2,30z"/>
					<path class="st2" d="M79.9,28.1c-1-1-2.1-2.1-3.2-3c0.1-0.1,0.3-0.2,0.5-0.3c-0.3-0.1-0.6-0.3-0.9-0.4l0.1-0.3
						c0.2,0,1.3,0.3,0.2-0.4l0.2-0.4c0.4,0,1,0.1,1.8,0.3l-1-0.4c-0.6-0.4,0.1-0.3,0.2-0.4c-0.2-0.1-0.5-0.2-0.7-0.3
						c1.1-0.4,0.6-1.7,0.6-1.9c0.2,0,0.4-0.1,0.6-0.2c2.4,1.2,4.5,2.5,5.8,3.8c0,0,1,0.4,1.3,0.6c0.3,0.3,0.7,0.6,1.1,1
						c-2,0.3-0.8,2.3-0.8,2.4l-0.2,0.4c-0.5,0.8-2.7,1.1-1.1,3.1l-0.1,0.4c-1.4-1.2-5.3-2.6-7.3-3.1c-0.4,0-2.4-0.6-2.4-0.9
						c0.4-0.3,1.8-0.3,3-0.2C78.8,28,80,28.1,79.9,28.1z"/>
					<path class="st11" d="M70.6,14c-0.3-0.2-0.7-0.3-1-0.4c0.3-0.1,0.7,0.2,0.7-0.6c0.2,0.2,0.4,0.2,0.5,0.2
						C70.8,13.5,70.7,13.7,70.6,14z"/>
					<path class="st11" d="M70.3,8.8l0.3-0.1c0.1,0.7,0,1.5-0.2,1.1c0.1,0.7,0.2,0,0.3,0.3c0.2,0.9,0.1,1-0.1,0.9
						c-0.3-1.6-0.4-3.2-0.3-3.2l0.2,0C70.4,8.2,70.3,8.4,70.3,8.8z"/>
					<path class="st12" d="M73.9,9.6c0.3,0.3,0.6,1.1,0.9,1.8c-0.3,1.3-0.5,2.9-0.6,4.5c-0.8-0.7-1.6-1.2-2.4-1.6
						c0.1-0.2,0.2-0.5,0.3-0.9c-0.2,0-0.3,0-0.5-0.2c0-0.2,0-0.4,0-0.6l0,0c0.1,0.1,0.2,0,0.1-0.9c-0.1-0.4-0.1,0.4-0.2-0.3
						c0.2,0.3,0.3-0.4,0.2-1.1l-0.3,0c0-0.4,0.1-0.6,0.2-0.9c0.9-0.1,1.8-0.3,2.7-0.5C74.1,9.1,74,9.4,73.9,9.6z"/>
				</g>
			</g>
		</g>
		<g>
			<g class="st1">
				<g class="st1">
					<path class="st2" d="M48.7,7.2l0.2-0.5L49,6.4l0.3-0.5c0.1,0.4,0.3,0.7,0.4,1C50,7.8,48.9,7.2,48.7,7.2z"/>
					<path class="st2" d="M48.9,7.4C48.9,7.4,48.9,7.4,48.9,7.4c-0.3,0.1-0.4,0.1-0.3-0.1c0,0,0,0,0,0.1c0.1,0.3,0.2,0.5,0.3,0.6
						C49,8,48.9,7.8,48.9,7.4z"/>
					<path class="st3" d="M40.9,15.1c0.9-3.7,2.4-6.6,4.3-9.3c0.3-0.1,0.7-0.5,0.9-0.4c0-0.1,1.6,0.1,2.3,0.6
						c-1.1,1.2-2.2,2.6-3.3,4.5c0.1,0.4,0.3,0.9,0,1.6c-1.3,2.4-2.3,3.8-3.1,5.2c0-0.1,0-0.6-0.2-1.2C41.5,15.4,41.2,14.9,40.9,15.1
						z"/>
					<path class="st4" d="M39.7,14.5c-0.1-0.1-0.4-0.4-0.6-0.8c-0.3-0.4-0.5-0.7-0.7-0.8c-0.4-1.6-0.7-3.1-0.7-4.5
						c-0.4-0.6-0.8-1.3-1.3-1.5c0-0.3,0-0.6,0-0.8c1.6-0.8,3.3-1.2,4.9-1.4c-0.1,0.5-0.8,2.2-1.2,4.2C39.7,10.8,39.6,13.1,39.7,14.5
						z"/>
					<path class="st5" d="M40.7,14.3c-0.2,0.2-0.3,0.4-0.4,0.6c-0.2-0.1-0.4-0.1-0.6-0.4c-0.1-2.9,0.2-5.5,0.9-7.4
						c-0.1,0-0.1-1-0.2-1c0.5-0.6,0.8-0.4,1-1.4c1.5-0.2,3-0.2,4.5,0.2c-0.5,0.6-0.7,0.1-1,0c-0.1,0.9,0.1,1,0.4,0.8
						c-1.9,2.7-3.4,5.6-4.3,9.3l-0.1,0C40.8,14.6,40.8,14.1,40.7,14.3z"/>
					<path class="st6" d="M50.4,10.9c0.4,1.7,0.6,4.2,0.1,6.9c-0.5-0.2-1.2-0.8-1.9-0.2c-0.6-0.1-1.4-0.5-1.9-0.8
						c-0.6-0.3-1-0.5-1.3-0.1c-0.4,0.3,0.5-0.3,1.6-1.3c0.5-0.5,1.1-1.1,1.5-1.8c0.4-0.6,0.7-1.3,0.9-1.8c0.3-1.4,0.5-2.5,0.3-3.5
						c0,0.1,0,1,0,1.1c0-0.1,0-0.3,0-0.6c0-0.3-0.1-0.5-0.1-0.5c0,0-0.3,0.1-0.3,0.1c0.2,0.7,0.3,0.7,0.2,0.6c0-0.1-0.2-0.4-0.3-0.6
						c0,0,0,0,0,0l0,0c0.2,0.4,0.4,0.8,0.6,1.2C49.9,10,50.4,10.9,50.4,10.9z"/>
					<path class="st7" d="M45.1,11.9c-1.3,2.4-2.3,3.8-3.1,5.2c0,0.2,0.1,0.6,0.1,0.6c0.2-0.6,0.5-1.2,0.6-1.4
						c0.3-0.3,0.6-0.5,0.8-0.4c0,0.3-0.3,1.1-0.4,1.5c0.3-0.1,0.6-0.2,1-0.2c0,0,0.2-0.2,0.4-0.4c0.2-0.2,0.4-0.5,0.5-0.7
						c0.2,0.1,0.3,0.4,0.4,0.6c0.1-0.1,1-0.6,2-1.5c0.5-0.4,1-1,1.3-1.6c0.3-0.6,0.6-1.3,0.7-1.9c0.3-1.4,0.5-2.5,0.3-3.5
						c0,0,0.1-0.1,0.3-0.1c0.2,0,0.3,0,0.4-0.1C50.3,8.4,50,8.9,50,9c0,0,0.4-0.8,0.5-0.9c0,0,0-0.1-0.1-0.1c-0.1,0-0.2-0.1-0.2-0.1
						c0,0-0.3,0.6-0.7,1.2C49.8,8.2,50,7.5,49.8,7c-0.1-0.1-0.2-0.2-0.3-0.3c0.1-0.3,0.2-0.4,0.2-0.4c0.1,0,0.2,0,0.3,0
						c-0.2-0.2-1-1-1.2-1.1c0.2,0.3,0.3,0.7,0.3,1.2c-0.2-0.2-0.5-0.3-0.7-0.5l0,0c-1.1,1.2-2.2,2.6-3.3,4.5
						C45.2,10.8,45.4,11.3,45.1,11.9z"/>
					<path class="st8" d="M66,5.2C66,5.7,66,6.2,66,6.7c0,0.5,0,1-0.1,1.5c-0.1,1-0.5,2-1.5,2.4c-0.9,0.3-1.7,0.2-2.6,0.1
						c-0.4-0.1-0.9-0.2-1.3-0.4c-0.3-0.1-0.6-0.2-0.9-0.3c0,0,0,0-0.1,0c0.3,0.1,0.3,0,0,0.1c-0.3,0.1-0.7,0.4-1,0.6
						c-0.2,0.2-0.2,0.3-0.2,0.2c0.1-0.1,0.1-0.5,0.1-0.8c0,0.1,0,0.4,0,0.5c0,0.1,0,0.2-0.1,0.2c0.1-0.3,0.3-0.7,0.6-1.3
						c0.1-0.3,0.2-0.7,0.3-1c0.7-0.9,1.7-0.7,2.9-2c0.7-0.8,1.3-1.9,1.9-3.2l0.4,0.3C64.5,4.2,65.4,4.4,66,5.2z"/>
					<path class="st9" d="M57.5,0.1c1.6-0.3,3-0.2,4.4,0.2c-0.1,0.3-0.2,0.7-0.2,1c-1.4-0.4-3-0.5-4.7,0C57.1,0.9,57.3,0.6,57.5,0.1
						z"/>
					<path class="st9" d="M59.3,8.4c-0.1,0.4-0.1,0.7-0.3,1c-0.3,0.6-0.5,1-0.6,1.3c0,0,0-0.1,0.1-0.2c0-0.2,0-0.4,0-0.5
						c0,0,0-0.1,0-0.1l0.4,1.7l0,0.1l0.1,0.2c0,0.1,0.1,0.2,0.1,0.2l0.1,0.2c0,0,0,0-0.1,0c-0.1-0.2-0.3-0.5-0.4-0.8
						c-0.1,0-1.5-2-1.7-1.9c-0.5-1.3-0.3-2.3,0.1-3.5c0.1-0.3,0.3-0.6,0.4-0.9c0.2-0.3,0.5-0.7,0.8-1c0.6-0.7,1.3-1.5,2-2.4
						C61.8,2,63,2.4,64.1,3.2c-0.7,1.3-1.2,2.4-1.9,3.2C61,7.7,60,7.5,59.3,8.4z"/>
					<path class="st10" d="M57,9.7c0.3-0.2,1.7,1.9,1.7,1.9c0.1,0.3,0.3,0.5,0.4,0.8c-0.2,0-0.5,0.3-0.9,0.7c-0.1,0-0.1,0-0.2,0
						c-0.5,0.2-0.7,0.6-1.4,0.9c-0.7-1.3-1.6-2.5-2.4-3.7c1.9,0.8,3.6,1.5,4.5,2.1c-0.3-0.2-1.5-1.6-1.8-1.8c-1.6-1.3-5-3.7-6-5.2
						c0.4-0.6,1-1.4,1.9-2.1c0.8-0.8,2-1.5,3.4-2c0.3,0.4,0.8,1.1,1,1c1-0.3,2-0.4,2.9-0.4c-0.8,0.9-1.5,1.6-2,2.4
						c-0.3,0.3-0.5,0.7-0.8,1c-0.2,0.3-0.3,0.6-0.4,0.9C56.7,7.4,56.6,8.4,57,9.7z"/>
					<path class="st2" d="M54.4,10.3c0.8,1.2,1.6,2.4,2.4,3.7c-0.2,0.1-0.4,0.1-0.6,0.2c0.2,0.2,0.4,0.4,0.7,0.6l-0.3,0.3
						c-0.3,0-1.1-0.7-0.4,0.4c-0.1,0.1-0.3,0.3-0.5,0.4c-0.4-0.2-0.9-0.5-1.5-1.1l0.6,0.9c0.2,0.7-0.4,0.3-0.6,0.4
						c0.1,0.2,0.3,0.4,0.4,0.6c-0.7-0.1-1.4,0.3-2,0.7c-0.6,0.4-1.2,0.7-1.4,0.8c-0.3-0.1-0.5-0.3-0.8-0.4c0.5-2.7,0.4-5.2-0.1-6.9
						c0,0-0.4-1-0.6-1.3c-0.2-0.4-0.3-0.8-0.6-1.2c0.5,0.7,0.7,0.5,0.7,0.2c0-0.2-0.1-0.4-0.1-0.5c-0.1-0.2-0.1-0.3-0.1-0.3l0.1-0.2
						c0.1,0,0.3,0,0.5,0c0.2,0,0.5,0,0.7-0.1c0.4-0.2,0.6-0.6,0.1-1.8l0.2-0.3c1,1.5,4.4,3.9,6,5.2c0.2,0.1,0.6,0.5,1,0.9
						c0.4,0.4,0.7,0.8,0.7,0.9c-0.2,0-1.3-0.7-2.4-1.1C55.4,10.7,54.5,10.3,54.4,10.3z"/>
					<path class="st11" d="M35.4,12.1c-0.3,0-0.6,0.1-1,0.2c0.2-0.2,0.6-0.2,0.1-0.9c0.3,0.1,0.4,0,0.5-0.1
						C35.2,11.6,35.3,11.9,35.4,12.1z"/>
					<path class="st11" d="M32.2,8l0.3-0.3c0.5,0.6,0.8,1.3,0.3,1.2C33.3,9.4,33,8.7,33.3,9c0.6,0.7,0.6,0.8,0.4,0.8
						c-1.1-1.1-2.1-2.5-1.9-2.6L31.9,7C32,7.4,32,7.7,32.2,8z"/>
					<path class="st12" d="M36.4,7c0.4,0.2,0.8,0.9,1.3,1.5c0,1.4,0.3,2.9,0.7,4.5c-0.6-0.6-1.3-0.9-2.1-1c-0.1-0.2-0.1-0.5-0.2-0.8
						c-0.1,0.1-0.2,0.1-0.5,0c-0.1-0.1-0.2-0.3-0.3-0.5l0,0c0.2,0,0.2-0.1-0.4-0.8c-0.2-0.3,0.1,0.4-0.4-0.2
						c0.4,0.2,0.1-0.5-0.3-1.1l-0.3,0.2c-0.2-0.4-0.1-0.6-0.2-1c0.9-0.7,1.8-1.2,2.7-1.6C36.4,6.4,36.4,6.7,36.4,7z"/>
				</g>
			</g>
		</g>
		<g>
			<g>
				<g>
					<g>
						<path class="st19" d="M42.3,40.1c-4.6-5.9-7.2-11.8-7.9-19.3c-0.3-2.9-1-6.7-0.6-9.7c0.7-5.9,15.9-8.4,14.5-0.5
							c0,0.2,0.1,0.3,0.3,0.4c2.1,0.6,4.9,1.1,6.8-0.5c3.1-2.7-1.7-4.7,5.8-5.5c1.5-0.2,4.3,0.3,5.4,1.3c1.8,0.5,2.2,1.9,0.9,4.3
							c-0.2,0.3-0.3,0.6-0.2,1c0,0.2,0,0.3,0.3,0.4c1.8,0.7,3.8,0.5,5.5-0.3c2.3-1.1,2.1-2.4,5.1-1.6c5.7,1.6,3.6,5.8,1.9,9.5
							c-2.3,4.9-5.7,9-8.4,13.6c-1.4,2.3-3.1,5.4-1.4,8c1.7,2.5,5.7,3,8.4,3.7c5.2,1.3,9.6,4.2,14.1,7.1c9.5,6,15.2,16.5,18.2,27.1
							c2.9,10.2,2.9,21.7-3.4,30.7c-7.6,10.9-21.3,14.2-33.5,16.6c-22.6,4.3-54.9,3.1-63-23.7c-3.7-12.3-0.8-26.3,3.6-38
							c2.4-6.4,5.9-12.4,11.7-16.3c5.3-3.6,11.5-5.6,16.7-9.4c1.2-0.9-1.6-0.7-2.2-0.2c-6.5,4.7-14.7,6.8-20.6,12.5
							c-5.7,5.4-8.5,13.1-10.6,20.5c-4.2,15-5.5,32.5,6,44.7c11,11.7,27.9,14.5,43.2,13.3c14.7-1.2,32.7-3.9,44.7-13.2
							c11.9-9.2,14-24.3,10.1-38.1c-4.3-15.1-14-27.2-28.6-33.4c-5.4-2.3-16-2-11.5-10.7c1.6-3,3.9-5.7,5.7-8.7
							c2-3.3,5.7-8.2,5.7-12.3c0.1-4-7.6-6.5-11.1-5.1c-0.8,0.3-2.4,2.2-3.1,1.6c0.3,0.3,0.4-2.5,0.3-2.7c-0.5-1.1-1.6-1.7-2.7-2.1
							C65.2,3.6,56.8,2,54.2,5.6c-0.8,1.1-0.9,4.2-2.9,3.2c-0.4-0.2-1.2-2.8-2-3.4c-2.4-1.9-6-1.2-8.7-0.6c-2.7,0.6-5.9,1.3-8.2,3
							c-2.7,2-1.4,5.1-1.3,8.1c0.6,9.8,2.3,17.4,8.4,25.2C40.1,41.8,42.8,40.8,42.3,40.1L42.3,40.1z"/>
					</g>
				</g>
			</g>
			<g>
				<g>
					<g>
						<path class="st19" d="M37.7,40.8c11.3,1.5,22.5,1,33.6-1.6c0.3-0.1,2-0.8,1-1.2c-6.8-2.7-15.7-0.6-22.8-0.2
							c-5.7,0.4-11.4,0.3-16.3,3.6c-0.2,0.1-0.4,0.4-0.2,0.7c1.8,1.8,3.9,1.9,6.4,1.9c4.4,0,8.9-0.4,13.3-0.6
							c6.8-0.3,13.7-0.1,19.7-3.7c1.8-1.1,5.7-5.4,7.8-5.5c5.4-0.3-3.2,3-4.1,3.4c-0.8,0.3-3.7,1-4.7,1.6c-1.8,1.1-2.3,1.5-2.4,3.9
							c-0.3,5.4,0,10.6-1,16c1-0.2,1.9-0.4,2.9-0.6c-0.9-5.9-0.9-11.7-0.1-17.6c0.1-0.9-2.7-0.4-2.9,0.4c-0.8,6-0.8,11.9,0.1,18
							c0.1,0.8,2.7,0.1,2.9-0.6c0.5-3,0.9-6.1,1.1-9.1c0.1-1.6-0.3-3.8,0-5.4c0.8-4.7,2.4-4.6,5.2-5.6c3-1.1,9.2-2.7,9.7-6.5
							c0.1-0.4-0.5-0.5-0.8-0.5c-3.6,0.1-6.6,1.3-9.5,3.3c-2.3,1.6-4.5,3.7-7,5c-4.7,2.4-10.5,2-15.6,2.2c-3.5,0.2-7,0.3-10.5,0.5
							c-0.9,0-4.3,0.7-5.1,0.1c-2.3-1.8,6.5-3,7.3-3.1c3.7-0.2,7.3-0.5,11-0.7c4.4-0.3,9.1-1.1,13.4,0.6c0.3-0.4,0.7-0.8,1-1.2
							c-10.4,2.4-20.9,2.8-31.4,1.4C38.7,39.4,36.2,40.6,37.7,40.8L37.7,40.8z"/>
					</g>
				</g>
			</g>
			<g>
				<g>
					<g>
						<path class="st19" d="M60.8,73.5c-4-2.1-8.6-2.2-12.8-0.5c-3.9,1.6-9.6,7.2-3.8,10.2c6.3,3.2,19.7-0.1,23,7.6
							c5.5,13-16.7,14.8-24.8,15.6c-0.7,0.1-3.1,1.3-1.3,1.1c7-0.7,14.1-2,20.8-4.3c4.6-1.5,8.6-3.8,8.7-9.2c0.2-6.9-5-8.4-10.8-9.3
							c-4-0.7-10.1-0.4-13.6-2.6c-2-1.3-2.2-2.8-1.2-4.9c2.3-4.8,8.8-4.8,12.9-2.7C58.8,74.9,61.1,73.7,60.8,73.5L60.8,73.5z"/>
					</g>
				</g>
			</g>
			<g>
				<g>
					<g>
						<path class="st19" d="M52.1,58.5c-0.3,19.9-1.5,39.7-3.8,59.4c-0.1,0.9,2.8,0.4,2.9-0.4c2.3-19.8,3.5-39.8,3.8-59.7
							C55,57.1,52.1,57.6,52.1,58.5L52.1,58.5z"/>
					</g>
				</g>
			</g>
		</g>
	</g>
</g>
</svg>
