<?xml version="1.0" encoding="utf-8"?>
<!-- Generator: Adobe Illustrator 22.0.0, SVG Export Plug-In . SVG Version: 6.00 Build 0)  -->
<svg version="1.1" xmlns="http://www.w3.org/2000/svg" xmlns:xlink="http://www.w3.org/1999/xlink" x="0px" y="0px"
	 viewBox="0 0 237.7 138.9" style="enable-background:new 0 0 237.7 138.9;" xml:space="preserve">
<style type="text/css">
	.st0{fill:#FFFEFD;}
	.st1{opacity:0.9;}
	.st2{fill:#CBE5CF;}
	.st3{fill:#DCEDDF;}
	.st4{fill:#E3F1E5;}
	.st5{fill:#E0EFE2;}
	.st6{fill:#D1E8D4;}
	.st7{fill:#D4E9D7;}
	.st8{fill:#BEDEC2;}
	.st9{fill:#C3E1C7;}
	.st10{fill:#C7E2CB;}
	.st11{fill:#EEF6EF;}
	.st12{fill:#EBF5EC;}
	.st13{fill:#FEF9DA;}
	.st14{fill:#FFFDF1;}
	.st15{fill:#FDF5C7;}
	.st16{fill:#FDF2B4;}
	.st17{fill:#FCEFA5;}
	.st18{fill:#FCED95;}
	.st19{fill:#272525;}
	.st20{opacity:0.85;}
	.st21{fill:#D3E6F6;}
	.st22{fill:#C4DEF3;}
	.st23{fill:#ACD0EE;}
	.st24{fill:#E2EFF9;}
	.st25{fill:#B8D7F0;}
	.st26{fill:#9FC9EB;}
	.st27{fill:#EADAEE;}
	.st28{fill:#F7F1F8;}
	.st29{fill:#DFC7E5;}
	.st30{fill:#D5B5DC;}
	.st31{fill:#CDA6D5;}
	.st32{fill:#C497CE;}
	.st33{fill:#D8BBDF;}
	.st34{fill:#E5D1E9;}
	.st35{fill:#E8D6EB;}
	.st36{fill:#DDC3E2;}
	.st37{fill:#DFC6E4;}
	.st38{fill:#CEA9D6;}
	.st39{fill:#D2B0DA;}
	.st40{fill:#F2E9F4;}
	.st41{fill:#F0E4F2;}
	.st42{opacity:0.8;}
	.st43{opacity:0.8;fill:#DC7D5B;}
	.st44{opacity:0.8;fill:#E9AE99;}
	.st45{opacity:0.8;fill:#F0C7B8;}
	.st46{opacity:0.8;fill:#F7E1DA;}
	.st47{fill:#F7E0D8;}
	.st48{fill:#FCF3F0;}
	.st49{fill:#F2D0C4;}
	.st50{fill:#EEC0B0;}
	.st51{fill:#EBB4A0;}
	.st52{fill:#E7A790;}
	.st53{fill:#F0C6B6;}
	.st54{fill:#F5D8CE;}
	.st55{fill:#F6DCD3;}
	.st56{fill:#F1CCBF;}
	.st57{fill:#F2CFC2;}
	.st58{fill:#ECB6A3;}
	.st59{fill:#EDBDAB;}
	.st60{fill:#FAECE7;}
	.st61{fill:#F9E8E2;}
	.st62{fill:#B7E9E6;}
	.st63{fill:#CFF0EE;}
	.st64{fill:#D9F3F2;}
	.st65{fill:#D4F2F0;}
	.st66{fill:#BFECE9;}
	.st67{fill:#C3EDEA;}
	.st68{fill:#A5E4E0;}
	.st69{fill:#ACE6E3;}
	.st70{fill:#B1E7E4;}
	.st71{fill:#E8F8F7;}
	.st72{fill:#E3F6F5;}
	.st73{fill:#FDF3BA;}
	.st74{fill:#FEF7D0;}
	.st75{fill:#FEF8D5;}
	.st76{fill:#FDF4C2;}
	.st77{fill:#FDF5C5;}
	.st78{fill:#FCF0A8;}
	.st79{fill:#FDF1AF;}
	.st80{fill:#FEFBE8;}
	.st81{fill:#FEFAE4;}
	.st82{fill:#C9E1F4;}
	.st83{fill:#DBEAF7;}
	.st84{fill:#DEEDF8;}
	.st85{fill:#CFE4F5;}
	.st86{fill:#D2E5F6;}
	.st87{fill:#BBD8F1;}
	.st88{fill:#C1DCF2;}
	.st89{fill:#EDF5FB;}
	.st90{fill:#EAF3FB;}
	.st91{fill:#C5EDEB;}
	.st92{fill:#91DED9;}
	.st93{fill:#A1E3DF;}
	.st94{fill:#80D8D3;}
</style>
<g id="background">
	<rect x="-921.3" y="-421.7" class="st0" width="1200" height="800"/>
</g>
<g id="colour">
</g>
<g id="object">
	<g>
		<g>
			<g class="st1">
				<g class="st1">
					<path class="st73" d="M4.8,76.3l-0.1-0.5c0-0.2,0-0.5,0-0.7c0-0.5,0-1,0-1.5c0.3,0.3,0.6,0.5,0.8,0.8C6.3,75.2,5,75.9,4.8,76.3
						z"/>
					<path class="st73" d="M4.9,78.3C4.9,78.3,4.8,78.3,4.9,78.3c0-0.5,0-1.1,0-1.6c0,0,0,0.1,0.1,0.1C5.5,77.3,5.8,77.8,4.9,78.3z"
						/>
					<path class="st74" d="M15,88c-3.7-0.9-6.8-1.9-9.9-2.8C5,85,4.5,84.8,4.5,84.7c-0.1,0-0.4-1-0.3-1.5c1.5,0.4,3.3,0.8,5.4,1.2
						c0.4-0.2,0.8-0.5,1.5-0.4c2.7,0.4,4.4,0.9,5.9,1.5C16.9,85.6,14.7,87,15,88z"/>
					<path class="st13" d="M14.4,90c-0.3,0.6-1.6,1.2-2,1.5c-1.6-0.3-3.1-0.7-4.4-1c-0.7,0.1-1.5,0.2-1.8,0.3
						c-0.3-0.1-0.5-0.1-0.8-0.2c-0.1-1-0.4-2-0.7-3C5.6,87.8,11.5,89.5,14.4,90z"/>
					<path class="st75" d="M14.3,88.3c0.2,0.2,0.4,0.5,0.6,0.7c-0.1,0.4-0.2,0.7-0.5,1.1c-2.9-0.5-5.4-1.1-7.3-1.8c0,0.1-1,0-1,0.1
						c-0.6-0.4-0.4-0.6-1.4-0.7c-0.2-0.9-0.5-1.8-0.5-2.7c0.7,0.3,0.3,0.4,0.3,0.6c0.9,0,0.9-0.1,0.7-0.3c3.1,0.9,6.2,1.9,9.9,2.8
						l0,0.2C14.6,88.1,14.1,88.2,14.3,88.3z"/>
					<path class="st76" d="M8.8,78c1.7,0.7,4,1.3,6.6,1.9c-0.3,0.1-0.9,0.4-0.3,0.7C15,81,14.3,81.8,15.2,82c0.9,0.2-3.8-1.3-6-1.9
						c-1.4-0.2-2.5-0.5-3.5-0.9c0.1-0.1,1,0.1,1.1,0c-0.1,0-1.1-0.3-1.1-0.3s0.1-0.6,0.1-0.9c1.4,0,0.3-0.5,0.1-0.5l0-0.3l0,0
						c0.4,0.2,0.9,0.3,1.3,0.5C7.7,77.9,8.8,78,8.8,78z"/>
					<path class="st77" d="M11.1,84c2.7,0.4,4.4,0.9,5.9,1.5c0.2-0.1,0.6-0.5,0.6-0.6c-0.6,0-1.3,0-1.5-0.1
						c-0.3-0.3-0.7-0.6-0.6-0.8c0.2-0.2,1.1-0.4,1.5-0.6c-0.2-0.2-0.4-0.5-0.7-0.7c0,0-0.3-0.1-0.6-0.1c-0.3-0.1-0.7-0.1-0.9-0.1
						c0-0.1,0.2-0.3,0.4-0.4c-0.2,0-3.5-1.5-6-1.9c-1.4-0.2-2.5-0.5-3.5-0.9c0,0-0.1,0.2-0.1,0.4c-0.1,0.2-0.2,0.5-0.2,0.6
						c0.3,0,0.9-0.1,1-0.1c0,0-0.9,0.3-1.1,0.4c-0.1,0.2-0.2,0.7-0.1,0.8c0,0.1,0.7,0,1.4,0.1c-1,0.2-1.7,0.4-2.1,0.7l-0.1,0.2
						c-0.3,0-0.5,0-0.5,0c-0.1-0.1-0.1-0.1-0.2-0.2c-0.1,0.1-0.4,0.7-0.5,0.9c0.2-0.1,0.6-0.3,1-0.4c-0.1,0.2-0.1,0.3-0.1,0.5
						c0,0,0,0,0,0c1.5,0.4,3.3,0.8,5.4,1.2C10,84.3,10.4,83.9,11.1,84z"/>
					<path class="st78" d="M12.8,63.1c0.7,0.5,1.4,0.6,2,0.9c0.6,0.3,1.2,0.7,1.4,1.6c0.4,1.6,0.2,3.4,0,5.2
						c-0.1,0.5-0.1,1.1-0.2,1.6l0,0.1c0.2-0.8-0.1-0.9,0.2-0.4c0,0,0.2,0.3,0.3,0.5c0.1,0.1,0.3,0.4,0.5,0.6l0.3,0.3c0,0,0,0,0,0
						l0,0l0,0c-0.1,0-0.1,0-0.2,0c-0.6-0.5-0.7-0.7-0.9-0.9c-0.2-0.3-0.5-0.6-1.3-1.6c-0.2-0.3-0.6-0.5-0.8-0.7
						c-0.6-1-0.1-1.7-1-3.3c-0.6-1-1.4-1.8-2.3-2.9c0.1-0.1,0.2-0.1,0.3-0.2C11.7,64,12.1,63.4,12.8,63.1z"/>
					<path class="st79" d="M6.6,66.5c0.1-0.3,0.3-0.7,0.5-1c0.2-0.4,0.4-0.7,0.7-1c0.3,0.2,0.5,0.4,0.8,0.6
						c-0.7,0.7-1.1,1.5-1.3,2.2C7.1,67.1,6.9,66.8,6.6,66.5z"/>
					<path class="st79" d="M14.1,70.3c0.3,0.2,0.6,0.4,0.8,0.7c0.8,1,1.1,1.3,1.3,1.6c0.2,0.3,0.3,0.4,0.9,0.9
						c-0.2,0-0.4,0.3-0.6,0.5c-0.2-0.2-0.5-0.3-0.7-0.5c-0.1,0.2-2.4-0.7-2.5-0.5c-1.1-0.9-1.6-1.7-2.2-2.7c-0.6-1-1.2-2.2-2.3-4.1
						c0.4-0.8,1-1.5,1.9-2.2c0.9,1.1,1.7,2,2.3,2.9C14,68.5,13.5,69.2,14.1,70.3z"/>
					<path class="st16" d="M13.3,73c0.1-0.3,2.5,0.6,2.5,0.5c0.2,0.2,0.5,0.3,0.7,0.5c-0.2,0.3-0.3,0.7-0.4,1.2
						c-0.1,0-0.1,0-0.1,0.1c-0.4,0.3-0.3,0.6-0.6,0.9c-1.4-0.4-2.8-1-4-1.5c2.1-0.2,3.8-0.3,4.9-0.3c-0.4,0-2.1-0.6-2.5-0.6
						c-2-0.3-6.1-0.8-7.7-1.6c0.1-1.4,0.3-2.9,1-4.6c0.5,0.1,1.2,0.4,1.2,0.3c0.1-0.5,0.3-1,0.5-1.6c1.1,1.9,1.7,3.1,2.3,4.1
						C11.7,71.3,12.2,72.2,13.3,73z"/>
					<path class="st73" d="M11.4,74.6c1.3,0.6,2.7,1.1,4,1.5c-0.1,0.1-0.2,0.2-0.4,0.2c0.3,0,0.6,0.1,0.9,0.1l0,0.2
						c-0.2,0-1.3,0,0,0.3l0,0.4c-0.4,0.1-1,0.1-1.8,0.1l1.1,0.1c0.7,0.2,0,0.3,0,0.4c0.2,0,0.5,0.1,0.7,0.1
						c-0.9,0.5-0.1,1.4-0.1,1.6c-0.2,0.1-0.4,0.1-0.5,0.2c-2.6-0.5-5-1.1-6.6-1.9c0,0-1.1-0.1-1.4-0.2c-0.4-0.2-0.9-0.3-1.3-0.5
						c1.8-0.5,0-1.5,0-1.7l0-0.4c0.1-0.4,0.7-0.8,0.9-1.2c0.3-0.4,0.2-0.9-0.9-1.7l0-0.3c1.6,0.8,5.7,1.3,7.7,1.6
						c0.4,0,2.4,0.4,2.5,0.6c-0.2,0.2-1.5,0.1-2.7,0.2C12.4,74.5,11.3,74.6,11.4,74.6z"/>
					<path class="st80" d="M9.7,93.7L9,94.3c0-0.2,0.4-0.4-0.4-0.6c0.3-0.1,0.3-0.2,0.3-0.3C9.3,93.4,9.5,93.6,9.7,93.7z"/>
					<path class="st80" d="M4.6,92.8l0-0.2c0.7,0.1,1.4,0.3,1.1,0.4c0.7,0.1,0-0.1,0.4-0.1c1,0.1,1,0.2,0.9,0.2
						c-1.6-0.2-3.2-0.4-3.2-0.5l0-0.1C4.1,92.6,4.3,92.7,4.6,92.8z"/>
					<path class="st81" d="M6.1,90.8c0.4-0.2,1.1-0.2,1.8-0.3c1.3,0.4,2.8,0.7,4.4,1c-0.8,0.5-1.4,1-2,1.5c-0.2-0.1-0.4-0.2-0.8-0.4
						c0,0.1,0,0.2-0.3,0.3c-0.2,0-0.4-0.1-0.6-0.1l0,0c0.1-0.1,0.1-0.2-0.9-0.2c-0.4,0,0.3,0.2-0.4,0.1c0.4-0.1-0.3-0.3-1.1-0.4
						l0,0.2c-0.4-0.1-0.6-0.2-0.9-0.3c0-0.6,0-1.1-0.1-1.7C5.6,90.6,5.8,90.7,6.1,90.8z"/>
				</g>
			</g>
		</g>
		<g>
			<g class="st1">
				<g class="st1">
					<path class="st73" d="M16.4,94.2c-0.2,1.3-0.4,2.5-0.5,3.8c-0.2-0.4-0.5-0.7-0.7-1C14.5,95.9,15.9,95.2,16.4,94.2z"/>
					<path class="st73" d="M17.1,90.8L17.1,90.8c-0.2,1-0.5,1.9-0.7,2.9c0-0.1,0-0.1,0-0.2C16.1,92.4,16,91.4,17.1,90.8z"/>
					<path class="st74" d="M12.1,71.6c3.1,2.4,5.5,4.7,8.1,6.9c0.1,0.3,0.4,0.8,0.4,1c0.1,0-0.2,1.8-0.5,2.6c-1.3-1-2.8-2.1-4.7-3.1
						c-0.5,0.2-1,0.8-1.7,0.5c-2.5-1.1-3.8-2.4-5.1-3.7C8.8,75.7,11.9,73.4,12.1,71.6z"/>
					<path class="st13" d="M14.2,68c0.6-0.9,2.4-1.8,3-2.2c1.3,1,2.6,2,3.6,2.9c0.8,0,1.6,0,2-0.1c0.2,0.2,0.4,0.4,0.6,0.6
						c-0.5,1.7-0.9,3.5-1.2,5.2C21.3,74,16.6,69.7,14.2,68z"/>
					<path class="st75" d="M13.1,71.2c0-0.5-0.1-0.9-0.1-1.3c0.3-0.6,0.7-1.3,1.2-1.8c2.4,1.6,4.6,3.3,6,4.8c0-0.1,1,0.2,1.1,0.1
						c0.4,0.8,0.1,1.1,0.9,1.6c-0.3,1.6-0.6,3.2-1.1,4.8c-0.5-0.6-0.1-0.8,0-1.1c-0.9-0.2-1,0.1-0.9,0.4c-2.6-2.2-5-4.5-8.1-6.9
						l0.2-0.3C12.7,71.4,13.2,71.5,13.1,71.2z"/>
					<path class="st76" d="M13.1,90.8c-1.4-1.5-3.4-2.9-5.8-4.2c0.3-0.2,1.1-0.6,0.6-1.2c0.3-0.8,1.4-2.2,0.6-2.7
						c-0.8-0.5,3.2,2.9,5,4.3c1.3,0.5,2.3,1.2,3.1,2c-0.1,0.1-0.9-0.3-1.1-0.2c0.1,0,1,0.6,1,0.6s-0.4,1-0.5,1.6
						c-1.4-0.1-0.6,0.8-0.3,0.9l-0.1,0.5l0,0c-0.4-0.3-0.8-0.7-1.1-1C14.1,91.1,13.1,90.8,13.1,90.8z"/>
					<path class="st77" d="M13.7,79.6c-2.5-1.1-3.8-2.4-5.1-3.7c-0.3,0.2-0.9,0.9-0.9,0.9C8.3,76.9,9,77,9.2,77.3
						c0.2,0.6,0.3,1.3,0.2,1.7C9,79.3,8,79.5,7.5,79.9c0.1,0.5,0.2,1,0.3,1.4c0,0,0.9,0.6,1.3,0.7c-0.1,0.3-0.3,0.5-0.6,0.6
						c0.2,0.1,2.7,3.3,5,4.3c1.3,0.5,2.3,1.2,3.1,2c0,0,0.6-1.2,0.8-1.8c-0.3-0.1-0.9,0-1,0c0-0.1,1-0.4,1.3-0.6
						c0.2-0.4,0.6-1.3,0.5-1.4c0-0.1-0.7-0.1-1.4-0.3c1.1-0.2,1.9-0.4,2.4-0.8l0.2-0.4c0.3,0,0.5,0.1,0.4,0.1c0,0.1,0.1,0.2,0.1,0.3
						c0.1-0.2,0.8-1.2,0.9-1.5c-0.3,0.2-0.7,0.4-1.2,0.5c0.1-0.3,0.3-0.6,0.4-0.8l0,0c-1.3-1-2.8-2.1-4.7-3.1
						C15,79.3,14.4,79.8,13.7,79.6z"/>
					<path class="st78" d="M12.6,110.3c-0.3-0.1-0.6-0.3-0.9-0.6c-0.3-0.3-0.6-0.8-1.1-1.1c-0.1,0-0.1-0.1-0.2-0.1
						c-0.1-0.1-0.2-0.2-0.3-0.2c-0.2-0.2-0.4-0.3-0.6-0.4c-0.4-0.2-0.8-0.2-1.1-0.2c-0.6,0.1-1,0.4-1.2,0.9
						c-0.3,0.9-0.1,1.8,0.5,2.4c0.6,0.6,1.5,1,2.4,1.3c0.9,0.3,1.8,0.5,2.8,0.5c1,0,2.1-0.2,3.1-1.5c-0.1,0.6-0.2,1.2-0.4,1.9
						c-0.2,0.6-0.5,1.3-0.9,1.8c-0.4,0.6-0.8,1.1-1.2,1.5c-0.2,0.2-0.5,0.4-0.7,0.6c-0.2,0.2-0.4,0.3-0.7,0.5
						c-1.8,1.1-3.3,1.2-4.6,1.2c-1.3-0.1-2.5-0.4-3.8-1.1c-0.3-0.2-0.6-0.4-1-0.6c-0.3-0.3-0.6-0.5-0.9-0.8
						c-0.1-0.2-0.3-0.3-0.4-0.5c-0.1-0.2-0.3-0.4-0.3-0.5c-0.1-0.2-0.3-0.5-0.4-0.7c-0.5-1-0.7-1.9-0.8-2.7c-0.1-0.8,0-1.4,0.1-1.9
						c0.2-1,0.4-1.6,0.6-1.9c0.7-1.4,1.2-2.8,1.7-4.1c1.4,1,0.3,2.1,2.8,3.1c0.4,0.1,0.8-0.1,1.1-0.2c0.9,0.9,1.1,2.2,2.8,2.5
						c1.1,0.2,2.3,0.2,3.7,0.3l0,0.3c-0.3,0.1-0.4,0.3-0.3,0.4C12.5,110.4,12.6,110.4,12.6,110.3z"/>
					<path class="st79" d="M14.8,106.2l-0.1,1.9c-0.3-0.1-0.7-0.1-1-0.1c0.1-0.7,0.1-1.5,0.1-2.3C14.1,105.9,14.4,106.1,14.8,106.2z
						"/>
					<path class="st79" d="M6.3,106.8c-0.4,0.1-0.8,0.2-1.1,0.2c-2.5-1.1-1.4-2.1-2.8-3.1c0.4-1.1,0.7-2.2,1-3.2
						c0.2,0.2,0.5,0.5,0.7,0.8c0.1-0.6,2.6-0.2,2.8-0.8c2.2,2.3,2.2,4.7,6.1,6.8c0.1,0.8,0,1.5-0.1,2.3c-1.4-0.2-2.6-0.2-3.7-0.3
						C7.3,108.9,7.2,107.7,6.3,106.8z"/>
					<path class="st16" d="M6.8,100.5c-0.1,0.6-2.6,0.2-2.8,0.8c-0.2-0.3-0.5-0.5-0.7-0.8C3.7,99.3,4,98,4.3,96.8
						c0.1-0.1,0.1-0.1,0.2-0.2C4.9,95.7,5,94.8,5.5,94c1.2,1,2.5,1.9,3.7,2.8c-2.2,0.6-4.1,1.5-5.4,2.6c0.5-0.4,2.2,0.1,2.6,0
						c2.1-0.4,6.3-0.2,7.9,0.6c-0.2,1.8-0.2,3.7-0.3,5.5c-0.5,0-1.2,0.1-1.3,0.2c0.1,0.5,0.2,1.1,0.2,1.6
						C9.1,105.3,9,102.8,6.8,100.5z"/>
					<path class="st73" d="M9.2,96.8C8,95.9,6.7,94.9,5.5,94c0.1-0.2,0.3-0.4,0.5-0.6c-0.3-0.1-0.6-0.2-0.9-0.2l0.1-0.5
						c0.2-0.2,1.4-0.1,0.2-0.7l0.2-0.7c0.5-0.1,1.1-0.2,1.8-0.1l-1-0.3c-0.6-0.4,0.1-0.5,0.2-0.7C6.3,90.1,6,90,5.8,89.9
						c1.2-0.9,0.7-2.7,0.8-3c0.2-0.1,0.4-0.2,0.6-0.3c2.4,1.3,4.5,2.7,5.8,4.2c0,0,1,0.3,1.3,0.5c0.4,0.3,0.7,0.7,1.1,1
						c-2,0.8-0.6,2.9-0.6,2.9l-0.1,0.5c-0.4,1-2.6,2.1-0.5,3.8l0,0.4c-1.6-0.8-5.8-1.1-7.9-0.6c-0.4,0.2-2.6,0.5-2.6,0
						C4.4,98,9.3,96.8,9.2,96.8z"/>
					<path class="st80" d="M21.4,62.7c0.4-0.3,0.7-0.6,1.1-0.8c-0.2,0.4-0.7,0.7-0.1,1.2c-0.3,0.1-0.4,0.3-0.5,0.5
						C21.6,63.2,21.5,62.9,21.4,62.7z"/>
					<path class="st80" d="M25.6,65.6l-0.2,0.3c-0.6-0.3-1.2-0.8-0.8-0.9c-0.6-0.3-0.1,0.2-0.4,0.1c-0.9-0.4-0.8-0.6-0.7-0.6
						c1.5,0.7,2.8,1.6,2.7,1.7l-0.1,0.2C26,66.1,26,65.8,25.6,65.6z"/>
					<path class="st81" d="M22.8,68.7c-0.5,0.2-1.2,0.1-2,0.1c-1-0.9-2.3-1.9-3.6-2.9c1.1-0.7,2.1-1.4,3.1-2.2
						c0.1,0.3,0.3,0.6,0.5,0.9c0.1-0.2,0.2-0.4,0.5-0.5c0.1,0.1,0.3,0.2,0.5,0.4l0,0c-0.2,0.1-0.2,0.2,0.7,0.6
						c0.3,0.2-0.2-0.4,0.4-0.1c-0.4,0.1,0.1,0.6,0.8,0.9l0.2-0.3c0.3,0.2,0.4,0.5,0.6,0.8c-0.4,0.9-0.8,1.9-1.1,2.9
						C23.2,69,23,68.9,22.8,68.7z"/>
				</g>
			</g>
		</g>
		<g>
			<g class="st1">
				<g class="st1">
					<path class="st73" d="M27.8,49.2c0.1,0.3,0.3,0.6,0.5,0.6c-0.3,0-0.7,0-1,0C26.4,49.7,27.6,49.4,27.8,49.2z"/>
					<path class="st73" d="M27.7,48.1C27.7,48.1,27.7,48.2,27.7,48.1c0,0.3,0,0.7,0,0.9c0,0,0,0-0.1-0.1
						C27.1,48.7,26.8,48.3,27.7,48.1z"/>
					<path class="st74" d="M19.6,37.8c3.1,2.2,5.8,4,8.5,5.6c0.1,0.2,0.6,0.5,0.5,0.6c0.1,0,0.2,0.8,0.1,1c-1.4-0.7-3-1.5-4.9-2.4
						c-0.4,0-0.8,0.2-1.5,0c-2.5-1-4-2-5.3-2.9C17.1,39.5,19.6,38.8,19.6,37.8z"/>
					<path class="st13" d="M21.1,36.2c0.5-0.4,1.9-0.4,2.4-0.4c1.3,1,2.5,2,3.5,2.9c0.7,0.3,1.4,0.6,1.7,0.6
						c0.2,0.2,0.4,0.3,0.6,0.5c-0.2,0.7-0.2,1.5-0.2,2.2c-0.4-0.2-1.9-1.2-3.5-2.4C24,38.4,22.2,37,21.1,36.2z"/>
					<path class="st75" d="M20.5,37.8c-0.1-0.3-0.2-0.6-0.3-0.8c0.2-0.3,0.5-0.6,0.9-0.8c2.4,1.7,4.5,3.2,6,4.4c0,0,0.9,0.4,1,0.4
						c0.5,0.5,0.2,0.6,1.1,1c0,0.7,0,1.3-0.1,1.9c-0.6-0.4-0.2-0.4-0.2-0.5c-0.8-0.3-0.9-0.2-0.7,0c-2.8-1.6-5.4-3.5-8.5-5.6
						l0.1-0.2C20.2,37.8,20.6,38,20.5,37.8z"/>
					<path class="st76" d="M23.8,47.9c-1.6-0.7-3.9-1.5-6.5-2.3c0.3-0.1,0.9-0.3,0.3-0.6c0.1-0.4,1-1,0.1-1.4
						c-0.4-0.2,0.5,0.3,1.7,0.9c1.2,0.6,2.9,1.3,3.9,1.8c1.4,0.4,2.4,0.8,3.4,1.2c-0.1,0-0.9-0.2-1.1-0.2c0.1,0,1.1,0.3,1.1,0.3
						s-0.1,0.4-0.2,0.6c-1.4-0.1-0.4,0.3-0.1,0.3l0,0.2c0,0,0,0,0,0c-0.4-0.1-0.9-0.3-1.3-0.4C24.9,48.1,23.8,47.9,23.8,47.9z"/>
					<path class="st77" d="M22.3,42.6c-2.5-1-4-2-5.3-2.9c-0.2,0.1-0.7,0.4-0.8,0.4c0.6,0.2,1.2,0.3,1.5,0.5c0.2,0.4,0.5,0.8,0.4,1
						c-0.3,0.2-1.1,0.2-1.6,0.3c0.1,0.3,0.3,0.6,0.5,0.9c0,0,0.2,0.1,0.5,0.2c0.3,0.1,0.6,0.2,0.8,0.3c0,0.1-0.2,0.2-0.5,0.3
						c0.2,0.1,3.2,2,5.6,2.7c1.4,0.4,2.4,0.8,3.4,1.2c0,0,0.3-0.5,0.4-0.7c-0.3-0.1-0.8-0.1-0.9-0.1c0,0,0.9-0.1,1.1-0.1
						c0.1-0.1,0.3-0.5,0.2-0.5c0,0-0.7-0.2-1.4-0.4c1,0.1,1.7,0.1,2.1,0l0.1-0.1c0.3,0.1,0.5,0.1,0.4,0.1c0.1,0.1,0.1,0.1,0.1,0.1
						c0.1-0.1,0.4-0.4,0.5-0.4c-0.2,0-0.6,0-1,0c0.1-0.1,0.1-0.2,0.2-0.3l0,0c-1.4-0.7-3-1.5-4.9-2.4C23.4,42.7,23,42.8,22.3,42.6z"
						/>
					<path class="st78" d="M26.4,49c-0.3,0.7-0.4,1-0.6,1.3c-0.1,0.4-0.2,0.8-0.1,1.7c0.2,1.6,0.6,3.3,1.1,5.1
						c0.4,1.8,0.8,3.6,1.6,5.4c-2.4-0.1-4.4-1-5.8-2c-1.4-1-2.4-2-3.2-3.1c0.8-0.3,1.2-0.2,1.7-0.2c0.5,0,1.1-0.2,1.9-1.2
						c0.2-0.3,0.3-0.7,0.4-1c0.9-0.7,1.5-0.9,2.1-2.5c0.4-1,0.8-2.1,1.4-3.4c0,0,0,0-0.1,0C26.5,49.5,26.6,49.1,26.4,49z"/>
					<path class="st79" d="M28.3,48.6c-0.1-0.2-0.1-0.4-0.3-0.6c-0.2,0.3-0.4,0.5-0.6,0.8c0.1,0.1,0.2,0.3,0.1,0.6
						C27.9,49.2,28.1,48.9,28.3,48.6z"/>
					<path class="st79" d="M23.3,55.1c-0.1,0.3-0.2,0.7-0.4,1c-0.8,1-1.4,1.2-1.9,1.2c-0.5,0-0.9-0.1-1.7,0.2
						c-0.6-0.8-1.1-1.7-1.5-2.6c0.3,0,0.7,0,1,0c-0.3-0.5,2-1.7,1.8-2c1.4,0,2.3-0.1,3.3-0.5c0.9-0.4,1.9-1.1,3.1-2.8
						c0-0.2,0-0.4-0.2-0.5c-0.6,1.3-1,2.4-1.4,3.4C24.8,54.2,24.3,54.4,23.3,55.1z"/>
					<path class="st16" d="M20.7,52.9c0.1,0.3-2.1,1.5-1.8,2c-0.3,0-0.7,0-1,0c-0.5-1.1-0.7-2-0.9-2.9c0-0.1,0.1-0.1,0.1-0.2
						c0.2-0.7,0-1.3,0.2-1.9c1.4,0.4,2.9,0.6,4.3,0.8c-1.9,0.7-3.4,1.9-4,3.3c0.2-0.5,1.9-1,2.2-1.2c0.9-0.6,2.3-1.2,3.7-1.6
						c1.4-0.4,2.9-0.7,3.7-0.9c0.1,0,0.3,0,0.4-0.2c0.1-0.2,0.1-0.4,0.1-0.6c-0.4,0.3-0.9,0.8-0.9,0.8c0.1-0.2,0.2-0.3,0.2-0.5
						c-1.2,1.7-2.2,2.5-3.1,2.8C23,52.9,22.1,52.9,20.7,52.9z"/>
					<path class="st73" d="M21.5,50.6c-1.4-0.1-2.9-0.4-4.3-0.8c0.1-0.1,0.2-0.3,0.3-0.4c-0.3,0-0.6,0-1,0l0-0.3
						c0.2-0.1,1.3-0.2,0-0.4l0-0.4c0.4-0.1,1-0.2,1.8-0.2l-1.1-0.1c-0.7-0.2,0-0.3,0.1-0.4c-0.2,0-0.5-0.1-0.7-0.1
						c1-0.5,0.2-1.5,0.2-1.7c0.2,0,0.4-0.1,0.5-0.2c2.5,0.8,4.8,1.6,6.5,2.3c0,0,1.1,0.2,1.4,0.3c0.4,0.1,0.9,0.3,1.3,0.4
						c-0.9,0.1-0.9,0.3-0.6,0.5c0.1,0.1,0.3,0.2,0.5,0.2c0.2,0.1,0.3,0.1,0.3,0.1l0,0.1c-0.1,0.1-0.6,0.3-0.7,0.4
						c-0.2,0.2,0,0.3,1.2,0.1l0.1,0c-0.9,0.2-2.3,0.5-3.7,0.9c-1.4,0.4-2.9,1-3.7,1.6c-0.1,0.1-0.7,0.5-1.2,0.8
						c-0.5,0.3-1,0.6-1.1,0.5c-0.1-0.7,0.9-1.7,1.9-2.3C20.5,50.9,21.6,50.6,21.5,50.6z"/>
					<path class="st80" d="M26.7,35.4l0.8-0.1c-0.1,0.2-0.5,0.1,0,0.7c-0.3-0.1-0.3,0-0.4,0.1C27,35.9,26.8,35.6,26.7,35.4z"/>
					<path class="st80" d="M30.6,38.8l-0.1,0.1c-0.6-0.4-1.1-0.9-0.8-0.8c-0.6-0.4-0.1,0.1-0.3-0.1c-0.8-0.6-0.8-0.6-0.6-0.6
						C29.4,37.8,30.1,38.3,30.6,38.8c0.4,0.3,0.7,0.6,0.7,0.6l0,0.1C31,39.2,30.9,39,30.6,38.8z"/>
					<path class="st81" d="M28.7,39.3c-0.4-0.1-1-0.4-1.7-0.6c-1-0.8-2.3-1.8-3.5-2.9c0.9-0.1,1.7-0.1,2.4-0.2
						c0.1,0.2,0.3,0.4,0.5,0.7c0.1-0.1,0.1-0.2,0.4-0.1c0.1,0.1,0.3,0.2,0.5,0.4l0,0c-0.1,0-0.1,0.1,0.6,0.6
						c0.3,0.2-0.2-0.3,0.4,0.1c-0.4-0.1,0.2,0.4,0.8,0.8l0.1-0.1c0.3,0.3,0.4,0.4,0.6,0.7c-0.2,0.3-0.4,0.7-0.5,1.1
						C29.1,39.7,28.9,39.5,28.7,39.3z"/>
				</g>
			</g>
		</g>
		<g>
			<g class="st1">
				<g class="st1">
					<path class="st73" d="M226.4,72.8c0.4,2.7,0.7,5.4,0.9,8.2c-0.3-0.6-0.6-1.2-1-1.8C225.4,77.2,226.5,75,226.4,72.8z"/>
					<path class="st73" d="M224,64.1C224,64.1,224,64.2,224,64.1c0.8,1.5,1.2,3,1.5,4.2c0.3,1.3,0.5,2.3,0.6,3.3
						c0-0.1-0.1-0.3-0.1-0.4c-0.4-0.9-0.8-1.9-1.1-3C224.6,67.1,224.4,65.8,224,64.1z"/>
					<path class="st74" d="M206.4,44.2c1.9,3.5,2.2,7.7,0.9,11.8c-0.3,0.3-0.4,0.5-0.4,0.7c0,0.2,0.1,0.3,0.2,0.2
						c0,0,0.1,0.1,0.6-0.3c0.2-0.2,0.6-0.6,0.9-1.4c0.3-0.8,0.4-1.8,0.2-2.7c-0.2-0.9-0.5-1.2-0.5-1.3c0,0,0,0,0.1,0.1l0.2,0.2
						c0.3,0.3,0.6,0.6,0.8,0.9c-1.7,0.5-3.6,1-5.6,1.7c0,0.7,0.6,2,0.1,2.5c-1.1,0.7-2.3,1.1-3.5,1.2c-0.3,0-0.6,0-0.9,0
						c-0.3-0.1-0.7-0.2-1.1-0.5c-0.4-0.3-0.9-0.8-1.4-1.7c-0.2-0.4-0.4-0.9-0.5-1.5c-0.1-0.5-0.2-1.1-0.2-1.7c0-0.2,0.1-0.5,0.2-0.9
						c0.1-0.4,0.4-0.9,0.7-1.4c0.6-1,1.5-2,2.4-2.5c0.9-0.6,1.6-0.9,2.3-1.1c0.1,0,0.3-0.1,0.5-0.1l0.2,0c0.2,0,0.3,0,0.5-0.1
						c0.7,0,1.3-0.3,2-0.6C205.6,45.1,206.1,44.7,206.4,44.2z"/>
					<path class="st13" d="M209.6,39.6c0.2-0.4,0.5-0.7,0.7-1.1c0.2-0.4,0.5-0.8,0.8-1.2c0.5-0.8,1.1-1.6,1.2-2
						c1.6,0.7,3,1.5,4.2,2.6c0.8-0.6,1.6-1,2-1.8c0.3,0.2,0.5,0.5,0.7,0.7c-0.3,4.1-1.3,8.3-3.5,12c-0.2-0.2-0.4-0.8-0.7-1.6
						c-0.4-0.8-0.9-1.9-1.4-2.9C212.6,42.3,210.9,40.5,209.6,39.6z"/>
					<path class="st75" d="M207.6,43.9c0.2-0.6,0.4-1.1,0.4-1.7c0.6-0.8,1.1-1.7,1.6-2.5c1.3,0.8,2.3,1.8,3.2,2.9
						c0.4,0.5,0.8,1.1,1.2,1.7c0.3,0.6,0.6,1.2,0.8,1.8c0.1-0.2,1.1,0.1,1.3-0.2c0,0.7-0.2,1.3-0.3,1.7c-0.1,0.4-0.1,0.8,0.2,1.2
						l-0.8,1.3c-0.3,0.4-0.6,0.8-0.9,1.2c-0.6,0.8-1.3,1.6-2.1,2.3c-0.7,0.7-1.6,1.4-2.4,2l-1.4,0.9l-1.1,0.7c0-0.2,0-0.3,0.2-0.5
						c0.2-0.2,0.4-0.3,0.6-0.4c0.4-0.2,0.8-0.4,1.2-0.6c-0.8-0.5-1.4-0.3-1.9,0.2c1.2-4.1,1-8.3-0.9-11.8l0.3-0.3
						C207.2,44.1,207.6,44.2,207.6,43.9z"/>
					<path class="st76" d="M221.5,68.4c-1.1-0.9-2.5-1.4-3.8-1.3c-1.3,0-2.5,0.6-3.5,1.5c0-0.1,0.1-0.4-0.1-0.6
						c-0.1-0.2-0.4-0.4-0.9-0.2c-0.5-0.3-1.4-0.9-2.5-1.5c-1-0.6-2-1-2.4-0.8c-0.5,0.2,0.9-0.1,2.5-0.7c1.7-0.6,3.5-1.8,4.7-2.4
						c0.8-1.2,2-1.9,3.8-1.9c0.3,0.3-0.5,0.8-0.2,1.2c0.1-0.1,1.3-0.4,1.4-0.3c0,0,0.2,0.2,0.5,0.4c0.3,0.3,0.7,0.7,1,1.2
						c0.8,1,1.3,2.2,1.6,2.9c-1,1.2,0.5,2.5,0.8,2.5c0.1,0.4,0.2,0.8,0.2,1.1l0,0c-0.5-0.4-1.1-0.8-1.6-1.2
						C222.6,68.1,221.5,68.4,221.5,68.4z"/>
					<path class="st77" d="M203.9,56.5c-1.1,0.7-2.3,1.1-3.5,1.2c-0.3,0-0.6,0-0.9,0c-0.3-0.1-0.7-0.2-1.1-0.5
						c-0.4-0.3-0.9-0.8-1.4-1.7c-0.2-0.4-0.4-0.9-0.5-1.5c-0.1-0.5-0.2-1.1-0.2-1.7c-0.1,0.5-0.2,1-0.2,1.6c0,0.6,0.1,1.3,0.2,1.9
						c0.3,1.2,0.8,2.1,1,2.7c0.3,0.6,0.4,0.8,0.5,1c0.1,0.2,0.2,0.3,0.2,0.4c0.4-0.6,0.7-1.2,1.1-1.1c1,0.7,2.1,1.4,2.7,2
						c0.6,0.9,0.8,2.3,1.4,3.3c0.9,0.4,1.8,0.8,2.6,1.1c0.1,0,1-0.5,1.3-0.9c0.5,0.3,0.9,0.8,1.2,1.2c0.1-0.1,1.6-0.2,3.2-0.7
						c1.6-0.5,3.2-1.4,4-2.4c0.8-1.2,2-1.9,3.8-1.9c0,0-0.9-0.7-1.8-1.2c-0.9-0.5-1.7-0.9-2.2-1.2c-0.1,0.2,0,1,0.1,1.1
						c-0.2-0.1-0.7-1.3-0.9-1.6c-0.5-0.3-1.8-1.2-1.9-1.2c-0.1-0.1-0.3,0.7-0.7,1.3c-0.1-1.3-0.4-2.3-0.7-3.1l-0.4-0.5
						c0.1-0.3,0.2-0.4,0.3-0.4c0.2,0,0.3,0.1,0.4,0.1c-0.3-0.3-1.3-1.6-1.5-2c0.1,0.5,0.2,1,0.2,1.6l-0.9-1.1l0,0
						c-1.6,0.5-3.6,1-5.6,1.7C203.8,54.8,204.4,56.1,203.9,56.5z"/>
					<path class="st78" d="M223,104.3c-0.6,0.4-0.8,0.8-1,1.1c-0.2,0.4-0.4,0.8-0.6,1.7c-0.5,1.6-0.6,3.4-0.9,5.2
						c-0.2,1.8-0.7,3.7-0.1,5.7c-1.8-0.4-3.5-1.3-4.7-2.3c-1.3-1-2.2-2.2-2.9-3.4c-1.4-2.3-1.9-4.7-2-7.1c0-2.3,0.4-4.1,0.9-5.7
						c0.5-1.6,1.1-2.9,1.5-4.1c0.6,0.8,0.5,1.7,0.5,2.7c0,1,0.2,2.1,1.4,2.9c0.4,0.1,0.8-0.4,1.2-0.5c0.4,0.8,0.6,1.8,1,2.5
						c0.4,0.7,1,1.2,1.9,1.1c1.1-0.1,2.3-0.4,3.7-0.5c0,0.1,0,0.1,0,0.2C222.5,104,222.9,104.1,223,104.3z"/>
					<path class="st79" d="M225.4,98.8c-0.3,1.3-0.5,2.4-0.6,3.2c-0.3-0.1-0.7-0.1-1-0.2c0.2-1,0.5-2.3,0.8-3.9
						C224.8,98.2,225.1,98.5,225.4,98.8z"/>
					<path class="st79" d="M216.4,100.5c-0.4,0.1-0.8,0.6-1.2,0.5c-1.2-0.8-1.4-1.9-1.4-2.9c0-1,0.1-1.9-0.5-2.7
						c0.7-1.8,1.2-3.5,1.6-5.4c0.2,0.4,0.4,0.7,0.7,1.1c0.2-1,2.7-0.8,2.9-1.9c1,1.8,1.4,3.9,1.9,5.9c0.5,2.1,1,4.2,2.8,5.7
						c-0.1,1.2-0.2,2.2-0.1,2.7c-1.4,0.1-2.6,0.4-3.7,0.5c-0.9,0.1-1.5-0.4-1.9-1.1C217,102.2,216.8,101.3,216.4,100.5z"/>
					<path class="st16" d="M218.4,89.2c-0.2,1.1-2.7,0.9-2.9,1.9c-0.2-0.4-0.5-0.7-0.7-1.1c0.5-2.1,0.7-4.3,0.8-6.4
						c0.1-0.1,0.1-0.3,0.1-0.4c0.4-1.6,0.2-3.1,0.5-4.6c1.5,1,2.9,2.1,4.2,3.3c-2,2.1-3.9,4.2-5.2,6.3c0.5-0.8,2.2-0.3,2.6-0.7
						c2.2-1.3,6.4-2.5,8.1-1.5c-0.1,3.9-0.4,7.8-1.2,11.6c-0.5,0.1-1.3,0.3-1.4,0.5c-0.1,1-0.2,1.9-0.3,2.9
						c-1.8-1.5-2.3-3.7-2.8-5.7C219.8,93.1,219.4,91,218.4,89.2z"/>
					<path class="st73" d="M220.5,81.7c-1.3-1.2-2.8-2.3-4.2-3.3c0.1-0.4,0.2-0.8,0.3-1.2c-0.3,0-0.6,0-0.9,0.2l-0.1-0.9
						c0.2-0.4,1.2-0.8-0.1-1.2c0-0.4-0.1-0.8-0.2-1.2c0.4-0.5,0.9-0.9,1.6-1.2l-1.1,0.1c-0.8-0.3-0.1-0.8-0.2-1.2
						c-0.2,0-0.5,0.1-0.7,0.1c0.3-1,0.1-1.9-0.2-2.4c-0.3-0.5-0.6-0.4-0.6-0.4c0.1-0.1,0.2-0.3,0.2-0.4c1-0.9,2.2-1.5,3.5-1.5
						c1.3-0.1,2.6,0.4,3.8,1.3c0,0,1-0.3,1.5-0.1c0.5,0.4,1.1,0.8,1.6,1.2c-0.6,1.6-0.4,2.9,0,4.1c0.4,1.2,0.9,2,0.9,2.1l0.1,1.1
						c0,1.1-0.5,2.5-0.7,3.9c-0.2,1.4-0.1,2.8,1,4.2l0,0.9c-1.7-1-5.9,0.2-8.1,1.5c-0.4,0.4-2.6,1.5-2.6,0.7c0.3-1.3,1.7-2.8,3-4.1
						C219.5,82.7,220.6,81.7,220.5,81.7z"/>
					<path class="st80" d="M213.4,27.1c-0.1-0.8-0.3-1.5-0.5-2.4c0.4,0.8,0.5,1.7,1.5,1.8c-0.1,0.5,0.1,0.9,0.2,1.3
						C214.1,27.6,213.8,27.4,213.4,27.1z"/>
					<path class="st80" d="M218.8,26.8c0.1,0.3,0.2,0.6,0.2,0.8c-0.7,0.2-1.5-0.1-1.4-0.7c-0.7,0.2,0.2,0.5-0.2,0.6
						c-0.9,0.3-1,0-1.1-0.3c1.5-0.6,3.2-0.7,3.3-0.2l0.2,0.6C219.6,27.3,219.3,26.9,218.8,26.8z"/>
					<path class="st81" d="M218.7,36.2c-0.4,0.8-1.2,1.2-2,1.8c-1.2-1.1-2.6-2-4.2-2.6c0.8-1.7,1.3-3.6,1.3-5.7
						c0.3,0.3,0.7,0.6,1,0.8c-0.1-0.4-0.2-0.8,0-1.3c0.2,0,0.4,0.1,0.7,0.1l0,0c0,0.3,0.1,0.6,1,0.4c0.4-0.1-0.5-0.4,0.2-0.6
						c-0.2,0.6,0.6,0.9,1.3,0.8c0-0.3-0.1-0.5-0.2-0.8c0.4,0,0.7,0.5,1.1,0.7c0.5,2.4,0.6,4.7,0.5,7.1
						C219.2,36.6,218.9,36.4,218.7,36.2z"/>
				</g>
			</g>
		</g>
		<g>
			<g class="st1">
				<g class="st1">
					<path class="st73" d="M140.3,77.8c0.3,2.1,0.5,4.3,0.8,6.5c-0.3-0.5-0.7-0.9-1-1.4C139.2,81.3,140.3,79.5,140.3,77.8z"/>
					<path class="st73" d="M138.6,70.3C138.6,70.3,138.6,70.3,138.6,70.3c1,2.4,1.3,4.5,1.6,6.5c0-0.1-0.1-0.3-0.1-0.4
						c-0.4-0.9-0.8-1.8-1-2.8C138.8,72.6,138.7,71.6,138.6,70.3z"/>
					<path class="st74" d="M136.4,50.3c3.3,2.2,5.5,5.4,7.2,8.9c-0.1,0.6,0,1.4-0.2,1.8c0.2,0.1-1.4,3.1-2.5,4.3
						c-0.6-1.7-1.6-3.5-2.9-5.2c-0.6,0.3-1.6,1-2.2,0.5c-2-1.9-2.7-3.8-3.5-5.5c0.1-0.1,1.2-0.7,2.2-1.6
						C135.5,52.7,136.4,51.3,136.4,50.3z"/>
					<path class="st13" d="M137.2,45.8c0-0.6,0.2-1.4,0.4-2.2c0.2-0.8,0.3-1.6,0.3-2c1.7-0.3,3.3-0.3,4.8,0.1c0.5-0.8,1-1.5,1-2.3
						c0.3,0.1,0.6,0.1,0.9,0.2c1.6,3.4,2.4,7.1,2.2,11c-0.2-0.1-0.7-0.5-1.4-1c-0.7-0.5-1.6-1.2-2.6-1.7c-1-0.6-2.1-1-3.1-1.4
						C138.9,46.1,137.9,45.9,137.2,45.8z"/>
					<path class="st75" d="M137.3,49.6c-0.1-0.5-0.2-1-0.4-1.4c0.1-0.8,0.2-1.6,0.3-2.4c2.9,0.2,5.7,1.2,7.5,2.9
						c0-0.2,1.1-0.4,1.1-0.6c0.6,1.2,0.3,2,1.2,2.4c0,0.9-0.2,1.8-0.3,2.7c-0.2,0.8-0.3,1.7-0.6,2.5c-0.5,1.6-1.1,3.2-1.9,4.6
						c-0.3-1,0.4-1.4,0.7-2c-0.9-0.1-1.2,0.3-1.3,0.9c-1.7-3.5-3.8-6.7-7.2-8.9l0.1-0.4C137,49.9,137.5,49.9,137.3,49.6z"/>
					<path class="st76" d="M135.7,73.8c-2.1-1.5-5-1.6-7.3-0.3c0.2-0.3,0.3-0.9-0.1-0.4c0,0,0-0.1,0-0.2l-2.2-6.9l0.3-0.2
						c1-0.8,2-1.7,1.7-2.3c-0.3-0.7,0.5,2.5,1.1,5.1l0.1,0.6l0,0c0.5-0.5,1.2-0.9,1.7-1.2c0.4-0.6,1-1,1.7-1.2
						c0.7-0.2,1.6-0.2,2.5,0c0.2,0.4-0.7,0.7-0.5,1.1c0,0,0.4-0.1,0.7-0.1c0.3,0,0.6,0,0.6,0s0.5,0.7,0.9,1.5
						c0.4,0.8,0.8,1.8,0.9,2.4c-1.1,1,0.2,2,0.5,2.1c0.1,0.3,0.1,0.7,0.2,1l0,0c-0.5-0.4-1-0.7-1.6-1
						C136.7,73.5,135.7,73.8,135.7,73.8z"/>
					<path class="st77" d="M135.7,60.7c-2-1.9-2.7-3.8-3.5-5.5c-0.3,0.2-1.2,0.8-1.3,0.9c0.6,0.3,1.2,0.5,1.3,0.8
						c-0.1,0.7-0.4,1.7-0.7,2.1c-0.6,0.4-1.7,0.4-2.5,0.7c-0.2,0.6-0.4,1.2-0.7,1.8c0,0,0.5,1,0.8,1.3c-0.3,0.3-0.7,0.5-1.1,0.6
						c0.1,0.1,0.1,2.5,0.6,4.7l0.4,1.7l0.1-0.1c0.3-0.3,0.7-0.6,1-0.9c0.3-0.3,0.7-0.6,0.9-0.9c0.4-0.6,1-1,1.7-1.2
						c0.7-0.2,1.6-0.2,2.5,0c0,0-0.1-0.2-0.3-0.4c-0.2-0.2-0.5-0.5-0.9-0.9c-0.8-0.7-2-1.3-3.2-1.7l2.3,8.6c0.1-0.1,0.4-0.3,0.5-0.4
						c-0.2-0.2-0.9-0.3-1.1-0.3c0.1-0.1,1.4-0.3,1.9-0.4c0.5-0.4,1.8-1.6,1.8-1.8c0.1-0.1-0.7-0.3-1.2-0.8c1.3,0,2.4-0.2,3.3-0.7
						l0.6-0.5c0.3,0.1,0.4,0.2,0.4,0.3c0,0.2-0.1,0.3-0.2,0.5c0.4-0.3,1.9-1.8,2.3-2.2c-0.5,0.3-1.1,0.5-1.8,0.7
						c0.4-0.4,0.8-0.8,1.2-1.3l0-0.1c-0.6-1.7-1.6-3.5-2.9-5.1C137.2,60.4,136.3,61.2,135.7,60.7z"/>
					<path class="st78" d="M140.8,106.9c-1.4,1.1-1.4,2.8-3.2,3.7c-3.3,1.4-7,0.6-10.8,1.1c1.6-4.4,2.4-8.8,2.8-13.3
						c1.6,1.1,0.7,3,3.3,4c0.4,0,0.7-0.4,1.1-0.6c1.1,1.2,1.4,3.1,3.2,3.1c1.1,0,2.3-0.3,3.7-0.5l0,0.4
						C140.4,105.4,140.8,106.1,140.8,106.9z"/>
					<path class="st79" d="M142.2,98.3l0.3,3.3c-0.3,0-0.7,0-1,0.1c0-1.3-0.1-2.5-0.4-3.8C141.5,98,141.9,98.1,142.2,98.3z"/>
					<path class="st79" d="M134,101.8c-0.4,0.2-0.7,0.6-1.1,0.6c-2.6-0.9-1.7-2.9-3.3-4c0.1-1.7,0.2-3.5,0.2-5.2
						c0.3,0.3,0.6,0.6,0.9,0.9c0-1,2.5-1.2,2.5-2.2c2.7,2.8,3.3,6.6,7.4,8.7c0.2,1.3,0.3,2.5,0.3,3.8c-1.4,0.2-2.6,0.5-3.7,0.5
						C135.4,104.9,135.1,103,134,101.8z"/>
					<path class="st16" d="M133.2,91.9c0,1-2.5,1.2-2.5,2.2c-0.3-0.3-0.6-0.6-0.9-0.9c0-2,0-4-0.1-6c0-0.1,0.1-0.3,0.1-0.4
						c0.2-1.5,0-2.8,0.2-4.3c1.5,0.9,3,1.8,4.4,2.7c-1.9,1.9-3.5,4-4.4,6.2c0.3-0.8,2.1-0.6,2.5-1c1.9-1.5,6-2.9,7.8-2.2
						c0.4,3.1,0.8,6.1,1.1,9.2c-0.5,0.2-1.2,0.5-1.2,0.7c0.2,0.9,0.4,1.7,0.5,2.6C136.5,98.5,135.9,94.7,133.2,91.9z"/>
					<path class="st73" d="M134.4,85.3c-1.4-0.9-2.9-1.8-4.4-2.7c0.1-0.4,0.1-0.7,0.3-1.1c-0.3,0-0.6,0-0.9,0.2l-0.1-0.8
						c0.2-0.3,1.3-0.7-0.1-1.1l-0.1-1.1c0.4-0.4,0.9-0.8,1.7-1l-1.1,0.1c-0.7-0.3-0.1-0.6-0.1-1c-0.2,0-0.5,0.1-0.7,0.1
						c0.4-0.8,0.2-1.6-0.1-2.1c-0.3-0.5-0.7-0.7-0.7-0.8c0.1-0.2,0.2-0.3,0.3-0.5c2.4-1.3,5.2-1.2,7.3,0.3c0,0,1.1-0.2,1.5-0.1
						c0.5,0.3,1,0.7,1.6,1c-0.7,1.4-0.5,2.8-0.2,3.7c0.3,0.9,0.8,1.6,0.9,1.7l0.1,0.9c0,1.8-1.8,4.5,0.8,6.4l0.1,0.7
						c-1.8-0.7-5.9,0.8-7.8,2.2c-0.3,0.4-2.4,1.7-2.5,1C130.2,89,134.5,85.1,134.4,85.3z"/>
					<path class="st80" d="M135.4,35.2c-0.4-0.5-1-0.9-1.6-1.4c0.7,0.3,1.2,0.9,2,0.4c0.2,0.4,0.5,0.6,0.8,0.8
						C136.1,35.1,135.7,35.2,135.4,35.2z"/>
					<path class="st80" d="M139.5,31.8c0.2,0.2,0.5,0.3,0.7,0.5c-0.5,0.5-1.3,0.8-1.5,0.2c-0.4,0.6,0.4,0.3,0.2,0.6
						c-0.6,0.8-0.8,0.6-1,0.3c0.9-1.3,2.2-2.4,2.6-2.1c0.2,0.1,0.3,0.2,0.5,0.4C140.4,31.7,139.8,31.5,139.5,31.8z"/>
					<path class="st81" d="M143.8,39.3c0,0.8-0.6,1.5-1,2.3c-1.5-0.4-3.2-0.3-4.8-0.1c0-1.6-0.3-3.2-1.2-4.7c0.3,0,0.8,0,1.2,0
						c-0.3-0.3-0.5-0.5-0.6-0.9c0.2-0.1,0.3-0.2,0.6-0.3l0,0c0.1,0.3,0.3,0.4,1-0.3c0.2-0.3-0.6,0-0.1-0.6c0.1,0.6,0.9,0.4,1.5-0.1
						c-0.2-0.2-0.4-0.3-0.5-0.5c0.4-0.2,0.9,0,1.3,0c1.6,1.7,2.8,3.5,3.7,5.5C144.4,39.5,144.1,39.4,143.8,39.3z"/>
				</g>
			</g>
		</g>
		<g>
			<g>
				<g>
					<g>
						<g>
							<g>
								<path class="st19" d="M72,58.1c-0.2-0.4-0.4-0.8-0.7-1.2c-0.2-0.2-0.3-0.3-0.5-0.5c-0.2-0.2-0.5-0.3-0.7-0.4
									c-0.2-0.1-0.5-0.2-0.7-0.2c-0.1,0-0.2,0-0.3,0c-0.1,0-0.3,0-0.4,0c-0.1,0-0.3,0.1-0.4,0.2c0-0.9,0.1-1.8,0.1-2.7
									c0.1-1.3,0.1-2.7,0.1-4c0-0.6,0-1.2,0-1.9c0-0.6-0.1-1.3-0.2-1.9c-0.1-0.4-0.2-0.7-0.3-1.1c-0.1-0.4-0.3-0.8-0.6-1.1
									c-0.3-0.3-0.7-0.5-1.2-0.6c-0.5-0.1-0.9,0.1-1.3,0.2c-0.2,0.1-0.4,0.2-0.5,0.4c-0.1,0.1-0.3,0.3-0.4,0.4
									c-0.2,0.3-0.4,0.6-0.5,1c-0.1,0.3-0.2,0.6-0.2,0.8c-0.1,0.4-0.2,0.8-0.2,1.2c-0.2,1.2-0.2,2.4-0.2,3.7c0,1.3,0,2.6,0.3,3.9
									c0.1,0.6,0.2,1.1,0.4,1.6c0.2,0.7,0.4,1.3,0.7,1.9c0.2,0.5,0.5,0.9,0.7,1.3c0.2,0.2,0.3,0.4,0.5,0.6
									c-0.1,0.4-0.3,0.8-0.5,1.2c-0.2,0.5-0.5,1-0.7,1.5c-0.5,1.1-1,2.2-1.5,3.2c-0.9,2.1-1.9,4.1-2.8,6.2c0,0,0,0,0,0
									c-0.4,0.8-0.7,1.6-1.1,2.3c-0.5,1.1-1,2.1-1.6,3.2c-0.6,1.2-1.3,2.4-1.9,3.5c-0.6,1.1-1.3,2.2-1.9,3.3
									c-0.6,1-1.2,1.9-1.8,2.8c-0.1,0.1-0.2,0.3-0.3,0.4c-1.5-1-2.9-2.2-4.3-3.4c0,0,0,0-0.1-0.1l0,0c0,0,0,0,0,0c0,0,0,0,0,0
									c0,0,0,0,0,0c0,0,0,0,0,0c-0.4-0.4-0.8-0.7-1.1-1.1c-0.4-0.4-0.8-0.9-1.2-1.3c-0.8-0.8-1.4-1.8-2.1-2.7c0,0-0.1-0.1-0.1-0.1
									c-0.2-0.3-0.3-0.7-0.5-1c-0.2-0.5-0.5-1-0.7-1.4c-0.3-0.5-0.5-1-0.8-1.5c-0.7-1-1.4-2-2.2-2.9c-0.7-0.9-1.5-1.7-2.1-2.6
									c-0.2-0.3-0.4-0.6-0.6-0.8c-0.2-0.3-0.4-0.6-0.6-0.8c-0.4-0.7-0.9-1.4-1.3-2c-0.3-0.5-0.6-1-1-1.5c0,0,0.1,0,0.1-0.1
									c1.4-0.7,2.8-1.6,4.1-2.5c0.7-0.5,1.4-1,2-1.5c0.6-0.5,1.2-0.9,1.7-1.4c0.5-0.5,1.1-1,1.6-1.5c0.6-0.7,1.3-1.4,1.9-2.2
									c1-1.3,1.9-2.6,2.8-3.9c0.4-0.7,0.9-1.3,1.3-2c0.4-0.6,0.8-1.2,1.1-1.9c0.8-1.4,1.6-2.9,2.1-4.5c0.3-0.7,0.4-1.5,0.5-2.3
									c0.2-0.9,0.3-1.8,0.4-2.8c0.2-1.6,0.3-3.1,0.3-4.7c0-0.7,0-1.5,0-2.2c0-0.9,0-1.8-0.1-2.7c-0.1-1.3-0.5-2.6-0.9-3.9
									c-0.5-1.3-1.2-2.5-2.1-3.5c-0.5-0.5-1-1-1.5-1.4c-0.4-0.4-0.8-0.7-1.3-1c-0.5-0.4-1.1-0.8-1.7-1c-0.3-0.1-0.5-0.2-0.8-0.2
									c-0.3-0.1-0.6-0.1-0.9-0.2c-0.4,0-0.8,0-1.2,0.1c-0.2,0.1-0.5,0.2-0.6,0.3c-0.2,0-0.4,0.1-0.6,0.1c-0.8,0.1-1.5,0.3-2.3,0.6
									c-0.7,0.2-1.4,0.5-2,0.7c-0.8,0.3-1.5,0.8-2.2,1.4c-1.2,1-2.3,2-3.5,3.1c-1.1,1-2.3,2.1-3.4,3.1c-0.6,0.5-1.1,1-1.6,1.6
									c-0.6,0.7-1.2,1.3-1.8,2.1c-0.9,1.2-1.7,2.6-2.5,3.9c-0.4,0.8-0.8,1.6-1.2,2.4c-0.3,0.7-0.6,1.3-0.8,2
									c-0.5,1.3-1,2.7-1.5,4.1c-0.5,1.5-0.9,3.1-1.3,4.6c-0.2,0.7-0.3,1.4-0.5,2.2c-0.2,0.8-0.3,1.7-0.4,2.5
									c-0.1,0.6-0.1,1.1-0.1,1.7c0,0.2,0,0.5,0,0.7c0,0.9,0.2,1.7,0.4,2.6c0.2,0.9,0.5,1.7,0.9,2.5c0.3,0.8,0.8,1.5,1.3,2.2
									c0.2,0.3,0.5,0.6,0.7,0.8c0.3,0.4,0.7,0.7,1.1,1c0.1,0.1,0.1,0.1,0.2,0.1c-0.2,0.2-0.4,0.4-0.5,0.5
									c-0.4,0.4-0.8,0.9-1.1,1.3c-0.7,0.8-1.3,1.6-1.9,2.5c-0.6,0.9-1.1,1.8-1.6,2.8c-0.6,1.2-1.2,2.4-1.8,3.6c0,0,0,0,0,0
									c0,0.1-0.1,0.2-0.1,0.2c0,0,0-0.1,0.1-0.1c-0.1,0.2-0.2,0.3-0.2,0.5c0,0,0,0,0,0c-0.4,0.9-0.9,1.9-1.2,2.9
									c-0.3,1-0.6,2.1-0.9,3.1c-0.6,2.1-1.1,4.1-1.5,6.2c-0.2,0.9-0.4,1.9-0.6,2.8c-0.2,1-0.4,2.1-0.6,3.2c0,0,0-0.1,0-0.1
									c0,0.1,0,0.1,0,0.2c0,0,0,0.1,0,0.1c0,0,0,0,0-0.1C7.4,94.8,7,97,6.6,99.1c-0.2,1.2-0.4,2.3-0.5,3.5
									c-0.1,1.1-0.2,2.3-0.3,3.4c-0.1,1.1-0.2,2.3-0.3,3.4c-0.1,1.1-0.2,2.2-0.3,3.4c-0.1,1.1-0.2,2.1-0.3,3.2
									c0,0.5-0.1,1.1-0.1,1.6c0,0.6,0,1.1,0,1.7c0,0,0,0.1,0,0.1c0.7,0,1.4-0.1,2.1-0.1c0-0.1,0-0.2,0-0.2c0-0.5,0-1.1,0-1.6
									c0.1-1.1,0.1-2.2,0.2-3.2c0.1-1.2,0.2-2.3,0.3-3.5c0.1-1.1,0.2-2.3,0.3-3.4c0.1-1.1,0.2-2.2,0.3-3.4
									c0.1-1.1,0.3-2.3,0.4-3.4c0.2-1,0.3-2,0.5-3c0.2-1.2,0.4-2.4,0.7-3.6c0,0,0,0,0,0c0,0.1,0,0.2,0,0.2
									c0.1-0.7,0.3-1.4,0.4-2.1c0.2-1.1,0.4-2.1,0.6-3.2c0.2-1,0.5-2.1,0.7-3.1c0.5-2,1-4,1.6-6c0.3-0.8,0.5-1.7,0.8-2.5
									c0.3-0.8,0.7-1.6,1-2.4c0.4-0.8,0.8-1.6,1.2-2.3c0.4-0.8,0.8-1.5,1.2-2.3c0.5-0.8,0.9-1.5,1.5-2.3c0.5-0.7,1-1.4,1.6-2.1
									c0.2-0.3,0.5-0.5,0.7-0.8c0.1-0.1,0.3-0.3,0.4-0.4c0.1-0.1,0.3-0.2,0.4-0.4c0.7,0.3,1.4,0.6,2.1,0.8c1,0.3,2,0.5,3,0.4
									c0.7,0,1.4-0.1,2-0.2c0.4-0.1,0.7-0.2,1.1-0.3c0.1-0.1,0.3-0.1,0.4-0.2c0.1,0.1,0.2,0.2,0.2,0.4c0.5,0.8,1,1.6,1.5,2.4
									c0.6,1,1.2,2,1.9,2.9c1.1,1.6,2.4,3.1,3.5,4.7c0.3,0.4,0.6,0.9,0.8,1.4c0.3,0.5,0.5,1.1,0.7,1.6c0.2,0.5,0.4,1,0.6,1.6
									c0.1,0.2,0.2,0.4,0.3,0.7c0.1,0.3,0.3,0.5,0.4,0.8c0,0.1,0.1,0.1,0.1,0.2c-0.1,0.4-0.2,0.8-0.2,1.3
									c-0.3,1.4-0.5,2.8-0.8,4.2c-0.4,2.3-0.9,4.6-1.4,6.9c-0.6,2.4-1.1,4.8-1.6,7.2c-0.2,1.1-0.5,2.2-0.7,3.3
									c-0.3,0.1-0.7,0.3-1,0.5c-1.1,0.6-2.3,1.2-3.4,1.8c-1.1,0.6-2.1,1.3-3.1,2c0,0,0,0,0,0c-0.1-0.4-0.3-0.7-0.4-1.1
									c-0.3-0.7-0.5-1.4-0.8-2.1c-0.4-1.2-0.8-2.4-1.3-3.5c-0.5-1.2-1.1-2.3-1.6-3.5c-1.1-2.5-2.2-4.9-3.3-7.4
									c-0.5-1.1-0.9-2.2-1.4-3.3c-0.3-0.6-0.5-1.2-0.8-1.8c-0.4-0.6-0.7-1.3-1.1-1.9c-0.1-0.2-0.3-0.4-0.5-0.4
									c-0.2-0.1-0.5-0.1-0.7,0c-0.3,0.1-0.5,0.5-0.5,0.8c0,0.1,0,0.3,0.1,0.4c0.4,0.6,0.8,1.3,1.1,1.9c0.3,0.6,0.6,1.2,0.8,1.8
									c0.5,1.1,0.9,2.3,1.4,3.4c1.1,2.5,2.1,4.9,3.2,7.4c0.6,1.3,1.1,2.6,1.6,4c0.2,0.6,0.4,1.2,0.5,1.8c0.2,0.6,0.3,1.2,0.5,1.8
									c0.2,0.6,0.3,1.2,0.5,1.8c0.1,0.3,0.2,0.6,0.2,0.9c0.1,0.4,0.2,0.8,0.4,1.1c0.1,0.4,0.3,0.7,0.6,1c0.5,0.3,1,0.4,1.5,0.2
									c0.6-0.2,1.1-0.5,1.6-0.8c0.5-0.3,1-0.7,1.5-1c1-0.7,2.1-1.3,3.2-1.9c0.1,0,0.1-0.1,0.2-0.1c0,0.1,0,0.2-0.1,0.3
									c-0.5,2.3-1.1,4.6-1.5,6.9c-0.2,1.2-0.5,2.4-0.7,3.6c-0.1,0.4-0.1,0.8-0.2,1.1c0.7,0,1.3,0.1,2,0.1c0.3-1.5,0.6-2.9,0.9-4.4
									c0.5-2.3,1.1-4.6,1.6-7c0.1-0.5,0.2-0.9,0.3-1.4c0.1,0,0.1,0,0.2,0c0.1,0,0.2,0,0.3,0c0.1,0,0.3,0,0.4,0
									c0.3,0,0.6,0,0.8,0.1c0.6,0.1,1.3,0.2,1.9,0.2c1.2,0.2,2.4,0.4,3.6,0.6c0.6,0.1,1.2,0.2,1.9,0.3c0.7,0.1,1.4,0.2,2.1,0.3
									c0.6,0.1,1.2,0.1,1.8,0.1c0.6,0,1.2,0,1.7-0.1c0.9-0.1,1.7-0.3,2.6-0.6c0.3-0.1,0.6-0.3,0.9-0.6c0.3-0.3,0.5-0.6,0.7-1
									c0.3-0.7,0.2-1.5-0.1-2.2c-0.1-0.4-0.2-0.7-0.5-1c-0.2-0.3-0.4-0.6-0.6-0.8c-0.3-0.3-0.6-0.6-0.9-0.8
									c-1.3-1.1-2.9-1.4-4.5-1.5c-0.7-0.1-1.4,0-2.1,0.1c-0.6,0.1-1.3,0.2-1.9,0.2c-1.3,0.2-2.5,0.6-3.7,1.1
									c-1.2,0.5-2.4,0.9-3.6,1.4c0.1-0.5,0.2-1,0.3-1.5c0.5-2.4,1.1-4.8,1.7-7.2c0.5-2.2,1-4.3,1.5-6.5c0.2-1,0.4-2.1,0.6-3.1
									c0.1-0.5,0.2-1,0.3-1.6c0.1-0.3,0.1-0.5,0.2-0.8c0.2,0.2,0.3,0.4,0.5,0.6c0.8,1,1.7,1.9,2.6,2.7c0.9,0.9,1.8,1.7,2.8,2.4
									c0.4,0.3,0.9,0.7,1.3,1c0.2,0.2,0.4,0.4,0.7,0.5c0.4,0.2,0.9,0.1,1.2-0.2c0.4-0.3,0.7-0.6,1-1c0.8-0.9,1.5-2,2.1-3
									c0.6-1,1.3-2.1,1.9-3.2c1.2-2.2,2.4-4.4,3.5-6.7c1.1-2.4,2.3-4.8,3.3-7.2c0.5-1.1,1-2.2,1.5-3.3c0.2-0.4,0.3-0.8,0.5-1.1
									c0.1,0,0.1,0,0.2,0c0.3,0.1,0.7,0,1,0c0.3,0,0.7-0.1,1-0.2c0.6-0.2,1.2-0.4,1.7-0.6c0.8-0.4,1.4-1.2,1.8-2.1
									c0.2-0.4,0.4-0.9,0.5-1.3C72.2,59.1,72.2,58.6,72,58.1z M29.5,61.6c-0.7,0.2-1.4,0.5-2.2,0.6c-0.3,0-0.5,0-0.8,0
									c-0.4,0-0.8-0.1-1.2-0.1c-0.1,0-0.2,0-0.3-0.1c0-0.2,0-0.4-0.1-0.5c-0.1-0.2-0.3-0.4-0.5-0.5c-0.3-0.1-0.5-0.1-0.7,0.1
									c-0.2,0.1-0.5,0.2-0.7,0.3c0,0,0,0,0,0c-0.3-0.2-0.6-0.3-0.9-0.5c-0.3-0.2-0.5-0.4-0.7-0.6c-0.5-0.5-1-1-1.4-1.6
									c-0.4-0.7-0.7-1.4-1-2.2c-0.2-0.8-0.4-1.6-0.5-2.5c0-0.7,0-1.4,0-2.1c0.1-0.7,0.2-1.5,0.3-2.2c0.2-1,0.4-2.1,0.7-3.1
									c0.3-1.2,0.7-2.5,1.1-3.7c0.3-1,0.7-2,1.1-3.1c0.4-1.1,0.8-2.1,1.3-3.2c1-2,2-3.9,3.4-5.6c0.7-0.8,1.4-1.6,2.2-2.4
									c0.8-0.8,1.7-1.6,2.5-2.4c0.9-0.8,1.8-1.7,2.7-2.5c0.8-0.7,1.6-1.5,2.4-2.1c0.7-0.4,1.5-0.8,2.2-1.1
									c0.7-0.3,1.4-0.5,2.1-0.7c0.2,0,0.3-0.1,0.5-0.1c0.3,0.2,0.7,0.3,1.1,0.2c0,0,0,0,0,0c0.1,0,0.1,0,0.2,0
									c0.3,0.1,0.6,0.2,0.9,0.4c1,0.6,1.8,1.3,2.6,2c0.5,0.5,1,1.1,1.4,1.7c0.2,0.3,0.3,0.6,0.5,0.9c0.2,0.4,0.3,0.8,0.5,1.2
									c0.3,0.9,0.4,1.8,0.5,2.7c0,0.8,0,1.7,0.1,2.5c0,0.9,0,1.9,0,2.8c0,0.9-0.1,1.8-0.2,2.7c-0.1,1-0.2,1.9-0.4,2.9
									c-0.1,0.6-0.3,1.3-0.5,1.9c-0.2,0.7-0.5,1.3-0.8,1.9c-1,1.9-2,3.7-3.2,5.4c-0.7,1-1.3,2-2,3c-0.5,0.8-1.1,1.5-1.7,2.2
									c-1.4,1.6-3.1,3-4.8,4.3c-0.9,0.6-1.9,1.2-2.8,1.8C31.6,60.6,30.6,61.1,29.5,61.6z M41.6,104.8c0.5-0.2,1-0.4,1.5-0.6
									c0.4-0.1,0.8-0.3,1.1-0.4c0.5-0.2,0.9-0.3,1.4-0.4c0.9-0.2,1.8-0.3,2.7-0.4c0.4,0,0.8,0,1.2,0c0.4,0,0.9,0.1,1.3,0.1
									c0.4,0.1,0.9,0.2,1.3,0.4c0.4,0.2,0.7,0.5,1.1,0.8c0.1,0.1,0.2,0.2,0.3,0.4c0.1,0.2,0.2,0.3,0.2,0.5c0,0.1,0.1,0.2,0.1,0.4
									c0,0,0,0.1-0.1,0.1c-0.1,0-0.2,0.1-0.2,0.1c-0.7,0.2-1.3,0.3-2,0.4c-0.7,0-1.3,0-2,0c-0.3,0-0.5,0-0.8-0.1
									c-0.4-0.1-0.7-0.1-1.1-0.2c-0.5-0.1-1.1-0.2-1.6-0.3c-0.6-0.1-1.2-0.2-1.7-0.3c-0.9-0.2-1.8-0.3-2.7-0.5
									C41.5,104.9,41.6,104.9,41.6,104.8z M66.1,53.8c0,0.5,0,0.9-0.1,1.4c-0.1-0.4-0.2-0.8-0.3-1.2c-0.1-0.6-0.2-1.2-0.3-1.9
									c-0.1-1.1-0.1-2.1-0.1-3.2c0-1.1,0.1-2.1,0.2-3.2c0-0.2,0.1-0.3,0.1-0.5c0,0.1,0.1,0.1,0.1,0.2c0.1,0.5,0.2,1.1,0.3,1.6
									c0,1.1,0.1,2.2,0.1,3.2C66.2,51.6,66.1,52.7,66.1,53.8z M70.3,59.4c-0.1,0.2-0.1,0.4-0.2,0.5c-0.2,0.3-0.3,0.6-0.6,0.9
									c-0.1,0.1-0.2,0.2-0.3,0.3c-0.2,0.1-0.4,0.2-0.6,0.3c-0.3,0.1-0.7,0.2-1,0.3c-0.2,0-0.4,0.1-0.6,0.1c0,0-0.1,0-0.1,0
									c0-0.1,0.1-0.2,0.1-0.3c0-0.1,0.1-0.1,0.1-0.2c0.3-0.1,0.5-0.3,0.6-0.6c0.1-0.3,0.2-0.5,0.2-0.8c0-0.1,0-0.3,0-0.4
									c0-0.1,0-0.2,0-0.3c0.1-0.1,0.1-0.1,0.2-0.2c0.2-0.4,0.4-0.8,0.6-1.1c0,0,0.1-0.1,0.1-0.1c0,0,0,0,0.1,0c0.1,0,0.1,0,0.2,0
									c0.1,0,0.2,0.1,0.3,0.1c0.2,0.1,0.3,0.2,0.5,0.3c0.1,0.1,0.2,0.2,0.3,0.3c0.1,0.1,0.1,0.2,0.2,0.3c0,0.1,0,0.1,0,0.2
									C70.3,59.2,70.3,59.3,70.3,59.4z"/>
							</g>
						</g>
						<g>
							<g>
								<path class="st19" d="M53.7,105.7C53.7,105.6,53.7,105.6,53.7,105.7C53.7,105.6,53.7,105.6,53.7,105.7
									C53.7,105.7,53.7,105.7,53.7,105.7z"/>
							</g>
						</g>
						<g>
							<g>
								<path class="st19" d="M69,57.8c0,0-0.1,0-0.1,0c0,0,0,0,0,0C69,57.8,69,57.8,69,57.8z"/>
							</g>
						</g>
						<g>
							<g>
								<path class="st19" d="M68.9,57.8C68.9,57.8,68.9,57.8,68.9,57.8C68.9,57.8,68.9,57.8,68.9,57.8
									C68.9,57.8,68.9,57.8,68.9,57.8z"/>
							</g>
						</g>
						<g>
							<g>
								<path class="st19" d="M65.9,45C65.9,45,65.9,45,65.9,45C65.9,45,65.9,45,65.9,45C65.9,45,65.9,45,65.9,45z"/>
							</g>
						</g>
						<g>
							<g>
								<path class="st19" d="M65.2,59.7C65.2,59.7,65.2,59.8,65.2,59.7C65.2,59.8,65.2,59.7,65.2,59.7
									C65.2,59.7,65.2,59.7,65.2,59.7z"/>
							</g>
						</g>
						<g>
							<g>
								<path class="st19" d="M7.8,89.4c0,0,0,0.1,0,0.1C7.8,89.5,7.8,89.5,7.8,89.4C7.8,89.5,7.8,89.5,7.8,89.4z"/>
							</g>
						</g>
						<g>
							<g>
								<path class="st19" d="M26.3,107.9C26.3,107.9,26.3,107.8,26.3,107.9C26.2,107.8,26.2,107.8,26.3,107.9
									C26.2,107.8,26.3,107.8,26.3,107.9z"/>
							</g>
						</g>
						<g>
							<g>
								<polygon class="st19" points="46.7,80.6 46.7,80.6 46.7,80.6 								"/>
							</g>
						</g>
						<g>
							<g>
								<path class="st19" d="M12.9,70.3C12.9,70.3,12.9,70.3,12.9,70.3C12.9,70.3,12.9,70.3,12.9,70.3
									C12.9,70.3,12.9,70.3,12.9,70.3z"/>
							</g>
						</g>
						<g>
							<g>
								<path class="st19" d="M55.6,1.5C55.6,1.5,55.6,1.5,55.6,1.5C55.6,1.5,55.6,1.5,55.6,1.5C55.6,1.5,55.6,1.5,55.6,1.5z
									 M57.9,0.1C57.9,0,58,0,57.9,0.1C58,0,58,0,57.9,0.1C58,0,57.9,0,57.9,0.1z"/>
							</g>
						</g>
						<g>
							<g>
								<path class="st19" d="M55.6,1.7C55.6,1.7,55.6,1.7,55.6,1.7c0,0.1,0,0.1,0,0.2C55.6,1.8,55.6,1.7,55.6,1.7z"/>
							</g>
						</g>
					</g>
					<g>
						<g>
							<g>
								<g>
									<path class="st19" d="M205.7,14.5c-10.2,3.7-13.6,16.2-12.6,26.1c1.1,10.8,11.2,17.3,21.7,15C226.4,53,226.2,38,223.6,29
										c-2.5-8.3-10.2-19.8-19.5-11.7c-1.5,1.3,0.8,2.2,1.9,1.3c8.9-7.8,14.7,9.5,15.7,15.2c1.6,9.3-0.3,21.7-12.7,19.9
										c-8.4-1.3-12.9-7.4-13-15.6c-0.1-7.8,2.1-18.6,10.3-21.6C207.9,15.8,207.4,13.9,205.7,14.5L205.7,14.5z"/>
								</g>
							</g>
						</g>
						<g>
							<g>
								<g>
									<path class="st19" d="M201.7,54.9c-2.5,18.1-5.3,36.1-8.4,54.1c-0.2,1.3,2.7,0.9,2.9-0.3c3.1-18,5.9-36.1,8.4-54.1
										C204.8,53.3,201.9,53.8,201.7,54.9L201.7,54.9z"/>
								</g>
							</g>
						</g>
						<g>
							<g>
								<g>
									<path class="st19" d="M215.6,54.4c8.3,7.7,8.2,20.4,7,30.9c-1.2,9.9-3,19.6-4.7,29.4c-0.1,0.7,2.7,0.2,2.8-0.5
										c1.6-9.9,3.5-19.7,4.7-29.7c1.3-10.6,1.2-23.3-7.1-31.1C217.8,52.9,215.2,53.9,215.6,54.4L215.6,54.4z"/>
								</g>
							</g>
						</g>
						<g>
							<g>
								<g>
									<path class="st19" d="M201.5,52.2c-6.4,2.7-12.1,6.3-17.3,10.9c0.8,0.2,1.6,0.4,2.4,0.6c0.9-10.8-5.2-20-8.2-30
										c-0.5-1.8-4.7-17.6-2.9-18.3c1.5,0.5,2.9,1,4.4,1.4c0.1,1.2,0.1,2.4-0.1,3.6c-0.2,1.7-0.6,3.4-1.2,4.9
										c-1.1,2.8-2.8,5.3-4.8,7.5c-1.2,1.4,1.5,1.9,2.4,0.9c4.1-4.5,8.8-12.9,6.1-19.2c-1.4-3.4-6.5-5-8.9-1.6
										c-1.8,2.5-0.7,7-0.4,9.8c0.6,4.9,1.7,9.7,3.3,14.4c3,8.9,8.1,17.1,7.3,26.8c-0.1,1.2,1.8,1.2,2.4,0.6
										c5-4.4,10.5-7.9,16.7-10.5C204.6,53.2,203,51.5,201.5,52.2L201.5,52.2z"/>
								</g>
							</g>
						</g>
						<g>
							<g>
								<g>
									<path class="st19" d="M217.9,54.6c2.4,7.2,5.3,14.1,8.9,20.8c1.6,3.1,3.4,6.1,5.2,9.1c0.2,0.3,1.9,2.6,2,3.1
										c0.1,1.7-0.2,1.4-1.5,2.4c-8.6,6.6-7.7,17.9-0.5,25.1c0.6,0.6,2.8,0,2.8-0.9c0-5.5-1.8-10.2-5.4-14.4
										c-0.6-0.7-3.3,0.3-2.7,1.1c3.5,4.1,5.2,8.8,5.2,14.1c0.9-0.3,1.9-0.6,2.8-0.9c-7.4-7.3-7.8-19.9,2.5-25.1
										c0.3-0.2,0.7-0.5,0.5-0.9c-7.2-10.6-12.8-22-16.9-34.1C220.5,53,217.6,53.8,217.9,54.6L217.9,54.6z"/>
								</g>
							</g>
						</g>
					</g>
					<g>
						<g>
							<g>
								<g>
									<path class="st19" d="M86.2,53.9c-3.5-2.4-5.2-6.4-4.3-10.5c-0.9,0.2-1.9,0.5-2.8,0.7c3.8,3.9,7.1,8.1,10,12.7
										c0.5,0.8,3.2-0.2,2.9-0.8c-2.9-4.7-6.3-9.1-10.2-13c-0.5-0.5-2.6,0-2.8,0.7c-1,4.3,0.7,8.7,4.4,11.2
										C84.2,55.5,86.8,54.3,86.2,53.9L86.2,53.9z"/>
								</g>
							</g>
						</g>
						<g>
							<g>
								<g>
									<g>
										<path class="st19" d="M111.4,19.3c-5.5,10.9-5.4,24.2,1.1,34.7c5.5,9,16.9,14.1,24.7,4.8c7.9-9.4,8.2-25.4,0.7-35
											c-6.9-8.8-19.6-10.9-28.6-3.8c-1.5,1.2,0.9,1.8,1.8,1c9.8-7.7,22.5-1.4,27,8.9c3.7,8.4,2.7,20-2.7,27.5
											c-9.3,12.9-21.1-3.1-23.8-12.4c-2.5-8.5-1.6-17.6,2.4-25.4C114.8,18.1,111.9,18.3,111.4,19.3L111.4,19.3z"/>
									</g>
								</g>
							</g>
							<g>
								<g>
									<g>
										<path class="st19" d="M120.3,62.3c-6.7,7-9.9,15.9-12.8,25c-2.7,8.5-4.4,16.9-5.6,25.8c-0.2,1.3,2.7,0.9,2.9-0.3
											c1.1-7.7,2.4-15.2,4.7-22.6c2.9-9.7,6-19.6,13.2-27.1C123.8,61.8,121.1,61.5,120.3,62.3L120.3,62.3z"/>
									</g>
								</g>
							</g>
							<g>
								<g>
									<g>
										<path class="st19" d="M133.6,61.9c6.2,17.4,4.6,35.7,2.3,53.7c-0.2,1.2,2.8,0.8,2.9-0.3c2.3-18.1,3.9-36.6-2.3-54.1
											C136,60,133.2,60.8,133.6,61.9L133.6,61.9z"/>
									</g>
								</g>
							</g>
							<g>
								<g>
									<g>
										<path class="st19" d="M114.7,68.1c-5.2,6-10.5,12-15.7,18c0.9,0,1.7-0.1,2.6-0.1c-2.7-8.9-3.8-17.8-4-27.1
											c-0.1-5.8-7.6-4.4-12.1-4.9c-1.2-0.1-3,1.5-1.1,1.7c1.9,0.2,3.8,0.4,5.6,0.7c0.6,0.1,1.2,0.2,1.9,0.2
											c2.2-0.1,3.1,0.6,2.8,2.3c0.8,2.3,0.1,6.2,0.3,8.6c0.5,6.5,1.8,13,3.7,19.3c0.3,0.9,2.2,0.4,2.6-0.1
											c5.3-5.9,10.5-11.9,15.7-18C118.1,67.3,115.3,67.3,114.7,68.1L114.7,68.1z"/>
									</g>
								</g>
							</g>
							<g>
								<g>
									<g>
										<path class="st19" d="M135.4,67.1c1,6.2,2.8,12,5.6,17.6c0.5,0.9,2.4,0.6,2.8-0.3c2.3-5.5,4.7-11,7-16.5
											c0.9-2.2,1.7-4.5,2.9-6.5c0.5-0.9,2.4-3.9,3.3-3.9c3.2,3.1,3.3,4.5,0.4,4.1c-1.2,0.1-2.4,0.1-3.5,0
											c-1.3-0.1-3,1.8-1.1,1.9c3.4,0.2,10.6,0.8,12.7-2.9c2.1-3.6-2.2-6.1-5.3-6c-4.7,0.2-7.9,4-9.9,7.9
											c-3.5,7-6.2,14.5-9.3,21.8c0.9-0.1,1.9-0.2,2.8-0.3c-2.8-5.6-4.6-11.4-5.6-17.6C138.1,65.2,135.2,65.9,135.4,67.1
											L135.4,67.1z"/>
									</g>
								</g>
							</g>
						</g>
					</g>
				</g>
			</g>
			<g>
				<g>
					<g>
						<path class="st19" d="M5.3,132.4c16.7-7,34-14,51.6-18.2c9.9-2.3,20.6-0.1,30.6,0.7c9.5,0.8,19,1.4,28.5,1.9
							c37.8,2.1,75.7,2.4,113.6,0.9c1.1,0,2.5-1.7,0.7-1.7c-1.8,0-5.1-0.6-5.7,1.7c-0.2,0.7,0.2,3,0.1,4c-0.2,1.8-0.7,3.7-1.1,5.5
							c-0.7,3.7-1.4,7.3-2.1,11c-0.2,1.2,2.7,0.7,2.9-0.3c0.9-4.6,1.8-9.2,2.7-13.7c0.3-1.6,0.2-4.3,0.9-5.7
							c0.6-1.3-1.8-0.7,1.2-0.7c0.2-0.6,0.5-1.1,0.7-1.7c-40.2,1.6-80.6,1.1-120.7-1.4c-9.8-0.6-19.7-1.4-29.5-2.2
							c-8.2-0.7-16-1.7-24.1,0.4c-17.6,4.5-34.9,11.2-51.6,18.2C2.3,131.9,4,133,5.3,132.4L5.3,132.4z"/>
					</g>
				</g>
			</g>
		</g>
	</g>
</g>
</svg>
