<?xml version="1.0" encoding="utf-8"?>
<!-- Generator: Adobe Illustrator 22.0.0, SVG Export Plug-In . SVG Version: 6.00 Build 0)  -->
<svg version="1.1" xmlns="http://www.w3.org/2000/svg" xmlns:xlink="http://www.w3.org/1999/xlink" x="0px" y="0px"
	 viewBox="0 0 77.3 149.6" style="enable-background:new 0 0 77.3 149.6;" xml:space="preserve">
<style type="text/css">
	.st0{fill:#FFFEFD;}
	.st1{opacity:0.9;}
	.st2{fill:#CBE5CF;}
	.st3{fill:#DCEDDF;}
	.st4{fill:#E3F1E5;}
	.st5{fill:#E0EFE2;}
	.st6{fill:#D1E8D4;}
	.st7{fill:#D4E9D7;}
	.st8{fill:#BEDEC2;}
	.st9{fill:#C3E1C7;}
	.st10{fill:#C7E2CB;}
	.st11{fill:#EEF6EF;}
	.st12{fill:#EBF5EC;}
	.st13{fill:#FEF9DA;}
	.st14{fill:#FFFDF1;}
	.st15{fill:#FDF5C7;}
	.st16{fill:#FDF2B4;}
	.st17{fill:#FCEFA5;}
	.st18{fill:#FCED95;}
	.st19{fill:#272525;}
	.st20{opacity:0.85;}
	.st21{fill:#D3E6F6;}
	.st22{fill:#C4DEF3;}
	.st23{fill:#ACD0EE;}
	.st24{fill:#E2EFF9;}
	.st25{fill:#B8D7F0;}
	.st26{fill:#9FC9EB;}
	.st27{fill:#EADAEE;}
	.st28{fill:#F7F1F8;}
	.st29{fill:#DFC7E5;}
	.st30{fill:#D5B5DC;}
	.st31{fill:#CDA6D5;}
	.st32{fill:#C497CE;}
	.st33{fill:#D8BBDF;}
	.st34{fill:#E5D1E9;}
	.st35{fill:#E8D6EB;}
	.st36{fill:#DDC3E2;}
	.st37{fill:#DFC6E4;}
	.st38{fill:#CEA9D6;}
	.st39{fill:#D2B0DA;}
	.st40{fill:#F2E9F4;}
	.st41{fill:#F0E4F2;}
	.st42{opacity:0.8;}
	.st43{opacity:0.8;fill:#DC7D5B;}
	.st44{opacity:0.8;fill:#E9AE99;}
	.st45{opacity:0.8;fill:#F0C7B8;}
	.st46{opacity:0.8;fill:#F7E1DA;}
	.st47{fill:#F7E0D8;}
	.st48{fill:#FCF3F0;}
	.st49{fill:#F2D0C4;}
	.st50{fill:#EEC0B0;}
	.st51{fill:#EBB4A0;}
	.st52{fill:#E7A790;}
	.st53{fill:#F0C6B6;}
	.st54{fill:#F5D8CE;}
	.st55{fill:#F6DCD3;}
	.st56{fill:#F1CCBF;}
	.st57{fill:#F2CFC2;}
	.st58{fill:#ECB6A3;}
	.st59{fill:#EDBDAB;}
	.st60{fill:#FAECE7;}
	.st61{fill:#F9E8E2;}
	.st62{fill:#B7E9E6;}
	.st63{fill:#CFF0EE;}
	.st64{fill:#D9F3F2;}
	.st65{fill:#D4F2F0;}
	.st66{fill:#BFECE9;}
	.st67{fill:#C3EDEA;}
	.st68{fill:#A5E4E0;}
	.st69{fill:#ACE6E3;}
	.st70{fill:#B1E7E4;}
	.st71{fill:#E8F8F7;}
	.st72{fill:#E3F6F5;}
	.st73{fill:#FDF3BA;}
	.st74{fill:#FEF7D0;}
	.st75{fill:#FEF8D5;}
	.st76{fill:#FDF4C2;}
	.st77{fill:#FDF5C5;}
	.st78{fill:#FCF0A8;}
	.st79{fill:#FDF1AF;}
	.st80{fill:#FEFBE8;}
	.st81{fill:#FEFAE4;}
	.st82{fill:#C9E1F4;}
	.st83{fill:#DBEAF7;}
	.st84{fill:#DEEDF8;}
	.st85{fill:#CFE4F5;}
	.st86{fill:#D2E5F6;}
	.st87{fill:#BBD8F1;}
	.st88{fill:#C1DCF2;}
	.st89{fill:#EDF5FB;}
	.st90{fill:#EAF3FB;}
	.st91{fill:#C5EDEB;}
	.st92{fill:#91DED9;}
	.st93{fill:#A1E3DF;}
	.st94{fill:#80D8D3;}
</style>
<g id="background">
	<rect x="-258" y="-98.6" class="st0" width="1200" height="800"/>
</g>
<g id="colour">
	<g>
		<g class="st1">
			<g class="st1">
				<path class="st2" d="M12.6,105.5c0.1-0.1,0.3-0.2,0.4-0.3c-0.2,0.2-0.5,0.5-0.7,0.7C11.6,106.5,12.5,105.6,12.6,105.5z"/>
				<path class="st2" d="M12.3,105.6C12.3,105.6,12.4,105.6,12.3,105.6c0,0,0.1,0,0.2-0.1c0,0,0,0-0.1,0.1
					C12,106,11.7,106.3,12.3,105.6z"/>
				<path class="st3" d="M4.2,113.1c2.7-2.6,4.9-4.8,7.2-7.1c0.2-0.1,0.5-0.5,0.5-0.5c0.1-0.1,0.4-0.3,0.3-0.2
					c-1.1,1.1-2.4,2.4-3.9,3.8c-0.2,0.3-0.5,0.5-1,1c-1.9,1.9-3.1,3.1-4.3,4.2C3.2,114.4,4.6,112.9,4.2,113.1z"/>
				<path class="st4" d="M4.5,112.7c0.1-0.2,1-1.1,1.3-1.4c1.1-1.1,2.3-2.2,3.2-3.2c0.5-0.5,1-1,1.3-1.3c0.2-0.2,0.4-0.4,0.6-0.5
					c0.2-0.1,0.5-0.4,0.8-0.6C10.8,106.5,6.6,110.7,4.5,112.7z"/>
				<path class="st5" d="M4.7,112.6c-0.2,0.1-0.3,0.3-0.5,0.4c0-0.1,0.1-0.1,0.2-0.3c2.1-2,3.9-3.9,5.3-5.2c0,0,0.7-0.7,0.7-0.7
					c0.5-0.5,0.3-0.3,1-1c0.3-0.2,0.5-0.4,0.6-0.5c-0.5,0.5-0.3,0.2-0.3,0.2c-0.6,0.6-0.6,0.6-0.5,0.5c-2.3,2.2-4.5,4.4-7.2,7.1
					c0,0,0,0,0,0C4.5,112.8,4.9,112.5,4.7,112.6z"/>
				<path class="st6" d="M9.6,108.4c-1.2,1.2-2.9,2.9-4.8,4.8c0.2-0.2,0.6-0.6,0.1-0.2c0-0.1,0.4-0.5-0.2,0.1
					c-0.7,0.7,2.8-2.7,4.4-4.3c1-1,1.8-1.8,2.5-2.5c-0.1,0.1-0.7,0.7-0.8,0.8c0.1-0.1,0.8-0.8,0.8-0.8s0,0.1,0,0.1c-1,1-0.2,0.2,0,0
					c0,0,0,0,0,0c0,0,0,0,0,0c-0.3,0.3-0.7,0.6-1,0.9C10.4,107.6,9.6,108.4,9.6,108.4z"/>
				<path class="st7" d="M7.4,110.2c-1.9,1.9-3.1,3.1-4.3,4.2c-0.1,0.1-0.3,0.4-0.4,0.4c0.4-0.4,0.9-0.9,1.1-1.1
					c0.3-0.2,0.5-0.5,0.5-0.5c-0.1,0.1-0.7,0.8-1,1.1c0.2-0.2,0.3-0.3,0.6-0.5c0,0,0.7-0.7,1-1c0,0-0.1,0.1-0.2,0.3
					c0.2-0.2,2.6-2.5,4.4-4.3c1-1,1.8-1.8,2.5-2.5c0,0,0.1-0.1,0.1-0.2c-0.2,0.2-0.6,0.6-0.7,0.7c0,0,0.6-0.6,0.7-0.8
					c0-0.1,0.1-0.1,0-0.1c0,0-0.5,0.5-1,1c0.7-0.7,1.1-1.2,1.4-1.4c0,0,0,0,0-0.1c0.2-0.2,0.3-0.3,0.3-0.3c0.1-0.1,0.1-0.1,0.1-0.1
					c0,0,0.2-0.2,0.2-0.3c-0.1,0.2-0.4,0.4-0.6,0.7c0,0,0-0.1,0-0.1c0,0,0,0,0,0c-1.1,1.1-2.4,2.4-3.9,3.8
					C8.2,109.4,7.9,109.7,7.4,110.2z"/>
				<path class="st8" d="M12.8,105.9c-1,1-0.9,1-2.2,2.2c-2.3,2.3-5,5-7.6,7.7c1-1.1,1.5-1.7,1.7-2c1.1-1.1,0.5-0.5,2.4-2.3
					c0.3-0.3,0.5-0.5,0.8-0.8c0.8-0.8,1.1-1,2.3-2.3C11,107.7,11.9,106.8,12.8,105.9C12.9,105.8,12.9,105.8,12.8,105.9
					C12.5,106.2,12.8,105.9,12.8,105.9z"/>
				<path class="st9" d="M13.7,104.9c0.1-0.1,0.2-0.1,0.2-0.2c-0.2,0.2-0.5,0.5-0.7,0.7c0,0-0.1,0.1-0.3,0.2
					C13.2,105.4,13.4,105.1,13.7,104.9z"/>
				<path class="st9" d="M7.9,110.7c-0.3,0.3-0.5,0.5-0.8,0.8c-1.8,1.8-1.3,1.2-2.4,2.3c0.1-0.1,0.1-0.2,0.1-0.3
					c0.2-0.2,0.4-0.4,0.6-0.6c0,0,1.8-1.8,1.8-1.8c1.9-1.8,2.3-2.2,5.3-5.1c0.2-0.1,0.3-0.2,0.3-0.2c-1,1-1.9,1.9-2.6,2.6
					C9,109.7,8.7,110,7.9,110.7z"/>
				<path class="st10" d="M7.3,111.1c0,0-1.8,1.8-1.8,1.8c-0.2,0.2-0.4,0.4-0.6,0.6c0-0.1,0-0.1,0-0.1c0,0,0.1-0.1,0.1-0.1
					c0.2-0.2,0.1-0.1,0.2-0.3c1-1,2.1-2,3-3c-1.4,1.4-2.5,2.6-3.2,3.4c0.2-0.3,1.5-1.5,1.8-1.8c1.4-1.4,4.3-4.3,5.5-5.6
					c0.2-0.2,0.5-0.3,0.7-0.5c-0.3,0.3-0.8,0.9-0.8,0.9c0.1-0.1,0.3-0.2,0.4-0.3C9.6,109,9.2,109.3,7.3,111.1z"/>
				<path class="st2" d="M8.2,110c-1,1-2,2-3,3c0-0.1,0.1-0.1,0.2-0.2c-0.2,0.2-0.4,0.4-0.7,0.7c0,0,0,0,0,0c0.1-0.1,0.9-0.9,0,0
					c0,0,0,0,0,0c0.3-0.3,0.7-0.7,1.2-1.2c-0.3,0.3-0.5,0.5-0.8,0.8c-0.5,0.5,0,0,0,0c-0.1,0.1-0.3,0.3-0.5,0.5c0.6-0.6-0.1,0-0.1,0
					c0.1-0.1,0.2-0.3,0.3-0.4c1.9-1.9,3.6-3.6,4.8-4.8c0,0,0.8-0.8,1-1c0.3-0.3,0.6-0.6,1-0.9c-1.2,1.3,0.2-0.1,0.2-0.1c0,0,0,0,0,0
					c-0.1,0.1-1.4,1.5,0.4-0.3c0,0,0,0,0.1,0c-1.3,1.2-4.2,4.2-5.5,5.6c-0.3,0.3-1.7,1.7-1.8,1.8C5.2,113.1,8.3,110,8.2,110z"/>
				<path class="st11" d="M7.4,109.6c0.1-0.2,0.3-0.3,0.4-0.5c0,0-0.2,0.3,0.3-0.3C8,109,8,109,8,109C7.7,109.2,7.5,109.4,7.4,109.6
					z"/>
				<path class="st11" d="M11,105.9C11,105.9,11,106,11,105.9c-0.5,0.5-1,1-0.8,0.8c-0.5,0.5,0,0-0.3,0.3c-0.7,0.7-0.7,0.7-0.6,0.6
					c1.1-1.1,2.3-2.3,2.3-2.3c0,0,0,0,0,0C11.4,105.5,11.3,105.7,11,105.9z"/>
				<path class="st12" d="M10.2,106.9c-0.2,0.3-0.8,0.8-1.3,1.3c-0.9,0.9-2.1,2-3.2,3.2c0.5-0.5,0.9-1,1.3-1.4
					c0.1-0.1,0.3-0.3,0.6-0.6c0,0,0,0,0.2-0.2c0.1-0.1,0.3-0.3,0.4-0.4c0,0,0,0,0,0c-0.1,0.1-0.1,0.1,0.6-0.6
					c0.3-0.3-0.3,0.2,0.3-0.3c-0.3,0.3,0.3-0.2,0.8-0.8c0,0,0,0,0,0c0.3-0.3,0.4-0.4,0.6-0.6c0,0,0.1,0,0.2-0.1
					C10.6,106.5,10.4,106.7,10.2,106.9z"/>
			</g>
		</g>
	</g>
</g>
<g id="object">
	<g>
		<g>
			<g class="st1">
				<g class="st1">
					<path class="st2" d="M29.5,132.6c-1.7,0.1-3.4,0.3-5.1,0.5c0.4-0.3,0.8-0.7,1.1-1C26.7,131.3,28.1,132.5,29.5,132.6z"/>
					<path class="st2" d="M34.1,132.4C34.1,132.4,34.1,132.4,34.1,132.4c-1.3,0.1-2.6,0.1-3.9,0.2c0.1,0,0.2,0,0.3-0.1
						C31.7,131.9,32.9,131.5,34.1,132.4z"/>
					<path class="st3" d="M54.8,120.7c-1.1,3.8-2.6,7-4,10.3c-0.4,0.2-0.8,0.7-1.1,0.7c0,0.1-2.3,0.6-3.4,0.5
						c0.6-1.6,1.2-3.4,1.6-5.5c-0.5-0.3-1.4-0.7-1.4-1.4c0.1-2.7,1-4.5,1.9-6.1C48.6,119.3,52.7,121.2,54.8,120.7z"/>
					<path class="st4" d="M59.8,120.9c1.4,0.1,3.3,1.3,4.1,1.6c-0.3,1.6-0.7,3.2-1.2,4.6c0.5,0.7,0.9,1.4,1.4,1.7
						c-0.1,0.3-0.2,0.5-0.3,0.8c-2.3,0.4-4.6,0.9-6.9,1.4C56.9,130,59.4,123.8,59.8,120.9z"/>
					<path class="st5" d="M55.8,121.3c0.5-0.2,1-0.5,1.4-0.7c0.9,0,1.8,0.1,2.7,0.2c-0.5,2.9-1.2,5.6-2.2,7.6c0.2,0,0.3,1,0.5,1
						c-0.7,0.7-1.2,0.5-1.3,1.5c-2.1,0.4-4.3,0.8-6.4,1.1c0.4-0.7,0.9-0.4,1.4-0.4c-0.3-0.8-0.6-0.9-0.9-0.7c1.4-3.3,2.8-6.5,4-10.3
						l0.4,0C55.4,121.1,55.5,121.5,55.8,121.3z"/>
					<path class="st6" d="M32.6,128.5c1.3-1.7,2.2-4.2,2.9-6.8c0.4,0.2,1.1,0.8,1.7,0.2c1,0,3.1,0.6,3.4-0.3c0.3-0.9-2.1,4-3,6.2
						c-0.1,1.4-0.6,2.6-1.2,3.6c-0.2-0.1,0-1-0.2-1.1c0,0.1-0.3,1.1-0.3,1.1s-1.5,0-2.2,0c-0.4-1.4-1.2-0.3-1.3,0l-0.6,0l0,0
						c0.3-0.5,0.6-0.9,0.8-1.3C32.6,129.6,32.6,128.5,32.6,128.5z"/>
					<path class="st7" d="M46.4,125.3c0.1-2.7,1-4.5,1.9-6.1c-0.4-0.1-1.4-0.5-1.5-0.5c0.1,0.6,0.4,1.3,0.1,1.5
						c-0.6,0.4-1.3,0.8-1.8,0.8c-0.6-0.2-1.2-1-1.9-1.4c-0.5,0.2-1,0.5-1.5,0.8c0,0-0.3,1-0.3,1.4c-0.4,0-0.7-0.1-1-0.3
						c0,0.2-2.8,3.7-3,6.2c-0.1,1.4-0.6,2.6-1.2,3.6c0,0,0.1,0,0.3,0c0.2,0,0.4,0,0.7,0.1c0.5,0,1.2,0.1,1.6,0.1
						c0-0.3-0.4-0.8-0.5-0.9c0.1,0,1,0.8,1.3,1c0.5,0.1,1.9,0.1,2,0c0.2,0-0.2-0.7-0.2-1.4c0.7,1,1.4,1.6,2.1,1.9l0.6,0
						c0.1,0.3,0.1,0.5,0,0.5c-0.1,0.1-0.2,0.1-0.4,0.2c0.4,0,1.9,0.2,2.3,0.3c-0.4-0.2-0.8-0.5-1.2-0.9c0.4,0,0.8,0,1.2,0l0,0
						c0.6-1.6,1.2-3.4,1.5-5.5C47.4,126.4,46.4,126.1,46.4,125.3z"/>
					<path class="st8" d="M6.5,132.2c-0.8-1.4-2.2-1.4-2.9-3.2c-1-3.3-0.4-7-0.7-10.8c3.5,1.6,7,2.5,10.6,3
						c-0.9,1.6-2.4,0.7-3.2,3.2c0,0.4,0.3,0.7,0.4,1.1c-1,1.1-2.5,1.4-2.6,3.2c0,1.1,0.2,2.3,0.3,3.7l-0.3,0
						C7.8,131.8,7.2,132.2,6.5,132.2z"/>
					<path class="st9" d="M13.3,133.7l-2.6,0.2c0-0.3,0-0.7,0-1c1,0,2-0.1,3-0.3C13.6,133,13.4,133.3,13.3,133.7z"/>
					<path class="st9" d="M10.7,125.4c-0.1-0.4-0.4-0.7-0.4-1.1c0.8-2.6,2.3-1.7,3.2-3.2c1.4,0.2,2.7,0.3,4.1,0.4
						c-0.2,0.3-0.5,0.6-0.7,0.9c0.8,0,0.9,2.5,1.6,2.5c-2.3,2.6-5.3,3.1-7.1,7.2c-1,0.2-2,0.3-3,0.3c-0.1-1.4-0.3-2.6-0.3-3.7
						C8.2,126.8,9.8,126.5,10.7,125.4z"/>
					<path class="st10" d="M18.6,124.9c-0.8,0-0.9-2.5-1.6-2.5c0.2-0.3,0.5-0.6,0.7-0.9c1.6,0.1,3.2,0.1,4.8,0.1
						c0.1,0,0.2,0.1,0.3,0.1c1.2,0.3,2.2,0.1,3.4,0.4c-0.8,1.4-1.5,2.9-2.3,4.2c-1.5-2-3-3.7-4.7-4.7c0.6,0.4,0.4,2.2,0.7,2.5
						c1.1,2,2.1,6.1,1.5,7.9c-2.4,0.3-4.9,0.5-7.3,0.8c-0.2-0.5-0.4-1.2-0.5-1.2c-0.7,0.2-1.4,0.3-2,0.4
						C13.3,127.9,16.3,127.5,18.6,124.9z"/>
					<path class="st2" d="M23.8,126.3c0.8-1.4,1.6-2.8,2.3-4.2c0.3,0.1,0.6,0.2,0.9,0.3c0-0.3,0-0.6-0.1-0.9l0.6,0
						c0.3,0.2,0.5,1.3,0.9,0l0.9,0c0.3,0.4,0.6,1,0.7,1.7l0-1.1c0.3-0.7,0.6,0,0.9,0c0-0.2,0-0.5,0-0.7c1.4,0.9,3.4-0.1,3.8-0.1
						c0.2,0.2,0.4,0.3,0.6,0.5c-0.7,2.7-1.5,5.1-2.9,6.8c0,0,0,1.1-0.1,1.4c-0.3,0.4-0.5,0.9-0.8,1.3c-1.7-1.7-3.8,0.2-3.9,0.2
						l-0.7,0c-1.4-0.1-3.5-2-5.1,0.5l-0.6,0.1c0.6-1.8-0.4-5.9-1.5-7.9c-0.3-0.4-1.3-2.4-0.7-2.5C21,122,23.9,126.5,23.8,126.3z"/>
					<path class="st11" d="M70,124.5c0.5,0.2,1.1,0.3,1.6,0.5c-0.6,0-1.2-0.3-1.4,0.6c-0.3-0.3-0.6-0.2-0.9-0.2
						C69.5,125,69.7,124.7,70,124.5z"/>
					<path class="st11" d="M69.3,129.7l-0.5,0c-0.1-0.7,0.2-1.5,0.5-1.1c-0.1-0.7-0.3,0-0.3-0.3c-0.1-1,0.1-1,0.3-0.9
						c0.1,1.6,0,3.2-0.2,3.2l-0.3,0C69,130.3,69.3,130.1,69.3,129.7z"/>
					<path class="st12" d="M64.1,128.8c-0.5-0.3-0.8-1-1.4-1.7c0.5-1.4,0.9-2.9,1.2-4.6c1.4,0.6,2.8,1.1,4.3,1.6
						c-0.2,0.2-0.5,0.5-0.7,0.9c0.3,0,0.6,0,0.9,0.2c0,0.2-0.1,0.4-0.1,0.6l0,0c-0.2-0.1-0.4-0.1-0.3,0.9c0,0.4,0.3-0.4,0.3,0.3
						c-0.3-0.3-0.6,0.4-0.5,1.1l0.5,0c-0.1,0.4-0.3,0.6-0.5,0.9c-1.3,0.1-2.7,0.3-4,0.5C63.8,129.3,64,129,64.1,128.8z"/>
				</g>
			</g>
		</g>
		<g>
			<g class="st1">
				<g class="st1">
					<path class="st2" d="M62.3,93.7c0-5.2-0.2-10.4-0.4-15.6c0.3,1.1,0.7,2.3,1,3.4C63.8,85.3,62.5,89.5,62.3,93.7z"/>
					<path class="st2" d="M62.2,108C62.2,108,62.2,108,62.2,108l0.1-6.1l0-6c0,0.3,0,0.5,0.1,0.8C63,100.5,63.2,104.3,62.2,108z"/>
					<path class="st3" d="M56.7,73.4c3.8,4.1,7,9.1,10.4,13.6c0.3,1.2,0.8,2.4,0.9,3.4c0,0,0.1,0.4,0.2,1.1c0.1,0.7,0.2,1.7,0.3,2.7
						c0.2,2.1,0.5,4.7,0.7,6.5c-0.9-0.9-1.8-1.8-2.8-2.6c-1-0.8-2-1.5-3.1-2.2c-0.1,0.7-0.2,1.8-0.4,2.7c-0.1,0.9-0.3,1.7-0.7,1.7
						c-1.4-0.2-2.6-1-3.7-2.2c-1.1-1.2-2-2.6-2.9-4.2c0-0.5,0.4-4,0.6-8.2c0.2-2.1,0.3-4.3,0.4-6.5C56.8,77.1,56.9,75.1,56.7,73.4z"
						/>
					<path class="st4" d="M57,57.6c0.1-2.1,0.4-4.6,0.6-6.9c0.3-2.3,0.6-4.3,0.7-5.5c1.7,1.3,3.4,2.6,4.7,4.4c0.6-1.5,1.4-2.5,1.6-4
						c0.3,0.4,0.6,0.7,0.9,1.1c0.6,7.4,1.1,14.6,1.5,21.9C66.1,68.1,60,59.4,57,57.6z"/>
					<path class="st5" d="M57.4,70.4c-0.2-1.6-0.4-3.1-0.7-4.5c0-2.8,0.1-5.5,0.2-8.3c3,1.9,5.6,4.6,7.6,7.9c0-0.5,1-0.9,1-1.4
						c0.7,2.3,0.5,3.9,1.5,4.4c0.4,6.7,0.7,13.3,1.2,19.8c-0.8-1.4-0.5-2.8-0.5-4.2c-0.8,0.7-0.9,1.7-0.6,2.8
						c-3.4-4.5-6.6-9.5-10.4-13.6c0-0.5,0-0.9,0-1.4C57.2,71.6,57.6,71.2,57.4,70.4z"/>
					<path class="st6" d="M66.2,103.5c1.6,4.2,3.9,7.1,6.4,9.5c-0.3,1.2-1,3.6-0.4,5.3c-0.1,1.4-0.3,3.3-0.5,5.3l-2.4,26l-5.9-25
						c-0.6-2.6-1.3-5-2-5.5c-0.8-0.6,1.9,2.2,4.6,4.7l6.2,5.6l-3.3-5.9c-1-1.7-1.9-3.4-2.6-4.5c-1.4-0.4-2.4-2.1-3.4-4.1
						c0.1-0.6,1,0,1.1-0.7c-0.1,0-1.1-1.1-1.1-1.1s0.3-4.5,0.3-6.7c1.4-1.1,0.4-3.8,0.1-3.9l0-1.9l0-0.1c0.4,0.9,0.9,1.7,1.3,2.6
						C65.1,103.5,66.2,103.5,66.2,103.5z"/>
					<path class="st7" d="M62.3,100.3c-1.4-0.2-2.6-1-3.7-2.2c-1.1-1.2-2-2.6-2.9-4.2c-0.1,1.3-0.2,4.4-0.2,4.8
						c0.6-0.4,1.2-1.1,1.5-0.4c0.5,2,1.2,4.4,1.3,5.9c0,1.9-0.5,4.1-0.6,6.2c0.5,1.6,1.1,3.3,1.7,4.8c0,0.1,1.2,0.8,1.6,0.7
						c0.2,1.1,0.3,2.2,0.4,3.2c0.1,0,2,2.6,4.1,4.8l8.2,8.6l-4.2-9.1c-1-2.1-2.1-4.1-3.2-4.5c-1.4-0.4-2.4-2.1-3.4-4.1
						c0,0.1-0.5,5.5-0.7,8.1c0.3-0.1,0.9-1,1-1.3c0,0.2-0.2,0.7-0.4,1.4l9.1-1.1c0-0.9,0.1-1.9,0-2.5c-0.2-0.8-0.5-2.1-0.8-3.3
						c-0.3-1.2-0.5-2.2-0.6-2.4c-0.1-0.5-0.6,0.6-1.3,0.8c0.6-2.2,0.7-4.2,0.8-6.3c-0.1-0.6-0.1-1.1-0.2-1.7
						c0.2-0.2,0.4-0.4,0.5-0.1c0.1,0.3,0.2,0.7,0.3,1c-0.1-0.5-0.2-1.9-0.3-3.3c-0.1-1.4-0.2-2.8-0.2-3.4c-0.1,1.2-0.3,2.4-0.5,3.6
						c-0.1-1.2-0.2-2.4-0.3-3.7l0-0.1c-0.9-0.9-1.8-1.8-2.8-2.6c-1-0.8-2-1.5-3.1-2.2c-0.1,0.7-0.2,1.8-0.4,2.7
						C62.8,99.5,62.6,100.2,62.3,100.3z"/>
					<path class="st8" d="M59.8,23.4c1.1-2.8,0.7-7,2.2-9.5c2.8-3.9,6.8-2.9,10.4-4.8c-0.2,11.4,0,22.8,0.3,34.2
						c-1.8-2.7-1.2-7.6-4-9.7c-0.4,0-0.6,1-1,1.5c-1.3-2.8-2-7.6-3.8-7.4c-1.1,0.1-2.2,1.1-3.6,1.6l-0.1-1.1
						C60.6,27.1,60.1,25.4,59.8,23.4z"/>
					<path class="st9" d="M60,44.3c-0.3-2.6-0.5-5.2-0.8-7.8c0.3-0.1,0.7-0.1,1-0.3c0.3,3,0.5,6.1,0.9,9.1
						C60.8,45,60.4,44.6,60,44.3z"/>
					<path class="st9" d="M67.7,35.2c0.3-0.5,0.6-1.5,1-1.5c2.8,2.1,2.2,7,4,9.7c0.1,4.4,0.2,8.7,0.3,13.1l-1-2.2
						c0.1,2.4-2.4,3-2.3,5.4c-2.9-6.9-3.9-16.3-8.4-21.2c-0.4-3-0.7-6.1-1-9.1c1.4-0.5,2.5-1.5,3.6-1.6
						C65.7,27.6,66.4,32.4,67.7,35.2z"/>
					<path class="st10" d="M69.7,59.7c-0.1-2.4,2.4-3,2.3-5.4l1,2.2l0.4,15.2c0,0.3-0.1,0.7-0.1,1c-0.2,3.9,0,7.1-0.3,10.7
						c-1.4-2.4-2.9-4.8-4.3-7.2c1.9-4.6,3.5-9.7,4.3-15.1c-0.3,2-2.1,1.5-2.4,2.5c-1.9,3.6-6,6.8-7.7,5.1c-0.4-7.4-1-14.9-1.7-22.3
						c0.4-0.5,1.1-1.3,1.1-1.7c-0.3-2.1-0.6-4.1-0.9-6.2C65.8,43.4,66.9,52.8,69.7,59.7z"/>
					<path class="st2" d="M68.7,76.2c1.4,2.4,2.9,4.8,4.3,7.2c-0.1,0.9-0.2,1.9-0.3,2.8c0.3,0,0.6,0,0.9-0.3l0,2
						c-0.2,0.8-1.3,1.6,0,2.8l0,2.9c-0.4,1-1,1.8-1.8,2.3l1.1,0c0.7,1,0,1.9-0.1,2.9c0.2,0,0.5,0,0.7,0.1c-1,4.5-0.3,10.9-0.3,12.1
						c-0.2,0.6-0.4,1.3-0.6,2c-2.5-2.4-4.8-5.3-6.4-9.5c0,0-1.1,0-1.4-0.5c-0.4-0.9-0.8-1.7-1.3-2.6c1.9-5.2,0-11.9,0-12.1l0-2.2
						c0.2-4.2,2-10.8-0.6-15.7l-0.1-1.7c1.8,1.7,5.9-1.5,7.7-5.1c0.3-1,2.3-4.2,2.4-2.5C72.9,67.1,68.5,76.5,68.7,76.2z"/>
					<path class="st11" d="M58.5,26.7c-0.1-1.7-0.2-3.3-0.4-5c0.4,1.8,0.4,3.6,1.4,4.4c-0.1,0.8,0.1,1.7,0.2,2.6
						C59.3,28.1,58.9,27.4,58.5,26.7z"/>
					<path class="st11" d="M64.1,29l0.2,1.5c-0.7,0.1-1.6-0.8-1.4-1.8c-0.7,0.1,0.1,1-0.2,1c-0.9,0.1-1.1-0.4-1.1-1.1
						c1.6-0.3,3.3,0.2,3.4,1l0.2,1C64.9,30.1,64.6,29.2,64.1,29z"/>
					<path class="st12" d="M64.7,45.6c-0.2,1.5-0.9,2.5-1.6,4c-1.4-1.7-3-3.1-4.7-4.4c0.2-2.2,0.4-4.3,0.5-6.5
						c0.1-2.2,0.2-4.3,0.1-6.5c0.3,0.7,0.7,1.5,1.1,2.1c-0.1-0.9-0.3-1.8-0.1-2.6c0.2,0.2,0.4,0.3,0.7,0.4l0,0c0,0.7,0.1,1.2,1,1.1
						c0.4,0-0.5-0.9,0.2-1c-0.2,1,0.6,1.9,1.4,1.8L63,32.4c0.4,0.2,0.8,1.1,1.1,1.6c0.2,2.1,0.5,4.2,0.7,6.3
						c0.2,2.1,0.4,4.2,0.6,6.3C65.2,46.3,65,46,64.7,45.6z"/>
				</g>
			</g>
		</g>
		<g>
			<g class="st1">
				<g class="st1">
					<path class="st2" d="M58.6,76.2c-0.5-3.8-1.1-7.6-1.7-11.3c0.4,0.8,0.8,1.6,1.2,2.4C59.3,69.9,58.4,73.1,58.6,76.2z"/>
					<path class="st2" d="M59.9,86.6C59.9,86.6,59.8,86.6,59.9,86.6c-0.3-3-0.7-5.9-1.1-8.8c0,0.2,0.1,0.4,0.1,0.6
						C59.8,81.1,60.5,83.8,59.9,86.6z"/>
					<path class="st3" d="M61.3,132.4c1.3-2,2.8-3.9,4.3-5.8c0.7-0.9,1.3-2,0.7-2.7c-0.3-0.3-0.7-0.4-1.1-0.5
						c-0.4,0-0.8-0.1-1.2-0.2c-0.1-0.1-0.3-0.3-0.4-0.6c-0.2-0.3-0.3-0.8-0.4-1.1c-0.1,0-0.3-1.3-0.5-2.9c-0.2-1.6-0.5-3.6-0.5-4.9
						c1.7,1.4,3.6,2.6,5.8,3.5c0.3-1.1,0.5-3.2,1.2-3.3c2.8,0.3,4.6,2.3,6.4,4.4c0,0.2-0.1,0.9-0.2,1.9c-0.1,0.6-0.1,1-0.2,2
						c-0.1,1-0.1,2.3-0.9,4.2c-0.4,0.9-1.1,2-1.9,2.8c-0.9,0.9-1.9,1.4-2.7,1.8c-1.8,0.7-3,0.7-4,0.7C64,132,62.5,132.1,61.3,132.4z
						"/>
					<path class="st4" d="M49.8,133.1c-3.2,0.1-7.4-0.7-9.2-0.9c0.8-1.7,1.7-3.4,2.9-4.8c-1.1-0.6-1.9-1.2-3-1.5
						c0.2-0.3,0.5-0.6,0.7-0.9c5.2-0.8,10.4-1.7,15.6-2.6C56.5,123.4,50.9,130.1,49.8,133.1z"/>
					<path class="st5" d="M59.1,131.9c-1.2,0.3-2.2,0.7-3.2,1c-2,0.2-4,0.3-6.1,0.3c1.1-3,2.8-5.8,5.1-8c-0.3,0-0.8-0.9-1.1-0.9
						c1.6-0.8,2.8-0.8,3.1-1.8l7.2-1.2c0.6-0.1,0.9-0.2,1-0.2c0.1,0-0.3,0-0.9,0.4c-0.3,0.2-0.6,0.6-0.8,0.9
						c-0.2,0.3-0.3,0.6-0.3,0.7c-0.1,0.3-0.1,0.2-0.1-0.2c0.4,0.3,0.4,0.4,0.5,0.3c0-0.1,0-0.6,0.4-1.2c0.3,1,0.3,1.4,0.2,1.2
						c0.4,0.1,0.8,0.1,1.2,0.2c0.4,0,0.8,0.2,1.1,0.5c0.5,0.7,0,1.8-0.7,2.7c-1.5,1.9-3,3.7-4.3,5.8l-1,0.1
						C60,132,59.7,131.6,59.1,131.9z"/>
					<path class="st6" d="M63.4,82.9c2,2.9,4.6,4.7,7.4,6c-0.2,0.9-0.6,2.7,0.2,3.9c0.2,2.3,0,7.1,1,7.8c1,0.7-4.4-4.6-6.8-6.6
						c-1.4-0.1-2.7-1.2-3.8-2.5c0-0.5,1-0.2,1-0.6c-0.1,0-1.2-0.7-1.2-0.7s-0.3-3.3-0.4-4.9c1.3-0.9,0-2.8-0.3-2.8L60.4,81l0,0
						c0.5,0.6,1,1.1,1.5,1.7C62.3,83,63.4,82.9,63.4,82.9z"/>
					<path class="st7" d="M69.1,114c2.8,0.3,4.6,2.3,6.4,4.4c0.1-0.9,0.3-3.2,0.3-3.4c-0.6,0.3-1.2,0.8-1.5,0.3
						c-0.5-1.4-1-3.1-1.1-4.1c0.1-1.4,0.8-2.9,1.1-4.4c-0.3-1.2-0.7-2.3-1.1-3.4c0-0.1-1.1-0.6-1.5-0.6c-0.1-0.8,0-1.5,0.1-2.3
						c-0.2-0.1-4.2-6.2-6.8-6.6c-1.4-0.1-2.7-1.2-3.8-2.5c0,0.1,0.2,4,0.3,5.9c0.3-0.1,0.8-0.9,0.8-1.1c0,0.3-0.6,2.2-0.8,3
						c0,1.2,0.3,4.2,0.4,4.4c0,0.3,0.7-0.4,1.4-0.5c-0.8,1.6-1.3,3.2-1.6,4.8c0,0.4,0,0.9,0,1.3c-0.3,0.2-0.4,0.3-0.5,0.1
						c-0.1-0.3-0.2-0.5-0.3-0.8c0,0.8,0.1,4.2,0.1,5.1c0.1-0.9,0.4-1.8,0.7-2.7c0.1,0.9,0.1,1.9,0.1,2.8l0,0.1
						c1.7,1.4,3.6,2.6,5.7,3.5C68.2,116.2,68.4,114.1,69.1,114z"/>
					<path class="st8" d="M52.5,25c1.1-2.1,0.7-5.2,2.2-7.1c2.8-3,6.7-2.5,10.3-4.1c-0.3,8.3,0,16.6,0.7,24.8
						c-1.8-1.8-1.4-5.4-4.2-6.8c-0.4,0-0.6,0.8-0.9,1.2c-1.3-1.9-2.2-5.4-3.9-5.1c-1.1,0.1-2.2,0.9-3.6,1.4l-0.1-0.8
						C53.3,27.7,52.7,26.5,52.5,25z"/>
					<path class="st9" d="M53.2,40.4c-0.3-1.9-0.7-3.8-1-5.6c0.3-0.1,0.7-0.2,1-0.3c0.3,2.2,0.7,4.4,1.2,6.6
						C54,40.8,53.6,40.6,53.2,40.4z"/>
					<path class="st9" d="M60.5,33.1c0.3-0.4,0.6-1.1,0.9-1.2c2.8,1.3,2.4,4.9,4.2,6.8c0.3,3.2,0.5,6.3,0.9,9.5l-1.1-1.5
						c0.2,1.7-2.2,2.4-2,4.1C60.2,46,58.8,39.2,54.2,36c-0.5-2.2-0.9-4.4-1.2-6.6c1.4-0.5,2.5-1.3,3.6-1.4
						C58.4,27.7,59.2,31.1,60.5,33.1z"/>
					<path class="st10" d="M63.4,50.7c-0.2-1.7,2.3-2.4,2-4.1l1.1,1.5c0.4,3.6,0.8,7.3,1.2,10.9c0,0.2,0,0.5,0,0.7
						c0,2.8,0.5,5.1,0.5,7.8c-1.6-1.6-3.2-3.1-4.8-4.8c1.6-3.5,2.8-7.3,3.4-11.4c-0.2,1.4-2,1.3-2.3,2c-1.7,2.8-5.5,5.5-7.4,4.5
						c-0.9-5.4-1.9-10.7-2.8-16.1c0.4-0.4,1.1-1,1-1.3c-0.4-1.5-0.7-3-1.1-4.5C58.8,39.2,60.2,46,63.4,50.7z"/>
					<path class="st2" d="M63.4,62.8c1.6,1.6,3.2,3.2,4.8,4.8c0,0.7,0,1.4-0.1,2.1c0.3,0,0.6-0.1,0.9-0.3l0.2,1.5
						c-0.1,0.6-1.2,1.3,0.2,2l0.3,2.1c-0.3,0.8-0.8,1.4-1.6,1.9l1.1-0.1c0.8,0.6,0.1,1.4,0.2,2.1c0.2,0,0.5,0,0.7,0
						c-0.5,3.3,0.9,7.9,0.9,8.7c-0.1,0.5-0.3,1-0.3,1.5c-2.8-1.4-5.4-3.2-7.4-6c0,0-1.1,0.1-1.5-0.2c-0.5-0.6-1-1.2-1.5-1.7
						c1.4-4-1.1-8.6-1.1-8.8L59,70.5c-0.2-3.1,1.1-8-1.7-11.3l-0.2-1.3c1.9,1.1,5.7-1.7,7.4-4.5c0.3-0.7,2-3.3,2.3-2
						C67,55.8,63.3,63,63.4,62.8z"/>
					<path class="st11" d="M26.9,131.3c-1.2-0.1-2.4-0.2-3.7-0.2c1.3-0.1,2.7,0.1,3.3-0.8c0.6,0.2,1.3,0.1,1.9,0.1
						C27.9,130.7,27.4,131,26.9,131.3z"/>
					<path class="st11" d="M28.7,125.9l1-0.1c0.1,0.7-0.5,1.5-1.3,1.2c0.1,0.7,0.7-0.1,0.7,0.3c0.1,1-0.3,1-0.8,1
						c-0.2-1.6,0.2-3.3,0.7-3.3l0.7-0.1C29.4,125.3,28.8,125.5,28.7,125.9z"/>
					<path class="st12" d="M40.5,125.9c1.1,0.2,1.9,0.9,3,1.5c-1.1,1.5-2,3.1-2.9,4.8c-3.2-0.4-6.4-0.6-9.6-0.9
						c0.5-0.3,1.1-0.6,1.5-1c-0.7,0.1-1.3,0.1-1.9-0.1c0.1-0.2,0.2-0.4,0.3-0.7l0,0c0.5,0.1,0.9,0,0.8-1c0-0.4-0.7,0.4-0.7-0.3
						c0.7,0.3,1.4-0.5,1.3-1.2l-1,0.1c0.1-0.4,0.8-0.7,1.1-1c3-0.3,6-0.7,9-1.2C41,125.3,40.7,125.6,40.5,125.9z"/>
				</g>
			</g>
		</g>
		<g>
			<g>
				<g>
					<g>
						<path class="st19" d="M-1.3,1.9c0.7,41.8,0.7,83.8,3.8,125.5c0,0.2,0.4,0.4,0.6,0.5c4.3,0.9,8.5-0.8,12.9-0.8
							c3.6,0,7.2,0.4,10.8,0.4c4.6,0.1,9.3,0,13.9,0c6.1,0,12.3-0.1,18.4-0.4c4.3-0.2,9.1,0,13.3-1.1c0.8-0.2,1.9-0.4,2.5-1.1
							c0.5-0.7,0.3-1.6,0.3-2.4c0.1-3.4,0-6.8,0-10.2c-0.1-12.3-0.2-24.6-0.4-36.9c-0.2-12.1-0.5-24.1-0.8-36.2
							c-0.2-5.7-0.4-11.3-0.6-17c-0.2-5.5,0.4-11.6-0.7-17c-1-4.9-5.4-3.7-9.8-3.9C55.9,0.9,49,0.6,42.1,0.4
							c-14-0.4-28-0.5-41.9-0.2c-0.5,0-1.8,0.5-1.6,1.3C-1.4,1.7-1.3,2-1.3,2.2C-1,3.3,1.9,2.6,1.6,1.4C1.5,1.2,1.5,1,1.4,0.7
							C0.9,1.2,0.3,1.6-0.2,2c16.7-0.4,33.4-0.2,50.1,0.5c3.6,0.2,7.3,0.3,10.9,0.5c1.6,0.1,4.4-0.2,5.9,0.4
							c3.8,1.5,3.1,3.3,3.2,6.2c0.3,8.3,0.6,16.7,0.9,25c0.5,15.5,0.8,31.1,1.1,46.6c0.1,7,0.2,13.9,0.3,20.9
							c0,3.8,0.1,7.5,0.1,11.3c0,1.9,0,3.7,0,5.6c0,1.2,0,2.5,0,3.7c-0.4,1.9-0.3,2.4,0.4,1.4c-1.2,0.9-4.5,0.6-5.9,0.7
							c-3.9,0.3-7.8,0.4-11.8,0.5c-7.6,0.2-15.3,0.3-23,0.3c-7.6,0-15.2-1-22.7,0.3c-5.9,1-3.5,1.4-4.1-1.1
							c-0.4-1.6-0.2-3.6-0.4-5.3c-0.3-4.5-0.6-9-0.8-13.5C2.7,71.4,2.2,36.5,1.6,1.6C1.6,0.3-1.3,0.8-1.3,1.9z"/>
					</g>
				</g>
			</g>
			<g>
				<g>
					<g>
						<path class="st19" d="M4.2,112.9c22.6-1.1,45.2-2.2,67.8-3.3c0.9,0,2.5-1.4,1-1.9c-0.7-0.3-1.4-0.5-2.2-0.8
							c-1.1-0.4-3.4,1.2-1.7,1.8c0.7,0.3,1.4,0.5,2.2,0.8c0.3-0.6,0.7-1.3,1-1.9c-22.6,1.1-45.2,2.2-67.8,3.3
							C3,111.1,2.3,113,4.2,112.9L4.2,112.9z"/>
					</g>
				</g>
			</g>
			<g>
				<g>
					<g>
						<path class="st19" d="M38.8,115.3c0.3,0,0.6,0,0.9-0.1c0.4-0.4,0.8-0.7,1.3-1.1c-2.3,0.3-5.4,1.3-6.3,3.6
							c-1.1,2.8,2.8,3.6,4.8,3.3c2.2-0.3,4.7-1.6,4.8-4.2c0.1-2.6-2.6-3.5-4.7-3.1c-0.3,0.1-1.7,0.3-1.7,0.8c0,0.5,0.8,0.3,1.1,0.2
							c0.9-0.2,1.9,1,2.2,1.7c0.4,1,0.2,2.5-0.6,3.2c-0.9,0.8-2.7-0.2-3.1-1.2c-0.4-1.3,1-3.1,2.3-3.2c0.5-0.1,1.6-0.2,1.9-0.7
							c0.3-0.5-0.3-0.4-0.7-0.4c-0.3,0-0.6,0-0.9,0.1c-0.5,0-1.6,0.2-1.9,0.7C37.9,115.4,38.4,115.4,38.8,115.3L38.8,115.3z"/>
					</g>
				</g>
			</g>
			<g>
				<g>
					<g>
						<path class="st19" d="M10.1,111.5C10.6,76.7,9.6,41.8,7.3,7c-1,0.3-1.9,0.5-2.9,0.8c0.7,1.3,4.7,1.3,6,1.4
							c4.3,0.5,8.6,0.9,12.9,1.2c11.6,0.9,23.2,1.5,34.9,1.2c1.3,0,5.7-0.9,6.6-0.2c1.6,1.2,0.8,4,0.8,5.5
							c-0.2,4.5-0.4,9.1-0.5,13.6c-0.3,8.4-0.4,16.8-0.3,25.3c0.1,17.5,0.8,35,2.1,52.4c0,0.6,2.9,0,2.9-0.8
							c-2.4-32.3-2.7-64.7-0.9-97.1c0-0.3-0.7-0.2-0.8-0.2c-13.1,0.6-26.2,0.3-39.3-0.7c-3.9-0.3-7.7-0.6-11.6-1
							c-1.6-0.2-8.9,0-9.7-1.5c-0.4-0.6-2.9,0-2.9,0.8c2.3,34.8,3.3,69.6,2.9,104.5C7.3,112.8,10.1,112.4,10.1,111.5L10.1,111.5z"/>
					</g>
				</g>
			</g>
		</g>
	</g>
</g>
</svg>
