<?xml version="1.0" encoding="utf-8"?>
<!-- Generator: Adobe Illustrator 22.0.0, SVG Export Plug-In . SVG Version: 6.00 Build 0)  -->
<svg version="1.1" xmlns="http://www.w3.org/2000/svg" xmlns:xlink="http://www.w3.org/1999/xlink" x="0px" y="0px"
	 viewBox="0 0 96.3 144.6" style="enable-background:new 0 0 96.3 144.6;" xml:space="preserve">
<style type="text/css">
	.st0{fill:#FFFEFD;}
	.st1{opacity:0.9;}
	.st2{fill:#CBE5CF;}
	.st3{fill:#DCEDDF;}
	.st4{fill:#E3F1E5;}
	.st5{fill:#E0EFE2;}
	.st6{fill:#D1E8D4;}
	.st7{fill:#D4E9D7;}
	.st8{fill:#BEDEC2;}
	.st9{fill:#C3E1C7;}
	.st10{fill:#C7E2CB;}
	.st11{fill:#EEF6EF;}
	.st12{fill:#EBF5EC;}
	.st13{fill:#FEF9DA;}
	.st14{fill:#FFFDF1;}
	.st15{fill:#FDF5C7;}
	.st16{fill:#FDF2B4;}
	.st17{fill:#FCEFA5;}
	.st18{fill:#FCED95;}
	.st19{fill:#272525;}
	.st20{opacity:0.85;}
	.st21{fill:#D3E6F6;}
	.st22{fill:#C4DEF3;}
	.st23{fill:#ACD0EE;}
	.st24{fill:#E2EFF9;}
	.st25{fill:#B8D7F0;}
	.st26{fill:#9FC9EB;}
	.st27{fill:#EADAEE;}
	.st28{fill:#F7F1F8;}
	.st29{fill:#DFC7E5;}
	.st30{fill:#D5B5DC;}
	.st31{fill:#CDA6D5;}
	.st32{fill:#C497CE;}
	.st33{fill:#D8BBDF;}
	.st34{fill:#E5D1E9;}
	.st35{fill:#E8D6EB;}
	.st36{fill:#DDC3E2;}
	.st37{fill:#DFC6E4;}
	.st38{fill:#CEA9D6;}
	.st39{fill:#D2B0DA;}
	.st40{fill:#F2E9F4;}
	.st41{fill:#F0E4F2;}
	.st42{opacity:0.8;}
	.st43{opacity:0.8;fill:#DC7D5B;}
	.st44{opacity:0.8;fill:#E9AE99;}
	.st45{opacity:0.8;fill:#F0C7B8;}
	.st46{opacity:0.8;fill:#F7E1DA;}
	.st47{fill:#F7E0D8;}
	.st48{fill:#FCF3F0;}
	.st49{fill:#F2D0C4;}
	.st50{fill:#EEC0B0;}
	.st51{fill:#EBB4A0;}
	.st52{fill:#E7A790;}
	.st53{fill:#F0C6B6;}
	.st54{fill:#F5D8CE;}
	.st55{fill:#F6DCD3;}
	.st56{fill:#F1CCBF;}
	.st57{fill:#F2CFC2;}
	.st58{fill:#ECB6A3;}
	.st59{fill:#EDBDAB;}
	.st60{fill:#FAECE7;}
	.st61{fill:#F9E8E2;}
	.st62{fill:#B7E9E6;}
	.st63{fill:#CFF0EE;}
	.st64{fill:#D9F3F2;}
	.st65{fill:#D4F2F0;}
	.st66{fill:#BFECE9;}
	.st67{fill:#C3EDEA;}
	.st68{fill:#A5E4E0;}
	.st69{fill:#ACE6E3;}
	.st70{fill:#B1E7E4;}
	.st71{fill:#E8F8F7;}
	.st72{fill:#E3F6F5;}
	.st73{fill:#FDF3BA;}
	.st74{fill:#FEF7D0;}
	.st75{fill:#FEF8D5;}
	.st76{fill:#FDF4C2;}
	.st77{fill:#FDF5C5;}
	.st78{fill:#FCF0A8;}
	.st79{fill:#FDF1AF;}
	.st80{fill:#FEFBE8;}
	.st81{fill:#FEFAE4;}
	.st82{fill:#C9E1F4;}
	.st83{fill:#DBEAF7;}
	.st84{fill:#DEEDF8;}
	.st85{fill:#CFE4F5;}
	.st86{fill:#D2E5F6;}
	.st87{fill:#BBD8F1;}
	.st88{fill:#C1DCF2;}
	.st89{fill:#EDF5FB;}
	.st90{fill:#EAF3FB;}
	.st91{fill:#C5EDEB;}
	.st92{fill:#91DED9;}
	.st93{fill:#A1E3DF;}
	.st94{fill:#80D8D3;}
</style>
<g id="background">
	<rect x="-721.1" y="-191.4" class="st0" width="1200" height="800"/>
</g>
<g id="colour">
</g>
<g id="object">
	<g>
		<g>
			<g class="st1">
				<g class="st1">
					<g>
						<path class="st13" d="M14.2,23.8c-0.1-0.6,0.6-1.2,1-1.7c1.8-1.8,3.8-3.2,5.9-4.5c1.5-0.7,3-1.9,3.9-3.1
							c0.6,0,1.1-0.1,1.6-0.1c1.7-1.1,3.5-2.1,5.3-2.7c0.7-0.2,1.5-0.4,2.2-0.6c1.9,0,3.3-0.8,4.3-0.4c0.6-0.1,0.9-0.4,1.4-0.7
							c1.7,0,3.4-0.6,4.4-1c0.7-0.1,1.3-0.1,1.9-0.2c0,0,0-0.1,0-0.2c2.8-0.4,5.4-0.6,8-0.3c1.4,0.4,2,0.9,2.5,0.7
							c0.3,0.1,0.6,0.1,0.8,0.2c0.6,0.2,1.1,0.3,1.7,0.6c0.4,0.5,0.8,0.9,1.2,1.4c-0.6,0.1-1.2,0.3-1.8,0.5c-0.5-0.2-1-0.3-1.5-0.5
							c-0.2-0.1-0.5-0.2-0.8-0.2c-0.4-0.1-0.9-0.1-1.4-0.2c-0.8-0.2-1.5-0.3-2.4-0.4c0,0.2,0,0.5,0,0.7c-0.5,0-1.1,0.1-1.7,0.1
							l0-0.8c-0.2-0.1-0.4-0.2-0.6-0.3c-0.3-0.2-0.6-0.4-0.9-0.6c-0.7,0-1.4,0.1-2.1,0.2c-0.3,0-0.6,0-1,0c-0.3,0.3-0.6,0.6-0.8,0.8
							c-1,0-1.3,0.2-1.2,0.4c-0.2,0.5,0.5,0.6,0.7,0.9c-0.3,0.3-0.7,0.7-1,1c-0.4,0-0.8,0-1.2-0.1c-0.8,0.2-1,1-1.7,1.3
							c-0.7,0-1.4,0-2.2,0.1c-0.4,0-0.8,0-1.2,0c-0.6,0-0.6,0.6-1,0.7c-2.8,0.8-5.4,1.8-7.9,3c-1.2,0.2-1.7,0.5-1.9,0.8
							c-1.9,1-3.7,2.2-5.3,3.5c-1,0.5-1.9,1.5-2.6,2.4c-0.8-0.4-1.1-0.3-1.3-0.3c-0.2-0.3-0.3-0.6-0.4-1c-0.1-0.4-0.7,0.1-0.9-0.5
							C15.3,23,14.8,23.4,14.2,23.8z"/>
					</g>
					<g>
						<path class="st14" d="M45.3,10.4c0.3-0.3,0.6-0.5,0.8-0.8c0.4,0,0.7,0,1,0c0.7-0.1,1.4-0.2,2.1-0.2c0.3,0.2,0.6,0.4,0.9,0.6
							c0.2,0.1,0.5,0.2,0.6,0.3l0,0.8c-0.4-0.1-0.8-0.1-1.2-0.1c-0.8,0-0.9,0.5-1.3,0.4c-0.2,0-0.3-0.1-0.5-0.1
							c-0.5,0.2-1,0.4-1.5,0.7c-0.4-0.2-0.7-0.3-1-0.5l-0.4,0.1c-0.1-0.3-0.8-0.4-0.7-0.9C44.1,10.7,44.3,10.4,45.3,10.4z"/>
					</g>
					<g>
						<path class="st13" d="M55.4,7c0.7-0.7,0.9-0.7,1.2-0.8c0.5,0.3,1,0.4,1.5,0.6c0.5,0.2,1,0.3,1.5,0.4c1,0.3,2,0.7,2.6,1.6
							C63,9,63.9,9.3,64.9,9.6c1,0.5,1.4,1.7,2.5,1.7c0.5,0.5,0.9,1,1.3,1.6c0.8,0.6,1.5,1.3,2.3,2c0.4,0.6,0.8,1.1,1.2,1.6
							c0.3,0.3,0.5,0.6,0.8,1c0.4,0.1,0.8,0.2,1.3,0.6c-0.5-1.2-0.9-1.6-1.2-2c0-0.1,0.1-0.3,0.1-0.4l0.6-0.5
							c0.5,0.4,0.9,0.8,1.4,1.2c0.5,0.5,1,1.1,1.4,1.6c0.4,0.5,0.9,1.1,1.3,1.6c0.1,0.1,0.2,0.3,0.3,0.5c0.1,0.4,0.2,0.9,0.3,1.4
							c0.8,0.3,0.7,1.4,0.8,1.9c0.1,0.2,0.1,0.3,0.2,0.5c0.3,0.7,0.7,1.6,1.1,2.4c-0.7-0.4-1-1.2-1.6-2.1c-0.4,0.2-0.6,0.3-0.7,0.4
							c-0.2-0.3-0.4-0.6-0.7-1.1c-0.5-0.3-1-0.6-1.5-0.9c-0.6,0.1-1.2,0.3-1.7,0.4c-0.1,0.1-0.3,0.2-0.4,0.3c-1-0.3-2.1-1.9-1.8-2.6
							c-0.1-0.2-0.1-0.3-0.2-0.5c0-0.4,0-0.8,0.1-1.3c-0.5-0.3-1-0.7-1.5-1c0,0.3-0.1,0.6-0.2,0.8c-0.3,0.1-0.5,0.2-0.8,0.3
							c-0.5,0.2-1.8-0.7-1.4,0.6c-0.3,0-0.5,0-0.7,0c-0.2-0.5-0.5-1-0.8-1.4c-0.9-0.7-1.3,0.3-2.2,0.4c0.2,0.2,0.5,0.5,0.7,0.7
							c0.1,0.4,0.2,0.9,0.3,1.3l0.4,0.5l0.3,0.3c1,0.7,1.4,1.3,2,1.4c0.1,0.5,0.3,0.9,0.4,1.3c1.1,0.8,0.5,2.2,1.8,2.8
							c0,0,0.1-0.1,0.1-0.1c0.5,0.3,0.9,0.7,1.4,1c0.2,0.3,0.4,0.6,0.7,1.2c0.4,0.3,0.9,0.6,1.3,0.9c0.1,1.2,1.7,2.7,1.1,3.6
							l-1.2,0.5c-0.1-0.2-0.2-0.4-0.3-0.6c-1.7,0-1.6-2-2.5-2.1c-0.3-0.4-0.4-1,0.1-1.3c-0.4-0.8-0.8-1.6-1.2-2.4
							c-0.4-0.1-0.8-0.2-1.2-0.3c-0.9-1.6-2.4-2.9-2-4.5c-0.2-0.4-0.7-0.7-0.5-1.2c-0.4,0-0.7,0.1-1,0.1c-0.3-0.3-1.4-0.5-1.1-1.4
							c-0.1-0.1-0.2-0.2-0.3-0.3c-0.6-0.2-0.9-0.4-1.2-0.7c0-0.5-0.2-1.1-0.1-1.6c0.6-0.4,0.9,0.4,1.6,0.3c0-0.5,0-1.2-0.1-1.7
							c0.4-1.1-0.3-1.5-0.8-1.9c-0.1-0.3-0.3-0.6-0.4-0.9c-0.4-0.4-0.9-0.3-1.4-0.7c0-0.4,0-0.8,0-1.2c1.3,0.6,1.8-0.3,2.4-0.1
							c0.7,0.5,1.3,1,2,1.6c0.5,0.4,0.9,0.8,1.4,1.2c0.5,0.3,0.9,0.6,1.4,1c0.4,0.3,0.9,0.7,1.4,1.1c-1-1.5-1.6-2.3-2.3-2.5
							c-0.5-0.4-0.9-0.8-1.4-1.2c-0.7-0.6-1.4-1-2.1-1.6c-0.4-0.3-0.8-0.5-1.2-0.8c-0.3-0.5-0.7-0.9-1.1-1.4
							c-0.5-0.2-1.1-0.3-1.7-0.4c-1.4-0.7-3-1.2-4.7-1.6c-0.1,0-0.2,0.1-0.2,0.1C55.4,7.2,55.4,7.1,55.4,7z"/>
					</g>
					<g>
						<path class="st14" d="M72.6,30c0.8,0.8,1.1,1.4,1.3,1.9c-0.1,0.3-0.1,0.8-0.3,0.9c-1-1-1.5-1.7-1.5-2.3
							C72.3,30.2,72.5,30.1,72.6,30z"/>
					</g>
					<g>
						<path class="st13" d="M86.4,48.7c0,0.8-0.1,1.6-0.2,2.4c-0.4,0.7-0.4,1.8-0.5,2.6c-0.1,0.9-0.2,1.8-0.4,2.7
							c-0.3,0.9-0.7,1.8-1,2.6c-0.2,0.6-0.6,1.2-0.9,1.7c-0.2,0.5-0.5,1-0.8,1.4c-0.3,0.5-0.7,1.1-1,1.6c-0.2,0.2-0.4,0.5-0.6,0.8
							c-0.2,0.2-0.5,0.4-0.8,0.6c-0.4,0.7-0.8,1.4-1.3,2.1c-0.3,0.4-0.5,0.8-0.8,1.2c-0.6,0.9-1.4,1.7-2,2.5
							c-1.4,0.1-1.6,2.3-3.5,3.2c-0.3,0.6-0.7,1.1-1,1.7c-0.6,0.4-1.2,0.8-1.7,1.1c-0.3,0.4-0.5,0.8-0.7,1.2c-0.4,0.3-0.7,0.5-1,0.8
							c-0.4,0.5-1,0.7-1.3,0.4c-0.2,0.6-0.3,1-0.4,1.6c-0.7,0.8-1.4,1.5-2,2.2c-0.1,0.1-0.2,0.1-0.3,0.1c-1.4,1.7-2.8,3.5-4,5.4
							c0,0.4,0.1,0.9-0.1,1.2l-0.3,0.4c-0.4,0.3-0.7,0.6-1,0.9c-0.4,0.4-0.5,0.9-0.7,1.3c-1.7,2.1-0.9,2.7-1.4,3.9
							c-0.3,0.6-0.4,1.1-0.6,1.6c-0.5,0.4-1,1.2-1.4,2c-0.4,0.8-0.7,1.8-0.9,2.5c-0.3,0-0.5,0.1-0.8,0.1c-0.3,0.7-0.5,1.4-0.8,2.2
							l-0.8,1.2c-0.1,0.4-0.2,0.8-0.1,1.5c0.1,0,0.2,0.1,0.3,0.2l-0.1,1.5c-0.1,0.2-0.3,0.5-0.4,0.7c0,0.4,0.1,0.9,0.2,1.3
							c-0.2,1.1-0.3,2.1-0.4,3.1c0.3,0.8,0.1,1.7,0,2.6c-0.1,0.9-0.2,1.8,0.1,2.6c-0.1,0.7-0.6,1.2-0.3,1.9
							c-0.1,0.6-0.2,1.3-0.3,1.9c-0.4,2,0.7,3.2-0.3,4.9c-0.2,0.6,0.3,1,0.4,1.5c-0.1,1-0.1,2-0.2,3c0.7,0.2,0,1.4,0.4,2.2
							c0,0.9-0.1,1.8-0.1,2.7c-0.1,0.2-0.1,0.4-0.2,0.5c-0.4,0-0.8,0-1.2,0.1c-0.3-0.5-0.5-1-0.8-1.5c-0.1-0.4-0.3-0.8-0.5-1.2
							c-0.1-0.7-0.2-1.5-0.3-2.2c-0.2-1.5-0.7-1.6-0.7-2.3c0-0.1,0-0.2,0-0.3c0-0.9-0.1-1.7-0.1-2.5c0-0.5,0.1-0.9,0.1-1.4
							c-0.1-0.6-0.2-1.2-0.3-1.8c0-1,0.5-2.2-0.1-3.2c0-0.5-0.1-1-0.1-1.5c0.2-0.6,0.5-1.2,0.7-1.9c0-1.1-0.2-1.7-0.2-2.5
							c-0.1-0.7-0.2-1.5-0.2-2.2c0.4-1.1,0.1-2.1,0.6-3.1c0.1-0.4,0.3-0.7,0.5-1.1c-0.2-0.3-0.3-0.7-0.4-1.1
							c0.2-0.6,0.3-1.1,0.5-1.7c0.2-0.8,0.5-1.5,0.8-2.2c0.4-1.4,0.9-2.7,1.4-4c0-0.7,0.2-1.5,0.5-2.2c0.3-0.8,0.7-1.6,1.1-2.4
							c0.4-0.8,0.9-1.6,1.3-2.4c0.4-0.8,0.7-1.5,0.9-2.2c1.3-2.5,2.8-4.9,4.4-7.2c2.2-3.1,4.7-6,6.7-8.5c0.2-0.2,0.4-0.4,0.6-0.5
							c0.2,0.2,0.5,0.3,0.7,0.5c0.2,0.1,0.4-0.2,0.7-0.5c0-0.4,0-0.9-0.2-1.1c0.7-1.5,1.6-2.1,2-2.9c0.3-0.3,0.7-0.7,1-1
							c0.4,0.5,0.8,1,1.1,1.5c0.1,0.2,0.1,0.4,0.2,0.6c-0.6,0.6-1.2,1.3-1.7,1.9c-1,1.2-1.9,2.4-2.9,3.5c-0.2,0.2-0.5,0.5-0.8,0.7
							c-0.5,0.4-1,0.8-1.5,1.2c-0.7,0.9-1.3,1.8-2,2.8c-0.6,0.7-1.1,1.3-1.7,1.9c-0.5,0.8-0.8,1.6-1.1,2.6c0.5-0.4,1.1-0.8,1.7-1.1
							c0.4-0.6,0.8-1.1,1.2-1.6c0.2-0.3,0.4-0.6,0.7-1l0.4-0.4l0.6-0.6c1.7-1.2,2-1.9,2.8-2.5c0,0,0.1-0.1,0.2-0.2
							c0.4-0.6,0.9-1.1,1.3-1.7c0.5-0.4,0.9-0.7,1.4-1.1c0.4-0.7,0.9-1.3,1.4-2c0,0,0.1-0.1,0.2-0.2c0.5,0,1,0,1.5-0.1
							c-0.2-0.4-0.5-0.8-0.7-1.2c0,0-0.1-0.1-0.1-0.1c0.3-0.3,0.5-0.5,0.7-0.7c3-1.9,2.5-4.1,4.5-5.8c0.2-0.8,0.5-1.1,0.6-1.6
							c0.3,0,0.6-0.1,0.9-0.1c0-0.4-0.1-0.8-0.1-1.3c0.4-0.5,0.8-0.9,1.1-1.3c-0.2-0.2-0.4-0.5-0.6-0.7c0.2-0.5,0.5-1,0.7-1.5
							c0.4,0,0.8,0,1.2,0c0,0,0.1,0.1,0.1,0.1c-0.3,0.7-0.6,1.3-1,2c0.3,0.2,0.6,0.4,0.8,0.6c0.4-1.1,2.1-1,1.3-2.2
							c0.7-0.8,0.4-1.2,0.6-1.5c0.1-0.4,0.2-0.9,0.4-1.3c0-1.1-1.3-0.9-1-2.1c0.1-0.2,0.2-0.5,0.2-0.8c0.1,0,0.3,0.1,0.5,0.2
							c0.3,0.3,0.5,0.5,0.8,0.8c0.6-0.6,1.1-0.8,1.4-1.9c0-0.8,0-1.4,0-2.1c0-0.3-0.6-0.7-0.4-1.3c0.1-0.7,0.1-1.4,0.1-2.1
							c0.3-0.3,0.7-0.5,1-0.8C86,47.6,86.2,48.1,86.4,48.7z"/>
					</g>
					<g>
						<path class="st14" d="M66.6,73.8c0.3,0.3,0.2,0.7,0.2,1.1c-0.2,0.2-0.4,0.5-0.7,0.5c-0.2-0.2-0.5-0.3-0.7-0.5
							C65.9,74.5,66.2,74.1,66.6,73.8z"/>
					</g>
					<g>
						<path class="st15" d="M32.8,74.3c-0.4-0.1-0.8-0.2-1.1-0.3c-1.8-0.9-1.8-0.4-1.9-0.2c-0.6-0.1-1.2-0.1-1.9-0.2
							c-0.6-0.3-1.4-0.6-2-0.8c-1.2-0.5-1.7-1.1-2.2-1.5c-0.5-0.4-0.9-0.8-1.9-0.8c-0.8,0-1.4-0.4-2-0.9c-0.6-0.5-1.3-1.1-2.3-1.1
							c-0.9-0.6-1.5-1.2-2.1-1.7c-0.6-0.5-1.1-0.8-1.7-1c-0.3-0.2-0.5-0.4-0.8-0.6c-0.5-0.3-0.9-0.6-1.4-1c-0.9-0.2-1.1-0.4-2.1-0.9
							c-0.1-0.5-0.1-0.9-0.1-1.4c-0.4-0.4-0.8-0.8-1.3-1.2c-0.4-0.8-0.7-1.2-0.9-1.6c-0.2-0.4-0.4-0.6-0.5-0.9
							c-0.5-0.8-0.9-1.6-1.3-2.5c-0.8-0.7-1.6-1.7-2.2-2.8c-0.6-1.1-1.1-2.2-1.2-3c0.2-0.5-0.3-1.2-0.5-1.7
							c-1.2-0.5-0.1-1.5-0.6-2.5c-0.5-3.4-0.4-7.2-0.3-10.7l0.3-1.7c0.8-1,1-2.2,1.3-3.6c0.1-0.7,0.3-1.3,0.5-2
							c0.2-0.6,0.5-1.3,0.9-1.7c1.1-2.8,3.5-5.5,5.4-8.5c0.6-0.4,1.2-0.9,1.8-1.4c0.6-0.5,1.2-1.1,1.6-1.8c1-1,2.1-1.9,3.2-2.7
							c3.5-1.7,6.7-4.1,9.5-4.9C31,4.5,37.5,2.4,43.3,1.6c0.3,0.3,0.9-0.1,1.4-0.1c0.3-0.9,0.8,0.1,1.7-0.2c2.7-0.5,6.1-0.1,8.4-0.5
							c0.2,0,0.4,0,0.6,0.1c0.5,0.2,0.9,0.4,1.4,0.6c0.9,0.2,1.9,0.5,3,0.6c0.6,0.2,1.2,0.4,1.7,0.6c1.2,0.6,1.6,1,2.2,0.9
							C67,5.3,68.9,7,71,8.4c0.1,0.1,0.3,0.2,0.4,0.4c0.4,0.4,0.8,0.8,1.3,1.2c1.2,0.9,1.7,1.8,2,2.6c0.4,0.8,0.8,1.3,1.8,1.5
							c0.5,0.6,0.9,1.1,1.4,1.7c1.5,2.8,2.5,4.4,3.7,6.7c0.9,1.3,1.7,2.6,2.5,3.9c0.4,1.4,0.6,2,0.9,2.6c-0.2,0.2-0.3,0.4-0.5,0.5
							c0.1,0.6,0.2,1.3,0.3,1.9c1,0.4,1.2,3.2,2,3.9c0.6,1-0.5,1.1,0.4,2.1c0.2,0.4,0.5,1,0.9,1c0,0.2,0.1,0.4,0.1,0.5
							c0.3,0.3,0.6,0.7,0.9,1c0.3,1.4,0.6,1.7,0.8,2.4c-0.1,0.4-0.2,0.9-0.4,1.3c0.7,0.4,0.5,1.5,0.8,2c0.3,0.4,0.2,1.7,0,2.5l0,1.4
							l-0.1,1.4c0,0.3-0.1,0.7-0.1,1.1c0.6,0.5,0.2,1.3,0.1,1.7c-0.3,1-0.5,1.9-0.9,2.9c-0.1,0.8,0.1,1.1-0.1,1.5
							c-0.3,0.4-0.5,0.7-0.8,1.1c-0.2,0.3,0,0.7-0.3,1.3c-0.2,0.5-0.5,1-0.7,1.5c-0.1,0.3-0.2,0.7-0.3,1.1c-0.2,0.5-0.5,1-0.7,1.5
							l-0.3,0.4c0.3,0.9-0.7,1.7-0.7,2.3c-0.2,0-0.4,0.1-0.5,0.2c-0.3,0.5-0.6,0.9-1,1.3l-0.9,0.9c-0.8,1.6-2.5,2.9-3.6,4.6
							c0.1,0.1,0.2,0.2,0.3,0.4c-0.1,0.2-0.3,0.4-0.4,0.7c-0.5,0.5-0.9,1.1-1.3,1.6c-0.2,0-0.4,0.1-0.6,0.1l-0.8,1
							c0.1,0.1,0.1,0.2,0.2,0.3c-0.1,0.1-0.1,0.1-0.2,0.2c-0.7,0.7-1.4,1.5-2.1,2.3c-0.6,0.3-1.3,0.6-1.9,0.9c0,0.1-0.1,0.2-0.1,0.3
							c-0.4,0.6-0.8,1.2-1.2,1.8c-0.1,0.3-0.8,1.2-0.5,1.4c-0.4,0.2-0.8,0.4-1.2,0.5c-0.7,0.4-0.5,1-0.6,1.3c-1,0.9-2,1.8-3,2.8
							l-0.3,0.4c0.2,0.7-0.4,1.2-0.8,1.4c-0.2,0.3-0.4,0.5-0.6,0.8c0.2,0.8-0.4,1.3-0.4,1.7c-0.9,0.9-1.8,1.8-2.6,2.8
							c-0.1,0.4-0.2,0.7-0.4,1c-0.1,1.1-0.2,1.5-0.6,1.8c-0.4,0.9-0.9,1.9-1.2,2.9c0.4,0.6,0,1.2-0.3,1.5c-0.3,0.6-0.5,1.3-0.8,2
							c0.5,0.6,0,1.3-0.2,1.6l-0.7,1.6c-0.1,0.5-0.2,1-0.4,1.5c-0.1,0.5-0.2,1.1-0.3,1.6c-0.2,1-0.4,2-0.4,2.9
							c0.5,0.9,0,1.9-0.2,2.7c0.6,0.9-0.1,2.2,0.2,3c0,1.1,0.1,2.2,0.2,3.2c0.1,1.1,0.1,2.2-0.2,3.4c0.5,0.6-0.2,2.2,0.8,2
							c-0.4,2.7,0.8,4.1,0.5,6.8c0.2,1.1,0.6,1.5,0.6,2.7c-0.3-0.2-0.5,0.1-0.8,0.4c0.1,1.4,0.1,2.8,0.2,4.2c-0.5,0-1,0.1-1.5,0.1
							c-0.4,0-0.8-0.1-1.2-0.2c-0.2-0.4-0.4-0.4-0.7-0.9c-0.7-0.3-1.5-0.6-2.2-0.8c-0.4,0.1-0.8,0-1.2,0.1c-0.1-0.3-0.2-0.7-0.3-1.1
							c0.3-0.7,0.5-1.4,0.9-2c0.1,0.1,0.2,0.3,0.3,0.3c0.6-0.1,1.2-0.1,1.9-0.3c0.2,0.1,0.4,0.3,0.7,0.4c0,0.2,0,0.4,0,0.5
							c0,0.5,0,1,0,1.6c0.3-0.3,0.6-0.6,0.8-1c0.2-0.1,0.5-0.3,0.7-0.4c0.4-0.2,0.7-0.4,1-0.7c-0.4-0.5-0.8-0.9-1.2-1.5
							c0-0.1-0.1-0.2-0.1-0.2c-0.1-0.8-0.1-1.6-0.1-2.4c0.3-1.5-0.3-1.1-0.5-1.6c0-0.2,0-0.4,0-0.5c0.1-0.3,0.3-0.5,0.4-0.7
							c-0.1-0.8-0.1-1.6-0.2-2.5c0.1-0.6,0.2-1.3,0.3-2c-0.2-0.4-0.4-0.8-0.6-1.2c0.1-0.1,0.2-0.3,0.4-0.5c0-0.3,0.1-0.7,0.1-1
							l0.3-1.3c0.5-1.3-0.6-0.9-0.7-1.8c0.1-0.7,0.2-1.4,0.3-2.1c0.1-0.6,0.3-1.2,0.5-1.8c0-0.7,0-1.4,0.1-2.1
							c-0.2-0.3-0.5-0.5-0.7-0.8c-0.1-0.1-0.1-0.2-0.1-0.3c-0.1-0.5-0.1-1.2-0.1-1.7c0-0.8-0.1-1.6-0.1-2.4c0.2-0.5,0.7-0.7,0.7-1.4
							c0.7-0.2,0.4-1,0.5-1.5c0.1-0.4,0.2-0.9,0.3-1.3c0.4-0.7,0.9-1.3,1.3-2c-0.2-0.1-0.4-0.2-0.6-0.3c0-0.5,0.2-1.1,0.3-1.6
							c0.3-0.1,0.5-0.1,0.8-0.2c0.2-0.6,0.4-1.2,0.6-1.8c0.4-0.5,0.9-1,1.4-1.6c0.1-0.3,0.2-0.7,0.3-1l-0.2-1.2
							c0.3-0.2,0.6-0.4,0.9-0.6c0.1-0.4,0.3-0.9,0.4-1.3c-0.3-0.7,0.3-1.2,0.6-1.6c0.4-0.6,0.7-1.2,1.1-1.8c-0.3-0.6,1-1.5,1.1-2.2
							c0.8-1.3,1.8-2.2,2.4-3.2c0.9-1.1,1.8-2.2,2.7-3.3l0.9-0.9c0.3-0.5-0.4-0.5-0.1-1.1c0.2-0.2,0.4-0.3,0.5-0.5
							c0.1-1.2,1-2,1.4-2c0.7,0.6,0.8,0.3,1.1,0.1c0.2-0.5-0.3-0.6-0.5-0.7c0.2-0.6,0.4-1.2,0.6-1.7c0.3-0.3,0.6-0.6,0.9-0.9
							c1.1,0,1.6-1.8,2.8-2.6c1-1.2,2.2-2.7,2.2-4c0.4-0.4,0.8-0.8,1.2-1.2c0.1,0.1,0.2,0.2,0.2,0.3c1-0.9,0.3-1,0.7-1.4
							c0.1-0.2,0.2-0.3,0.3-0.4c1.2-0.3,2.2-1.4,1.7-1.8c0.9-1,0.2-1.1,0.5-1.5c0.3-0.5,0.5-1,0.7-1.5c1.2-0.8,1.5-0.6,1.9-0.5
							c0.5-0.5,1.1-1.5,0.9-2.4c-0.1-0.3-0.1-0.7-0.2-1c0.3-0.3,0.5-0.6,0.8-1c0.2-0.6,0.2-1.4-0.2-1.7c0.2-0.4,0.4-0.8,0.6-1.1
							c0.1-0.6,0.1-1.2,0.2-1.8c0.4-0.2,0-1.3,0.8-1.1c0-0.6,0-1.1-0.1-1.6c-0.9-1-1.3-2.5-1.4-4.3c0.1-1.2,0-2-0.4-2.6
							c0-1.8-0.8-0.8-0.8-1.7c0-0.4,0-0.8-0.1-1.3c0.1-0.9-0.7-1.1-0.9-1.7c0.1-0.3,0.3-0.7,0.4-1.1c-0.4-1.3-0.6-2-1.6-2.6
							c-0.4-1.4-1-2.7-1.6-4.1c-0.5-1.1-1.1-2.2-1.6-3.2c-0.4-0.8-0.8-1.6-1.1-2.4c-0.1-0.2-0.1-0.4-0.2-0.5c0-0.5,0-1.6-0.8-1.9
							c-0.1-0.5-0.2-0.9-0.3-1.4c-0.1-0.2-0.2-0.3-0.3-0.5c-0.4-0.6-0.9-1.1-1.3-1.6c-0.5-0.5-1-1.1-1.4-1.6c-0.5-0.4-1-0.8-1.4-1.2
							l-0.6,0.5c0,0.1-0.1,0.3-0.1,0.4c0.3,0.4,0.7,0.8,1.2,2c1.4,0.8,1.7,1.7,1.5,2.1c-0.3-0.1-0.5-0.1-0.7-0.2
							c-0.3-0.5-0.6-1-1-1.5c-0.9-0.4-1.4-1.3-2-2c-0.4-0.5-0.8-1.1-1.2-1.6c0.1-0.3,0.2-0.6,0.3-0.9c-0.1-0.1-0.1-0.1-0.2-0.2
							c-0.4-0.3-0.8-0.6-1.2-1c-0.3-0.1-0.6-0.1-0.9-0.1c-0.3-0.5-0.5-1-0.8-1.4c0.1-0.2,0.3-0.3,0.4-0.5c-0.1-0.1-0.1-0.2-0.1-0.3
							c0.2-0.2,0.4-0.5,0.7-0.8c-0.5-0.3-1.1-0.7-1.6-1c0,0-0.1-0.1-0.2-0.1c-0.4-0.3-0.8-0.7-1.2-1.1c-0.2-0.1-0.3-0.3-0.4-0.4
							c-0.5-0.1-0.9-0.3-1.3-0.4c-0.9-0.2-1.6-0.4-2.1-0.6c-0.6-0.2-1-0.5-1.3-1c-0.2-0.1-0.3-0.2-0.5-0.4c-1.1-0.2-2.2-0.4-3.3-0.4
							c0.4,1-1.3,0.2-1.6-0.1c-2.2,0.5-3.6-0.2-5.1-0.1c-0.7,0.1-1.4,0.2-2.2,0.3c-1.7,0.5-3.5,0.4-5.3,0.5
							c-1.7,0.1-3.4,0.3-4.8,1.5c-0.6,0.2-1.4,0-1.7,0.5c-1,0.4-1.1,0.6-1.2,0.7C35,8,36.4,7.7,36.5,7.1c0.4-0.1,0.8-0.2,1.3-0.3
							c0.1,0.7,1.2-0.2,1.6,0.1c0.9-0.5,2.2-0.6,3.3-0.9c-0.1,0.8,1.3,0.3,1.7,0.5c0,0.2,0.1,0.4,0.1,0.7c-1.4,0.2-2.7,0.5-4,0.8
							c-0.7-0.2-1.5,0.3-2,0.7C37.6,9,36.8,9.2,36,9.6c-0.9,0.1-1.7,0.2-2.6,0.3c-0.3,0.1-0.7,0.2-1,0.3c-0.5,0.2-1,0.3-1.5,0.5
							c-1.3,0.5-2.7,1.1-4,1.7c-1.6,0.1-2.6,0.4-3.2,1.1c-0.4,0.2-0.9,0.5-1.3,0.8c-0.5,0.2-1,0.5-1.4,0.7c-0.5,0.5-0.8,0.3-1.1,0.2
							c0.4-1.6-0.8-1.5-1.5-0.2c-0.3,0.2-0.6,0.4-0.8,0.6c-0.4,0.3-0.9,0.6-1.4,0.9c-1.1,0.2-1,1.3-1.9,2c-0.6,0.4-1.1,0.9-1.7,1.4
							c-0.5,0.6-0.9,1.2-1.4,1.7c-0.6,0.7-1.1,1.3-1.5,1.8C9.6,24,9.4,24.5,9.5,25c-0.2,0.4-0.4,0.8-0.6,1.2
							c-0.3,0.2-0.8,0.4-1.1,0.7c-0.2,0.6-0.7,1.3-0.6,1.8c-0.9,1.9-1.4,3.9-1.8,6c0.1,0.4,0.4,0.7,0.3,1.2
							c-0.2,0.5-0.4,0.9-0.6,1.4c-1.2-0.6-0.7,2.1-0.5,2.9c0.2,0.3,0.6,0.6,0.7,0.9c0,0.1,0,0.2,0,0.2c-0.1,0.7-0.1,1.4-0.2,2.1
							c0.1,0.5,0.2,1,0.3,1.5c-0.2,0.4-0.5,0.4-0.6,1.1c0.5,0.9,0.8,1.8,1,2.8c0.3,0.9,0.4,1.9,0.6,2.7c0.4,0.8,0.9,1.4,1.3,2.1
							c0.6,0.9,1.4,1.6,2.1,2.4c0.4,0.5,0.8,0.9,1.3,1.4c0.4,1.6,0.9,1.3,1.3,1.8l1.1,1.1c1,0.9,1.8,1.8,2.7,2.8
							c0.9,0.9,2,1.8,3.2,2.3c1.6,1.2,2.9,2.4,5,3.3c1.3,0.6,2.5,1.2,3.8,1.7c-0.1,0.2-0.2,0.4-0.3,0.8c0.6,0.4,1.1,0.9,1.7,1.2
							c0.9,0.2,1.6,0.4,2.3,0.7c0.7,0.3,1.4,0.6,2.1,0.9C33.7,74,33.3,74.1,32.8,74.3z"/>
					</g>
					<g>
						<path class="st15" d="M11.5,39.7c-0.4-1.2-0.3-2.1,0.2-2.3C12.2,38.8,12.2,39.4,11.5,39.7z"/>
					</g>
					<g>
						<path class="st15" d="M13.7,31.7c-0.2-0.8-0.1-1.4,0.2-1.8c0.2-0.4,0.5-0.6,0.9-0.5c0,0.4,0.1,0.9,0.1,1.3
							C14.4,31,14.1,31.3,13.7,31.7z"/>
					</g>
					<g>
						<path class="st15" d="M16.5,26.9c0.2-1.4,0.5-2.1,0.8-2.7c0.3-0.1,0.6-0.1,1.3,0.3c0,0.4-0.1,0.7-0.1,1.1
							c-0.5,0.3-1,0.6-1.4,1C16.9,26.7,16.7,26.8,16.5,26.9z"/>
					</g>
					<g>
						<path class="st15" d="M36.4,14.7c0.5-0.1,0.4-0.7,1-0.7c0.4,0,0.8,0,1.2,0c-0.1,0.6-0.7,0.6-1,1
							C37.2,15.3,36.9,14.9,36.4,14.7z"/>
					</g>
					<g>
						<path class="st15" d="M43.8,12.8c0.3-0.4,0.7-0.7,1-1l0.4-0.1c0.4,0.2,0.7,0.3,1,0.5c0.5-0.3,1-0.5,1.5-0.7
							c0.1,0,0.3,0.1,0.5,0.1l0.1,1.4c-0.7,0.1-1.3,0.2-1.9,0.3c-0.4,0.2-0.7,0.3-1.1,0.5c-0.5,0-1,0-1.4,0c-1,0.1-2.1,0.2-3.1,0.3
							c0.7-0.3,0.9-1.1,1.7-1.3C43,12.7,43.4,12.8,43.8,12.8z"/>
					</g>
					<g>
						<path class="st15" d="M61.8,14.8l0.5,0.4c0.3-0.2,0.6-0.4,0.9-0.6c0.6,0.4,1.2,0.9,0.8,1.9c0.1,0.5,0.1,1.2,0.1,1.7
							c-0.7,0.1-0.9-0.7-1.6-0.3c-0.2-0.2-0.4-0.3-0.6-0.5c-0.6-0.4-1.3-0.9-2-1.2c0-0.3,0-0.4,0.1-0.5
							C60.6,15.4,61.2,15.1,61.8,14.8z"/>
					</g>
					<g>
						<path class="st15" d="M67.7,14.2c0.7,0.2,1.3,1,2.3,2.5c-0.4-0.4-0.9-0.7-1.4-1.1c-0.4-0.4-0.9-0.7-1.4-1
							C67.4,14.5,67.5,14.3,67.7,14.2z"/>
					</g>
					<g>
						<path class="st15" d="M64.7,18.6c0.9-0.1,1.3-1.1,2.2-0.4c0.3,0.4,0.6,0.9,0.8,1.4c0,0.1-0.1,0.2-0.1,0.4
							c0.4,0.6,0.8,1.2,1.3,1.8c0.1,0.3,0.3,0.5,0.4,0.8c-0.3,0.1-0.5,0.2-0.8,0.3c-0.6-0.2-1-0.8-2-1.4l-0.3-0.3l-0.4-0.5
							c-0.1-0.4-0.2-0.9-0.3-1.3C65.1,19.1,64.9,18.9,64.7,18.6z"/>
					</g>
					<g>
						<path class="st15" d="M72.3,18.9c-0.1,0.4,0,0.9-0.1,1.3c-0.7-0.2-1.1-1-1.6-1.5c0.1-0.2,0.2-0.5,0.2-0.8
							C71.3,18.2,71.8,18.5,72.3,18.9z"/>
					</g>
					<g>
						<path class="st15" d="M75.2,33.6c1,1.4,1.5,1.3,1.1,2.1c-0.6,0.1-1.1-0.8-1.7-1.2c-0.2-0.3-0.1,0.7-0.3,0.4
							c-0.1-0.3-0.2-0.5-0.4-0.8L75.2,33.6z"/>
					</g>
					<g>
						<path class="st16" d="M85.2,37.2c0.2,0.7,1,0.8,0.9,1.7c0.1,0.4,0.1,0.8,0.1,1.3c0,0.9,0.8,0,0.8,1.7c0.4,0.6,0.5,1.4,0.4,2.6
							c0,1.8,0.4,3.3,1.4,4.3c0,0.6,0,1.1,0.1,1.6c-0.8-0.2-0.4,0.9-0.8,1.1c-0.1,0.6-0.1,1.2-0.2,1.8c-0.2,0.4-0.4,0.8-0.6,1.1
							c0.4,0.3,0.4,1.1,0.2,1.7c-0.3,0.4-0.6,0.7-0.8,1c0,0.3,0.1,0.6,0.2,1c0.2,0.9-0.4,2-0.9,2.4c-0.4-0.1-0.8-0.3-1.9,0.5
							c-0.2,0.5-0.4,1-0.7,1.5c-0.3,0.4,0.4,0.5-0.5,1.5c0.5,0.4-0.5,1.5-1.7,1.8c0-0.4,0-0.9-0.1-1.4c0.2-0.2,0.4-0.5,0.6-0.8
							c0.4-0.5,0.7-1.1,1-1.6c0.3-0.5,0.6-0.9,0.8-1.4c0.3-0.6,0.6-1.1,0.9-1.7c0.3-0.9,0.8-1.7,1-2.6c0.2-0.9,0.3-1.8,0.4-2.7
							c0.1-0.9,0-1.9,0.5-2.6c0.1-0.8,0.2-1.6,0.2-2.4c-0.2-0.6-0.4-1-0.6-1.6c-0.2-0.5-0.2-1-0.4-1.5c0.2-0.2,0.1-1,0.8-0.7
							c0-0.3,0-0.5,0-0.7c0-0.8-0.1-1.5-0.1-2.3c0-0.5-0.2-1-0.2-1.5l-0.5,0c-0.1-1.1-0.3-2.2-0.5-3.3c-0.2-1.2-0.5-2.5-0.8-3.7
							c1,0.6,1.2,1.4,1.6,2.6C85.5,36.4,85.3,36.8,85.2,37.2z"/>
					</g>
					<g>
						<path class="st15" d="M85.9,40.5c0.1,0.5,0.2,1,0.2,1.5c0,0.8,0.1,1.5,0.1,2.3c-0.3-0.2-0.6-0.4-0.9-0.5
							c-0.5-1.1-0.3-2.3,0.1-3.2L85.9,40.5z"/>
					</g>
					<g>
						<path class="st13" d="M78.3,50.5c-0.1,0.3-0.2,0.6-0.3,0.9c-0.3,0.5,0.1,1,0.5,1.2c0.5,0.1,1,0.1,1.5,0.2
							c-0.1,0.5-0.2,0.9-0.3,1.4l-0.4,1.3c-0.5-0.2-0.9-0.4-1.6-0.6c0,0.1,0,0.1-0.1,0.2c-0.6-0.3-1.1-0.6-1.7-0.8
							c0-0.3,0.1-0.5,0.1-0.8c0.4-1.3,0.5-2.7,0.7-4c0.2,0,0.5,0.2,1-0.1C78,49.8,78.1,50.1,78.3,50.5z"/>
					</g>
					<g>
						<path class="st15" d="M80,51.6c0,0.4,0,0.8-0.1,1.2c-0.5-0.1-1-0.1-1.5-0.2c0.2-0.4,0.5-0.8,0.7-1.1L80,51.6z"/>
					</g>
					<g>
						<path class="st15" d="M77.4,55.5c0.3,0.9,0.2,1.3-0.1,1.7c-0.3,0-0.6,0.3-0.9,0.2c0.1-0.6,0.1-1,0.2-1.3
							C76.9,55.8,77.1,55.6,77.4,55.5z"/>
					</g>
					<g>
						<path class="st15" d="M78.4,63.1c0,0.4,0.1,0.9,0.1,1.3c-0.3,0-0.6,0.1-0.9,0.1c-0.1,0.4-0.4,0.8-0.6,1.6
							c-2,1.7-1.5,3.9-4.5,5.8c-0.1-0.5-0.2-1-0.3-1.6c1.5-1.9,2.5-3,2.7-4.4c0.4-0.2,0.9-0.4,1.3-0.7c0.3-0.3,0.6-0.7,1-1.2
							c0.3-0.4,0.5-0.9,0.8-1.4C78.1,62.9,78.3,63,78.4,63.1z"/>
					</g>
					<g>
						<path class="st16" d="M72.4,71.8c-0.3,0.3-0.5,0.5-0.7,0.7c0,0.1,0.1,0.1,0.1,0.1c-0.3,0.4-0.6,0.9-0.8,1.3
							c-0.1,0.1-0.2,0.1-0.2,0.2c-0.5,0.7-0.9,1.3-1.4,2c-0.5,0.4-1,0.8-1.4,1.1c-0.4,0.6-0.9,1.2-1.3,1.7c-0.1,0.1-0.2,0.2-0.2,0.2
							c-0.2-0.2-0.5-0.3-0.7-0.5c-1.4,1.5-1.6,2-2.1,3l-0.6,0.6l-0.4,0.4c-0.2,0.3-0.4,0.6-0.7,1c-0.4,0.5-0.8,1-1.2,1.6
							c-0.5,0.4-1.1,0.8-1.7,1.1c0.1-0.4,0.2-0.9,0.3-1.4c0.8-1.2,1.4-2.2,2.6-3.1c0.7-0.9,1.3-1.8,2-2.8c0.5-0.4,1-0.8,1.5-1.2
							c0.2-0.2,0.5-0.5,0.8-0.7c0.9-1.2,1.9-2.3,2.9-3.5c0.5-0.6,1.2-1.2,1.7-1.9c-0.1-0.2-0.1-0.4-0.2-0.6c0.5-0.3,0.9-0.7,1.3-1.1
							C72.2,70.8,72.3,71.3,72.4,71.8z"/>
					</g>
					<g>
						<path class="st15" d="M72.5,74c-0.6,0-1,0-1.5,0.1c0.3-0.4,0.6-0.9,0.8-1.3C72,73.1,72.2,73.5,72.5,74z"/>
					</g>
					<g>
						<path class="st15" d="M63.7,81.8c0.5-1.1,0.7-1.5,2.1-3c0.2,0.2,0.5,0.3,0.7,0.5C65.7,79.9,65.4,80.6,63.7,81.8z"/>
					</g>
					<g>
						<path class="st15" d="M61.7,75c-0.2,0.4-0.5,0.9-0.7,1.4c-0.3,0.3-0.5,0.5-0.8,0.8c-0.4,0.7-0.7,1.3-1.1,1.8
							c-0.4,1.2-1.2,1.4-2,1.7c-0.1,0.4-0.1,0.8-0.2,1.2c-0.6,0.6-1.2,1.6-1.9,2c-0.2-0.1-0.4-0.2-0.6-0.3c-0.5,0.7-1,1.3-1.5,2
							c-0.3-0.3-0.5-0.6-0.8-0.9c0.2-0.6,0.4-1.2,0.5-1.8c0.6,0.1,1.2,0.1,1.8,0.2c0.8-1.1,1.7-2.2,2.5-3.2c-0.3-0.3-0.5-0.6-0.7-1
							c0.6-0.8,1.3-1.6,1.9-2.3c0.4-0.1,0.5,0.1,1.1,0.1c0.2-0.1,0.3-0.2,0.5-0.3c0-0.3,0.1-0.8,0.2-1.1c0.4-0.4,0.8-0.8,1.2-1.2
							c0.1,0,0.2,0,0.4,0.1C61.5,74.5,61.6,74.8,61.7,75z"/>
					</g>
					<g>
						<path class="st15" d="M62.1,83.8c-0.4,0.5-0.8,1-1.2,1.6C61.3,84.8,61.7,84.3,62.1,83.8z"/>
					</g>
					<g>
						<path class="st15" d="M58.5,87.8c0.2,0.7-0.2,1.3-0.6,1.9c-0.4,0.6-0.8,1.2-0.7,1.7c-0.5,1.2-1,0.7-1.5,1
							c-0.1,0-0.1-0.1-0.1-0.1c0.1-0.7,0.2-1.4,0.4-2.1C56.7,89.3,57.4,87.5,58.5,87.8z"/>
					</g>
					<g>
						<path class="st17" d="M64.3,74.6c0.2,0.3,0.4,0.5,0.6,0.8c-2.1,2.4-4.5,5.4-6.7,8.5c-1.6,2.2-3.1,4.7-4.4,7.2
							c-0.2,0.7-0.5,1.4-0.9,2.2c-0.4,0.8-0.9,1.5-1.3,2.4c-0.4,0.8-0.8,1.6-1.1,2.4c-0.3,0.8-0.5,1.6-0.5,2.2
							c-0.5,1.3-0.9,2.6-1.4,4c-0.3,0.8-0.5,1.5-0.8,2.2c-0.2,0.6-0.3,1.1-0.5,1.7c0.1,0.4,0.2,0.8,0.4,1.1
							c-0.2,0.4-0.3,0.7-0.5,1.1c-0.8-0.6-1.6-1.2-2.3-1.8c0.3-1.6,0.6-3.3,1-4.9c0.4-0.7,0.7-1.4,1.1-2.1c0.7-0.9,0.3-1.8,0-2.6
							c0.1-0.3,0.2-0.5,0.4-0.8c0.5-0.5,0.9-0.9,1.4-1.3c0.8-0.9,0.2-1.7,0.5-2.7c0.5-1.8,0.9-2.6,1.1-3.3c0.5-0.9,1.1-1.8,1.7-2.7
							c0.5-0.4,1.1-0.8,1.5-1.1c1.1-1,1-2,1.5-3c0.7-0.3,1.3-1.3,1.9-2c0.1-0.4,0.1-0.8,0.2-1.2c0.8-0.3,1.5-0.5,2-1.7
							c0.4-0.6,0.7-1.2,1.1-1.8c0.2-0.3,0.5-0.5,0.8-0.8c0.5-0.2,1-0.5,1.5-0.8c0.5-0.5,1-1,1.5-1.5C64.2,74.4,64.2,74.5,64.3,74.6z
							"/>
					</g>
					<g>
						<path class="st15" d="M49.3,94.1c-0.4,0.2-0.9,1-1.1,0.7c-0.6-1.2,0.7-2.4,1.2-3.6c0.3-0.2,0.6-0.3,1-0.4
							C50.2,91.5,49.8,92.3,49.3,94.1z"/>
					</g>
					<g>
						<path class="st15" d="M52,102.2c-0.6,0.8-1.1,1.6-1.6,2.4c-0.4-1.4,0.2-2.4,0.6-3.4C51.4,101.6,52.1,101.7,52,102.2z"/>
					</g>
					<g>
						<path class="st15" d="M45,111c-0.1,0.9-0.1,2.9-1,2.8c-1.1-0.8-0.2-2.1-0.4-2.8c0.1-0.9,0.5-1.4,1-1.8
							C44.7,109.8,44.8,110.4,45,111z"/>
					</g>
					<g>
						<path class="st15" d="M45,118.2l-0.2,1.4c0.2,1.1-0.1,2.1,0.1,3c0.3,0.2-0.1,1.2,0,1.8c0,0.1,0,0.2,0,0.3
							c-0.4,0.1-0.8,0.3-1.3,0.5c-0.6-0.4-0.4-0.9-0.4-1.3c0.1-1.1,0.3-2.1,0.4-3.2c0-0.2,0-0.4,0.1-0.6c-0.2-0.8-0.3-1.5-0.5-2.3
							c0.2-0.9,0.4-1.7,0.6-2.6C44.2,116.3,44.6,117.2,45,118.2z"/>
					</g>
					<g>
						<path class="st13" d="M40.7,75.7c-1.3,0.1-2.2,0.1-2.6-0.3c-0.9-0.1-1.8-0.2-2.6-0.3c-0.8-0.2-1.7-0.5-2.6-0.8
							c0.4-0.1,0.9-0.2,1.3-0.4c0.3,0.1,0.6,0.1,0.8,0.2c1.1,0.3,2.1,0.6,3.1,0.8C39,75.2,39.8,75.4,40.7,75.7z"/>
					</g>
					<g>
						<path class="st13" d="M27.1,76.9c-0.7-0.5-1.5-0.7-2.3-0.9c-0.8-0.2-1.6-0.4-2.1-1.1l0.3-0.8c-0.6-0.7-1.2-1-1-1.7
							c-1.2-0.7-2-1.1-2.9-1.5c-0.9-0.5-1.7-0.9-2.8-1.8c-1-0.6-1.9-1.2-2.8-1.9c-0.4-0.3-0.8-0.5-1.1-0.8c-0.5-0.4-1-0.7-1.4-1
							c0.3-0.5-1.2-1.2-1.6-2c-0.7-0.6-1.3-1.3-2-2.1c-0.6-0.6-1.2-1.2-1.8-1.9c0.3-0.1,0.6-0.6-0.2-1.2C4.9,58,4.8,57.5,4.6,57
							c-0.2-0.5-0.4-1-1-1.4c-0.2,0.2-0.6-0.7-1-1.1c0.4-0.2-0.2-0.9,0.1-1.2c-0.4-0.8-0.9-1.1-1.5-1.6c-0.5-0.4-1-1.1-1-2.3
							c-0.1-0.9-0.2-1.8-0.3-2.9c-0.1-0.5-0.1-1.1-0.3-1.6c-0.1-0.6-0.2-1.1-0.5-1.7c-0.6-1.1-0.7-1.8-0.6-2.4
							c0.1-0.6,0.3-0.9,0.6-1.2c0.6-0.7,1-1.1,0.1-2.9c-0.1-0.8,0.4-0.9,0.5-1.7c0.1-0.7,0.1-1.5,0.3-2.2c0.1-0.7,0.3-1.5,0.4-2.2
							c0.4-0.2,0.6-0.9,0.8-1.7c0.2-0.8,0.5-1.5,0.9-1.6c0.1-0.9,0.4-2.2,1-2.8c1-1.5,1.7-2.7,2.8-4c0.4-0.9,1.8-1.1,1.5-2.1
							c-0.4-0.5,0.8-1.5,1.3-2.2c0.9,0,2.2-2.5,3.2-2.2c1.1-0.9,2.2-1.7,3.5-2.5l0.9-1.3c3.1-2,6-3.4,9-4.6c3-1.1,6.1-2.1,9.6-3.1
							c2.2,0.2,2.6-1.5,4.8-1.2c2.4-0.1,4.4-0.9,6.7-0.8c0.8,0.4,1.1-0.4,1.7-0.3c2.8-0.5,4.4,0.3,6.5,0.7c-2.4,0.3-5.8,0-8.4,0.5
							c-0.9,0.3-1.4-0.7-1.7,0.2c-0.5,0-1.1,0.3-1.4,0.1C37.5,2.4,31,4.5,25.2,6.8c-2.8,0.8-6,3.3-9.5,4.9c-1.1,0.9-2.2,1.8-3.2,2.7
							c-0.4,0.6-1,1.3-1.6,1.8c-0.6,0.5-1.2,1-1.8,1.4c-1.8,3-4.3,5.7-5.4,8.5c-0.4,0.5-0.7,1.1-0.9,1.7c-0.2,0.6-0.4,1.3-0.5,2
							c-0.3,1.3-0.5,2.6-1.3,3.6l-0.3,1.7C0.6,38.6,0.5,42.4,1,45.8c0.4,1-0.6,1.9,0.6,2.5C1.7,48.8,2.2,49.5,2,50
							c0.2,0.7,0.7,1.8,1.2,3c0.6,1.1,1.4,2.2,2.2,2.8c0.4,0.9,0.8,1.6,1.3,2.5c0.1,0.3,0.3,0.5,0.5,0.9c0.2,0.4,0.5,0.8,0.9,1.6
							C8.6,61.2,9,61.6,9.5,62c0,0.4,0,0.9,0.1,1.4c0.9,0.5,1.2,0.7,2.1,0.9c0.5,0.3,0.9,0.7,1.4,1c0.3,0.2,0.5,0.4,0.8,0.6
							c0.6,0.2,1.1,0.5,1.7,1c0.6,0.5,1.2,1.1,2.1,1.7c1,0.1,1.6,0.6,2.3,1.1c0.6,0.5,1.2,1,2,0.9c0.9,0,1.4,0.4,1.9,0.8
							c0.5,0.4,1.1,1,2.2,1.5c0.7,0.3,1.4,0.6,2,0.8c-0.2,0.1-0.5,0.2-0.8,0.3c-0.1,0.3-0.2,0.6-0.4,0.9c0.6,0.5,1.3,1,1.9,1.4
							c0.7,0.2,1.5,0.3,1.7,0.8C30.2,78,28.1,76.7,27.1,76.9z"/>
					</g>
					<g>
						<path class="st13" d="M31.7,74c-0.6,0.3-1.3,0-1.9-0.2C29.9,73.6,29.9,73.1,31.7,74z"/>
					</g>
					<g>
						<path class="st17" d="M9.4,48.7c-0.3-0.3-0.6-0.7-0.9-1C8.2,47.3,8,47,7.8,46.6c-0.4-0.7-0.7-1.5-0.8-2.2
							c-0.4-1.5-0.5-3-0.8-4.5c0.5-1.3,0.1-1.4,0.1-1.9c0.5-2.2,0.6-3.4,1.3-3.9c0.1-0.5,0.3-0.9,0.4-1.4c0.2-0.5,0.3-0.9,0.5-1.4
							c0.2-1.5,1.2-2.2,1.3-4c0.1-0.1,0.2-0.3,0.2-0.4c0.4-0.2,0.7-0.4,1.1-0.6c0.1-0.5,0.1-0.9,0.2-1.4c1.1-0.9,1.5-1.5,1.6-2.1
							c0.5-0.5,0.9-1,1.4-1.5c0.7-0.8,1.4-1.5,2.1-2.3c0.2-0.2,0.5-0.4,0.8-0.7c1.2-0.5,1.9-0.7,2-1.2c0.1-0.8,0.6,0.1,1.1-0.7
							c0.8-0.6,1.7-1.1,2.5-1.8c0.4-0.2,0.9-0.4,1.3-0.6c0.3,0,0.5,0.1,0.7,0.2c0.7-0.6,1.5-1.2,2.3-1.8c1.3-0.6,2.6-1.2,4-1.7
							c0.5-0.2,1-0.4,1.5-0.5c0.3-0.1,0.7-0.2,1-0.3c0.9-0.1,1.7-0.2,2.6-0.3c0.8-0.3,1.6-0.6,2.4-0.9c0.5-0.4,1.3-0.8,2-0.7
							c1.3-0.3,2.7-0.6,4-0.8c0.1,0.1,0.2,0.1,0.2,0.1C46.3,7.7,46,7,46.4,6.9c1-0.3,1.9-0.6,3-0.8c0.6,0,1.1-0.1,1.7-0.1
							c1.2,0.4,2.4,0.8,3.5,1.4c0.2,0,0.5,0,0.7,0c0.1-0.1,0.2-0.1,0.2-0.1c1.6,0.4,3.2,0.9,4.7,1.6l-0.1,0.3
							c0.7,0.7,0.9,0.8,1.1,0.9c0.1,0.4,0.1,0.8,0,1.3c0.6-0.3,1.1-0.5,1.7-0.7c0.4,0.3,0.8,0.5,1.2,0.8l-0.3,0.4
							c-0.6-0.3-1.1,0.7-2.4,0.1c-0.1-0.1-0.2-0.2-0.3-0.4c-0.3-0.1-0.6-0.1-0.8-0.2c-0.4-0.5-0.8-0.9-1.2-1.4
							c-0.6-0.2-1.1-0.4-1.7-0.6c-0.3-0.1-0.6-0.1-0.8-0.2C56,9.2,55.5,8.8,54,8.4c-2.6-0.3-5.2-0.1-8,0.3c-0.7,0.1-1.3,0.2-1.9,0.3
							c-1,0.4-2.7,0.9-4.4,1c-0.5,0.3-0.8,0.6-1.4,0.7c-1.1-0.4-2.5,0.4-4.3,0.4c-0.7,0.2-1.5,0.4-2.2,0.6c-1.8,0.6-3.6,1.6-5.3,2.7
							c-0.6,0-1.1,0-1.6,0.1c-0.9,1.3-2.4,2.4-3.9,3.1C19,18.8,17,20.3,15.2,22c-0.4,0.5-1,1.1-1,1.7c-0.2,0.2-0.3,0.4-0.4,0.6
							c-1.1,1-1.2,1.4-1.3,1.8c-0.2,0.3-0.5,0.7-0.7,1c-0.8,1.5-1.4,3-1.9,4.6C9.5,31.8,9.3,31.9,9,32c0,0.4,0,0.9,0,1.3
							c-0.1,0.3-0.2,0.7-0.2,1c-0.1,0.6-0.2,1.1-0.3,1.7c-0.2,0.3-0.2,0.9-0.3,1.6c0,0.7,0,1.3-0.2,1.7c-0.2,1.4-0.1,3.1,0.2,4.6
							c0.1,0.8,0.4,1.6,0.6,2.4C8.9,47.2,9.2,47.9,9.4,48.7z"/>
					</g>
					<g>
						<path class="st13" d="M9,32c0.3-0.1,0.5-0.2,0.8-0.3c0.2,0.5,0.1,1.8-0.8,1.6C9,32.9,9,32.5,9,32z"/>
					</g>
					<g>
						<path class="st13" d="M14.8,30.6c0-0.4-0.1-0.8-0.1-1.3c0.6-0.9,1.2-1.7,1.8-2.5c0.2-0.1,0.4-0.2,0.6-0.3
							c0.5-0.4,0.9-0.7,1.4-1c0,0,0.1,0.1,0.1,0.1c-0.2,0.3-0.4,0.7-0.6,1c-0.2,0.4-0.4,0.8-0.6,1.1c-0.2,0.8-1.2,0.4-1.6,0.7
							c0.1,0.5,0.7,0.6,0.6,1c-0.2,0.3-0.3,0.6-0.5,0.9c-0.1,0.2-0.3,0.3-0.4,0.5c0,0-0.1,0-0.1-0.1C15.2,30.8,15,30.7,14.8,30.6z"
							/>
					</g>
					<g>
						<path class="st13" d="M13.8,24.4c0,0.7-0.6,2-1.3,1.8C12.6,25.8,12.6,25.4,13.8,24.4z"/>
					</g>
					<g>
						<path class="st13" d="M51,13c0.4-0.1,0.9-0.3,1.4-0.5c0,0,0.1,0,0.2,0c0.6,0.2,1.3,0.6,1.8,0.9c0.3-0.1,0.5-0.2,0.8-0.3
							c0.6,0.6,2,0.3,2.4,1.1c0.4,0.3,0.9,0.5,1.3,0.8c0.4,0.2,0.7,0.3,1.1,0.6c0.1,0,0.1,0.1,0.2,0.1C60,15.8,60,15.9,60,16.2
							c-0.4,0.1-0.8,0.1-1.2,0.3c-0.3-0.2-0.8-0.3-0.9-0.7c-0.3-0.2-0.6-0.4-0.9-0.6c-0.3,0-0.6-0.1-0.9-0.1c-0.4,0.5-0.8,0-1.2,0
							c-0.1-0.2-0.2-0.4-0.5-0.6c-0.7,0.4-1,0.4-1.3,0.3c-0.1-0.2-0.4-0.4-0.3-0.9c0,0-0.1,0-0.1,0c-0.3,0.2-0.5,0.4-0.8,0.7
							c-0.3-0.1-0.8,0.1-1.1-0.2C51.1,13.9,50.6,13.4,51,13z"/>
					</g>
					<g>
						<path class="st13" d="M55.4,1c0.9-0.1,1.6-0.1,2.2,0.1c0.7,0.2,1.4,0.3,2.3,0.7c0.6,0.2,1.2,0.3,1.8,0.5
							c0.7,0.4,1.5,0.7,2.2,1.1c2.6,1.4,5,3.1,7.1,5.1C68.9,7,67,5.3,63.7,3.6c-0.6,0-1.1-0.3-2.2-0.9c-0.5-0.2-1.1-0.4-1.7-0.6
							c-1,0-2-0.4-3-0.6C56.3,1.3,55.9,1.1,55.4,1z"/>
					</g>
					<g>
						<path class="st13" d="M71.4,8.7c0.8,0.1,1.1,0.4,1.6,0.8c0.4,0,0.7,0.1,1.1,0.1c1.2,0.8,0.4,1.2,1.2,2c0,1.1,2.6,1.7,1.1,2.3
							c-1-0.2-1.4-0.7-1.8-1.5c-0.4-0.8-0.9-1.7-2-2.6C72.3,9.5,71.9,9.1,71.4,8.7z"/>
					</g>
					<g>
						<path class="st13" d="M79.3,17.1c1.8,0.8,4,4.1,4.6,6.5c0.4,0,0.6,0.4,0.9,0.7c0.1,0.5,0.1,0.9,0.2,1.4
							c-0.3,0.2-0.7,0.3-1.1,0.5c-0.8-1.3-1.6-2.6-2.5-3.9c-1.2-2.3-2.2-3.9-3.7-6.7C78.3,16.2,78.9,16.7,79.3,17.1z"/>
					</g>
					<g>
						<path class="st13" d="M85.3,29c1.2,2.8,2.2,6.3,2.7,9.2c-0.4,0-0.7-0.6-0.9-1c-0.9-0.9,0.2-1.1-0.4-2.1c-0.9-0.7-1-3.5-2-3.9
							c-0.1-0.6-0.2-1.3-0.3-1.9c0.2-0.1,0.3-0.3,0.5-0.5C85.1,28.9,85.2,29,85.3,29z"/>
					</g>
					<g>
						<path class="st13" d="M92.1,41.2c0.1,0.6,0.2,1.1,0.2,1.7c-0.3-0.1-0.4,0.4-0.3,0.8c-0.2,1.7,0.2,5.2,0.3,7.3
							c-0.3,1-1.1,1-1.3,2.2c-0.1,1.6-0.8,3.3-1.4,4.9c-0.1,1.2-0.4,2.3-0.8,3.3c-0.5,0.9-1,1.7-1.4,2.4c-0.1,0.2-0.2,0.3-0.3,0.5
							c0,0.6-0.2,1.1-0.5,1.7c-0.3,0.5-0.7,1-0.9,1.4c-0.4,0.6-0.8,1.2-1.3,1.7c-0.5,1.9-3.3,3.8-3.9,5.6c-0.3-0.4-0.7,0.4-0.9-0.3
							c-0.1-0.1-0.2-0.2-0.3-0.4c1.1-1.7,2.8-3,3.6-4.6l0.9-0.9c0.4-0.4,0.6-0.8,1-1.3c0.2-0.1,0.3-0.1,0.5-0.2c0-0.6,1-1.4,0.7-2.3
							l0.3-0.4c0.3-0.5,0.5-1,0.7-1.5c0.1-0.3,0.2-0.7,0.3-1.1c0.2-0.5,0.5-1,0.7-1.5c0.4-0.6,0.2-1,0.3-1.3
							c0.3-0.4,0.5-0.7,0.8-1.1c0.2-0.4-0.1-0.7,0.1-1.5c0.3-1,0.6-1.9,0.9-2.9c0.2-0.4,0.5-1.2-0.1-1.7c0.1-0.3,0.1-0.7,0.1-1.1
							l0.1-1.4l0-1.4c0.2-0.8,0.3-2,0-2.5c-0.3-0.4-0.1-1.5-0.8-2c0.1-0.4,0.3-0.9,0.4-1.3c-0.3-0.7-0.5-1-0.8-2.4
							c0.4,0.2,0.7,0.3,1.1,0.5l0.7-0.9C91.3,39.9,92.3,39.7,92.1,41.2z"/>
					</g>
					<g>
						<path class="st13" d="M94.8,42.8c-0.4,1.1,0.7,6-1,3.5c0-0.6,0-1.2-0.1-1.8c0-0.2,0-0.4,0-0.6c0.1-0.5,0.1-1.2,0.2-1.8
							C94.3,41.9,94.4,42.9,94.8,42.8z"/>
					</g>
					<g>
						<path class="st13" d="M79.2,48.4c0.8,0,1.1,0.2,1.1,1.1c0.5,0.8,0.7,1.7-0.1,1.8c-0.1,0.1-0.2,0.2-0.2,0.3l-0.8-0.2
							c-0.1-0.3-0.4-0.6-0.5-0.9c0.1-0.4,0.3-0.7,0.5-1.1C79.1,49.2,79.1,48.8,79.2,48.4z"/>
					</g>
					<g>
						<path class="st13" d="M74.2,62.8c0.7,0.4,0.7,0.9,0.1,1.9c0,0.2,0,0.4,0.1,0.7c-0.7,0.2-1.3,0.4-1.9,0.6
							c-0.2-0.2-0.4-0.5-0.7-0.8c0.2-0.2,0.4-0.4,0.6-0.7c0.3-0.1,0.5-0.2,0.8-0.4C73.6,63.7,73.9,63.3,74.2,62.8z"/>
					</g>
					<g>
						<path class="st16" d="M72.5,66c-0.1,0.2-0.2,0.4-0.3,0.6c-0.3,0.2-0.7,0.4-1,0.6c-0.2,0.4-0.4,0.7-0.8,1.3
							c0.1,0.1,0.2,0.3,0.3,0.4c-0.3,0.3-0.7,0.7-1,1c-0.3,0.3-0.7,0.7-1,1c-0.4,0.8-1.3,1.4-2,2.9c-0.4,0.3-0.7,0.7-1.1,1.1
							c-0.2,0.2-0.4,0.3-0.6,0.5c-0.2-0.3-0.4-0.6-0.6-0.8c-0.1-0.1-0.1-0.2-0.3-0.4c-0.1-0.2-0.2-0.5-0.2-0.7
							c0.2-0.2,0.4-0.3,0.6-0.5c0.3-0.2,0.6-0.4,0.8-0.6l1.4-1.6c0.3-0.4,0.6-0.8,1-1.2c0.6-0.6,1.2-1.2,1.9-1.8
							c0.8-1.1,1.1-2.4,2.4-2.5C72,65.5,72.3,65.8,72.5,66z"/>
					</g>
					<g>
						<path class="st13" d="M72.6,67.2c-0.6,0.6-1.2,1.1-1.9,1.7c-0.1-0.1-0.2-0.2-0.3-0.4c0.4-0.5,0.6-0.9,0.8-1.3
							c0.4-0.2,0.7-0.4,1-0.6C72.3,66.8,72.4,67,72.6,67.2z"/>
					</g>
					<g>
						<path class="st16" d="M80.8,66.3c-0.3,0.3,0.4,0.5-0.7,1.4c-0.5,0.4-1,0.7-1.5,1c0,1.3-1.2,2.8-2.2,4
							c-1.2,0.8-1.7,2.6-2.8,2.6c-0.3,0.3-0.6,0.6-0.9,0.9c-0.2,0.6-0.4,1.2-0.6,1.7c0.2,0.1,0.7,0.2,0.5,0.7
							c-0.2,0.2-0.4,0.5-1.1-0.1c-0.4,0-1.2,0.9-1.4,2c-0.2,0.2-0.4,0.4-0.5,0.5c-0.3,0.6,0.4,0.5,0.1,1.1L68.9,83
							c-0.9,1.1-1.8,2.1-2.7,3.3c-0.6,1.1-1.6,1.9-2.4,3.2c-0.1,0.8-1.5,1.6-1.1,2.2c-0.4,0.6-0.7,1.3-1.1,1.8
							c-0.4,0.3-1,0.9-0.6,1.6c-0.1,0.4-0.3,0.9-0.4,1.3c-0.3,0.2-0.6,0.4-0.9,0.6l0.2,1.2c-0.1,0.3-0.2,0.7-0.3,1
							c-0.5,0.5-0.9,1.1-1.4,1.6c-0.2,0.6-0.4,1.2-0.6,1.8c-0.2,0-0.5,0.1-0.8,0.2c-0.2-0.1-0.3-0.2-0.4-0.3c-0.8,1-0.7,1.7-0.4,1.9
							c0.2,0,0.4,0,0.6,0c0.2,0.1,0.4,0.2,0.6,0.3c-0.4,0.7-0.9,1.3-1.3,2c-0.3-0.8,0.1-1.3,0-1.8c-0.6,0.3-0.9,1.3-1.2,2
							c-0.3,0.7-0.5,1.3-1,0.7c0.1-0.8-0.1-0.9-0.1-1.9c-0.3,0.1-0.5,0.2-0.8,0.2c-0.4,0.5-0.7,1.1-1.1,1.7
							c-0.1-0.1-0.2-0.1-0.3-0.2c0-0.7,0.1-1.1,0.1-1.5l0.8-1.2c0.3-0.7,0.5-1.4,0.8-2.2c0.2,0,0.5-0.1,0.8-0.1
							c0.2-0.7,0.5-1.7,0.9-2.5c0.4-0.8,0.9-1.6,1.4-2c0.2-0.5,0.4-1.1,0.6-1.6c0.4-0.5,0.8-1,1.2-1.4c0-0.3,0.2-0.7,0.5-1.1
							c0.2-0.4,0.4-0.7,0.2-0.9c0.5-0.7,1-1.4,1.4-2.1c-0.1-0.2-0.2-0.4-0.2-0.6l0.3-0.4l1.2-0.7c1.5-1.9,2.1-3.2,3.7-5.8
							c1.7-0.9,1.7-1.8,1.7-2.2L66.4,81c0.1-0.6,0.3-1,0.4-1.6c0.4,0.3,0.9,0.2,1.3-0.4c0.3-0.3,0.7-0.5,1-0.8
							c0.2-0.4,0.4-0.8,0.7-1.2c0.5-0.4,1.1-0.8,1.7-1.1c0.3-0.5,0.6-1.1,1-1.7c1.9-0.9,2.1-3.1,3.5-3.2c0.7-0.8,1.4-1.6,2-2.5
							c0.3-0.4,0.6-0.8,0.8-1.2c0.3,0.1,0.6,0.2,0.9,0.2C80.2,67.1,80.5,66.7,80.8,66.3z"/>
					</g>
					<g>
						<path class="st13" d="M79.1,75.1c0,1.6-0.7,1.5-1.2,1.9c0.2,0.7-0.4,1.1-1.4,1.2c-0.1,0.1-0.1,0.1-0.2,0.2c0-0.2,0-0.3,0-0.5
							l0.8-1c0.2,0,0.4-0.1,0.6-0.1C78.2,76.2,78.6,75.7,79.1,75.1z"/>
					</g>
					<g>
						<path class="st13" d="M64,74.1c-0.5,0.5-1,1-1.5,1.5c-0.5,0.3-1,0.5-1.5,0.8c0.2-0.5,0.4-0.9,0.7-1.4
							c-0.1-0.2-0.1-0.5-0.2-0.8c-0.1,0-0.3,0-0.4-0.1c0.1-0.9,0.4-1.1,1.4-1.2c0,0,0.1,0.1,0.1,0.1c0.1,0.2,0.3,0.4,0.4,0.6
							l0.8-0.3C63.8,73.7,63.9,73.9,64,74.1z"/>
					</g>
					<g>
						<path class="st13" d="M56.9,80c-0.1,0.1-0.1,0.3-0.1,0.3c-0.8,0.9-1.6,1.9-2.4,2.8c-0.6-0.1-1.2-0.1-1.8-0.2
							c0.7-1.8,1.6-2.3,2-3c0.4,0.3,1-0.4,1.5-1C56.4,79.3,56.7,79.6,56.9,80z"/>
					</g>
					<g>
						<path class="st13" d="M55.1,83.9c-0.5,1-0.4,2.1-1.5,3c-0.5,0.3-1,0.7-1.5,1.1c0-0.4,0.1-0.9,0.1-1.3c-0.3,0-0.7,0-1-0.1
							c-0.3-1.2,0.7-1.7,0.9-1.9c0.3,0.3,0.5,0.6,0.8,0.9c0.5-0.7,1-1.3,1.5-2C54.7,83.7,54.9,83.8,55.1,83.9z"/>
					</g>
					<g>
						<path class="st13" d="M49.3,94.1c-0.4,0.9,0.3,1.8-0.5,2.7c-0.5,0.4-0.9,0.9-1.4,1.3c0.3-1.9,0.4-2.6,0.8-3.3
							C48.4,95.1,48.8,94.3,49.3,94.1z"/>
					</g>
					<g>
						<path class="st13" d="M47,99c0.3,0.8,0.7,1.7,0,2.6c-0.4,0.7-0.7,1.4-1.1,2.1c-0.1-0.4-0.2-0.8-0.3-1.2
							C46,101.3,46.5,100.1,47,99z"/>
					</g>
					<g>
						<path class="st13" d="M44.5,128.3c-0.1,0.1-0.3,0.1-0.4,0.2c-0.9-1.5-0.6-2.5-0.5-3.3c0.4-0.2,0.8-0.4,1.3-0.5
							C44.7,125.8,44.6,127.1,44.5,128.3z"/>
					</g>
					<g>
						<path class="st13" d="M44,130.4c-0.3,0.8-0.5,1.6-0.8,2.4c0.2,0.3,0.3,0.6,0.4,0.9c0.1,1.4,0.6,1.6,0.4,2.6
							c0,1.6,0,3.4,0.2,4.8c0.3,0.5,0.1,1.3,0.2,1.9c-0.1,0-0.1,0-0.2,0c-0.3-2.2-1.2-2.5-1.1-4c-0.3-0.3-0.1-1.5-0.1-2.5
							c-0.2-0.4-0.3-0.8-0.5-1.2c0.1-0.8-0.1-1.4-0.2-2.3c-0.1-0.7-0.3-1.4-0.4-2.1c0.8-0.5,1.3,0.1,2.1-0.7
							C44,130.3,44,130.4,44,130.4z"/>
					</g>
					<g>
						<path class="st16" d="M50.7,138.9c-0.3,0.7-0.6,1.4-0.9,2c-0.3,0-0.6-0.1-0.8-0.1c0,0.3,0,0.7,0,1.1c0.1,0.4,0.2,0.8,0.3,1.1
							c-0.2,1-0.3,1-0.7,1c-0.4,0.1-0.8,0.1-1.2,0.1c-0.6,0.2-1.1,0.4-1.7,0.6c-0.1-0.5-0.3-0.9-0.5-1.4c0.3-0.5,0.6-1,0.8-1.5
							c-0.1-0.7-0.1-1.5-0.2-2.2c0.2,0,0.4-0.1,0.5-0.2c0.4,0.4,0.9,0.7,1.3,1.1c0.2-0.1,0.4-0.3,0.5-0.5c0.1,0,0.2,0,0.4,0.1
							c0.2-0.6,0.4-1.2,0.5-1.8c0.4,0,0.8-0.1,1.2-0.1C50.5,138.3,50.6,138.6,50.7,138.9z"/>
					</g>
					<g>
						<path class="st13" d="M49.9,140.9c0.1,0.3,0.2,0.7,0.3,1.1c-0.3,0.3-0.6,0.6-0.8,0.9c-0.1-0.3-0.2-0.7-0.3-1.1
							c0-0.3,0-0.7,0-1.1C49.3,140.8,49.5,140.9,49.9,140.9z"/>
					</g>
					<g>
						<path class="st16" d="M12.4,59c-0.4-0.4-0.9-0.2-1.3-1.8C11.5,57.8,11.9,58.5,12.4,59z"/>
					</g>
					<g>
						<path class="st16" d="M9.8,55.9c-0.7-0.8-1.4-1.5-2.1-2.4c-0.5-0.7-0.9-1.4-1.3-2.1c-0.2-0.8-0.4-1.7-0.6-2.7
							c-0.2-1-0.5-1.9-1-2.8c0-0.6,0.4-0.7,0.6-1.1c-0.1-0.5-0.3-1-0.3-1.5c-0.7-1.3-0.3-1.5,0.2-2.4c-0.1-0.3-0.5-0.6-0.7-0.9
							c-0.2-0.8-0.7-3.5,0.5-2.9c0.2-0.5,0.4-0.9,0.6-1.4c0.1-0.5-0.2-0.8-0.3-1.2c0.4-2.1,1-4.1,1.8-6c-0.1-0.6,0.4-1.2,0.6-1.8
							c0.3-0.2,0.7-0.5,1.1-0.7C9,25.8,9.2,25.4,9.5,25c-0.1-0.5,0.1-1,0.5-1.5c0.4-0.5,0.9-1.2,1.5-1.8c0.4-0.5,0.9-1.2,1.4-1.7
							c0.6-0.5,1.1-0.9,1.7-1.4c0.9-0.6,0.8-1.8,1.9-2c0.5-0.3,1-0.6,1.4-0.9c0.3-0.2,0.6-0.4,0.8-0.6c0.7-1.3,1.8-1.4,1.5,0.2
							c0.4,0.1,0.6,0.4,1.1-0.2c0.4-0.2,0.9-0.5,1.4-0.7c0.4-0.3,0.9-0.5,1.3-0.8c0.6-0.7,1.6-1,3.2-1.1c-0.8,0.6-1.5,1.1-2.3,1.8
							c-0.2-0.1-0.4-0.2-0.7-0.2c-0.4,0.2-0.9,0.4-1.3,0.6c-0.8,0.8-1.7,1.2-2.5,1.8c-0.5,0.8-1-0.2-1.1,0.7c-0.1,0.5-0.7,0.7-2,1.2
							c-0.3,0.3-0.5,0.5-0.8,0.7c-0.8,0.8-1.5,1.5-2.1,2.3c-0.5,0.5-1,1-1.4,1.5c-0.1,0.6-0.5,1.1-1.6,2.1c-0.1,0.5-0.2,0.9-0.2,1.4
							c-0.4,0.2-0.7,0.4-1.1,0.6c-0.1,0.5-0.2,1.1-0.2,1.6c-0.2,0.6-0.6,1.3-0.9,1.3c-0.6,0.4-0.3,1-0.4,1.6
							c-0.2,0.5-0.3,0.9-0.5,1.4c-0.1,0.5-0.3,0.9-0.4,1.4c-0.7,0.5-0.8,1.7-1.3,3.9c0,0.5,0.4,0.6-0.1,1.9c0.4,1.5,0.4,3,0.8,4.5
							c0.2,0.8,0.5,1.5,0.8,2.2C8,47,8.2,47.3,8.5,47.7c0.3,0.3,0.6,0.7,0.9,1c0.2,0.4,0.4,0.9,0.7,1.3c0.3,0.4,0.6,0.8,0.9,1.2
							c0.2,0.5,0.3,0.9,0.5,1.3c0.4,0.6,0.7,1.1,1.1,1.6c-0.2,0.5-0.3,1.3-1,1.6C11,55.8,10.4,55.8,9.8,55.9z"/>
					</g>
					<g>
						<path class="st16" d="M12.3,35.3c-0.3-1.6,0.1-2.7,0.8-2.7c0.3,0.3,0.3,0.7,0.1,1.2C13.1,34.3,12.8,34.8,12.3,35.3z"/>
					</g>
					<g>
						<path class="st16" d="M26.6,18.5c0.2-0.4,0.7-0.6,1.9-0.8C28.1,18.3,27.3,18.9,26.6,18.5z"/>
					</g>
					<g>
						<path class="st16" d="M33.3,7.4c0.3,0.9-0.6,1.1-1.6,1.1C30.8,7.8,32.7,7.8,33.3,7.4z"/>
					</g>
					<g>
						<path class="st16" d="M36.4,6.7c0.4-0.5,1.1-0.3,1.7-0.5c1.3-1.2,3-1.4,4.8-1.5c1.8-0.1,3.5,0,5.3-0.5
							c0.7-0.1,1.4-0.2,2.2-0.3c1.5,0,2.9,0.6,5.1,0.1c0.4,0.3,2.1,1.1,1.6,0.1c1.1,0,2.2,0.2,3.3,0.4c0.2,0.1,0.3,0.3,0.5,0.4
							c0.3,0.4,0.7,0.8,1.3,1c0.6,0.2,1.3,0.5,2.1,0.6c0.4,0.1,0.9,0.3,1.3,0.4c0.1,0.1,0.2,0.3,0.4,0.4c0.4,0.3,0.8,0.7,1.2,1.1
							c0,0,0.1,0.1,0.2,0.1c0.5,0.3,1.1,0.7,1.6,1c-0.2,0.3-0.5,0.5-0.7,0.8c0,0.1,0,0.2,0.1,0.3c-0.1,0.2-0.3,0.3-0.4,0.5
							c0.3,0.4,0.5,0.9,0.8,1.4c0.3,0,0.6,0.1,0.9,0.1c0.4,0.3,0.8,0.6,1.2,1c0,0,0.1,0.1,0.2,0.2c-0.1,0.3-0.2,0.6-0.3,0.9
							c-0.8-0.7-1.5-1.3-2.3-2c-0.4-0.5-0.9-1.1-1.3-1.6c-1.1,0-1.5-1.2-2.5-1.7C63.9,9.3,63,9,62.1,8.8c-0.6-0.9-1.6-1.3-2.6-1.6
							c-0.5-0.1-1-0.2-1.5-0.4c-0.5-0.2-1-0.3-1.5-0.6c-0.2,0.1-0.4,0.1-1.2,0.8c0,0.1,0.1,0.1,0.2,0.2c-0.1,0-0.2,0.1-0.2,0.1
							c-0.3,0-0.5,0-0.7,0c-1.1-0.5-2.3-1-3.5-1.4c-0.6,0-1.2,0-1.7,0.1c-1,0.2-2,0.5-3,0.8C46,7,46.3,7.7,44.6,7.3
							c-0.1,0-0.2-0.1-0.2-0.1c0-0.2-0.1-0.4-0.1-0.7c-0.3-0.2-1.8,0.2-1.7-0.5c-1.1,0.3-2.4,0.4-3.3,0.9c-0.4-0.3-1.5,0.6-1.6-0.1
							c-0.5,0.1-0.8,0.2-1.3,0.3C36.4,7.7,35,8,35.2,7.4C35.3,7.2,35.4,7,36.4,6.7z"/>
					</g>
					<g>
						<path class="st16" d="M44.1,9c0.7-0.1,1.3-0.2,1.9-0.3c0,0.1,0,0.1,0,0.2C45.4,8.9,44.8,8.9,44.1,9z"/>
					</g>
					<g>
						<path class="st16" d="M48.3,11.5c0.4,0,0.5-0.4,1.3-0.4c0.4,0,0.9,0.1,1.2,0.1c0.6-0.1,1.1-0.1,1.7-0.1c0-0.2,0-0.5,0-0.7
							c0.8,0.1,1.6,0.2,2.4,0.4c0.4,0,0.9,0.1,1.4,0.2c0.2,0.1,0.5,0.1,0.8,0.2c0,0.3,0.1,0.6,0.1,0.9c0.3,0.2,0.6,0.1,1.1,0.2
							c0.1-0.2,0.2-0.4,0.3-0.6c0.6-0.2,1.2-0.4,1.8-0.5c0.3,0.1,0.6,0.2,0.8,0.2c0.1,0.1,0.2,0.3,0.3,0.4c0,0.4,0.1,0.8,0,1.2
							c0.5,0.3,0.9,0.2,1.4,0.7c0.1,0.3,0.3,0.6,0.4,0.9c-0.3,0.2-0.6,0.4-0.9,0.6l-0.5-0.4c-0.6,0.3-1.2,0.6-1.7,0.9
							c0,0-0.1-0.1-0.2-0.1c-0.3-0.2-0.7-0.4-1.1-0.6c-0.5-0.3-0.9-0.5-1.3-0.8c-0.3-0.2-0.6-0.2-0.9-0.4c-0.3-0.1-0.6-0.3-0.9-0.3
							c-0.4-0.7-0.8,0.2-1.4,0c-0.5-0.3-1.2-0.6-1.8-0.9c-0.1,0-0.2,0-0.2,0c-0.4,0.2-0.9,0.3-1.4,0.5c-0.4-0.1-0.8-0.2-1.2-0.3
							c-0.3,0.3-0.9,0.2-1.4,0.1L48.3,11.5z"/>
					</g>
					<g>
						<path class="st16" d="M64.2,11.4c0.7,0.5,1.4,1,2.1,1.6c0.5,0.4,1,0.8,1.4,1.2c-0.2,0.2-0.3,0.3-0.5,0.5
							c-0.5-0.4-0.9-0.8-1.4-1.2c-0.6-0.6-1.3-1.1-2-1.6L64.2,11.4z"/>
					</g>
					<g>
						<path class="st16" d="M69.2,22.6c0.7,0.9,1.4,1.9,2.1,3c-0.4,0.3,0.1,1.2-0.5,1.3c-0.1,0-0.1,0.1-0.1,0.1
							c-1.4-0.6-0.8-1.9-1.8-2.8c-0.1-0.5-0.3-0.9-0.4-1.3C68.7,22.8,68.9,22.7,69.2,22.6z"/>
					</g>
					<g>
						<path class="st16" d="M78.6,50.6c0.2,0.3,0.4,0.6,0.5,0.9c-0.3,0.4-0.5,0.8-0.7,1.1c-0.1,0-0.2,0.1-0.2,0.1
							c-0.7-0.7,0-1.5,0.1-2.2c-0.2-0.4-0.3-0.8-0.5-1.2c0.1-0.5,0.3-1.1,0.4-1.6c0.4-0.1,0.9,0.1,1,0.6
							C79,49.2,78.9,49.9,78.6,50.6z"/>
					</g>
					<g>
						<path class="st16" d="M79.5,61.8c-0.3,0.5-0.8,0.9-1.1,1.3c-0.1-0.1-0.3-0.2-0.5-0.4c0.2-0.3,0.4-0.5,0.6-0.8
							c0.2-0.3,0.3-0.5,0.5-0.8C79.1,61.4,79.3,61.6,79.5,61.8z"/>
					</g>
					<g>
						<path class="st16" d="M75.9,59.1c0.1,1.4-0.7,2.1-1.3,2.7c-0.1,0.3-0.3,0.7-0.4,1c-0.3,0.5-0.6,0.9-1,1.4
							c-0.3,0.2-0.5,0.3-0.8,0.4c-0.1-0.2-0.3-0.3-0.5-0.5c0.1-0.1,0.1-0.3,0.1-0.4c0.4-0.4,0.7-0.7,1.1-1.1c0.3-0.4,0.7-0.7,1-1.1
							c0.2-0.6,0.4-1.2,0.7-1.6C75.1,59.4,75.4,59.2,75.9,59.1z"/>
					</g>
					<g>
						<path class="st17" d="M55.7,106.8c-0.1,0.5-0.2,0.9-0.3,1.3c-0.1,0.5,0.3,1.3-0.5,1.5c-0.1,0.8-0.6,0.9-0.7,1.4
							c0,0.8,0,1.6,0.1,2.4c-0.3,0.1-0.6,0.3-0.8,0.5l0,1.4c0,0.6,0,1.1,0,1.7c-0.2,0.6-0.4,1.2-0.5,1.7c0,1.1,0.2,2.7-0.5,3.5
							c0.1,0.3,0.1,0.6,0.2,0.9c0.3,0.1,0.7,0.2,1,0.3c0,0.3,0.1,0.6,0.1,0.9c-0.2,0.6-0.3,1.1-0.5,1.7c0,0.4,0.1,0.7,0.1,1.1
							c-0.1,1.1-0.3,2.1-0.4,3.1c0.2,0.1,0.3,0.2,0.5,0.4c0,0.8,0,1.6,0,2.4c0.3,0.1,0.7,0.1,1,0.2c0,0.2,0,0.3,0,0.5
							c0.1,0.5,0.7,0.1,0.5,1.6c0,0.8,0,1.6,0.1,2.4c0,0.1,0.1,0.2,0.1,0.2c0,0.1-0.1,0.2-0.1,0.2c0.1,0.6,0.2,1.3,0.3,1.9
							c-0.2,0.1-0.5,0.3-0.7,0.4l-0.8-0.6c0-0.2,0-0.3,0-0.5c-0.2-0.1-0.4-0.2-0.7-0.4c-0.6,0.1-1.2,0.2-1.9,0.3
							c-0.1-0.1-0.2-0.2-0.3-0.3c-0.1-0.3-0.2-0.5-0.3-0.8c0-0.2,0.1-0.3,0.2-0.5l1.7-1.5c-0.1-0.4-0.1-0.7-0.1-1.1l0.3-0.4
							c-0.1-0.6-0.2-1.1-0.2-1.7c0-0.9,0-1.8,0-2.7c-0.2-0.7-0.5-1.3-0.7-2.1c-0.4,0.6-0.8,1.1-1.2,1.7c-0.1-0.5-0.6-0.8-0.4-1.5
							c1.1-1.6-0.1-2.9,0.3-4.9c0.1-0.6,0.2-1.3,0.3-1.9c-0.3-0.7,0.2-1.2,0.3-1.9c-0.3-0.8-0.2-1.7-0.1-2.6c0.1-0.9,0.2-1.8,0-2.6
							c0.1-1.1,0.2-2.1,0.4-3.1c-0.1-0.4-0.1-0.9-0.2-1.3c0.1-0.3,0.3-0.5,0.4-0.7l0.1-1.5c0.4-0.5,0.7-1.1,1.1-1.7
							c0.2-0.1,0.5-0.1,0.8-0.2c0,1,0.2,1.1,0.1,1.9c0.5,0.6,0.7,0,1-0.7c0.3-0.7,0.6-1.7,1.2-2C55.8,105.6,55.4,106,55.7,106.8z"/>
					</g>
					<g>
						<path class="st16" d="M55.4,108.2c-0.1,0.5,0.3,1.3-0.5,1.5C55.7,109.5,55.3,108.7,55.4,108.2z"/>
					</g>
					<g>
						<path class="st16" d="M44.9,108.6c0.8,0.6,1.6,1.1,2.3,1.8c-0.5,1.1-0.2,2-0.6,3.1c0,0.8,0.1,1.5,0.2,2.2
							c-0.1,1.2,0.3,1.9,0.2,2.5c-0.2,0.7-0.4,1.3-0.7,1.9c-0.5-0.8-0.5-1-1-2.1c-0.1,0.1-0.2,0.2-0.4,0.2c-0.4-1-0.8-1.9-1.2-2.9
							c0.1-0.5,0.1-1,0.2-1.5c0.8,0.1,0.9-1.9,1-2.8c-0.1-0.6-0.3-1.2-0.4-1.8C44.7,109,44.8,108.8,44.9,108.6z"/>
					</g>
					<g>
						<path class="st16" d="M54.3,113.4c0,0.5,0.1,1.1,0.1,1.7c0,0.1,0.1,0.3,0.1,0.3c0.2,0.3,0.4,0.6,0.7,0.8c0,0.5,0,1.1,0,1.6
							c0,0.2-0.1,0.3-0.1,0.5c-0.1,0.6-0.3,1.2-0.5,1.8c-0.1,0.7-0.2,1.3-0.3,2.1c0.1,0.9,1.3,0.5,0.7,1.8l-0.3,1.3
							c0,0.3-0.1,0.7-0.1,1c-0.2,0.2-0.3,0.3-0.4,0.5c0.2,0.4,0.4,0.8,0.6,1.2c-0.1,0.7-0.2,1.4-0.3,2c0.1,0.8,0.1,1.6,0.2,2.5
							c-0.1,0.2-0.2,0.4-0.4,0.7c-0.3-0.1-0.7-0.1-1-0.2c0-0.8-0.1-1.6,0-2.4c-0.2-0.1-0.3-0.2-0.5-0.4c0.2-1,0.3-2.1,0.4-3.1
							c0-0.3,0-0.7-0.1-1.1c0.2-0.6,0.4-1.1,0.5-1.7c0-0.3,0-0.6-0.1-0.9c-0.3-0.1-0.6-0.2-1-0.3c-0.1-0.3-0.1-0.6-0.2-0.9
							c0.8-0.7,0.5-2.4,0.5-3.5c0.1-0.6,0.3-1.2,0.5-1.7c0-0.6,0-1.1,0-1.7l0-1.4C53.7,113.7,54,113.6,54.3,113.4z"/>
					</g>
					<g>
						<path class="st16" d="M43.7,120.1c0,0.2-0.1,0.4-0.1,0.6c-0.1,1.1-0.3,2.1-0.4,3.2c-0.7-0.9-0.7-1.8-0.4-3.1
							c-0.2-1.2-0.1-2.4,0.5-2.9C43.4,118.6,43.5,119.4,43.7,120.1z"/>
					</g>
					<g>
						<path class="st16" d="M46.6,121.6c0.6,1,0.1,2.2,0.1,3.2c0.1,0.6,0.2,1.2,0.3,1.8l-0.8-0.2c-0.2-0.6-0.3-1.3-0.5-1.9
							c0.2-1.1,0.5-2.2,0.7-3.3C46.5,121.4,46.5,121.6,46.6,121.6z"/>
					</g>
					<g>
						<path class="st16" d="M44.9,131.8c-0.1,0.5-0.2,1.1-0.3,1.6c-0.4,0.2-0.7,0.3-1,0.4c-0.2-0.3-0.3-0.6-0.4-0.9
							c0.3-0.8,0.5-1.6,0.8-2.4C44.4,131,44.9,131,44.9,131.8z"/>
					</g>
					<g>
						<path class="st13" d="M68.7,87c0.7,0.7-0.3,1-0.1,1.4c-0.8,0.8-1.7,1.9-2.5,2.9c-0.8,1.1-1.6,2.1-2.1,3.1
							c-0.4,0.6-0.7,1.2-1.1,1.8c-0.3,0.6-0.7,1.2-1,1.8c0.3,0.3-0.2,0.8,0.2,1c-1.5,3.1-3.1,5.8-3.4,8.8c-0.7,2.4-1.3,5.4-1.3,8
							c-1.1,1.1,0.3,3-0.9,3.7c1,1-1.2,3.4,0.8,3.4c0.1,2.2-0.1,4.2,0.6,6.4c0.7-0.2,0,1,0.4,1.4c0,0.9,0.5,1.4,0.5,2.7
							c0.5,1.5,0,3,0.3,4.9c0.8,0,0.8,1.3,1.3,1.5c0.3,1.7-0.6,1-0.9,2.2c0,0.4,0.1,0.9,0.2,1.3c-0.3,0-0.6-0.1-0.8-0.4
							c-0.4,0.3-0.8,0.6-1.2,0.9c0,0.5-0.6,0.1-0.8,0.2c-0.1-1.3-0.1-2.8-0.2-4.2c0.4-0.2,0.5-0.6,0.8-0.4c0-1.2-0.4-1.6-0.6-2.7
							c0.3-2.7-0.9-4.1-0.5-6.8c-1.1,0.2-0.4-1.4-0.8-2c0.3-1.2,0.3-2.3,0.2-3.4c-0.1-1.1-0.2-2.1-0.2-3.2c-0.2-0.7,0.4-2.1-0.2-3
							c0.2-0.8,0.7-1.8,0.2-2.7c0-0.8,0.2-1.8,0.4-2.9c0.1-0.5,0.2-1,0.3-1.6c0.1-0.5,0.3-1,0.4-1.5l0.7-1.6c0.2-0.4,0.7-1,0.2-1.6
							c0.3-0.7,0.5-1.3,0.8-2c0.3-0.3,0.8-1,0.3-1.5c0.4-1,0.8-2,1.2-2.9c0.4-0.3,0.5-0.7,0.6-1.8c0.1-0.3,0.2-0.6,0.4-1
							c0.8-1,1.7-1.9,2.6-2.8c0-0.5,0.6-1,0.4-1.7c0.2-0.3,0.4-0.5,0.6-0.8c0.4-0.2,1-0.7,0.8-1.4l0.3-0.4
							C66.7,88.8,67.7,87.9,68.7,87z"/>
					</g>
					<g>
						<path class="st16" d="M54.2,133.7c0.1,0.5,0.7,0.1,0.5,1.6C54.9,133.8,54.4,134.2,54.2,133.7z"/>
					</g>
					<g>
						<path class="st16" d="M56.1,139.4c0,0.1,0,0.2,0,0.3c-0.4,0.2-0.7,0.3-1,0.4c-0.1-0.6-0.2-1.3-0.3-1.9l0-0.5
							c0,0.1,0.1,0.2,0.1,0.2C55.3,138.5,55.7,138.9,56.1,139.4z"/>
					</g>
					<g>
						<path class="st16" d="M54.4,140.5c-0.3,0.3-0.6,0.6-0.8,1c0-0.5,0-1.1,0-1.6L54.4,140.5z"/>
					</g>
					<g>
						<path class="st18" d="M45.4,118c0.5,1.1,0.4,1.3,1,2.1c0,0.4,0,0.8,0,1.2c0.1,0.1,0.1,0.3,0.1,0.3c-0.2,0.4-0.3,0.9-0.5,1.3
							c-0.1,0.6,0,1.6-0.3,1.7c-0.3-0.1-0.5-0.2-0.8-0.2c0-0.6,0.3-1.6,0-1.8c-0.2-0.9,0.1-1.9-0.1-3l0.2-1.4
							C45.2,118.2,45.3,118.1,45.4,118z"/>
					</g>
					<g>
						<path class="st18" d="M52.3,130.1c0,0.9,0,1.8,0,2.7c0.1,0.6,0.2,1.1,0.2,1.7l-0.3,0.4c0,0.4,0.1,0.7,0.1,1.1l-1.7,1.5
							c0-0.9,0.1-1.8,0.1-2.7c-0.4-0.8,0.3-2-0.4-2.2c0.1-1,0.1-2,0.2-3c0.4-0.5,0.8-1.1,1.2-1.7C51.8,128.7,52,129.4,52.3,130.1z"
							/>
					</g>
					<g>
						<path class="st17" d="M45.7,124.6c0.1,0.6,0.3,1.2,0.5,1.9l0.8,0.2c-0.1,0.5-0.1,0.9-0.1,1.4c0,0.8,0.1,1.7,0.1,2.5
							c0,0.1,0,0.2,0,0.3c-0.2,0.6-0.4,1.2-0.6,1.8c0.3,0.3,0.5,0.5,0.8,0.7c0.2-0.1,0.4-0.1,0.5-0.2c0.1,0.8,0.2,1.5,0.3,2.2
							c-0.2,0-0.5-0.1-0.7-0.1c-0.4-0.1-0.8-0.1-1.2-0.2c-0.2,0.1-0.3,0.2-0.5,0.2c0,1.8-0.1,3.4,0.4,4.2c0.1,0.7,0.1,1.5,0.2,2.2
							c-0.3,0.5-0.6,1-0.8,1.5l-0.8-0.1c-0.1-0.6,0.1-1.4-0.2-1.9c-0.2-1.4-0.2-3.1-0.2-4.8c0.2-1-0.3-1.2-0.4-2.6
							c0.4-0.1,0.7-0.2,1-0.4c0.1-0.5,0.2-1.1,0.3-1.6c0-0.8-0.5-0.9-0.9-1.4c0-0.1,0-0.2,0-0.2c0-0.6,0.1-1.2,0.1-1.7
							c0.1-0.1,0.2-0.1,0.4-0.2c0.1-1.2,0.2-2.5,0.3-3.6c0-0.1,0-0.2,0-0.3C45.1,124.4,45.4,124.5,45.7,124.6z"/>
					</g>
					<g>
						<path class="st18" d="M47,130.9c0,0.8,0.5,0.9,0.7,2.3c-0.1,0.1-0.3,0.1-0.5,0.2c-0.3-0.2-0.5-0.5-0.8-0.7
							C46.6,132.1,46.8,131.5,47,130.9z"/>
					</g>
					<g>
						<path class="st18" d="M47.3,135.3c0.2,0,0.5,0.1,0.7,0.1c0.2,0.4,0.3,0.8,0.5,1.2c-0.2,0.5-0.5,1-0.7,1.5
							c0.2,0.7,0.5,1,0.6,1.7c-0.1,0.2-0.3,0.3-0.5,0.5c-0.5-0.4-0.9-0.7-1.3-1.1c-0.2,0.1-0.4,0.2-0.5,0.2
							c-0.5-0.8-0.4-2.4-0.4-4.2c0.2,0,0.3-0.1,0.5-0.2C46.5,135.2,46.9,135.2,47.3,135.3z"/>
					</g>
					<g>
						<path class="st17" d="M56.3,11c-0.4-0.1-0.9-0.1-1.4-0.2C55.3,10.9,55.8,10.9,56.3,11z"/>
					</g>
					<g>
						<path class="st17" d="M58.5,11.8c-0.1,0.2-0.2,0.4-0.3,0.6c-0.5-0.1-0.8-0.1-1.1-0.2c-0.1-0.3-0.1-0.6-0.1-0.9
							C57.5,11.4,58,11.5,58.5,11.8z"/>
					</g>
					<g>
						<path class="st17" d="M81.1,65.9c-0.1,0.1-0.2,0.2-0.3,0.4c-0.3,0.4-0.6,0.8-0.9,1.1c-0.3,0-0.6-0.1-0.9-0.2
							c0.4-0.7,0.9-1.4,1.3-2.1c0.2-0.2,0.5-0.4,0.8-0.6C81.1,65,81.1,65.5,81.1,65.9z"/>
					</g>
					<g>
						<path class="st17" d="M66.6,81.2c0.1,0.4,0,1.3-1.7,2.2c-1.6,2.6-2.2,3.9-3.7,5.8L60,89.9c0.1-0.3,0-0.8,0.1-1.2
							c1.2-1.9,2.6-3.7,4-5.4c0.1,0,0.2,0,0.3-0.1c0.6-0.7,1.3-1.5,2-2.2L66.6,81.2z"/>
					</g>
					<g>
						<path class="st17" d="M59.9,90.9c-0.5,0.7-1,1.4-1.4,2.1c0.2,0.3,0,0.6-0.2,0.9c-0.2,0.4-0.5,0.7-0.5,1.1
							c-0.4,0.5-0.8,1-1.2,1.4c0.4-1.2-0.3-1.8,1.4-3.9c0.2-0.4,0.3-0.8,0.7-1.3c0.3-0.3,0.7-0.6,1-0.9
							C59.8,90.5,59.8,90.8,59.9,90.9z"/>
					</g>
					<g>
						<path class="st17" d="M56.7,102.8c-0.1,0.5-0.3,1.1-0.3,1.6c-0.2,0-0.4,0-0.6,0c-0.3-0.2-0.4-0.9,0.4-1.9
							C56.4,102.7,56.5,102.8,56.7,102.8z"/>
					</g>
					<g>
						<path class="st17" d="M48.4,136.6c0.3,0.5,0.5,1,0.8,1.5c-0.1,0.6-0.3,1.2-0.5,1.8c-0.1,0-0.2,0-0.4-0.1
							c-0.2-0.8-0.4-1-0.6-1.7C47.9,137.6,48.2,137.1,48.4,136.6z"/>
					</g>
					<g>
						<path class="st13" d="M79.5,23.3c0.1,0.2,0.1,0.3,0.2,0.5C79.6,23.6,79.6,23.4,79.5,23.3z"/>
					</g>
					<g>
						<path class="st13" d="M81,59.7c0.1,0,0.2,0,0.4,0C81.2,59.7,81.1,59.7,81,59.7z"/>
					</g>
					<g>
						<path class="st13" d="M76.3,78.4c0.2,1-0.8,1.4-0.8,1.9c0.1,0.2-0.8,1.4-1.1,0.6c-0.2,0.5-0.4,0.9-0.6,1.3
							c-0.3,0.4-1,0.7-1,1.2c0.2,0.2-0.4,0.6-0.6,0.8c-0.4-0.5-1,0.7-1.6,0.9C70.3,84.9,71,84,71,83.7c0.4-0.6,0.8-1.2,1.2-1.8
							c0-0.1,0.1-0.2,0.1-0.3c0.6-0.3,1.3-0.6,1.9-0.9C74.9,79.9,75.6,79.1,76.3,78.4z"/>
					</g>
					<g>
						<path class="st16" d="M61.2,11.3c0.1-0.5,0-0.9,0-1.3c-0.2-0.1-0.4-0.2-1.1-0.9l0.1-0.3c0.6,0.1,1.1,0.2,1.7,0.4
							c0.4,0.4,0.7,0.9,1.1,1.4C62.4,10.8,61.8,11.1,61.2,11.3z"/>
					</g>
					<g>
						<path class="st16" d="M61.2,11.5c0,0,0.1-0.1,0.1-0.2C61.2,11.4,61.2,11.5,61.2,11.5z"/>
					</g>
					<g>
						<path class="st16" d="M50.7,138.9c0.1,0.1,0.2,0.3,0.3,0.3C50.9,139.1,50.8,139,50.7,138.9z"/>
					</g>
					<g>
						<path class="st17" d="M47,99c-0.5,1.1-1,2.4-1.4,3.5c-0.4-0.7-0.3-1.2,0-1.8C45.7,99.4,46.7,99.5,47,99z"/>
					</g>
					<g>
						<path class="st13" d="M70.5,85.1c-0.2,1.2-1,1.7-1.8,1.8c0.1-0.3-0.1-0.9,0.6-1.3C69.7,85.5,70.1,85.3,70.5,85.1z"/>
					</g>
				</g>
			</g>
		</g>
		<g>
			<g>
				<g>
					<g>
						<path class="st19" d="M43.9,133.2c0,1.6,0,3.1,0,4.7c0,1.1-0.4,3.2,0.4,4.1c1,1.1,4.1,0.8,5.4,0.9c2.1,0.2,4.5,0.8,6.6,0.2
							c1.8-0.5,2.3-1.2,2.5-3c0.2-1.4,0.3-2.8,0.5-4.2c0.1-1,0.6-2.6,0-3.6c-0.9-1.5-4.2-1.1-5.7-1.2c-2.1-0.2-4.6-0.8-6.6,0.1
							c-1,0.4-1.9,1-2.8,1.6c-1.3,0.7,1.8,0.4,2.3,0.1c0.8-0.5,1.7-0.9,2.5-1.4c-0.7,0.2-1.4,0.4-2.2,0.6c2.1,0.2,8.8-0.3,9.5,1.8
							c0.3,1-0.3,2.8-0.4,3.8c-0.2,1.4,0,4-0.9,5.1c0.3-0.2,0.7-0.4,1-0.6c-0.7,0.3-2.7-0.3-3.6-0.4c-1.4-0.1-4,0-5-0.8
							c-1.1-0.8-0.6-2.5-0.6-3.9c0-1.6,0-3.1,0-4.7C46.9,131.9,43.9,132.3,43.9,133.2z"/>
					</g>
				</g>
			</g>
			<g>
				<g>
					<g>
						<path class="st19" d="M43.9,123.5c0,1.4,0,2.8,0,4.3c0,0.4,0.2,0.6,0.6,0.7c4.5,0.9,8.5,0.5,12.8-1c0.3-0.1,0.9-0.5,0.9-0.9
							c0.1-13.4,0-30,9.8-40.2c6.9-7.2,15.3-12.7,21.3-20.9c11.8-16.2,0.2-38.9-13.2-50.3C61.7,3,42.8-0.1,25.1,6.1
							C7.3,12.4-2.6,28,0.3,46.8c1.5,9.5,6,19.5,14.1,25.2c7.9,5.6,18.6,6.6,27.1,2c0.5-0.3,1.2-0.7,0.8-1.3c-1.8-2.9-3-5.9-3.8-9.3
							c-0.3-1.2-2.8-0.3-3.1,0.6c-2.5,9.2-15-0.8-18.1-4.7c-5.2-6.7-6.4-15.8-3-23.6c8.1-18.5,33.9-19.5,48.5-8.6
							c18.1,13.5,9.5,35.9-3.1,50c-5.1,5.7-10.4,10-12.9,17.5C43.7,103.8,43.8,113.8,43.9,123.5c0,1.4,3.1,0.8,3.1-0.3
							c-0.2-10.6-0.5-22.2,4.1-32.1c3.7-7.9,11.6-13.2,16.5-20.4c9.7-14.1,14-32.2-1.1-44.4C54.7,16.9,37,15.3,23.7,22.6
							C10.9,29.7,5,45.7,13.2,58.6c4.3,6.7,21.6,18.5,25.2,5c-1,0.2-2,0.4-3.1,0.6c0.8,3.5,2.1,6.6,4,9.7c0.3-0.4,0.5-0.9,0.8-1.3
							C20.3,83.2,4.5,60.6,3,43.2c-0.8-8.4,1-17.2,6.2-24c6.5-8.4,17-12.6,27.2-14C55,2.7,73,12.2,83.3,27.6
							c5.1,7.6,8.2,16.9,7.7,26.1c-0.5,9.5-8.5,16.7-15.1,22.6C69.1,82.5,61.5,87.9,58.5,97c-1.9,5.7-2.4,12.1-2.9,18.1
							c-0.2,2.5,0.6,7.7-0.4,9.9c-0.8,1.7-4.4,2.6-5.9,2.2c-2.5-0.6-2.3-1.8-2.3-4C47,121.8,43.9,122.4,43.9,123.5z"/>
					</g>
				</g>
			</g>
		</g>
	</g>
</g>
</svg>
