<?xml version="1.0" encoding="utf-8"?>
<!-- Generator: Adobe Illustrator 22.0.0, SVG Export Plug-In . SVG Version: 6.00 Build 0)  -->
<svg version="1.1" xmlns="http://www.w3.org/2000/svg" xmlns:xlink="http://www.w3.org/1999/xlink" x="0px" y="0px"
	 viewBox="0 0 110.4 114" style="enable-background:new 0 0 110.4 114;" xml:space="preserve">
<style type="text/css">
	.st0{fill:#FFFEFD;}
	.st1{opacity:0.9;}
	.st2{fill:#CBE5CF;}
	.st3{fill:#DCEDDF;}
	.st4{fill:#E3F1E5;}
	.st5{fill:#E0EFE2;}
	.st6{fill:#D1E8D4;}
	.st7{fill:#D4E9D7;}
	.st8{fill:#BEDEC2;}
	.st9{fill:#C3E1C7;}
	.st10{fill:#C7E2CB;}
	.st11{fill:#EEF6EF;}
	.st12{fill:#EBF5EC;}
	.st13{fill:#FEF9DA;}
	.st14{fill:#FFFDF1;}
	.st15{fill:#FDF5C7;}
	.st16{fill:#FDF2B4;}
	.st17{fill:#FCEFA5;}
	.st18{fill:#FCED95;}
	.st19{fill:#272525;}
	.st20{opacity:0.85;}
	.st21{fill:#D3E6F6;}
	.st22{fill:#C4DEF3;}
	.st23{fill:#ACD0EE;}
	.st24{fill:#E2EFF9;}
	.st25{fill:#B8D7F0;}
	.st26{fill:#9FC9EB;}
	.st27{fill:#EADAEE;}
	.st28{fill:#F7F1F8;}
	.st29{fill:#DFC7E5;}
	.st30{fill:#D5B5DC;}
	.st31{fill:#CDA6D5;}
	.st32{fill:#C497CE;}
	.st33{fill:#D8BBDF;}
	.st34{fill:#E5D1E9;}
	.st35{fill:#E8D6EB;}
	.st36{fill:#DDC3E2;}
	.st37{fill:#DFC6E4;}
	.st38{fill:#CEA9D6;}
	.st39{fill:#D2B0DA;}
	.st40{fill:#F2E9F4;}
	.st41{fill:#F0E4F2;}
	.st42{opacity:0.8;}
	.st43{opacity:0.8;fill:#DC7D5B;}
	.st44{opacity:0.8;fill:#E9AE99;}
	.st45{opacity:0.8;fill:#F0C7B8;}
	.st46{opacity:0.8;fill:#F7E1DA;}
	.st47{fill:#F7E0D8;}
	.st48{fill:#FCF3F0;}
	.st49{fill:#F2D0C4;}
	.st50{fill:#EEC0B0;}
	.st51{fill:#EBB4A0;}
	.st52{fill:#E7A790;}
	.st53{fill:#F0C6B6;}
	.st54{fill:#F5D8CE;}
	.st55{fill:#F6DCD3;}
	.st56{fill:#F1CCBF;}
	.st57{fill:#F2CFC2;}
	.st58{fill:#ECB6A3;}
	.st59{fill:#EDBDAB;}
	.st60{fill:#FAECE7;}
	.st61{fill:#F9E8E2;}
	.st62{fill:#B7E9E6;}
	.st63{fill:#CFF0EE;}
	.st64{fill:#D9F3F2;}
	.st65{fill:#D4F2F0;}
	.st66{fill:#BFECE9;}
	.st67{fill:#C3EDEA;}
	.st68{fill:#A5E4E0;}
	.st69{fill:#ACE6E3;}
	.st70{fill:#B1E7E4;}
	.st71{fill:#E8F8F7;}
	.st72{fill:#E3F6F5;}
	.st73{fill:#FDF3BA;}
	.st74{fill:#FEF7D0;}
	.st75{fill:#FEF8D5;}
	.st76{fill:#FDF4C2;}
	.st77{fill:#FDF5C5;}
	.st78{fill:#FCF0A8;}
	.st79{fill:#FDF1AF;}
	.st80{fill:#FEFBE8;}
	.st81{fill:#FEFAE4;}
	.st82{fill:#C9E1F4;}
	.st83{fill:#DBEAF7;}
	.st84{fill:#DEEDF8;}
	.st85{fill:#CFE4F5;}
	.st86{fill:#D2E5F6;}
	.st87{fill:#BBD8F1;}
	.st88{fill:#C1DCF2;}
	.st89{fill:#EDF5FB;}
	.st90{fill:#EAF3FB;}
	.st91{fill:#C5EDEB;}
	.st92{fill:#91DED9;}
	.st93{fill:#A1E3DF;}
	.st94{fill:#80D8D3;}
</style>
<g id="background">
	<rect x="-1051.7" y="-619.1" class="st0" width="1200" height="800"/>
</g>
<g id="colour">
</g>
<g id="object">
	<g>
		<g>
			<g class="st1">
				<g class="st1">
					<path class="st53" d="M47.3,111.2c-1.4,0.1-2.8,0.2-4.2,0.4c0.3-0.3,0.6-0.7,0.9-1C45.1,109.7,46.2,111,47.3,111.2z"/>
					<path class="st53" d="M51.3,111.2L51.3,111.2c-1.1,0-2.2,0-3.4,0c0.1,0,0.2,0,0.2-0.1C49.2,110.5,50.3,110.2,51.3,111.2z"/>
					<path class="st54" d="M70.5,101.5c-1.4,3.7-3.1,6.7-4.6,9.8c-0.4,0.2-0.7,0.7-1,0.6c0,0.1-2,0.3-3.1,0.2
						c0.7-1.5,1.4-3.3,1.9-5.3c-0.4-0.4-1.2-0.8-1.1-1.5c0.4-2.7,1.4-4.3,2.3-5.9C65.2,99.5,68.6,101.7,70.5,101.5z"/>
					<path class="st47" d="M75,102.3c1.2,0.3,2.7,1.7,3.4,2.1c-0.5,1.6-1,3.1-1.6,4.4c0.4,0.7,0.6,1.5,1,1.9
						c-0.1,0.3-0.2,0.5-0.4,0.8c-2.1,0.1-4.1,0.3-6.2,0.5C71.3,110.9,74.2,105.1,75,102.3z"/>
					<path class="st55" d="M71.3,102.2c0.5-0.2,0.9-0.3,1.3-0.5c0.8,0.1,1.6,0.3,2.3,0.6c-0.8,2.8-1.7,5.4-2.8,7.2
						c0.1,0,0.2,1,0.3,1.1c-0.7,0.6-1.1,0.4-1.4,1.3c-1.9,0.2-3.8,0.4-5.7,0.4c0.5-0.7,0.8-0.3,1.2-0.3c-0.1-0.9-0.4-0.9-0.7-0.8
						c1.5-3.1,3.2-6.1,4.6-9.8l0.4,0C71,102,71.1,102.4,71.3,102.2z"/>
					<path class="st56" d="M50.3,107.2c1.3-1.6,2.2-4,3-6.6c0.3,0.3,1,0.9,1.5,0.3c0.9,0.1,2.7,0.9,3.1,0c0.4-0.9-2.2,3.8-3.2,5.9
						c-0.2,1.4-0.7,2.5-1.3,3.5c-0.2-0.1,0-1-0.1-1.1c0,0.1-0.4,1.1-0.4,1.1s-1.3-0.1-1.9-0.2c-0.2-1.4-1-0.4-1.1-0.1l-0.5,0l0,0
						c0.3-0.4,0.5-0.9,0.8-1.3C50.2,108.3,50.3,107.2,50.3,107.2z"/>
					<path class="st57" d="M62.6,105.2c0.4-2.7,1.4-4.3,2.3-5.9c-0.3-0.2-1.2-0.6-1.3-0.6c0.1,0.6,0.2,1.3,0,1.5
						c-0.6,0.3-1.3,0.6-1.7,0.6c-0.5-0.2-1-1.1-1.5-1.6c-0.5,0.2-0.9,0.4-1.4,0.6c0,0-0.3,1-0.4,1.4c-0.3,0-0.6-0.2-0.9-0.4
						c0,0.2-2.8,3.4-3.2,5.9c-0.2,1.4-0.7,2.5-1.3,3.5c0,0,1.5,0.3,2.3,0.4c0-0.3-0.2-0.9-0.3-1c0.1,0,0.8,0.9,1,1.1
						c0.5,0.1,1.6,0.2,1.7,0.2c0.1,0-0.1-0.7,0-1.4c0.5,1,1.1,1.7,1.6,2.1l0.5,0.1c0,0.3,0.1,0.5,0,0.5c-0.1,0.1-0.2,0.1-0.3,0.2
						c0.3,0.1,1.6,0.4,1.9,0.5c-0.3-0.2-0.7-0.6-1-1c0.4,0.1,0.7,0.1,1.1,0.2l0,0c0.7-1.5,1.4-3.3,1.9-5.3
						C63.4,106.4,62.6,105.9,62.6,105.2z"/>
					<path class="st58" d="M27.7,112.2c-0.5-0.7-1.2-1-1.8-1.5c-0.6-0.4-1.2-1-1.5-1.9c-0.3-1.7,0.1-3.5,0.6-5.2
						c0.5-1.8,1-3.6,1.6-5.4c-0.1,0.7,0.6,1.4,1.8,1.8c1.2,0.3,2.8,0.4,4.5,0.3c-0.7,1.7-2.1,1-2.4,3.7c0,0.4,0.4,0.7,0.5,1
						c-0.6,1.2-2,1.7-1.9,3.5c0.1,1.1,0.5,2.3,0.8,3.7l-0.4,0C29.1,111.7,28.5,112.1,27.7,112.2z"/>
					<path class="st59" d="M34.5,112.8l-2.1,0.6c-0.1-0.3-0.1-0.7-0.2-1c0.9-0.2,1.7-0.4,2.4-0.7C34.6,112,34.5,112.4,34.5,112.8z"
						/>
					<path class="st59" d="M31,105c-0.2-0.3-0.5-0.7-0.5-1c0.3-2.7,1.7-2,2.4-3.7c1.3,0,2.7-0.1,4-0.1c-0.2,0.3-0.4,0.6-0.6,0.9
						c0.7-0.1,1,2.4,1.7,2.4c-1.9,2.7-4.4,3.5-5.2,7.9c-0.8,0.3-1.8,0.6-2.8,0.7c-0.3-1.4-0.7-2.6-0.8-3.7
						C29,106.6,30.4,106.2,31,105z"/>
					<path class="st50" d="M37.9,103.5c-0.7,0-1-2.5-1.7-2.4c0.2-0.3,0.4-0.6,0.6-0.9l4.5-0.1c0.1,0,0.2,0.1,0.3,0.1
						c1.1,0.3,2.1,0.1,3.1,0.4c-0.7,1.4-1.4,2.9-2.1,4.2c-1.3-2-2.8-3.6-4.5-4.5c0.6,0.3,0.5,2.1,0.8,2.5c1.1,1.9,2,6,1.6,7.8
						c-2,0.3-3.9,0.8-5.7,1.3c-0.2-0.4-0.5-1.2-0.6-1.1c-0.5,0.3-1,0.5-1.6,0.7C33.5,107,36,106.2,37.9,103.5z"/>
					<path class="st53" d="M42.6,104.8c0.7-1.4,1.4-2.8,2.1-4.2c0.3,0.1,0.5,0.2,0.8,0.3c0-0.3,0-0.6-0.1-1l0.6,0
						c0.2,0.2,0.4,1.3,0.8,0l0.8,0c0.3,0.4,0.5,1,0.6,1.8l0-1.1c0.3-0.7,0.6,0,0.8,0c0-0.2,0-0.5,0.1-0.7c1.3,0.9,3.1,0.1,3.5,0.1
						c0.2,0.2,0.4,0.4,0.5,0.5c-0.8,2.6-1.8,5-3,6.6c0,0-0.1,1.1-0.2,1.4c-0.3,0.4-0.5,0.9-0.8,1.3c-1.4-1.8-3.3,0-3.3,0l-0.6,0
						c-1.1-0.2-2.9-2-4.2,0.5l-0.5,0.1c0.4-1.8-0.5-5.9-1.6-7.8c-0.3-0.4-1.3-2.3-0.8-2.5c0.9,0.1,2.1,1.3,3,2.4
						C42.1,103.8,42.7,104.9,42.6,104.8z"/>
					<path class="st60" d="M83.4,107.2c0.4,0.2,0.9,0.5,1.4,0.7c-0.5,0-1-0.4-1.3,0.4c-0.2-0.3-0.5-0.3-0.7-0.3
						C82.9,107.6,83.2,107.4,83.4,107.2z"/>
					<path class="st60" d="M82.1,112.2l-0.4,0c0.1-0.7,0.4-1.4,0.6-1c0.1-0.7-0.3,0-0.2-0.4c0.1-1,0.2-1,0.4-0.9
						c-0.1,1.6-0.4,3.2-0.6,3.2l-0.3,0C81.8,112.8,82,112.6,82.1,112.2z"/>
					<path class="st61" d="M77.7,110.6c-0.4-0.4-0.6-1.1-1-1.9c0.6-1.3,1.1-2.8,1.6-4.4c1.2,0.8,2.3,1.5,3.5,2.1
						c-0.2,0.2-0.5,0.4-0.7,0.8c0.3,0,0.5,0,0.7,0.3c-0.1,0.2-0.1,0.4-0.2,0.6l0,0c-0.2-0.1-0.3-0.1-0.4,0.8c0,0.4,0.3-0.3,0.2,0.4
						c-0.2-0.4-0.6,0.3-0.6,1l0.4,0c-0.1,0.4-0.4,0.6-0.5,0.9c-1.2-0.1-2.3-0.1-3.5,0C77.4,111.1,77.5,110.9,77.7,110.6z"/>
				</g>
			</g>
		</g>
		<g>
			<g class="st1">
				<g class="st1">
					<path class="st53" d="M89.4,79.4c-0.4,2-0.8,3.9-1.1,5.9c-0.2-0.5-0.4-1-0.6-1.5C87.3,82.1,88.9,80.9,89.4,79.4z"/>
					<path class="st53" d="M90.6,74C90.6,74,90.6,74,90.6,74c-0.3,1.5-0.7,3-1,4.5c0-0.1,0-0.2,0-0.3C89.4,76.7,89.4,75.2,90.6,74z"
						/>
					<path class="st54" d="M85.6,47.4c3.4,2.3,6,4.8,8.7,7.3c0.1,0.5,0.5,1.1,0.4,1.4c0.1,0-0.2,2.7-0.5,4.1
						c-1.3-1.1-2.9-2.2-4.8-3.2c-0.5,0.4-1.1,1.4-1.8,1.3c-2.6-0.9-4-2.4-5.3-3.8C82.5,54.1,85.5,50,85.6,47.4z"/>
					<path class="st47" d="M87.3,41.8c0.5-1.5,2.2-3.4,2.8-4.2c1.5,0.8,2.9,1.7,4,2.6c0.8-0.4,1.6-0.6,2.1-1.1
						c0.2,0.2,0.5,0.4,0.7,0.6c-0.3,2.7-0.5,5.5-0.8,8.2C95.2,47.5,90,43.1,87.3,41.8z"/>
					<path class="st55" d="M86.5,46.5c-0.1-0.6-0.1-1.2-0.2-1.8c0.3-1,0.6-2,1-3c2.7,1.3,5,2.9,6.6,4.5c0-0.2,1.1-0.1,1.1-0.3
						c0.5,1,0.1,1.6,1,1.9c-0.2,2.5-0.5,5.1-0.9,7.6c-0.6-0.7-0.1-1.1,0-1.7c-0.9,0.1-1,0.4-0.9,0.9c-2.7-2.4-5.4-5-8.7-7.3l0.1-0.5
						C86.2,46.9,86.7,46.9,86.5,46.5z"/>
					<path class="st56" d="M86.4,74.7c-1.3-2-3.3-3.6-5.7-5.1c0.4-0.4,1.1-1.1,0.7-1.9c0.3-1.1,1.5-3.4,0.7-4
						c-0.8-0.6,3.2,3.4,5,5.1c1.3,0.5,2.3,1.3,3.1,2.3c-0.1,0.2-0.9-0.2-1.1,0c0.1,0,1,0.7,1,0.7s-0.5,1.6-0.7,2.5
						c-1.5,0.1-0.7,1.3-0.4,1.4l-0.2,0.7l0,0c-0.4-0.4-0.7-0.9-1-1.3C87.5,75,86.4,74.7,86.4,74.7z"/>
					<path class="st57" d="M87.6,58.2c-2.6-0.9-4-2.4-5.3-3.8c-0.2,0.4-0.9,1.4-0.9,1.5c0.6,0,1.3-0.1,1.5,0.3
						c0.2,0.8,0.3,1.7,0.2,2.3c-0.4,0.6-1.3,1.1-1.9,1.8c0.1,0.6,0.2,1.3,0.3,1.9c0,0,0.9,0.6,1.3,0.7c-0.1,0.4-0.3,0.7-0.6,1
						c0.2,0.1,2.7,4.1,5,5.1c1.3,0.5,2.3,1.3,3.1,2.3c0,0,0.1-0.1,0.1-0.3c0.1-0.2,0.2-0.5,0.3-0.8c0.2-0.6,0.5-1.3,0.6-1.8
						c-0.3,0-0.9,0.2-1,0.3c0-0.1,1.1-0.9,1.4-1.2c0.2-0.6,0.6-2.1,0.6-2.2c0-0.2-0.7,0-1.4-0.2c1.1-0.5,1.9-1.1,2.5-1.9l0.2-0.6
						c0.3,0,0.5,0,0.5,0.1c0,0.2,0.1,0.3,0.1,0.5c0.2-0.4,0.8-2.1,1-2.5c-0.3,0.4-0.7,0.8-1.2,1.1c0.1-0.5,0.3-0.9,0.4-1.4l0-0.1
						c-1.3-1.1-2.9-2.2-4.8-3.2C88.9,57.4,88.3,58.4,87.6,58.2z"/>
					<path class="st58" d="M81.9,105.2c-1.6,0.6-2.1,2.1-4,2.4c-3.5,0.3-6.9-1.3-10.7-2c2.6-3.5,4.6-7.3,6.2-11.2
						c1.2,1.5-0.1,2.9,2.1,4.5c0.3,0.1,0.8-0.1,1.2-0.2c0.7,1.3,0.5,3.2,2.3,3.7c1.1,0.3,2.3,0.4,3.7,0.6l-0.1,0.4
						C81.9,103.7,82.1,104.4,81.9,105.2z"/>
					<path class="st59" d="M85.5,97.9l-0.6,3c-0.3-0.1-0.7-0.2-1-0.2c0.3-1.1,0.5-2.3,0.7-3.5C84.9,97.4,85.2,97.7,85.5,97.9z"/>
					<path class="st59" d="M76.7,98.7c-0.4,0.1-0.8,0.3-1.2,0.2c-2.2-1.6-0.9-3-2.1-4.5c0.6-1.5,1.1-3,1.6-4.6
						c0.2,0.3,0.4,0.7,0.6,1c0.2-0.9,2.7-0.3,3-1.2c1.8,3.3,1.3,6.8,4.7,9.9c-0.1,1.2-0.4,2.3-0.7,3.5c-1.4-0.3-2.7-0.3-3.7-0.6
						C77.2,101.9,77.4,100,76.7,98.7z"/>
					<path class="st50" d="M78.6,89.7c-0.3,0.9-2.7,0.3-3,1.2c-0.2-0.4-0.4-0.7-0.6-1c0.6-1.8,1.1-3.6,1.6-5.4
						c0.1-0.1,0.1-0.2,0.2-0.3c0.7-1.3,0.8-2.5,1.4-3.7c1.2,1.2,2.3,2.5,3.4,3.7c-2.4,1.1-4.5,2.5-6,4.1c0.5-0.6,2.2,0.1,2.7-0.2
						c2.3-0.7,6.6-0.8,8.1,0.4c-0.5,2.8-1,5.6-1.5,8.4c-0.5,0.1-1.3,0.1-1.3,0.3c0,0.8-0.1,1.6-0.2,2.4
						C79.9,96.5,80.4,92.9,78.6,89.7z"/>
					<path class="st53" d="M81.6,84.1c-1.1-1.3-2.2-2.5-3.4-3.7c0.2-0.3,0.3-0.6,0.6-0.9c-0.3-0.1-0.6-0.2-0.9-0.1l0.2-0.7
						c0.3-0.2,1.4-0.2,0.2-1l0.2-1c0.5-0.3,1.1-0.4,1.9-0.4l-1-0.3c-0.6-0.5,0.2-0.7,0.3-1c-0.2,0-0.5-0.1-0.7-0.2
						c1.3-1.4,1-3.9,1.1-4.3c0.2-0.2,0.5-0.4,0.7-0.6c2.4,1.5,4.4,3.1,5.7,5.1c0,0,1,0.3,1.3,0.5c0.3,0.4,0.7,0.9,1,1.3
						c-2.2,1.5-1,4.4-1,4.5l-0.2,0.8c-0.5,1.5-3,3.4-1.1,5.9l-0.1,0.7c-1.5-1.1-5.8-1.1-8.1-0.4c-0.4,0.2-2.7,0.8-2.7,0.2
						C76.6,86.2,81.8,84,81.6,84.1z"/>
					<path class="st60" d="M93.8,31.3c0.3-0.6,0.7-1.1,1-1.7c-0.1,0.7-0.6,1.3,0.1,1.8c-0.3,0.2-0.4,0.6-0.5,0.9
						C94.2,31.9,94,31.6,93.8,31.3z"/>
					<path class="st60" d="M98.6,33.4L98.5,34c-0.7-0.1-1.3-0.6-0.9-0.9c-0.7-0.1-0.1,0.4-0.4,0.3c-0.9-0.2-0.9-0.4-0.8-0.6
						c1.6,0.3,3.1,0.9,3.1,1.2l-0.1,0.4C99.1,34,99,33.6,98.6,33.4z"/>
					<path class="st61" d="M96.2,39.2c-0.5,0.5-1.2,0.7-2.1,1.1c-1.2-0.9-2.6-1.8-4-2.6c1-1.5,1.9-2.9,2.8-4.4
						c0.1,0.3,0.3,0.7,0.6,1c0.1-0.3,0.1-0.7,0.5-0.9c0.1,0.1,0.3,0.2,0.6,0.3l0,0c-0.2,0.2-0.2,0.4,0.8,0.6
						c0.4,0.1-0.3-0.4,0.4-0.3c-0.4,0.3,0.2,0.8,0.9,0.9l0.1-0.5c0.4,0.2,0.5,0.5,0.8,0.8c-0.3,1.5-0.5,3.1-0.7,4.7
						C96.7,39.5,96.4,39.3,96.2,39.2z"/>
				</g>
			</g>
		</g>
		<g>
			<g class="st1">
				<g class="st1">
					<path class="st53" d="M49.4,30.4c-2.4,0.3-4.7,0.8-7.1,1.2c0.5-0.4,1-0.8,1.5-1.1C45.4,29.4,47.5,30.4,49.4,30.4z"/>
					<path class="st53" d="M56,29.7C56,29.7,56,29.8,56,29.7c-1.9,0.1-3.7,0.3-5.5,0.5c0.1,0,0.2-0.1,0.4-0.1
						C52.5,29.4,54.2,28.9,56,29.7z"/>
					<path class="st54" d="M86.9,19.5C84.6,23,82,26,79.6,29c-0.6,0.2-1.2,0.6-1.6,0.6c0,0.1-3.3,0.3-4.9,0.2c1-1.5,1.9-3.3,2.7-5.3
						c-0.7-0.4-2-0.8-2-1.5c0.4-2.7,1.9-4.3,3.5-5.9C77.8,17.2,83.7,19.6,86.9,19.5z"/>
					<path class="st47" d="M94.4,20.9c2,0.5,4.6,2.1,5.6,2.7c-0.9,1.5-1.8,2.9-2.9,4.1c0.6,0.8,0.9,1.6,1.5,2.1
						c-0.2,0.2-0.4,0.5-0.6,0.7c-3.3-0.3-6.7-0.4-10-0.4c0.2-0.5,1.4-2.1,2.8-3.9C92.2,24.3,93.8,22.3,94.4,20.9z"/>
					<path class="st55" d="M88.3,20.4c0.8-0.1,1.5-0.2,2.2-0.4c1.3,0.2,2.6,0.5,3.9,0.9c-1.3,2.7-3,5.1-4.7,6.9
						c0.2,0,0.3,1.1,0.5,1.1c-1.1,0.5-1.9,0.3-2.2,1.2c-3.1-0.1-6.1,0-9.2-0.1c0.7-0.7,1.3-0.2,2-0.2c-0.2-0.9-0.7-1-1.2-0.8
						c2.4-3,5-6,7.3-9.5l0.7,0.1C87.8,20.1,87.9,20.5,88.3,20.4z"/>
					<path class="st56" d="M53.6,26c1.8-1.8,3.1-4.3,4-7c0.6,0.2,1.7,0.7,2.5,0.1c1.5,0,4.7,0.6,5.2-0.3c0.5-0.9-3.3,3.9-4.6,6.2
						c-0.1,1.4-0.9,2.6-1.7,3.6c-0.3-0.1-0.1-1-0.4-1.1c0,0.1-0.5,1.1-0.5,1.1s-2.1,0-3.1,0.1c-0.6-1.4-1.8-0.2-1.8,0.1l-0.9,0.1
						l0,0c0.4-0.5,0.7-1,1.1-1.4C53.7,27.1,53.6,26,53.6,26z"/>
					<path class="st57" d="M73.9,22.9c0.4-2.7,1.9-4.3,3.5-5.9c-0.6-0.2-2-0.6-2.2-0.7c0.1,0.6,0.4,1.3,0.1,1.6
						c-0.9,0.3-2.1,0.6-2.8,0.6c-0.9-0.2-1.8-1.1-2.8-1.5c-0.8,0.2-1.6,0.4-2.3,0.7c-0.1,0-0.5,1-0.5,1.4c-0.5,0-1-0.1-1.5-0.3
						c-0.1,0.2-4.2,3.6-4.6,6.2c-0.1,1.4-0.9,2.6-1.7,3.6c0,0,0.7,0,1.4,0c0.8,0,1.7,0.1,2.3,0.1c0-0.3-0.5-0.8-0.6-0.9
						c0.2,0,1.4,0.8,1.8,1c0.8,0.1,2.6,0.1,2.8,0c0.2,0-0.2-0.7-0.2-1.4c0.9,1,1.9,1.7,2.9,2l0.8,0.1c0.1,0.3,0.1,0.5,0,0.5
						c-0.2,0.1-0.3,0.1-0.5,0.2c0.5,0.1,2.6,0.4,3.2,0.4c-0.6-0.2-1.1-0.6-1.6-1l1.7,0.1l0.1,0c1-1.5,1.9-3.3,2.7-5.3
						C75.2,24.1,73.8,23.6,73.9,22.9z"/>
					<path class="st58" d="M17.5,35.5c-1.5-1-3.4-0.5-4.9-1.9c-2.5-2.7-2.8-6.5-4.5-10c5.7,0,11.1-0.6,16.5-1.2
						c-1,1.8-3.4,1.4-4,4.2c0.1,0.4,0.6,0.6,0.9,0.9c-1.1,1.4-3.2,2.2-2.8,4c0.3,1.1,0.9,2.1,1.4,3.5L19.7,35
						C19.1,34.6,18.4,35.2,17.5,35.5z"/>
					<path class="st59" d="M27.1,34.7l-3.4,1c-0.1-0.3-0.2-0.6-0.3-0.9c1.4-0.3,2.7-0.7,4.1-1.2C27.3,33.9,27.2,34.3,27.1,34.7z"/>
					<path class="st59" d="M21.6,27.5c-0.3-0.3-0.8-0.5-0.9-0.9c0.5-2.8,3-2.4,4-4.2l6.2-0.8c-0.3,0.3-0.6,0.7-0.9,1
						c1.1-0.2,1.8,2.3,2.9,2.1c-1.4,1.6-3.2,2.6-4.8,4c-1.6,1.3-3,2.8-3.8,5.1c-1.3,0.5-2.7,0.9-4,1.3c-0.5-1.4-1.2-2.4-1.4-3.5
						C18.4,29.7,20.5,28.8,21.6,27.5z"/>
					<path class="st50" d="M32.8,24.6c-1.1,0.2-1.8-2.3-2.9-2.1c0.3-0.3,0.6-0.7,0.9-1l3.6-0.5l3.6-0.5c0.2,0,0.3,0,0.5,0
						c1.9,0,3.4-0.3,5.1-0.2c-1,1.5-2,3.1-2.9,4.6c-2.4-1.7-5-3-7.7-3.6c1,0.2,1,2,1.5,2.3c2,1.7,4,5.6,3.4,7.5
						c-1.7,0.3-3.3,0.8-5,1.2c-1.7,0.4-3.3,0.8-5,1.3c-0.3-0.4-0.8-1.1-1-1c-0.9,0.4-1.8,0.7-2.7,1c0.7-2.3,2.2-3.8,3.8-5.1
						C29.6,27.3,31.4,26.2,32.8,24.6z"/>
					<path class="st53" d="M40.7,24.9c1-1.5,1.9-3,2.9-4.6c0.4,0,0.9,0.1,1.4,0.2c0-0.3-0.1-0.6-0.2-0.9l1-0.1
						c0.4,0.1,0.9,1.2,1.3-0.2l1.4-0.1c0.5,0.4,0.9,0.9,1.2,1.7l-0.1-1.1c0.4-0.8,0.9-0.1,1.4-0.1c0-0.2,0-0.5,0-0.7
						c2.2,0.7,5.2-0.4,5.8-0.4c0.3,0.2,0.6,0.3,1,0.4c-1,2.7-2.2,5.1-4,7c0,0,0.1,1.1-0.1,1.5c-0.4,0.5-0.7,0.9-1.1,1.4
						c-2.5-1.6-5.5,0.6-5.6,0.6l-1,0.2c-1,0-2.3-0.3-3.6-0.4c-1.3,0-2.6,0.3-3.6,1.7l-0.8,0.2c0.6-1.9-1.4-5.8-3.4-7.5
						c-0.5-0.3-2.3-2.1-1.5-2.3C35.9,21.2,40.9,25.1,40.7,24.9z"/>
					<path class="st60" d="M108.2,27.6c0.7,0.4,1.4,0.7,2.2,1.1c-0.8-0.2-1.6-0.7-2.2,0c-0.3-0.3-0.7-0.4-1.1-0.5
						C107.4,28,107.8,27.8,108.2,27.6z"/>
					<path class="st60" d="M105.7,32.4l-0.6-0.1c0.1-0.7,0.7-1.3,1.1-0.9c0.1-0.7-0.4-0.1-0.4-0.4c0.2-0.9,0.4-0.9,0.7-0.7
						c-0.3,1.6-1,3.1-1.3,3l-0.4-0.1C105.1,32.8,105.5,32.7,105.7,32.4z"/>
					<path class="st61" d="M98.6,29.8c-0.6-0.5-0.9-1.3-1.5-2.1c1-1.2,1.9-2.6,2.9-4.1c1.9,1.1,3.8,1.9,5.7,3
						c-0.4,0.1-0.8,0.3-1.2,0.6c0.4,0.1,0.8,0.2,1.2,0.5c-0.1,0.1-0.2,0.3-0.3,0.6l0,0c-0.3-0.2-0.5-0.2-0.7,0.7
						c-0.1,0.4,0.5-0.3,0.4,0.4c-0.4-0.4-0.9,0.2-1.1,0.9l0.7,0.1c-0.2,0.4-0.6,0.5-0.9,0.7c-1.9-0.3-3.8-0.6-5.7-0.8
						C98.2,30.2,98.4,30,98.6,29.8z"/>
				</g>
			</g>
		</g>
		<g>
			<g>
				<g>
					<g>
						<path class="st19" d="M8.3,30.1c4,27.6,7.3,55.3,12.9,82.7c0.1,0.4,0.6,0.6,0.9,0.7c19.7,1.4,39.5,0.5,59-2.7
							c0.7-0.1,1.4-0.4,1.6-1.2c6.7-28.3,13.3-56.6,20-84.8c0.3-1.4-2.6-1.1-2.9,0.2c-6.7,28.3-13.3,56.6-20,84.8
							c0.5-0.4,1.1-0.8,1.6-1.2c-11.9,1.9-23.9,3.1-35.9,3.3c-3.1,0.1-6.2,0.1-9.3,0c-3-0.1-7.4,0.4-10.2-0.4
							c-4-1.2-4.2-11.3-4.9-15.2c-4-22.2-6.7-44.7-9.9-67C11,28,8.1,28.7,8.3,30.1L8.3,30.1z"/>
					</g>
				</g>
			</g>
			<g>
				<g>
					<g>
						<path class="st19" d="M4.1,31.4c34.6-4,69.4-4.7,104.1-5.4c0.8,0,1.7-0.6,1.6-1.5c-0.5-4.6-0.6-9.2-0.3-13.8
							c0.1-0.7-0.7-1-1.3-1c-18.5,0.4-37,2.4-55.4,4.2c-9.1,0.9-18.1,1.7-27.2,2.1c-7.9,0.4-16.8-0.8-24.4,1.5
							C0.8,17.8,0,18.2,0,18.7c0.1,3.9,0.5,7.6,1.1,11.4c0.2,1.4,3.1,0.6,2.9-0.8c-0.6-3.6-1-7.2-1.1-10.9c-0.4,0.4-0.8,0.7-1.2,1.1
							c4.2-1.3,8.6-1,12.9-1c4.5-0.1,9.1-0.2,13.6-0.5c8.8-0.5,17.5-1.3,26.2-2.1c17.8-1.7,35.6-3.7,53.5-4c-0.4-0.3-0.9-0.6-1.3-1
							c-0.3,4.8-0.2,9.6,0.3,14.4c0.5-0.5,1-1,1.6-1.5c-34.8,0.7-69.6,1.4-104.1,5.4C2.7,29.4,2.2,31.6,4.1,31.4L4.1,31.4z"/>
					</g>
				</g>
			</g>
			<g>
				<g>
					<g>
						<path class="st19" d="M46.3,13.9c-0.4-4.1-0.7-8.2-1.1-12.3c-0.5,0.4-1.1,0.8-1.6,1.3C48.3,2.1,54,1.3,58.7,2.1
							c1.1,0.2,1.5-0.1,2,1.2c0.3,0.7,0,2.5,0,3.3c0,2.4,0,4.9-0.1,7.3c0,1.3,2.9,0.7,2.9-0.3c0.1-3.5,0.1-7.1,0.1-10.6
							c0-1.4,0.2-2-1.1-2.5c-2-0.8-6.1-0.1-8.2-0.1c-3.5,0-6.9,0.2-10.3,0.8c-0.6,0.1-1.7,0.4-1.6,1.3c0.4,4.1,0.7,8.2,1.1,12.3
							C43.5,15.7,46.4,15.1,46.3,13.9L46.3,13.9z"/>
					</g>
				</g>
			</g>
			<g>
				<g>
					<g>
						<path class="st19" d="M35.4,35.8c-0.8,20.9-0.1,41.8,2.1,62.7c0.1,0.8,3,0.2,2.9-0.8c-2.2-20.7-2.9-41.5-2.2-62.3
							C38.3,34.3,35.5,34.9,35.4,35.8L35.4,35.8z"/>
					</g>
				</g>
			</g>
			<g>
				<g>
					<g>
						<path class="st19" d="M66.9,36.9c0.4,20.8-0.1,41.5-1.3,62.3c-0.1,1.5,2.8,1.1,2.9-0.2c1.3-20.7,1.7-41.5,1.3-62.3
							C69.8,35.2,66.9,35.6,66.9,36.9L66.9,36.9z"/>
					</g>
				</g>
			</g>
		</g>
	</g>
</g>
</svg>
