<?xml version="1.0" encoding="utf-8"?>
<!-- Generator: Adobe Illustrator 22.0.0, SVG Export Plug-In . SVG Version: 6.00 Build 0)  -->
<svg version="1.1" xmlns="http://www.w3.org/2000/svg" xmlns:xlink="http://www.w3.org/1999/xlink" x="0px" y="0px"
	 viewBox="0 0 156.8 153.4" style="enable-background:new 0 0 156.8 153.4;" xml:space="preserve">
<style type="text/css">
	.st0{fill:#FFFEFD;}
	.st1{opacity:0.9;}
	.st2{fill:#CBE5CF;}
	.st3{fill:#DCEDDF;}
	.st4{fill:#E3F1E5;}
	.st5{fill:#E0EFE2;}
	.st6{fill:#D1E8D4;}
	.st7{fill:#D4E9D7;}
	.st8{fill:#BEDEC2;}
	.st9{fill:#C3E1C7;}
	.st10{fill:#C7E2CB;}
	.st11{fill:#EEF6EF;}
	.st12{fill:#EBF5EC;}
	.st13{fill:#FEF9DA;}
	.st14{fill:#FFFDF1;}
	.st15{fill:#FDF5C7;}
	.st16{fill:#FDF2B4;}
	.st17{fill:#FCEFA5;}
	.st18{fill:#FCED95;}
	.st19{fill:#272525;}
	.st20{opacity:0.85;}
	.st21{fill:#D3E6F6;}
	.st22{fill:#C4DEF3;}
	.st23{fill:#ACD0EE;}
	.st24{fill:#E2EFF9;}
	.st25{fill:#B8D7F0;}
	.st26{fill:#9FC9EB;}
	.st27{fill:#EADAEE;}
	.st28{fill:#F7F1F8;}
	.st29{fill:#DFC7E5;}
	.st30{fill:#D5B5DC;}
	.st31{fill:#CDA6D5;}
	.st32{fill:#C497CE;}
	.st33{fill:#D8BBDF;}
	.st34{fill:#E5D1E9;}
	.st35{fill:#E8D6EB;}
	.st36{fill:#DDC3E2;}
	.st37{fill:#DFC6E4;}
	.st38{fill:#CEA9D6;}
	.st39{fill:#D2B0DA;}
	.st40{fill:#F2E9F4;}
	.st41{fill:#F0E4F2;}
	.st42{opacity:0.8;}
	.st43{opacity:0.8;fill:#DC7D5B;}
	.st44{opacity:0.8;fill:#E9AE99;}
	.st45{opacity:0.8;fill:#F0C7B8;}
	.st46{opacity:0.8;fill:#F7E1DA;}
	.st47{fill:#F7E0D8;}
	.st48{fill:#FCF3F0;}
	.st49{fill:#F2D0C4;}
	.st50{fill:#EEC0B0;}
	.st51{fill:#EBB4A0;}
	.st52{fill:#E7A790;}
	.st53{fill:#F0C6B6;}
	.st54{fill:#F5D8CE;}
	.st55{fill:#F6DCD3;}
	.st56{fill:#F1CCBF;}
	.st57{fill:#F2CFC2;}
	.st58{fill:#ECB6A3;}
	.st59{fill:#EDBDAB;}
	.st60{fill:#FAECE7;}
	.st61{fill:#F9E8E2;}
	.st62{fill:#B7E9E6;}
	.st63{fill:#CFF0EE;}
	.st64{fill:#D9F3F2;}
	.st65{fill:#D4F2F0;}
	.st66{fill:#BFECE9;}
	.st67{fill:#C3EDEA;}
	.st68{fill:#A5E4E0;}
	.st69{fill:#ACE6E3;}
	.st70{fill:#B1E7E4;}
	.st71{fill:#E8F8F7;}
	.st72{fill:#E3F6F5;}
	.st73{fill:#FDF3BA;}
	.st74{fill:#FEF7D0;}
	.st75{fill:#FEF8D5;}
	.st76{fill:#FDF4C2;}
	.st77{fill:#FDF5C5;}
	.st78{fill:#FCF0A8;}
	.st79{fill:#FDF1AF;}
	.st80{fill:#FEFBE8;}
	.st81{fill:#FEFAE4;}
	.st82{fill:#C9E1F4;}
	.st83{fill:#DBEAF7;}
	.st84{fill:#DEEDF8;}
	.st85{fill:#CFE4F5;}
	.st86{fill:#D2E5F6;}
	.st87{fill:#BBD8F1;}
	.st88{fill:#C1DCF2;}
	.st89{fill:#EDF5FB;}
	.st90{fill:#EAF3FB;}
	.st91{fill:#C5EDEB;}
	.st92{fill:#91DED9;}
	.st93{fill:#A1E3DF;}
	.st94{fill:#80D8D3;}
</style>
<g id="background">
	<rect x="-865.6" y="-614.4" class="st0" width="1200" height="800"/>
</g>
<g id="colour">
</g>
<g id="object">
	<g>
		<g>
			<g class="st20">
				<g class="st20">
					<g>
						<path class="st21" d="M123.7,11.2c0.4,0.1,0.9,0.3,1.3,0.3c0.6,0.6,1.2,1.2,1.8,1.7c0.5-0.3,1.1-0.4,1.7-0.7
							c0.7,0.1,1.4,0.2,2.1,0.3c-0.9-1.5-1.4-2-2-3.4c0.5,0,0.9-0.1,1.4,0c0.9,0.9,1.9,1.9,2.9,2.9c0.5,0.5,1,1.1,1.5,1.6
							c0,0.3,0,0.6,0,0.9c1,0.6,2.1,1.3,3.1,2l0.7,0.9c0.2,0.6,0.4,1,0.7,1.6c0.7-0.4,1.1,1.3,1.9,1.4c1.3,2,1.3,3.8,2.6,4
							c0,0.6,0.6,1.8,1.4,2.9c1.8,0.3-0.1,1.7,1.8,2.1c-0.4,0.6,1,3,1.9,3.4c0.9,1.9,2.1,4.3,3,6.9c0.5,1.3,0.9,2.8,1.3,4.3
							c0.4,1.5,0.6,3.1,0.8,4.5c0.2,1.6,0.1,3.7-0.2,5.5c-0.3,1.8-0.8,3.3-1.3,4.1c0,0.7,0.5,0.5,0.7,0.7c-0.2,0.4-0.2,1.4-0.5,1.2
							c-0.3,0.1-0.4,0.5-0.5,0.9c0,0.5,0.3,0.5,0.5,0.6c-1.4,2.5-1.7,5-2.2,7.6c-0.5,2.6-1.1,5.4-3.3,7.8c0.4,0.2,0.2,0.7,0,1.3
							c-0.2,0.5-0.5,1.1-0.1,1.4c-0.5,1-1.1,2.1-1.7,3.1c-0.6,1-1.3,2-2,2.9c-0.2,0.3-0.4,0.6-0.7,1c-0.2,0.3-0.5,0.6-0.8,0.9
							c-0.5,0.6-1.1,1.1-1.7,1.7c-0.6,0.6-1.2,1-1.9,1.5c-0.6,0.5-1.3,1-1.9,1.5c-1.3,0.5-2,1.2-2,1.8l-1.3,0.9
							c-0.4,0.3-0.9,0.5-1.4,0.8c-0.9,0.5-1.8,1-2.8,1.4c-1.6,0.2-2.5,0.6-4.1,1.7c-1.3,0.3-2.6,0.8-3.8,1c-2.3,0.2-3.6,0.5-3.1,1
							c-0.2,0-0.5,0.1-0.7,0.1c-1.2,0.2-2.3,0.4-3.6,0.6c-0.3,0.1-0.7,0.2-1.2,0.2c-0.9,0-1.8-0.1-2.7-0.1c-1-0.3-1.6,0.3-2.1,0.5
							l-1.9-0.1l-1.9-0.2c-1.6-0.5-2.1,0.1-2.7-0.2c-1.1-0.2-2.2-0.4-3.3-0.7l-3.3-0.9c-1.2,0-2.1-0.3-3-0.6
							C91,99.5,91,99.4,91,99.2c-0.4-0.1-0.7-0.2-1-0.4c-1.3-0.2-2.3-0.5-3.3-0.6c-0.3-0.1-0.6-0.3-1-0.5c-0.1-0.2-0.3-0.3-0.5-0.5
							c-0.6-0.3-1.3-0.7-1.9-1.1c-0.7-0.3-1.2-0.5-1.8-0.8c-0.4-0.1-0.9-0.3-1.3-0.4c-0.1-0.3-0.2-0.5-0.3-0.7
							c-0.6-0.4-1.1-0.7-1.7-1c-0.6-0.4-1-0.8-1.5-1.2c-0.6-0.3-1.1-0.5-1.8-0.8c-1-0.7-1.4-1.6-1.2-2.4c-0.6-0.4-1.3-0.8-1.9-1.3
							c-0.2-0.3-0.4-0.5-0.5-0.7c-1-0.9-2-1.9-2.8-2.8c-1.1-1.8-2.3-3.2-2.6-5.3c-0.4-0.3-0.7-0.7-1-1c-0.3-0.7-0.5-1.2-0.8-1.8
							c-1.1-0.7-0.8-3.3-1.9-4.3c-0.2-1-0.4-2.1-0.5-3.1c0.4,0,0.8,0,1.3,0.1c0.2,0.2,0.5,0.4,0.7,0.7c0,0.6,0.1,1.1,0.1,1.7
							c-0.1,1.1,0.8,0.9,0.9,1.4c0.5,1,0.9,2,1.4,3c0.3,0.9,0.6,1.8,0.9,2.7c1.1,1.8,2.4,3.5,3.8,5.2c0.4,0.7,0.8,1.3,1.3,2
							c0.7,0.9,1.6,1.8,2.4,2.6c0-0.5,0.1-0.9,0.2-1.3c1,0.3,2.2,2.1,2.6,0.9c1.3,1.1,2.7,2.3,4.1,3.2c1.4,0.9,2.9,1.5,4.3,1.1
							c1.7-0.3,2.4,0,3.2,0.3c0.1,0.3,0.3,0.6,0.5,0.9c0.1,0.5,0.2,0.8,0.4,1.1c0.7,0.6,1.2,0.1,1.7,0.1c0.5-0.3,1.1-0.6,1.7-0.9
							c0.7,0.2,1.4,0.4,2.1,0.6c0.7,0.2,1.4,0.3,2.1,0.5c1.4,0.4,2.8,0.5,4.3,0.8c1.3,0.8,2-0.1,2.8-0.2c0.4,0,0.9,0.1,1.3,0.1
							c0.7,0.1,1.4,0.2,2,0.3c1.8,0.5,1.5-0.4,2.1-0.3c0.2-0.1,0.4-0.2,0.7-0.2c2.3,0.7,2.5-0.5,3.4-0.4c0.4,0.1,0.8,0.2,1.3,0.3
							c0.2-0.2,0.4-0.3,0.7-0.5c0.3,0,0.5-0.1,0.7-0.1c2.3-0.1,1.1-0.9,2.4-1c0.3,0,0.6,0,1,0c0.5-0.3,1.1-0.6,1.6-0.9
							c0.2,0.1,0.9,0.3,1.4,0.7c0.1-0.1,0.2-0.1,0.3-0.1c0.5-0.6,1.5-1.2,2.5-1.8c1-0.6,2.1-1.2,2.9-1.6c0.5-0.5,1.2-1,2-1.4
							c0.4-0.2,0.9-0.4,1.3-0.7c0.4-0.3,0.8-0.5,1.2-0.7c0.3-0.7,0.8-1.2,1.4-1.8c0.5-0.5,1.2-1,1.7-1.4c0.9-0.8,1.7-1.7,2.5-2.7
							c0.8-0.9,1.5-1.9,2.2-2.9c-0.4-0.9,0.6-1.6,0.4-2.1c0.1-0.8,1.2-2.7,1.9-3c0.1-0.2,0.2-0.4,0.3-0.7c-0.1-1.7,0.3-1.6,0.4-3.5
							c1-2.5,2-5,2.8-7.5c0.1-0.6-0.5-0.3-0.2-0.9c0-1.4,0.8-0.4,1.1-1.6c-0.7-1,0.4-2.5-0.2-3.4c1.4-1.6,0.6-4.5,0.9-7.2
							c-0.3-2.3-0.9-4.5-1.8-6.5c-0.8-2-1.9-3.8-2.9-5.5c-0.8-1.4-1.7-3.4-2-4.8c-0.1-0.2-0.3-0.6-0.5-0.9c-0.4-0.7-0.7-1.4-1.1-2.1
							c-0.3,0.1-0.6,0-0.9,0.1c-1.5-2.4-3.2-4.8-4.9-7c-2.2-1.5-2.9-3.1-4.9-5c-0.5-0.3-1.1-0.2-1.6-0.7c-0.3-0.3-0.7-0.7-1-1
							c-1.8-1.3-2.8-2.2-3.7-3.2c-0.7-0.6-1.4-1.2-2.1-1.8C121,8.7,122.6,10.2,123.7,11.2z"/>
					</g>
					<g>
						<path class="st22" d="M127.5,16c0.5,0.5,1,0.4,1.6,0.7c2,1.9,2.7,3.5,4.9,5c1.7,2.2,3.4,4.6,4.9,7c0.3,0,0.6,0,0.9-0.1
							c0.4,0.7,0.7,1.5,1.1,2.1c0.2,0.3,0.4,0.6,0.5,0.9c0.3,1.4,1.2,3.4,2,4.8c1.1,1.6,2.1,3.5,2.9,5.5c0.8,2,1.5,4.2,1.8,6.5
							c-0.3,2.8,0.5,5.7-0.9,7.2c0.7,0.9-0.5,2.3,0.2,3.4c-0.3,1.2-1.1,0.2-1.1,1.6c-0.3,0.5,0.3,0.3,0.2,0.9
							c-0.8,2.5-1.7,5-2.8,7.5c-0.1,1.8-0.5,1.8-0.4,3.5c-0.1,0.3-0.2,0.5-0.3,0.7c-0.7,0.3-1.7,2.2-1.9,3c0.2,0.5-0.8,1.2-0.4,2.1
							c-0.7,1-1.4,2-2.2,2.9c-0.8,0.9-1.6,1.9-2.5,2.7c-0.5,0.4-1.2,0.9-1.7,1.4c-0.6,0.5-1.1,1-1.4,1.8c-0.4,0.2-0.8,0.5-1.2,0.7
							c-0.4,0.3-0.9,0.5-1.3,0.7c-0.8,0.5-1.6,0.9-2,1.4c-0.8,0.4-1.9,0.9-2.9,1.6c-1,0.6-2,1.2-2.5,1.8c-0.1,0-0.2,0.1-0.3,0.1
							c-0.5-0.3-1.2-0.6-1.4-0.7c-0.5,0.3-1.1,0.5-1.6,0.9c-0.3,0-0.7,0-1,0c-1.3,0.1-0.1,1-2.4,1c-0.2,0-0.4,0.1-0.7,0.1
							c0,0.1,0,0.3,0,0.4l-0.6,0.1c-0.5-0.1-0.9-0.2-1.3-0.3c-0.9-0.2-1,1.1-3.4,0.4c-0.2-0.3-0.4-0.7-0.5-1
							c0.3-0.3,0.5-0.6,0.8-0.8c1.1,0,1.6-0.1,2.1-0.2c0.5-0.1,0.8-0.3,1.4-0.4c0.8,0.3,1.6-0.1,2.3-0.1c0.7-0.1,1.3-0.1,2-0.1
							c1.8-1,3.2-1.5,4.6-2.1c0.7-0.3,1.3-0.5,2-0.9c0.6-0.4,1.3-0.7,2-1.2c1.8-0.5,2.1-1.3,2.7-2.2c-2.3,0.7-1.8,1.3-2.8,1.8
							c-0.4,0-0.7-0.1-1-0.2c-0.5,0.4-1.1,0.8-1.7,1.2c-0.6,0.3-1.3,0.5-1.9,0.7c-1.2,0.4-2.5,0.5-3.5,0.6c-0.7,0.5-1.4,0.9-2.2,1.3
							c-0.7,0.2-1.5,0.5-2.2,0.8c-0.7-0.3-1.4-0.6-2.1-0.9c-1.1-0.1-1.9-0.3-2.6-0.3c-0.6-0.1-1.1-0.1-1.6-0.3
							c-0.8,0.2-1.5,0.3-2.3,0.5c-1.2-0.2-2.3-0.5-3.5-0.7c0.1-0.5,0.3-1,0.5-1.4c0.5,0.1,1,0.1,1.4,0.2c1,0.7,1.6,0.7,2.1,0.6
							c0.5-0.1,0.8-0.3,1.4-0.3c0.2,0.2,0.3,0.3,0.5,0.5c0.6-0.1,1.2-0.3,1.8-0.4c1.2,0.3,2.3,0.5,3.5,0.7c0.8-1.2,1.8-1.2,2.4-1.3
							c0.3,0.3,0.8,0.2,1.2,0c0.5-0.2,0.9-0.6,1.4-0.7c0.3-0.3,1.2-0.6,1.6-1.1c0.4-0.1,0.7-0.3,1.2-0.4c0.1,0,0.2-0.1,0.2-0.1
							c0,0.2,0.1,0.4,0.1,0.6c0.7-0.2,1.4-0.3,2-0.5c0.6-0.8,1.1-1,1.8-1.3c0-0.5,0.1-1,0.1-1.5c0.3-0.2,0.7-0.4,1-0.6
							c0.3,0,0.6-0.1,1-0.1c0.4-0.6,0.7-1.2,1.1-1.7c0.2-0.1,0.4-0.1,0.5-0.2c0.2-0.2,0.5-0.3,0.7-0.5c0.4,0.2,0.9,0.4,1.3,0.5
							c0-0.7,0.6-1.3,1.2-1.8c0.6-0.6,1.1-1.2,1.2-2c0.8-0.5,1.2-0.9,1.4-1.2c0.3-0.3,0.3-0.5,0.4-0.8c0.2-0.1,0.4-0.2,0.7-0.2
							c0.1,0.3,0.1,0.7,0.2,1.1c0.2,0,0.3,0,0.5,0c0.4-0.6,0.9-1.3,1.3-1.9c-0.1,1.2-0.4,2.1-1.1,2.1c-0.2,0.5-0.6,1-0.8,1.5
							c-0.4,0.8-0.9,1.5-1.5,2.3c-0.3,0.4-0.6,0.7-0.9,1c-0.3,0.3-0.6,0.6-0.9,0.9c-0.3,0.3-0.6,0.6-0.9,0.9
							c-0.3,0.3-0.6,0.5-0.8,0.8c-0.5,0.6-0.9,1.1-1.2,1.8c1.4-0.6,2.1-0.8,2.2-1.4c0.6-0.4,1.1-0.9,1.7-1.4
							c0.5-0.5,1.1-1.1,1.6-1.7c1-1.2,2-2.5,2.8-3.9c1.7-2.8,3.1-5.8,4.8-8.5c-0.1-0.7-0.1-1.3-0.1-2c1-3.1,2.5-6.6,2.4-9.2
							c0.1,0.1,0.3,0,0.4-0.2c0.5-1.4-0.6-1.9-0.6-2.8c0.2-0.6,0.5-1.2,0.7-1.9c1.2-0.4-0.1-2.4,0.1-3.7c0.2-1.3,0.2-2.7,0.1-3.9
							c-0.2-0.9-0.6-2.2-1.2-3.3c-0.6-1.1-1.3-1.9-2.1-2.1c-0.2-0.3-0.4-0.4-0.5-0.6c-1.1-2-2.3-3.9-3.4-5.6
							c0.5-0.2,0.9-0.3,1.4-0.5c0-0.6-0.7-1.4-1-2.1c-0.2-0.3-0.3-0.5-0.5-0.8c-0.2-0.1-0.4-0.1-0.6-0.1c-0.6-0.9-1.2-1.9-1.9-2.8
							c-0.6-0.3-0.9,0.2-1.5-0.4c-0.3-0.4-0.5-0.7-0.8-1.1c0.1-0.5,0.2-1.1,0.3-1.6c0.1-0.4-0.6-0.9-0.9-1.4
							c-0.8-0.1-1.7-1.2-2.6-1.6c-0.5-0.5-0.9-1-1.3-1.5c0.1-0.4-0.6-0.9-1-1.3c-0.2-1.2-0.9-1.6-0.7-2
							C127.6,16.3,127.5,16.1,127.5,16z"/>
					</g>
					<g>
						<path class="st21" d="M130.6,21.2c1,0.3,1.8,1.5,2.6,1.6c0.3,0.5,1,1,0.9,1.4c-0.1,0.5-0.2,1.1-0.3,1.6
							C132.7,24.3,131.7,22.8,130.6,21.2z"/>
					</g>
					<g>
						<path class="st21" d="M138,30.1c0.2,0,0.4,0.1,0.6,0.1c0.2,0.3,0.3,0.5,0.5,0.8c0.3,0.7,1.1,1.5,1,2.1
							c-0.5,0.2-0.9,0.3-1.4,0.5c-0.5-1.1-1.1-2.1-1.7-3.2c-0.8-1.2-1.6-2.4-2.4-3.5c0.6,0.5,0.9,0,1.5,0.4
							C136.7,28.3,137.4,29.2,138,30.1z"/>
					</g>
					<g>
						<path class="st21" d="M138.6,40.8c0.8,0.1,1.2,0.8,1.5,1.5c0.3,0.7,0.5,1.5,1,1.9c-0.1,0.3-0.2,0.7-0.4,1
							c-0.3,0-0.6,0-0.8,0.1c-0.4-0.6-0.9-1.2-1.3-1.6c0-0.9-0.1-1.8-0.2-2.7C138.4,40.9,138.5,40.8,138.6,40.8z"/>
					</g>
					<g>
						<path class="st21" d="M136.9,57.3c-0.2,0.2-0.4,0.4-0.6,0.7c-0.2-0.1-0.4-0.2-0.6-0.3c-0.8-0.8,0-1.7,0-2.5
							c0.4,0.2,1,0.1,1.1,0.7C136.8,56.4,136.9,56.8,136.9,57.3z"/>
					</g>
					<g>
						<path class="st23" d="M141.4,55.6c-0.3,0.4-0.7,0.8-0.9,1.3c-0.4,0.7,0,1.3-0.1,2c0.1,0.6,0.1,1.2,0.2,1.8
							c0.2,0.2,0.4,0.4,0.7,0.6c-0.3,0.6-0.5,1.2-0.8,1.7c-0.4,0.1-0.8,0.1-1.1,0.1c-1.4,2.3-0.8,3.1-1,4.3
							c-0.1,0.2-0.1,0.4-0.3,0.6c-0.4,0.8-0.8,1.6-1.3,2.4c-0.1,0.4-0.3,0.8-0.4,1.2c-0.2,0.6-0.5,1.1-0.7,1.7
							c-0.1,0.2-0.2,0.3-0.3,0.5c-0.3,0.5-0.7,1-1,1.5c-0.1,0.2-0.3,0.3-0.4,0.5c-0.3,0.6-0.8,1.1-1.2,1.7c-0.2,0.2-0.3,0.3-0.4,0.5
							c-0.6,0.9-1.4,1.7-2.1,2.6c-0.1,0.2-0.2,0.4-0.3,0.5c-0.2,0.2-0.5,0.4-0.7,0.5c-0.2,0.1-0.4,0.1-0.5,0.2
							c-0.6,0.2-1.2,0.5-1.6,0.8c-0.5,0.3-0.7,0.6-0.4,1c-0.3,0.2-0.7,0.4-1,0.6c-0.5,0.2-1.1,0.4-1.6,0.6c-0.3,0.5-0.7,0.9-1.1,1.2
							c-0.4,0.3-0.9,0.6-1.3,0.9c-0.1,0-0.2,0.1-0.2,0.1c-0.4,0.1-0.7,0.3-1.2,0.4c-0.5,0-1-0.1-1.5-0.2c-0.5,0.1-1.1,0.3-1.6,0.4
							c-0.3,0.7-1.8,1.2-1.7,0.3c-0.5,0.4-0.9,0.5-1.3,0.6c-0.4,0-0.7,0-1-0.1c-0.4,0.1-0.8,0.2-1.1,0.3c-0.4,0.8-1.4,0.5-1.8,0.9
							c-0.8,0-1.5,0-2.3,0c-0.3-0.2-0.7-0.4-1.1-0.5c-0.5,0.7-1.8,0.6-1.8,0.3c-0.2-0.4-0.3-0.7,0.1-0.4c-1.2-0.2-2-0.4-2.1,0.1
							c-0.9,0-1.7-0.1-2.6-0.2c-0.5-0.2-1-0.4-1.6-0.6c-0.1,0.2-0.2,0.4-0.2,0.6c-0.5-0.2-1.1-0.3-1.6-0.5c-0.8-0.3-1.5-0.7-2.3-1.1
							l-0.3,0.6c-0.2-0.1-0.5-0.2-0.7-0.3l-0.7-0.3c-0.5-0.2-0.9-0.4-1.4-0.7c-0.9,0.5-1.6-0.2-2.1-0.5c-0.1-0.6,0.1-1.2-1.6-1.2
							c-0.5-0.2-1-0.5-1.5-0.8c-0.9-0.7-1.7-1.4-2.5-2.1c-0.7,0.2-1.4-0.7-2.2-0.9c-0.3-0.6-0.7-1.2-0.9-1.9
							c-1.3-1.7-2.4-2.6-3.6-4.6c-0.1-1.1-0.5-1.7-0.1-1.6c1,0.4,1.2,1.4,1.8,1.4c0.3,0.5,0.6,1.1,0.9,1.6c0.9-0.1,0.9,2,2,1.1
							c0.1,0.5,0.3,0.9,0.4,1.4c1.4,1.3,3.5,3.1,5.9,3.8c0.4,0.4,0.9,0.8,1.3,1.2c0.3,0.1,0.7,0.6,1,0.4c0.8,0.2,2.6,0.9,2.9,2
							l0.5,0.2c1.3-0.2,1.8,0.2,2.2,0c0-0.7,1-0.1,1.5-0.1c0.9,0.1,0.5,0.5,1.2,1.2c1.1-0.6,2.4-0.2,2.9-0.7c0.3,0.2,0.7,0.3,1,0.4
							c0.4,0.1,0.7,0.2,1.1,0.2c0.7,0.1,1.4,0.2,2.2,0.1c0.7-0.1,1.5-0.1,2.2-0.1c0.7-0.1,1.5-0.1,2.3-0.1c0.2,0.2,0.5,0.4,0.7,0.8
							c0.5-0.2,1-0.5,1.4-0.7c0.4-0.2,0.8-0.5,1.1-0.7c1.3,0.5,2-0.1,2.6-0.6c0.6-0.5,1.1-1.1,2.2-0.5c0.3-0.2,0.9,0,1-0.5
							c-0.4-0.6,0.3-0.7,0.9-0.9c0.1,0.3,0.1,0.9,0.7,0.6c1.1,0,1.3-1.4,1.7-1.8c0.4-0.2,0.7-0.3,1.1-0.5c0.3-0.2,0.7-0.4,1-0.6
							c0.5-0.3,1-0.5,1.4-0.8c0.4-0.3,0.9-0.6,1.3-0.9l0.7-0.4c0.2-0.1,0.4-0.3,0.6-0.5l1.3-1c0.2-0.2,0.5-0.4,0.5-0.8
							c-0.7-0.3-0.1-0.8,0.3-1.3c0.1,0.2,0.3,0.1,0.5,0.1c0.6-0.8,0.4-1.3,1.3-2.2c0.4,0.4,0.7-0.3,1.1-0.1c0.5-1.7,1.3-3.2,2-4.9
							c0.7-1.7,1.4-3.5,1.7-5.5c-0.9,1-1.6,2.3-2.2,3.5c-0.6,1.3-1.1,2.5-1.3,3.5c-0.3,1-0.6,0.3-1,1c-0.2,1.1-0.8,2.1-1.6,3
							c-0.3,0.5-0.8,0.9-1.1,1.3c-0.4,0.4-0.7,0.8-1,1.3c-1.2,1.5-3.6,3.2-4.6,4.3c-0.5,0.1-1,0.3-1.5,0.4c-0.3-0.3-0.6-0.7-0.9-1
							c0.6-0.4,1-0.9,1.5-1.3c-0.1-0.4,0.2-0.6,0.6-0.8c0.3-0.2,0.8-0.4,1.1-0.6c0.7-0.4,1.3-0.9,1.9-1.4c0.1-0.5,0.1-1,0.3-1.4
							c0.6-0.4,1.3-0.9,1.9-1.4c1.2-2.2,2.9-4.6,3.7-7.5c0.9-2,1.1-3.3,1.2-4.5c0.5-1.3,0.9-2.5,1.4-3.9c0.2,0.1,0.4,0.2,0.6,0.3
							l0.2,1.7c0.8,0.7,0.8-1.1,1.1-1.8c0-0.1,0.1-0.2,0.1-0.2c0.9-1.6,1-2.2,1.2-2.7c0.2-0.6,0.4-1.1,0.5-1.7c0.4,0,0.7,0,1,0
							c0.4,0.1,0.8,0.3,1.2,0.4C141.5,54.4,141.5,55,141.4,55.6z"/>
					</g>
					<g>
						<path class="st21" d="M127.4,75c-0.2,0.4-0.2,0.9-0.3,1.4c-0.6,0.5-1.2,1-1.9,1.4c-0.1-0.5-0.2-1-0.4-1.5
							c0.6-0.6,1.2-1.1,1.7-1.7C126.9,74.8,127.2,74.9,127.4,75z"/>
					</g>
					<g>
						<path class="st24" d="M85.7,97.8c-2.6-0.8-4.4-0.5-6-2.4c-0.6-0.4-1.4-0.8-2.1-1.3c-2.1-0.6-4.4-3.4-6.1-5.6
							c-1.2,0.2-2.2-0.8-3.1-2c-0.9-1.2-1.5-2.5-2.4-3.1c-1-1.9-0.7-3.3-1.5-5.3c-1.6-1.4-2-4-3.5-3.9c-0.2-0.9-0.4-1.7-0.3-2.5
							c-1-0.9-1-2.5-1.3-3.9c-0.3-0.6-0.7-1.2-1.1-1.9c0.1-3.2-1.1-4.6-1.1-7.6c-0.5-1.1-0.2-3.1-1.4-3.2c0-1.1,0-2-0.1-2.8
							c-0.1-0.4-0.1-0.8-0.2-1.2c-0.1-0.4-0.2-0.9-0.4-1.5C54,51,54.3,53.5,53,53.3c-0.8-1-0.5-2.2-0.3-3.6c0.3-1.3,0.5-2.5-0.4-3
							c0.2-0.9,0.2-2.6,0.6-2.6c0.4-1.2,0.9-1.8,1.6-2.5c0.6-0.7,1.3-1.3,1.9-2.5c0.4-0.8,1.3-2.4,1.7-1.5c0.2,0.6,0.3,1.4,0.6,2.1
							c-0.2,0.7-0.4,1.5-0.5,2.2c-0.3,0.6-0.7,1.1-1.1,1.7c0.1,0.9,0.1,2.2,0.6,2.5c-0.4,1.5-0.5,1.9,0.2,3.3
							c0.4,0.8,0.7,1.6,1.1,2.2c0.1,1.7,0.1,3.3,0.2,5c0.1,1.6,0.3,3.3,0.5,4.9c0.6,0.9,0.7,2.8,1.4,4c0,0.3-0.1,0.6-0.1,1
							c0.2,0.7,0.4,1.4,0.7,2.1c0.1,1,0.3,2.1,0.5,3.1c1,0.9,0.7,3.5,1.9,4.3c0.3,0.6,0.5,1.1,0.8,1.8c0.3,0.3,0.7,0.6,1,1
							c0.3,2.1,1.6,3.5,2.6,5.3c0.9,1,1.8,1.9,2.8,2.8c0.2,0.2,0.3,0.4,0.5,0.7c0.6,0.5,1.2,0.9,1.9,1.3c-0.2,0.8,0.2,1.6,1.2,2.4
							c0.6,0.3,1.1,0.5,1.8,0.8c0.5,0.4,0.9,0.8,1.5,1.2c0.6,0.3,1.1,0.6,1.7,1c0.1,0.2,0.2,0.5,0.3,0.7c0.5,0.1,0.9,0.2,1.3,0.4
							c0.6,0.3,1.1,0.5,1.8,0.8c0.6,0.4,1.3,0.7,1.9,1.1C85.3,97.5,85.5,97.6,85.7,97.8z"/>
					</g>
					<g>
						<path class="st23" d="M75,72.5c0,0-0.1,0-0.2,0c-0.1-0.3-0.3-0.7-0.5-1.1c-0.2-0.6-0.3-1.4-0.4-2c-0.1-0.5-0.2-1-0.3-1.4
							c-0.9-0.1-0.4-1.7-1-2.6c-0.2,0-0.4,0-0.6,0c-0.1-0.1-0.3-0.2-0.5-0.3c0.1,0,0.2,0,0.2,0c0.1-0.7,0.3-1.3,0.4-2L72,61.5
							c-0.2-0.6-0.8-0.5-0.9-1c0-0.3,0-0.6,0-0.9c-0.4,0-0.8-0.1-1.2-0.1c-0.4-0.5-0.7-0.8-0.6-1.3c0-2.4-0.7-0.8-1.3-1.2
							c-0.2,0.1-0.4,0.2-0.6,0.2c0.3,2.7,1,4.6,1.5,6.1c-0.1,0.3-0.1,0.6-0.1,1c0.1,0.6,0.3,1.2,0.4,1.9c0.2,0.2,0.4,0.4,0.7,0.6
							c0.1,1,0.3,1.9,0.4,2.8c0,1,0,2.1,0.1,3.1c-0.4-0.2-0.7-0.5-1.1-0.9c0-0.6-0.4-0.9-0.7-1.6c-1.1-2.3-0.6-4.6-1.9-5.7
							c0.3-1.4-0.2-2.6-0.6-3.9c-0.4-1.3-0.6-2.6,0.2-3.8c-0.6-0.8-1.1-1.7-1.6-2.5c-0.3,0.3-0.5,0.5-0.8,0.8
							c-0.4-0.1-0.8-0.2-1.4-0.3c-0.2,1.2-0.3,2.4-0.5,3.6c-0.9-1.3-0.6-2.2-1-2.9c0-0.3,0-0.5,0-0.7c-0.3-0.9-0.6-1.8-0.9-2.7
							c0-0.1,0-0.2,0-0.3c0.2-1,0.4-2.1,0.7-3.1c0-0.1,0-0.2,0-0.3c-0.9-1-0.5-2.1-0.3-3.3c0.2-1,0.3-2,0.6-3c0-0.2-0.1-0.4-0.1-0.5
							c-0.4,0-0.7,0.1-1.1,0.2c-0.5,0.1-0.5,1.7-1,1.2c-0.2-0.1-0.3-0.2-0.5-0.3c-0.1-0.2-0.1-0.5-0.3-0.7c0.1-0.7,0.3-1.4,0.5-2.2
							c0.6-1.1,0.8-0.2,1.2-0.2c0.5-0.2,0.6-1.3,1-1.9c1.1-1.1,1.6-1.8,1.9-2.6c0.4-0.8,0.6-1.6,1.6-2.7c0.9-0.4,1.9-0.6,2.8-0.9
							c-0.2,0.7-0.4,1.4-0.6,2.1c0.2,0.3,0.5,0.7,0.7,1.1c-0.4,0.5-0.8,1-1.2,1.6c0.2,0.6,0.4,1.1,0.7,1.6c-0.5,0.7-0.9,1.4-1.3,2.1
							c0,0.3,0,0.5-0.1,0.8c-0.1,0.2-0.3,0.3-0.4,0.5c-0.7,1.4-0.2,2,0.6,3c0.5,0.7-0.2,1.6,0.3,2.5c0.3,0.1,0.5,0.2,0.8,0.3
							c0.5,0.1,1,0.2,1.4,0.2c0.1-0.4,0.2-0.8,0.3-1.2c0.3-0.2,0.6-0.3,1-0.5c0.4-0.3,0.6-1.2,0.6-2c0-0.1,0.1-0.2,0.1-0.2
							c0.7,0,1.3,0,2,0c0.2-0.5,0.6,0.4,1.1,0c0.1-0.3,0.2-0.5,0.4-0.8c0.1-0.2,0.2-0.5,0.4-0.7c0.1,0.3,0.3,0.7,0.4,1
							c0.1,0.3,0.3,0.5,0.5,0.8c0.4-0.3,0.9-0.5,1.3-0.7c0.3,0.4,0.3,0.7,0.3,1c0,0.3,0,0.6,0.2,0.8c-0.1,0.3-0.3,0.6-0.4,0.8
							c-0.1,0.3-0.3,0.6-0.4,0.9c-0.4-0.2-0.9-0.3-1.4-0.5c-0.1,0.4-0.2,0.8-0.3,1.2c1,1.1,0.6,2.2,0.5,3.5
							c-0.3-0.3-0.6-0.5-0.9-0.7c-0.4,2.1,0.2,2.5-0.3,4c0.3,1.9,0.9,1.2,1.2,2.2c0.8-2.7-0.7-3.5,0.2-4.8c0.5,0.2,1.1,0.4,1.6,0.6
							c0.1,0.3,0.2,0.6,0.3,0.9c0.3,1.6,0.7,3,1.1,4.5c0.6,1.6,0.5,3.6,1.3,5.5c0.2,0.4,0.4,0.9,0.6,1.3c-0.1,1.9,0.5,2.5,0.8,3.1
							l0.1,0.5c-0.4,0-0.8,0.1-1.2,0.1c-0.8-1.5-1.7-1.9-1.9-2.9c0-0.3-0.1-0.7-0.1-1.1c-0.2-0.3-0.3-0.5-0.5-0.8
							c0-0.5,0.1-0.9,0.1-1.4c0.1-1.1-1-1-1.1-1.7c0-0.8,0.1-1.7,0.1-2.5c0-1-0.8-0.4-1.2-1c0,0.5,0,0.9,0,1.4
							C74,58.9,75,59.2,75,60c-0.2,0.5-0.3,0.9-0.5,1.4c-0.4,1.3,0.9,0.8,1,1.8c-0.6,2.3,0.5,2,0.6,3.1c-0.5,1.4,0.3,1.5,0.1,2.2
							c-0.1,0.1-0.2,0.2-0.3,0.3c-0.1,0.5-0.1,0.9-0.2,1.4c0.2,0.7,0.3,1.4,0.5,2.1C75.7,72.4,75.3,72.4,75,72.5z"/>
					</g>
					<g>
						<path class="st21" d="M65.7,46.8c-0.5-0.9,0.2-1.8-0.3-2.5c0.4-0.8,0.9-1.5,1.3-2.3c0.2,0.5,0.4,0.8,0.7,1.1
							c0.1,0.4-0.1,1.4,0.5,1.2c0,0.6,0.1,1.1,0.2,1.7c-0.1,0.4-0.2,0.8-0.3,1.2c-0.5-0.1-0.9-0.1-1.4-0.2
							C66.2,47,66,46.9,65.7,46.8z"/>
					</g>
					<g>
						<path class="st25" d="M64.9,41.2c0.1-0.2,0.3-0.3,0.4-0.5c0.1-0.3,0.1-0.5,0.1-0.8c0.4-0.7,0.9-1.4,1.3-2.1
							c-0.2-0.5-0.5-1.1-0.7-1.6c0.4-0.5,0.7-1.1,1.2-1.6c-0.3-0.4-0.5-0.7-0.7-1.1c0.2-0.8,0.4-1.4,0.6-2.1
							c1.6-0.6,2.7-0.5,3.2,0.4c0.8-0.3,1.2-0.3,1.5-0.4c0.3,0,0.4,0,0.7,0.1c0.1,0.3,0.2,0.7,0.4,1.2c0.2,0.3,0.4,0.6,0.7,0.8
							c0.4,0.2,0.8,0.4,1.1,0.6c-0.2,0.4-0.5,0.8-0.7,1.2c0.5,0.2,1,0.4,1.4,0.6c0,0.3-0.1,0.6-0.1,0.9c-0.3,0.6-0.6,1.3-0.8,2
							c-0.2,0.6-0.3,1.2-0.4,1.8c0.1,0,0.3,0.1,0.4,0.1c0.3,0.3,0.5,0.7,0.8,1c0.1,0.4,0.2,0.9,0.4,1.3c-0.4,0.2-0.9,0.4-1.3,0.7
							c-0.2-0.2-0.4-0.5-0.5-0.8c-0.2-0.3-0.3-0.7-0.4-1c-0.1,0.2-0.2,0.5-0.4,0.7c-0.1,0.2-0.2,0.5-0.4,0.8c-0.5,0.3-0.9-0.5-1.1,0
							c-0.6,0-1.3,0-2,0c0-1-0.1-2,0-3c0.4-0.4,0.8-0.8,1.2-1.1c-0.2-0.5-0.4-1.1-0.5-1.7c-0.5-0.1-1-0.2-1.6-0.3
							c-0.2,0.6-0.3,1.1-0.4,1.8c-0.6,0.9-1.2,2-1.6,3c-0.5,0.7-0.9,1.5-1.3,2.3C64.6,43.3,64.1,42.6,64.9,41.2z"/>
					</g>
					<g>
						<path class="st21" d="M69.1,39.5l0.6-1c0.2-0.3,0.5-0.7,0.7-1c0.1,0,0.2,0,0.3-0.1c0,0.6,0.1,1.2,0.2,1.8
							c-0.4,0.3-0.8,0.7-1.2,1.1C69.5,40.1,69.3,39.8,69.1,39.5z"/>
					</g>
					<g>
						<path class="st24" d="M125.2,10.1c1,0.3,1.6,1.1,3.2,2.5c-0.6,0.2-1.1,0.4-1.7,0.7c-0.6-0.6-1.2-1.2-1.8-1.7
							c-0.1-0.2-0.1-0.5-0.1-0.7C124.9,10.3,125.1,10.2,125.2,10.1z"/>
					</g>
					<g>
						<path class="st24" d="M128.2,18.3c-0.8-0.1-1.2-0.8-1.7-1.3c0.3-0.2,0.7-0.4,1.1-0.7C127.4,16.7,128.1,17.1,128.2,18.3z"/>
					</g>
					<g>
						<path class="st24" d="M134.3,14c1.2,1.1,2.9,1.8,3.1,2.9c-1-0.7-2.1-1.4-3.1-2C134.3,14.6,134.3,14.3,134.3,14z"/>
					</g>
					<g>
						<path class="st24" d="M139.1,18c0.5,0.4,1,0.9,1.5,1.3c0.1,0.4,0.3,0.9,0.5,1.3c1.7,2.1,3.3,4.4,4.8,6.6
							c1.9,1.6,3.5,5.3,5.3,8.8c1,1.2,1.7,3.1,2.3,5.4c0.6,2.2,0.9,4.8,1.2,6.8c0.3,3.4,0,6.4-0.4,8.9c-0.2,1.3-0.4,2.4-0.7,3.5
							c-0.2,1.1-0.5,2.2-0.8,3.4c-1.2,4.6-2.7,9.6-4.9,14.5c0.3,0.3-0.4,1.1-1.3,1.5c-0.4-0.3-0.1-0.9,0.1-1.4c0.2-0.5,0.4-1,0-1.3
							c2.2-2.5,2.8-5.2,3.3-7.8c0.5-2.6,0.8-5.1,2.2-7.6c-0.2-0.1-0.4-0.2-0.5-0.6c0.1-0.3,0.2-0.8,0.5-0.9c0.3,0.2,0.4-0.8,0.5-1.2
							c-0.2-0.3-0.7,0-0.7-0.7c0.6-0.8,1-2.3,1.3-4.1c0.3-1.8,0.3-3.9,0.2-5.5c-0.1-1.4-0.4-3-0.8-4.5c-0.4-1.5-0.8-2.9-1.3-4.3
							c-1-2.7-2.1-5-3-6.9c-0.9-0.4-2.3-2.9-1.9-3.4c-1.8-0.4,0-1.8-1.8-2.1c-0.7-1.1-1.3-2.2-1.4-2.9c-1.2-0.2-1.3-2-2.6-4
							c-0.8-0.1-1.2-1.8-1.9-1.4c-0.3-0.6-0.5-1.1-0.7-1.6C138.4,17.8,138.7,17.9,139.1,18z"/>
					</g>
					<g>
						<path class="st24" d="M142.5,27.6c-1-0.5-1.3-0.8-1.5-1.3C141,24.6,142.6,27.2,142.5,27.6z"/>
					</g>
					<g>
						<path class="st24" d="M143.4,29.5c1.4,1,2.2,2.1,2.9,3.3c0.6,1.2,1.1,2.5,1.8,4C146.2,33.9,144.5,32,143.4,29.5z"/>
					</g>
					<g>
						<path class="st24" d="M137.1,38.3c1.1,0.2,2,2.1,1.5,2.5c-0.1,0-0.2,0-0.2,0.1c0.1,0.9,0.2,1.8,0.2,2.7
							c-0.4-0.2-0.8-0.5-1.2-0.7c-0.7-1.2,0.1-1.3,0.4-2.2c-0.1-0.2-0.3-0.4-0.5-0.5c-0.2-0.5-0.5-0.9-0.7-1.4
							c0.1-0.1,0.1-0.2,0.1-0.4C136.8,38.4,136.9,38.3,137.1,38.3z"/>
					</g>
					<g>
						<path class="st24" d="M142.7,39.9c0.1,0.8,0.2,1.6,0.2,2.4c-0.7-0.7-1.7-2.5-0.7-3C142.3,39.5,142.5,39.6,142.7,39.9z"/>
					</g>
					<g>
						<path class="st24" d="M144.2,44.4c0.2,1.6,0.8,2.9,1,4.6c0,2.5-0.6,4.1-0.8,5.5c-0.1,0.5-0.2,1.1-0.4,1.6
							c-0.5,0.1-0.5,1.2-1.1,0.9c-0.5-0.4-1.1-0.9-1.6-1.3c0.1-0.7,0.2-1.3,0.2-1.9c0.2-1,0.4-2.1,0.4-3.1c-0.2-0.6-0.8-1-0.6-1.7
							c-0.1-1.2-0.4-2.5-0.7-3.7c0.1-0.3,0.3-0.7,0.4-1c1.1,1.4,1.5,2.8,2.4,3.7c0.6-0.8-0.5-1.4-0.5-2.1c0.2-0.5,0-1.9,0.2-2.7
							C143.5,43.4,143.9,43.9,144.2,44.4z"/>
					</g>
					<g>
						<path class="st24" d="M151.5,47.6c-0.7-0.2-1-1.1-1.1-2.7C151.2,44.5,152,46.1,151.5,47.6z"/>
					</g>
					<g>
						<path class="st24" d="M139.2,51.7c0.1,0.5,0.1,1,0.1,1.5c-0.1,0.5-0.4,1.1-0.5,1.7c-0.1,0.5-0.3,1.1-1.2,2.7
							c-0.2-0.1-0.5-0.2-0.8-0.3c0-0.5-0.1-0.9-0.1-1.4c0.2-0.4,0.4-0.8,0.6-1.3c0-0.5,0-1-0.1-1.5c1.2,0.1,1.1-0.6,1.2-1
							c0.1-0.1,0.2-0.3,0.3-0.5C138.9,51.6,139.1,51.7,139.2,51.7z"/>
					</g>
					<g>
						<path class="st24" d="M133.1,66.1c-0.8,2.8-2.5,5.3-3.7,7.5c-0.6,0.5-1.3,1-1.9,1.4c-0.3-0.1-0.6-0.2-0.8-0.3
							c0.1-0.5,0.3-0.9,0.6-1.3c0.3-0.4,0.6-0.8,0.9-1.1c0.6-0.8,1.2-1.7,1.3-2.7c1.1-0.9,1.7-2.9,3.1-3.8c0.2-0.8,0.4-1.7,0.6-2.5
							c-0.1-0.3,0.2-2.1,1.2-1.6C134.1,62.8,133.9,64.1,133.1,66.1z"/>
					</g>
					<g>
						<path class="st24" d="M135.9,92.5c-0.8,1.2-1.8,2.1-2,1.8C133.9,93.7,134.6,93,135.9,92.5z"/>
					</g>
					<g>
						<path class="st24" d="M125.2,77.8c-0.3,0.2-0.7,0.4-1.1,0.6c-0.3,0.2-0.7,0.4-0.6,0.8c-0.5,0.4-1,0.8-1.5,1.3
							c-0.5,0.2-1.1,0.4-1.6,0.7c0-0.1-0.1-0.2-0.1-0.2c-0.5-0.2-0.9-0.4-1.4-0.6c-0.6,0.2-0.9,0.7-1.4,1.1
							c-0.2,0.1-0.3,0.1-0.5,0.1c-0.6,0.1-1.3,0.3-1.9,0.4c-0.2,0.4-0.7,0.4-1.2,0.8c-0.2,0-0.4,0-0.5,0.1c-0.3,0.3-0.6,0.7-1,0.9
							c-0.9,0-1.7,0.1-2.5,0.1c-0.7-0.1-1.5-0.3-2.3-0.4c-0.9-0.2-1.7-0.3-2.6-0.1c-0.9-0.1-1.7-0.2-2.6-0.3
							c-0.9-0.2-1.7-0.3-2.6-0.4c-1.1,0-2.3-0.2-3.3-0.8c-0.3-0.6-0.8-0.8-1.3-0.8c-0.5-0.1-1.1,0-1.7-0.2c-0.1,0.1-0.3,0.2-0.4,0.3
							c-0.1,0-0.2-0.1-0.2-0.1c-0.3-0.2-0.5-0.5-0.7-0.7c-0.6-0.2-1.3-0.5-1.9-0.7c-1-0.4-1.8-1-2.6-1.5c0-0.2,0-0.3,0.1-0.5
							c0.5-0.2,1-0.4,1.4-0.6c0.9,0.8,3.2,0.1,3,2.4c1.2-1.2,1.8-0.2,2.1,0.2c0.6,0,1.2,0.1,1.8,0c1.1,0.2,0.3,0.6,0.8,1.5
							c0.5-0.4,1-0.7,1.5-1.1c0.9,0.4,1.8,0.7,2.8,0.7c0.5,0.1,0.9,0.1,1.4,0.2c0.4,0.1,0.9,0.1,1.3,0.3c0.1-0.6,1.1-0.4,1.8-0.3
							c1.5,0.2,3.1,0.3,4.6,0.3c0.1,0.2,0.3,0.2,0.4,0c-0.3-1,1.5-0.7,1.6-1.5c0.5-0.1,0.8,0.6,1.2,1.1c0.5-0.4,1-0.6,1.5-1
							c0.5,0.3,1.3-0.3,1.8,0c1.3-1,1.6,0.4,2.1-0.6l-0.1-0.4c0.6,0.2,1.2-0.3,1.8-0.6c0.5-0.4,1-0.7,1.6-0.2
							c0.2-0.2,0.7-0.2,0.7-0.6c0.4-0.4,0.8-1.4,2-1C125,76.8,125.1,77.3,125.2,77.8z"/>
					</g>
					<g>
						<path class="st25" d="M129.6,86c-0.6,0.9-0.8,1.7-2.7,2.2c-0.7,0.5-1.3,0.8-2,1.2c-0.6,0.4-1.3,0.6-2,0.9
							c-1.3,0.6-2.8,1.2-4.6,2.1c-0.7,0-1.3,0-2,0.1c-0.7,0.1-1.3,0.2-1.9,0.3c-0.1-0.1-0.2-0.1-0.3-0.2c-0.6,0.1-0.9,0.3-1.4,0.4
							c-0.5,0.1-1,0.3-2.1,0.2c-0.3,0.3-0.6,0.6-0.8,0.8c0.1,0.3,0.3,0.7,0.5,1c-0.3,0-0.5,0.1-0.7,0.2c-0.4-0.2-0.8-0.3-1.2-0.4
							c-0.3,0-0.5,0-0.7,0l-0.5-0.4c-0.3,0-0.5,0-0.7,0c-0.3,0.3-0.6,0.6-1,1c-0.4,0-0.9-0.1-1.3-0.1l-0.4-0.7
							c-1.2,0.4-2.3,0.4-2.4,0.9c-1.5-0.3-2.9-0.4-4.3-0.8c-0.7-0.2-1.4-0.3-2.1-0.5c-0.7-0.2-1.4-0.4-2.1-0.6
							c-0.4-0.2-0.9-0.4-1.3-0.6c-0.4-0.2-0.9-0.5-1.3-0.7c-0.8-0.4-0.9,0.3-1.7,0.1c-0.8-0.3-1.5-0.6-3.2-0.3
							c-0.7-0.6-1.3-1.1-2-1.7c0.2-1.1-0.4-1.3-1.2-1.5c-0.8-0.2-1.9-0.5-2.3-1.5c-0.9,0.1-1.4-0.8-1.9-1.5c-0.9-1-1.8-2-2.6-3.1
							c-0.3-0.5-0.6-0.9-0.9-1.4c-1.7-1.2-1.8-3.3-3-3.1c-0.5-1.4-0.9-2.8-0.8-4.1c-0.1-0.2-0.2-0.4-0.3-0.6
							c-0.4,0.2-0.9,0.5-1.3,0.7c-0.2,1-0.7,0.1-1.3,0.1c-0.2,0.2-0.3,0.3-0.5,0.4c0,0.2,0,0.4,0,0.7c0.3,1.1,0.6,2.2,0.9,3.4
							c0.3,1.6,1.2,1.2,1.8,2.5c0.2,0.7,1,1.9,0.4,2.2c-1.4-1.7-2.7-3.4-3.8-5.2c-0.3-0.9-0.6-1.8-0.9-2.7c-0.5-1-0.9-2-1.4-3
							c-0.1-0.6-1-0.4-0.9-1.4c-0.1-0.6-0.1-1.1-0.1-1.7c-0.2-0.2-0.5-0.4-0.7-0.7c0-0.6,0.1-1.1,0.2-1.7c0-0.4-0.1-0.7-0.1-1.1
							c-0.2-0.1-0.3-0.2-0.5-0.3c-0.1,0-0.3,0-0.4,0c0.1-1.4,0.2-2.7,0.3-4c-0.1-1.1-0.2-2.3-0.3-3.4c0.1-1.2,0.2-2.4,0.5-3.6
							c0-0.1,0.1-0.2,0.2-0.3c1.2,0.8,1.6-0.2,2.1-0.2c0.5,0.9,1.1,1.7,1.6,2.5c-0.8,1.2-0.6,2.5-0.2,3.8c0.4,1.3,0.9,2.5,0.6,3.9
							c1.2,1.1,0.8,3.4,1.9,5.7c0.3,0.7,0.7,1,0.7,1.6c0.4,0.3,0.7,0.6,1.1,0.9c-0.1-1-0.1-2.1-0.1-3.1c-0.2-0.9-0.3-1.8-0.4-2.8
							c-0.2-0.2-0.5-0.4-0.7-0.6c-0.2-0.6-0.3-1.3-0.4-1.9c0-0.3,0.1-0.6,0.1-1c-0.5-1.5-1.3-3.4-1.5-6.1c0.2,0,0.4-0.1,0.6-0.2
							c0.6,0.3,1.2-1.3,1.3,1.2c-0.1,0.5,0.3,0.7,0.6,1.3c0.4,0,0.9,0.1,1.2,0.1c0,0.3,0,0.6,0,0.9c0.1,0.5,0.7,0.4,0.9,1l0.1,1.5
							c-0.1,0.8-0.1,1.5-0.1,2.3c0.2,0,0.4,0,0.6,0c0.6,0.9,0.1,2.5,1,2.6c0.1,0.5,0.2,1,0.3,1.4c-0.3,0-0.6,0-0.9,0
							c0.3,1.2,0.9,1.5,1.3,2c0.1,0.4,0.3,0.7,0.5,1.1c0.1,0,0.2,0,0.2,0c0.3-0.1,0.7-0.1,1.2-0.2c0.2,0,0.4-0.1,0.6-0.1
							c0,0.2,0.1,0.3,0.2,0.5c-0.4-0.1,0,0.5,0.1,1.6c1.2,2,2.3,2.8,3.6,4.6c0.2,0.6,0.5,1.2,0.9,1.9c0.8,0.2,1.5,1,2.2,0.9
							c0.7,0.7,1.6,1.4,2.5,2.1c0.5,0.2,1,0.5,1.5,0.8c0.8-0.2,2.3,0.4,1.8,0.9c-0.1,0.1-0.2,0.2-0.3,0.3c0.6,0.2,1.3,0.9,2.1,0.5
							c0.4,0.2,0.9,0.4,1.4,0.7l0.7,0.3c0.2,0.1,0.5,0.2,0.7,0.3l0.3-0.6c0.8,0.4,1.5,0.8,2.3,1.1c0.5,0.2,1.1,0.3,1.6,0.5
							c0.1-0.2,0.2-0.4,0.2-0.6c0.5,0.2,1.1,0.4,1.6,0.6c0.9,0.1,1.8,0.2,2.6,0.2c0.1-0.5,0.9-0.3,2.1-0.1c-0.4-0.3-0.3,0-0.1,0.4
							c0,0.3,1.3,0.4,1.8-0.3c0.3,0.2,0.7,0.3,1.1,0.5c0.8,0.1,1.5,0,2.3,0c0.5-0.3,1.4,0,1.8-0.9c0.4-0.1,0.8-0.2,1.1-0.3
							c0.3,0,0.6,0.1,1,0.1c0.4-0.1,0.8-0.2,1.3-0.6c-0.1,0.9,1.4,0.4,1.7-0.3c0.5-0.1,1.1-0.3,1.6-0.4c0.5,0.1,1,0.2,1.5,0.2
							c-0.4,0.4-1.3,0.7-1.6,1.1c-0.5,0.1-0.9,0.5-1.4,0.7c-0.5,0.2-0.9,0.4-1.2,0c-0.6,0.1-1.5,0.1-2.4,1.3
							c-1.2-0.2-2.3-0.3-3.5-0.7c-0.6,0.2-1.2,0.3-1.8,0.4c-0.2-0.1-0.4-0.3-0.5-0.5l-1.6,0.5c-0.6-0.2-2.1,0.1-1.9-0.9
							c-0.5-0.1-0.9-0.1-1.4-0.2c-0.1,0.5-0.3,1-0.5,1.4c1.2,0.2,2.4,0.5,3.5,0.7c0.7-0.2,1.5-0.3,2.3-0.5c0.4,0.1,0.9,0.2,1.6,0.3
							c0.6,0.1,1.5,0.2,2.6,0.3c0.7,0.3,1.4,0.6,2.1,0.9c0.7-0.2,1.5-0.5,2.2-0.8c0.7-0.4,1.4-0.8,2.2-1.3c1-0.1,2.3-0.1,3.5-0.6
							c0.6-0.2,1.3-0.4,1.9-0.7c0.6-0.3,1.2-0.7,1.7-1.2c0.4,0.1,0.7,0.2,1,0.2C127.8,87.3,127.3,86.7,129.6,86z"/>
					</g>
					<g>
						<path class="st24" d="M128.4,97.3c-1,0.9-3.3,1.8-4.1,1.7C125.9,97.9,126.8,97.5,128.4,97.3z"/>
					</g>
					<g>
						<path class="st24" d="M120.5,100c-1.3,0.8-2.9,1.3-3.1,1C117,100.5,118.2,100.2,120.5,100z"/>
					</g>
					<g>
						<path class="st24" d="M116.6,101.2c-1.4,1.3-2.3,0.8-3.6,0.6C114.3,101.5,115.4,101.4,116.6,101.2z"/>
					</g>
					<g>
						<path class="st24" d="M111.9,102c-1,0.3-2,0.6-2.8,0.6c-0.8,0.1-1.5,0-1.9-0.2c0.5-0.2,1-0.9,2.1-0.5
							C110.1,101.9,111.1,101.9,111.9,102z"/>
					</g>
					<g>
						<path class="st24" d="M103.4,102.1c-0.6,0.2-1.5,0.3-2.1,0.3c-0.6,0-0.9-0.2-0.6-0.5C101.4,102.1,101.8,101.6,103.4,102.1z"/>
					</g>
					<g>
						<path class="st24" d="M91.1,99.7c-1.2,0-2.4-0.3-3.2-0.5c-0.9-0.3-1.4-0.6-1.2-0.9c1,0,2,0.4,3.3,0.6c0.4,0.2,0.7,0.2,1,0.4
							C91,99.4,91,99.5,91.1,99.7z"/>
					</g>
					<g>
						<path class="st24" d="M85.6,76.6c-1.1-0.3,0.2-1-0.7-1c-0.3-0.4-0.7-0.8-1.2-1.2c-0.4-0.5-0.9-1-1.3-1.5
							c-0.1-0.4-0.2-0.7-0.3-1c0.1-0.5,0.1-1,0.3-1.4c-0.2-0.7-1.2-1.2-1.9-1.6c-0.1-0.3-0.1-0.7-0.2-1l-0.1-0.5
							c-0.4-0.7-1-1.2-0.8-3.1c-0.2-0.4-0.4-0.9-0.6-1.3c-0.8-1.8-0.7-3.9-1.3-5.5c-0.4-1.5-0.8-3-1.1-4.5c0.6-0.4,1.2-0.9,1.8-1.3
							c0.4,1.4,1,2.6,1.2,3.9c0.3,2.1,1,3.4,1.1,5.5c1.1,0.1-0.4,2.2,1,2.1c0,0.6-0.2,1.5,0.3,2c0.8-0.5,1.2,0.9,0.9,1.4
							c-0.2-0.1-0.3,0.1-0.4,0.3c0.1,0.2,0.1,0.5,0.3,0.7c0.7-0.4,0.7,0.5,1.1,0.5c0,0.6,0.4,0.9,0.8,0.9c0.4,0.5,0.3,1.3,0.4,1.9
							c0.1,0.6,0.2,1,1,0.7c0.4,0.5,0.2,1.9,1.2,1.3c0.6-0.8,0.7,0.2,1.2-0.6c0.7,0.5,0.6,1.2,0.3,2c-0.3,0.8-1,1.7-1,2.8
							C86.9,76.8,86.2,76.7,85.6,76.6z"/>
					</g>
					<g>
						<path class="st24" d="M68,44.4c-0.6,0.1-0.4-0.8-0.5-1.2c-0.3-0.4-0.4-0.7-0.7-1.1c0.5-1,1.1-2.1,1.6-3
							c0.2,0.2,0.4,0.4,0.6,0.5c0.3,0.3,0.5,0.6,0.7,0.8c-0.1,1,0,2,0,3c0,0.1-0.1,0.2-0.1,0.2c0,0.8-0.2,1.7-0.6,2
							c-0.3,0.2-0.7,0.4-1,0.5C68,45.5,68,45,68,44.4z"/>
					</g>
					<g>
						<path class="st24" d="M76.3,44.8c-0.2-0.2-0.2-0.5-0.2-0.8c0-0.3,0-0.6-0.3-1c-0.1-0.4-0.3-0.9-0.4-1.3
							c0.3-0.1,0.6-0.1,0.9-0.2c0.3,0.2,0.5,0.4,0.8,0.6C77,42.3,77,42.5,77,42.7c0,0.2,0.1,0.5,0.1,0.7c0.1,0.5,0.1,0.9-0.4,1.3
							C76.6,44.7,76.4,44.7,76.3,44.8z"/>
					</g>
					<g>
						<path class="st22" d="M140.8,45.2c0.3,1.2,0.6,2.5,0.7,3.7c-0.6-0.1-1.2-0.2-1.8-0.2l0-0.5c0.2-0.9,0.3-2,0.3-2.9
							C140.2,45.2,140.5,45.2,140.8,45.2z"/>
					</g>
					<g>
						<path class="st25" d="M142.7,39.9c0.7,0.2,1.5,1,2.1,2.1c0.6,1.1,1,2.4,1.2,3.3c0.1,1.2,0.1,2.6-0.1,3.9
							c0.2,0.9,0.4,1.9,0.5,2.8c-0.2,1.1-0.7,2.1-1.3,2.8c0,1,1,1.5,0.6,2.8c-0.1,0.2-0.3,0.3-0.4,0.2c0.1,2.6-1.4,6.1-2.4,9.2
							c0.1,0.7,0.1,1.3,0.1,2c-1.6,2.7-3,5.7-4.8,8.5c-0.8,1.4-1.9,2.7-2.8,3.9c-0.5,0.6-1.1,1.1-1.6,1.7c-0.5,0.5-1.1,1-1.7,1.4
							c-0.1,0.6-0.8,0.8-2.2,1.4c0.3-0.6,0.7-1.2,1.2-1.8c0.3-0.3,0.5-0.5,0.8-0.8c0.3-0.3,0.6-0.6,0.9-0.9c0.3-0.3,0.6-0.6,0.9-0.9
							c0.3-0.3,0.6-0.6,0.9-1c0.5-0.7,1.1-1.5,1.5-2.3c0.2-0.5,0.5-1.1,0.7-1.6c-0.1,0-0.3,0-0.5,0c-0.1-0.4-0.1-0.8-0.2-1.1
							c-0.2,0-0.4,0.1-0.7,0.2c-0.1,0.2-0.2,0.5-0.4,0.8c-0.2,0.3-0.7,0.7-1.4,1.2c-0.1,0.8-0.7,1.4-1.2,2c-0.6,0.6-1.2,1.1-1.2,1.8
							c-0.4-0.1-0.9-0.3-1.3-0.5c0.1-0.2,0.2-0.4,0.3-0.5c0.7-0.9,1.5-1.6,2.1-2.6c0.1-0.1,0.2-0.3,0.4-0.5c0.4-0.6,0.8-1.1,1.2-1.7
							c0.1-0.1,0.2-0.3,0.4-0.5c0.3-0.5,0.7-1,1-1.5c0.1-0.2,0.2-0.3,0.3-0.5c0.3-0.6,0.5-1.1,0.7-1.7c0.2-0.4,0.3-0.8,0.4-1.2
							c0.5-0.8,0.9-1.6,1.3-2.4c0.1-0.2,0.2-0.4,0.3-0.6c0.2-1.2-0.4-2.1,1-4.3c0.4,0,0.7,0,1.1-0.1c0.2-0.5,0.5-1.1,0.8-1.7
							c-0.3-0.2-0.5-0.4-0.7-0.6c-0.1-0.6-0.1-1.2-0.2-1.8c0.1-0.7-0.3-1.3,0.1-2c0.3-0.4,0.6-0.8,0.9-1.3c0.5,0.4,1.1,0.9,1.6,1.3
							c0.5,0.3,0.6-0.8,1.1-0.9c0.1-0.5,0.2-1.1,0.4-1.6c0.2-1.4,0.8-3,0.8-5.5c-0.2-1.6-0.8-2.9-1-4.6c-0.3-0.5-0.7-1-1-1.4
							c-0.1-0.3-0.2-0.5-0.2-0.7C142.9,41.5,142.8,40.7,142.7,39.9z"/>
					</g>
					<g>
						<path class="st26" d="M124.6,81.6c-0.3,0.2-0.7,0.4-1,0.6c-0.4,0.2-0.7,0.3-1.1,0.5c-0.4,0.4-0.6,1.8-1.7,1.8
							c-0.6,0.3-0.6-0.3-0.7-0.6c-0.6,0.2-1.3,0.3-0.9,0.9c-0.1,0.5-0.7,0.3-1,0.5c-1.1-0.6-1.6-0.1-2.2,0.5
							c-0.6,0.5-1.3,1.1-2.6,0.6c-0.3,0.2-0.7,0.4-1.1,0.7c-0.5,0.2-0.9,0.5-1.4,0.7c-0.3-0.4-0.5-0.6-0.7-0.8
							c-0.8-0.1-1.5,0-2.3,0.1c-0.7,0-1.5,0.1-2.2,0.1c-0.7,0.1-1.5,0-2.2-0.1c-0.4,0-0.7-0.1-1.1-0.2c-0.4-0.1-0.7-0.3-1-0.4
							c-0.5,0.5-1.8,0.1-2.9,0.7c-0.7-0.7-0.3-1.2-1.2-1.2c-0.5,0-1.5-0.6-1.5,0.1c-0.4,0.2-0.9-0.2-2.2,0l-0.5-0.2
							c-0.3-1.1-2.1-1.8-2.9-2c-0.4,0.2-0.7-0.3-1-0.4c-0.5-0.4-0.9-0.8-1.3-1.2c-2.4-0.7-4.5-2.5-5.9-3.8c-0.1-0.4-0.2-0.9-0.4-1.4
							c-1.1,0.8-1.1-1.2-2-1.1c-0.3-0.5-0.6-1-0.9-1.6c-0.6-0.1-0.8-1-1.8-1.4c-0.1-0.2-0.1-0.4-0.2-0.5c-0.2,0-0.4,0.1-0.6,0.1
							c-0.2-1.2-0.3-2.4-0.4-3.5c0.1-0.1,0.2-0.2,0.3-0.3c0.2-0.7-0.6-0.8-0.1-2.2c-0.1-1.1-1.2-0.8-0.6-3.1c0-1-1.3-0.4-1-1.8
							c0.2-0.5,0.4-0.9,0.5-1.4c0-0.8-1-1.1-0.7-2.1c0-0.5,0-0.9,0-1.4c0.5,0.7,1.3,0.1,1.2,1c-0.1,0.8-0.1,1.7-0.1,2.5
							c0.2,0.7,1.2,0.7,1.1,1.7c0,0.5-0.1,0.9-0.1,1.4c0.2,0.3,0.4,0.5,0.5,0.8c0,0.3,0.1,0.7,0.1,1.1c0.1,1,1.1,1.4,1.9,2.9
							c0.4,0,0.9-0.1,1.2-0.1c0.1,0.3,0.1,0.7,0.2,1c0.6,0.3,1.6,0.8,1.9,1.6c-0.1,0.5-0.2,0.9-0.3,1.4c0.1,0.3,0.2,0.6,0.3,1
							c0.4,0.5,0.9,1.1,1.3,1.5c0.4,0.5,0.8,0.8,1.2,1.2c0.9,0-0.4,0.7,0.7,1c0.1,0.4,0.2,0.9,0.3,1.3c0.3,0.6,1.2,0.1,1.7,0.5
							c0.1,0.8,0.4,1.6,0.7,2.4c0.6,0,1.2-0.1,1.7-0.2c0.4,0.4,0.7,0.9,1.1,1.4c0.4-0.6,1.5-0.3,1.8-0.8c0,0,0.1,0.1,0.2,0.1
							c0.3,0.3,0.6,0.8,1,1.2c0.8-0.1,1.7-0.5,2.5-0.5c1.1,0.6,2.3,0.8,3.3,0.8c0.9,0.1,1.7,0.3,2.6,0.4c0.9,0.1,1.7,0.2,2.6,0.3
							c0.9-0.2,1.8-0.1,2.6,0.1c0.8,0.1,1.7,0.3,2.3,0.4c0.8,0,1.7-0.1,2.5-0.1c0.6,0.3,1.2,0.5,1.8,0.8c0.8,0.1,1.1-0.6,1.2-0.8
							c0.5-0.1,1-0.1,1.5-0.2c0.6-0.4-0.4-1.2,0.6-1.3c0.2,0,0.3,0,0.5,0c0.7-0.4,1.5-0.7,2.2-1.1c0.5-0.2,1.1-0.4,1.6-0.7
							c0.3,0.3,0.6,0.6,0.9,1c0.5-0.1,1-0.3,1.5-0.4c1-1.1,3.4-2.8,4.6-4.3c0.3-0.4,0.6-0.9,1-1.3c0.4-0.4,0.8-0.8,1.1-1.3
							c0.7-0.9,1.4-1.9,1.6-3c0.4-0.7,0.7,0,1-1c0.2-1,0.7-2.2,1.3-3.5c0.6-1.3,1.4-2.5,2.2-3.5c-0.3,2-1,3.8-1.7,5.5
							c-0.7,1.7-1.5,3.3-2,4.9c-0.5-0.2-0.7,0.5-1.1,0.1c-0.8,0.9-0.7,1.4-1.3,2.2c-0.2,0-0.4,0.1-0.5-0.1c-0.4,0.4-1,0.9-0.3,1.3
							c0.1,0.3-0.2,0.5-0.5,0.8l-1.3,1c-0.2,0.2-0.4,0.3-0.6,0.5l-0.7,0.4c-0.4,0.3-0.9,0.6-1.3,0.9
							C125.6,81.1,125.1,81.3,124.6,81.6z"/>
					</g>
					<g>
						<path class="st22" d="M139.9,68.9c-0.3,1-0.7,2-1.2,3c0.3,0,0.6,0,1-0.1c-0.3,0.6-0.6,1.1-0.9,1.7c-0.1-0.3-0.2-0.7-0.3-1.1
							c-0.4,0.5-0.8,1-1.2,1.4c-0.2-0.2-0.4-0.4-0.7-0.6l0.3-0.5c0.4-0.5,0.9-0.9,1.2-1.4c0.6-0.9,1.1-1.7,1.7-2.6
							C139.8,68.8,139.8,68.9,139.9,68.9z"/>
					</g>
					<g>
						<path class="st22" d="M120.4,81.2c-0.7,0.4-1.5,0.7-2.2,1.1c-0.2,0-0.3,0-0.5,0c-0.1-0.3-0.1-0.6-0.2-0.8
							c0.5-0.3,0.8-0.9,1.4-1.1c0.5,0.2,0.9,0.4,1.4,0.6C120.4,81.1,120.4,81.1,120.4,81.2z"/>
					</g>
					<g>
						<path class="st22" d="M104.3,95.3c-0.8,0.1-1.5,1-2.8,0.2c0.1-0.5,1.2-0.5,2.4-0.9L104.3,95.3z"/>
					</g>
					<g>
						<path class="st22" d="M91.3,94.5c-0.5,0-1,0.5-1.7-0.1c-0.1-0.3-0.3-0.6-0.4-1.1c-0.2-0.3-0.4-0.6-0.5-0.9
							c0.8,0.2,0.8-0.6,1.7-0.1c0.4,0.2,0.8,0.5,1.3,0.7c0.4,0.2,0.9,0.4,1.3,0.6C92.4,93.9,91.8,94.2,91.3,94.5z"/>
					</g>
					<g>
						<path class="st22" d="M96.6,81.9c-0.8-0.1-1.7,0.4-2.5,0.5c-0.3-0.4-0.6-0.8-1-1.2c0.1-0.1,0.3-0.2,0.4-0.3
							c0.5,0,1-0.1,1.5-0.1c0.6,0.3,1.2,0.5,1.8,0.8C96.6,81.8,96.6,81.9,96.6,81.9z"/>
					</g>
					<g>
						<path class="st22" d="M89.9,87.2c1.2,0.1,2.6,0.2,2.1,1C91.3,87.9,90.6,87.6,89.9,87.2z"/>
					</g>
					<g>
						<path class="st22" d="M84.1,95.3c-1.2-0.9-2.4-1.7-3.4-2.7c-0.4,0-0.8,0.1-1.3,0.1c-1.3-1.4-2.2-1.9-2.7-1.6
							c-1-0.7-1.9-1.5-2.8-2.3c0.1-0.2,0.1-0.4,0.3-0.6c-0.8-0.8-1.5-1.8-2.2-2.7c-0.5-0.7-0.9-1.3-1.3-2c-1.4-1.7-2.7-3.4-3.8-5.2
							c0.2-1,0.4-1.9,0.6-2.8c0-0.3,0-0.5,0-0.7c0.2-0.1,0.3-0.2,0.5-0.4c0.5,0,1,0.9,1.3-0.1c0.4-0.2,0.9-0.5,1.3-0.7
							c0.1,0.2,0.2,0.4,0.3,0.6c-0.1,1.3,0.3,2.7,0.8,4.1c1.2-0.1,1.3,1.9,3,3.1c0.3,0.5,0.6,0.9,0.9,1.4c0.8,1.1,1.6,2.1,2.6,3.1
							c0.5,0.7,1,1.6,1.9,1.5c0.5,1,1.5,1.3,2.3,1.5c0.8,0.2,1.4,0.4,1.2,1.5c0.7,0.6,1.3,1.1,2,1.7c-1.4,0.3-2.9-0.2-4.3-1.1
							c-1.5-0.9-2.8-2.2-4.1-3.2c-0.4,1.2-1.6-0.7-2.6-0.9c-0.1,0.4-0.2,0.9-0.2,1.3c0.5,0.2,1.1,0.3,1.5,0.4c1.4,0.8,3.1,3,5.2,3.8
							c1.4,1.1,2.9,2.1,4.4,3C85,95.3,84.5,95.3,84.1,95.3z"/>
					</g>
					<g>
						<path class="st22" d="M87.6,78.4c-0.5-0.4-1.3,0.1-1.7-0.5c-0.1-0.4-0.2-0.9-0.3-1.3c0.6,0.1,1.3,0.2,2,0.4
							c0.1,0.3,0.2,0.6,0.3,0.8c-0.1,0.2-0.1,0.3-0.1,0.5C87.7,78.3,87.6,78.3,87.6,78.4z"/>
					</g>
					<g>
						<path class="st22" d="M82,71.8c0.1-0.5,0.1-1,0.3-1.4c-0.2-0.7-1.2-1.2-1.9-1.6c0.6,0.3,1.6,0.8,1.9,1.6
							C82.2,70.8,82.1,71.3,82,71.8z"/>
					</g>
					<g>
						<path class="st22" d="M74.3,71.4c-0.4-0.4-1-0.8-1.3-2c0.3,0,0.6,0,0.9,0C74,70.1,74.2,70.8,74.3,71.4z"/>
					</g>
					<g>
						<path class="st22" d="M61.6,68.7c-0.2-0.7-0.5-1.4-0.7-2.1c0-0.4,0-0.7,0.1-1c-0.7-1.2-0.7-3.1-1.4-4
							c-0.2-1.7-0.4-3.3-0.5-4.9c-0.1-1.7-0.2-3.3-0.2-5c-0.3-0.7-0.7-1.4-1.1-2.2c0.1-1,0.2-2,0.4-3.1c0.3,0.6,0.7,1.2,1,1.6
							c-0.3,1.2,0.2,2.2-0.1,3.7l1,0.3c0.3,0.9,0.6,1.8,0.9,2.7c0.2,1.5,0.3,2.7,1,3.6c0.1,1.1,0.2,2.3,0.3,3.4
							c-0.1,1.3-0.2,2.6-0.3,4c0.2,0,0.3,0,0.4,0c0.1,0.1,0.3,0.2,0.5,0.3c0,0.4,0.1,0.7,0.1,1.1c-0.1,0.6-0.1,1.1-0.2,1.7
							C62.5,68.8,62.1,68.8,61.6,68.7z"/>
					</g>
					<g>
						<path class="st22" d="M79.3,64.2c-0.1,1.9,0.5,2.5,0.8,3.1C79.8,66.7,79.2,66.2,79.3,64.2z"/>
					</g>
					<g>
						<path class="st22" d="M68.4,39c0.1-0.7,0.3-1.2,0.4-1.8c0.5,0.1,1,0.2,1.6,0.3c-0.2,0.3-0.5,0.6-0.7,1l-0.6,1
							C68.9,39.3,68.6,39.2,68.4,39z"/>
					</g>
					<g>
						<path class="st22" d="M74.2,40.6c0.1-0.6,0.1-1.2,0.4-1.8c0.3,0.2,0.5,0.4,0.8,0.6c-0.2,0.2-0.3,0.4-0.4,0.6
							c-0.1,0.2-0.2,0.4-0.4,0.7C74.5,40.7,74.4,40.7,74.2,40.6z"/>
					</g>
					<g>
						<path class="st23" d="M115.6,83.9c-0.2,0.2-0.4,0.9-1.2,0.8c-0.6-0.3-1.2-0.5-1.8-0.8c0.3-0.3,0.7-0.6,1-0.9
							c0.2,0,0.3,0,0.5-0.1C114.5,83.1,115.1,83.5,115.6,83.9z"/>
					</g>
					<g>
						<path class="st23" d="M90,80.5c-0.6,0.1-1.2,0.2-1.7,0.2c-0.3-0.8-0.5-1.6-0.7-2.4c0.1-0.1,0.1-0.1,0.1-0.2
							c0.8,0.5,1.6,1,2.6,1.5C90.3,80.1,90.1,80.3,90,80.5z"/>
					</g>
					<g>
						<path class="st25" d="M141.5,48.9c-0.2,0.7,0.4,1.1,0.6,1.7c-0.1,1.1-0.2,2.1-0.4,3.1c-0.4-0.1-0.8-0.3-1.2-0.4
							c-0.4,0-0.7,0-1,0c0-0.5-0.1-1-0.1-1.5c0.2-1,0.3-2,0.4-3C140.2,48.7,140.8,48.8,141.5,48.9z"/>
					</g>
					<g>
						<path class="st25" d="M137.6,57.7c0,0.1-0.1,0.2-0.1,0.2c-0.3,0.7-0.3,2.5-1.1,1.8l-0.2-1.7c0.2-0.3,0.4-0.5,0.6-0.7
							C137.1,57.4,137.4,57.6,137.6,57.7z"/>
					</g>
					<g>
						<path class="st25" d="M127.5,83.4c-0.3,0-0.7,0-1,0.1c-0.3-0.4,0-0.7,0.4-1c0.4-0.3,1-0.6,1.6-0.8
							C128.3,82.3,127.9,82.9,127.5,83.4z"/>
					</g>
					<g>
						<path class="st25" d="M125.5,85.5c-0.8,0.3-1.2,0.5-1.8,1.3c-0.6,0.2-1.4,0.3-2,0.5c0-0.2-0.1-0.4-0.1-0.6
							c0.4-0.3,0.9-0.5,1.3-0.9c0.4-0.3,0.9-0.7,1.1-1.2c0.6-0.2,1.2-0.3,1.6-0.6C125.6,84.6,125.5,85,125.5,85.5z"/>
					</g>
					<g>
						<path class="st25" d="M117.7,82.3c-1,0.2,0,1-0.6,1.3c-0.5,0.1-1,0.1-1.5,0.2c-0.5-0.3-1.1-0.7-1.6-1c0.5-0.4,0.9-0.4,1.2-0.8
							c0.6-0.1,1.2-0.3,1.9-0.4c0.1,0,0.3-0.1,0.5-0.1C117.6,81.8,117.7,82,117.7,82.3z"/>
					</g>
					<g>
						<path class="st25" d="M90,80.5c0.2-0.2,0.3-0.4,0.3-0.8c0.6,0.3,1.2,0.5,1.9,0.7c0.2,0.2,0.5,0.4,0.7,0.7
							c-0.3,0.6-1.4,0.3-1.8,0.8C90.7,81.5,90.3,81,90,80.5z"/>
					</g>
					<g>
						<path class="st25" d="M66.8,54.6c-0.2-0.6-0.5-1.2-0.7-1.8c-0.1-0.8,0.3-1.3,0.5-1.5c0.2,0.5,0.5,1,0.7,1.4
							c0.5-0.1,1-0.2,1.5-0.3c0,0.7-0.1,1.5-0.1,2.2c-0.4,0.8-1,0.5-1.5,1.3C67,55.6,66.9,55.1,66.8,54.6z"/>
					</g>
					<g>
						<path class="st25" d="M59.1,51.7c0.3-1.5-0.2-2.5,0.1-3.7c-0.3-0.5-0.7-1-1-1.6c0-0.2,0-0.2,0.1-0.4c0.9-1.9,0.5-2.5,0.7-3.1
							c0.5,0.5,0.5-1.1,1-1.2c0.4-0.1,0.8-0.2,1.1-0.2c0,0.1,0,0.3,0.1,0.5c-0.3,1-0.4,2-0.6,3c-0.2,1.2-0.6,2.4,0.3,3.3
							c0,0.1,0,0.2,0,0.3c-0.3,1.1-0.5,2.1-0.7,3.1c0,0.1,0,0.2,0,0.3L59.1,51.7z"/>
					</g>
					<g>
						<path class="st25" d="M74.4,51.4c0-0.2-0.1-0.4-0.2-0.6c0.1-1.3,0.5-2.4-0.5-3.5c0.1-0.4,0.2-0.8,0.3-1.2
							c0.5,0.2,0.9,0.3,1.4,0.5c0.1,0.4,0.2,0.7,0.3,1.1c0,1.4,0.3,2.7,0.2,4.5C75.5,51.8,74.9,51.6,74.4,51.4z"/>
					</g>
					<g>
						<path class="st26" d="M60.8,48.6c0-0.1,0-0.2,0-0.3c0.3-0.7,0.6-1.4,0.9-1.9c0.1,1.1,0.2,2.1,0.4,3.1
							c-0.1,0.2-0.3,0.4-0.4,0.6C61.4,49.6,61.1,49.1,60.8,48.6z"/>
					</g>
					<g>
						<path class="st26" d="M67.7,50.4c0.1-1,0.2-1.8,0.4-2.8c0.5,1.3,0.8,2.6,0,2.9C67.8,50.5,67.7,50.4,67.7,50.4z"/>
					</g>
					<g>
						<path class="st26" d="M63.3,40.2c-0.1-0.5,0-0.9,0.2-1.4c0.2-0.4,0.5-0.8,0.8-1.2c0.2-0.6,0.3-1.1,0.6-1.7
							c0.2-0.2,0.4-0.3,0.6-0.5l0.7,0.8c-0.5,0.5-1,1.1-1.5,1.7c0,0.3,0,0.6,0,0.9C64.1,39.3,63.7,39.7,63.3,40.2z"/>
					</g>
					<g>
						<path class="st26" d="M61,36.2c-0.7-0.1-1.4-0.2-2.1-0.3c0.4-1.6,0.9-2.4,1.5-2.8c0.6-0.5,1.3-0.7,2.4-1.4
							c-0.1,0.4-0.3,0.8-0.4,1.2c-0.1,0.4-0.2,0.8-0.3,1.2c0.3-0.3,0.7-0.6,1-0.9c0.4-0.3,0.7-0.6,1.1-0.9c0,0.1,0.1,0.2,0.1,0.2
							c-1,1.1-1.2,2-1.6,2.7c-0.3,0.8-0.8,1.5-1.9,2.6C60.8,37.2,60.9,36.7,61,36.2z"/>
					</g>
					<g>
						<path class="st24" d="M148.1,36.8c1.1,0.5,1.5,2.2,1.7,3.2c0.4,0.9,0.7,1.8,1,2.7c-0.7-0.3-1.5-1.1-1.7-2.7
							C148.8,38.8,148.5,37.8,148.1,36.8z"/>
					</g>
					<g>
						<path class="st24" d="M138.6,43.6c0.4,0.5,0.9,1,1.3,1.6c-0.1,1-0.2,2-0.3,2.9c-0.5-0.3-0.7-0.6-1-0.9
							C138.4,46,138.2,44.7,138.6,43.6z"/>
					</g>
					<g>
						<path class="st22" d="M110.4,95.2c-0.3,0-0.5,0.1-0.7,0.2C109.9,95.3,110.1,95.3,110.4,95.2z"/>
					</g>
					<g>
						<path class="st22" d="M102.1,90.4c-0.2,0.1-0.3,0.2-0.4,0.3c-0.1,0-0.2-0.1-0.3-0.1c-0.7,0-1.5-0.1-2.2-0.1
							c-1.7-0.4-3.3-0.8-4.9-1.4c-0.6-0.2-1.1-0.4-1.6-0.7c0.6,0,1.2-0.1,1.8-0.1c0-0.1,0.1-0.2,0.1-0.2c0.5,0.1,1,0.2,1.5,0.3
							c0.6,0.3,1.2,0.5,1.9,0.8c0.7,0.5,1.3,0,1.6-0.1C100.2,89.6,101.2,90,102.1,90.4z"/>
					</g>
					<g>
						<path class="st22" d="M102.3,90.5c-0.1,0-0.2,0-0.2,0C102.1,90.4,102.2,90.4,102.3,90.5z"/>
					</g>
					<g>
						<path class="st23" d="M64.3,32.3c0,0-0.1-0.1-0.1-0.2C64.2,32.2,64.3,32.3,64.3,32.3z"/>
					</g>
					<g>
						<path class="st25" d="M129.9,85.9c-0.1,0.1-0.2,0.1-0.3,0.2C129.7,86,129.8,85.9,129.9,85.9z"/>
					</g>
					<g>
						<path class="st26" d="M74.1,56.2c-0.3-1-0.9-0.4-1.2-2.2c0.6-1.4-0.1-1.9,0.3-4c0.4,0.2,0.6,0.5,0.9,0.7
							c0.1,0.3,0.1,0.4,0.2,0.6C73.4,52.7,75,53.5,74.1,56.2z"/>
					</g>
					<g>
						<path class="st26" d="M74.3,56.5c0-0.1-0.1-0.2-0.2-0.3C74.2,56.3,74.3,56.4,74.3,56.5z"/>
					</g>
					<g>
						<path class="st26" d="M120.4,81.2c0-0.1-0.1-0.2-0.1-0.2C120.4,81.1,120.4,81.1,120.4,81.2z"/>
					</g>
					<g>
						<path class="st26" d="M61.8,46.4c-0.1-0.4-0.3-0.7-0.4-1c0.1-1,0.3-2,0.5-3c0.3-0.4,0.6-0.8,1-1.1c0.1,0.2,0.2,0.4,0.3,0.5
							C62.8,44.8,62.4,45.4,61.8,46.4z"/>
					</g>
					<g>
						<path class="st22" d="M109.7,95.4c-0.6-0.1-0.3,0.8-2.1,0.3c-0.6-0.1-1.3-0.2-2-0.3c0.4-0.4,0.7-0.6,1-1c0.2,0,0.4,0,0.7,0
							l0.5,0.4c0.2,0,0.4,0,0.7,0C108.8,95.2,109.3,95.3,109.7,95.4z"/>
					</g>
				</g>
			</g>
		</g>
		<g>
			<g>
				<g>
					<g>
						<path class="st19" d="M1.5,145.5c2.2,2.4,4.4,4.9,6.3,7.6c0.5,0.7,2,0.1,2.5-0.3c12.1-10.1,24.5-19.5,36.8-29.3
							c5.6-4.5,10.4-9.7,15.5-14.8c5.7-5.7,12.1-10.8,18.5-15.8c0.1-0.1,0.4-0.4,0.3-0.6c-1.7-3.1-3.7-5.7-6.3-8.2
							c-0.5-0.5-1.7-0.2-2.2,0.1c-12.8,7.9-23.8,18.4-35.1,28.1c-12.5,10.7-24.9,21.4-37.4,32c-1.3,1.1,1.6,1.1,2.3,0.5
							c12-10.3,24-20.5,35.9-30.8c11.7-10,23-20.9,36.1-29c-0.7,0-1.5,0.1-2.2,0.1c1.4,1.4,3.6,3.2,4.4,5.1c1.3,3-0.3,3.9-2.5,5.6
							c-3.4,2.7-6.8,5.5-10,8.4c-5.8,5.3-10.7,11.3-16.7,16.3C34.7,131.5,21,141.4,8,152.3c0.8-0.1,1.7-0.2,2.5-0.3
							c-2-2.6-4.1-5.1-6.3-7.6C3.5,143.7,0.7,144.7,1.5,145.5L1.5,145.5z"/>
					</g>
				</g>
			</g>
			<g>
				<g>
					<g>
						<path class="st19" d="M104.6,101.6c40.4,0.6,66.8-50.8,43.4-83.7C136,1,114.5-3.8,95.5,3c-21.4,7.6-37.6,28-37.8,51.1
							c-0.1,13.2,6,23.6,15.5,32.4C82,94.6,92.3,100.9,104.6,101.6c1.3,0.1,3-1.9,1-2C95.5,99,86.7,94.5,79,88
							c-8-6.7-15-14.6-17.5-25c-4.9-20.5,7.3-42.6,24.5-53.3c18-11.2,42.1-10.8,56.6,5.8c11.7,13.4,13.9,32.4,8.3,48.9
							C144.2,84,127,99.9,105.6,99.6C104.3,99.6,102.7,101.5,104.6,101.6z"/>
					</g>
				</g>
			</g>
			<g>
				<g>
					<g>
						<path class="st19" d="M105,95.7c35.5,0.4,58.7-44.6,38.5-73.7C132.7,6.6,113.2,2.4,96.1,8.8c-18.6,7-32.5,25-32.6,45.2
							C63.4,74.9,84.5,94.6,105,95.7c1,0.1,2.2-1.4,0.8-1.5c-16.7-0.9-34.9-15.6-39.1-31.9C61.8,44.1,72.8,24,88.1,14.4
							c16-10,37.5-9.7,50.5,5c10.2,11.5,12.3,27.7,7.9,42.1c-5.5,18.1-21.2,33-40.8,32.8C104.8,94.2,103.5,95.7,105,95.7z"/>
					</g>
				</g>
			</g>
			<g>
				<g>
					<g>
						<path class="st19" d="M42.6,108.5c2.9,3.7,5.5,7.6,7.9,11.7c0.7,1.2,3.4,0,2.6-1.3c-2.4-4-5-7.9-7.9-11.7
							C44.4,106.1,41.6,107.3,42.6,108.5L42.6,108.5z"/>
					</g>
				</g>
			</g>
			<g>
				<g>
					<g>
						<path class="st19" d="M72,90.1c1.4,1.7,2.5,3.5,3.3,5.6c0.5,1.3,3.4,0.5,2.9-0.8c-0.9-2.2-2.1-4.2-3.6-6.1
							C73.8,87.8,71,88.9,72,90.1L72,90.1z"/>
					</g>
				</g>
			</g>
			<g>
				<g>
					<g>
						<path class="st19" d="M70.9,94.1c0.6,1.3,1.1,2.6,1.7,4c0.4,1,3.2,0.1,2.9-0.8c-0.6-1.3-1.1-2.6-1.7-4
							C73.4,92.3,70.6,93.2,70.9,94.1L70.9,94.1z"/>
					</g>
				</g>
			</g>
			<g>
				<g>
					<g>
						<path class="st19" d="M68.2,97.9c0.4,1,0.8,2,1.2,3c0.4,1,3.2,0.1,2.9-0.8c-0.4-1-0.8-2-1.2-3C70.7,96.1,67.8,97,68.2,97.9
							L68.2,97.9z"/>
					</g>
				</g>
			</g>
		</g>
	</g>
</g>
</svg>
