<?xml version="1.0" encoding="utf-8"?>
<!-- Generator: Adobe Illustrator 22.0.0, SVG Export Plug-In . SVG Version: 6.00 Build 0)  -->
<svg version="1.1" xmlns="http://www.w3.org/2000/svg" xmlns:xlink="http://www.w3.org/1999/xlink" x="0px" y="0px"
	 viewBox="0 0 97 141.5" style="enable-background:new 0 0 97 141.5;" xml:space="preserve">
<style type="text/css">
	.st0{fill:#FFFEFD;}
	.st1{opacity:0.9;}
	.st2{fill:#CBE5CF;}
	.st3{fill:#DCEDDF;}
	.st4{fill:#E3F1E5;}
	.st5{fill:#E0EFE2;}
	.st6{fill:#D1E8D4;}
	.st7{fill:#D4E9D7;}
	.st8{fill:#BEDEC2;}
	.st9{fill:#C3E1C7;}
	.st10{fill:#C7E2CB;}
	.st11{fill:#EEF6EF;}
	.st12{fill:#EBF5EC;}
	.st13{fill:#FEF9DA;}
	.st14{fill:#FFFDF1;}
	.st15{fill:#FDF5C7;}
	.st16{fill:#FDF2B4;}
	.st17{fill:#FCEFA5;}
	.st18{fill:#FCED95;}
	.st19{fill:#272525;}
	.st20{opacity:0.85;}
	.st21{fill:#D3E6F6;}
	.st22{fill:#C4DEF3;}
	.st23{fill:#ACD0EE;}
	.st24{fill:#E2EFF9;}
	.st25{fill:#B8D7F0;}
	.st26{fill:#9FC9EB;}
	.st27{fill:#EADAEE;}
	.st28{fill:#F7F1F8;}
	.st29{fill:#DFC7E5;}
	.st30{fill:#D5B5DC;}
	.st31{fill:#CDA6D5;}
	.st32{fill:#C497CE;}
	.st33{fill:#D8BBDF;}
	.st34{fill:#E5D1E9;}
	.st35{fill:#E8D6EB;}
	.st36{fill:#DDC3E2;}
	.st37{fill:#DFC6E4;}
	.st38{fill:#CEA9D6;}
	.st39{fill:#D2B0DA;}
	.st40{fill:#F2E9F4;}
	.st41{fill:#F0E4F2;}
	.st42{opacity:0.8;}
	.st43{opacity:0.8;fill:#DC7D5B;}
	.st44{opacity:0.8;fill:#E9AE99;}
	.st45{opacity:0.8;fill:#F0C7B8;}
	.st46{opacity:0.8;fill:#F7E1DA;}
	.st47{fill:#F7E0D8;}
	.st48{fill:#FCF3F0;}
	.st49{fill:#F2D0C4;}
	.st50{fill:#EEC0B0;}
	.st51{fill:#EBB4A0;}
	.st52{fill:#E7A790;}
	.st53{fill:#F0C6B6;}
	.st54{fill:#F5D8CE;}
	.st55{fill:#F6DCD3;}
	.st56{fill:#F1CCBF;}
	.st57{fill:#F2CFC2;}
	.st58{fill:#ECB6A3;}
	.st59{fill:#EDBDAB;}
	.st60{fill:#FAECE7;}
	.st61{fill:#F9E8E2;}
	.st62{fill:#B7E9E6;}
	.st63{fill:#CFF0EE;}
	.st64{fill:#D9F3F2;}
	.st65{fill:#D4F2F0;}
	.st66{fill:#BFECE9;}
	.st67{fill:#C3EDEA;}
	.st68{fill:#A5E4E0;}
	.st69{fill:#ACE6E3;}
	.st70{fill:#B1E7E4;}
	.st71{fill:#E8F8F7;}
	.st72{fill:#E3F6F5;}
	.st73{fill:#FDF3BA;}
	.st74{fill:#FEF7D0;}
	.st75{fill:#FEF8D5;}
	.st76{fill:#FDF4C2;}
	.st77{fill:#FDF5C5;}
	.st78{fill:#FCF0A8;}
	.st79{fill:#FDF1AF;}
	.st80{fill:#FEFBE8;}
	.st81{fill:#FEFAE4;}
	.st82{fill:#C9E1F4;}
	.st83{fill:#DBEAF7;}
	.st84{fill:#DEEDF8;}
	.st85{fill:#CFE4F5;}
	.st86{fill:#D2E5F6;}
	.st87{fill:#BBD8F1;}
	.st88{fill:#C1DCF2;}
	.st89{fill:#EDF5FB;}
	.st90{fill:#EAF3FB;}
	.st91{fill:#C5EDEB;}
	.st92{fill:#91DED9;}
	.st93{fill:#A1E3DF;}
	.st94{fill:#80D8D3;}
</style>
<g id="background">
	<rect x="-54.6" y="-281.4" class="st0" width="1200" height="800"/>
</g>
<g id="colour">
</g>
<g id="object">
	<g>
		<g>
			<g class="st1">
				<g class="st1">
					<path class="st62" d="M37.7,138.5c-2.1,0.2-4.3,0.4-6.4,0.7c0.5-0.3,0.9-0.7,1.4-1C34.2,137.2,36,138.4,37.7,138.5z"/>
					<path class="st62" d="M43.6,138.2C43.6,138.2,43.6,138.2,43.6,138.2c-1.7,0-3.3,0.1-5,0.2c0.1,0,0.2-0.1,0.3-0.1
						C40.5,137.7,42,137.3,43.6,138.2z"/>
					<path class="st63" d="M71.4,128.5c-2,3.6-4.4,6.6-6.5,9.6c-0.5,0.2-1.1,0.6-1.5,0.6c0,0.1-2.9,0.3-4.4,0.1
						c1-1.5,1.8-3.3,2.6-5.3c-0.6-0.4-1.8-0.8-1.7-1.5c0.5-2.7,1.8-4.3,3.2-5.8C63.4,126.3,68.5,128.7,71.4,128.5z"/>
					<path class="st64" d="M78,129.5c1.8,0.4,4.1,1.8,5,2.3c-0.7,1.5-1.5,3-2.4,4.3c0.5,0.8,0.9,1.5,1.4,1.9
						c-0.2,0.2-0.4,0.5-0.5,0.7c-3-0.1-6,0.1-9,0.2C72.8,138,76.9,132.3,78,129.5z"/>
					<path class="st65" d="M72.6,129.3c0.7-0.1,1.3-0.3,2-0.5c1.2,0.2,2.3,0.4,3.5,0.7c-1.1,2.8-2.5,5.3-4,7.1
						c0.2,0,0.3,1.1,0.5,1.1c-1,0.6-1.7,0.3-2,1.3c-2.8,0.1-5.6,0.2-8.3,0.1c0.6-0.7,1.2-0.3,1.8-0.2c-0.2-0.9-0.6-0.9-1.1-0.8
						c2.1-3,4.5-6,6.5-9.6l0.6,0.1C72.1,129,72.2,129.5,72.6,129.3z"/>
					<path class="st66" d="M41.7,134.3c1.7-1.7,2.9-4.1,3.9-6.8c0.5,0.3,1.5,0.8,2.2,0.2c1.3,0.1,4.1,0.8,4.6-0.1
						c0.5-0.9-3,3.8-4.3,6c-0.2,1.4-0.9,2.5-1.7,3.5c-0.3-0.1,0-1-0.3-1.1c0,0.1-0.5,1.1-0.5,1.1s-1.9-0.1-2.8-0.1
						c-0.5-1.4-1.6-0.3-1.6,0l-0.8,0l0,0c0.3-0.5,0.7-0.9,1.1-1.3C41.7,135.4,41.7,134.3,41.7,134.3z"/>
					<path class="st67" d="M59.8,132c0.5-2.7,1.8-4.3,3.2-5.8c-0.5-0.2-1.8-0.6-1.9-0.7c0.1,0.6,0.3,1.3,0,1.5
						c-0.8,0.3-1.9,0.6-2.5,0.6c-0.8-0.2-1.6-1.1-2.4-1.6c-0.7,0.2-1.4,0.4-2.1,0.7c0,0-0.4,1-0.5,1.4c-0.5,0-0.9-0.2-1.3-0.4
						c-0.1,0.2-3.9,3.5-4.3,6c-0.2,1.4-0.9,2.5-1.7,3.5c0,0,2.3,0.2,3.3,0.3c0-0.3-0.4-0.9-0.5-1c0.2,0,1.2,0.9,1.6,1.1
						c0.7,0.1,2.4,0.2,2.5,0.1c0.2,0-0.2-0.7-0.1-1.4c0.8,1,1.6,1.7,2.5,2.1l0.7,0.1c0.1,0.3,0.1,0.5,0,0.5
						c-0.2,0.1-0.3,0.1-0.5,0.2c0.4,0.1,2.3,0.4,2.8,0.5c-0.5-0.2-1-0.6-1.5-1c0.5,0.1,1,0.1,1.6,0.2l0.1,0c1-1.5,1.8-3.3,2.6-5.3
						C60.9,133.2,59.8,132.7,59.8,132z"/>
					<path class="st68" d="M8.9,140.6c-1.3-1.2-3-0.9-4.2-2.5c-2-3-2-6.8-3.2-10.4c5,0.7,9.8,0.8,14.7,0.7c-1,1.7-3.1,1.1-3.8,3.8
						c0,0.4,0.5,0.7,0.7,1c-1.1,1.2-3,1.8-2.8,3.6c0.1,1.1,0.7,2.2,1,3.6l-0.4,0.1C10.4,140,9.7,140.5,8.9,140.6z"/>
					<path class="st69" d="M17.6,140.9l-3.1,0.6c-0.1-0.3-0.1-0.7-0.2-1c1.2-0.2,2.5-0.4,3.7-0.8C17.8,140.2,17.7,140.5,17.6,140.9z
						"/>
					<path class="st69" d="M13.1,133.1c-0.2-0.3-0.7-0.6-0.7-1c0.7-2.7,2.8-2.1,3.8-3.8c1.9,0,3.7-0.1,5.5-0.2
						c-0.3,0.3-0.6,0.6-0.9,0.9c1-0.1,1.4,2.4,2.4,2.3c-2.7,2.8-6.6,3.7-8.3,8.1c-1.2,0.3-2.5,0.6-3.7,0.8c-0.3-1.4-0.9-2.5-1-3.6
						C10.1,135,12,134.3,13.1,133.1z"/>
					<path class="st70" d="M23.3,131.4c-1,0.1-1.4-2.4-2.4-2.3c0.3-0.3,0.6-0.6,0.9-0.9l6.4-0.4c0.1,0,0.3,0.1,0.4,0.1
						c1.6,0.2,3,0,4.5,0.2c-1,1.5-1.9,3-2.9,4.4c-2-1.9-4.2-3.4-6.6-4.3c0.8,0.3,0.8,2.1,1.2,2.4c1.6,1.9,3.2,5.9,2.5,7.7
						c-3,0.5-6.1,1-9.1,1.6c-0.3-0.4-0.6-1.1-0.8-1.1c-0.8,0.3-1.7,0.5-2.5,0.8C16.7,135.2,20.6,134.3,23.3,131.4z"/>
					<path class="st62" d="M30.3,132.4c1-1.4,1.9-2.9,2.9-4.4c0.4,0.1,0.8,0.1,1.2,0.3c0-0.3,0-0.6-0.2-0.9l0.9,0
						c0.4,0.2,0.7,1.3,1.2-0.1l1.2-0.1c0.4,0.4,0.8,1,1,1.7l0-1.1c0.4-0.7,0.8,0,1.2,0c0-0.2,0-0.5,0-0.7c1.9,0.9,4.6-0.1,5.1-0.1
						c0.3,0.2,0.6,0.4,0.8,0.5c-1,2.7-2.2,5-3.9,6.8c0,0,0,1.1-0.2,1.4c-0.4,0.4-0.7,0.9-1.1,1.3c-2.2-1.7-4.9,0.2-5,0.3l-0.9,0.1
						c-1.7-0.1-4.5-1.8-6.4,0.8l-0.7,0.1c0.6-1.8-0.9-5.9-2.5-7.7c-0.4-0.3-1.9-2.3-1.2-2.4C26.3,128.3,30.4,132.5,30.3,132.4z"/>
					<path class="st71" d="M90.5,135c0.7,0.3,1.3,0.6,2,0.8c-0.8-0.1-1.5-0.5-2,0.3c-0.3-0.3-0.7-0.3-1.1-0.4
						C89.8,135.4,90.1,135.2,90.5,135z"/>
					<path class="st71" d="M88.6,140L88,140c0.1-0.7,0.5-1.4,0.9-1c0.1-0.7-0.4,0-0.4-0.4c0.1-1,0.3-1,0.6-0.8
						c-0.2,1.6-0.6,3.2-0.9,3.1l-0.4,0C88.1,140.5,88.5,140.4,88.6,140z"/>
					<path class="st72" d="M82.1,138.1c-0.6-0.4-0.9-1.2-1.4-1.9c0.9-1.3,1.6-2.7,2.4-4.3c1.7,0.9,3.5,1.6,5.2,2.4
						c-0.3,0.2-0.7,0.4-1,0.7c0.4,0,0.8,0.1,1.1,0.4c-0.1,0.2-0.2,0.3-0.3,0.6l0,0c-0.3-0.1-0.5-0.1-0.6,0.8c0,0.4,0.4-0.3,0.4,0.4
						c-0.4-0.4-0.8,0.3-0.9,1l0.6,0.1c-0.1,0.4-0.5,0.5-0.8,0.8c-1.7-0.2-3.5-0.2-5.2-0.3C81.7,138.6,81.9,138.4,82.1,138.1z"/>
				</g>
			</g>
		</g>
		<g>
			<g class="st1">
				<g class="st1">
					<path class="st62" d="M80.1,86.6c-0.3-1.7-0.7-3.3-1-4.9c0.4,0.3,0.7,0.7,1.1,1C81.2,83.8,80.1,85.2,80.1,86.6z"/>
					<path class="st62" d="M80.8,91.1C80.8,91.1,80.8,91.1,80.8,91.1c-0.2-1.3-0.4-2.6-0.6-3.8c0,0.1,0.1,0.2,0.1,0.3
						C81.1,88.7,81.6,89.8,80.8,91.1z"/>
					<path class="st63" d="M94.1,110.7c-3.9-0.9-7.2-2.1-10.5-3.3c-0.3-0.4-0.8-0.7-0.8-1c-0.1,0-0.7-2.2-0.8-3.4
						c1.6,0.5,3.5,0.9,5.6,1.1c0.3-0.5,0.6-1.5,1.3-1.5c2.7-0.1,4.5,0.7,6.2,1.5C95.1,104.4,93.5,108.6,94.1,110.7z"/>
					<path class="st64" d="M94.2,115.8c-0.1,1.4-1.1,3.3-1.4,4.1c-1.6-0.3-3.2-0.6-4.6-1c-0.7,0.5-1.3,0.9-1.7,1.4
						c-0.3-0.1-0.5-0.2-0.8-0.3c-0.5-2.3-1.1-4.5-1.7-6.8C85,113.4,91.3,115.5,94.2,115.8z"/>
					<path class="st65" d="M93.5,111.7c0.3,0.5,0.5,0.9,0.8,1.4c0,0.9,0,1.8-0.1,2.7c-2.9-0.3-5.6-0.9-7.7-1.7c0,0.2-1,0.4-1,0.6
						c-0.7-0.7-0.6-1.2-1.6-1.2c-0.6-2.1-1.1-4.2-1.5-6.3c0.8,0.4,0.4,0.9,0.5,1.3c0.8-0.3,0.8-0.6,0.6-1c3.3,1.1,6.6,2.4,10.5,3.3
						c0,0.1,0,0.3,0,0.4C93.7,111.3,93.3,111.5,93.5,111.7z"/>
					<path class="st66" d="M84.5,89.2c1.9,1.1,4.3,1.8,7.1,2.2c-0.2,0.4-0.7,1.2,0,1.7c0.1,1-0.3,3.2,0.6,3.4c1,0.2-4.1-1.7-6.4-2.5
						c-1.4,0-2.6-0.3-3.7-0.8c0.1-0.2,1-0.1,1.1-0.3c-0.1,0-1.1-0.2-1.1-0.2s-0.1-1.4-0.2-2.2c1.4-0.5,0.2-1.3-0.1-1.2
						c0-0.2,0-0.4-0.1-0.6c0,0,0,0,0,0c0.5,0.2,1,0.4,1.4,0.7C83.4,89.4,84.5,89.2,84.5,89.2z"/>
					<path class="st67" d="M88.9,102.7c2.7-0.1,4.5,0.7,6.2,1.5c0.1-0.4,0.4-1.4,0.4-1.5c-0.6,0.2-1.2,0.4-1.5,0.3
						c-0.4-0.6-0.9-1.3-0.9-1.8c0.1-0.6,0.9-1.3,1.3-2c-0.3-0.5-0.6-1-0.9-1.4c0,0-1-0.2-1.5-0.1c0-0.4,0.1-0.7,0.2-1
						c-0.2,0-3.9-2.4-6.4-2.5c-1.4,0-2.6-0.3-3.7-0.8c0,0,0,1.8,0,2.6c0.3-0.1,0.8-0.4,0.9-0.5c0,0.1-0.7,1-0.9,1.4
						c0,0.5,0.1,1.8,0.2,1.9c0,0.2,0.7-0.2,1.4-0.3c-0.9,0.8-1.5,1.5-1.8,2.2c0,0.2,0,0.4,0,0.6c-0.3,0.1-0.5,0.2-0.5,0.1
						c-0.1-0.1-0.2-0.2-0.2-0.3c0,0.4-0.1,1.9-0.1,2.3c0.2-0.4,0.4-0.8,0.8-1.3c0,0.4,0,0.8,0.1,1.2c0,0,0,0,0,0
						c1.6,0.5,3.5,0.9,5.6,1.1C87.9,103.7,88.2,102.7,88.9,102.7z"/>
					<path class="st68" d="M77.7,64.1c1.3-1,1.1-2.3,2.8-3.3c3.1-1.5,6.9-1.5,10.6-2.3c-1,3.7-1.4,7.4-1.4,11
						c-1.7-0.7-1-2.3-3.7-2.8c-0.4,0-0.7,0.4-1,0.6c-1.2-0.8-1.7-2.3-3.5-2.1c-1.1,0.1-2.3,0.5-3.7,0.8c0-0.1,0-0.2,0-0.3
						C78.3,65.2,77.8,64.7,77.7,64.1z"/>
					<path class="st69" d="M77.1,70.9c-0.2-0.8-0.4-1.6-0.6-2.5c0.3,0,0.7-0.1,1-0.2c0.1,1,0.4,1.9,0.7,2.9
						C77.9,71.1,77.5,71,77.1,70.9z"/>
					<path class="st69" d="M85,67.3c0.3-0.2,0.7-0.5,1-0.6c2.7,0.4,2,2.1,3.7,2.8c0,1.4,0.1,2.8,0.2,4.2c-0.3-0.2-0.6-0.4-0.9-0.6
						c0.1,0.8-2.4,1.2-2.3,2c-2.9-1.9-3.7-4.9-8.1-6.1c-0.3-1-0.5-1.9-0.7-2.9c1.4-0.3,2.6-0.7,3.7-0.8C83.3,65,83.8,66.5,85,67.3z"
						/>
					<path class="st70" d="M86.6,75c-0.1-0.8,2.4-1.2,2.3-2c0.3,0.2,0.6,0.4,0.9,0.6c0.1,1.6,0.3,3.2,0.5,4.8c0,0.1-0.1,0.2-0.1,0.3
						c-0.2,1.2,0.1,2.3,0,3.4c-1.5-0.6-3-1.2-4.5-1.8c1.8-1.7,3.3-3.4,4.1-5.3c-0.3,0.7-2.1,0.7-2.4,1c-1.9,1.3-5.8,2.8-7.7,2.4
						c-0.5-2.3-1.1-4.7-1.7-7c0.4-0.2,1.2-0.5,1.1-0.7c-0.3-0.6-0.5-1.3-0.7-1.9C82.8,70.1,83.7,73,86.6,75z"/>
					<path class="st62" d="M85.7,80.3c1.4,0.6,3,1.2,4.5,1.8c0,0.3-0.1,0.6-0.2,0.9c0.3,0,0.6-0.1,0.9-0.2c0,0.2,0.1,0.4,0.1,0.6
						c-0.2,0.3-1.2,0.6,0.1,0.9c0,0.3,0.1,0.6,0.1,0.9c-0.4,0.4-0.9,0.7-1.7,0.9c0.4,0,0.7-0.1,1.1-0.1c0.7,0.2,0.1,0.6,0.1,0.9
						c0.2,0,0.5-0.1,0.7-0.1c-0.7,1.5,0.4,3.4,0.5,3.8c-0.2,0.2-0.3,0.5-0.4,0.7c-2.7-0.4-5.2-1-7.1-2.2c0,0-1.1,0.1-1.4,0
						c-0.5-0.2-0.9-0.4-1.4-0.7c1.6-1.8-0.6-3.8-0.6-3.8c0-0.2-0.1-0.5-0.1-0.7c0-1.4,1.6-3.6-1-4.9c0-0.2-0.1-0.4-0.1-0.5
						c1.8,0.4,5.8-1.1,7.7-2.4c0.3-0.3,2.3-1.6,2.4-1C89.7,77,85.6,80.4,85.7,80.3z"/>
					<path class="st71" d="M91.1,126.1c-0.2,0.5-0.3,1.1-0.5,1.6c-0.1-0.6,0.2-1.2-0.6-1.4c0.2-0.3,0.2-0.6,0.2-0.9
						C90.5,125.6,90.8,125.8,91.1,126.1z"/>
					<path class="st71" d="M85.8,125.6c0-0.2,0-0.3-0.1-0.5c0.7-0.1,1.5,0.1,1.1,0.5c0.7-0.1,0-0.3,0.3-0.3c1-0.1,1,0.1,0.9,0.3
						c-1.6,0.2-3.2,0.1-3.3-0.1c0-0.1,0-0.2,0-0.3C85.2,125.3,85.4,125.6,85.8,125.6z"/>
					<path class="st72" d="M86.5,120.4c0.3-0.5,1-0.9,1.7-1.4c1.4,0.4,3,0.7,4.6,1c-0.5,1.5-1,2.9-1.4,4.3c-0.2-0.2-0.5-0.4-0.9-0.6
						c0,0.3,0.1,0.6-0.2,0.9c-0.2,0-0.4-0.1-0.6-0.1c0,0,0,0,0,0c0.1-0.2,0-0.4-0.9-0.3c-0.4,0,0.4,0.3-0.3,0.3
						c0.3-0.3-0.4-0.6-1.1-0.5c0,0.2,0,0.3,0.1,0.5c-0.4,0-0.6-0.3-1-0.4c-0.2-1.3-0.4-2.6-0.7-3.9C86,120.2,86.2,120.3,86.5,120.4z
						"/>
				</g>
			</g>
		</g>
		<g>
			<g class="st1">
				<g class="st1">
					<path class="st62" d="M92.1,106.7c0.1,1.9,0.2,3.9,0.3,5.8c-0.3-0.4-0.6-0.9-0.9-1.3C90.6,109.7,91.9,108.2,92.1,106.7z"/>
					<path class="st62" d="M92,101.4C92,101.4,92,101.4,92,101.4c0,1.5,0,3,0,4.5c0-0.1,0-0.2-0.1-0.3
						C91.4,104.1,91.1,102.7,92,101.4z"/>
					<path class="st63" d="M81.7,76.9c3.7,1.6,6.8,3.6,9.9,5.4c0.2,0.4,0.7,0.9,0.7,1.3c0.1,0,0.4,2.6,0.3,4
						c-1.5-0.8-3.3-1.6-5.4-2.2c-0.4,0.5-0.8,1.6-1.5,1.5c-2.7-0.4-4.4-1.5-5.9-2.7C79.8,83.9,82,79.4,81.7,76.9z"/>
					<path class="st64" d="M82.3,71.1c0.3-1.6,1.6-3.6,2-4.5c1.6,0.6,3.1,1.1,4.4,1.8c0.7-0.5,1.5-0.8,1.8-1.4
						c0.3,0.1,0.5,0.3,0.8,0.4c0.2,2.7,0.4,5.3,0.7,8C91.1,75.3,85.2,71.9,82.3,71.1z"/>
					<path class="st65" d="M82.4,75.9c-0.2-0.6-0.4-1.2-0.6-1.7c0.1-1,0.2-2,0.5-3.1c2.9,0.8,5.4,1.9,7.3,3.2c0-0.2,1-0.3,1-0.5
						c0.6,0.9,0.4,1.5,1.4,1.7c0.2,2.5,0.5,4.9,0.6,7.4c-0.7-0.6-0.3-1.1-0.3-1.6c-0.9,0.2-0.9,0.6-0.7,1c-3.1-1.8-6.2-3.8-9.9-5.4
						l0-0.5C82.1,76.3,82.6,76.2,82.4,75.9z"/>
					<path class="st66" d="M88.1,102.9c-1.7-1.6-4-2.7-6.7-3.6c0.3-0.4,0.9-1.3,0.2-1.9c0.1-1.2,0.8-3.5-0.1-4
						c-0.9-0.4,3.8,2.6,6,3.8c1.4,0.2,2.5,0.8,3.5,1.5c-0.1,0.2-1,0-1.1,0.2c0.1,0,1.1,0.4,1.1,0.4s-0.1,1.7-0.1,2.5
						c-1.4,0.4-0.3,1.4,0,1.4l0,0.7l0,0c-0.4-0.3-0.9-0.7-1.3-1C89.1,103,88.1,102.9,88.1,102.9z"/>
					<path class="st67" d="M85.7,86.9c-2.7-0.4-4.4-1.5-5.9-2.7c-0.2,0.4-0.6,1.6-0.6,1.7c0.6-0.1,1.3-0.3,1.5,0
						c0.3,0.7,0.7,1.6,0.7,2.1c-0.2,0.7-1.1,1.4-1.5,2.1c0.2,0.6,0.4,1.2,0.7,1.8c0,0,1,0.4,1.4,0.4c0,0.4-0.2,0.8-0.4,1.1
						c0.2,0,3.5,3.4,6,3.8c1.4,0.2,2.5,0.8,3.5,1.5c0,0,0.2-2,0.3-3c-0.3,0-0.9,0.4-1,0.5c0-0.1,0.9-1.1,1.1-1.4
						c0.1-0.6,0.2-2.1,0.1-2.3c0-0.2-0.7,0.2-1.4,0.1c1-0.7,1.7-1.5,2.1-2.3l0.1-0.6c0.3-0.1,0.5-0.1,0.5,0c0.1,0.1,0.1,0.3,0.2,0.4
						c0.1-0.4,0.4-2.1,0.4-2.6c-0.2,0.5-0.6,0.9-1,1.3c0.1-0.5,0.1-0.9,0.1-1.4l0-0.1c-1.5-0.8-3.3-1.5-5.4-2.2
						C86.8,85.9,86.4,87,85.7,86.9z"/>
					<path class="st68" d="M89.9,134.6c-1,0.5-1.8,1.3-2.7,2l-6.2,4.4l-1.5-4.1c-0.5-1.4-0.4-2.7,0.3-3.5c0.7-0.7,1.6-1,2.5-1.1
						c0.9-0.1,1.8,0,2.7,0.2l0.7,0.1l0.1,0l0,0l0,0l0,0l-0.1,0c0.1,0,0.3,0,0.3,0c0,0-0.1,0-0.3,0.1l-8.3-1.9c0.7-0.2,1.3-0.9,1.8-2
						c0.5-1.1,0.8-2.5,1-4c0.8,0.5,0.9,1.2,1.2,1.8c0.3,0.6,0.6,1.2,1.9,1.8c0.4,0,0.8-0.2,1.1-0.4c1,1.1,1,3,2.7,3.4
						c1.1,0.3,2.3,0.1,3.8,0.2l-0.1,0.5C90.1,132.5,90.2,133.5,89.9,134.6z"/>
					<path class="st69" d="M92.7,125.1c0.1,1,0.1,2.1,0.1,3.3c-0.3,0-0.7,0-1,0c0.1-1.4,0-2.6-0.1-3.8
						C92,124.7,92.4,124.9,92.7,125.1z"/>
					<path class="st69" d="M84.3,127.9c-0.4,0.1-0.8,0.4-1.1,0.4c-1.2-0.5-1.6-1.1-1.9-1.8c-0.3-0.6-0.4-1.3-1.2-1.8
						c0.2-1.6,0.3-3.2,0.4-4.8c0.3,0.3,0.6,0.6,0.8,0.8c0-0.9,2.6-1,2.6-1.9c1.3,1.3,2,2.9,3,4.3c0.9,1.5,2.1,2.8,4.1,4.1
						c0.1,1.3,0.1,2.7-0.2,4.2c-1.4-0.1-2.7,0-3.8-0.2C85.3,130.9,85.3,129,84.3,127.9z"/>
					<path class="st70" d="M84,118.9c0,0.9-2.6,1-2.6,1.9c-0.3-0.3-0.6-0.6-0.8-0.8c0.1-1.8,0.2-3.7,0.2-5.5c0-0.1,0.1-0.2,0.1-0.4
						c0.3-1.4,0.2-2.6,0.5-3.9c1.4,0.9,2.8,1.8,4.2,2.8c-2,1.6-3.7,3.4-4.8,5.4c0.4-0.7,2.2-0.5,2.5-0.8c2-1.2,6.2-2.3,7.9-1.6
						c0.2,2.8,0.4,5.5,0.6,8.3c-0.5,0.2-1.2,0.4-1.2,0.6c0.2,0.8,0.3,1.6,0.4,2.5c-2-1.2-3.1-2.6-4.1-4.1
						C86,121.8,85.3,120.3,84,118.9z"/>
					<path class="st62" d="M85.6,112.9c-1.3-0.9-2.8-1.9-4.2-2.8c0.1-0.3,0.2-0.7,0.4-1c-0.3,0-0.6,0-1,0.1l0-0.7
						c0.2-0.3,1.3-0.5,0-1l0-1.1c0.4-0.4,1-0.6,1.8-0.8l-1.1,0c-0.7-0.4,0-0.7,0-1.1c-0.2,0-0.5,0-0.7-0.1c0.9-1.6,0.1-4,0.1-4.4
						c0.2-0.2,0.4-0.5,0.5-0.7c2.6,0.9,5,2,6.7,3.6c0,0,1.1,0,1.4,0.2c0.4,0.3,0.9,0.7,1.3,1c-1.8,1.9,0,4.4,0,4.5l0,0.8
						c-0.2,1.6-2.1,3.9,0.3,5.8l0,0.6c-1.7-0.7-5.9,0.3-7.9,1.6c-0.4,0.3-2.5,1.4-2.5,0.8C81.2,116.1,85.7,112.8,85.6,112.9z"/>
					<path class="st71" d="M86.9,59.9c0.2-0.6,0.5-1.2,0.7-1.8c0,0.7-0.4,1.3,0.4,1.7c-0.3,0.3-0.3,0.6-0.3,1
						C87.4,60.5,87.1,60.2,86.9,59.9z"/>
					<path class="st71" d="M92,61.2l0,0.5c-0.7,0-1.4-0.4-1.1-0.7c-0.7,0,0,0.4-0.4,0.3c-1,0-1-0.2-0.9-0.5c1.6,0.1,3.2,0.4,3.2,0.6
						l0,0.3C92.6,61.6,92.4,61.3,92,61.2z"/>
					<path class="st72" d="M90.6,67.1c-0.4,0.5-1.1,0.9-1.8,1.4c-1.3-0.7-2.8-1.3-4.4-1.8c0.8-1.6,1.4-3.1,2-4.7
						c0.2,0.3,0.5,0.6,0.8,0.8c0-0.3,0-0.7,0.3-1c0.2,0.1,0.4,0.1,0.6,0.2l0,0c-0.1,0.2-0.1,0.4,0.9,0.5c0.4,0-0.3-0.4,0.4-0.3
						c-0.4,0.3,0.3,0.7,1.1,0.7l0-0.5c0.4,0.1,0.6,0.4,0.9,0.6c0,1.5,0,3.1,0.1,4.6C91.1,67.4,90.9,67.2,90.6,67.1z"/>
				</g>
			</g>
		</g>
		<g>
			<g>
				<g>
					<g>
						<path class="st19" d="M-1.5,59.1c2,26,3.4,52,3.7,78.1c0,0.2,0.4,0.2,0.5,0.2c13.8,0.9,27.6-0.1,41.4,0.3
							c15.7,0.5,31.3,1.3,47,0.1c0.4,0,2.1-0.3,2.1-0.9c-0.8-14.7-0.2-29.4-0.1-44.1c0-7.3,0-14.7-0.5-22
							c-0.3-4.1,1.1-12.9-4.1-13.8c-6.2-1.1-13.4-0.2-19.7-0.2c-7.8-0.1-15.5-0.1-23.3-0.1c-14.9,0-29.8,0.2-44.7,0.4
							c-0.6,0-3.2,1.1-1.9,1.1c13.9-0.2,27.8-0.4,41.8-0.4c13.8,0,28-0.9,41.8,0.2c2.3,0.2,5.2-0.1,6.3,2.5c0.5,1.2,0.4,3,0.5,4.4
							c0.3,3.5,0.6,7,0.7,10.5c0.3,6.7,0.3,13.4,0.3,20.1c-0.1,14.1-0.6,28.1,0.2,42.2c0.7-0.3,1.4-0.6,2.1-0.9
							c-14.9,1.2-29.7,0.4-44.6-0.1c-12.9-0.4-25.7,0.5-38.6-0.1c-0.9,0-3,0.3-3.6-0.2c-1.1-0.8-0.6-4.7-0.6-5.7
							c-0.1-3.7-0.1-7.4-0.2-11.2c-0.2-6.9-0.4-13.9-0.8-20.8C3.3,85.2,2.4,71.8,1.4,58.4C1.3,57.9-1.6,58.4-1.5,59.1L-1.5,59.1z"/>
					</g>
				</g>
			</g>
			<g>
				<g>
					<g>
						<path class="st19" d="M45.4,105.9c0-4.2,0.8-10.9-2.8-13.8c-2.2-1.8-4.6-2-4.4-5.5c0.4-6.8,11.1-8.8,16.2-5.8
							c1.7,1,4.5,3.4,4.3,5.7c-0.3,3.2-3.7,4.4-5.2,6.8c-1.2,1.8-1.4,4.1-1.8,6.2c-0.4,2.3-0.3,7.3-1.9,8.9c0.7-0.2,1.5-0.5,2.2-0.7
							c-2-0.1-3.8-0.9-5.6-1.6c-0.7-0.3-3.3,0.8-2.3,1.2c2.1,0.8,5.6,2.6,7.9,1.3c2.8-1.7,2.3-8.3,2.9-11.1c0.7-3.6,1.9-4.8,4.7-7.3
							c1-0.9,1.8-1.6,2.1-3.1c0.7-3.7-2.8-6.7-5.8-8c-6-2.6-14.5-0.6-18.7,4.5c-2.5,3-2.4,6.1,0.8,8.4c2.4,1.8,3.9,2.4,4.3,5.7
							c0.4,3,0.5,6.1,0.5,9.1C42.5,107.2,45.4,106.8,45.4,105.9L45.4,105.9z"/>
					</g>
				</g>
			</g>
			<g>
				<g>
					<g>
						<path class="st19" d="M48.4,106.1c-0.4-4-0.7-8.1-1.9-12c-0.4-1.3-1.4-2.8-1.6-4.1c-0.8-5.1,2.1-6.7,5.2-8.9
							c0.9-0.6,0.4-1.6-0.5-1.8c-6.5-1.5-14.9,3.9-9.8,10.9c0.7-0.6,1.4-1.1,2.1-1.7c-0.2-1-0.5-2-0.7-3c1-0.7,2-1.2,3-1.7
							c1.5-0.8,3.1-1.4,4.7-2c1.4-0.5,1.6-2.3-0.2-2.2c-6.1,0.3-11.6,5.8-6.6,11.4c0.5-0.6,0.9-1.2,1.4-1.8c-0.5,0-1.1,0.1-1.6,0.1
							c-0.7,0-1.7,0.6-1.5,1.5c0.7,3.4,3.3,3.2,3.7,7.8c0.2,2.9-0.3,5.5,0.3,8.5c0.3,1.3,2.9,0.7,2.9-0.5c0.1-4-0.8-7.6-1.8-11.5
							c-0.5-1.9-1.3-4.1-1.3-6c0-2.9,3.5-9.5,7.9-8.1c1.3,0.4,3.4-1.5,1.6-2C50,77.8,44,80.9,42,84.3c-1.3,2.2-0.8,5-0.3,7.4
							c0.9,5.2,2.9,9.9,2.7,15.2c1-0.2,1.9-0.3,2.9-0.5c-0.7-3.3,0.2-6.5-0.2-9.8c-0.4-2.9-3.2-3.9-3.8-6.5c-0.5,0.5-1,1-1.5,1.5
							c0.5,0,1.1-0.1,1.6-0.1c0.7,0,2.2-0.9,1.4-1.8c-1.5-1-1.5-2.4-0.2-4.1c-0.2-2.8,1.1-4.1,3.9-3.7c-0.1-0.7-0.1-1.5-0.2-2.2
							C44.6,81,31,86.8,40.3,90.6c0.9,0.3,3-0.5,2.1-1.7c-3.4-4.7,1.6-8.4,6.2-7.4c-0.2-0.6-0.3-1.2-0.5-1.8c-3.1,2.2-8,5.1-6.9,9.5
							c0.7,2.8,2.3,5.2,2.9,8.1c0.7,3.2,1,6.4,1.3,9.6C45.6,108.3,48.5,107.6,48.4,106.1L48.4,106.1z"/>
					</g>
				</g>
			</g>
			<g>
				<g>
					<g>
						<path class="st19" d="M15.1,56.8c0.3-11.7-0.2-23.8,4.3-34.8c4.8-11.6,15-20.6,28-20.5C75,1.5,73,39,73.4,58.2
							c0,0.7,2.9,0.2,2.9-0.8c-0.3-14.5,0.5-32-6.3-45.3c-5-9.8-15.6-13.2-26-11.8C33.7,1.7,25,7.7,19.6,16.4
							c-7.6,12.4-7.1,27.2-7.4,41.1C12.2,58.2,15.1,57.8,15.1,56.8L15.1,56.8z"/>
					</g>
				</g>
			</g>
			<g>
				<g>
					<g>
						<path class="st19" d="M20.8,55.9c-0.4-10,1.1-20.4,4-30c2.4-7.8,6.1-14.3,14.1-17.2c5.5-2.1,10.8-2.2,16.1,0.6
							C60.1,12,62,16,62.6,21.6c1.3,11.9,1.8,24,2.1,36c0,0.8,2.9,0.3,2.9-0.8c-0.2-7.8-0.6-15.7-1.1-23.5
							c-0.4-6.1,0.3-14.7-3.1-20.2c-5-8-16-8.7-24-6.1C32.2,9.4,27.1,13.6,24,20.6c-4.9,10.9-6.6,24.2-6.1,36.1
							C17.9,57.5,20.8,56.9,20.8,55.9L20.8,55.9z"/>
					</g>
				</g>
			</g>
		</g>
	</g>
</g>
</svg>
