<?xml version="1.0" encoding="utf-8"?>
<!-- Generator: Adobe Illustrator 22.0.0, SVG Export Plug-In . SVG Version: 6.00 Build 0)  -->
<svg version="1.1" xmlns="http://www.w3.org/2000/svg" xmlns:xlink="http://www.w3.org/1999/xlink" x="0px" y="0px"
	 viewBox="0 0 168.4 165.3" style="enable-background:new 0 0 168.4 165.3;" xml:space="preserve">
<style type="text/css">
	.st0{fill:#FFFEFD;}
	.st1{opacity:0.9;}
	.st2{fill:#CBE5CF;}
	.st3{fill:#DCEDDF;}
	.st4{fill:#E3F1E5;}
	.st5{fill:#E0EFE2;}
	.st6{fill:#D1E8D4;}
	.st7{fill:#D4E9D7;}
	.st8{fill:#BEDEC2;}
	.st9{fill:#C3E1C7;}
	.st10{fill:#C7E2CB;}
	.st11{fill:#EEF6EF;}
	.st12{fill:#EBF5EC;}
	.st13{fill:#FEF9DA;}
	.st14{fill:#FFFDF1;}
	.st15{fill:#FDF5C7;}
	.st16{fill:#FDF2B4;}
	.st17{fill:#FCEFA5;}
	.st18{fill:#FCED95;}
	.st19{fill:#272525;}
	.st20{opacity:0.85;}
	.st21{fill:#D3E6F6;}
	.st22{fill:#C4DEF3;}
	.st23{fill:#ACD0EE;}
	.st24{fill:#E2EFF9;}
	.st25{fill:#B8D7F0;}
	.st26{fill:#9FC9EB;}
	.st27{fill:#EADAEE;}
	.st28{fill:#F7F1F8;}
	.st29{fill:#DFC7E5;}
	.st30{fill:#D5B5DC;}
	.st31{fill:#CDA6D5;}
	.st32{fill:#C497CE;}
	.st33{fill:#D8BBDF;}
	.st34{fill:#E5D1E9;}
	.st35{fill:#E8D6EB;}
	.st36{fill:#DDC3E2;}
	.st37{fill:#DFC6E4;}
	.st38{fill:#CEA9D6;}
	.st39{fill:#D2B0DA;}
	.st40{fill:#F2E9F4;}
	.st41{fill:#F0E4F2;}
	.st42{opacity:0.8;}
	.st43{opacity:0.8;fill:#DC7D5B;}
	.st44{opacity:0.8;fill:#E9AE99;}
	.st45{opacity:0.8;fill:#F0C7B8;}
	.st46{opacity:0.8;fill:#F7E1DA;}
	.st47{fill:#F7E0D8;}
	.st48{fill:#FCF3F0;}
	.st49{fill:#F2D0C4;}
	.st50{fill:#EEC0B0;}
	.st51{fill:#EBB4A0;}
	.st52{fill:#E7A790;}
	.st53{fill:#F0C6B6;}
	.st54{fill:#F5D8CE;}
	.st55{fill:#F6DCD3;}
	.st56{fill:#F1CCBF;}
	.st57{fill:#F2CFC2;}
	.st58{fill:#ECB6A3;}
	.st59{fill:#EDBDAB;}
	.st60{fill:#FAECE7;}
	.st61{fill:#F9E8E2;}
	.st62{fill:#B7E9E6;}
	.st63{fill:#CFF0EE;}
	.st64{fill:#D9F3F2;}
	.st65{fill:#D4F2F0;}
	.st66{fill:#BFECE9;}
	.st67{fill:#C3EDEA;}
	.st68{fill:#A5E4E0;}
	.st69{fill:#ACE6E3;}
	.st70{fill:#B1E7E4;}
	.st71{fill:#E8F8F7;}
	.st72{fill:#E3F6F5;}
	.st73{fill:#FDF3BA;}
	.st74{fill:#FEF7D0;}
	.st75{fill:#FEF8D5;}
	.st76{fill:#FDF4C2;}
	.st77{fill:#FDF5C5;}
	.st78{fill:#FCF0A8;}
	.st79{fill:#FDF1AF;}
	.st80{fill:#FEFBE8;}
	.st81{fill:#FEFAE4;}
	.st82{fill:#C9E1F4;}
	.st83{fill:#DBEAF7;}
	.st84{fill:#DEEDF8;}
	.st85{fill:#CFE4F5;}
	.st86{fill:#D2E5F6;}
	.st87{fill:#BBD8F1;}
	.st88{fill:#C1DCF2;}
	.st89{fill:#EDF5FB;}
	.st90{fill:#EAF3FB;}
	.st91{fill:#C5EDEB;}
	.st92{fill:#91DED9;}
	.st93{fill:#A1E3DF;}
	.st94{fill:#80D8D3;}
</style>
<g id="background">
	<rect x="-532.9" y="-561.4" class="st0" width="1200" height="800"/>
</g>
<g id="colour">
</g>
<g id="object">
	<g>
		<g>
			<g class="st1">
				<g class="st1">
					<path class="st62" d="M26.7,76.3c-0.5-0.3-0.9-0.5-1.3-0.5c0.2-0.2,0.5-0.5,0.7-0.7c0.4-0.2,0.5,0,0.5,0.3
						C26.7,75.7,26.6,76.1,26.7,76.3z"/>
					<path class="st62" d="M28,77.6L28,77.6c-0.3-0.4-0.7-0.8-1-1.1c0,0,0.1,0,0.1,0C27.8,76.4,28.5,76.7,28,77.6z"/>
					<path class="st63" d="M40.5,87.9c-3.2-2.3-6.3-3.7-9.4-4.2c-0.2-0.1-0.7-0.2-0.7-0.3c-0.1,0-0.5-0.7-0.6-1.1
						c1.6-0.1,3.4-0.1,5.5-0.1c0.3-0.3,0.6-0.9,1.3-1c2.7-0.4,4.5,0.1,6.2,0.9c0,0.1-0.5,1.2-1,2.4C41.3,85.5,40.6,86.8,40.5,87.9z"
						/>
					<path class="st64" d="M38,91.8c-0.4,0.4-1.1,0.7-1.8,0.9c-0.7,0.1-1.3,0.2-1.6,0.2c-0.9-1.4-1.8-2.7-2.5-3.8
						c-0.7-0.3-1.3-0.7-1.7-0.8c-0.1-0.2-0.3-0.4-0.4-0.7c0.5-0.9,0.7-1.7,0.6-2.4c0.4,0.2,2,1.1,3.5,2.4C35.5,88.9,37,90.7,38,91.8
						z"/>
					<path class="st65" d="M39.5,88.5c0,0.5,0,1,0,1.5c-0.4,0.7-0.9,1.4-1.6,1.8c-2-2.2-3.9-4.1-5.4-5.3c0,0.1-1-0.4-1-0.3
						c-0.5-0.5-0.2-0.6-1.1-1c-0.1-0.6-0.3-1-0.5-1.6c0.7,0.1,0.4,0.3,0.3,0.4c0.9,0,0.9-0.1,0.7-0.2c3.2,0.5,6.2,1.9,9.4,4.2
						c0,0.1-0.1,0.3-0.2,0.4C39.9,88.2,39.4,88.2,39.5,88.5z"/>
					<path class="st66" d="M30.8,74.8c1.8-0.4,4.2-1.2,6.7-2.1c-0.1,0.4-0.3,1.1,0.4,1.2c0.3,0.7,0.3,2.3,1.3,2.2c0.5,0-0.6-0.1-2,0
						c-1.5,0.1-3.3,0.4-4.4,0.7c-1.3,0.6-2.4,0.9-3.5,1.1c0-0.1,0.8-0.5,0.9-0.6c-0.1,0.1-1.1,0.4-1.1,0.4s-0.3-0.6-0.5-0.9
						c1.1-0.9-0.1-0.6-0.3-0.5l-0.2-0.2l0,0c0.4-0.2,0.9-0.4,1.3-0.5C29.9,75.5,30.8,74.8,30.8,74.8z"/>
					<path class="st67" d="M36.6,81.1c2.7-0.4,4.5,0.1,6.2,0.9c0.1-0.4,0.4-1.3,0.4-1.4c-0.6,0.2-1.2,0.5-1.5,0.3
						c-0.4-0.5-0.9-1-1-1.4c0.1-0.5,0.8-1.2,1-1.8c-0.3-0.3-0.7-0.7-1.1-0.9c0,0-1,0.1-1.4,0.3c-0.1-0.2,0-0.5,0.1-0.8
						c-0.1,0-1.1-0.1-2.4-0.1c-1.3,0-2.8,0.3-4,0.8c-1.3,0.6-2.4,0.9-3.5,1.1c0,0,0.1,0.2,0.1,0.5c0.1,0.3,0.1,0.5,0.2,0.7
						c0.2-0.1,0.7-0.5,0.8-0.6c0,0.1-0.6,0.8-0.7,1c0,0.2,0.2,0.8,0.3,0.8c0,0.1,0.7-0.3,1.3-0.6c-0.8,0.6-1.3,1.1-1.6,1.5l0,0.2
						c-0.3,0.1-0.4,0.2-0.4,0.1c-0.1,0-0.2,0-0.2-0.1c0,0.1-0.1,0.7-0.2,0.8c0.2-0.2,0.5-0.4,0.8-0.6l0,0.5c0,0,0,0,0,0
						c1.6-0.1,3.4-0.1,5.5-0.1C35.6,81.8,35.9,81.2,36.6,81.1z"/>
					<path class="st68" d="M24.9,75.2c-0.6-0.4-0.9-0.5-1.3-0.6c-0.4-0.1-0.8-0.2-1.7-0.3c-1.6-0.2-3.4-0.3-5.2-0.5
						c-1.8-0.2-3.7-0.5-5.6-0.4c1-2.4,2.6-4.5,4.3-5.9c1.7-1.4,3.5-2.3,5.3-2.9c-0.1,0.9-0.6,1.3-0.9,1.9c-0.3,0.5-0.5,1.2,0.1,2.4
						c0.2,0.3,0.6,0.4,0.9,0.7c0.1,1.2-0.1,2.1,1.3,3.2C23,73.6,23.9,74.3,24.9,75.2L24.9,75.2C24.6,74.9,24.9,75.2,24.9,75.2z"/>
					<path class="st69" d="M25.6,76.3c0.1,0.1,0.2,0.1,0.3,0.2c-0.2-0.3-0.4-0.5-0.6-0.8c0,0-0.1-0.1-0.1-0.3
						C25.3,75.7,25.4,76,25.6,76.3z"/>
					<path class="st69" d="M20.9,69.6c-0.3-0.2-0.7-0.4-0.9-0.7c-0.6-1.2-0.4-1.9-0.1-2.4c0.3-0.6,0.8-1,0.9-1.9
						c1.4-0.4,2.9-0.6,4.4-0.6c-0.3,0.3-0.5,0.6-0.7,0.9c0.8,0,0.9,2.5,1.5,2.5c-0.9,1.2-1.6,2.1-1.9,3.2c-0.3,1.1-0.2,2.4,0.9,4.2
						c0.1,0.2,0.1,0.3,0.1,0.3c-1-1-2-1.7-2.8-2.4C20.7,71.7,21,70.9,20.9,69.6z"/>
					<path class="st70" d="M25.9,67.5c-0.5-0.1-0.7-2.6-1.5-2.5c0.2-0.3,0.4-0.6,0.7-0.9c0.9,0,1.7,0.1,2.6,0.4
						c0.8,0.2,1.5,0.5,2.2,0.8c0.1,0.1,0.1,0.2,0.2,0.2c0.9,0.8,1.8,1.1,2.3,2c-1.4,0.7-2.7,1.6-3.8,2.5c0.1-1.1,0-2.1-0.3-3.1
						c-0.3-1-0.9-1.8-1.8-2.5c0.6,0.5,0.1,2.2,0.3,2.6c0.3,1.1,0.1,2.6-0.3,4.1c-0.4,1.5-0.9,2.8-1.3,3.6c-0.3,0-0.2,0.2-0.2,0.4
						c0,0.1,0,0.3,0,0.5c-0.1-0.2-0.2-0.5-0.3-0.7c-0.1-0.2-0.2-0.4-0.2-0.4c0,0.2,0,0.4,0,0.5c-1-1.8-1.1-3.1-0.9-4.2
						C24.3,69.6,25,68.7,25.9,67.5z"/>
					<path class="st62" d="M28.8,69.9c1.1-0.9,2.4-1.8,3.8-2.5c0.2,0.2,0.3,0.4,0.4,0.7c0.2-0.2,0.4-0.5,0.6-0.8l0.4,0.4
						c0,0.3-0.6,1.2,0.5,0.5c0.2,0.2,0.4,0.3,0.5,0.5c-0.1,0.5-0.4,1-0.9,1.6l0.8-0.7c0.7-0.3,0.3,0.4,0.5,0.6
						c0.2-0.1,0.4-0.3,0.6-0.4c0,1.4,1.6,2.1,1.7,2.4c-0.1,0.2-0.1,0.4-0.2,0.7c-2.6,0.9-4.9,1.7-6.7,2.1c0,0-0.9,0.6-1.2,0.8
						c-0.4,0.1-0.9,0.3-1.3,0.5c0.5-0.8,0.2-1.1-0.2-1.2c-0.2,0-0.4,0-0.6,0.1c-0.2,0.1-0.3,0.1-0.3,0.1C27.1,75,27,75,26.9,75
						c-0.1-0.2,0-0.8-0.2-1.1c-0.1-0.3-0.5-0.3-1.1,0.8l-0.1,0c0.3-0.8,0.9-2.2,1.3-3.6c0.4-1.4,0.5-3,0.3-4.1
						c-0.1-0.2-0.2-0.8-0.4-1.5c-0.1-0.6-0.2-1.1,0.1-1.2c1.1,0.3,1.9,1.8,2.1,3.2C29,68.9,28.8,70,28.8,69.9z"/>
					<path class="st71" d="M30,93.3c-0.4,0-0.8,0-1.2,0c0.3-0.2,0.8-0.1,0.5-0.9c0.3,0.1,0.4,0,0.6-0.1C30,92.8,30.1,93.1,30,93.3z"
						/>
					<path class="st71" d="M27.5,88.8l0.2-0.1c0.4,0.6,0.7,1.3,0.4,1.1c0.4,0.6,0.1-0.1,0.3,0.2c0.6,0.8,0.5,0.9,0.3,0.8
						c-0.9-1.3-1.8-2.7-1.7-2.8l0.1-0.1C27.4,88.2,27.3,88.5,27.5,88.8z"/>
					<path class="st72" d="M30.3,88.2c0.4,0.1,1,0.5,1.7,0.8c0.8,1.1,1.6,2.4,2.5,3.8c-1.2,0.2-2.3,0.2-3.3,0.3c0-0.3,0-0.6-0.1-0.9
						c-0.1,0.1-0.3,0.2-0.6,0.1c-0.1-0.2-0.2-0.3-0.3-0.6l0,0c0.2,0,0.2-0.1-0.3-0.8c-0.2-0.3,0.1,0.4-0.4-0.2
						c0.4,0.2,0.1-0.5-0.4-1.1l-0.2,0.2c-0.2-0.3-0.2-0.6-0.3-0.9c0.5-0.4,1-0.9,1.3-1.4C30,87.7,30.2,87.9,30.3,88.2z"/>
				</g>
			</g>
		</g>
		<g>
			<g class="st1">
				<g class="st1">
					<path class="st62" d="M41.6,138.2c-2.3,0.3-4.6,0.7-6.9,1.1c0.5-0.4,1-0.7,1.4-1.1C37.7,137.1,39.7,138.2,41.6,138.2z"/>
					<path class="st62" d="M51.9,129.9C51.9,129.9,51.9,129.9,51.9,129.9c0,0.3,0,0.4-0.1,0.9c-0.1,0.5-0.1,1.2-0.5,2.1
						c-0.2,0.5-0.5,1-0.8,1.6c-0.4,0.6-0.9,1.1-1.4,1.5c-1,0.8-2,1.2-2.7,1.4c-0.7,0.2-1.3,0.3-1.7,0.3l-0.8,0.1l-1.3,0.2
						c0.1,0,0.2-0.1,0.4-0.1c0.4-0.2,0.8-0.4,1.2-0.5c0.4-0.2,1.2-0.2,2.7-0.8c0.7-0.3,1.7-0.8,2.5-1.6c0.9-0.8,1.4-1.9,1.7-2.7
						c0.3-0.8,0.4-1.3,0.5-1.7C51.7,130.3,51.8,130.2,51.9,129.9z"/>
					<path class="st63" d="M36.3,103.1c4.1-0.1,7.9,0.9,11.6,2c0.4,0.5,1,0.9,1.2,1.4c0.1-0.1,1.4,3.2,1.7,5
						c-1.7-0.7-3.7-1.1-5.9-1.2c-0.2,0.7-0.2,2.1-1,2.2c-2.8,0.3-4.7-0.5-6.5-1.2c0-0.2,0.2-1.6,0.1-3.3
						C37.5,106.2,37.1,104.3,36.3,103.1z"/>
					<path class="st64" d="M33.8,97.5c-0.4-0.7-0.6-1.6-0.9-2.5c-0.3-0.9-0.6-1.7-0.8-2.1c1.4-0.9,2.9-1.7,4.5-2
						c0-1,0.1-1.9-0.2-2.7c0.3-0.1,0.6-0.1,1-0.2c3.2,2.5,5.5,5.6,7.4,8.6c-0.5,0.1-2.6-0.1-4.8-0.1C37.6,96.6,35.2,97,33.8,97.5z"
						/>
					<path class="st65" d="M36.5,101.8c-0.5-0.5-0.9-0.9-1.4-1.3c-0.5-1-0.9-1.9-1.3-2.9c2.8-1.1,5.7-1.4,8.1-1
						c-0.1-0.2,0.7-0.9,0.6-1.1c1.2,0.7,1.3,1.5,2.3,1.2c1.8,2.8,3.3,5.7,4.4,8.8c-0.9-0.5-0.8-1.2-1-1.9c-0.7,0.6-0.6,1.1-0.2,1.5
						c-3.7-1.1-7.5-2.1-11.6-2l-0.2-0.5C36.5,102.3,36.8,102,36.5,101.8z"/>
					<path class="st66" d="M46.6,133c0.4-0.5,0.5-1.2,0.4-1.7c-0.1-0.5-0.3-0.8-0.5-1.1c-0.4-0.5-1-0.9-1.5-1.3
						c-1.1-0.7-2.3-1.4-3.6-1.9c0.3-0.5,0.9-1.4,0.2-2.1c0.1-1.3,0.6-4-0.4-4.4c-0.5-0.2,0.5,0.4,2,1.3c1.4,0.9,3.2,2,4.3,2.7
						c1.4,0.2,2.6,0.9,3.5,1.9c-0.1,0.3-1,0-1.1,0.3c0.1,0,1.1,0.6,1.1,0.6s0,0.5-0.1,1.2c0,0.3-0.1,0.7-0.1,1.1
						c0,0.4,0,0.6-0.1,1.2c-0.4,0.2-0.6,0.6-0.9,1.1c-0.3,0.5-0.6,1.3-1.1,2c-0.5,0.7-1.1,1.2-1.5,1.6c-0.4,0.3-0.6,0.5-0.6,0.6
						c-0.9,0.4-1.6,0.4-2.1,0.5l0,0c0.5-0.5,1.4-1.1,2.3-2.1c0.2-0.3,0.2-0.7,0-1C46.8,133.2,46.6,133,46.6,133z"/>
					<path class="st67" d="M44,112.5c-2.8,0.3-4.7-0.5-6.5-1.2c0,0.5-0.1,1.7-0.1,1.9c0.6-0.3,1.2-0.7,1.5-0.5
						c0.5,0.7,1.1,1.5,1.2,2.1c0,0.8-0.8,1.7-1,2.5c0.3,0.6,0.6,1.2,1,1.8c0,0,1,0.3,1.5,0.2c0,0.5-0.1,0.9-0.2,1.3
						c0.1,0,1.1,0.8,2.3,1.8c1.2,0.9,2.7,2,4,2.2c1.4,0.2,2.6,0.9,3.5,1.9c0,0,0.1-0.7,0.1-1.5c0.1-0.8,0.1-1.8,0.1-2.4
						c-0.3,0.1-0.8,0.5-0.9,0.7c0-0.2,0.8-1.4,1-2c0-0.8-0.1-2.8-0.2-3c0-0.2-0.7,0.3-1.4,0.4c0.9-1.1,1.4-2.2,1.6-3.3
						c0-0.3-0.1-0.6-0.1-0.9c0.3-0.1,0.4-0.2,0.5-0.1c0.1,0.2,0.2,0.3,0.3,0.5c0-0.5-0.2-2.9-0.3-3.5c-0.1,0.7-0.3,1.3-0.6,2
						c-0.1-0.6-0.2-1.2-0.3-1.9l0-0.1c-1.7-0.7-3.7-1.1-5.9-1.2C44.8,111,44.7,112.3,44,112.5z"/>
					<path class="st68" d="M10.2,140.8c-1.3-1.3-3.2-1.1-4.4-2.7c-1.9-3.1-1.6-6.9-2.5-10.6c5.1,1,10.1,1.3,15.2,1.3
						c-1.1,1.7-3.3,1-4.1,3.7c0,0.4,0.5,0.7,0.7,1c-1.2,1.2-3.3,1.7-3.1,3.5c0.1,1.1,0.6,2.3,0.9,3.7l-0.5,0
						C11.8,140.2,11.1,140.7,10.2,140.8z"/>
					<path class="st69" d="M19.6,141.3l-3.5,0.6c0-0.3-0.1-0.7-0.2-1c1.4-0.1,2.7-0.4,4.1-0.7C19.9,140.6,19.7,141,19.6,141.3z"/>
					<path class="st69" d="M15.1,133.5c-0.2-0.3-0.7-0.7-0.7-1c0.8-2.7,3-2,4.1-3.7c1.9,0,3.9-0.1,5.8-0.2c-0.3,0.3-0.6,0.6-0.9,1
						c1.1-0.1,1.5,2.4,2.6,2.3c-2.9,2.9-7,3.8-9,8.1c-1.3,0.3-2.7,0.6-4.1,0.7c-0.3-1.4-0.8-2.6-0.9-3.7
						C11.8,135.2,13.9,134.7,15.1,133.5z"/>
					<path class="st70" d="M25.9,131.8c-1.1,0.1-1.5-2.4-2.6-2.3c0.3-0.3,0.6-0.6,0.9-1c2.2-0.1,4.4-0.3,6.7-0.5
						c0.2,0,0.3,0.1,0.5,0.1c1.7,0.1,3.1-0.2,4.7,0c-0.9,1.5-1.9,3.1-2.8,4.5c-2.2-1.8-4.5-3.3-7-4.1c0.9,0.3,0.8,2.1,1.3,2.4
						c1.7,1.8,3.5,5.8,2.9,7.7c-3.3,0.6-6.6,1.2-9.9,1.8c-0.3-0.4-0.7-1.2-0.8-1.1c-0.9,0.3-1.8,0.5-2.7,0.7
						C18.9,135.6,23,134.7,25.9,131.8z"/>
					<path class="st62" d="M33.3,132.6c1-1.5,1.9-3,2.8-4.5c0.4,0,0.8,0.1,1.3,0.2c0-0.3-0.1-0.6-0.2-0.9l0.9-0.1
						c0.4,0.2,0.8,1.2,1.2-0.1l1.3-0.1c0.5,0.4,0.9,0.9,1.2,1.7l-0.1-1.1c0.4-0.8,0.9-0.1,1.3-0.1c0-0.2,0-0.5,0-0.7
						c0.1,0,0.3,0.1,0.4,0.1c0.1,0,0.3,0.1,0.3,0.1c0,0,0,0,0,0l0.2,1.1c0.1,0.7,0.3,1.2,0.4,1.5c0.2,0.7,0.4,0.8,0.4,0.8
						c-0.1,0-0.2-0.1-0.5-0.2c-0.3-0.1-0.6-0.2-1.4-0.3c-0.4-0.1-0.8-0.1-1.6-0.2c0,0,0,0,0,0c0-0.1,0-0.2,0-0.3
						c0-0.2-0.1-0.4-0.1-0.6c0-0.3-0.1-0.6-0.1-0.7c0.2-0.2,0.4-0.5,0.5-0.8c1.3,0.5,2.5,1.1,3.6,1.9c0.5,0.4,1.1,0.8,1.5,1.3
						c0.2,0.3,0.4,0.6,0.5,1.1c0.1,0.5-0.1,1.1-0.4,1.7c0,0,0.2,0.2,0.3,0.5c0.1,0.3,0.2,0.7,0,1c-1,1-1.8,1.5-2.3,2.1
						c-0.3-0.1-0.4-0.2-0.5-0.2c-0.2-0.1-0.3-0.1-0.5-0.2c-0.3-0.1-0.6-0.1-0.9-0.1c-0.6,0-1.2,0.1-1.7,0.3c-1,0.4-1.8,0.9-1.8,0.9
						l-1,0.1c-1.9,0-5-1.6-6.9,1.1l-0.8,0.1c0.6-1.8-1.1-5.8-2.9-7.7c-0.5-0.3-2-2.2-1.3-2.4C28.9,128.6,33.4,132.7,33.3,132.6z"/>
					<path class="st71" d="M26.2,88.4c-0.7-0.2-1.5-0.2-2.3-0.1c0.8-0.3,1.7-0.1,2-1c0.4,0.2,0.8,0.2,1.3,0.3
						C26.9,87.9,26.6,88.1,26.2,88.4z"/>
					<path class="st71" d="M28.1,83.3c0.3,0,0.6,0.1,1,0.1c-0.1,0.7-0.8,1.3-1.4,0.9c-0.1,0.7,0.6,0.1,0.6,0.4
						c-0.1,0.9-0.4,1-0.8,0.8c0.1-1.6,0.7-3.2,1.3-3.1c0.2,0,0.5,0.1,0.7,0.1C29,82.8,28.4,82.9,28.1,83.3z"/>
					<path class="st72" d="M36.4,88.3c0.4,0.8,0.2,1.7,0.2,2.7c-1.6,0.3-3.1,1-4.5,2c-0.8-1.5-2-2.9-3.6-3.9
						c0.4-0.1,0.7-0.3,1.1-0.5c-0.4-0.1-0.8-0.2-1.1-0.6c0.1-0.1,0.2-0.3,0.3-0.6l0,0c0.3,0.2,0.5,0.2,0.8-0.7
						c0.1-0.4-0.6,0.2-0.4-0.5c0.4,0.5,1.1-0.1,1.3-0.8c-0.3-0.1-0.5-0.2-0.8-0.2c0.3-0.4,0.8-0.4,1.2-0.6c2.4,0.8,4.5,2.1,6.3,3.5
						C37,88.2,36.7,88.2,36.4,88.3z"/>
				</g>
			</g>
		</g>
		<g>
			<g class="st1">
				<g class="st1">
					<path class="st33" d="M152.4,129.5c-1.8,0-3.9,0.2-6,0.4c0.5-0.3,0.9-0.7,1.4-1C149.3,128,150.9,129.3,152.4,129.5z"/>
					<path class="st33" d="M156.7,129.9L156.7,129.9c-1-0.3-2.3-0.4-3.6-0.4c0.1,0,0.2,0,0.3-0.1C154.7,128.9,156,128.7,156.7,129.9
						z"/>
					<path class="st34" d="M152.4,106.1c4.1-0.4,7.8,0.1,11.5,0.8c0.4,0.4,1.1,0.7,1.2,1.2c0.1-0.1,1.6,2.9,1.9,4.6
						c-1.8-0.6-3.7-0.8-5.9-0.7c-0.1,0.7-0.2,1.9-0.9,2.1c-2.7,0.4-4.6-0.1-6.5-0.5c0-0.2,0.1-1.4,0-3
						C153.6,108.9,153.2,107.1,152.4,106.1z"/>
					<path class="st27" d="M149.9,100.6c-0.6-1.4-0.9-3.7-1.2-4.6c1.5-0.7,3.1-1.3,4.6-1.5c0.2-0.9,0.4-1.7,0.2-2.5
						c0.3,0,0.6-0.1,0.9-0.1c1.2,1.2,2.3,2.5,3.4,3.8c1,1.3,2,2.6,2.8,3.8c-0.5,0.1-2.5,0.1-4.7,0.2
						C153.7,99.8,151.3,100.1,149.9,100.6z"/>
					<path class="st35" d="M152.5,104.7c-0.5-0.5-0.9-0.9-1.4-1.2c-0.5-1-0.9-1.9-1.2-2.8c2.8-1,5.6-1.3,8-1.1
						c-0.1-0.2,0.7-0.8,0.6-1c1.1,0.5,1.2,1.2,2.2,0.9c1.6,2.3,3.2,4.8,4.5,7.6c-0.9-0.3-0.8-1.1-1.1-1.6c-0.7,0.6-0.5,1-0.2,1.4
						c-3.7-0.7-7.4-1.1-11.5-0.8l-0.2-0.5C152.5,105.2,152.8,104.9,152.5,104.7z"/>
					<path class="st36" d="M156.2,125.8c1.8-1.4,3.7-3.3,5.8-5.3c0.4,0.4,1.1,1.3,2,1.5l-6.4,2.9c0-0.1-0.1-0.2-0.2-0.3
						c0.3-0.9,0.9-3.2,0-3.5c-0.5-0.2,0.5,0.3,1.9,1.2c1.3,0.8,3,2.1,4,2.9c0.8,0.2,1.4,0.6,2,1.1l-5.4,2.4
						c-0.4,0.3-0.8,0.6-1.2,0.9c-0.1-0.1,0.4-0.9,0.3-1.1c-0.1,0.1-0.7,0.9-0.7,0.9s-0.3-0.1-0.6-0.3c-0.4-0.1-0.8-0.3-1.1-0.4
						c0-1.5-1.1-0.6-1.2-0.3l-0.6-0.1l0,0c0.3-0.4,0.7-0.8,1.1-1.2C156,126.9,156.2,125.8,156.2,125.8z"/>
					<path class="st37" d="M160.3,114c-2.7,0.4-4.6-0.1-6.5-0.5c0,0.4,0,1.5,0,1.6c0.6-0.3,1.1-0.7,1.5-0.5c0.5,0.5,1.1,1.2,1.2,1.7
						c0,0.7-0.7,1.5-1.1,2.2c0.3,0.5,0.6,0.9,0.9,1.4c0,0,1,0.2,1.5,0.2c0,0.4-0.1,0.7-0.3,1.1c0.1,0,1,0.7,2.2,1.6
						c1.2,0.9,2.5,2.1,3.7,2.5c0.8,0.2,1.4,0.6,2,1.1l-5.4,2.4c-0.4,0.3-0.8,0.6-1.2,0.9c0,0,0.1,0.1,0.5,0.3l5.6,3.4l1.9-6.8
						c0.1-0.3,0.5-2,0.6-2.9c-0.3,0-0.9,0.5-1,0.6c0-0.2,1-1.4,1.1-1.9c0-0.4,0.1-1.1,0.1-1.8c0-0.6-0.1-1.2-0.1-1.3
						c0-0.2-0.7,0.3-1.4,0.3c0.9-1,1.4-2.1,1.6-3.2l-0.1-0.9c0.3-0.1,0.4-0.2,0.5-0.1c0.1,0.2,0.2,0.3,0.3,0.5c0-0.3-0.1-1-0.1-1.7
						c-0.1-0.7-0.2-1.4-0.2-1.7c-0.1,0.6-0.2,1.3-0.5,2c-0.1-0.6-0.2-1.2-0.3-1.8l0-0.1c-1.8-0.6-3.7-0.8-5.9-0.7
						C161,112.6,161,113.8,160.3,114z"/>
					<path class="st38" d="M124,129.3c-1.1-1.4-2.8-1.3-3.8-3.1c-1.5-3.2-0.9-7-1.5-10.8c4.5,1.4,9.1,2.2,13.7,2.6
						c-1.1,1.6-3.1,0.7-4,3.3c0,0.4,0.4,0.7,0.6,1.1c-1.2,1.1-3.1,1.4-3.1,3.2c0,1.1,0.4,2.3,0.5,3.7l-0.4,0
						C125.5,128.9,124.8,129.3,124,129.3z"/>
					<path class="st39" d="M132.5,130.7l-3.2,0.3c0-0.3,0-0.7-0.1-1c1.2,0,2.5-0.2,3.7-0.4C132.8,129.9,132.7,130.3,132.5,130.7z"/>
					<path class="st39" d="M129,122.5c-0.2-0.4-0.6-0.7-0.6-1.1c0.9-2.6,2.9-1.7,4-3.3c1.8,0.1,3.5,0.2,5.3,0.3
						c-0.3,0.3-0.6,0.6-0.9,0.9c1,0,1.2,2.5,2.1,2.5c-2.8,2.6-6.6,3.2-8.8,7.4c-1.2,0.2-2.5,0.3-3.7,0.4c-0.2-1.4-0.5-2.6-0.5-3.7
						C125.9,123.9,127.8,123.5,129,122.5z"/>
					<path class="st30" d="M138.9,121.7c-1,0-1.2-2.5-2.1-2.5c0.3-0.3,0.6-0.6,0.9-0.9c2,0.1,4.1,0.1,6.1,0c0.1,0,0.3,0.1,0.4,0.1
						c1.6,0.3,2.9,0.1,4.3,0.4c-1,1.4-1.9,2.9-2.9,4.3c-1.9-2-3.9-3.6-6.1-4.6c0.8,0.4,0.6,2.2,1,2.5c1.4,2,2.7,6.1,2,7.9
						c-3,0.3-6.1,0.6-9.1,0.9c-0.2-0.5-0.5-1.2-0.7-1.2c-0.8,0.2-1.7,0.4-2.5,0.5C132.3,124.9,136.1,124.3,138.9,121.7z"/>
					<path class="st33" d="M145.6,123.1c1-1.4,1.9-2.8,2.9-4.3c0.4,0.1,0.8,0.2,1.2,0.3c0-0.3,0-0.6-0.1-0.9l0.9,0
						c0.4,0.2,0.6,1.3,1.2,0l1.3,0c0.4,0.4,0.8,1,0.9,1.8l0.1-1.1c0.5-0.7,0.9,0.1,1.3,0.1c0-0.2,0.1-0.5,0.1-0.7
						c1,0.6,2.3,0.7,3.5,0.9c1.2,0.2,2.2,0.3,2.5,0.4c0.3,0.3,0.5,0.6,0.8,0.9c-2.2,2-4,3.9-5.8,5.3c0,0-0.2,1.1-0.4,1.4
						c-0.4,0.4-0.7,0.8-1.1,1.2c-0.7-1-1.8-1-2.7-0.8c-0.9,0.2-1.5,0.7-1.6,0.7l-0.9,0c-1.7-0.1-4.4-2-6.3,0.5l-0.7,0.1
						c0.7-1.8-0.6-5.9-2-7.9c-0.4-0.4-1.7-2.4-1-2.5C141.9,118.8,145.7,123.2,145.6,123.1z"/>
					<path class="st40" d="M144.3,90.5c-0.3-0.2-0.6-0.3-0.9-0.5c-0.3-0.1-0.7-0.2-1-0.4c0.4,0,0.8,0.1,1.1,0.1c0.3,0,0.6,0,0.9-0.4
						c0.3,0.3,0.6,0.5,1,0.6C145,90.3,144.7,90.4,144.3,90.5z"/>
					<path class="st40" d="M147.3,86.1l0.8,0.3c-0.3,0.7-1.1,1.1-1.4,0.6c-0.2,0.7,0.5,0.2,0.4,0.5c-0.4,0.9-0.6,0.8-0.9,0.6
						c0.5-1.5,1.4-2.9,1.9-2.7l0.6,0.2C148.2,85.8,147.6,85.8,147.3,86.1z"/>
					<path class="st41" d="M153.5,92c0.2,0.7-0.1,1.5-0.2,2.5c-1.5,0.2-3.1,0.8-4.6,1.5c-0.5-1.6-1.3-3-2.5-4.3
						c0.3,0,0.7-0.1,1.2-0.3c-0.3-0.2-0.6-0.4-0.8-0.7c0.1-0.1,0.3-0.3,0.4-0.5l0,0c0.2,0.2,0.4,0.3,0.9-0.5
						c0.2-0.3-0.6,0.1-0.2-0.5c0.2,0.5,1,0.1,1.4-0.5l-0.7-0.4c0.3-0.3,0.8-0.2,1.2-0.4c1.9,1.2,3.5,2.5,5,4
						C154.1,91.9,153.8,92,153.5,92z"/>
				</g>
			</g>
		</g>
		<g>
			<g class="st1">
				<g class="st1">
					<path class="st33" d="M147.1,74c-0.3-0.3-0.8-0.5-1.2-0.7c0.3-0.2,0.6-0.3,0.9-0.5c0.5-0.2,0.5,0.1,0.5,0.4
						C147.3,73.5,147.1,73.8,147.1,74z"/>
					<path class="st33" d="M147.9,75C147.9,75,147.9,75,147.9,75c-0.1-0.3-0.4-0.6-0.6-0.8c0,0,0.1,0,0.1,0
						C148.1,74.1,148.6,74.3,147.9,75z"/>
					<path class="st34" d="M156.3,86.5c-2.6-2.9-5-5.2-7.7-6.9c-0.1-0.2-0.5-0.5-0.5-0.6c-0.1-0.1-0.2-0.8-0.1-1.1
						c1.5,0.5,3.2,1.2,5.1,2c0.4-0.1,0.9-0.5,1.6-0.4c2.6,0.7,4.2,1.8,5.4,3.1c-0.1,0.1-0.9,0.8-1.7,1.5c-0.4,0.4-0.8,0.8-1.2,1.1
						C156.7,85.7,156.4,86.1,156.3,86.5z"/>
					<path class="st27" d="M153.5,89c-0.9,0.6-2.7,0.4-3.3,0.4c-0.7-1.5-1.4-2.9-2-4.1c-0.6-0.4-1.2-0.9-1.5-1.1
						c-0.1-0.2-0.2-0.5-0.3-0.7c0.5-0.7,0.8-1.5,1-2.3c0.4,0.3,1.6,1.5,2.9,3.1C151.5,85.9,152.7,87.8,153.5,89z"/>
					<path class="st35" d="M155.3,86.6c0,0.4-0.1,0.8-0.2,1.2c-0.4,0.5-1,0.9-1.6,1.2c-1.7-2.4-3.3-4.5-4.5-6.1
						c0,0.1-0.9-0.6-0.9-0.5c-0.3-0.6-0.1-0.7-0.8-1.3c0.1-0.8,0.2-1.5,0.3-2.1c0.6,0.4,0.2,0.4,0.1,0.5c0.8,0.3,0.9,0.2,0.8,0
						c2.7,1.7,5.1,4,7.7,6.9l-0.2,0.3C155.6,86.5,155.2,86.4,155.3,86.6z"/>
					<path class="st36" d="M151.2,73c1.8-0.2,4.3-0.5,7-0.7c-0.2,0.4-0.6,1,0.2,1.3c0,0.4,0,1,0,1.5c0,0.5,0.1,1,0.6,1.1
						c0.5,0.1-0.5-0.3-1.9-0.7c-1.4-0.4-3.2-0.6-4.4-0.6c-1.4,0.2-2.5,0.2-3.6,0.3c0.1-0.1,0.9-0.3,1-0.4c-0.1,0-1.1,0.2-1.1,0.2
						s0-0.1,0-0.2c0-0.1-0.1-0.3-0.1-0.4c1.3-0.7,0.1-0.5-0.2-0.4l-0.1-0.2l0,0c0.4-0.1,0.9-0.3,1.3-0.3
						C150.3,73.4,151.2,73,151.2,73z"/>
					<path class="st37" d="M154.6,79.6c2.6,0.7,4.2,1.8,5.4,3.1c0.3-0.2,0.8-0.9,0.9-1c-0.6-0.1-1.3-0.1-1.5-0.3
						c-0.2-0.6-0.4-1.2-0.4-1.6c0.3-0.4,1.2-0.8,1.7-1.3c-0.2-0.5-0.4-0.9-0.7-1.3c0,0-1-0.3-1.4-0.3c0-0.3,0.1-0.5,0.3-0.8
						c-0.1,0-1-0.5-2.3-0.9c-1.3-0.4-2.8-0.5-4-0.4c-1.4,0.2-2.5,0.2-3.6,0.3c0,0,0,0.1,0,0.3c0,0.2-0.1,0.3-0.1,0.5
						c0.3,0,0.8-0.2,0.9-0.3c0,0-0.8,0.4-1,0.5c-0.1,0.2-0.1,0.5,0,0.6c0,0,0.7,0,1.4,0c-1,0.2-1.6,0.4-2,0.5l-0.1,0.1
						c-0.3,0-0.5,0-0.5-0.1c-0.1,0-0.1-0.1-0.2-0.1c-0.1,0.1-0.4,0.4-0.4,0.5c0.2,0,0.5-0.1,1-0.1c-0.1,0.1-0.1,0.2-0.1,0.3
						c0,0,0,0,0,0c1.5,0.5,3.2,1.2,5.1,2C153.4,79.8,153.9,79.4,154.6,79.6z"/>
					<path class="st38" d="M141.9,70.9c-0.2-1.4-0.6-1.4-1.1-3c-0.4-1.6-0.8-3.3-1.2-5.1c-0.4-1.8-0.7-3.7-1.2-5.5
						c3.6,0.9,6.3,2,8.8,3.2c-0.6,0.7-1,0.7-1.5,0.9c-0.5,0.2-1,0.5-1.4,1.8c-0.1,0.4,0,0.7,0.1,1.1c-0.4,0.5-0.8,0.8-1.1,1.2
						c-0.3,0.4-0.6,0.9-0.6,1.8c-0.1,1.1-0.1,2.3-0.3,3.7c0,0-0.1,0-0.1,0C142.2,70.5,142,70.9,141.9,70.9z"/>
					<path class="st39" d="M143.2,72.5c-0.2,0.1-0.4,0.1-0.6,0.1c0.1-0.3,0.1-0.7,0.2-1c0.2,0,0.5,0,0.8-0.1
						C143.5,71.8,143.4,72.1,143.2,72.5z"/>
					<path class="st39" d="M144.3,64.3c0-0.4-0.1-0.8-0.1-1.1c0.5-1.2,1-1.6,1.4-1.8c0.5-0.2,1-0.2,1.5-0.9c0.5,0.2,0.9,0.5,1.4,0.7
						L150,62c-0.3,0.2-0.6,0.4-0.9,0.5c0.5,0.2-0.6,2.5-0.2,2.7c-0.6,0.4-1.2,0.7-1.7,1c-0.5,0.3-1,0.5-1.5,0.9
						c-0.9,0.7-1.8,1.7-2.5,3.6c-0.3,0.1-0.6,0.2-0.8,0.2c0.1-1.4,0.2-2.6,0.3-3.7c0.1-0.9,0.3-1.4,0.6-1.8
						C143.6,65.1,143.9,64.8,144.3,64.3z"/>
					<path class="st30" d="M148.8,65.3c-0.4-0.2,0.7-2.5,0.2-2.7c0.3-0.2,0.6-0.4,0.9-0.5l1.5,1c0.5,0.4,1,0.7,1.4,1.1
						c0,0.1,0.1,0.2,0.1,0.2c0.5,0.8,1.1,1.2,1.5,2c-1.5,0.6-2.8,1.2-4.1,1.9c0.8-2,0.9-4,0.4-5.5c0.2,0.5-0.9,2-0.9,2.4
						c-0.3,1-0.9,2.5-1.7,3.7c-0.8,1.3-1.7,2.5-2.3,3.1c-0.8-0.2-1.6-0.3-2.3-0.2c0.1-0.4,0.3-1.2,0.3-1.2c-0.3,0.1-0.5,0.2-0.7,0.3
						c0.7-2,1.6-3,2.5-3.6c0.5-0.4,0.9-0.6,1.5-0.9C147.7,66,148.2,65.7,148.8,65.3z"/>
					<path class="st33" d="M150.4,68.2c1.3-0.7,2.6-1.4,4.1-1.9c0.1,0.2,0.1,0.4,0.2,0.7c0.2-0.2,0.5-0.4,0.7-0.7l0.3,0.4
						c0,0.3-0.8,1.1,0.4,0.5l0.4,0.6c-0.2,0.4-0.6,0.9-1.2,1.4l0.9-0.6c0.7-0.2,0.2,0.4,0.3,0.6c0.2-0.1,0.4-0.2,0.6-0.3
						c-0.1,0.7,0.2,1.2,0.5,1.7c0.3,0.5,0.7,0.8,0.8,1c-0.1,0.2-0.2,0.4-0.3,0.6c-2.7,0.2-5.2,0.6-7,0.7c0,0-1,0.5-1.3,0.6
						c-0.4,0.1-0.9,0.2-1.3,0.3c0.7-0.7,0.4-0.9,0.1-1c-0.2,0-0.4,0-0.6,0c-0.2,0-0.3,0.1-0.3,0.1l-0.2-0.2c-0.1-0.2,0.1-0.7,0-1.1
						c-0.1-0.3-0.5-0.5-1.5,0.3l-0.2-0.1c0.6-0.7,1.5-1.8,2.3-3.1c0.8-1.3,1.4-2.7,1.7-3.7c0.1-0.4,0.5-2.5,0.9-2.4
						c0.5,0.5,0.5,2,0.3,3.3C150.9,67.3,150.4,68.3,150.4,68.2z"/>
					<path class="st40" d="M145.9,88.9c-0.3-0.1-0.7-0.2-1-0.4c0.3-0.1,0.7,0.2,0.6-0.7c0.2,0.2,0.4,0.2,0.5,0.1
						C146,88.4,146,88.7,145.9,88.9z"/>
					<path class="st40" d="M144.5,83.9l0.1-0.1c0.3,0.7,0.5,1.4,0.2,1.1c0.3,0.7,0.1,0,0.2,0.3c0.4,0.9,0.3,1,0.2,0.9
						c-0.3-0.8-0.6-1.5-0.8-2.1c-0.2-0.6-0.3-1-0.3-1l0.1,0C144.4,83.3,144.4,83.5,144.5,83.9z"/>
					<path class="st41" d="M146.7,84.2c0.4,0.2,0.9,0.7,1.5,1.1c0.6,1.2,1.3,2.6,2,4.1c-0.6,0-1.1-0.1-1.7-0.1
						c-0.5-0.1-1-0.1-1.5-0.2c0.1-0.2,0.1-0.5,0-0.9c-0.1,0.1-0.3,0.1-0.5-0.1c0-0.2-0.1-0.4-0.2-0.6l0,0c0.1,0.1,0.2,0-0.2-0.9
						c-0.1-0.3,0,0.4-0.3-0.3c0.3,0.3,0.1-0.4-0.2-1.1l-0.2,0.1c-0.1-0.4-0.1-0.6-0.2-0.9c0.4-0.2,0.8-0.5,1.1-0.9
						C146.5,83.7,146.6,83.9,146.7,84.2z"/>
				</g>
			</g>
		</g>
		<g>
			<g class="st1">
				<g class="st1">
					<path class="st73" d="M82.9,75.5c-1.1,0-2.3,0.1-3.4,0.1c0.3-0.3,0.6-0.6,0.8-0.9C81.2,73.9,82,75.3,82.9,75.5z"/>
					<path class="st73" d="M86,75.6L86,75.6c-0.9,0-1.7-0.1-2.6-0.1c0.1,0,0.1,0,0.2-0.1C84.4,74.9,85.3,74.6,86,75.6z"/>
					<path class="st74" d="M100.8,65.7c-1.1,3.7-2.3,6.8-3.6,9.9c-0.3,0.2-0.6,0.7-0.8,0.6c0,0.1-1.6,0.3-2.4,0.2
						c0.6-1.5,1.1-3.3,1.6-5.3c-0.3-0.4-0.9-0.8-0.8-1.5c0.4-2.7,1.1-4.3,1.9-5.9C96.9,63.9,99.4,66.1,100.8,65.7z"/>
					<path class="st13" d="M104,66.4c0.9,0.2,2,1.5,2.5,1.9c-0.3,1.6-0.6,3.2-1.1,4.5c0.3,0.7,0.5,1.4,0.8,1.8
						c-0.1,0.3-0.2,0.5-0.3,0.8c-1.6,0.2-3.2,0.5-4.8,0.8C101.4,75.2,103.6,69.2,104,66.4z"/>
					<path class="st75" d="M101.4,66.5c0.4-0.2,0.7-0.4,1-0.6c0.6,0.1,1.1,0.2,1.7,0.5c-0.5,2.9-1.2,5.4-2,7.4c0.1,0,0.2,1,0.3,1
						c-0.5,0.6-0.9,0.4-1,1.4c-1.5,0.3-3,0.5-4.5,0.5c0.4-0.7,0.7-0.3,1-0.3c-0.1-0.9-0.3-0.9-0.6-0.7c1.3-3.1,2.5-6.2,3.6-9.9
						l0.3,0C101.1,66.2,101.2,66.7,101.4,66.5z"/>
					<path class="st76" d="M85.4,71.6c1.1-1.6,1.9-4,2.6-6.6c0.2,0.3,0.7,0.9,1.1,0.3c0.7,0.1,2,0.9,2.3,0c0.3-0.9-1.8,3.8-2.7,5.9
						c-0.2,1.4-0.7,2.5-1.2,3.5c-0.1-0.1,0.1-1,0-1.1c0,0.1-0.3,1.1-0.3,1.1s-1-0.2-1.4-0.2c-0.1-1.4-0.8-0.4-0.8-0.1l-0.4,0l0,0
						c0.2-0.4,0.5-0.9,0.7-1.3C85.3,72.7,85.4,71.6,85.4,71.6z"/>
					<path class="st77" d="M94.8,69.6c0.4-2.7,1.1-4.3,1.9-5.9c-0.2-0.2-0.8-0.6-0.9-0.6c0,0.6,0.1,1.3-0.1,1.5
						c-0.4,0.3-1,0.6-1.3,0.6c-0.4-0.2-0.7-1.1-1.1-1.6c-0.4,0.2-0.7,0.4-1.1,0.7c0,0-0.1,0.3-0.2,0.5c-0.1,0.3-0.2,0.6-0.2,0.9
						c-0.2,0-0.4-0.2-0.6-0.4c0,0.2-2.2,3.4-2.7,5.9c-0.2,1.4-0.7,2.5-1.2,3.5c0,0,0.3,0.1,0.7,0.2c0.4,0.1,0.8,0.2,1.1,0.3
						c0-0.3-0.1-0.9-0.2-1c0.1,0,0.5,0.9,0.7,1.1c0.4,0.1,1.2,0.2,1.3,0.2c0.1,0,0-0.7,0-1.4c0.3,1,0.7,1.7,1.2,2.1l0.4,0.1
						c0,0.3,0,0.5,0,0.5c-0.1,0.1-0.2,0.1-0.3,0.2c0.2,0.1,1.2,0.4,1.5,0.5c-0.3-0.2-0.5-0.6-0.7-1c0.3,0.1,0.5,0.1,0.8,0.2l0,0
						c0.6-1.5,1.1-3.3,1.6-5.3C95.4,70.7,94.8,70.3,94.8,69.6z"/>
					<path class="st78" d="M67.8,73.9c-0.4-1.4-1.3-1.5-1.7-3.3c-0.4-3.3,0.2-7,0.3-10.8c2.2,1.7,4.5,2.7,6.9,3.3
						c-0.8,1.5-1.7,0.6-2.4,3.1c0,0.4,0.1,0.7,0.2,1.1c-0.7,1-1.8,1.3-2,3.1c-0.1,1.1,0,2.3-0.1,3.7l-0.2,0
						C68.7,73.5,68.3,73.9,67.8,73.9z"/>
					<path class="st79" d="M72.2,75.7l-1.7,0.1c0-0.3,0-0.7,0.1-1c0.7,0,1.3,0,2-0.2C72.4,75,72.3,75.3,72.2,75.7z"/>
					<path class="st79" d="M71.1,67.3c-0.1-0.4-0.2-0.7-0.2-1.1c0.7-2.5,1.7-1.6,2.4-3.1c0.9,0.2,1.8,0.4,2.7,0.6
						c-0.2,0.3-0.4,0.5-0.6,0.8c0.5,0.1,0.4,2.6,0.9,2.6c-1.8,2.5-3.8,2.8-5.3,6.8c-0.7,0.1-1.3,0.2-2,0.2c0.1-1.4,0-2.6,0.1-3.7
						C69.4,68.6,70.4,68.3,71.1,67.3z"/>
					<path class="st16" d="M76.4,67.1c-0.5-0.1-0.4-2.6-0.9-2.6c0.2-0.3,0.4-0.6,0.6-0.8c1.1,0.2,2.1,0.3,3.2,0.4
						c0.1,0.1,0.1,0.1,0.2,0.1c0.8,0.4,1.5,0.3,2.2,0.6c-0.6,1.4-1.3,2.8-2,4.1C79,66.8,78.1,65,77,63.9c0.4,0.4,0.1,2.2,0.3,2.6
						c0.6,2.1,0.8,6.2,0.3,7.9c-1.6,0.1-3.2,0.3-4.9,0.4c-0.1-0.5-0.1-1.2-0.2-1.2c-0.5,0.2-0.9,0.3-1.4,0.4
						C72.6,69.9,74.7,69.6,76.4,67.1z"/>
					<path class="st73" d="M79.8,68.9c0.7-1.3,1.3-2.7,2-4.1c0.2,0.1,0.4,0.2,0.6,0.4c0-0.3,0.1-0.6,0-1l0.4,0
						c0.2,0.2,0.2,1.3,0.6,0l0.6,0c0.2,0.4,0.3,1,0.3,1.8l0.1-1.1c0.3-0.7,0.4,0,0.6,0.1c0-0.2,0-0.5,0.1-0.7c0.9,1,2.3,0.2,2.6,0.2
						c0.1,0.2,0.2,0.4,0.4,0.5c-0.7,2.6-1.6,4.9-2.6,6.6c0,0-0.1,1.1-0.2,1.4c-0.2,0.4-0.5,0.8-0.7,1.3c-0.9-1.9-2.5-0.1-2.6-0.1
						l-0.5,0C80.5,74,79.3,72,78,74.4l-0.4,0c0.6-1.7,0.3-5.9-0.3-7.9c-0.2-0.4-0.6-2.5-0.3-2.6C78.3,64.4,79.8,69,79.8,68.9z"/>
					<path class="st80" d="M110.5,70.7c0.4,0.2,0.7,0.4,1.1,0.6c-0.4,0-0.8-0.3-1,0.5c-0.2-0.3-0.4-0.3-0.6-0.3
						C110.2,71.1,110.3,70.9,110.5,70.7z"/>
					<path class="st80" d="M109.9,75.8l-0.3,0c0-0.7,0.2-1.4,0.4-1.1c0-0.7-0.2,0-0.2-0.4c0-1,0.1-1,0.2-0.9c0,1.6-0.1,3.2-0.3,3.2
						l-0.2,0C109.7,76.4,109.9,76.2,109.9,75.8z"/>
					<path class="st81" d="M106.3,74.6c-0.3-0.4-0.5-1.1-0.8-1.8c0.4-1.3,0.7-2.9,1.1-4.5c0.9,0.7,1.8,1.3,2.7,1.9
						c-0.2,0.2-0.3,0.5-0.5,0.8c0.2,0,0.4,0,0.6,0.3c0,0.2-0.1,0.4-0.1,0.6l0,0c-0.1-0.1-0.3-0.1-0.2,0.9c0,0.4,0.2-0.4,0.2,0.4
						c-0.2-0.4-0.4,0.4-0.4,1.1l0.3,0c-0.1,0.4-0.2,0.6-0.4,0.9c-0.9,0-1.8,0.1-2.8,0.2C106.2,75.1,106.2,74.8,106.3,74.6z"/>
				</g>
			</g>
		</g>
		<g>
			<g class="st1">
				<g class="st1">
					<path class="st73" d="M102.8,44.6c-0.5-0.7-1.1-1.4-1.7-1.9c0.4,0,0.8-0.1,1.1-0.1c0.5,0,0.7,0.4,0.6,0.8
						C102.9,43.8,102.7,44.2,102.8,44.6z"/>
					<path class="st73" d="M103.9,46.6C103.9,46.6,103.9,46.6,103.9,46.6c-0.2-0.6-0.5-1.2-0.9-1.8c0,0,0.1,0.1,0.1,0.1
						c0.4,0.1,0.8,0.3,0.9,0.6C104.2,45.9,104.3,46.2,103.9,46.6z"/>
					<path class="st74" d="M114.6,60.4c-1.6-1.1-3.2-2-4.7-2.9c-1.5-0.9-2.9-1.7-4.5-2.3c-0.2-0.2-0.6-0.5-0.6-0.7
						c-0.1,0-0.3-1.2-0.3-1.8c1.5,0.4,3.3,0.9,5.4,1.4c0.4-0.3,0.8-0.9,1.5-0.9c2.7,0.3,4.4,1.2,5.9,2.2c-0.1,0.1-0.7,1-1.4,2
						C115.3,58.4,114.6,59.5,114.6,60.4z"/>
					<path class="st13" d="M112.6,64.2c-0.3,0.5-1,0.9-1.6,1.2c-0.6,0.3-1.2,0.5-1.6,0.7c-1.2-1.1-2.4-2.2-3.4-3.2
						c-0.8-0.1-1.5-0.3-1.9-0.3c-0.2-0.2-0.4-0.4-0.6-0.6c0.5-1.2,0.7-2.6,0.7-3.8c0.4,0.2,2,1.1,3.6,2.4
						C109.6,61.8,111.4,63.3,112.6,64.2z"/>
					<path class="st75" d="M113.6,61c0,0.5,0.1,0.9,0.2,1.3c-0.3,0.7-0.7,1.3-1.2,1.9c-2.4-1.7-4.5-3.3-6.1-4.6c0,0.1-1-0.2-1-0.1
						c-0.5-0.6-0.2-0.8-1.1-1.2c0.1-1.2,0.1-2.3,0.1-3.5c0.7,0.3,0.3,0.5,0.2,0.8c0.9,0.1,0.9-0.1,0.8-0.3c1.5,0.7,3,1.5,4.5,2.3
						c1.5,0.9,3,1.9,4.7,2.9l-0.1,0.4C114,60.7,113.5,60.7,113.6,61z"/>
					<path class="st76" d="M107.3,44.6c1.9,0.2,4.4,0.1,7.1-0.1c-0.2,0.4-0.6,1.1,0.2,1.4c0.1,0.8-0.2,2.6,0.7,2.8
						c0.5,0.1-0.6-0.3-2-0.6c-1.5-0.3-3.3-0.6-4.4-0.7c-1.4,0.2-2.6,0.2-3.6,0.1c0.1-0.1,0.9-0.3,1-0.4c-0.1,0-1.1,0.1-1.1,0.1
						s0-0.2-0.1-0.4c-0.1-0.2-0.1-0.5-0.2-0.7c1.3-0.7,0-0.7-0.2-0.6l-0.1-0.3l0,0c0.5,0,0.9-0.1,1.4-0.1
						C106.3,45,107.3,44.6,107.3,44.6z"/>
					<path class="st77" d="M111.5,53.2c2.7,0.3,4.4,1.2,5.9,2.2c0.2-0.3,0.6-1.2,0.7-1.2c-0.6,0.1-1.3,0.2-1.5,0
						c-0.3-0.6-0.6-1.2-0.6-1.6c0.2-0.5,1-1,1.5-1.6c-0.3-0.4-0.5-0.9-0.8-1.3c0,0-1-0.2-1.4-0.1c0-0.3,0.1-0.6,0.3-0.8
						c-0.1,0-1.1-0.5-2.3-0.9c-1.3-0.4-2.8-0.6-4.1-0.4c-1.4,0.2-2.6,0.2-3.6,0.1c0,0,0,0.3,0,0.5c0,0.3,0,0.6,0,0.9
						c0.3-0.1,0.8-0.3,0.9-0.4c0,0.1-0.7,0.7-0.9,0.8c0,0.3,0,1,0.1,1c0,0.1,0.7-0.1,1.4-0.2c-0.9,0.5-1.6,0.9-1.9,1.2l-0.1,0.3
						c-0.3,0-0.5,0.1-0.5,0c-0.1-0.1-0.1-0.1-0.2-0.2c-0.1,0.2-0.3,0.9-0.4,1.1c0.2-0.2,0.5-0.4,0.9-0.6l-0.1,0.6c0,0,0,0,0,0
						c1.5,0.4,3.3,0.9,5.4,1.4C110.3,53.8,110.7,53.2,111.5,53.2z"/>
					<path class="st78" d="M94.9,36.4c0.2-1.4-0.5-1.7-0.2-3.5c0.3-1.6,0.8-3.3,1.3-5.1c0.6-1.7,1.2-3.5,1.6-5.4
						c2.6,2.5,4.9,4.6,7,6.8c-1.5,0.8-2.1-0.6-4,1.3c-0.2,0.3-0.2,0.7-0.3,1.1c-1.1,0.6-2.2,0.3-3.1,1.9c-0.5,1-1,2.1-1.6,3.3
						l-0.2-0.1C95.6,36.3,95.2,36.5,94.9,36.4z"/>
					<path class="st79" d="M96.9,39.3c-0.4-0.2-0.8-0.3-1.1-0.5c0.2-0.3,0.4-0.6,0.5-0.8c0.4,0.3,0.9,0.4,1.4,0.6
						C97.5,38.8,97.2,39,96.9,39.3z"/>
					<path class="st79" d="M100.4,31.7c0.1-0.4,0.1-0.8,0.3-1.1c1.9-1.9,2.4-0.5,4-1.3c0.8,0.8,1.6,1.6,2.4,2.5
						c-0.3,0.1-0.7,0.1-1,0.2c0.4,0.4-1.2,2.3-0.9,2.7c-1.5,0.3-2.7,0.3-3.9,0.5c-1.3,0.2-2.5,0.7-4.1,2.2c-0.5-0.1-1-0.3-1.5-0.5
						c0.7-1.3,1.1-2.4,1.6-3.3C98.2,32,99.2,32.2,100.4,31.7z"/>
					<path class="st16" d="M105.2,34.7c-0.4-0.4,1.3-2.3,0.9-2.7c0.3-0.1,0.7-0.2,1-0.2c0.9,1,1.8,2,2.6,3c0,0.1,0,0.2,0.1,0.3
						c0.4,1,1,1.6,1.2,2.5c-1.5,0.2-3.1,0.6-4.5,0.9c1-2,1.5-4,1.3-5.7c0.1,0.6-1.3,1.7-1.5,2.2c-0.9,2-3.7,5-5.3,5.9
						c-1-0.8-2.1-1.5-3.3-2c0.2-0.4,0.6-1.1,0.5-1.1c-0.4-0.1-0.8-0.1-1.1-0.2c1.6-1.5,2.8-2,4.1-2.2C102.5,35,103.7,35,105.2,34.7z
						"/>
					<path class="st73" d="M106.5,38.5c1.4-0.3,3-0.7,4.5-0.9c0.1,0.2,0.1,0.5,0.1,0.8c0.3-0.2,0.5-0.3,0.8-0.6
						c0.1,0.1,0.2,0.3,0.3,0.5c-0.1,0.3-0.9,1,0.4,0.6l0.4,0.7c-0.3,0.4-0.7,0.9-1.3,1.3l1-0.5c0.8-0.1,0.2,0.5,0.3,0.7
						c0.2-0.1,0.5-0.2,0.7-0.3c-0.2,0.7,0.1,1.4,0.4,1.9c0.3,0.5,0.7,1,0.7,1.1c-0.1,0.2-0.2,0.4-0.3,0.6c-2.8,0.1-5.2,0.2-7.1,0.1
						c0,0-1,0.4-1.4,0.4c-0.5,0-0.9,0-1.4,0.1c0.6-0.8,0.4-1.3-0.1-1.5c-0.4-0.3-1-0.3-1-0.3c-0.1-0.1-0.1-0.2-0.2-0.3
						c-0.1-0.3,0.1-1-0.1-1.5c-0.1-0.5-0.6-0.9-1.8-0.4l-0.2-0.2c1.6-0.9,4.4-3.9,5.3-5.9c0.1-0.4,1.1-2.4,1.5-2.2
						c0.4,0.7,0.2,2.2-0.3,3.5C107.1,37.5,106.4,38.6,106.5,38.5z"/>
					<path class="st80" d="M104.5,67.8c-0.3-0.2-0.3-0.5-0.2-0.7c0-0.1,0.1-0.2,0.2-0.2c0.1,0,0,0.1,0,0.1c0,0,0.1-0.1,0.1-0.1
						c0,0-0.1,0.1,0,0.1c0,0.1,0.3,0.1,0.3-0.3c0,0-0.1,0-0.1,0.1c0,0,0,0,0,0.1c0,0,0,0.1,0,0.1c0,0,0.1,0,0.1,0
						C104.9,67.3,104.8,67.7,104.5,67.8z"/>
					<path class="st80" d="M102.1,63.6c-0.2,0.1-0.2,0.2-0.3,0.3c0.6,0.5,1,1,1.1,0.4c0.4,0.6-0.2,0.2,0,0.5
						c0.7,0.7,0.7,0.7,0.7,0.5c-0.4-0.7-0.9-1.3-1.4-1.7c-0.5-0.4-0.9-0.6-1-0.5l-0.2,0.2C101.4,63.5,101.7,63.4,102.1,63.6z"/>
					<path class="st81" d="M104.2,62.6c0.4,0,1.2,0.2,1.9,0.3c1,1,2.2,2,3.4,3.2c-0.6,0.3-1.1,0.5-1.7,0.8c-0.5,0.2-1.1,0.4-1.6,0.7
						c-0.1-0.3-0.2-0.6-0.3-0.9c-0.1,0.2-0.2,0.3-0.6,0.3c-0.1-0.1-0.2-0.3-0.4-0.5l0,0c0.2,0,0.2-0.2-0.5-0.7
						c-0.3-0.2,0.2,0.4-0.4-0.1c0.4,0.1-0.1-0.5-0.6-1l-0.2,0.2c-0.3-0.3-0.3-0.5-0.5-0.8c0.5-0.6,0.8-1.3,1.1-2
						C103.8,62.2,104,62.4,104.2,62.6z"/>
				</g>
			</g>
		</g>
		<g>
			<g class="st1">
				<g class="st1">
					<path class="st73" d="M107.2,10.2c0.8,0.7,1.7,1.8,2.3,3.3c0.7,1.4,0.9,2.9,1,4.2c-0.3-0.6-0.7-1.1-1-1.7c-0.6-0.9-0.7-1.9-1-3
						C108.1,12,107.7,10.9,107.2,10.2z"/>
					<path class="st73" d="M103.9,7.8L103.9,7.8l1.2,0.9c0.4,0.3,0.9,0.6,1.4,1.1c-0.1-0.1-0.2-0.1-0.3-0.1
						c-0.7-0.2-1.2-0.3-1.6-0.5C104.2,8.8,104,8.4,103.9,7.8z"/>
					<path class="st74" d="M86.8,11.7c1.6-3.5,3.5-6.2,5.6-8.9c0.3-0.1,0.8-0.5,1-0.4c0-0.1,1.8,0.2,2.6,0.6
						c-1.1,1.2-2.2,2.7-3.2,4.6c0.2,0.4,0.6,1,0.3,1.7c-1.2,2.4-2.4,3.8-3.4,5.1c0-0.1-0.4-0.8-0.9-1.5
						C88.2,12.3,87.5,11.7,86.8,11.7z"/>
					<path class="st13" d="M84.1,10.7c-0.7-0.3-1.6-1.7-2.1-2.1c0.4-1.6,0.8-3.1,1.4-4.4c-0.2-0.8-0.4-1.5-0.7-1.9
						c0.1-0.3,0.2-0.5,0.3-0.7c1.7-0.1,3.4-0.2,5.2-0.2c-0.2,0.5-1.1,2.1-2,3.9C85.4,7.1,84.5,9.3,84.1,10.7z"/>
					<path class="st75" d="M86.5,10.9c-0.3,0.1-0.6,0.3-0.9,0.4c-0.5-0.1-0.9-0.4-1.4-0.6c0.8-2.8,1.8-5.3,2.9-7c-0.1,0,0-1-0.1-1.1
						c0.7-0.5,1-0.3,1.3-1.2c1.6,0.1,3.3,0.2,4.8,0.6c-0.6,0.6-0.8,0.1-1.1,0c-0.1,0.9,0.1,1,0.4,0.9c-2.1,2.7-4,5.4-5.6,8.9
						l-0.2-0.1C86.6,11.2,86.7,10.7,86.5,10.9z"/>
					<path class="st76" d="M102.4,11.5c-1.8,0.8-3.7,2.4-5.5,4.4c0-0.3-0.1-1.1-0.7-0.7c-0.2-0.2-0.5-0.6-0.8-0.8
						c-0.3-0.2-0.7-0.3-1,0c-0.3,0.4,0.4-0.4,1.5-1.3c1.1-1,2.5-2.2,3.3-2.9c0.8-1.1,1.8-1.9,2.7-2.5c0.1,0.2-0.5,0.8-0.5,1
						c0.1-0.1,0.8-0.8,0.8-0.8s0.9,0.6,1.3,1c-0.6,1.3,0.5,0.8,0.7,0.6l0.4,0.3l0,0c-0.5,0.2-0.9,0.5-1.3,0.7
						C103.1,10.6,102.4,11.5,102.4,11.5z"/>
					<path class="st77" d="M93.1,9.3c-1.2,2.4-2.4,3.8-3.4,5.1c0.1,0.2,0.5,0.7,0.5,0.8c0.2-0.6,0.3-1.2,0.5-1.4
						c0.5-0.2,1-0.4,1.2-0.3c0.2,0.3,0.2,1.2,0.3,1.8c0.3-0.1,0.7-0.2,1.1-0.3c0,0,0.2-0.2,0.3-0.5c0.2-0.2,0.4-0.5,0.5-0.7
						c0.2,0.1,0.3,0.3,0.3,0.6c0.1-0.1,0.8-0.7,1.8-1.5c1-0.8,2.2-1.8,3-2.8c0.8-1.1,1.8-1.9,2.7-2.5c0,0-1-0.9-1.5-1.3
						c-0.1,0.2-0.2,0.9-0.2,1c-0.1,0-0.1-1.1-0.3-1.4c-0.3-0.3-1.1-0.8-1.3-0.8c-0.1-0.1-0.2,0.7-0.6,1.3c0-1.1-0.1-1.9-0.4-2.5
						l-0.4-0.3c0.1-0.3,0.1-0.5,0.2-0.4c0.1,0,0.2,0,0.3,0c-0.2-0.2-1.2-0.9-1.4-1.1c0.2,0.3,0.3,0.7,0.4,1.2
						c-0.3-0.2-0.5-0.3-0.8-0.5l0,0c-1.1,1.2-2.2,2.7-3.2,4.6C92.9,8.1,93.3,8.6,93.1,9.3z"/>
					<path class="st78" d="M102.7,31.6c-1.5-0.5-2.2,0.3-3.8-0.7c-1.4-0.9-2.6-2.2-3.8-3.6c-1.2-1.4-2.4-2.8-3.7-4.2
						c2.1,0.1,4-0.7,5.3-2c1.1,1.3-0.1,1.4,1.6,3.4c0.3,0.2,0.7,0.3,1,0.4c0.5,1.1,0.1,2.1,1.4,3.4c0.8,0.7,1.8,1.4,3,2.2l-0.2,0.2
						C103,30.6,103,31.2,102.7,31.6z"/>
					<path class="st79" d="M107.2,28.1c-0.3,0.7-0.7,1.3-1,1.9c-0.3-0.2-0.5-0.4-0.8-0.6c0.5-0.7,0.9-1.4,1.1-2.2
						C106.7,27.5,107,27.8,107.2,28.1z"/>
					<path class="st79" d="M99.4,24.9c-0.3-0.1-0.7-0.2-1-0.4c-1.8-2-0.6-2.1-1.6-3.4c0.5-0.5,1-1.1,1.3-1.7
						c0.2,0.2,0.4,0.5,0.6,0.7c0.2-0.4,2.5,0.7,2.7,0.3c0.9,1.2,1.2,2.3,1.5,3.6c0.4,1.3,0.9,2.6,2.1,4.4c-0.3,0.8-0.7,1.5-1.2,2.1
						c-1.1-0.9-2.2-1.5-3-2.2C99.5,27.1,99.9,26,99.4,24.9z"/>
					<path class="st16" d="M101.4,20.4c-0.2,0.4-2.5-0.6-2.7-0.3c-0.2-0.3-0.4-0.5-0.6-0.7c0.5-0.7,0.8-1.4,0.8-1.8c0,0,0.1,0,0.1,0
						c0.2-0.1,0.2-0.2,0.2-0.2c0,0,0,0,0,0l0.3,0c0.1,0,0.2,0,0.3,0c0.1,0,0.1,0,0.2,0l-0.1,0c0,0-0.1,0,0,0c0.2,0,0.4-0.1,0.5-0.1
						c0.4,0,0.7,0,1.1,0c0.7,0.1,1.4,0.3,2.1,0.6c-2.1,0.7-3.9,0.6-5.1,1c0.5-0.1,2.1,0.7,2.5,0.7c1,0.1,2.6,0.4,4.1,0.6
						c1.5,0.3,2.9,0.6,3.7,1.1c-0.1,0.6-0.3,1.2-0.4,1.7c-0.2,0.5-0.3,1-0.4,1.4c-0.3,0.9-0.7,1.9-1.1,2.8c-0.5-0.1-1.2-0.4-1.2-0.3
						c-0.1,0.6-0.3,1.1-0.5,1.6c-1.3-1.8-1.7-3.2-2.1-4.4C102.5,22.8,102.2,21.6,101.4,20.4z"/>
					<path class="st73" d="M103.7,17.8c-0.7-0.3-1.4-0.6-2.1-0.6c-0.4,0-0.7-0.1-1.1,0c-0.2,0-0.4,0-0.5,0.1c-0.1,0,0,0,0,0l0.1,0
						c0,0,0.1,0,0.1,0l0.1,0l0,0c0.1,0,0,0-0.2,0.1c-0.2,0.1-0.3,0.2-0.7,0.5L99,17.9c0,0,0,0,0,0c0,0,0,0,0,0
						c0.3-0.3,0.6-0.8,1.1-1.4l-0.7,0.8c-0.6,0.5-0.2-0.1-0.3-0.2c-0.1,0.1-0.3,0.4-0.5,0.5c0.1-0.5-0.4-0.9-0.8-1
						c-0.4-0.2-0.8-0.2-0.9-0.2c0-0.2,0-0.4,0-0.6c1.9-2,3.7-3.6,5.5-4.4c0,0,0.7-0.9,1-1.1c0.4-0.2,0.9-0.5,1.3-0.7
						c0,1.1,0.6,1.6,1.4,2.1c0.8,0.5,1.6,1,1.7,1c0.2,0.3,0.4,0.6,0.5,1c0.4,1,0.1,2.5-0.1,3.6c-0.2,1.1-0.2,2,0.7,3.2l-0.1,0.6
						c-0.7-0.6-2.2-0.9-3.7-1.1c-1.5-0.3-3-0.5-4.1-0.6c-0.4,0-2.5-0.4-2.5-0.7c0.4-0.4,1.6-0.3,2.9-0.5
						C102.6,18.2,103.8,17.8,103.7,17.8z"/>
					<path class="st80" d="M78.4,6.1c-0.4-0.2-0.7-0.4-1.1-0.6c0.4,0,0.8,0.3,0.9-0.5c0.2,0.3,0.4,0.3,0.6,0.3
						C78.8,5.6,78.6,5.8,78.4,6.1z"/>
					<path class="st80" d="M79.1,0.9l0.3,0c0,0.7-0.2,1.4-0.4,1.1c0,0.7,0.2,0,0.2,0.4c0,1-0.1,1-0.3,0.9C78.9,1.6,79,0,79.2,0
						l0.2,0C79.3,0.3,79.1,0.5,79.1,0.9z"/>
					<path class="st81" d="M82.8,2.3c0.3,0.4,0.4,1.1,0.7,1.9c-0.5,1.3-1,2.8-1.4,4.4c-0.8-0.8-1.6-1.4-2.5-2
						c0.2-0.2,0.3-0.5,0.5-0.8c-0.2,0-0.4,0-0.5-0.3c0-0.2,0.1-0.4,0.1-0.6v0C79.7,5,79.9,4.9,79.9,4c0-0.4-0.2,0.4-0.2-0.4
						c0.2,0.4,0.4-0.4,0.4-1.1l-0.3,0C79.8,2.1,80,2,80.2,1.6c1,0,1.9,0,2.9-0.1C83,1.8,82.9,2.1,82.8,2.3z"/>
				</g>
			</g>
		</g>
		<g>
			<g>
				<g>
					<g>
						<g>
							<path class="st19" d="M3.6,139.1c-1.6-8.3-1.1-16.7,1.9-24.6c3.3-8.8,10.8-20.3,21.7-19.3c19.3,1.9,21.9,25.9,22.6,40.9
								c0.6-0.3,1.1-0.7,1.7-1c-16.2,2-32.5,3.2-48.8,3.7c-0.9,0-3.1,1.4-1.2,1.4c16.6-0.5,33.1-1.8,49.5-3.8c0.5-0.1,1.7-0.4,1.7-1
								c-0.5-10.9-1.2-22.4-7.7-31.6c-5.1-7.1-13.7-11.4-22.4-9.5C3.9,98.5-2.4,123.7,0.8,139.9C0.9,140.7,3.8,140,3.6,139.1
								L3.6,139.1z"/>
						</g>
					</g>
				</g>
				<g>
					<g>
						<g>
							<path class="st19" d="M24.8,66.7c-8.2-0.3-14.7,5.9-15.8,13.9c-1.2,8.8,8.9,14,16.5,13.7c8.3-0.3,12.8-6,13.7-14
								c0.6-4.9,0.2-9.6-4.6-12.1c-3.8-2-8.1-2.1-12.2-1.3C21.3,67.1,20,68.5,22,68c6.5-1.3,14.2,1.2,14.6,8.6
								c0.4,7.9-2.5,17.6-12.8,16.1c-4.9-0.7-10.5-4.2-11.7-9.3C10.6,77.3,16,67.7,23,67.9C23.6,68,26.3,66.7,24.8,66.7L24.8,66.7z"
								/>
						</g>
					</g>
				</g>
			</g>
			<g>
				<g>
					<g>
						<g>
							<path class="st19" d="M66.7,68.4c-0.7-7.9,0.6-15.7,4.1-22.8C75,37.1,83.4,26.9,94,29.4c18,4.2,18.1,26.6,17.3,41.1
								c0.7-0.4,1.4-0.7,2-1.1c-15.8,0.3-31.5-0.1-47.2-1.2c-0.7-0.1-3.3,1.2-1.8,1.4c15.9,1.1,31.9,1.6,47.9,1.3c0.6,0,2-0.3,2-1.1
								c0.6-11.1,1.1-23.1-5.4-32.7c-4.5-6.5-12.3-10.6-20.2-9.2C70.8,31,62.5,53.3,63.9,69.2C63.9,69.9,66.8,69.3,66.7,68.4
								L66.7,68.4z"/>
						</g>
					</g>
				</g>
				<g>
					<g>
						<g>
							<path class="st19" d="M94.2,1.5c-7.5-1.1-14.1,4.1-16.3,11.1c-2.7,8.8,6.7,15.3,14.6,15.5c7.7,0.2,12.5-4.9,14.1-12.2
								c0.9-4,1.3-8.5-2.2-11.4c-3.4-2.8-8-3.5-12.3-3.1C91.4,1.6,89.1,3,91,2.8c5.7-0.6,13,1.8,13.4,8.4c0.5,7-3.4,16.8-12,15.5
								c-4.7-0.7-9.9-3.9-11.6-8.4C78.2,11.7,85,1.8,92.3,2.8C93,2.9,95.6,1.7,94.2,1.5L94.2,1.5z"/>
						</g>
					</g>
				</g>
			</g>
			<g>
				<g>
					<g>
						<g>
							<path class="st19" d="M167.2,130.9c3.8-15.5-1.8-44.3-22.3-44.8c-20.9-0.5-26,23-27.7,39.2c0,0.3,0.2,0.4,0.5,0.5
								c15.6,2.7,31.4,4.7,47.2,6c0.7,0.1,3.3-1.2,1.8-1.4c-12.3-1-24.6-2.4-36.8-4.3c-2.2-0.3-6.6-0.1-8.5-1.4
								c-2.3-1.6-0.6-6.7-0.3-9c0.8-5.6,2.2-11.1,4.9-16.1c3.9-7.2,11.2-13.4,19.9-11.8c5.8,1.1,10.2,5.5,13.2,10.3
								c6.3,9.8,7.9,21.9,5.1,33.2C164.2,132.2,167,131.8,167.2,130.9L167.2,130.9z"/>
						</g>
					</g>
				</g>
				<g>
					<g>
						<g>
							<path class="st19" d="M147.5,61.6c5.7,0.1,9.4,4.4,11,9.6c2.6,8.3-4,15-12.6,14.2c-5.5-0.5-8.8-4.4-9.8-9.7
								c-0.3-1.9-0.5-3.9-0.4-5.8c0-1,0.1-3.3,0.8-4.4c0.6-1.8,2.2-2.6,4.8-2.4c2.3-1.9,4.8-2.3,7.4-1.2c0.7,0.2,3.2-0.9,2.4-1.2
								c-5.8-1.5-15.3-0.7-17.7,5.9c-2.9,7.9,0.9,18.9,9.8,20.2c6.1,0.8,13.9-1.7,17.4-6.9c5.2-7.8-2.7-19.3-11.3-19.4
								C148.7,60.4,146.1,61.6,147.5,61.6L147.5,61.6z"/>
						</g>
					</g>
				</g>
			</g>
			<g>
				<g>
					<g>
						<path class="st19" d="M155.5,47.8c-3.3-5.7-7.5-11-13.1-14.7c-6.1-3.9-12.8-4.5-19.7-5.9c-0.7-0.1-2.3,0.5-1.9,1.5
							c0.8,2.3,1.9,4.3,3.5,6.2c0.9,1.1,3.6,0,2.6-1.3c-1.5-2-3.1-4.1-4.6-6.1c-0.2,0.5-0.4,1-0.7,1.6c1.9-0.9,3.9-1.6,5.9-2.2
							c1.8-0.5,1.2-2.6-0.6-2.1c-2.3,0.6-4.5,1.4-6.7,2.4c-0.5,0.3-1.1,1-0.7,1.6c1.5,2,3.1,4.1,4.6,6.1c0.9-0.4,1.8-0.9,2.6-1.3
							c-1.4-1.7-2.5-3.5-3.2-5.7c-0.6,0.5-1.3,1-1.9,1.5c7,1.4,13.7,2,19.7,6.2c4.9,3.5,8.5,8.3,11.5,13.4
							C153.6,50.3,156.3,49.2,155.5,47.8L155.5,47.8z"/>
					</g>
				</g>
			</g>
			<g>
				<g>
					<g>
						<path class="st19" d="M59.1,18.8C42,21.4,28.7,34.3,26.6,51.7c0.9-0.2,1.9-0.5,2.8-0.7c-1.7-2.8-2.8-5.7-3.5-8.9
							c-1,0.3-1.9,0.5-2.9,0.8c0.9,2.6,1.7,9.9,5,10.3c1,0.1,1.8-0.5,2.5-0.9c2.7-1.7,5.3-4.6,7.7-6.7c1.3-1.1-1.5-1.3-2.3-0.6
							c-0.9,0.8-5.7,6.2-7.1,5.8c-0.9-0.3-2.6-7.5-3-8.6c-0.4-1.1-3.1-0.4-2.9,0.8c0.7,3.4,1.9,6.3,3.7,9.3c0.5,0.8,2.7,0.1,2.8-0.7
							C31.4,35.6,42.9,23,58.8,20.6C60.2,20.4,61.1,18.5,59.1,18.8L59.1,18.8z"/>
					</g>
				</g>
			</g>
			<g>
				<g>
					<g>
						<path class="st19" d="M62.3,159.3c14.8,9.4,33.6,7.5,46.5-4.2c-0.9,0-1.7-0.1-2.6-0.1c-0.6,3.2-1.6,6.1-3.1,9
							c0.9,0.1,1.8,0.1,2.7,0.2c0.8-2.1,4.9-8.4,3.4-10.6c-0.4-0.6-1.2-0.6-1.8-0.7c-2.9-0.7-7.3,0-10.3,0c-1.2,0-3,1.8-1.1,1.8
							c1.2,0,9.2-0.9,9.9,0c1.3,1.5-2.3,7.9-2.9,9.4c-0.6,1.4,2.2,1,2.7,0.2c1.7-3,2.7-6,3.3-9.5c0.2-1.3-2.2-0.5-2.6-0.1
							c-11.9,10.7-28.5,11.8-41.9,3.3C63.7,157.2,61.1,158.5,62.3,159.3L62.3,159.3z"/>
					</g>
				</g>
			</g>
		</g>
	</g>
</g>
</svg>
