<?xml version="1.0" encoding="utf-8"?>
<!-- Generator: Adobe Illustrator 22.0.0, SVG Export Plug-In . SVG Version: 6.00 Build 0)  -->
<svg version="1.1" xmlns="http://www.w3.org/2000/svg" xmlns:xlink="http://www.w3.org/1999/xlink" x="0px" y="0px"
	 viewBox="0 0 31.1 126.9" style="enable-background:new 0 0 31.1 126.9;" xml:space="preserve">
<style type="text/css">
	.st0{fill:#FFFEFD;}
	.st1{opacity:0.9;}
	.st2{fill:#CBE5CF;}
	.st3{fill:#DCEDDF;}
	.st4{fill:#E3F1E5;}
	.st5{fill:#E0EFE2;}
	.st6{fill:#D1E8D4;}
	.st7{fill:#D4E9D7;}
	.st8{fill:#BEDEC2;}
	.st9{fill:#C3E1C7;}
	.st10{fill:#C7E2CB;}
	.st11{fill:#EEF6EF;}
	.st12{fill:#EBF5EC;}
	.st13{fill:#FEF9DA;}
	.st14{fill:#FFFDF1;}
	.st15{fill:#FDF5C7;}
	.st16{fill:#FDF2B4;}
	.st17{fill:#FCEFA5;}
	.st18{fill:#FCED95;}
	.st19{fill:#272525;}
	.st20{opacity:0.85;}
	.st21{fill:#D3E6F6;}
	.st22{fill:#C4DEF3;}
	.st23{fill:#ACD0EE;}
	.st24{fill:#E2EFF9;}
	.st25{fill:#B8D7F0;}
	.st26{fill:#9FC9EB;}
	.st27{fill:#EADAEE;}
	.st28{fill:#F7F1F8;}
	.st29{fill:#DFC7E5;}
	.st30{fill:#D5B5DC;}
	.st31{fill:#CDA6D5;}
	.st32{fill:#C497CE;}
	.st33{fill:#D8BBDF;}
	.st34{fill:#E5D1E9;}
	.st35{fill:#E8D6EB;}
	.st36{fill:#DDC3E2;}
	.st37{fill:#DFC6E4;}
	.st38{fill:#CEA9D6;}
	.st39{fill:#D2B0DA;}
	.st40{fill:#F2E9F4;}
	.st41{fill:#F0E4F2;}
	.st42{opacity:0.8;}
	.st43{opacity:0.8;fill:#DC7D5B;}
	.st44{opacity:0.8;fill:#E9AE99;}
	.st45{opacity:0.8;fill:#F0C7B8;}
	.st46{opacity:0.8;fill:#F7E1DA;}
	.st47{fill:#F7E0D8;}
	.st48{fill:#FCF3F0;}
	.st49{fill:#F2D0C4;}
	.st50{fill:#EEC0B0;}
	.st51{fill:#EBB4A0;}
	.st52{fill:#E7A790;}
	.st53{fill:#F0C6B6;}
	.st54{fill:#F5D8CE;}
	.st55{fill:#F6DCD3;}
	.st56{fill:#F1CCBF;}
	.st57{fill:#F2CFC2;}
	.st58{fill:#ECB6A3;}
	.st59{fill:#EDBDAB;}
	.st60{fill:#FAECE7;}
	.st61{fill:#F9E8E2;}
	.st62{fill:#B7E9E6;}
	.st63{fill:#CFF0EE;}
	.st64{fill:#D9F3F2;}
	.st65{fill:#D4F2F0;}
	.st66{fill:#BFECE9;}
	.st67{fill:#C3EDEA;}
	.st68{fill:#A5E4E0;}
	.st69{fill:#ACE6E3;}
	.st70{fill:#B1E7E4;}
	.st71{fill:#E8F8F7;}
	.st72{fill:#E3F6F5;}
	.st73{fill:#FDF3BA;}
	.st74{fill:#FEF7D0;}
	.st75{fill:#FEF8D5;}
	.st76{fill:#FDF4C2;}
	.st77{fill:#FDF5C5;}
	.st78{fill:#FCF0A8;}
	.st79{fill:#FDF1AF;}
	.st80{fill:#FEFBE8;}
	.st81{fill:#FEFAE4;}
	.st82{fill:#C9E1F4;}
	.st83{fill:#DBEAF7;}
	.st84{fill:#DEEDF8;}
	.st85{fill:#CFE4F5;}
	.st86{fill:#D2E5F6;}
	.st87{fill:#BBD8F1;}
	.st88{fill:#C1DCF2;}
	.st89{fill:#EDF5FB;}
	.st90{fill:#EAF3FB;}
	.st91{fill:#C5EDEB;}
	.st92{fill:#91DED9;}
	.st93{fill:#A1E3DF;}
	.st94{fill:#80D8D3;}
</style>
<g id="background">
	<rect x="-897.3" y="-223.5" class="st0" width="1200" height="800"/>
</g>
<g id="colour">
</g>
<g id="object">
	<g>
		<g>
			<g class="st1">
				<g class="st1">
					<g>
						<path class="st27" d="M15,91.2c-0.4-0.2-0.2-0.6-0.2-0.8c0.3-1,0.6-2.1,0.9-3.1c0.4-0.7,0.3-1.5-0.3-2.1
							c0.3-0.2,0.5-0.4,0.7-0.6c-0.1-0.9-0.2-1.7-0.1-2.5c0.1-0.3,0.2-0.6,0.2-0.9c0.7-0.7,0.3-1.4,1-1.7c0.1-0.2-0.2-0.4-0.3-0.6
							c0.4-0.7,0.3-1.4,0.2-1.9c0.1-0.3,0.2-0.5,0.2-0.8c0,0-0.1,0-0.2,0c0.1-1.2,0.2-2.4,0.3-3.5c0.3-0.7,0.6-1,0.3-1.2
							c0-0.1,0-0.3,0-0.4l0.1-0.8c0.3-0.3,0.6-0.5,0.9-0.8c0.4,0.3,0.7,0.5,1.1,0.8l-0.1,0.8c0,0.1,0,0.3,0,0.4c0,0.2,0,0.5,0.1,0.7
							l-0.2,1.2c0.2,0,0.4,0,0.6,0c0,0.3,0.1,0.6,0.1,0.9l-0.8,0c-0.1,0.1-0.3,0.2-0.4,0.3c-0.2,0.1-0.5,0.3-0.7,0.4
							c0,0.3-0.1,0.6-0.1,0.9c-0.1,0.2-0.1,0.3-0.2,0.4c0.2,0.1,0.4,0.3,0.6,0.4c-0.2,0.4,0,0.6,0.1,0.5c0.4,0.1,0.7-0.1,1-0.2
							l0.8,0.6c-0.1,0.2-0.2,0.3-0.4,0.5c-0.1,0.4,0.7,0.6,0.7,0.9c-0.2,0.3-0.4,0.6-0.5,0.9c-0.1,0.2-0.2,0.3-0.4,0.5
							c-0.2,0.2,0.3,0.3,0.3,0.5l-0.5,3.8c-0.3,0.5-0.4,0.8-0.2,0.9c-0.1,1-0.3,2-0.4,3c-0.3,0.5-0.2,1.2-0.3,1.7
							c-0.8,0.1-1,0.2-1.2,0.3c-0.3-0.1-0.6-0.2-0.9-0.3c-0.4-0.1-0.5,0.2-1,0C15.5,90.7,15.3,90.9,15,91.2z"/>
					</g>
					<g>
						<path class="st28" d="M18.7,76.6c-0.2-0.1-0.4-0.3-0.6-0.4c0.1-0.2,0.1-0.3,0.2-0.4c0-0.3,0.1-0.6,0.1-0.9
							c0.2-0.1,0.5-0.3,0.7-0.4c0.1-0.1,0.2-0.2,0.4-0.3l0.8,0c-0.1,0.2-0.2,0.4-0.2,0.6c-0.1,0.4,0.3,0.5,0.2,0.6
							c0,0.1-0.1,0.1-0.2,0.2c0.1,0.2,0.3,0.5,0.4,0.7c-0.2,0.1-0.5,0.3-0.7,0.4l0,0.2c-0.3,0-0.6,0.3-1,0.2
							C18.6,77.2,18.5,77,18.7,76.6z"/>
					</g>
					<g>
						<path class="st27" d="M16,71.9c-0.7-0.3-0.8-0.4-0.9-0.5c0.7-0.8-0.3-1.8,0.7-2.6c-0.2-0.4-0.4-0.8-0.6-1.2
							c-0.1-0.4,0.6-0.9,0-1.2l0.4-0.8c0-0.4,0-0.8-0.1-1.2c0.1-0.3,0.2-0.6,0.2-0.8c0-0.2,0-0.3,0-0.5c-0.2-0.1-0.4-0.3-0.6-0.6
							c-0.4,0.5-0.4,0.7-0.4,0.9c-0.1,0-0.2,0-0.3,0.1l-0.8,0c-0.1-0.2-0.2-0.5-0.3-0.7c0-0.3-0.1-0.6-0.1-0.9c0-0.3,0-0.5-0.1-0.8
							c0-0.1,0-0.1,0-0.2c0.1-0.2,0.3-0.3,0.5-0.5c-0.4-0.3,0.2-0.6,0.4-0.8c0-0.1,0.1-0.1,0.2-0.2c0.1-0.3,0.2-0.7,0.3-1
							c0.4,0.3,0.2,0.6,0.2,1.1c0.5,0,0.6,0,0.8,0c0,0.2,0,0.3,0,0.5c0.2,0.2,0.5,0.5,0.7,0.7c0.5,0.1,1.1,0.2,1.6,0.3
							c0.2,0,0.3,0,0.5,0c0.6,0.4,0.5,1.2-0.1,1.3c0,0.1-0.1,0.1-0.2,0.2c-0.3,0.1-0.5,0.3-0.8,0.4c0.1,0.2,0.3,0.5,0.4,0.8
							c0.2-0.1,0.4-0.1,0.7-0.2l0.8,0.2c0.5,0.1,0.8,0.8,1.4,0.3c0.2,0.1,0.3,0.2,0.5,0.2c-0.2,0.2-0.3,0.5-0.4,0.7
							c0.1,0.6,1.1,0.4,1.7,0.7c0-0.2,0-0.3,0-0.5c0.2-0.2,0.5-0.4,0.7-0.6l0-0.3l0-0.2c-0.3-0.6-0.2-0.9-0.5-1.2
							c0.2-0.2,0.3-0.4,0.5-0.6c-0.3-0.6,0.9-1,0.1-1.6c0,0-0.1,0-0.2,0c-0.2-0.2-0.4-0.5-0.6-0.8c0-0.2,0-0.3,0.1-0.6
							c-0.2-0.2-0.4-0.5-0.6-0.7c0.5-0.5-0.2-1.4,0.8-1.6l1.3,0.1c0,0.1,0,0.2,0,0.3c1.4,0.4,0.4,1.2,1.2,1.4
							c0.1,0.2-0.2,0.5-0.7,0.5c-0.1,0.4-0.2,0.8-0.3,1.2c0.3,0.2,0.5,0.3,0.8,0.5c-0.1,0.9,0.2,1.9-1.2,2.3
							c-0.1,0.2,0.1,0.5-0.4,0.6c0.3,0.1,0.5,0.2,0.8,0.3c0,0.2,0.6,0.7-0.2,0.9c0,0.1,0,0.2,0,0.2c0.3,0.3,0.3,0.5,0.2,0.8
							c-0.4,0.2-0.7,0.5-1.2,0.5c-0.7-0.1-0.2-0.5-0.7-0.8c-0.4,0.2-0.8,0.4-1.2,0.6c-1.1,0.2-1,0.5-1,0.9c-0.1,0.1-0.3,0.3-0.5,0.4
							c-0.1,0.3,0.2,0.5,0.1,0.7c-0.3,0.1-0.7,0.2-1,0.2c-0.1-0.7-1.1-0.7-1.2-1c0.1-0.4,0.2-0.8,0.2-1.1c0-0.3,0-0.5,0.1-0.8
							c-0.1-0.5-0.2-1-0.3-1.5c-0.3,0.8-0.5,1.2-0.3,1.5c0,0.3,0,0.5-0.1,0.8c0,0.4-0.1,0.8-0.1,1.1c0,0.2,0,0.4-0.1,0.6
							c-0.2,0.2-0.5,0.5-0.7,0.7c0.1,0.2,0.2,0.5,0.3,0.8c-0.1,0.7-0.3,1.4-0.4,2.2c0,0,0.1,0.1,0.2,0.1
							C16.2,71.9,16.1,71.9,16,71.9z"/>
					</g>
					<g>
						<path class="st28" d="M23.3,58.9c-0.3-0.5-0.2-0.8-0.2-1.1c0.2-0.1,0.4-0.3,0.7-0.3c0.4,0.7,0.5,1,0.2,1.3
							C23.6,58.9,23.4,58.9,23.3,58.9z"/>
					</g>
					<g>
						<path class="st27" d="M16.6,48.8l0.3-1c0.4-0.3,0.3-0.8,0.3-1.1c0-0.4,0-0.8,0-1.2l0.3-1.2l0.2-0.8l0.2-0.7l0.2-0.8
							c0-0.1,0.1-0.3,0.1-0.4c0.1-0.1,0.3-0.2,0.4-0.4l0-1.1c0-0.2,0-0.4,0-0.6c0.1-0.5,0.1-0.9,0.2-1.3c1-0.4-0.1-1.2,0.7-1.9
							c-0.1-0.3-0.2-0.5-0.3-0.8c0.2-0.3,0.4-0.5,0.5-0.8c0-0.2-0.1-0.4-0.2-0.6c0.1-0.2,0.2-0.3,0.3-0.5c0-0.3,0.3-0.4,0.8-0.4
							c-0.2-0.2-0.4-0.4-0.7-0.6c0.1-0.4,0.1-0.8,0.2-1.1c0,0,0.1-0.1,0.2-0.1c0.1-0.8,0.1-1.7,0.2-2.5c-0.2-0.1-0.5-0.3-0.5-0.4
							l0-0.2l0.4-0.5c0.1-0.2,0-0.4,0-0.5c0.5-0.9-0.3-1.1-0.4-1.5c0-0.2,0-0.4,0-0.6c0.7-0.4,0.7-1.3,0.7-1.8
							c0.2,0,0.5-0.1,0.7-0.1l0.2-0.8l0.4-0.5c0-0.2,0-0.3-0.2-0.5c-0.1,0-0.2,0-0.3,0l-0.2-0.5c0.1-0.1,0.1-0.2,0.2-0.3
							c-0.1-0.1-0.2-0.3-0.4-0.5c0-0.4,0-0.8,0-1.2c-0.7-0.6,0.1-1.4-0.6-2c0-0.3,0.5-0.5,0.2-0.7c0.1-0.2,0.1-0.5,0.2-0.7
							c0.4-0.7-0.8-1.3,0.3-1.9c0.2-0.2-0.2-0.4-0.3-0.6c0.1-0.4,0.2-0.7,0.3-1.1c-0.7-0.1,0-0.5-0.3-0.9l0.3-1
							c0.1-0.1,0.2-0.1,0.2-0.2c0.4,0,0.8,0,1.1,0l0.7,0.6c0.1,0.2,0.2,0.3,0.3,0.5c0,0.3,0.1,0.6,0.1,0.9c0.1,0.6,0.6,0.6,0.6,0.9
							c0,0,0,0.1,0,0.1c0,0.3,0,0.6,0.1,1l-0.1,0.5c0.1,0.2,0.2,0.5,0.3,0.7c0,0.4-0.5,0.8,0.2,1.2c0.1,0.2,0.1,0.4,0.2,0.6
							c-0.2,0.2-0.4,0.4-0.5,0.7c0.1,0.4,0.3,0.6,0.4,0.9c0.2,0.3,0.3,0.5,0.4,0.8c-0.3,0.4,0.2,0.7-0.1,1.1
							c-0.1,0.1-0.2,0.3-0.3,0.4c0.2,0.1,0.4,0.2,0.6,0.4c-0.1,0.2-0.1,0.4-0.2,0.6c-0.1,0.3-0.1,0.5-0.2,0.8
							c-0.1,0.5-0.2,1-0.2,1.4c0.8,0.9-0.6,2.4-0.1,3.4c0,0.9,0,1.9-0.1,2.9c0,1.3-0.1,2.7-0.1,4c0,0.1-0.1,0.2-0.1,0.3
							c-0.3,0-0.5,0-0.8,0c-0.2,0-0.2,0.2-0.2,0.3c0.3,0.1,0.5,0.3,0.9,0.3c0.4,0.6,0.1,1.1,0.3,1.4c-0.1,0.2-0.1,0.4-0.2,0.6
							c-0.6-0.1-1.2-0.1-1.7-0.2l-0.5-0.2c0-0.3,0.1-0.7,0.1-1c0-0.6,0-1.2,0-1.8c0-0.1,0.1-0.3,0.1-0.4c0.1-0.2,0.3-0.5,0.4-0.7
							c-0.1-0.4-0.1-0.9-0.1-1.3c0.1-0.3,0.2-0.6,0.2-0.9c-0.1-0.3-0.2-0.6-0.5-1c-0.2,0.2-0.5,0.4-0.7,0.7c0,0.2,0,0.5,0,0.7
							c0,0.2,0,0.3,0.1,0.4l-0.1,0.2l-0.1,0.3c-0.6,0.7-0.3,1-0.5,1.4c0,0,0,0.1,0,0.1c0,0.3,0.1,0.6,0.1,0.9
							c-0.1,0.2-0.3,0.5-0.4,0.7c0.1,0.3,0.1,0.6,0.2,1c0,0,0,0.1,0,0.1c-0.3,0.1-0.7,0.3-1.1,0.4l1.3,0.3c0,0,0.1,0,0.2,0
							c0,0.1-0.1,0.3-0.1,0.4c-1.1,1.4,0.5,2-0.2,3.1c0.2,0.4,0.1,0.6,0.3,0.8c-0.2,0.1-0.5,0.2-0.7,0.2c0.2,0.2,0.5,0.3,0.7,0.5
							c-0.1,0.3-0.2,0.5-0.4,0.8l0.8,0.2c0,0.3,0,0.6-0.1,0.8c-0.4,0.1-0.7,0.1-1,0.2c0,0-0.1,0-0.2,0l0.1-1c-0.3,0-0.7-0.1-1-0.1
							c0.1,0.6-1.4,0.7-0.3,1.1c-0.4,0.4,0.1,0.6,0,0.7c0,0.2,0,0.4,0,0.6c0.3,0.5,1.4,0.3,1.4,0.9c0,0.1-0.1,0.3-0.1,0.4
							c-0.1,0-0.3,0-0.5-0.1c-0.3-0.1-0.6-0.2-0.9-0.3c-0.4,0.3-1,0.4-1.1,0.9c0,0.3,0.1,0.6,0.1,1c0,0.1,0.6,0.3,0.3,0.6
							c-0.1,0.3-0.2,0.6-0.2,0.9c-0.3,0.1-0.7,0.2-1.1,0.3C16.9,49.3,16.7,49.1,16.6,48.8z"/>
					</g>
					<g>
						<path class="st28" d="M24.2,34.9c-0.4,0-0.6-0.2-0.9-0.3c0-0.1,0-0.3,0.2-0.3c0.3,0,0.5,0,0.8,0
							C24.3,34.5,24.2,34.7,24.2,34.9z"/>
					</g>
					<g>
						<path class="st29" d="M2.5,113.6c0-0.2,0-0.3,0-0.4c0.4-0.6,0-0.6-0.3-0.6c-0.1-0.2-0.2-0.4-0.3-0.6c0.1-0.2,0.2-0.5,0.2-0.7
							c0.2-0.8,1.4-0.9,0.8-1.5c-0.7-0.5,0.8-0.9,0.1-1.6c0.3-0.7,0.9-1,0.5-1.4c0-0.1,0-0.2,0-0.3l0-0.5c-0.4-0.3-0.4-0.4-0.6-0.7
							c0.3-0.1,0.7-0.2,1-0.2l0-0.5c0.5-0.5,0.5-0.6,0.7-0.8c0.2-0.3,0.3-0.5,0.5-0.8c-0.5-0.6-0.2-1.6,0-2c0.3-0.1,0.2-0.3,0.2-0.5
							c-0.9-0.3,0.4-0.4,0.2-0.7c0.4-1,0.9-2.1,0.6-3.2l0-0.5c1.2-0.6,0-1.7,0.7-2.5c0-1,0.8-2.1,0.5-3.3c0.4-0.4,0.8-1,0.4-1.5
							c0-0.5,0.1-1,0.1-1.4c0.9-1.3,0.5-2.8,1-3.8c0.6-2.3,0.4-4.9,0.9-7c0.3-0.1,0.1-0.3,0.2-0.5c-0.8-0.2,0.2-0.3,0.1-0.6
							c0-1,0.5-2.2-0.1-3l0-0.2c0.1-0.2,0.3-0.3,0.4-0.5c0-0.3,0.2-0.7-0.1-1c0-0.2,0-0.4,0.1-0.6c0.1-0.4,0.4-0.6,0.1-0.8
							c0.2-1.3,0.5-2.2,0.3-3.1l0-0.2c0-0.2,0-0.4,0.1-0.6c-0.3-1.1,1.4-1.4,0.2-2.1c0-0.3,0-0.5,0.1-0.8c0.6-1.2,0.6-1.9,0.9-2.9
							L12,57.5c0.3-0.5,0.4-0.8,0.4-1c0.2,0,0.4-0.1,0.6-0.1c0.2-0.2,0.4-0.5,0.6-0.7c-0.7-0.3,0.3-1.3-0.3-1.7
							c-0.2-0.4,0.8-0.3,0.3-0.8c-0.1-0.2-0.2-0.4-0.5-0.5c0-0.1,0-0.1,0.1-0.2c-0.2-0.2-0.4-0.3-0.5-0.5c0.1-0.6-0.1-0.7-0.2-1
							c0.2-0.2,0.4-0.3,0.6-0.5c-0.6-0.2-0.1-0.6-0.4-0.8c-0.3-0.2,0.1-0.6,0.2-0.9l0.3-1c0-0.1,0.1-0.3,0.1-0.4
							c-0.6-0.2-0.3-0.5-0.2-0.7c0.2-0.4,0.3-0.7,0.5-1.1c0-0.3-0.3-0.4-0.2-0.6c0.2-0.2,0.3-0.3,0.5-0.5c0.1-0.1-0.2-0.3,0-0.5
							c0.1-0.2,0.1-0.4,0.2-0.6c0-0.1,0-0.3-0.1-0.4c0-0.2,0-0.4,0-0.6l0.1-0.2c-0.6-0.3-0.1-0.7-0.4-0.9c0.1,0,0.3-0.1,0.4-0.1
							c0.1-0.2,0.1-0.4,0.2-0.6c0.1-0.2,0.2-0.3,0.3-0.5c-0.2-0.7,0.4-1.5,0.3-2.3c-0.2,0-0.3,0-0.5-0.1c0-0.1,0-0.2-0.1-0.3
							c0-0.3,0-0.6,0.1-0.8c0.2-0.1,0.3-0.1,0.4-0.2c0-0.2,0-0.4,0-0.5c-0.1,0-0.2,0-0.3,0c0,0,0-0.1,0-0.1l0.2-1.2
							c0.3-0.2,0.6-0.5,0.8-0.7c-0.1,0-0.1-0.1-0.1-0.1c-0.1-0.3-0.2-0.6-0.2-0.9c-0.1-0.1-0.2-0.6-0.5-0.6c0.2-0.2,0.4-0.3,0.6-0.5
							c0.3-0.3-0.2-0.5-0.3-0.6c0.2-0.5,0.5-1.1,0.7-1.6l0.1-0.2c-0.6-0.2-0.3-0.5-0.1-0.7c0-0.1,0.1-0.3,0.1-0.4
							c-0.6-0.2-0.3-0.5-0.5-0.7c0.4-0.5,0.7-1,1.1-1.4c0-0.2-0.1-0.3-0.1-0.4c-0.4-0.4-0.3-0.6-0.1-0.8c0.1-0.4,0.1-0.8,0.2-1.3
							c-0.6-0.2-0.3-0.5-0.1-0.6l0.2-0.8c-0.6-0.2-0.3-0.5-0.2-0.7c0.1-0.2,0.2-0.5,0.4-0.7c0-0.8,0.3-1.7,0.2-2.4
							c-0.6-0.3-0.2-0.8-0.1-1.1c-0.6-0.4-0.1-0.9-0.3-1.2c0-0.9-0.7-1.7-0.1-2.7c-0.4-0.3,0.3-0.9-0.8-0.8c0.5-1.1-0.6-1.7-0.1-2.8
							c-0.1-0.5-0.4-0.6-0.4-1.1c0.3,0.1,0.5,0,0.8-0.1c0.1-0.6,0.2-1.1,0.3-1.7c0.5,0,1,0,1.4,0.1c0.4,0,0.8,0.1,1.1,0.1
							c0.1,0.1,0.4,0.2,0.5,0.4c0.7,0.2,1.3,0.3,2,0.5c0.4,0,0.8,0,1.1,0c0.1,0.1,0.1,0.3,0.2,0.4c-0.3,0.2-0.6,0.5-1,0.7
							c-0.1-0.1-0.2-0.1-0.3-0.1c-0.6,0-1.2,0-1.8,0c-0.2-0.1-0.4-0.1-0.6-0.2c0-0.1,0-0.2,0.1-0.2c0.1-0.2,0.1-0.4,0.2-0.6
							c-0.3,0.1-0.6,0.2-0.9,0.3c-0.2,0-0.5,0.1-0.7,0.1c-0.4,0.1-0.7,0.1-1,0.2c0.3,0.2,0.6,0.4,1,0.7c0,0,0.1,0.1,0.1,0.1
							c0,0.3,0,0.6-0.1,1c-0.4,0.6,0.2,0.4,0.3,0.7c0,0.1,0,0.1-0.1,0.2c-0.2,0.1-0.3,0.2-0.4,0.3c0,0.3,0,0.6,0.1,1
							c-0.1,0.2-0.3,0.5-0.4,0.8c0.2,0.2,0.4,0.3,0.5,0.5c-0.1,0.1-0.2,0.1-0.4,0.2c0,0.1-0.1,0.3-0.1,0.4c-0.1,0.2-0.2,0.3-0.3,0.5
							c-0.5,0.5,0.6,0.4,0.8,0.7C17.1,16,17,16.3,17,16.6c-0.1,0.2-0.2,0.5-0.3,0.7c0,0.3,0.1,0.6,0.1,0.8c0.2,0.1,0.5,0.2,0.7,0.3
							c0.1,0,0.1,0.1,0.1,0.1c0.1,0.2,0.2,0.4,0.3,0.7c0.2,0.3,0.3,0.6,0.4,0.9c-0.1,0.2-0.6,0.3-0.5,0.6c-0.6,0.1-0.2,0.4-0.2,0.6
							c0,0.2,0,0.4,0,0.5c-0.3,0.3-0.5,0.6-0.7,0.9c0.2,0,0.4,0.1,0.6,0.1c0.1,0.2,0.1,0.4,0.2,0.6c-0.2,0.1-0.5,0.1-0.7,0.1
							c0,0.2,0,0.5,0,0.7c-0.2,0.2-0.5,0.5-0.7,0.7c0,0.1,0.1,0.3,0.1,0.4l0.7,0.4c-0.2,0.1-0.4,0.2-0.6,0.3l0.2,0.5
							c0.6,0.2,0.3,0.5,0.2,0.7c0,0.3,0,0.5,0,0.8c0.6,0.2-0.1,0.7,0.2,1c0.1,0.6-0.3,1.1-0.1,1.6c0,0.6-0.1,1.1-0.1,1.7L16.7,33
							c0.1,0.2,0.6,0.1,0.7,0.3c0,0.1-0.1,0.2-0.1,0.3c0.6,0.4,0.5,0.9,0.3,1c-0.9,0-0.8,0.1-0.9,0.2c0.1,0.2,0.6,0.1,0.8,0.1
							c0.2,0.2,0.4,0.5,0.6,0.7L18,36.1c-0.9,0.3-0.1,1-0.6,1.5c0,0.6-0.1,1.4,0.6,1.9c-0.1,0.2-0.2,0.5-0.3,0.7c-0.1,0-0.2,0-0.3,0
							c-0.4,0.5,0.3,0.5,0.2,0.6c0,0.1,0,0.1-0.1,0.2c-0.9,0.3-1.2,0.9-0.6,1c-0.4,0.5,0.3,0.5,0.2,0.7L17,43.4
							c-0.8,0.5-1.2,0.4-1.6,0.4c-0.2,0.2-0.6,0.7-0.1,1c0.1,0.1,0.3,0.3,0.4,0.4c-0.2,0.2-0.4,0.3-0.6,0.5c0,0.2,0.1,0.6,0.5,0.7
							l-0.4,0.5c0,0.2,0,0.5-0.1,0.7c-0.4,0.1,0,0.5-0.8,0.4c0,0.2,0,0.4,0,0.6c0.8,0.4,1.1,1.1,0.8,1.8c-0.3,0.5-0.4,0.8-0.1,1
							c-0.4,0.7,0.5,0.4,0.3,0.8c-0.1,0.2-0.2,0.3-0.3,0.5c-0.4,0.3,0.3,0.5,0.3,0.8c-0.2,0.1-0.5,0.2-0.7,0.3
							c0,0.5-0.2,0.8,0.5,1.2c-0.2,0.6-0.2,1.2-0.3,1.7c0,0.5-0.1,1-0.1,1.4c-0.1,0.3-0.2,0.7-0.3,1c0,0.1-0.1,0.1-0.2,0.2
							c-0.2,0.2-0.8,0.5-0.4,0.8c-0.2,0.2-0.4,0.3-0.5,0.5c0,0.1,0,0.2,0,0.2c0,0.3,0,0.6,0.1,0.8c0,0.3,0.1,0.6,0.1,0.9
							c0.1,0.2,0.2,0.5,0.3,0.7l0.8,0c0.1,0,0.2,0,0.3-0.1c0-0.2,0-0.4,0.4-0.9c-0.5-0.6-0.3-1,0.1-1c0.2,0.1,0.3,0.2,0.4,0.2
							c-0.1,0.2-0.1,0.5-0.2,0.7c0.5,0.4,0.2,0.8,0.2,1.1c-0.1,0.3-0.1,0.6-0.2,0.8c-0.3,0-0.5,0.1-0.8,0.1c0,0,0,0.1,0,0.1
							c0,0.2,0.1,0.4,0.1,0.6c0.2,0.1,0.3,0.2,0.5,0.3c-0.2,0.2-0.4,0.4-0.6,0.6c-0.2,0-0.4,0-0.6,0c0,0-0.1,0.1-0.2,0.1
							c-0.3,0-0.6,0-1-0.1c0,0.2,0.1,0.5,0.1,0.7c0,0,0,0.1,0,0.1c-0.1,0.2-0.1,0.4-0.2,0.6c0,0.1-0.1,0.1-0.2,0.2l0.3,0.5
							c0.4,0.7,0.5,1.1-0.1,1.4c0,0.1-0.1,0.1-0.2,0.2l0.4,1.3c0.9-0.2,0.4,0.5,0.1,0.6c0.7,0.9,0,1.4,0,2c0,0.3,0.1,0.6,0.1,0.9
							c0.5,1.4-1.6,2.7-0.2,4.1c0,0.3-0.4,0.5-0.1,0.7c0.1,0.4,0.2,0.5,0.3,0.5c0.5,0.2,0.7-0.4,0.2-0.5c0-0.2,0-0.3,0-0.5
							c0.7,0.1,0.1-0.5,0.6-0.6c-0.3-0.4,0-0.9,0-1.4c0.7,0.1,0.6-0.5,0.9-0.6c0.2,0,0.4,0,0.6,0c0,0.6-0.1,1.1-0.1,1.7
							c-0.3,0.2-0.2,0.6,0.1,0.9c0,0.3,0.1,0.7,0.1,1l-0.6,1c0,0.1,0,0.3,0,0.4c0,0.2,0,0.4-0.1,0.6L14.7,84c-0.6,0.6-0.9,1-0.6,1.3
							c0,0.2,0,0.4-0.1,0.6c-0.1,0.2-0.1,0.4-0.2,0.6c0.1,0.3-0.2,0.3-0.5,0.4c-1-0.5-1.6-0.2-1,0.4c0,0.1,0,0.3,0,0.4
							c-0.1,0.2-0.1,0.4-0.2,0.6c-0.6,0.3,0.3,0.6,0.1,1c-0.1,0.3-0.2,0.5-0.4,0.8c0,0.3,0,0.6-0.1,0.8c-0.3,0.7-0.5,1.2,0,1.5
							l0,0.5c-0.2,0.1-0.5,0.3-0.7,0.4c0,0.2-0.2,0.5,0.1,0.7c-0.1,0.8-0.2,1.5-0.4,2.3c0.2,0.1,0.5,0.3,0.4,0.4
							c-0.1,0.2-0.3,0.3-0.5,0.5c-1.1-0.2-0.6,0.7-0.6,1c0.2,0.1,0.5,0.3,0.6,0.4c0,0,0,0.1,0,0.1c-0.2,0.2-0.4,0.5-0.6,0.7l0,0.5
							c-0.3,0.1-0.6,0.1-0.8,0.3c0.3,0.7-0.4,1.3-0.8,1.8c0,0.3,0,0.5-0.1,0.8c0,0.4,0.1,0.7,0.1,1c0,0.2,0,0.4-0.1,0.6
							C7.5,105,8.1,105,8,105.3c0,0.2-0.1,0.3-0.2,0.5c-0.1,0.9-1.4,1.7-1.2,2.6c-0.3,0.7-0.9,1.2-1,2c-0.1,0.5-0.3,1-0.5,1.4
							c-0.2,0-0.4,0-0.8-0.1c-0.2,0.2-0.5,0.5-0.7,0.7c0,0.6-0.2,1.1-0.6,1.6C2.8,114,2.7,113.8,2.5,113.6z"/>
					</g>
					<g>
						<path class="st29" d="M16.8,98.6c-0.3-0.6-0.2-1,0.3-1.1C17.5,98.1,17.5,98.5,16.8,98.6z"/>
					</g>
					<g>
						<path class="st29" d="M17.9,94.6c-0.7-0.7-0.6-1.2,0.1-1.2c0.2,0.2,0.4,0.4,0.6,0.6C18.4,94.2,18.2,94.4,17.9,94.6z"/>
					</g>
					<g>
						<path class="st29" d="M18.5,91.9c-0.6-0.6-0.7-1-0.9-1.3c0.2-0.1,0.4-0.2,1.2-0.3c0.2,0.2,0.4,0.3,0.6,0.5
							c-0.2,0.3-0.4,0.5-0.6,0.8C18.7,91.7,18.6,91.8,18.5,91.9z"/>
					</g>
					<g>
						<path class="st29" d="M20.3,80.9c0.1-0.2-0.5-0.3-0.3-0.5c0.1-0.2,0.3-0.3,0.4-0.5c0.5,0.1,0.3,0.4,0.6,0.6
							C21.1,80.7,20.6,80.7,20.3,80.9z"/>
					</g>
					<g>
						<path class="st29" d="M20.6,77.5L19.8,77l0-0.2c0.2-0.1,0.5-0.3,0.7-0.4c-0.1-0.2-0.3-0.5-0.4-0.7c0-0.1,0.1-0.1,0.2-0.2
							l1.3,0.1c0,0.3-0.1,0.6-0.1,0.9c0.1,0.2,0.2,0.4,0.3,0.5c-0.1,0.2-0.2,0.4-0.4,0.6c-0.1,0.4-0.3,0.9-0.5,1.3
							c-0.1-0.3-0.8-0.5-0.7-0.9C20.3,77.9,20.4,77.7,20.6,77.5z"/>
					</g>
					<g>
						<path class="st29" d="M21.1,67.9l0-0.3c-0.3-0.1-0.6-0.2-1-0.3c0.1-0.3,0-0.7,1-0.9c0.4-0.2,0.8-0.4,1.2-0.6
							c0.5,0.2,0,0.6,0.7,0.8c0,0.2,0,0.3,0,0.4c0,0.4,0,0.9,0.1,1.4c-0.3,0.1-0.4,0.1-0.5,0.1L21.1,67.9z"/>
					</g>
					<g>
						<path class="st29" d="M17.2,65.7c-0.2-0.3,0-0.7,0.3-1.5c0.1,0.5,0.3,1,0.3,1.5C17.7,65.7,17.5,65.7,17.2,65.7z"/>
					</g>
					<g>
						<path class="st29" d="M22.4,65.5c-0.6-0.3-1.6-0.1-1.7-0.7c0.1-0.2,0.2-0.5,0.4-0.7c0.1,0,0.2-0.1,0.3-0.1
							c0.1-0.3,0.2-0.7,0.3-1c0.1-0.1,0.1-0.3,0.2-0.4c0.3,0.1,0.5,0.1,0.8,0.2c0.4,0.3,0.3,0.6,0.5,1.2l0,0.2l0,0.3
							c-0.2,0.2-0.5,0.4-0.7,0.6C22.4,65.2,22.4,65.3,22.4,65.5z"/>
					</g>
					<g>
						<path class="st29" d="M17.3,62.8c0.3-0.1,0.6-0.3,0.8-0.4c0.4,0.3,0.2,0.6,0.3,0.9c-0.2,0.1-0.4,0.1-0.7,0.2
							C17.6,63.3,17.4,63.1,17.3,62.8z"/>
					</g>
					<g>
						<path class="st29" d="M22.8,56.9c-0.3-0.8-0.7-0.9-0.1-1.1c0.6,0.1,0.6,0.6,0.9,0.9c0.1,0.2,0.4-0.3,0.5-0.1
							c0,0.1,0,0.3,0,0.4L22.8,56.9z"/>
					</g>
					<g>
						<path class="st30" d="M15.3,53.5c0-0.3-0.6-0.5-0.3-0.8c0.1-0.2,0.2-0.3,0.3-0.5c0.2-0.4-0.8-0.1-0.3-0.8
							c-0.3-0.3-0.1-0.6,0.1-1c0.3-0.7,0-1.4-0.8-1.8c0-0.2,0-0.4,0-0.6c0.7,0.1,0.4-0.3,0.8-0.4c0-0.2,0-0.5,0.1-0.7l0.4-0.5
							c-0.4-0.1-0.5-0.4-0.5-0.7c0.2-0.2,0.4-0.3,0.6-0.5c-0.1-0.1-0.2-0.3-0.4-0.4c-0.5-0.3-0.1-0.8,0.1-1c0.4,0,0.8,0,1.6-0.4
							l0.1-0.7c0.1-0.2-0.5-0.1-0.2-0.7c-0.6-0.1-0.3-0.7,0.6-1c0.2,0.2,0.5,0.3,0.7,0.5c0,0.1-0.1,0.3-0.1,0.4l-0.2,0.8l-0.2,0.7
							l-0.2,0.8l-0.3,1.2c0,0.4,0,0.8,0,1.2c0,0.4,0.1,0.8-0.3,1.1l-0.3,1c0.2,0.2,0.3,0.5,0.5,0.7c0.1,0.2,0.1,0.4,0.2,0.7
							c-0.2,0.1-0.3,0.4-0.9,0.2c0,0.1-0.1,0.2-0.1,0.3c-0.1,0.3-0.3,0.6-0.4,0.9c-0.1,0.2-0.1,0.4-0.2,0.6l0.5,0.1
							c-0.2,0.4-0.4,0.9-0.5,1.3c-0.2,0.5-0.4,1-0.6,1.5c-0.6-0.4-0.5-0.7-0.5-1.2C14.8,53.8,15.1,53.7,15.3,53.5z"/>
					</g>
					<g>
						<path class="st29" d="M15.7,52.2c0.1-0.2,0.1-0.4,0.2-0.6c0.2-0.3,0.3-0.6,0.4-0.9c0.2,0.1,0.5,0.2,0.7,0.3
							c0.2,0.5-0.2,1-0.8,1.3L15.7,52.2z"/>
					</g>
					<g>
						<path class="st27" d="M24.4,48.3c0.1-0.2,0.2-0.3,0.3-0.5c0.3-0.3-0.2-0.6-0.5-0.7c-0.5,0-0.9-0.1-1.4-0.1
							c0.1-0.5,0.2-1,0.2-1.6c0.5,0.1,1,0.1,1.6,0.2c0,0,0-0.1,0-0.1c0.6,0.1,1.2,0.2,1.7,0.3c0,0.2,0,0.4,0,0.5
							c-0.2,0.9-0.3,1.8-0.5,2.6c-0.2,0-0.5-0.2-1,0C24.7,48.7,24.6,48.5,24.4,48.3z"/>
					</g>
					<g>
						<path class="st29" d="M22.8,47.6c0-0.2,0-0.4,0-0.6c0.5,0,1,0.1,1.4,0.1c-0.2,0.2-0.4,0.5-0.7,0.7L22.8,47.6z"/>
					</g>
					<g>
						<path class="st29" d="M24.7,45.3c-0.5-0.5-0.5-0.7-0.4-1c0.3-0.1,0.4-0.3,0.7-0.2C25.4,44.7,25.3,45.1,24.7,45.3z"/>
					</g>
					<g>
						<path class="st29" d="M21.1,41.6c-0.2-0.2-0.5-0.3-0.7-0.5c0.2-0.1,0.5-0.2,0.7-0.2c-0.2-0.2,0-0.4-0.3-0.8
							c0.7-1.1-0.9-1.8,0.2-3.1c0.4,0.1,0.8,0.3,1.2,0.5c0,1-0.2,1.7,0.4,2.3c-0.2,0.2-0.4,0.4-0.7,0.6c-0.1,0.2-0.1,0.4-0.2,0.7
							c0,0.2,0,0.5,0,0.7C21.4,41.7,21.3,41.6,21.1,41.6z"/>
					</g>
					<g>
						<path class="st30" d="M21.1,37c0-0.1,0.1-0.3,0.1-0.4c-0.1,0-0.1,0-0.2,0c0-0.2-0.1-0.4-0.2-0.6c0,0,0-0.1,0-0.1
							c-0.1-0.3-0.1-0.7-0.2-1c0.1-0.3,0.2-0.5,0.4-0.7c-0.1-0.3-0.1-0.6-0.1-0.9c0,0,0-0.1,0-0.1c0.3,0,0.6,0,0.8,0
							c0.1-0.8,0-1-0.3-1.4l0.1-0.3l0.1-0.2c0-0.2,0-0.3-0.1-0.4c0-0.2,0-0.5,0-0.7c0.2-0.2,0.5-0.4,0.7-0.7
							c0.2,0.2,0.4,0.3,0.5,0.5c0,0.5,0.2,0.9-0.2,1.5c0,0.4,0.1,0.8,0.1,1.3c-0.1,0.2-0.2,0.5-0.4,0.7c0,0.1-0.1,0.3-0.1,0.4
							c0,0.6,0,1.2,0,1.8c0,0.3-0.1,0.7-0.1,1l0.5,0.2c-0.1,0.2-0.2,0.5-0.4,0.7C21.8,37.3,21.5,37.1,21.1,37z"/>
					</g>
					<g>
						<path class="st29" d="M19.7,36.3c0.4-0.1,0.7-0.3,1.1-0.4c0.1,0.2,0.1,0.4,0.2,0.6L19.7,36.3z"/>
					</g>
					<g>
						<path class="st29" d="M21.5,31.7c0.3,0.4,0.4,0.6,0.3,1.4c-0.3,0-0.5,0-0.8,0C21.1,32.8,20.9,32.4,21.5,31.7z"/>
					</g>
					<g>
						<path class="st29" d="M27,33.4c-0.1-0.2-0.2-0.4-0.3-0.6c0-0.1,0.1-0.3,0.1-0.4c-0.1-0.3-0.2-0.5-0.3-0.8
							c-0.4-0.4,0.1-0.7,0.5-0.9c-0.2-0.1-0.4-0.3-0.5-0.4c0.1-0.3,0-0.7,0.4-0.9c0.2,0,0.4,0,0.7,0c0.1-0.3,0.1-0.5,0.2-0.8
							c0.4,0,0.8,0.1,1.1,0.1c0.2,0.2,0.3,0.4,0.5,0.6c-0.5,0.1-1,0.2-1.5,0.2l-0.2,1.4c0.4,0.1,0.8,0.1,1.1,0.1
							c0,0.3-0.1,0.7-0.1,1c-0.2,0.1-0.5,0.1-0.9,0.2c-0.1,0.1-0.1,0.1-0.2,0.2c0.2,0.1,0.4,0.2,0.5,0.4c-0.1,0.2-0.1,0.4-0.2,0.6
							c-0.1,0-0.2,0-0.3,0.1C27.5,33.5,27.3,33.4,27,33.4z"/>
					</g>
					<g>
						<path class="st29" d="M21.5,30.8c0-0.2,0-0.5,0-0.7C21.6,30.3,21.6,30.5,21.5,30.8z"/>
					</g>
					<g>
						<path class="st29" d="M22.2,28.8c-1-0.4-0.1-1-0.6-1.3c-0.2-0.5,0.5-0.4,0.8-0.5c0.1,0,0.1,0,0.2,0c0.2,0.2,0.4,0.5,0.6,0.7
							C22.9,28.1,23.3,28.8,22.2,28.8z"/>
					</g>
					<g>
						<path class="st31" d="M25.4,34.1c-0.3,0-0.6-0.1-1-0.1c0-1.3,0.1-2.7,0.1-4c0-1,0-1.9,0.1-2.9c-0.5-1,0.9-2.4,0.1-3.4
							c0.1-0.5,0.2-0.9,0.2-1.4c0.1-0.3,0.1-0.5,0.2-0.8c0.1-0.2,0.1-0.4,0.2-0.6c-0.2-0.1-0.4-0.3-0.6-0.4c0.1-0.1,0.2-0.3,0.3-0.4
							c0.8,0.2,1.7,0.4,2.5,0.5c0,0.6,0,1.1,0,1.7c-0.2,0.3-0.3,0.5-0.5,0.8c-0.4,0.4,0.3,0.6,0.8,0.8c0,0.1-0.1,0.2-0.1,0.3
							c-0.3,0.2-0.5,0.3-0.8,0.5c-0.4,0.4,0.5,0.6,0.4,0.9c0.2,0.6,0.2,0.9,0.4,1.1l-0.3,1c-0.3,0.2-0.5,0.4-0.8,0.5
							c-0.4,0.4,0.2,0.7,0.4,1.1c-0.4,0.2-0.3,0.6-0.4,0.9c0.2,0.1,0.4,0.3,0.5,0.4c-0.5,0.2-0.9,0.4-0.5,0.9
							c0.1,0.3,0.2,0.5,0.3,0.8c0,0.1-0.1,0.3-0.1,0.4c-0.2,0.2-0.4,0.4-0.6,0.6c-0.1,0.3-0.1,0.5-0.2,0.8
							C25.6,34.1,25.5,34.1,25.4,34.1z"/>
					</g>
					<g>
						<path class="st29" d="M27.3,25.7c0.3-0.1,0.4-0.4,0.7-0.3c0.9,0.3,0.3,0.8,0.3,1.2c-0.2,0.1-0.4,0.2-0.7,0.2
							C27.5,26.6,27.5,26.3,27.3,25.7z"/>
					</g>
					<g>
						<path class="st29" d="M22.2,23.2c0.3-0.3,0.6-0.6,0.9-0.9c0.7,0.5,0.4,0.9,0.3,1.2C22.9,23.4,22.3,23.4,22.2,23.2z"/>
					</g>
					<g>
						<path class="st29" d="M27.1,19.8c-0.1-0.3-0.2-1,0.6-1c1.1,0.3,0.4,0.7,0.7,1c0,0.3-0.3,0.5-0.6,0.6L27.1,19.8z"/>
					</g>
					<g>
						<path class="st29" d="M26.3,17.3l0.1-0.5c-0.3-0.4,0-0.8-0.2-1.1c-0.3-0.1,0-0.4,0-0.6c0,0,0-0.1,0-0.1c0.4,0,0.8-0.1,1.2-0.2
							c0.6,0.1,0.4,0.3,0.4,0.5c-0.1,0.4-0.2,0.7-0.3,1.1c0,0.1,0,0.1-0.1,0.2c0.2,0.3,0.4,0.5,0.6,0.8c-0.1,0.3-0.3,0.6-0.4,0.9
							C27.2,18,26.7,17.6,26.3,17.3z"/>
					</g>
					<g>
						<path class="st27" d="M2.4,116.4c-0.2-0.5-0.4-0.8-0.1-0.9c0-0.3-0.1-0.6-0.1-0.9c0.1-0.3,0.2-0.6,0.2-0.9
							c0.2,0.1,0.4,0.3,0.6,0.5c0,0.1,0,0.2,0,0.3c-0.1,0.4-0.2,0.7-0.3,1.1C2.6,115.9,2.5,116.1,2.4,116.4z"/>
					</g>
					<g>
						<path class="st27" d="M-1.3,111.8c0.6-0.5-0.4-1.1,0.5-1.5l0.8,0.1c0.5-0.2,0.6-0.4,1.2-0.4c0.4-0.8,0.1-1.2,0.6-2
							c0.1-0.3,0.2-0.7,0.3-1c0-0.2,0-0.3,0-0.4c0-0.2,0-0.3,0-0.5c0.6,0,0.2-0.5,0.5-0.7c0.1-0.3,0.2-0.5,0.2-0.8
							c0-0.2,0-0.5,0.1-0.7c0.3,0.1,0.8,0,0.7-0.3c-0.1-0.4,0.7-0.5,0.3-0.9c-0.3,0-0.1-0.3-0.1-0.4c0.4,0,0.3-0.2,0.7-0.3
							c0.1-0.5-1.3-0.7-0.5-1.3c0.4-0.5,1.1-1,0.7-1.7C3.1,97.5,7,98,5,96.9c-0.2-0.2,0.4-0.3,0.4-0.5c0-0.4-0.1-0.9-0.1-1.3
							c0.7-0.1,0-1,0.7-1.1C5.9,93.7,5.6,93.3,6,93c0.3-0.6,0.3-1,0.6-1.5c-0.2-0.3,0.9-0.6,0.1-0.8c-0.6-0.1-0.2-0.6-0.3-0.8
							c0.7-0.2,0.1-1.1,0.9-1.2c0.1-0.5,0.3-0.9,0.5-1.4l-0.5-0.5c0.5-2.5,1.2-4.5,1.4-7.2c0.8-0.7-0.6-1.1,0.2-1.9
							c0.4-0.9,0.1-1.7,0.5-2.5c0.5-0.3-0.3-0.4-0.1-0.6c-0.2-1,0.6-1.5,0.8-2.3c0.5,0.8,0.1,2,0.1,3c0.1,0.4-0.8,0.4-0.1,0.6
							c-0.1,0.2,0.1,0.4-0.2,0.5c-0.5,2.2-0.4,4.8-0.9,7c-0.5,1,0,2.5-1,3.8c0,0.5-0.1,1-0.1,1.4c0.3,0.5-0.1,1.1-0.4,1.5
							c0.4,1.2-0.5,2.3-0.5,3.3c-0.7,0.8,0.5,1.8-0.7,2.5l0,0.5c0.3,1.1-0.2,2.2-0.6,3.2c0.2,0.3-1.1,0.4-0.2,0.7
							c0,0.2,0.1,0.4-0.2,0.5c-0.2,0.4-0.5,1.4,0,2c-0.2,0.3-0.4,0.5-0.5,0.8c-0.2,0.2-0.2,0.3-0.7,0.8l0,0.5
							c-0.3,0.1-0.7,0.2-1,0.2c0.2,0.3,0.2,0.4,0.6,0.7l0,0.5c0,0.1,0,0.2,0,0.3c0.4,0.4-0.2,0.8-0.5,1.4c0.7,0.6-0.8,1-0.1,1.6
							c0.6,0.6-0.6,0.7-0.8,1.5c-0.1,0.2-0.1,0.5-0.2,0.7c-0.1-0.1-0.3-0.1-0.4-0.2c-0.3,0-0.6,0-1-0.1c-0.3,0.2-0.6,0.5-0.9,0.7
							c0,0.2,0.1,0.5-0.4,0.6C-1.6,112.9-0.9,112.1-1.3,111.8z"/>
					</g>
					<g>
						<path class="st27" d="M2.5,113.2c-0.5-0.2-0.3-0.5-0.3-0.6C2.5,112.6,2.9,112.6,2.5,113.2z"/>
					</g>
					<g>
						<path class="st31" d="M12.2,101.9c-1.1-1.4-0.1-2.4-0.5-3.6c0.6-0.4,0.1-0.5,0.2-0.7c0.4-0.8,0.3-1.3,0.9-1.5
							c0.1-0.4,0.2-0.7,0.3-1.1c-0.3-0.6,0.5-1-0.2-1.7l0-0.2c0.2-0.1,0.5-0.3,0.7-0.4c-0.2-0.2-0.3-0.3-0.5-0.5
							c0.5-0.5,0.5-0.8,0.3-1c0.1-0.3,0.2-0.5,0.2-0.8c0-0.4,0.1-0.8,0.1-1.3c0-0.1,0-0.3,0-0.4c0.5-0.5,0.7-0.7,0.4-0.9
							c-0.6-0.3,0.4-0.1,0.2-0.5c0-0.4,0.2-0.8,0-1.3c0.1-0.2,0.1-0.4,0.2-0.6c0.2-0.1,0.3-0.1,0.5-0.2c-0.1-0.4-0.3-0.8-0.4-1.2
							l0.2-1.8c0-0.2,0-0.4,0.1-0.6c0-0.1,0-0.3,0-0.4l0.6-1c0-0.4-0.1-0.7-0.1-1c-0.2-0.2-0.4-0.6-0.1-0.9c0-0.5,0.1-1.1,0.1-1.7
							c0.1,0,0.1-0.1,0.2-0.1c0.6-0.6-0.1-0.6-0.1-0.7c-0.1-0.4-0.2-0.8-0.4-1.3c0-0.2,0-0.5,0.1-0.7l1.2-1.5c0-0.1-0.1-0.2-0.1-0.3
							c-0.1,0-0.1-0.1-0.2-0.1c0.1-0.7,0.2-1.5,0.4-2.2l0.3,0c0.4-0.4,0.4-0.5,0.4-0.6c0.3-0.1,0.7-0.2,1.1-0.2
							c-0.5-0.2-0.9-0.4-1.4-0.6c0-0.2,0-0.4,0.1-0.6l0.5,0c0.1,0.3,1.1,0.3,1.2,1c0,0.1-0.1,0.1-0.2,0.2c0.1,0.1,0.1,0.3,0.1,0.4
							c-0.3,0.3-0.6,0.5-0.9,0.8l-0.1,0.8c0,0.1,0,0.3,0,0.4c0.3,0.2,0.1,0.5-0.3,1.2c-0.1,1.2-0.2,2.4-0.3,3.5c0,0.3,0,0.5-0.1,0.8
							c0.2,0.5,0.3,1.2-0.2,1.9c0.1,0.2,0.4,0.4,0.3,0.6c-0.6,0.4-0.3,1-1,1.7c-0.1,0.3-0.2,0.6-0.2,0.9c-0.1,0.8,0,1.7,0.1,2.5
							c-0.3,0.2-0.5,0.4-0.7,0.6c0.6,0.6,0.7,1.4,0.3,2.1c-0.3,1-0.6,2.1-0.9,3.1c0,0.3-0.2,0.6,0.2,0.8l0,0.3
							c-0.4,0.6-0.3,0.8-0.2,0.9c-0.1,0.2-0.1,0.3-0.2,0.5L14.4,95c-0.2,0.1-0.4,0.1-0.7,0.2c0.1,0.2,0.2,0.4,0.3,0.5
							c0,0.1,0,0.3,0,0.4l-0.1,0.7c-0.4,0.2-0.1,1.1-0.5,1.3C12.8,99.3,12.9,100.7,12.2,101.9z"/>
					</g>
					<g>
						<path class="st27" d="M13.7,95.2c0.2-0.1,0.4-0.1,0.7-0.2c0.3,0.2,0.5,0.7-0.4,0.7C13.9,95.5,13.8,95.4,13.7,95.2z"/>
					</g>
					<g>
						<path class="st27" d="M18.6,93.9c-0.2-0.2-0.4-0.4-0.6-0.6c0.2-0.5,0.3-1,0.5-1.5c0.1-0.1,0.2-0.2,0.3-0.3
							c0.2-0.3,0.4-0.5,0.6-0.8c0,0,0.1,0,0.2,0c0,0.2,0.1,0.4,0.1,0.6c0,0.2,0.1,0.4,0.1,0.6c0.2,0.4-0.8,0.5-1,0.7
							c0.3,0.2,0.9,0.1,0.9,0.4l0,0.5c0,0.1-0.1,0.2-0.2,0.3c0,0-0.1,0-0.1,0C19.1,94,18.9,93.9,18.6,93.9z"/>
					</g>
					<g>
						<path class="st27" d="M15,91.5c0.3,0.3,0.5,0.9-0.2,0.9C14.7,92.3,14.6,92.1,15,91.5z"/>
					</g>
					<g>
						<path class="st27" d="M22,74.2c-0.1-0.2-0.3-0.5-0.4-0.8c0,0,0-0.1,0-0.1c0.2-0.4,0.5-0.7,0.7-1.1c-0.2-0.2-0.3-0.3-0.4-0.5
							c0.5-0.4-0.2-1.2,0.4-1.5c0.1-0.3,0.2-0.6,0.2-0.9l0.1-0.7c0,0,0-0.1,0-0.1c0.1,0,0.2,0,0.5-0.1l0.8,0.6
							c-0.1,0.2,0.1,0.6-0.2,0.7c-0.1,0.2-0.2,0.5-0.2,0.7c0,0.2,0.1,0.4,0.1,0.6c0.6,0.2,0.2,0.6,0.2,0.8c-0.1,0.1-0.3,0.2-0.5,0.4
							c0.4,0.4,0.4,0.6,0.4,0.9c-0.2,0.1-0.4,0.3-0.8,0.2c0,0,0,0.1,0,0.1c0.2,0.2,0.4,0.3,0.6,0.5c-0.1,0.2,0.1,0.5-0.2,0.6
							C22.8,74.2,22.2,74.4,22,74.2z"/>
					</g>
					<g>
						<path class="st27" d="M10.2,72c-0.4-0.6-0.2-0.9,0-1.6c0-0.2-0.1-0.4-0.1-0.6c0.1-0.3,0.1-0.6,0.2-0.8c0.2-1,0.4-2.1,0.6-3.1
							c0.2,0.9-0.1,1.8-0.3,3.1c0.3,0.2,0.1,0.4-0.1,0.8c0,0.2,0,0.4-0.1,0.6c0.3,0.4,0,0.7,0.1,1C10.5,71.7,10.4,71.9,10.2,72z"/>
					</g>
					<g>
						<path class="st27" d="M10.9,65.7c-0.4-0.3-0.4-0.4-0.4-0.7c-0.2-0.1-0.4-0.2-0.6-0.3c-0.3-0.5,0.6-0.4,0.6-0.8
							c0.7-0.3-0.7-1.1,0.7-0.9c1.2,0.7-0.5,1-0.2,2.1C11,65.3,11,65.5,10.9,65.7z"/>
					</g>
					<g>
						<path class="st27" d="M11,61.4c-0.8-0.7-0.9-2.1-0.2-3c-0.3-0.1-0.3-0.3-0.4-0.4c0.1-0.2,0.3-0.3,0.5-0.5c0.4,0,0.8,0,1.1,0.1
							l0.1,1.8c-0.3,1-0.3,1.7-0.9,2.9C11.2,61.9,11.1,61.7,11,61.4z"/>
					</g>
					<g>
						<path class="st27" d="M12.1,56.4c0.2-1.2,0.6-2.5,1-3.7c0.3,0,0.4,0.3,0.5,0.5c0.5,0.5-0.5,0.3-0.3,0.8
							c0.6,0.4-0.3,1.4,0.3,1.7c-0.2,0.2-0.4,0.5-0.6,0.7c-0.2,0-0.4,0-0.6,0.1C12.3,56.5,12.2,56.4,12.1,56.4z"/>
					</g>
					<g>
						<path class="st27" d="M10,51.2c0.1-0.2,0.1-0.4,0.2-0.6c0.3,0.1,0.4-0.1,0.4-0.3c0.5-0.6,0.5-1.9,0.3-2.6
							c0.3-0.3,1-0.4,1.2-0.8c0-0.6,0.4-1.2,0.7-1.8c-0.5-0.9,0.1-1.7,0.3-2.3c0-0.1,0-0.2,0.1-0.2c-0.5-0.4-0.2-0.9-0.1-1.3
							c0.1-0.3,0.1-0.5,0.2-0.8c-0.5-0.7,0.6-1.9,0.1-2.6c0.4,0.1,0.3-0.3,0.8-0.1c0.2,0,0.3,0,0.5,0.1c0.2,0.8-0.5,1.6-0.3,2.3
							c-0.1,0.2-0.2,0.3-0.3,0.5c-0.1,0.2-0.1,0.4-0.2,0.6c-0.1,0-0.2,0.1-0.4,0.1c0.3,0.2-0.2,0.6,0.4,0.9l-0.1,0.2
							c0,0.2,0,0.4,0,0.6c0,0.1,0.1,0.3,0.1,0.4c-0.1,0.2-0.1,0.4-0.2,0.6c-0.2,0.3,0.1,0.4,0,0.5c-0.1,0.2-0.3,0.3-0.5,0.5
							c-0.1,0.1,0.2,0.2,0.2,0.6c-0.1,0.4-0.3,0.7-0.5,1.1c-0.1,0.2-0.4,0.5,0.2,0.7c0,0.1-0.1,0.3-0.1,0.4l-0.3,1
							c-0.2,0.3-0.5,0.7-0.2,0.9c0.3,0.2-0.2,0.6,0.4,0.8c-0.2,0.1-0.4,0.3-0.6,0.5c0.1,0.3,0.3,0.4,0.2,1c-0.3-0.1-0.6-0.2-0.9-0.3
							l-0.9,0.2C10.5,51.7,9.6,51.7,10,51.2z"/>
					</g>
					<g>
						<path class="st27" d="M7.8,50.4c0.7-0.3,0.1-2,1.4-1.1c-0.1,0.2-0.1,0.4-0.2,0.6c0,0.1,0,0.1-0.1,0.2
							c-0.1,0.2-0.3,0.4-0.5,0.6C8.2,50.7,8.2,50.4,7.8,50.4z"/>
					</g>
					<g>
						<path class="st27" d="M23.5,49.4c-0.8-0.1-1-0.2-1-0.7c-0.4-0.5-0.7-0.9,0.1-1c0.1-0.1,0.2-0.1,0.2-0.2l0.8,0.1
							c0.2,0.2,0.4,0.3,0.5,0.5c-0.2,0.2-0.3,0.4-0.5,0.6C23.6,49,23.5,49.2,23.5,49.4z"/>
					</g>
					<g>
						<path class="st27" d="M24.8,40.8c-0.8,0-1-0.2-1.1-0.8c-0.1-0.1-0.3-0.2-0.4-0.3c0.4-0.2,0.8-0.5,1.2-0.7c0.3,0,0.6,0.1,1,0.1
							c0,0.1-0.1,0.3-0.1,0.4c-0.2,0.1-0.3,0.2-0.4,0.4C24.8,40.3,24.8,40.5,24.8,40.8z"/>
					</g>
					<g>
						<path class="st30" d="M24.4,39.1c0-0.1,0-0.2-0.1-0.3c0.1-0.2,0.3-0.3,0.5-0.5c-0.1-0.2-0.1-0.4-0.2-0.7c-0.2,0-0.3,0-0.5-0.1
							c0.1-0.2,0.1-0.4,0.2-0.6c0.1-0.2,0.1-0.4,0.2-0.6c-0.2-0.4,0.1-0.8-0.3-1.4c0.1-0.2,0.1-0.4,0.2-0.6c0-0.1,0.1-0.2,0.1-0.3
							c0.3,0,0.7,0.1,1,0.1c0.1,0,0.2,0,0.5,0.1c0.2,0,0.4,0.1,0.6,0.2c0,0.1-0.1,0.2-0.1,0.3c-0.1,0.1-0.2,0.3-0.3,0.4l-0.1,0.9
							c0,0.2,0,0.4,0,0.6c-0.1,0.4-0.2,0.7-0.3,1.1c0,0.6,0.5,1.2-0.4,1.5C25,39.1,24.7,39.1,24.4,39.1z"/>
					</g>
					<g>
						<path class="st27" d="M23.7,38.7c0.1-0.4,0.3-0.7,0.5-1.1c0.1,0,0.3,0,0.5,0.1c0,0.3,0.1,0.5,0.2,0.7
							c-0.2,0.2-0.3,0.3-0.5,0.5C24.1,38.7,23.9,38.7,23.7,38.7z"/>
					</g>
					<g>
						<path class="st30" d="M17.6,40.8c0.1-0.2-0.6-0.1-0.2-0.6c0.2-0.2,0.5-0.4,0.7-0.7c-0.7-0.5-0.7-1.3-0.6-1.9
							c0.4-0.5-0.3-1.2,0.6-1.5l0.1-0.5c-0.2-0.2-0.4-0.5-0.6-0.7c-0.2,0-0.6,0.1-0.8-0.1c0-0.1,0-0.3,0.9-0.2
							c0.3-0.1,0.4-0.6-0.3-1c0-0.1,0.1-0.2,0.1-0.3c-0.1-0.3-0.6-0.1-0.7-0.3l0.1-0.5c0-0.6,0.1-1.1,0.1-1.7
							c-0.2-0.5,0.2-1,0.1-1.6c-0.3-0.3,0.4-0.8-0.2-1c0-0.3,0-0.6,0-0.8c0.2-0.2,0.4-0.5-0.2-0.7l-0.2-0.5c0.2-0.1,0.4-0.2,0.6-0.3
							l-0.7-0.4c0-0.1,0-0.3-0.1-0.4c0.2-0.3,0.5-0.5,0.7-0.7c0-0.3,0-0.5,0-0.7c0.2,0,0.5-0.1,0.7-0.1c0.2,0,0.3,0,0.5,0.1
							c0.4-0.5,0.2-0.7-0.1-0.7c-0.2,0-0.3,0-0.5,0c-0.2,0-0.4,0-0.6-0.1c0.3-0.3,0.5-0.6,0.7-0.9c0.5,0.3,0.2,0.5,0.5,0.7
							c0.9-0.3,0.3-1.5,1.4-1.2c0.1,0.3,0.3,0.3,0.5,0.7c0.2-0.1,0.5-0.1,0.7-0.1l0.7-0.7c0.1,0,0.2,0,0.3,0
							c0.1,0.2,0.1,0.4,0.2,0.5l-0.4,0.5l-0.2,0.8c-0.2,0-0.5,0.1-0.7,0.1c0,0.6,0,1.4-0.7,1.8c0,0.2,0,0.4,0,0.6
							c-0.2,0.2-0.4,0.4-0.5,0.7c0.3,0.2-0.4,0.7,0.3,0.8c-0.1,0.3-0.2,0.6-0.2,0.9c0.2,0,0.3,0.1,0.5,0.2l0,0.2l-0.6,0.4
							c-0.2,0.9,0,1.4,0.3,2.6c-0.7,0.7-0.2,0.9,0.1,1.1l0.3,0c0.3,0.2,0.4,0.4,0.7,0.6c-0.5,0-0.8,0.2-0.8,0.4
							c-0.1,0.2-0.2,0.3-0.3,0.5c0.1,0.2,0.1,0.3,0.2,0.6c-0.2,0.2-0.3,0.5-0.5,0.8c0.1,0.3,0.2,0.5,0.3,0.8
							c-0.8,0.8,0.3,1.5-0.7,1.9c-0.1,0.4-0.1,0.9-0.2,1.3c0,0.2,0,0.4,0,0.6c-0.3,0-0.6,0.1-0.8,0.1C17.7,40.4,17.6,40.6,17.6,40.8
							z"/>
					</g>
					<g>
						<path class="st27" d="M14,37.4c-0.9-0.5-0.3-0.6-0.2-0.9c-0.6-0.2-0.3-0.4,0.3-0.7c0,0,0-0.1,0-0.1c0.1,0.1,0.2,0.1,0.3,0.1
							c0,0.2,0,0.4,0,0.5c-0.1,0.1-0.2,0.1-0.4,0.2C14.1,36.9,14.1,37.1,14,37.4z"/>
					</g>
					<g>
						<path class="st27" d="M25.9,34.2c0.1-0.3,0.1-0.6,0.2-0.8c0.2-0.2,0.4-0.4,0.6-0.6c0.1,0.2,0.2,0.4,0.3,0.6
							c0.2,0.1,0.4,0.1,0.6,0.2c0.1,0,0.2-0.1,0.3-0.1c0.4,0.3,0.4,0.4-0.4,0.7c0,0-0.1,0-0.1,0c-0.2,0-0.4-0.1-0.7-0.1l-0.4,0.3
							C26.3,34.3,26.1,34.2,25.9,34.2z"/>
					</g>
					<g>
						<path class="st27" d="M27.7,30.9c0,0-0.1-0.1-0.1-0.1c0.1-0.4,0.2-0.8,0.3-1.2c0.5-0.1,1-0.1,1.5-0.2c0.4,0.6,0,0.9,0,1.2
							c-0.5,0-0.6,0.3-0.6,0.6C28.5,31,28.1,31,27.7,30.9z"/>
					</g>
					<g>
						<path class="st27" d="M27,29.4c-0.1-0.4-0.7-0.7-0.4-1.1c0.2-0.2,0.5-0.4,0.8-0.5c0.2,0.1,0.4,0.3,0.5,0.4
							c0.3-0.1,0.6-0.1,0.8-0.1c0.8,0.3,0.2,0.6,0.2,0.7c-0.4,0-0.8-0.1-1.1-0.1c-0.1,0.3-0.1,0.5-0.2,0.8
							C27.4,29.4,27.2,29.4,27,29.4z"/>
					</g>
					<g>
						<path class="st27" d="M27.3,25.7c0-0.3-0.8-0.5-0.4-0.9c0.3-0.2,0.5-0.4,0.8-0.5c0.3,0.6,0.5,0.8,0.4,1.1
							C27.8,25.3,27.6,25.6,27.3,25.7z"/>
					</g>
					<g>
						<path class="st27" d="M27.8,23.9c-0.5-0.2-1.1-0.5-0.8-0.8c0.2-0.3,0.3-0.5,0.5-0.8c0.2,0.1,0.4,0.2,0.6,0.4
							C28,23.1,27.9,23.5,27.8,23.9z"/>
					</g>
					<g>
						<path class="st27" d="M26.6,13.6c0.1,0,0.2,0,0.4-0.1c0.8,0.6,0.5,0.9,0.5,1.2c-0.4,0.1-0.8,0.1-1.2,0.2
							C26.3,14.5,26.4,14.1,26.6,13.6z"/>
					</g>
					<g>
						<path class="st27" d="M27.1,12.9L28,12c-0.1-0.1-0.2-0.2-0.4-0.4c0-0.5-0.5-0.6-0.3-1c0.1-0.6,0.3-1.3,0.2-1.8
							c-0.3-0.2,0-0.5,0-0.7c0.1,0,0.1,0,0.2,0c0.1,0.9,1,1,0.7,1.6c0.3,0.1,0,0.5-0.1,0.9c0.1,0.2,0.3,0.3,0.4,0.5
							c-0.2,0.3,0,0.5,0.1,0.9l0.3,0.8C28.3,12.9,27.9,12.7,27.1,12.9C27.1,12.9,27.1,12.9,27.1,12.9z"/>
					</g>
					<g>
						<path class="st30" d="M21.1,9.4c0.4-0.2,0.7-0.5,1-0.7c0.3,0,0.5,0.1,0.8,0.1c0-0.1,0.1-0.3,0.1-0.4C23,8.2,22.9,8,22.9,7.9
							c0.3-0.4,0.4-0.4,0.7-0.3c0.4,0,0.8,0,1.2,0c0.6,0,1.1-0.1,1.7-0.1c0.1,0.2,0.2,0.4,0.3,0.6c-0.3,0.2-0.6,0.3-1,0.5l-0.1,0.9
							c-0.2,0-0.3,0-0.5,0C24.8,9.3,24.4,9.1,24,9c-0.2,0-0.4,0.1-0.5,0.2c-0.1,0-0.2,0-0.3,0c-0.2,0.2-0.5,0.4-0.6,0.6
							c-0.4,0-0.8,0-1.1,0C21.3,9.6,21.2,9.5,21.1,9.4z"/>
					</g>
					<g>
						<path class="st27" d="M22.2,8.6C22.1,8.5,22,8.3,22,8.2c0.3-0.1,0.6-0.2,0.9-0.3C22.9,8,23,8.2,23.1,8.3
							c0,0.1-0.1,0.3-0.1,0.4C22.7,8.7,22.5,8.7,22.2,8.6z"/>
					</g>
					<g>
						<path class="st30" d="M8,105.3c0.1-0.2-0.5-0.3,0.4-0.7C8.3,104.8,8.1,105,8,105.3z"/>
					</g>
					<g>
						<path class="st30" d="M8.4,103.9c0-0.3,0-0.7-0.1-1c0-0.3,0-0.5,0.1-0.8c0.4-0.5,1.1-1.2,0.8-1.8c0.2-0.2,0.6-0.2,0.8-0.3
							l0-0.5c-0.4-0.5,0-0.5,0.6-0.8c-0.1-0.1-0.4-0.2-0.6-0.4c-0.1-0.3-0.6-1.3,0.6-1c0.2-0.2,0.4-0.3,0.5-0.5
							c0-0.2-0.3-0.3-0.4-0.4c0.1-0.8,0.2-1.5,0.4-2.3c-0.3-0.2-0.1-0.5-0.1-0.7c0.2-0.1,0.5-0.3,0.7-0.4l0-0.5
							c-0.5-0.3-0.3-0.8,0-1.5c0-0.3,0-0.5,0.1-0.8c0.2-0.3,0.3-0.5,0.4-0.8c0.2-0.4-0.6-0.7-0.1-1c0.1-0.2,0.2-0.4,0.2-0.6
							c0-0.1,0-0.3,0-0.4c-0.6-0.5,0-0.9,1-0.4c0.3-0.1,0.6-0.1,0.5-0.4c0.1-0.2,0.2-0.4,0.2-0.6c0-0.2,0-0.4,0.1-0.6
							c-0.3-0.3,0-0.8,0.6-1.3c0.1,0.4,0.3,0.8,0.4,1.2c-0.2,0.1-0.3,0.1-0.5,0.2c-0.1,0.2-0.1,0.4-0.2,0.6c0.2,0.4,0,0.9,0,1.3
							c0.3,0.4-0.8,0.3-0.2,0.5c0.3,0.2,0.1,0.4-0.4,0.9c0,0.2,0,0.3,0,0.4c0,0.4-0.1,0.8-0.1,1.3c-0.1,0.3-0.1,0.6-0.2,0.8
							c0.2,0.2,0.2,0.5-0.3,1c0.2,0.2,0.3,0.4,0.5,0.5c-0.2,0.1-0.5,0.3-0.7,0.4c0.1,0.2,0.3,0.4,0.4,0.6c0,0.3-0.1,0.6-0.4,0.6
							c-0.4,0.2,0.1,0.4,0.1,0.6c-0.1,0.4-0.2,0.7-0.3,1.1c-0.6,0.2-0.5,0.7-0.9,1.5c0,0.2,0.4,0.3-0.2,0.7c0.4,1.2-0.6,2.2,0.5,3.6
							c0,0.4,0,0.8,0,1.1c-0.1,0.2-0.2,0.3-0.3,0.5c-0.1,0.3-0.1,0.5-0.2,0.7c-0.4,0.1-1.1,0.2-1.8,0.1
							C9.4,104.2,8.9,104.1,8.4,103.9z"/>
					</g>
					<g>
						<path class="st30" d="M17.5,96.5c-0.5-0.8-0.4-1.3,0.3-1.4C18.4,95.4,18.2,95.9,17.5,96.5z"/>
					</g>
					<g>
						<path class="st30" d="M19.5,85.6c-0.2-0.2-0.1-0.4,0.2-0.9C20.1,85,20.2,85.5,19.5,85.6z"/>
					</g>
					<g>
						<path class="st30" d="M12.7,80.8c0.9,0.1,0.8,0.4,0.4,0.8C12.2,81.8,12.8,81.1,12.7,80.8z"/>
					</g>
					<g>
						<path class="st30" d="M13,79.6c-0.4-0.2,0.1-0.5,0.1-0.7c-1.4-1.3,0.7-2.6,0.2-4.1c0-0.3-0.1-0.6-0.1-0.9c0-0.6,0.7-1.1,0-2
							c0.3-0.1,0.7-0.8-0.1-0.6l-0.4-1.3c0.1-0.1,0.1-0.1,0.2-0.2c0.6-0.3,0.5-0.8,0.1-1.4l-0.3-0.5c0-0.1,0.1-0.1,0.2-0.2
							c0.1-0.2,0.2-0.4,0.2-0.6c0,0,0-0.1,0-0.1c0-0.2-0.1-0.5-0.1-0.7c0.3,0,0.7,0,1,0.1c0.1,0,0.1-0.1,0.2-0.1c0.2,0,0.4,0,0.6,0
							c0.2-0.2,0.4-0.4,0.6-0.6c-0.2-0.1-0.3-0.2-0.5-0.3c0-0.2-0.1-0.4-0.1-0.6c0,0,0-0.1,0-0.1c0.3-0.1,0.5-0.1,0.8-0.1
							c0,0.4,0.1,0.8,0.1,1.2l-0.4,0.8c0.7,0.4-0.1,0.8,0,1.2c0.2,0.4,0.4,0.8,0.6,1.2c-1.1,0.7,0,1.7-0.7,2.6
							c0.1,0.1,0.2,0.2,0.9,0.5c0.1,0,0.1-0.1,0.2-0.1c0,0,0.1,0.1,0.2,0.1c0,0.1,0.1,0.2,0.1,0.3l-1.2,1.5c0,0.2,0,0.5-0.1,0.7
							c0.1,0.4,0.2,0.9,0.4,1.3c0,0.2,0.7,0.1,0.1,0.7c0,0-0.1,0.1-0.2,0.1c-0.2,0-0.4,0-0.6,0c-0.2,0.1-0.2,0.7-0.9,0.6
							c0,0.5-0.2,1,0,1.4c-0.4,0.1,0.1,0.6-0.6,0.6c0,0.2,0,0.3,0,0.5c0.5,0.1,0.3,0.7-0.2,0.5C13.2,80.1,13,80,13,79.6z"/>
					</g>
					<g>
						<path class="st30" d="M17.1,76.9c0-0.3,0-0.5,0.1-0.8c0.1,0,0.1,0,0.2,0C17.2,76.4,17.1,76.6,17.1,76.9z"/>
					</g>
					<g>
						<path class="st30" d="M20.2,75.4c0.1-0.2-0.3-0.3-0.2-0.6c0.1-0.2,0.1-0.4,0.2-0.6c0-0.3-0.1-0.6-0.1-0.9c-0.2,0-0.4,0-0.6,0
							l0.2-1.2c0-0.2,0-0.5-0.1-0.7c0-0.1,0-0.3,0-0.4c0.3,0,0.5-0.1,0.8-0.2c0.1-0.2,0-0.4-0.1-0.6c-0.2,0-0.4,0-0.6,0
							c-0.4-0.3-0.7-0.5-1.1-0.8c0-0.1-0.1-0.3-0.1-0.4c0.1-0.1,0.1-0.1,0.2-0.2c0.3-0.1,0.7-0.2,1-0.2c0.1-0.3-0.2-0.5-0.1-0.7
							c0.2-0.1,0.4-0.3,0.5-0.4c0.3,0.1,0.7,0.2,1,0.3l0,0.3l1.6,0.6c0,0,0,0.1,0,0.1l-0.1,0.7c-0.1,0.3-0.2,0.6-0.2,0.9
							c-0.1,0.4-0.2,0.8-0.2,1.1c-0.6,0.3,0.4,0.5,0.2,0.9c-0.2,0.4-0.5,0.7-0.7,1.1c0,0,0,0.1,0,0.1c0.1,0.2,0.3,0.5,0.4,0.8
							c-0.1,0.2-0.2,0.4-0.4,0.6c0.3,0.2,0.1,0.5-0.1,0.7L20.2,75.4z"/>
					</g>
					<g>
						<path class="st30" d="M17,67.6c0-0.4,0.1-0.8,0.1-1.1c0-0.3,0-0.5,0.1-0.8c0.2,0,0.4,0,0.6,0c0,0.3,0,0.5-0.1,0.8
							c-0.1,0.4-0.2,0.8-0.2,1.1L17,67.6z"/>
					</g>
					<g>
						<path class="st30" d="M21.8,62.6c0-0.5,0.1-1.1,0.1-1.7c0.4,0,0.6-0.5,1.1-0.3c0.1,0,0.1,0,0.2,0c0.8,0.6-0.5,0.9-0.1,1.6
							c-0.2,0.2-0.3,0.4-0.5,0.6C22.4,62.7,22.1,62.6,21.8,62.6z"/>
					</g>
					<g>
						<path class="st30" d="M24.1,48.2c-0.2-0.2-0.4-0.3-0.5-0.5c0.2-0.2,0.5-0.4,0.7-0.7c0.1,0,0.1,0,0.2-0.1
							c0.7,0.4,0.1,0.9,0,1.3c0.1,0.2,0.3,0.5,0.5,0.7c-0.2,0.3-0.4,0.6-0.6,0.9c-0.4,0-0.8-0.2-0.8-0.4
							C23.7,49,23.9,48.6,24.1,48.2z"/>
					</g>
					<g>
						<path class="st30" d="M20.7,42.4c0.1-0.3,0.3-0.5,0.4-0.8c0.2,0,0.3,0,0.6,0.1c-0.1,0.3-0.2,0.6-0.2,0.9L20.7,42.4z"/>
					</g>
					<g>
						<path class="st30" d="M25,43c-0.6-0.7-0.3-1.2-0.1-1.6l-0.2-0.5c0-0.3,0-0.5,0-0.8c0.1-0.1,0.3-0.3,0.4-0.4
							c0.2,0,0.4,0.1,0.6,0.1c0,0.1,0.1,0.1,0.1,0.2c-0.2,0.5-0.4,1-0.6,1.5C25.6,42.1,25.8,42.7,25,43z"/>
					</g>
					<g>
						<path class="st31" d="M17.7,21.8c0-0.2,0-0.4,0-0.5c0-0.2-0.5-0.5,0.2-0.6c-0.1-0.3,0.4-0.4,0.5-0.6c-0.1-0.3-0.2-0.6-0.4-0.9
							c0.3-0.1,0.5-0.1,0.7-0.2l-0.2-0.5c0-0.2-0.1-0.4-0.2-0.7c0.1-0.2,0.3-0.5,0.4-0.7c-0.1-0.4-0.4-1.1,0.4-1.3
							c-0.1-0.1-0.1-0.2-0.2-0.3c-0.3,0-0.7-0.1-1-0.1c0-0.1-0.1-0.2-0.1-0.3c0.2-0.2,0.3-0.4,0.5-0.7c0-0.2-0.1-0.3-0.1-0.4
							c0.1-0.4,0.3-0.8,0.5-1.2c-0.2-0.1-0.3-0.1-0.5-0.2c0-0.3,0.1-0.6,0.1-0.9c-0.3,0-0.6-0.1-0.9-0.1c0-0.1,0-0.1,0.1-0.2
							c-0.1-0.2-0.7-0.1-0.3-0.7c0.1-0.3,0.1-0.6,0.1-1c0,0-0.1-0.1-0.1-0.1c0,0,0.1-0.1,0.2-0.1c0-0.2-0.1-0.5-0.1-0.8
							c0.2,0,0.5-0.1,0.7-0.1l0.7,0.3c0,0.1,0,0.1-0.1,0.2c0.2,0,0.4,0.1,0.6,0.2c0.6,0,1.2,0,1.8,0c0.1,0,0.2,0.1,0.3,0.1
							c0.1,0.1,0.2,0.2,0.3,0.3c-0.1,0.1-0.1,0.1-0.2,0.2l-1.8,0.5c0,0.2,0.1,0.3,0.1,0.4L19.1,11c0,0.2,0.1,0.4,0.1,0.7l-0.1,1
							c0.2,0.3,0.4,0.5,0.6,0.8c0.4-0.2,0.8-0.4,1.1-0.6c0.1,0.2,0.6,0.3,0.3,0.6c-1.1,0.6,0.1,1.1-0.3,1.9
							c-0.1,0.2-0.1,0.5-0.2,0.7c0.3,0.3-0.2,0.5-0.2,0.7c0.7,0.6-0.1,1.4,0.6,2c0,0.4,0,0.8,0,1.2c0.1,0.1,0.3,0.3,0.4,0.5
							c-0.1,0.1-0.2,0.2-0.2,0.3l0.2,0.5l-0.7,0.7c-0.2,0-0.5,0.1-0.7,0.1c-0.2-0.4-0.4-0.4-0.5-0.7c-1.1-0.4-0.5,0.8-1.4,1.2
							C17.9,22.3,18.2,22.1,17.7,21.8z"/>
					</g>
					<g>
						<path class="st30" d="M17.7,21.3c0-0.2-0.5-0.5,0.2-0.6C17.2,20.8,17.7,21.1,17.7,21.3z"/>
					</g>
					<g>
						<path class="st30" d="M27.5,20.6c-0.8-0.2-1.6-0.3-2.5-0.5c0.3-0.4-0.1-0.7,0.1-1.1c-0.1-0.3-0.3-0.5-0.4-0.8
							c0-0.4-0.5-0.7-0.4-0.9c0.2-0.2,0.3-0.5,0.5-0.7c0.6,0.3,0.5,0.4,1.1,0.8c0.1,0,0.2-0.1,0.4-0.1c0.5,0.3,0.9,0.7,1.4,1
							c0,0.2,0,0.4,0,0.5c-0.8,0-0.6,0.7-0.6,1l0.7,0.6C27.6,20.5,27.6,20.6,27.5,20.6z"/>
					</g>
					<g>
						<path class="st30" d="M17.9,19.2c-0.1-0.2-0.2-0.4-0.3-0.7c-0.1,0-0.1-0.1-0.1-0.1c-0.2-0.1-0.5-0.2-0.7-0.3
							c0-0.2-0.1-0.4-0.1-0.7l0.1-0.2c0.1-0.2,0.2-0.5,0.3-0.7c0.1-0.3,0.1-0.5,0.2-0.8c-0.1-0.3-1.2-0.2-0.8-0.7
							c0.1-0.2,0.2-0.3,0.3-0.5c0-0.1,0.1-0.3,0.1-0.4c0.2-0.1,0.3-0.1,0.4-0.2c-0.2-0.2-0.4-0.3-0.5-0.5c0.1-0.3,0.2-0.5,0.4-0.8
							c0-0.3-0.1-0.6-0.1-1c0.1-0.1,0.3-0.2,0.4-0.3c0.3,0,0.6,0.1,0.9,0.1c0,0.3,0,0.6-0.1,0.9c0.2,0.1,0.3,0.1,0.5,0.2
							c-0.2,0.4-0.3,0.8-0.5,1.2c0,0.1,0,0.3,0.1,0.4c-0.2,0.2-0.4,0.4-0.5,0.7c0,0.1,0,0.2,0.1,0.3c0.3,0,0.6,0.1,1,0.1
							c0.1,0.1,0.1,0.2,0.2,0.3c-0.7,0.3-0.4,0.9-0.4,1.3c-0.1,0.2-0.2,0.5-0.4,0.7c0.1,0.2,0.1,0.4,0.2,0.7l0.2,0.5
							C18.4,19.1,18.1,19.1,17.9,19.2z"/>
					</g>
					<g>
						<path class="st30" d="M27.4,16.6c0-0.1,0-0.1,0.1-0.2c0.1-0.4,0.2-0.7,0.3-1.1c0.7,0.3,0.7,0.7,0.5,1.1c0.2,0.4,0.3,0.8-0.3,1
							C27.8,17.1,27.6,16.9,27.4,16.6z"/>
					</g>
					<g>
						<path class="st30" d="M24.6,16c-0.6-0.4-0.2-0.8-0.2-1.2c-0.1-0.2-0.2-0.4-0.3-0.7l0.8,0.1c0.2,0.2,0.3,0.5,0.5,0.7
							c-0.2,0.4-0.4,0.8-0.6,1.2C24.7,16.1,24.7,16.1,24.6,16z"/>
					</g>
					<g>
						<path class="st30" d="M26.3,12.3c0.1-0.2,0.2-0.4,0.3-0.6c0.4,0,0.7-0.1,1-0.1c0.1,0.1,0.2,0.3,0.4,0.4l-0.9,0.9
							C26.7,12.7,26.2,12.6,26.3,12.3z"/>
					</g>
					<g>
						<path class="st27" d="M14.6,31.2c-0.9-0.1-0.4-0.4-0.7-0.5c0.2-0.9,0.6-2.2,0.6-3.1c0.1-0.6,0.2-1.1,0.3-1.7
							c-0.4-0.1-0.2-0.3-0.5-0.4c0.2-1.4,0.9-2.6,0.5-3.9c0.2-1,0.2-2.2-0.1-3.3c0.9-0.5-0.6-1.2,0.5-1.5c-1.1-0.4,1-1.4-0.9-1.4
							c-0.2-0.9,0-1.7-0.6-2.6c-0.7,0.1,0-0.4-0.4-0.6c0-0.4-0.5-0.6-0.4-1.1c-0.4-0.6,0.2-1.2,0.1-2c-0.7,0-0.6-0.6-1.1-0.7
							c-0.2-0.7,0.7-0.4,1-0.8c0-0.2,0-0.4,0-0.5c0.3,0,0.5,0.1,0.8,0.2c0.4-0.1,0.8-0.2,1.2-0.3c0.1-0.2,0.6,0,0.8,0
							c-0.1,0.5-0.2,1.1-0.3,1.7c-0.4,0.1-0.6,0.2-0.8,0.1C14.5,9.3,14.9,9.5,15,10c-0.5,1.1,0.6,1.7,0.1,2.8c1,0,0.3,0.6,0.8,0.8
							c-0.6,1,0.1,1.8,0.1,2.7c0.3,0.3-0.3,0.8,0.3,1.2c-0.2,0.3-0.5,0.7,0.1,1.1c0.1,0.7-0.2,1.6-0.2,2.4c-0.1,0.2-0.2,0.5-0.4,0.7
							c-0.1,0.2-0.4,0.5,0.2,0.7l-0.2,0.8c-0.2,0.2-0.4,0.5,0.1,0.6c0,0.4-0.1,0.8-0.2,1.3c-0.2,0.2-0.3,0.3,0.1,0.8
							c0,0.1,0,0.3,0.1,0.4c-0.4,0.5-0.7,1-1.1,1.4c0.2,0.2-0.1,0.5,0.5,0.7c0,0.1-0.1,0.3-0.1,0.4c-0.2,0.2-0.4,0.5,0.1,0.7
							l-0.1,0.2C15.1,30.1,14.8,30.6,14.6,31.2z"/>
					</g>
					<g>
						<path class="st30" d="M17.4,11.2c-0.1-0.2-0.7-0.1-0.3-0.7C16.7,11.1,17.3,11,17.4,11.2z"/>
					</g>
					<g>
						<path class="st30" d="M16.1,8.9c0,0,0-0.1,0-0.1c0.4,0,0.7-0.1,1-0.1c0,0.2,0.1,0.5,0.1,0.8l-0.1,0.2c0,0-0.1-0.1-0.1-0.1
							C16.7,9.3,16.4,9.1,16.1,8.9z"/>
					</g>
					<g>
						<path class="st30" d="M17.8,8.5c0.3-0.1,0.6-0.2,0.9-0.3c-0.1,0.2-0.1,0.4-0.2,0.6L17.8,8.5z"/>
					</g>
					<g>
						<path class="st32" d="M25.9,17.4c-0.5-0.4-0.5-0.5-1.1-0.8c0-0.1-0.1-0.3-0.1-0.4c-0.1-0.1-0.1-0.1-0.1-0.1
							c0.1-0.2,0.3-0.3,0.5-0.5c0.1-0.2,0-0.6,0.3-0.6c0.3,0,0.5,0.1,0.8,0.1c0,0.2-0.3,0.6,0,0.6c0.2,0.3,0,0.7,0.2,1.1l-0.1,0.5
							C26.1,17.3,26,17.3,25.9,17.4z"/>
					</g>
					<g>
						<path class="st32" d="M19.1,12.7l0.1-1c0-0.2-0.1-0.4-0.1-0.7l0.3-0.2c0-0.2,0-0.3-0.1-0.4l1.8-0.5l-0.3,1
							c0.3,0.3-0.4,0.8,0.3,0.9c-0.1,0.4-0.2,0.7-0.3,1.1c-0.4,0.2-0.8,0.4-1.1,0.6C19.5,13.2,19.3,13,19.1,12.7z"/>
					</g>
					<g>
						<path class="st31" d="M25.4,15c-0.1-0.2-0.3-0.5-0.5-0.7l-0.8-0.1l0.1-0.5c0-0.3,0-0.6-0.1-1c0,0,0-0.1,0-0.1
							c0.2-0.2,0.4-0.4,0.6-0.6c-0.2-0.1-0.5-0.2-0.7-0.3c-0.2,0-0.3,0-0.5,0c-0.1-0.3-0.1-0.6-0.1-0.9c0.2,0,0.4,0.1,0.6,0.1
							c0.4,0,0.8,0.1,1.1,0.1c0.2,0,0.3,0,0.5,0c0.1-0.7,0.3-1.3-0.1-1.6l0.1-0.9c0.3-0.2,0.6-0.3,1-0.5l0.8,0.1
							c0,0.2-0.3,0.5,0,0.7c0.1,0.5-0.1,1.2-0.2,1.8c-0.3,0.3,0.2,0.5,0.3,1c-0.3,0-0.7,0.1-1,0.1c-0.1,0.2-0.2,0.4-0.3,0.6
							c0,0.3,0.5,0.3,0.8,0.5c0,0,0,0.1,0,0.1c-0.1,0.2-0.1,0.4-0.2,0.6c-0.1,0-0.2,0-0.4,0.1c-0.1,0.4-0.2,0.9-0.4,1.3
							c0,0,0,0.1,0,0.1C25.9,15,25.7,15,25.4,15z"/>
					</g>
					<g>
						<path class="st32" d="M24.2,12.6c0-0.3-0.5-0.3-0.6-0.9c0.1,0,0.3,0,0.5,0c0.2,0.1,0.5,0.2,0.7,0.3
							C24.7,12.2,24.4,12.4,24.2,12.6z"/>
					</g>
					<g>
						<path class="st32" d="M24.2,10.9c-0.2,0-0.4-0.1-0.6-0.1c-0.1-0.2-0.3-0.3-0.3-0.5c0.2-0.2,0.5-0.4,0.8-0.5
							c-0.1-0.3-0.4-0.4-0.5-0.7C23.7,9.1,23.9,9,24,9c0.4,0.2,0.8,0.3,1.2,0.5c0.2,0,0.4,0,0.5,0c0.4,0.3,0.2,0.9,0.1,1.6
							c-0.2,0-0.3,0-0.5,0C24.9,11,24.5,11,24.2,10.9z"/>
					</g>
					<g>
						<path class="st31" d="M19.6,71.3c0,0.2,0,0.5,0.1,0.7C19.7,71.8,19.7,71.6,19.6,71.3z"/>
					</g>
					<g>
						<path class="st31" d="M19.8,70.1c0.2,0,0.4,0,0.6,0c0.1,0.3,0.2,0.4,0.1,0.6c-0.3,0.1-0.5,0.1-0.8,0.2L19.8,70.1z"/>
					</g>
					<g>
						<path class="st31" d="M17.5,41c0-0.1,0-0.1,0.1-0.2c0.1-0.2,0.1-0.4,0.2-0.6c0.3-0.1,0.6-0.1,0.8-0.1l0,1.1
							c-0.1,0.1-0.3,0.2-0.4,0.4C18,41.4,17.7,41.2,17.5,41z"/>
					</g>
					<g>
						<path class="st31" d="M19.6,32.5c-0.3-0.1-0.8-0.4-0.1-1.1c-0.3-1.2-0.5-1.7-0.3-2.6l0.6-0.4c0,0.1,0.4,0.3,0.5,0.4
							c-0.1,0.8-0.1,1.7-0.2,2.5c0,0-0.1,0.1-0.2,0.1c-0.1,0.4-0.1,0.8-0.2,1.1L19.6,32.5z"/>
					</g>
					<g>
						<path class="st31" d="M19.5,28.1c0.1-0.3,0.2-0.6,0.2-0.9c-0.6-0.1,0.1-0.6-0.3-0.8c0.2-0.2,0.3-0.4,0.5-0.7
							c0.1,0.5,0.9,0.6,0.4,1.5c0,0.2,0.1,0.3,0,0.5l-0.4,0.5C19.8,28.2,19.6,28.1,19.5,28.1z"/>
					</g>
					<g>
						<path class="st31" d="M17.8,23.4c0-0.2-0.1-0.4-0.2-0.6c0.2,0,0.4,0,0.5,0c0.3,0.1,0.5,0.3,0.1,0.7
							C18.1,23.5,17.9,23.4,17.8,23.4z"/>
					</g>
					<g>
						<path class="st31" d="M23.2,10.3l-0.7-0.6c0.2-0.2,0.4-0.4,0.6-0.6c0.1,0,0.2,0,0.3,0c0.1,0.3,0.3,0.4,0.5,0.7
							C23.7,10,23.4,10.2,23.2,10.3z"/>
					</g>
					<g>
						<path class="st27" d="M14.2,59.5c0-0.1,0.1-0.1,0.2-0.2C14.3,59.4,14.3,59.5,14.2,59.5z"/>
					</g>
					<g>
						<path class="st27" d="M20.2,43.6c-0.1,0-0.2,0-0.3,0.1C20,43.7,20.1,43.6,20.2,43.6z"/>
					</g>
					<g>
						<path class="st27" d="M14.1,35.7c-0.8-0.2-0.3-0.6-0.6-0.8c-0.2,0-0.2-0.6,0.4-0.5c-0.1-0.2-0.2-0.4-0.3-0.6
							c0-0.2,0.3-0.5,0-0.6c-0.3,0,0-0.3-0.1-0.4c0.6,0.1,0.3-0.5,0.7-0.7c0.3,0,0.4,0.5,0.5,0.6c0.1,0.3,0.2,0.6,0.2,0.9
							c0.1,0.1,0.1,0.1,0.1,0.1c-0.3,0.2-0.6,0.5-0.8,0.7L14.1,35.7z"/>
					</g>
					<g>
						<path class="st30" d="M18.4,68.9c-0.5,0.1-0.8,0.1-1.1,0.2c0,0.1,0,0.2-0.4,0.6l-0.3,0c-0.1-0.2-0.2-0.5-0.3-0.8
							c0.2-0.2,0.5-0.5,0.7-0.7C17.5,68.5,17.9,68.7,18.4,68.9z"/>
					</g>
					<g>
						<path class="st30" d="M18.6,68.9c0,0-0.1,0-0.2,0C18.5,68.9,18.5,68.9,18.6,68.9z"/>
					</g>
					<g>
						<path class="st30" d="M21.1,9.4c-0.1-0.1-0.2-0.1-0.3-0.1C21,9.3,21.1,9.3,21.1,9.4z"/>
					</g>
					<g>
						<path class="st31" d="M27.8,23.9c0.1-0.4,0.2-0.8,0.3-1.2c0.6,0.2,0.6,0.4,0.5,0.6C28.8,23.7,27.9,23.7,27.8,23.9z"/>
					</g>
					<g>
						<path class="st27" d="M14.3,32.2c-0.6-0.4-0.2-0.8,0.3-1c0.1,0.1,0.6,0.3,0.3,0.6C14.7,31.9,14.5,32,14.3,32.2z"/>
					</g>
				</g>
			</g>
		</g>
		<g>
			<g>
				<g>
					<g>
						<path class="st19" d="M4.7,112.8c0,3,0,5.9,0,8.9c0,1.8-0.2,3,1.6,3.7c1.7,0.7,4.8,1.6,6.7,1.5c0.9-0.1,2.1-0.4,2.7-1.1
							c1.1-1.3,0.9-3.8,1-5.4c0.2-2.6,0.5-5.6,0.1-8.1c-0.2-1.2-0.4-1.6-1.6-1.8c-2.1-0.4-5,0.5-7.1,0.7c-1.4,0.2-2.5,1.8-0.4,1.6
							c1.4-0.2,2.8-0.4,4.2-0.5c1.8-0.1,1.9,0.1,2,1.9c0.1,3.3,0.2,7-0.5,10.3c-0.2,0.9,0.8,0.4-0.2,0.6c-0.5,0.1-1.6-0.4-2.1-0.5
							c-1-0.2-1.6-0.3-2.4-1c-1-0.8-0.9-0.8-0.9-2.1c0-3.1,0-6.3,0-9.5C7.6,111.1,4.7,111.6,4.7,112.8L4.7,112.8z"/>
					</g>
				</g>
			</g>
			<g>
				<g>
					<g>
						<path class="st19" d="M6.8,99.5c-1.8-33-3.6-66-5.3-99C0.6,0.9-0.1,1.3-0.9,1.6C4,3,9,4.2,14.1,5.1c2.8,0.5,4.4,0.2,5,3.3
							c0.4,2.1-0.2,4.9-0.2,7.1c-0.4,10.1-0.8,20.1-1.2,30.2c-0.9,20.1-2,40.2-3.2,60.4c0.7-0.3,1.4-0.7,2-1
							c-3.5-0.2-7.1-0.5-10.6-0.7c-1.1-0.1-3.1,1.5-1.1,1.7c3.5,0.2,7.1,0.5,10.6,0.7c0.5,0,2-0.3,2-1C19.4,72.2,21,38.6,22.1,5
							c0-0.4-0.2-0.6-0.6-0.6c-7-1-13.9-2.5-20.7-4.4C0.1-0.2-1.6,0.3-1.5,1.2c1.8,33,3.6,66,5.3,99C3.9,101.2,6.8,100.6,6.8,99.5
							L6.8,99.5z"/>
					</g>
				</g>
			</g>
		</g>
	</g>
</g>
</svg>
